<?xml version="1.0" encoding="utf-8"?>
<!-- Generator: Adobe Illustrator 26.2.1, SVG Export Plug-In . SVG Version: 6.00 Build 0)  -->
<svg version="1.1" xmlns="http://www.w3.org/2000/svg" xmlns:xlink="http://www.w3.org/1999/xlink" x="0px" y="0px"
	 viewBox="0 0 100 100" style="enable-background:new 0 0 100 100;" xml:space="preserve">
<style type="text/css">
	.st0{display:none;}
	.st1{display:inline;}
</style>
<g id="Stroke6">
	<g>
		<path d="M95.4,75.3v6.3H53v14.8h-6.8V81.6H4.6v-6.3h41.6v-8.6H15.3V27.4h30.9v-8.1H7.4v-6.2h38.8V3.6L55,4.2
			c-0.1,0.7-0.6,1.2-2,1.4v7.5h39.3v6.2H53v8.1h32v39.3H53v8.6H95.4z M21.8,33.1v11.1h24.4V33.1H21.8z M21.8,61h24.4V49.7H21.8V61z
			 M78.2,33.1H53v11.1h25.2V33.1z M78.2,61V49.7H53V61H78.2z"/>
	</g>
	<g>
		<line x1="58.6" y1="4.3" x2="58.6" y2="12.6"/>
		<g>
			<rect x="57.8" y="4.3" width="1.5" height="3.8"/>
			<g>
				<path d="M58.6,12.6c-0.8-2.1-2.1-4.8-3.6-6.4l3.6,1.3l3.6-1.3C60.7,7.8,59.4,10.4,58.6,12.6z"/>
			</g>
		</g>
	</g>
	<g>
		<path d="M65.7,3.9v0.3L64,7.8h-0.5l1.7-3.4v0h-1.9V3.9H65.7z"/>
	</g>
</g>
<g id="Stroke5" class="st0">
	<g class="st1">
		<path d="M46.2,19.3H7.4v-6.2h38.8H53h39.3v6.2H53 M46.2,66.7H15.3V27.4H85v39.3H53 M46.2,81.6H4.6v-6.3c1.5-0.3,90.8,0,90.8,0v6.3
			H53 M53,44.2h25.2V33.1H21.8v11.1h24.4 M53,61h25.2V49.7H21.8V61h24.4"/>
	</g>
	<g class="st1">
		<path d="M4.6,85.6c0.4,0,13.4,0,13.4,0"/>
		<g>
			<rect x="4.6" y="84.9" width="8.9" height="1.5"/>
			<g>
				<path d="M18,85.6c-2.1,0.8-4.8,2.1-6.4,3.6l1.3-3.6L11.6,82C13.2,83.5,15.8,84.8,18,85.6z"/>
			</g>
		</g>
	</g>
	<g class="st1">
		<path d="M7.1,88.5c-0.1,0-0.2,0-0.4,0c-0.8,0.1-1.3,0.7-1.4,1.4h0c0.2-0.2,0.5-0.4,0.9-0.4c0.7,0,1.2,0.5,1.2,1.3
			C7.5,91.4,7,92,6.2,92c-0.8,0-1.4-0.6-1.4-1.7c0-0.8,0.3-1.4,0.7-1.8c0.3-0.3,0.8-0.5,1.2-0.6c0.2,0,0.3,0,0.4,0V88.5z M6.9,90.7
			c0-0.6-0.3-0.9-0.8-0.9c-0.3,0-0.6,0.2-0.8,0.5c0,0.1-0.1,0.1-0.1,0.2c0,0.6,0.3,1.1,0.9,1.1C6.6,91.6,6.9,91.3,6.9,90.7z"/>
	</g>
</g>
<g id="Stroke4" class="st0">
	<g class="st1">
		<path d="M53,13.1h39.3v6.2H53h-6.8H7.4v-6.2h38.8 M46.2,66.7H15.3V27.4c2.2-0.5,69.7,0,69.7,0v39.3H53 M46.2,33.1H21.8v11.1
			c1.4-0.1,56.4,0,56.4,0V33.1H53 M53,61h25.2V49.7c0,0-55-0.4-56.4,0V61h24.4"/>
	</g>
	<g class="st1">
		<path d="M15.3,70.4c0.7,0,11,0,11,0"/>
		<g>
			<rect x="15.3" y="69.7" width="6.5" height="1.5"/>
			<g>
				<path d="M26.3,70.4c-2.1,0.8-4.8,2.1-6.4,3.6l1.3-3.6l-1.3-3.6C21.5,68.3,24.1,69.6,26.3,70.4z"/>
			</g>
		</g>
	</g>
	<g class="st1">
		<path d="M17.9,73.7h-1.5l-0.1,1c0.1,0,0.2,0,0.3,0c0.3,0,0.6,0.1,0.8,0.2c0.3,0.2,0.6,0.5,0.6,1c0,0.8-0.6,1.3-1.5,1.3
			c-0.4,0-0.8-0.1-1-0.2l0.1-0.4c0.2,0.1,0.5,0.2,0.8,0.2c0.5,0,0.9-0.3,0.9-0.8c0-0.5-0.3-0.9-1.1-0.9c-0.2,0-0.4,0-0.5,0l0.3-1.9
			h1.9V73.7z"/>
	</g>
</g>
<g id="Stroke3" class="st0">
	<g class="st1">
		<path d="M53,13.1h39.3v6.2H53h-6.8H7.4v-6.2h38.8 M78.2,66.7V61V33.1H53c0,0-5.9-0.2-6.8,0H21.8v11.1V61v5.7h-6.5V27.4H85v39.3
			 M21.8,61 M46.2,49.7 M53,49.7 M78.2,61"/>
	</g>
	<polyline class="st1" points="21.8,44.2 78.2,44.2 78.2,49.7 53,49.7 46.2,49.7 21.8,49.7 	"/>
	<g class="st1">
		<line x1="22.7" y1="53.8" x2="35.7" y2="53.8"/>
		<g>
			<rect x="22.7" y="53" width="8.5" height="1.5"/>
			<g>
				<path d="M35.7,53.8c-2.1,0.8-4.8,2.1-6.4,3.6l1.3-3.6l-1.3-3.6C30.9,51.6,33.6,53,35.7,53.8z"/>
			</g>
		</g>
	</g>
	<g class="st1">
		<path d="M25.2,60.4v-1.1h-1.8V59l1.7-2.5h0.6V59h0.5v0.4h-0.5v1.1H25.2z M25.2,59v-1.3c0-0.2,0-0.4,0-0.6h0
			c-0.1,0.2-0.2,0.4-0.3,0.6l-1,1.3v0H25.2z"/>
	</g>
</g>
<g id="Stroke2" class="st0">
	<g class="st1">
		<path d="M53.9,13.1h39.3v6.2H53.9h-6.8H8.3v-6.2h38.8 M79.2,66.7L79.1,61V49.7v-5.5V33.1c0,0-55.2-0.4-56.4,0v11.1v5.5V61v5.7
			h-6.5V27.4h69.7v39.3"/>
	</g>
	<g class="st1">
		<line x1="24.6" y1="37.1" x2="37.4" y2="37.1"/>
		<g>
			<rect x="24.6" y="36.4" width="8.3" height="1.5"/>
			<g>
				<path d="M37.4,37.1c-2.1,0.8-4.8,2.1-6.4,3.6l1.3-3.6L31,33.5C32.6,35,35.3,36.3,37.4,37.1z"/>
			</g>
		</g>
	</g>
	<g class="st1">
		<path d="M25,42.2c0.1,0.1,0.5,0.2,0.9,0.2c0.7,0,0.9-0.4,0.9-0.8c0-0.5-0.5-0.8-1-0.8h-0.3v-0.4h0.3c0.4,0,0.9-0.2,0.9-0.7
			c0-0.3-0.2-0.6-0.7-0.6c-0.3,0-0.6,0.1-0.8,0.3L25,39.1c0.2-0.1,0.6-0.3,1-0.3c0.8,0,1.1,0.5,1.1,0.9c0,0.4-0.2,0.7-0.7,0.9v0
			c0.5,0.1,0.9,0.5,0.9,1c0,0.6-0.5,1.2-1.4,1.2c-0.4,0-0.8-0.1-1-0.3L25,42.2z"/>
	</g>
</g>
<g id="Stroke1" class="st0">
	<g class="st1">
		<path d="M46.2,19.3H7.4v-6.2h38.8H53h39.3v6.2H53 M21.8,66.7h-6.5V27.4h6.5v5.7v11.1v5.5V61"/>
	</g>
	<g class="st1">
		<line x1="26.3" y1="28.1" x2="26.3" y2="41.2"/>
		<g>
			<rect x="25.5" y="28.1" width="1.5" height="8.7"/>
			<g>
				<path d="M26.3,41.2c-0.8-2.1-2.1-4.8-3.6-6.4l3.6,1.3l3.6-1.3C28.4,36.5,27,39.1,26.3,41.2z"/>
			</g>
		</g>
	</g>
	<g class="st1">
		<path d="M29.2,32v-0.3l0.4-0.4c1-0.9,1.4-1.5,1.5-2c0-0.4-0.2-0.8-0.8-0.8c-0.4,0-0.6,0.2-0.8,0.3l-0.2-0.4
			c0.3-0.2,0.7-0.4,1.1-0.4c0.8,0,1.2,0.6,1.2,1.1c0,0.7-0.5,1.3-1.3,2.1L30,31.5v0h1.8V32H29.2z"/>
	</g>
</g>
<g id="Stroke0" class="st0">
	<g class="st1">
		<path d="M53,13.1h39.3v6.2H53h-6.8H7.4v-6.2h38.8"/>
	</g>
	<g class="st1">
		<path d="M7.4,23.6c0.8,0,14.7,0,14.7,0"/>
		<g>
			<rect x="7.4" y="22.9" width="10.2" height="1.5"/>
			<g>
				<path d="M22.1,23.6c-2.1,0.8-4.8,2.1-6.4,3.6l1.3-3.6l-1.3-3.6C17.4,21.5,20,22.8,22.1,23.6z"/>
			</g>
		</g>
	</g>
	<g class="st1">
		<path d="M8.8,27.7L8.8,27.7l-0.7,0.4L8,27.7l0.9-0.5h0.4v3.9H8.8V27.7z"/>
	</g>
</g>
<g id="Kanji" class="st0">
	<g class="st1">
		<path d="M95.4,75.3v6.3H53v14.8h-6.8V81.6H4.6v-6.3h41.6v-8.6H15.3V27.4h30.9v-8.1H7.4v-6.2h38.8V3.6L55,4.2
			c-0.1,0.7-0.6,1.2-2,1.4v7.5h39.3v6.2H53v8.1h32v39.3H53v8.6H95.4z M21.8,33.1v11.1h24.4V33.1H21.8z M21.8,61h24.4V49.7H21.8V61z
			 M78.2,33.1H53v11.1h25.2V33.1z M78.2,61V49.7H53V61H78.2z"/>
	</g>
</g>
</svg>
