<?xml version="1.0" encoding="utf-8"?>
<!-- Generator: Adobe Illustrator 26.2.1, SVG Export Plug-In . SVG Version: 6.00 Build 0)  -->
<svg version="1.1" xmlns="http://www.w3.org/2000/svg" xmlns:xlink="http://www.w3.org/1999/xlink" x="0px" y="0px"
	 viewBox="0 0 100 100" style="enable-background:new 0 0 100 100;" xml:space="preserve" width = "100px" height = "100px">
<style type="text/css">
	.st0{display:none;}
	.st1{display:inline;}
</style>

		<path d="M95.4,75.3v6.3H53v14.8h-6.8V81.6H4.6v-6.3h41.6v-8.6H15.3V27.4h30.9v-8.1H7.4v-6.2h38.8V3.6L55,4.2
			c-0.1,0.7-0.6,1.2-2,1.4v7.5h39.3v6.2H53v8.1h32v39.3H53v8.6H95.4z M21.8,33.1v11.1h24.4V33.1H21.8z M21.8,61h24.4V49.7H21.8V61z
			 M78.2,33.1H53v11.1h25.2V33.1z M78.2,61V49.7H53V61H78.2z"/>

		<line x1="58.6" y1="4.3" x2="58.6" y2="12.6"/>

		<rect x="57.8" y="4.3" width="1.5" height="3.8"/>
		
		<path d="M58.6,12.6c-0.8-2.1-2.1-4.8-3.6-6.4l3.6,1.3l3.6-1.3C60.7,7.8,59.4,10.4,58.6,12.6z"/>

		<path d="M65.7,3.9v0.3L64,7.8h-0.5l1.7-3.4v0h-1.9V3.9H65.7z"/>


 </svg>