<?xml version="1.0" encoding="utf-8"?>
<!-- Generator: Adobe Illustrator 26.2.1, SVG Export Plug-In . SVG Version: 6.00 Build 0)  -->
<svg version="1.1" xmlns="http://www.w3.org/2000/svg" xmlns:xlink="http://www.w3.org/1999/xlink" x="0px" y="0px"
	 viewBox="0 0 100 100" style="enable-background:new 0 0 100 100;" xml:space="preserve" width = "100px" height = "100px">
<style type="text/css">
	.st0{display:none;}
	.st1{display:inline;}
</style> 

		<path d="M53.9,13.1h39.3v6.2H53.9h-6.8H8.3v-6.2h38.8 M79.2,66.7L79.1,61V49.7v-5.5V33.1c0,0-55.2-0.4-56.4,0v11.1v5.5V61v5.7
			h-6.5V27.4h69.7v39.3"/>

		<line x1="24.6" y1="37.1" x2="37.4" y2="37.1"/>
	
			<rect x="24.6" y="36.4" width="8.3" height="1.5"/>
	
				<path d="M37.4,37.1c-2.1,0.8-4.8,2.1-6.4,3.6l1.3-3.6L31,33.5C32.6,35,35.3,36.3,37.4,37.1z"/>
	
		<path d="M25,42.2c0.1,0.1,0.5,0.2,0.9,0.2c0.7,0,0.9-0.4,0.9-0.8c0-0.5-0.5-0.8-1-0.8h-0.3v-0.4h0.3c0.4,0,0.9-0.2,0.9-0.7
			c0-0.3-0.2-0.6-0.7-0.6c-0.3,0-0.6,0.1-0.8,0.3L25,39.1c0.2-0.1,0.6-0.3,1-0.3c0.8,0,1.1,0.5,1.1,0.9c0,0.4-0.2,0.7-0.7,0.9v0
			c0.5,0.1,0.9,0.5,0.9,1c0,0.6-0.5,1.2-1.4,1.2c-0.4,0-0.8-0.1-1-0.3L25,42.2z"/>



</svg>