<?xml version="1.0" encoding="utf-8"?>
<!-- Generator: Adobe Illustrator 26.2.1, SVG Export Plug-In . SVG Version: 6.00 Build 0)  -->
<svg version="1.1" xmlns="http://www.w3.org/2000/svg" xmlns:xlink="http://www.w3.org/1999/xlink" x="0px" y="0px"
	 viewBox="0 0 100 100" style="enable-background:new 0 0 100 100;" xml:space="preserve" width = "100px" height = "100px">
<style type="text/css">
	.st0{display:none;}
	.st1{display:inline;}
</style>


		<path d="M46.2,19.3H7.4v-6.2h38.8H53h39.3v6.2H53 M21.8,66.7h-6.5V27.4h6.5v5.7v11.1v5.5V61"/>

		<line x1="26.3" y1="28.1" x2="26.3" y2="41.2"/>

			<rect x="25.5" y="28.1" width="1.5" height="8.7"/>

				<path d="M26.3,41.2c-0.8-2.1-2.1-4.8-3.6-6.4l3.6,1.3l3.6-1.3C28.4,36.5,27,39.1,26.3,41.2z"/>
	
		<path d="M29.2,32v-0.3l0.4-0.4c1-0.9,1.4-1.5,1.5-2c0-0.4-0.2-0.8-0.8-0.8c-0.4,0-0.6,0.2-0.8,0.3l-0.2-0.4
			c0.3-0.2,0.7-0.4,1.1-0.4c0.8,0,1.2,0.6,1.2,1.1c0,0.7-0.5,1.3-1.3,2.1L30,31.5v0h1.8V32H29.2z"/>

 </svg>