<?xml version="1.0" encoding="utf-8"?>
<!-- Generator: Adobe Illustrator 26.2.1, SVG Export Plug-In . SVG Version: 6.00 Build 0)  -->
<svg version="1.1" xmlns="http://www.w3.org/2000/svg" xmlns:xlink="http://www.w3.org/1999/xlink" x="0px" y="0px"
	 viewBox="0 0 100 100" style="enable-background:new 0 0 100 100;" xml:space="preserve" width = "100px" height = "100px">
<style type="text/css">
	.st0{display:none;}
	.st1{display:inline;}
</style>

		<path d="M46.2,19.3H7.4v-6.2h38.8H53h39.3v6.2H53 M46.2,66.7H15.3V27.4H85v39.3H53 M46.2,81.6H4.6v-6.3c1.5-0.3,90.8,0,90.8,0v6.3
			H53 M53,44.2h25.2V33.1H21.8v11.1h24.4 M53,61h25.2V49.7H21.8V61h24.4"/>

		<path d="M4.6,85.6c0.4,0,13.4,0,13.4,0"/>

		<rect x="4.6" y="84.9" width="8.9" height="1.5"/>

		<path d="M18,85.6c-2.1,0.8-4.8,2.1-6.4,3.6l1.3-3.6L11.6,82C13.2,83.5,15.8,84.8,18,85.6z"/>

		<path d="M7.1,88.5c-0.1,0-0.2,0-0.4,0c-0.8,0.1-1.3,0.7-1.4,1.4h0c0.2-0.2,0.5-0.4,0.9-0.4c0.7,0,1.2,0.5,1.2,1.3
			C7.5,91.4,7,92,6.2,92c-0.8,0-1.4-0.6-1.4-1.7c0-0.8,0.3-1.4,0.7-1.8c0.3-0.3,0.8-0.5,1.2-0.6c0.2,0,0.3,0,0.4,0V88.5z M6.9,90.7
			c0-0.6-0.3-0.9-0.8-0.9c-0.3,0-0.6,0.2-0.8,0.5c0,0.1-0.1,0.1-0.1,0.2c0,0.6,0.3,1.1,0.9,1.1C6.6,91.6,6.9,91.3,6.9,90.7z"/>


 </svg>