<?xml version="1.0" encoding="utf-8"?>
<!-- Generator: Adobe Illustrator 26.2.1, SVG Export Plug-In . SVG Version: 6.00 Build 0)  -->
<svg version="1.1" xmlns="http://www.w3.org/2000/svg" xmlns:xlink="http://www.w3.org/1999/xlink" x="0px" y="0px"
	 viewBox="0 0 100 100" style="enable-background:new 0 0 100 100;" xml:space="preserve">
<style type="text/css">
	.st0{display:none;}
	.st1{display:inline;}
</style>
<g id="Stroke4">
	<g>
		<path d="M32,29.1V4.9l8.9,0.6c-0.1,0.7-0.7,1.2-2,1.4v88.1H32V71.8c-9.3,4-18.5,7.9-24.7,10.4c0,0.8-0.5,1.5-1.2,1.7l-3.6-7.6
			C10,73.8,21,69.5,32,65.1V35.7H5.5v-6.6H32z M63.4,80.7c0,5.2,1,6.3,5.5,6.3h15.8c4.9,0,5.6-4.4,6.3-21.3c1.7,1.4,4.5,2.7,6.5,3.1
			c-0.9,18.4-2.7,24.8-12.4,24.8H68.3c-9.1,0-11.8-2.8-11.8-13V4.9l9,0.6c-0.1,0.7-0.7,1.2-2.1,1.4v32.5c9.8-5.9,19.8-12.9,26-18.9
			l5.8,6.3c-0.3,0.3-0.7,0.4-1.2,0.4c-0.3,0-0.6,0-0.9-0.1c-7.2,6.1-18.9,13.1-29.7,19.2V80.7z"/>
	</g>
	<g>
		<line x1="67.4" y1="7.9" x2="67.4" y2="20.6"/>
		<g>
			<rect x="66.6" y="7.9" width="1.5" height="8.2"/>
			<g>
				<path d="M67.4,20.6c-0.8-2.1-2.1-4.8-3.6-6.4l3.6,1.3l3.6-1.3C69.5,15.8,68.2,18.5,67.4,20.6z"/>
			</g>
		</g>
	</g>
	<g>
		<path d="M73.2,7.1h-1.5l-0.1,1c0.1,0,0.2,0,0.3,0c0.3,0,0.6,0.1,0.8,0.2c0.3,0.2,0.6,0.5,0.6,1c0,0.8-0.6,1.3-1.5,1.3
			c-0.4,0-0.8-0.1-1-0.2L71,10c0.2,0.1,0.5,0.2,0.8,0.2c0.5,0,0.9-0.3,0.9-0.8c0-0.5-0.3-0.9-1.1-0.9c-0.2,0-0.4,0-0.5,0l0.3-1.9
			h1.9V7.1z"/>
	</g>
</g>
<g id="Stroke3" class="st0">
	<g class="st1">
		<path d="M32,29.1V4.9l8.9,0.6c-0.1,0.7-0.7,1.2-2,1.4v88.1H32V71.8c-9.3,4-18.5,7.9-24.7,10.4c0,0.8-0.5,1.5-1.2,1.7l-3.6-7.6
			C10,73.8,21,69.5,32,65.1V35.7H5.5v-6.6H32z M63.4,39.4c9.8-5.9,19.8-12.9,26-18.9l5.8,6.3c-0.3,0.3-0.7,0.4-1.2,0.4
			c-0.3,0-0.6,0-0.9-0.1c-7.2,6.1-18.9,13.1-29.7,19.2"/>
	</g>
	<g class="st1">
		<line x1="83.5" y1="19.7" x2="72.8" y2="28.1"/>
		<g>
			<rect x="75.4" y="21.7" transform="matrix(0.7878 -0.6159 0.6159 0.7878 3.1052 54.0098)" width="9.2" height="1.5"/>
			<g>
				<path d="M72.8,28.1c1.2-1.9,2.4-4.6,2.9-6.8l1.2,3.6l3.2,2C77.8,26.8,74.9,27.4,72.8,28.1z"/>
			</g>
		</g>
	</g>
	<g class="st1">
		<path d="M84.4,18.6v-1.1h-1.8v-0.3l1.7-2.5h0.6v2.4h0.5v0.4h-0.5v1.1H84.4z M84.4,17.1v-1.3c0-0.2,0-0.4,0-0.6h0
			c-0.1,0.2-0.2,0.4-0.3,0.6l-1,1.3v0H84.4z"/>
	</g>
</g>
<g id="Stroke2" class="st0">
	<g class="st1">
		<path d="M32,29.1V4.9l8.9,0.6c-0.1,0.7-0.7,1.2-2,1.4v88.1H32V71.8c-9.3,4-18.5,7.9-24.7,10.4c0,0.8-0.5,1.5-1.2,1.7l-3.6-7.6
			C10,73.8,21,69.5,32,65.1V35.7H5.5v-6.6H32z"/>
	</g>
	<g class="st1">
		<line x1="29.1" y1="61.9" x2="15.4" y2="67.2"/>
		<g>
			<rect x="19.3" y="63" transform="matrix(0.9303 -0.3668 0.3668 0.9303 -21.6736 13.3662)" width="10.2" height="1.5"/>
			<g>
				<path d="M15.4,67.2c1.7-1.5,3.7-3.7,4.7-5.7l0.1,3.8l2.5,2.8C20.6,67.5,17.7,67.2,15.4,67.2z"/>
			</g>
		</g>
	</g>
	<g class="st1">
		<path d="M26.7,58.8c0.1,0.1,0.5,0.2,0.9,0.2c0.7,0,0.9-0.4,0.9-0.8c0-0.5-0.5-0.8-1-0.8h-0.3v-0.4h0.3c0.4,0,0.9-0.2,0.9-0.7
			c0-0.3-0.2-0.6-0.7-0.6c-0.3,0-0.6,0.1-0.8,0.3l-0.1-0.4c0.2-0.1,0.6-0.3,1-0.3c0.8,0,1.1,0.5,1.1,0.9c0,0.4-0.2,0.7-0.7,0.9v0
			c0.5,0.1,0.9,0.5,0.9,1c0,0.6-0.5,1.2-1.4,1.2c-0.4,0-0.8-0.1-1-0.3L26.7,58.8z"/>
	</g>
</g>
<g id="Stroke1" class="st0">
	<g class="st1">
		<path d="M32,65.1V35.7H5.5v-6.6H32V4.9l8.9,0.6c-0.1,0.7-0.7,1.2-2,1.4v88.1H32V71.8"/>
	</g>
	<g class="st1">
		<line x1="43" y1="7.2" x2="43" y2="22.7"/>
		<g>
			<rect x="42.3" y="7.2" width="1.5" height="11"/>
			<g>
				<path d="M43,22.7c-0.8-2.1-2.1-4.8-3.6-6.4l3.6,1.3l3.6-1.3C45.2,17.9,43.8,20.6,43,22.7z"/>
			</g>
		</g>
	</g>
	<g class="st1">
		<path d="M46.2,11.6v-0.3l0.4-0.4c1-0.9,1.4-1.5,1.5-2c0-0.4-0.2-0.8-0.8-0.8c-0.4,0-0.6,0.2-0.8,0.3L46.3,8
			c0.3-0.2,0.7-0.4,1.1-0.4c0.8,0,1.2,0.6,1.2,1.1c0,0.7-0.5,1.3-1.3,2.1l-0.3,0.3v0h1.8v0.4H46.2z"/>
	</g>
</g>
<g id="Stroke0" class="st0">
	<g class="st1">
		<path d="M32,35.7H5.5v-6.6H32"/>
	</g>
	<g class="st1">
		<line x1="6" y1="39.7" x2="20.8" y2="39.7"/>
		<g>
			<rect x="6" y="39" width="10.3" height="1.5"/>
			<g>
				<path d="M20.8,39.7c-2.1,0.8-4.8,2.1-6.4,3.6l1.3-3.6l-1.3-3.6C16,37.6,18.7,38.9,20.8,39.7z"/>
			</g>
		</g>
	</g>
	<g class="st1">
		<path d="M6.9,43.6L6.9,43.6l-0.7,0.4l-0.1-0.4L7,43.1h0.4V47H6.9V43.6z"/>
	</g>
</g>
<g id="Kanji" class="st0">
	<g class="st1">
		<path d="M32,29.1V4.9l8.9,0.6c-0.1,0.7-0.7,1.2-2,1.4v88.1H32V71.8c-9.3,4-18.5,7.9-24.7,10.4c0,0.8-0.5,1.5-1.2,1.7l-3.6-7.6
			C10,73.8,21,69.5,32,65.1V35.7H5.5v-6.6H32z M63.4,80.7c0,5.2,1,6.3,5.5,6.3h15.8c4.9,0,5.6-4.4,6.3-21.3c1.7,1.4,4.5,2.7,6.5,3.1
			c-0.9,18.4-2.7,24.8-12.4,24.8H68.3c-9.1,0-11.8-2.8-11.8-13V4.9l9,0.6c-0.1,0.7-0.7,1.2-2.1,1.4v32.5c9.8-5.9,19.8-12.9,26-18.9
			l5.8,6.3c-0.3,0.3-0.7,0.4-1.2,0.4c-0.3,0-0.6,0-0.9-0.1c-7.2,6.1-18.9,13.1-29.7,19.2V80.7z"/>
	</g>
</g>
</svg>
