<?xml version="1.0" encoding="utf-8"?>
<!-- Generator: Adobe Illustrator 26.2.1, SVG Export Plug-In . SVG Version: 6.00 Build 0)  -->
<svg version="1.1" xmlns="http://www.w3.org/2000/svg" xmlns:xlink="http://www.w3.org/1999/xlink" x="0px" y="0px"
	 viewBox="0 0 100 100" style="enable-background:new 0 0 100 100;" xml:space="preserve" width = "100px" height = "100px">
<style type="text/css">
	.st0{display:none;}
	.st1{display:inline;}
</style> 


		<path d="M32,29.1V4.9l8.9,0.6c-0.1,0.7-0.7,1.2-2,1.4v88.1H32V71.8c-9.3,4-18.5,7.9-24.7,10.4c0,0.8-0.5,1.5-1.2,1.7l-3.6-7.6
			C10,73.8,21,69.5,32,65.1V35.7H5.5v-6.6H32z M63.4,39.4c9.8-5.9,19.8-12.9,26-18.9l5.8,6.3c-0.3,0.3-0.7,0.4-1.2,0.4
			c-0.3,0-0.6,0-0.9-0.1c-7.2,6.1-18.9,13.1-29.7,19.2"/>

		<line x1="83.5" y1="19.7" x2="72.8" y2="28.1"/>

			<rect x="75.4" y="21.7" transform="matrix(0.7878 -0.6159 0.6159 0.7878 3.1052 54.0098)" width="9.2" height="1.5"/>
	
				<path d="M72.8,28.1c1.2-1.9,2.4-4.6,2.9-6.8l1.2,3.6l3.2,2C77.8,26.8,74.9,27.4,72.8,28.1z"/>

		<path d="M84.4,18.6v-1.1h-1.8v-0.3l1.7-2.5h0.6v2.4h0.5v0.4h-0.5v1.1H84.4z M84.4,17.1v-1.3c0-0.2,0-0.4,0-0.6h0
			c-0.1,0.2-0.2,0.4-0.3,0.6l-1,1.3v0H84.4z"/>



</svg>