<?xml version="1.0" encoding="utf-8"?>
<!-- Generator: Adobe Illustrator 26.2.1, SVG Export Plug-In . SVG Version: 6.00 Build 0)  -->
<svg version="1.1" xmlns="http://www.w3.org/2000/svg" xmlns:xlink="http://www.w3.org/1999/xlink" x="0px" y="0px"
	 viewBox="0 0 100 100" style="enable-background:new 0 0 100 100;" xml:space="preserve" width = "100px" height = "100px">
<style type="text/css">
	.st0{display:none;}
	.st1{display:inline;}
</style> 


		<path d="M32,29.1V4.9l8.9,0.6c-0.1,0.7-0.7,1.2-2,1.4v88.1H32V71.8c-9.3,4-18.5,7.9-24.7,10.4c0,0.8-0.5,1.5-1.2,1.7l-3.6-7.6
			C10,73.8,21,69.5,32,65.1V35.7H5.5v-6.6H32z"/>

		<line x1="29.1" y1="61.9" x2="15.4" y2="67.2"/>

			<rect x="19.3" y="63" transform="matrix(0.9303 -0.3668 0.3668 0.9303 -21.6736 13.3662)" width="10.2" height="1.5"/>
	
				<path d="M15.4,67.2c1.7-1.5,3.7-3.7,4.7-5.7l0.1,3.8l2.5,2.8C20.6,67.5,17.7,67.2,15.4,67.2z"/>
	
		<path d="M26.7,58.8c0.1,0.1,0.5,0.2,0.9,0.2c0.7,0,0.9-0.4,0.9-0.8c0-0.5-0.5-0.8-1-0.8h-0.3v-0.4h0.3c0.4,0,0.9-0.2,0.9-0.7
			c0-0.3-0.2-0.6-0.7-0.6c-0.3,0-0.6,0.1-0.8,0.3l-0.1-0.4c0.2-0.1,0.6-0.3,1-0.3c0.8,0,1.1,0.5,1.1,0.9c0,0.4-0.2,0.7-0.7,0.9v0
			c0.5,0.1,0.9,0.5,0.9,1c0,0.6-0.5,1.2-1.4,1.2c-0.4,0-0.8-0.1-1-0.3L26.7,58.8z"/>



</svg>