<?xml version="1.0" encoding="utf-8"?>
<!-- Generator: Adobe Illustrator 26.2.1, SVG Export Plug-In . SVG Version: 6.00 Build 0)  -->
<svg version="1.1" xmlns="http://www.w3.org/2000/svg" xmlns:xlink="http://www.w3.org/1999/xlink" x="0px" y="0px"
	 viewBox="0 0 100 100" style="enable-background:new 0 0 100 100;" xml:space="preserve" width = "100px" height = "100px">
<style type="text/css">
	.st0{display:none;}
	.st1{display:inline;}
</style> 

		<path d="M32,29.1V4.9l8.9,0.6c-0.1,0.7-0.7,1.2-2,1.4v88.1H32V71.8c-9.3,4-18.5,7.9-24.7,10.4c0,0.8-0.5,1.5-1.2,1.7l-3.6-7.6
			C10,73.8,21,69.5,32,65.1V35.7H5.5v-6.6H32z M63.4,80.7c0,5.2,1,6.3,5.5,6.3h15.8c4.9,0,5.6-4.4,6.3-21.3c1.7,1.4,4.5,2.7,6.5,3.1
			c-0.9,18.4-2.7,24.8-12.4,24.8H68.3c-9.1,0-11.8-2.8-11.8-13V4.9l9,0.6c-0.1,0.7-0.7,1.2-2.1,1.4v32.5c9.8-5.9,19.8-12.9,26-18.9
			l5.8,6.3c-0.3,0.3-0.7,0.4-1.2,0.4c-0.3,0-0.6,0-0.9-0.1c-7.2,6.1-18.9,13.1-29.7,19.2V80.7z"/>

		<line x1="67.4" y1="7.9" x2="67.4" y2="20.6"/>
	
			<rect x="66.6" y="7.9" width="1.5" height="8.2"/>
	
				<path d="M67.4,20.6c-0.8-2.1-2.1-4.8-3.6-6.4l3.6,1.3l3.6-1.3C69.5,15.8,68.2,18.5,67.4,20.6z"/>


		<path d="M73.2,7.1h-1.5l-0.1,1c0.1,0,0.2,0,0.3,0c0.3,0,0.6,0.1,0.8,0.2c0.3,0.2,0.6,0.5,0.6,1c0,0.8-0.6,1.3-1.5,1.3
			c-0.4,0-0.8-0.1-1-0.2L71,10c0.2,0.1,0.5,0.2,0.8,0.2c0.5,0,0.9-0.3,0.9-0.8c0-0.5-0.3-0.9-1.1-0.9c-0.2,0-0.4,0-0.5,0l0.3-1.9
			h1.9V7.1z"/>


</svg>