<?xml version="1.0" encoding="utf-8"?>
<!-- Generator: Adobe Illustrator 26.2.1, SVG Export Plug-In . SVG Version: 6.00 Build 0)  -->
<svg version="1.1" id="character" xmlns="http://www.w3.org/2000/svg" xmlns:xlink="http://www.w3.org/1999/xlink" x="0px" y="0px"
	 viewBox="0 0 90.1 77.3" style="enable-background:new 0 0 90.1 77.3;" xml:space="preserve">
<style type="text/css">
	.st0{display:none;}
</style>
<path id="completed" d="M73,70.6h17.1v6.7H0v-6.7h22.9c2.4-9.5,5-21.7,7.5-34.1H10.6v-6.6h21.1c1.5-8,2.9-16,4.1-23.2h-30V0h79v6.7
	H43.1c-1.2,7.3-2.7,15.2-4.3,23.2H73V70.6z M66.2,36.5H37.6c-2.5,12.6-5.1,24.7-7.2,34.1h35.8V36.5z"/>
<path id="stroke03" class="st0" d="M90.1,70.6v6.7H0v-6.7H90.1z"/>
<path id="stroke02" class="st0" d="M66.2,70.6V36.5H10.6v-6.6h28.2H73v40.7"/>
<path id="stroke01" class="st0" d="M37.6,36.5c-2.5,12.6-5.1,24.7-7.2,34.1h-7.5c2.4-9.5,5-21.7,7.5-34.1l1.3-6.6
	c1.5-8,2.9-16,4.1-23.2h7.3c-1.2,7.3-2.7,15.2-4.3,23.2"/>
<path id="stroke00" class="st0" d="M5.8,6.7V0h79v6.7"/>
</svg>
