<?xml version="1.0" encoding="utf-8"?>
<!-- Generator: Adobe Illustrator 26.2.1, SVG Export Plug-In . SVG Version: 6.00 Build 0)  -->
<svg version="1.1" xmlns="http://www.w3.org/2000/svg" xmlns:xlink="http://www.w3.org/1999/xlink" x="0px" y="0px"
	 viewBox="0 0 100 100" style="enable-background:new 0 0 100 100;" xml:space="preserve">
<style type="text/css">
	.st0{display:none;}
	.st1{display:inline;fill:none;}
	.st2{display:inline;}
	.st3{fill:none;}
</style>
<g id="Stroke3" class="st0">
	<rect x="17.2" y="27.6" class="st1" width="12.6" height="0"/>
	<g class="st2">
		<path d="M95.2,50.4V57H53.4v39.7h-7V57H4.8v-6.6h41.6V24H25c-3.8,8.4-8.4,16.1-13.2,21.7c-1.4-1.2-4-3-5.7-4
			C13.9,33,21.1,18,25.4,3.3L34,5.8c-0.3,0.7-1,1.1-2.3,1.1c-1.1,3.5-2.4,7-3.8,10.5h59.4V24H53.4v26.3H95.2z"/>
	</g>
	<g class="st2">
		<line x1="6.8" y1="61.3" x2="33.6" y2="61.3"/>
		<g>
			<rect x="6.8" y="60.6" width="22.6" height="1.4"/>
			<g>
				<path d="M33.6,61.3c-2,0.7-4.5,2-6,3.3l1.2-3.3L27.7,58C29.2,59.3,31.7,60.6,33.6,61.3z"/>
			</g>
		</g>
	</g>
	<g class="st2">
		<path d="M9.6,68.2v-1.1H7.8v-0.3l1.7-2.5h0.6v2.4h0.5v0.4h-0.5v1.1H9.6z M9.6,66.7v-1.3c0-0.2,0-0.4,0-0.6h0
			c-0.1,0.2-0.2,0.4-0.3,0.6l-1,1.3v0H9.6z"/>
	</g>
</g>
<g id="Stroke2" class="st0">
	<rect x="17.2" y="27.6" class="st1" width="12.6" height="0"/>
	<g class="st2">
		<path d="M53.4,57v39.7h-7V57v-6.6V24H25c-3.8,8.4-8.4,16.1-13.2,21.7c-1.4-1.2-4-3-5.7-4C13.9,33,21.1,18,25.4,3.3L34,5.8
			c-0.3,0.7-1,1.1-2.3,1.1c-1.1,3.5-2.4,7-3.8,10.5h59.4V24H53.4v26.3"/>
	</g>
	<g class="st2">
		<line x1="58" y1="26.9" x2="58" y2="55.6"/>
		<g>
			<rect x="57.2" y="26.9" width="1.5" height="24.1"/>
			<g>
				<path d="M58,55.6c-0.8-2.1-2.1-4.8-3.6-6.4l3.6,1.3l3.6-1.3C60.1,50.8,58.8,53.4,58,55.6z"/>
			</g>
		</g>
	</g>
	<g class="st2">
		<path d="M61.7,31.5c0.2,0.1,0.5,0.2,0.9,0.2c0.7,0,0.9-0.4,0.9-0.8c0-0.5-0.5-0.8-1-0.8h-0.3v-0.4h0.3c0.4,0,0.9-0.2,0.9-0.7
			c0-0.3-0.2-0.6-0.7-0.6c-0.3,0-0.6,0.1-0.8,0.3l-0.1-0.4c0.2-0.1,0.6-0.3,1-0.3c0.8,0,1.1,0.5,1.1,0.9c0,0.4-0.2,0.7-0.7,0.9v0
			c0.5,0.1,0.9,0.5,0.9,1c0,0.6-0.5,1.2-1.4,1.2c-0.4,0-0.8-0.1-1-0.3L61.7,31.5z"/>
	</g>
</g>
<g id="Stroke1" class="st0">
	<rect x="17.2" y="27.6" class="st1" width="12.6" height="0"/>
	<g class="st2">
		<path d="M46.4,24H25c-3.8,8.4-8.4,16.1-13.2,21.7c-1.4-1.2-4-3-5.7-4C13.9,33,21.1,18,25.4,3.3L34,5.8c-0.3,0.7-1,1.1-2.3,1.1
			c-1.1,3.5-2.4,7-3.8,10.5h59.4V24H53.4"/>
	</g>
	<g class="st2">
		<line x1="28.4" y1="29.1" x2="52.4" y2="29.1"/>
		<g>
			<rect x="28.4" y="28.4" width="19.5" height="1.5"/>
			<g>
				<path d="M52.4,29.1c-2.1,0.8-4.8,2.1-6.4,3.6l1.3-3.6L46,25.6C47.7,27,50.3,28.3,52.4,29.1z"/>
			</g>
		</g>
	</g>
	<g class="st2">
		<path d="M28.7,35.6v-0.3l0.4-0.4c1-0.9,1.4-1.5,1.5-2c0-0.4-0.2-0.8-0.8-0.8c-0.4,0-0.6,0.2-0.8,0.3L28.8,32
			c0.3-0.2,0.7-0.4,1.1-0.4c0.8,0,1.2,0.6,1.2,1.1c0,0.7-0.5,1.3-1.3,2.1l-0.3,0.3v0h1.8v0.4H28.7z"/>
	</g>
</g>
<g id="Stroke0" class="st0">
	<rect x="17.2" y="27.6" class="st1" width="12.6" height="0"/>
	<g class="st2">
		<path d="M25,24c-3.8,8.4-8.4,16.1-13.2,21.7c-1.4-1.2-4-3-5.7-4C13.9,33,21.1,18,25.4,3.3L34,5.8c-0.3,0.7-1,1.1-2.3,1.1
			c-1.1,3.5-2.4,7-3.8,10.5"/>
	</g>
	<g class="st2">
		<path d="M29,25.8l-1.3-0.7c2.8-4.9,4.6-10.2,5.5-16l1.5,0.2C33.8,15.2,31.9,20.8,29,25.8z"/>
		<g>
			<path d="M25.9,29.2c0.5-2.2,0.7-5.2,0.4-7.3l2.3,3l3.7,0.8C30.3,26.3,27.7,27.9,25.9,29.2z"/>
		</g>
	</g>
	<g class="st2">
		<path d="M38,12.2L38,12.2l-0.7,0.4l-0.1-0.4l0.9-0.5h0.4v3.9H38V12.2z"/>
	</g>
</g>
<g id="Kanji">
	<rect x="17.2" y="27.6" class="st3" width="12.6" height="0"/>
	<g>
		<path d="M95.2,50.4V57H53.4v39.7h-7V57H4.8v-6.6h41.6V24H25c-3.8,8.4-8.4,16.1-13.2,21.7c-1.4-1.2-4-3-5.7-4
			C13.9,33,21.1,18,25.4,3.3L34,5.8c-0.3,0.7-1,1.1-2.3,1.1c-1.1,3.5-2.4,7-3.8,10.5h59.4V24H53.4v26.3H95.2z"/>
	</g>
</g>
</svg>
