<?xml version="1.0" encoding="utf-8"?>
<!-- Generator: Adobe Illustrator 26.2.1, SVG Export Plug-In . SVG Version: 6.00 Build 0)  -->
<svg version="1.1" xmlns="http://www.w3.org/2000/svg" xmlns:xlink="http://www.w3.org/1999/xlink" x="0px" y="0px"
	 viewBox="0 0 100 100" style="enable-background:new 0 0 100 100;" xml:space="preserve" width = "100px" height = "100px">
<style type="text/css">
	.st0{display:none;}
	.st1{display:inline;}
</style> 


	<rect x="17.2" y="27.6" class="st1" width="12.6" height="0"/>

		<path d="M25,24c-3.8,8.4-8.4,16.1-13.2,21.7c-1.4-1.2-4-3-5.7-4C13.9,33,21.1,18,25.4,3.3L34,5.8c-0.3,0.7-1,1.1-2.3,1.1
			c-1.1,3.5-2.4,7-3.8,10.5"/>


		<path d="M29,25.8l-1.3-0.7c2.8-4.9,4.6-10.2,5.5-16l1.5,0.2C33.8,15.2,31.9,20.8,29,25.8z"/>

			<path d="M25.9,29.2c0.5-2.2,0.7-5.2,0.4-7.3l2.3,3l3.7,0.8C30.3,26.3,27.7,27.9,25.9,29.2z"/>

		<path d="M38,12.2L38,12.2l-0.7,0.4l-0.1-0.4l0.9-0.5h0.4v3.9H38V12.2z"/>



</svg>