<?xml version="1.0" encoding="utf-8"?>
<!-- Generator: Adobe Illustrator 26.2.1, SVG Export Plug-In . SVG Version: 6.00 Build 0)  -->
<svg version="1.1" xmlns="http://www.w3.org/2000/svg" xmlns:xlink="http://www.w3.org/1999/xlink" x="0px" y="0px"
	 viewBox="0 0 100 100" style="enable-background:new 0 0 100 100;" xml:space="preserve" width = "100px" height = "100px">
<style type="text/css">
	.st0{display:none;}
	.st1{display:inline;}
</style> 

	<rect x="17.2" y="27.6" class="st1" width="12.6" height="0"/>

		<path d="M46.4,24H25c-3.8,8.4-8.4,16.1-13.2,21.7c-1.4-1.2-4-3-5.7-4C13.9,33,21.1,18,25.4,3.3L34,5.8c-0.3,0.7-1,1.1-2.3,1.1
			c-1.1,3.5-2.4,7-3.8,10.5h59.4V24H53.4"/>

		<line x1="28.4" y1="29.1" x2="52.4" y2="29.1"/>
		
			<rect x="28.4" y="28.4" width="19.5" height="1.5"/>
			
				<path d="M52.4,29.1c-2.1,0.8-4.8,2.1-6.4,3.6l1.3-3.6L46,25.6C47.7,27,50.3,28.3,52.4,29.1z"/>

		<path d="M28.7,35.6v-0.3l0.4-0.4c1-0.9,1.4-1.5,1.5-2c0-0.4-0.2-0.8-0.8-0.8c-0.4,0-0.6,0.2-0.8,0.3L28.8,32
			c0.3-0.2,0.7-0.4,1.1-0.4c0.8,0,1.2,0.6,1.2,1.1c0,0.7-0.5,1.3-1.3,2.1l-0.3,0.3v0h1.8v0.4H28.7z"/>


</svg>