<?xml version="1.0" encoding="utf-8"?>
<!-- Generator: Adobe Illustrator 26.2.1, SVG Export Plug-In . SVG Version: 6.00 Build 0)  -->
<svg version="1.1" xmlns="http://www.w3.org/2000/svg" xmlns:xlink="http://www.w3.org/1999/xlink" x="0px" y="0px"
	 viewBox="0 0 100 100" style="enable-background:new 0 0 100 100;" xml:space="preserve" width = "100px" height = "100px">
<style type="text/css">
	.st0{display:none;}
	.st1{display:inline;}
</style> 


	<rect x="17.2" y="27.6" class="st1" width="12.6" height="0"/>

		<path d="M95.2,50.4V57H53.4v39.7h-7V57H4.8v-6.6h41.6V24H25c-3.8,8.4-8.4,16.1-13.2,21.7c-1.4-1.2-4-3-5.7-4
			C13.9,33,21.1,18,25.4,3.3L34,5.8c-0.3,0.7-1,1.1-2.3,1.1c-1.1,3.5-2.4,7-3.8,10.5h59.4V24H53.4v26.3H95.2z"/>

		<line x1="6.8" y1="61.3" x2="33.6" y2="61.3"/>

			<rect x="6.8" y="60.6" width="22.6" height="1.4"/>

				<path d="M33.6,61.3c-2,0.7-4.5,2-6,3.3l1.2-3.3L27.7,58C29.2,59.3,31.7,60.6,33.6,61.3z"/>

		<path d="M9.6,68.2v-1.1H7.8v-0.3l1.7-2.5h0.6v2.4h0.5v0.4h-0.5v1.1H9.6z M9.6,66.7v-1.3c0-0.2,0-0.4,0-0.6h0
			c-0.1,0.2-0.2,0.4-0.3,0.6l-1,1.3v0H9.6z"/>



</svg>