<?xml version="1.0" encoding="utf-8"?>
<!-- Generator: Adobe Illustrator 26.2.1, SVG Export Plug-In . SVG Version: 6.00 Build 0)  -->
<svg version="1.1" xmlns="http://www.w3.org/2000/svg" xmlns:xlink="http://www.w3.org/1999/xlink" x="0px" y="0px"
	 viewBox="0 0 100 100" style="enable-background:new 0 0 100 100;" xml:space="preserve">
<style type="text/css">
	.st0{display:none;}
	.st1{display:inline;}
</style>
<g id="Stroke6">
	<g>
		<path d="M41.4,64.7c-0.1,0.7-0.9,1.2-2.1,1.3c-2.7,14.3-8.5,24-32.1,28.8c-0.6-1.6-2.3-4.5-3.7-5.9c21.6-3.9,27-11.7,29-25.1
			L41.4,64.7z M63.6,84c0,2.9,0.8,3.5,5.4,3.5h15.9c4.2,0,5-1.9,5.4-14.5c1.5,1.2,4.4,2.3,6.2,2.8c-0.8,14.5-2.7,18.1-11.1,18.1h-17
			c-9.2,0-11.6-2.1-11.6-9.9V61H18.2V5.2h63.7V61H63.6V84z M24.7,11.1V22h50.4V11.1H24.7z M24.7,27.5v11h50.4v-11H24.7z M24.7,44
			v11.2h50.4V44H24.7z"/>
	</g>
	<g>
		<line x1="52.4" y1="62.9" x2="52.4" y2="74.6"/>
		<g>
			<rect x="51.7" y="62.9" width="1.5" height="7.1"/>
			<g>
				<path d="M52.4,74.6c-0.8-2.1-2.1-4.8-3.6-6.4l3.6,1.3l3.6-1.3C54.5,69.8,53.2,72.5,52.4,74.6z"/>
			</g>
		</g>
	</g>
	<g>
		<path d="M49.6,62.3v0.3l-1.7,3.5h-0.5l1.7-3.4v0h-1.9v-0.4H49.6z"/>
	</g>
</g>
<g id="Stroke5" class="st0">
	<g class="st1">
		<path d="M41.4,64.7c-0.1,0.7-0.9,1.2-2.1,1.3c-2.7,14.3-8.5,24-32.1,28.8c-0.6-1.6-2.3-4.5-3.7-5.9c21.6-3.9,27-11.7,29-25.1
			L41.4,64.7z M56.8,61H18.2V5.2h63.7V61H63.6 M24.7,11.1V22h50.4V11.1H24.7z M24.7,27.5v11h50.4v-11H24.7z M24.7,44v11.2h50.4V44
			H24.7z"/>
	</g>
	<g class="st1">
		<path d="M42.4,73.8L41,73.2c1-2.5,1.8-5,2.4-7.6l1.5,0.3C44.3,68.6,43.5,71.2,42.4,73.8z"/>
		<g>
			<path d="M39.8,77.6c0.2-2.3,0-5.2-0.6-7.3l2.7,2.6l3.8,0.3C43.7,74.1,41.4,76,39.8,77.6z"/>
		</g>
	</g>
	<g class="st1">
		<path d="M48.6,65.3c-0.1,0-0.2,0-0.4,0c-0.8,0.1-1.3,0.7-1.4,1.4h0c0.2-0.2,0.5-0.4,0.9-0.4c0.7,0,1.2,0.5,1.2,1.3
			c0,0.7-0.5,1.4-1.3,1.4c-0.8,0-1.4-0.6-1.4-1.7c0-0.8,0.3-1.4,0.7-1.8c0.3-0.3,0.8-0.5,1.2-0.6c0.2,0,0.3,0,0.4,0V65.3z
			 M48.5,67.6c0-0.6-0.3-0.9-0.8-0.9c-0.3,0-0.6,0.2-0.8,0.5c0,0.1-0.1,0.1-0.1,0.2c0,0.6,0.3,1.1,0.9,1.1
			C48.2,68.5,48.5,68.2,48.5,67.6z"/>
	</g>
</g>
<g id="Stroke4" class="st0">
	<g class="st1">
		<path d="M56.8,61H18.2V5.2h63.7V61H63.6 M24.7,11.1V22h50.4V11.1H24.7z M24.7,27.5v11h50.4v-11H24.7z M24.7,44v11.2h50.4V44H24.7z
			"/>
	</g>
	<g class="st1">
		<path d="M18.4,65.2c1.2,0,12.5,0,12.5,0"/>
		<g>
			<rect x="18.4" y="64.4" width="8.1" height="1.5"/>
			<g>
				<path d="M31,65.2c-2.1,0.8-4.7,2.1-6.3,3.5l1.3-3.5l-1.3-3.5C26.3,63.1,28.9,64.4,31,65.2z"/>
			</g>
		</g>
	</g>
	<g class="st1">
		<path d="M21,67.8h-1.5l-0.1,1c0.1,0,0.2,0,0.3,0c0.3,0,0.6,0.1,0.8,0.2c0.3,0.2,0.6,0.5,0.6,1c0,0.8-0.6,1.3-1.5,1.3
			c-0.4,0-0.8-0.1-1-0.2l0.1-0.4c0.2,0.1,0.5,0.2,0.8,0.2c0.5,0,0.9-0.3,0.9-0.8c0-0.5-0.3-0.9-1.1-0.9c-0.2,0-0.4,0-0.5,0l0.3-1.9
			H21V67.8z"/>
	</g>
</g>
<g id="Stroke3" class="st0">
	<g class="st1">
		<path d="M56.8,61H18.2V5.2h63.7V61H63.6 M24.7,11.1V22h50.4V11.1H24.7z M24.7,27.5v11h50.4v-11H24.7z M75.1,61V44H24.7V61"/>
	</g>
	<g class="st1">
		<line x1="26.5" y1="48.1" x2="39.2" y2="48.1"/>
		<g>
			<rect x="26.5" y="47.4" width="8.2" height="1.5"/>
			<g>
				<path d="M39.2,48.1c-2.1,0.8-4.8,2.1-6.4,3.6l1.3-3.6l-1.3-3.6C34.5,46,37.1,47.3,39.2,48.1z"/>
			</g>
		</g>
	</g>
	<g class="st1">
		<path d="M27.6,54v-1.1h-1.8v-0.3l1.7-2.5h0.6v2.4h0.5v0.4h-0.5V54H27.6z M27.6,52.5v-1.3c0-0.2,0-0.4,0-0.6h0
			c-0.1,0.2-0.2,0.4-0.3,0.6l-1,1.3v0H27.6z"/>
	</g>
</g>
<g id="Stroke2" class="st0">
	<g class="st1">
		<path d="M56.8,61H18.2V5.2h63.7V61H63.6 M24.7,11.1V22h50.4V11.1H24.7z M75.1,61V27.5H24.7V61"/>
	</g>
	<g class="st1">
		<line x1="26.8" y1="31.5" x2="38.9" y2="31.5"/>
		<g>
			<rect x="26.8" y="30.7" width="7.6" height="1.5"/>
			<g>
				<path d="M38.9,31.5c-2.1,0.8-4.8,2.1-6.4,3.6l1.3-3.6l-1.3-3.6C34.2,29.3,36.8,30.7,38.9,31.5z"/>
			</g>
		</g>
	</g>
	<g class="st1">
		<path d="M27.2,37.9c0.1,0.1,0.5,0.2,0.9,0.2c0.7,0,0.9-0.4,0.9-0.8c0-0.5-0.5-0.8-1-0.8h-0.3v-0.4h0.3c0.4,0,0.9-0.2,0.9-0.7
			c0-0.3-0.2-0.6-0.7-0.6c-0.3,0-0.6,0.1-0.8,0.3l-0.1-0.4c0.2-0.1,0.6-0.3,1-0.3c0.8,0,1.1,0.5,1.1,0.9c0,0.4-0.2,0.7-0.7,0.9v0
			c0.5,0.1,0.9,0.5,0.9,1c0,0.6-0.5,1.2-1.4,1.2c-0.4,0-0.8-0.1-1-0.3L27.2,37.9z"/>
	</g>
</g>
<g id="Stroke1" class="st0">
	<g class="st1">
		<path d="M56.8,61H18.2V5.2h63.7V61H63.6 M75.1,61V11.1H24.7V61"/>
	</g>
	<g class="st1">
		<path d="M26.6,14.9c0.6,0,15.1,0,15.1,0"/>
		<g>
			<rect x="26.6" y="14.2" width="10.6" height="1.5"/>
			<g>
				<path d="M41.7,14.9c-2.1,0.8-4.8,2.1-6.4,3.6l1.3-3.6l-1.3-3.6C37,12.8,39.6,14.1,41.7,14.9z"/>
			</g>
		</g>
	</g>
	<g class="st1">
		<path d="M26.6,21.1v-0.3l0.4-0.4c1-0.9,1.4-1.5,1.5-2c0-0.4-0.2-0.8-0.8-0.8c-0.4,0-0.6,0.2-0.8,0.3l-0.2-0.4
			c0.3-0.2,0.7-0.4,1.1-0.4c0.8,0,1.2,0.6,1.2,1.1c0,0.7-0.5,1.3-1.3,2.1l-0.3,0.3v0h1.8v0.4H26.6z"/>
	</g>
</g>
<g id="Stroke0" class="st0">
	<g class="st1">
		<path d="M24.7,5.2v5.9V22v5.5v11V44v11.2V61h-6.5V5.2"/>
	</g>
	<g class="st1">
		<line x1="29.8" y1="5.7" x2="29.8" y2="16.2"/>
		<g>
			<rect x="29" y="5.7" width="1.5" height="5.9"/>
			<g>
				<path d="M29.8,16.2c-0.8-2.1-2.1-4.8-3.6-6.4l3.6,1.3l3.6-1.3C31.9,11.4,30.6,14,29.8,16.2z"/>
			</g>
		</g>
	</g>
	<g class="st1">
		<path d="M35.3,6.4L35.3,6.4l-0.7,0.4l-0.1-0.4l0.9-0.5h0.4v3.9h-0.5V6.4z"/>
	</g>
</g>
<g id="Kanji" class="st0">
	<g class="st1">
		<path d="M41.4,64.7c-0.1,0.7-0.9,1.2-2.1,1.3c-2.7,14.3-8.5,24-32.1,28.8c-0.6-1.6-2.3-4.5-3.7-5.9c21.6-3.9,27-11.7,29-25.1
			L41.4,64.7z M63.6,84c0,2.9,0.8,3.5,5.4,3.5h15.9c4.2,0,5-1.9,5.4-14.5c1.5,1.2,4.4,2.3,6.2,2.8c-0.8,14.5-2.7,18.1-11.1,18.1h-17
			c-9.2,0-11.6-2.1-11.6-9.9V61H18.2V5.2h63.7V61H63.6V84z M24.7,11.1V22h50.4V11.1H24.7z M24.7,27.5v11h50.4v-11H24.7z M24.7,44
			v11.2h50.4V44H24.7z"/>
	</g>
</g>
</svg>
