<?xml version="1.0" encoding="utf-8"?>
<!-- Generator: Adobe Illustrator 26.2.1, SVG Export Plug-In . SVG Version: 6.00 Build 0)  -->
<svg version="1.1" xmlns="http://www.w3.org/2000/svg" xmlns:xlink="http://www.w3.org/1999/xlink" x="0px" y="0px"
	 viewBox="0 0 100 100" style="enable-background:new 0 0 100 100;" xml:space="preserve" width = "100px" height = "100px">
<style type="text/css">
	.st0{display:none;}
	.st1{display:inline;}
</style> 


		<path d="M56.8,61H18.2V5.2h63.7V61H63.6 M24.7,11.1V22h50.4V11.1H24.7z M24.7,27.5v11h50.4v-11H24.7z M24.7,44v11.2h50.4V44H24.7z
			"/>

		<path d="M18.4,65.2c1.2,0,12.5,0,12.5,0"/>
	
			<rect x="18.4" y="64.4" width="8.1" height="1.5"/>

			<path d="M31,65.2c-2.1,0.8-4.7,2.1-6.3,3.5l1.3-3.5l-1.3-3.5C26.3,63.1,28.9,64.4,31,65.2z"/>

		<path d="M21,67.8h-1.5l-0.1,1c0.1,0,0.2,0,0.3,0c0.3,0,0.6,0.1,0.8,0.2c0.3,0.2,0.6,0.5,0.6,1c0,0.8-0.6,1.3-1.5,1.3
			c-0.4,0-0.8-0.1-1-0.2l0.1-0.4c0.2,0.1,0.5,0.2,0.8,0.2c0.5,0,0.9-0.3,0.9-0.8c0-0.5-0.3-0.9-1.1-0.9c-0.2,0-0.4,0-0.5,0l0.3-1.9
			H21V67.8z"/>



</svg>