<?xml version="1.0" encoding="utf-8"?>
<!-- Generator: Adobe Illustrator 26.2.1, SVG Export Plug-In . SVG Version: 6.00 Build 0)  -->
<svg version="1.1" xmlns="http://www.w3.org/2000/svg" xmlns:xlink="http://www.w3.org/1999/xlink" x="0px" y="0px"
	 viewBox="0 0 100 100" style="enable-background:new 0 0 100 100;" xml:space="preserve" width = "100px" height = "100px">
<style type="text/css">
	.st0{display:none;}
	.st1{display:inline;}
</style> 

		<path d="M56.8,61H18.2V5.2h63.7V61H63.6 M24.7,11.1V22h50.4V11.1H24.7z M24.7,27.5v11h50.4v-11H24.7z M75.1,61V44H24.7V61"/>


		<line x1="26.5" y1="48.1" x2="39.2" y2="48.1"/>

			<rect x="26.5" y="47.4" width="8.2" height="1.5"/>

				<path d="M39.2,48.1c-2.1,0.8-4.8,2.1-6.4,3.6l1.3-3.6l-1.3-3.6C34.5,46,37.1,47.3,39.2,48.1z"/>

		<path d="M27.6,54v-1.1h-1.8v-0.3l1.7-2.5h0.6v2.4h0.5v0.4h-0.5V54H27.6z M27.6,52.5v-1.3c0-0.2,0-0.4,0-0.6h0
			c-0.1,0.2-0.2,0.4-0.3,0.6l-1,1.3v0H27.6z"/>


</svg>