<?xml version="1.0" encoding="utf-8"?>
<!-- Generator: Adobe Illustrator 26.2.1, SVG Export Plug-In . SVG Version: 6.00 Build 0)  -->
<svg version="1.1" xmlns="http://www.w3.org/2000/svg" xmlns:xlink="http://www.w3.org/1999/xlink" x="0px" y="0px"
	 viewBox="0 0 100 100" style="enable-background:new 0 0 100 100;" xml:space="preserve" width = "100px" height = "100px">
<style type="text/css">
	.st0{display:none;}
	.st1{display:inline;}
</style>


		<path d="M41.4,64.7c-0.1,0.7-0.9,1.2-2.1,1.3c-2.7,14.3-8.5,24-32.1,28.8c-0.6-1.6-2.3-4.5-3.7-5.9c21.6-3.9,27-11.7,29-25.1
			L41.4,64.7z M56.8,61H18.2V5.2h63.7V61H63.6 M24.7,11.1V22h50.4V11.1H24.7z M24.7,27.5v11h50.4v-11H24.7z M24.7,44v11.2h50.4V44
			H24.7z"/>

		<path d="M42.4,73.8L41,73.2c1-2.5,1.8-5,2.4-7.6l1.5,0.3C44.3,68.6,43.5,71.2,42.4,73.8z"/>
	
			<path d="M39.8,77.6c0.2-2.3,0-5.2-0.6-7.3l2.7,2.6l3.8,0.3C43.7,74.1,41.4,76,39.8,77.6z"/>

		<path d="M48.6,65.3c-0.1,0-0.2,0-0.4,0c-0.8,0.1-1.3,0.7-1.4,1.4h0c0.2-0.2,0.5-0.4,0.9-0.4c0.7,0,1.2,0.5,1.2,1.3
			c0,0.7-0.5,1.4-1.3,1.4c-0.8,0-1.4-0.6-1.4-1.7c0-0.8,0.3-1.4,0.7-1.8c0.3-0.3,0.8-0.5,1.2-0.6c0.2,0,0.3,0,0.4,0V65.3z
			 M48.5,67.6c0-0.6-0.3-0.9-0.8-0.9c-0.3,0-0.6,0.2-0.8,0.5c0,0.1-0.1,0.1-0.1,0.2c0,0.6,0.3,1.1,0.9,1.1
			C48.2,68.5,48.5,68.2,48.5,67.6z"/>



 </svg>