<?xml version="1.0" encoding="utf-8"?>
<!-- Generator: Adobe Illustrator 26.2.1, SVG Export Plug-In . SVG Version: 6.00 Build 0)  -->
<svg version="1.1" xmlns="http://www.w3.org/2000/svg" xmlns:xlink="http://www.w3.org/1999/xlink" x="0px" y="0px"
	 viewBox="0 0 100 100" style="enable-background:new 0 0 100 100;" xml:space="preserve" width = "100px" height = "100px">
<style type="text/css">
	.st0{display:none;}
	.st1{display:inline;}
</style>


		<path d="M41.4,64.7c-0.1,0.7-0.9,1.2-2.1,1.3c-2.7,14.3-8.5,24-32.1,28.8c-0.6-1.6-2.3-4.5-3.7-5.9c21.6-3.9,27-11.7,29-25.1
			L41.4,64.7z M63.6,84c0,2.9,0.8,3.5,5.4,3.5h15.9c4.2,0,5-1.9,5.4-14.5c1.5,1.2,4.4,2.3,6.2,2.8c-0.8,14.5-2.7,18.1-11.1,18.1h-17
			c-9.2,0-11.6-2.1-11.6-9.9V61H18.2V5.2h63.7V61H63.6V84z M24.7,11.1V22h50.4V11.1H24.7z M24.7,27.5v11h50.4v-11H24.7z M24.7,44
			v11.2h50.4V44H24.7z"/>

		<line x1="52.4" y1="62.9" x2="52.4" y2="74.6"/>

		<rect x="51.7" y="62.9" width="1.5" height="7.1"/>
	
		<path d="M52.4,74.6c-0.8-2.1-2.1-4.8-3.6-6.4l3.6,1.3l3.6-1.3C54.5,69.8,53.2,72.5,52.4,74.6z"/>

		<path d="M49.6,62.3v0.3l-1.7,3.5h-0.5l1.7-3.4v0h-1.9v-0.4H49.6z"/>


 </svg>