<?xml version="1.0" encoding="utf-8"?>
<!-- Generator: Adobe Illustrator 26.2.1, SVG Export Plug-In . SVG Version: 6.00 Build 0)  -->
<svg version="1.1" xmlns="http://www.w3.org/2000/svg" xmlns:xlink="http://www.w3.org/1999/xlink" x="0px" y="0px"
	 viewBox="0 0 100 100" style="enable-background:new 0 0 100 100;" xml:space="preserve">
<style type="text/css">
	.st0{display:none;}
	.st1{display:inline;}
</style>
<g id="Stroke4">
	<g>
		<path d="M95.3,28.6h-42v22.6h30.5v44.9h-6.9v-5H23.6v5.4H17V51.2h29.2V28.6H4.7V22h41.5V3.4l9,0.6c-0.1,0.7-0.6,1.2-2,1.4V22h42
			V28.6z M76.9,84.7v-27H23.6v27H76.9z"/>
	</g>
	<g>
		<line x1="25.3" y1="80.8" x2="44.4" y2="80.8"/>
		<g>
			<rect x="25.3" y="80.1" width="14.5" height="1.5"/>
			<g>
				<path d="M44.4,80.8c-2.1,0.8-4.8,2.1-6.4,3.6l1.3-3.6L38,77.3C39.6,78.7,42.2,80.1,44.4,80.8z"/>
			</g>
		</g>
	</g>
	<g>
		<path d="M27.8,75.5h-1.5l-0.1,1c0.1,0,0.2,0,0.3,0c0.3,0,0.6,0.1,0.8,0.2c0.3,0.2,0.6,0.5,0.6,1c0,0.8-0.6,1.3-1.5,1.3
			c-0.4,0-0.8-0.1-1-0.2l0.1-0.4c0.2,0.1,0.5,0.2,0.8,0.2c0.5,0,0.9-0.3,0.9-0.8c0-0.5-0.3-0.9-1.1-0.9c-0.2,0-0.4,0-0.5,0l0.3-1.9
			h1.9V75.5z"/>
	</g>
</g>
<g id="Stroke3" class="st0">
	<g class="st1">
		<path d="M76.9,57.7H23.6v38.9H17V51.2h29.2V28.6H4.7V22h41.5V3.4l9,0.6c-0.1,0.7-0.6,1.2-2,1.4V22h42v6.6h-42v22.6h30.5v44.9h-6.9
			"/>
	</g>
	<g class="st1">
		<line x1="25.1" y1="61.6" x2="42.5" y2="61.6"/>
		<g>
			<rect x="25.1" y="60.8" width="12.9" height="1.5"/>
			<g>
				<path d="M42.5,61.6c-2.1,0.8-4.8,2.1-6.4,3.6l1.3-3.6L36.1,58C37.8,59.5,40.4,60.8,42.5,61.6z"/>
			</g>
		</g>
	</g>
	<g class="st1">
		<path d="M27,67.4v-1.1h-1.8v-0.3l1.7-2.5h0.6v2.4h0.5v0.4h-0.5v1.1H27z M27,65.9v-1.3c0-0.2,0-0.4,0-0.6h0
			c-0.1,0.2-0.2,0.4-0.3,0.6l-1,1.3v0H27z"/>
	</g>
</g>
<g id="Stroke2" class="st0">
	<g class="st1">
		<path d="M46.2,51.2V28.6H4.7V22h41.5V3.4l9,0.6c-0.1,0.7-0.6,1.2-2,1.4V22h42v6.6h-42v22.6 M23.6,51.2c0,0,0.1,5.6,0,6.4v27v6.5
			v5.4H17V51.2"/>
	</g>
	<g class="st1">
		<line x1="28.1" y1="51.2" x2="28.1" y2="62.5"/>
		<g>
			<rect x="27.3" y="51.2" width="1.5" height="6.7"/>
			<g>
				<path d="M28.1,62.5c-0.8-2.1-2.1-4.8-3.6-6.4l3.6,1.3l3.6-1.3C30.2,57.7,28.9,60.3,28.1,62.5z"/>
			</g>
		</g>
	</g>
	<g class="st1">
		<path d="M30.7,53.1c0.1,0.1,0.5,0.2,0.9,0.2c0.7,0,0.9-0.4,0.9-0.8c0-0.5-0.5-0.8-1-0.8h-0.3v-0.4h0.3c0.4,0,0.9-0.2,0.9-0.7
			c0-0.3-0.2-0.6-0.7-0.6c-0.3,0-0.6,0.1-0.8,0.3L30.7,50c0.2-0.1,0.6-0.3,1-0.3c0.8,0,1.1,0.5,1.1,0.9c0,0.4-0.2,0.7-0.7,0.9v0
			c0.5,0.1,0.9,0.5,0.9,1c0,0.6-0.5,1.2-1.4,1.2c-0.4,0-0.8-0.1-1-0.3L30.7,53.1z"/>
	</g>
</g>
<g id="Stroke1" class="st0">
	<g class="st1">
		<path d="M46.2,51.2V28.6H4.7V22h41.5V3.4l9,0.6c-0.1,0.7-0.6,1.2-2,1.4V22h42v6.6h-42v22.6 M23.6,84.7"/>
	</g>
	<g class="st1">
		<path d="M57.6,4.1c0,2.4,0,15.3,0,15"/>
		<g>
			<rect x="56.8" y="4.1" width="1.5" height="10.5"/>
			<g>
				<path d="M57.6,19.1c-0.8-2.1-2.1-4.8-3.6-6.4l3.6,1.3l3.6-1.3C59.7,14.4,58.3,17,57.6,19.1z"/>
			</g>
		</g>
	</g>
	<g class="st1">
		<path d="M59.8,8.1V7.8l0.4-0.4c1-0.9,1.4-1.5,1.5-2c0-0.4-0.2-0.8-0.8-0.8c-0.4,0-0.6,0.2-0.8,0.3l-0.2-0.4
			c0.3-0.2,0.7-0.4,1.1-0.4c0.8,0,1.2,0.6,1.2,1.1c0,0.7-0.5,1.3-1.3,2.1l-0.3,0.3v0h1.8v0.4H59.8z"/>
	</g>
</g>
<g id="Stroke0" class="st0">
	<g class="st1">
		<path d="M46.2,28.6H4.7V22h41.5h7h42v6.6h-42"/>
	</g>
	<g class="st1">
		<line x1="4.7" y1="32.5" x2="20.6" y2="32.5"/>
		<g>
			<rect x="4.7" y="31.8" width="11.3" height="1.5"/>
			<g>
				<path d="M20.6,32.5c-2.1,0.8-4.8,2.1-6.4,3.6l1.3-3.6L14.2,29C15.8,30.4,18.5,31.7,20.6,32.5z"/>
			</g>
		</g>
	</g>
	<g class="st1">
		<path d="M6.2,34.9L6.2,34.9l-0.7,0.4l-0.1-0.4l0.9-0.5h0.4v3.9H6.2V34.9z"/>
	</g>
</g>
<g id="Kanji" class="st0">
	<g class="st1">
		<path d="M95.3,28.6h-42v22.6h30.5v44.9h-6.9v-5H23.6v5.4H17V51.2h29.2V28.6H4.7V22h41.5V3.4l9,0.6c-0.1,0.7-0.6,1.2-2,1.4V22h42
			V28.6z M76.9,84.7v-27H23.6v27H76.9z"/>
	</g>
</g>
</svg>
