<?xml version="1.0" encoding="utf-8"?>
<!-- Generator: Adobe Illustrator 26.2.1, SVG Export Plug-In . SVG Version: 6.00 Build 0)  -->
<svg version="1.1" xmlns="http://www.w3.org/2000/svg" xmlns:xlink="http://www.w3.org/1999/xlink" x="0px" y="0px"
	 viewBox="0 0 100 100" style="enable-background:new 0 0 100 100;" xml:space="preserve" width = "100px" height = "100px">
<style type="text/css">
	.st0{display:none;}
	.st1{display:inline;}
</style> 

		<path d="M46.2,51.2V28.6H4.7V22h41.5V3.4l9,0.6c-0.1,0.7-0.6,1.2-2,1.4V22h42v6.6h-42v22.6 M23.6,51.2c0,0,0.1,5.6,0,6.4v27v6.5
			v5.4H17V51.2"/>

		<line x1="28.1" y1="51.2" x2="28.1" y2="62.5"/>

			<rect x="27.3" y="51.2" width="1.5" height="6.7"/>

				<path d="M28.1,62.5c-0.8-2.1-2.1-4.8-3.6-6.4l3.6,1.3l3.6-1.3C30.2,57.7,28.9,60.3,28.1,62.5z"/>

		<path d="M30.7,53.1c0.1,0.1,0.5,0.2,0.9,0.2c0.7,0,0.9-0.4,0.9-0.8c0-0.5-0.5-0.8-1-0.8h-0.3v-0.4h0.3c0.4,0,0.9-0.2,0.9-0.7
			c0-0.3-0.2-0.6-0.7-0.6c-0.3,0-0.6,0.1-0.8,0.3L30.7,50c0.2-0.1,0.6-0.3,1-0.3c0.8,0,1.1,0.5,1.1,0.9c0,0.4-0.2,0.7-0.7,0.9v0
			c0.5,0.1,0.9,0.5,0.9,1c0,0.6-0.5,1.2-1.4,1.2c-0.4,0-0.8-0.1-1-0.3L30.7,53.1z"/>



</svg>