<?xml version="1.0" encoding="utf-8"?>
<!-- Generator: Adobe Illustrator 26.2.1, SVG Export Plug-In . SVG Version: 6.00 Build 0)  -->
<svg version="1.1" xmlns="http://www.w3.org/2000/svg" xmlns:xlink="http://www.w3.org/1999/xlink" x="0px" y="0px"
	 viewBox="0 0 100 100" style="enable-background:new 0 0 100 100;" xml:space="preserve" width = "100px" height = "100px">
<style type="text/css">
	.st0{display:none;}
	.st1{display:inline;}
</style> 

		<path d="M76.9,57.7H23.6v38.9H17V51.2h29.2V28.6H4.7V22h41.5V3.4l9,0.6c-0.1,0.7-0.6,1.2-2,1.4V22h42v6.6h-42v22.6h30.5v44.9h-6.9
			"/>

		<line x1="25.1" y1="61.6" x2="42.5" y2="61.6"/>

		<rect x="25.1" y="60.8" width="12.9" height="1.5"/>
			
		<path d="M42.5,61.6c-2.1,0.8-4.8,2.1-6.4,3.6l1.3-3.6L36.1,58C37.8,59.5,40.4,60.8,42.5,61.6z"/>

		<path d="M27,67.4v-1.1h-1.8v-0.3l1.7-2.5h0.6v2.4h0.5v0.4h-0.5v1.1H27z M27,65.9v-1.3c0-0.2,0-0.4,0-0.6h0
			c-0.1,0.2-0.2,0.4-0.3,0.6l-1,1.3v0H27z"/>



</svg>