<?xml version="1.0" encoding="utf-8"?>
<!-- Generator: Adobe Illustrator 26.2.1, SVG Export Plug-In . SVG Version: 6.00 Build 0)  -->
<svg version="1.1" xmlns="http://www.w3.org/2000/svg" xmlns:xlink="http://www.w3.org/1999/xlink" x="0px" y="0px"
	 viewBox="0 0 100 100" style="enable-background:new 0 0 100 100;" xml:space="preserve" width = "100px" height = "100px">
<style type="text/css">
	.st0{display:none;}
	.st1{display:inline;}
</style> 

		<path d="M46.2,51.2V28.6H4.7V22h41.5V3.4l9,0.6c-0.1,0.7-0.6,1.2-2,1.4V22h42v6.6h-42v22.6 M23.6,84.7"/>

		<path d="M57.6,4.1c0,2.4,0,15.3,0,15"/>
		
			<rect x="56.8" y="4.1" width="1.5" height="10.5"/>
		
				<path d="M57.6,19.1c-0.8-2.1-2.1-4.8-3.6-6.4l3.6,1.3l3.6-1.3C59.7,14.4,58.3,17,57.6,19.1z"/>
		

		<path d="M59.8,8.1V7.8l0.4-0.4c1-0.9,1.4-1.5,1.5-2c0-0.4-0.2-0.8-0.8-0.8c-0.4,0-0.6,0.2-0.8,0.3l-0.2-0.4
			c0.3-0.2,0.7-0.4,1.1-0.4c0.8,0,1.2,0.6,1.2,1.1c0,0.7-0.5,1.3-1.3,2.1l-0.3,0.3v0h1.8v0.4H59.8z"/>


</svg>