<?xml version="1.0" encoding="utf-8"?>
<!-- Generator: Adobe Illustrator 26.2.1, SVG Export Plug-In . SVG Version: 6.00 Build 0)  -->
<svg version="1.1" xmlns="http://www.w3.org/2000/svg" xmlns:xlink="http://www.w3.org/1999/xlink" x="0px" y="0px"
	 viewBox="0 0 100 100" style="enable-background:new 0 0 100 100;" xml:space="preserve" width = "100px" height = "100px">
<style type="text/css">
	.st0{display:none;}
	.st1{display:inline;}
</style> 


		<path d="M95.3,28.6h-42v22.6h30.5v44.9h-6.9v-5H23.6v5.4H17V51.2h29.2V28.6H4.7V22h41.5V3.4l9,0.6c-0.1,0.7-0.6,1.2-2,1.4V22h42
			V28.6z M76.9,84.7v-27H23.6v27H76.9z"/>

		<line x1="25.3" y1="80.8" x2="44.4" y2="80.8"/>

			<rect x="25.3" y="80.1" width="14.5" height="1.5"/>

				<path d="M44.4,80.8c-2.1,0.8-4.8,2.1-6.4,3.6l1.3-3.6L38,77.3C39.6,78.7,42.2,80.1,44.4,80.8z"/>

		<path d="M27.8,75.5h-1.5l-0.1,1c0.1,0,0.2,0,0.3,0c0.3,0,0.6,0.1,0.8,0.2c0.3,0.2,0.6,0.5,0.6,1c0,0.8-0.6,1.3-1.5,1.3
			c-0.4,0-0.8-0.1-1-0.2l0.1-0.4c0.2,0.1,0.5,0.2,0.8,0.2c0.5,0,0.9-0.3,0.9-0.8c0-0.5-0.3-0.9-1.1-0.9c-0.2,0-0.4,0-0.5,0l0.3-1.9
			h1.9V75.5z"/>

</svg>