<?xml version="1.0" encoding="utf-8"?>
<!-- Generator: Adobe Illustrator 26.2.1, SVG Export Plug-In . SVG Version: 6.00 Build 0)  -->
<svg version="1.1" xmlns="http://www.w3.org/2000/svg" xmlns:xlink="http://www.w3.org/1999/xlink" x="0px" y="0px"
	 viewBox="0 0 100 100" style="enable-background:new 0 0 100 100;" xml:space="preserve">
<style type="text/css">
	.st0{display:none;}
	.st1{display:inline;fill:none;}
	.st2{display:inline;}
	.st3{fill:none;}
</style>
<g id="Stroke3" class="st0">
	<rect x="17.2" y="27.6" class="st1" width="12.6" height="0"/>
	<g class="st2">
		<path d="M45.7,4l9.5,0.7c-0.1,0.9-1,1.6-2.4,1.9v30.7c0,10.9,6.9,39.7,42.8,52.3c-1.5,1.5-3.5,4.4-4.5,6.3
			C60.8,84.5,51.3,60.6,49.4,50.8h-0.1c-1.8,9.9-10.7,33-40.4,45.2c-0.9-1.5-3.1-4.2-4.6-5.7c34.9-13.2,41.4-41.8,41.4-52.9V4z
			 M6.5,52.1c8.3-6.2,11.9-17.4,13.5-28.7l6.6,1.5c-1.8,11.9-5.3,24.3-14.3,31.2L6.5,52.1z M92.4,27c-0.3,0.6-1.2,0.9-2.2,0.9
			c-4,8-10.6,19.6-15.8,26.8c0-0.1-5.5-2.9-5.5-2.9c5.1-7.4,11.6-19.7,15.2-28.6L92.4,27z"/>
	</g>
	<g class="st2">
		<path d="M63.7,86l-1.5-1.6c-4.1-4.4-7.7-9.3-10.6-14.5l-2.2-4l1.3-0.7l2.2,4c2.9,5.2,6.4,9.9,10.4,14.2l1.5,1.6L63.7,86z"/>
		<g>
			<path d="M67.3,88.8c-2-1-4.8-2-7-2.2l3.5-1.5l1.7-3.4C65.6,83.8,66.4,86.7,67.3,88.8z"/>
		</g>
	</g>
	<g class="st2">
		<path d="M48.7,73.9v-1.1h-1.8v-0.3l1.7-2.5h0.6v2.4h0.5v0.4h-0.5v1.1H48.7z M48.7,72.4v-1.3c0-0.2,0-0.4,0-0.6h0
			c-0.1,0.2-0.2,0.4-0.3,0.6l-1,1.3v0H48.7z"/>
	</g>
</g>
<g id="Stroke2" class="st0">
	<rect x="17.2" y="27.6" class="st1" width="12.6" height="0"/>
	<g class="st2">
		<path d="M49.4,50.8L49.4,50.8c-1.9,9.9-10.8,33-40.5,45.2c-0.9-1.5-3.1-4.2-4.6-5.7c34.9-13.2,41.4-41.8,41.4-52.9V4l9.5,0.7
			c-0.1,0.9-1,1.6-2.4,1.9v30.7 M6.5,52.1c8.3-6.2,11.9-17.4,13.5-28.7l6.6,1.5c-1.8,11.9-5.3,24.3-14.3,31.2L6.5,52.1z M92.4,27
			c-0.3,0.6-1.2,0.9-2.2,0.9c-4,8-10.6,19.6-15.8,26.8c0-0.1-5.5-2.9-5.5-2.9c5.1-7.4,11.6-19.7,15.2-28.6L92.4,27z"/>
	</g>
	<g class="st2">
		<path d="M56.9,48.3L55.4,48l1.6-8c0.4-1.9,0.6-3.8,0.6-5.8V9.8h1.5v24.5c0,2-0.2,4.1-0.6,6.1L56.9,48.3z"/>
		<g>
			<path d="M55.2,52.6c-0.3-2.2-1.1-5.1-2.2-7l3.2,2L60,47C58.3,48.4,56.4,50.7,55.2,52.6z"/>
		</g>
	</g>
	<g class="st2">
		<path d="M62.5,14.6c0.2,0.1,0.5,0.2,0.9,0.2c0.7,0,0.9-0.4,0.9-0.8c0-0.5-0.5-0.8-1-0.8h-0.3v-0.4h0.3c0.4,0,0.9-0.2,0.9-0.7
			c0-0.3-0.2-0.6-0.7-0.6c-0.3,0-0.6,0.1-0.8,0.3l-0.1-0.4c0.2-0.1,0.6-0.3,1-0.3c0.8,0,1.1,0.5,1.1,0.9c0,0.4-0.2,0.7-0.7,0.9v0
			c0.5,0.1,0.9,0.5,0.9,1c0,0.6-0.5,1.2-1.4,1.2c-0.4,0-0.8-0.1-1-0.3L62.5,14.6z"/>
	</g>
</g>
<g id="Stroke1" class="st0">
	<rect x="17.2" y="27.6" class="st1" width="12.6" height="0"/>
	<g class="st2">
		<path d="M49.4,50.8L49.4,50.8 M6.5,52.1c8.3-6.2,11.9-17.4,13.5-28.7l6.6,1.5c-1.8,11.9-5.3,24.3-14.3,31.2L6.5,52.1z M92.4,27
			c-0.3,0.6-1.2,0.9-2.2,0.9c-4,8-10.6,19.6-15.8,26.8c0-0.1-5.5-2.9-5.5-2.9c5.1-7.4,11.6-19.7,15.2-28.6L92.4,27z"/>
	</g>
	<g class="st2">
		<line x1="94.4" y1="32" x2="85.6" y2="47.6"/>
		<g>
			<rect x="84.4" y="37.1" transform="matrix(0.4909 -0.8712 0.8712 0.4909 13.4182 98.6199)" width="13.3" height="1.5"/>
			<g>
				<path d="M85.6,47.6c0.4-2.2,0.5-5.2,0-7.3l2.5,2.9l3.7,0.6C89.8,44.5,87.3,46.1,85.6,47.6z"/>
			</g>
		</g>
	</g>
	<g class="st2">
		<path d="M94.7,39.8v-0.3l0.4-0.4c1-0.9,1.4-1.5,1.5-2c0-0.4-0.2-0.8-0.8-0.8c-0.4,0-0.6,0.2-0.8,0.3l-0.2-0.4
			c0.3-0.2,0.7-0.4,1.1-0.4c0.8,0,1.2,0.6,1.2,1.1c0,0.7-0.5,1.3-1.3,2.1l-0.3,0.3v0h1.8v0.4H94.7z"/>
	</g>
</g>
<g id="Stroke0" class="st0">
	<rect x="17.2" y="27.6" class="st1" width="12.6" height="0"/>
	<g class="st2">
		<path d="M6.5,52.1c8.3-6.2,11.9-17.4,13.5-28.7l6.6,1.5c-1.8,11.9-5.3,24.3-14.3,31.2L6.5,52.1z"/>
	</g>
	<g class="st2">
		<path d="M27.4,44.3l-1.3-0.7c3-5.4,3.5-8.9,4.3-17.4l1.5,0.1C31.1,34.3,30.6,38.4,27.4,44.3z"/>
		<g>
			<path d="M24.4,47.8c0.4-2.2,0.6-5.2,0.2-7.3l2.4,2.9l3.7,0.7C28.6,44.8,26.1,46.4,24.4,47.8z"/>
		</g>
	</g>
	<g class="st2">
		<path d="M36.2,28.3L36.2,28.3l-0.7,0.4l-0.1-0.4l0.9-0.5h0.4v3.9h-0.5V28.3z"/>
	</g>
</g>
<g id="Kanji">
	<rect x="17.2" y="27.6" class="st3" width="12.6" height="0"/>
	<g>
		<path d="M45.7,4l9.5,0.7c-0.1,0.9-1,1.6-2.4,1.9v30.7c0,10.9,6.9,39.7,42.8,52.3c-1.5,1.5-3.5,4.4-4.5,6.3
			C60.8,84.5,51.3,60.6,49.4,50.8h-0.1c-1.8,9.9-10.7,33-40.4,45.2c-0.9-1.5-3.1-4.2-4.6-5.7c34.9-13.2,41.4-41.8,41.4-52.9V4z
			 M6.5,52.1c8.3-6.2,11.9-17.4,13.5-28.7l6.6,1.5c-1.8,11.9-5.3,24.3-14.3,31.2L6.5,52.1z M92.4,27c-0.3,0.6-1.2,0.9-2.2,0.9
			c-4,8-10.6,19.6-15.8,26.8c0-0.1-5.5-2.9-5.5-2.9c5.1-7.4,11.6-19.7,15.2-28.6L92.4,27z"/>
	</g>
</g>
</svg>
