<?xml version="1.0" encoding="utf-8"?>
<!-- Generator: Adobe Illustrator 26.2.1, SVG Export Plug-In . SVG Version: 6.00 Build 0)  -->
<svg version="1.1" xmlns="http://www.w3.org/2000/svg" xmlns:xlink="http://www.w3.org/1999/xlink" x="0px" y="0px"
	 viewBox="0 0 100 100" style="enable-background:new 0 0 100 100;" xml:space="preserve" width = "100px" height = "100px">
<style type="text/css">
	.st0{display:none;}
	.st1{display:inline;}
</style> 

	<rect x="17.2" y="27.6" class="st1" width="12.6" height="0"/>
	<path d="M45.7,4l9.5,0.7c-0.1,0.9-1,1.6-2.4,1.9v30.7c0,10.9,6.9,39.7,42.8,52.3c-1.5,1.5-3.5,4.4-4.5,6.3
			C60.8,84.5,51.3,60.6,49.4,50.8h-0.1c-1.8,9.9-10.7,33-40.4,45.2c-0.9-1.5-3.1-4.2-4.6-5.7c34.9-13.2,41.4-41.8,41.4-52.9V4z
			 M6.5,52.1c8.3-6.2,11.9-17.4,13.5-28.7l6.6,1.5c-1.8,11.9-5.3,24.3-14.3,31.2L6.5,52.1z M92.4,27c-0.3,0.6-1.2,0.9-2.2,0.9
			c-4,8-10.6,19.6-15.8,26.8c0-0.1-5.5-2.9-5.5-2.9c5.1-7.4,11.6-19.7,15.2-28.6L92.4,27z"/>
	<path d="M63.7,86l-1.5-1.6c-4.1-4.4-7.7-9.3-10.6-14.5l-2.2-4l1.3-0.7l2.2,4c2.9,5.2,6.4,9.9,10.4,14.2l1.5,1.6L63.7,86z"/>
	
	<path d="M67.3,88.8c-2-1-4.8-2-7-2.2l3.5-1.5l1.7-3.4C65.6,83.8,66.4,86.7,67.3,88.8z"/>
	

 <path d="M48.7,73.9v-1.1h-1.8v-0.3l1.7-2.5h0.6v2.4h0.5v0.4h-0.5v1.1H48.7z M48.7,72.4v-1.3c0-0.2,0-0.4,0-0.6h0
			c-0.1,0.2-0.2,0.4-0.3,0.6l-1,1.3v0H48.7z"/>



</svg>