<?xml version="1.0" encoding="utf-8"?>
<!-- Generator: Adobe Illustrator 26.2.1, SVG Export Plug-In . SVG Version: 6.00 Build 0)  -->
<svg version="1.1" xmlns="http://www.w3.org/2000/svg" xmlns:xlink="http://www.w3.org/1999/xlink" x="0px" y="0px"
	 viewBox="0 0 100 100" style="enable-background:new 0 0 100 100;" xml:space="preserve" width = "100px" height = "100px">
<style type="text/css">
	.st0{display:none;}
	.st1{display:inline;}
</style> 

	<rect x="17.2" y="27.6" class="st1" width="12.6" height="0"/>

		<path d="M49.4,50.8L49.4,50.8 M6.5,52.1c8.3-6.2,11.9-17.4,13.5-28.7l6.6,1.5c-1.8,11.9-5.3,24.3-14.3,31.2L6.5,52.1z M92.4,27
			c-0.3,0.6-1.2,0.9-2.2,0.9c-4,8-10.6,19.6-15.8,26.8c0-0.1-5.5-2.9-5.5-2.9c5.1-7.4,11.6-19.7,15.2-28.6L92.4,27z"/>


		<line x1="94.4" y1="32" x2="85.6" y2="47.6"/>

			<rect x="84.4" y="37.1" transform="matrix(0.4909 -0.8712 0.8712 0.4909 13.4182 98.6199)" width="13.3" height="1.5"/>
	
				<path d="M85.6,47.6c0.4-2.2,0.5-5.2,0-7.3l2.5,2.9l3.7,0.6C89.8,44.5,87.3,46.1,85.6,47.6z"/>


		<path d="M94.7,39.8v-0.3l0.4-0.4c1-0.9,1.4-1.5,1.5-2c0-0.4-0.2-0.8-0.8-0.8c-0.4,0-0.6,0.2-0.8,0.3l-0.2-0.4
			c0.3-0.2,0.7-0.4,1.1-0.4c0.8,0,1.2,0.6,1.2,1.1c0,0.7-0.5,1.3-1.3,2.1l-0.3,0.3v0h1.8v0.4H94.7z"/>


</svg>