<?xml version="1.0" encoding="utf-8"?>
<!-- Generator: Adobe Illustrator 26.2.1, SVG Export Plug-In . SVG Version: 6.00 Build 0)  -->
<svg version="1.1" xmlns="http://www.w3.org/2000/svg" xmlns:xlink="http://www.w3.org/1999/xlink" x="0px" y="0px"
	 viewBox="0 0 100 100" style="enable-background:new 0 0 100 100;" xml:space="preserve" width = "100px" height = "100px">
<style type="text/css">
	.st0{display:none;}
	.st1{display:inline;}
</style> 

	<rect x="17.2" y="27.6" class="st0" width="12.6" height="0"/>

		<path d="M41,7.4c-0.4,0.7-1.1,1-2.4,0.9C31.6,24.1,20,38.9,7.3,47.9c-1.2-1.3-3.6-3.6-5.3-4.8c12.4-8.4,23.9-22.9,30.4-38.6
			L41,7.4z M76,40.8l1.6-0.1l3.8,0.4c0,0.7-0.1,1.6-0.1,2.4c-1.6,32.3-3.1,43.9-6.6,47.7c-2.8,3.2-5.8,3.5-11.9,3.5
			c-3.4,0-7.7-0.1-12-0.4c-0.1-2-1-4.8-2.2-6.7c6.8,0.6,13.3,0.7,15.7,0.7c2.1,0,3.3-0.2,4.3-1.3c2.6-2.6,4.2-13,5.5-39.6H46.6
			c-2.7,19.2-8.3,38.6-35.1,48.2C10.6,94,8.8,91.4,7.2,90c24.2-8.1,29.9-24.9,32.3-42.5H18v-6.6H76z M67.2,4.3
			C73.8,18.1,86.9,33.6,98,41.2c-1.8,1.4-4.3,4.1-5.6,6C81.2,38.3,68.3,21.9,60.8,6.9L67.2,4.3z"/>

		<path d="M29.8,68.5l-1.2-0.9c0.1-0.2,0.2-0.3,0.4-0.5c3.9-5.7,4.6-12,4.5-16.2l1.5,0c0.1,4.4-0.6,11-4.7,17.1
			C30.1,68.2,29.9,68.3,29.8,68.5z"/>
	
			<path d="M26.2,71.5c0.8-2.1,1.5-5,1.4-7.2l1.9,3.3l3.6,1.3C30.9,69.3,28.2,70.4,26.2,71.5z"/>

		<path d="M29.6,55.4v-1.1h-1.8V54l1.7-2.5h0.6V54h0.5v0.4h-0.5v1.1H29.6z M29.6,54v-1.3c0-0.2,0-0.4,0-0.6h0
			c-0.1,0.2-0.2,0.4-0.3,0.6l-1,1.3v0H29.6z"/>




</svg>