<?xml version="1.0" encoding="utf-8"?>
<!-- Generator: Adobe Illustrator 26.2.1, SVG Export Plug-In . SVG Version: 6.00 Build 0)  -->
<svg version="1.1" xmlns="http://www.w3.org/2000/svg" xmlns:xlink="http://www.w3.org/1999/xlink" x="0px" y="0px"
	 viewBox="0 0 100 100" style="enable-background:new 0 0 100 100;" xml:space="preserve" width = "100px" height = "100px">
<style type="text/css">
	.st0{display:none;}
	.st1{display:inline;}
</style> 

	<rect x="17.2" y="27.6" class="st2" width="12.6" height="0"/>

		<path d="M41,7.4c-0.4,0.7-1.1,1-2.4,0.9C31.6,24.1,20,38.9,7.3,47.9c-1.2-1.3-3.6-3.6-5.3-4.8c12.4-8.4,23.9-22.9,30.4-38.6
			L41,7.4z M18,40.8 M67.2,4.3C73.8,18.1,86.9,33.6,98,41.2c-1.8,1.4-4.3,4.1-5.6,6C81.2,38.3,68.3,21.9,60.8,6.9L67.2,4.3z"/>

		<path d="M69.6,29.4c-0.5-0.6-1.1-1.3-1.6-1.9c-3.7-4.5-6.8-9.5-9.3-14.8l1.4-0.6c2.5,5.2,5.5,10.1,9.1,14.5
			c0.5,0.7,1.1,1.3,1.6,1.9L69.6,29.4z"/>

			<path d="M73.2,32.2c-2-1-4.8-2.1-7-2.3l3.5-1.5l1.8-3.4C71.6,27.3,72.4,30.1,73.2,32.2z"/>

		<path d="M55.5,19.3V19l0.4-0.4c1-0.9,1.4-1.5,1.5-2c0-0.4-0.2-0.8-0.8-0.8c-0.4,0-0.6,0.2-0.8,0.3l-0.2-0.4
			c0.3-0.2,0.7-0.4,1.1-0.4c0.8,0,1.2,0.6,1.2,1.1c0,0.7-0.5,1.3-1.3,2.1l-0.3,0.3v0H58v0.4H55.5z"/>

</svg>