<?xml version="1.0" encoding="utf-8"?>
<!-- Generator: Adobe Illustrator 26.2.1, SVG Export Plug-In . SVG Version: 6.00 Build 0)  -->
<svg version="1.1" xmlns="http://www.w3.org/2000/svg" xmlns:xlink="http://www.w3.org/1999/xlink" x="0px" y="0px"
	 viewBox="0 0 100 100" style="enable-background:new 0 0 100 100;" xml:space="preserve">
<style type="text/css">
	.st0{display:none;}
	.st1{display:inline;}
</style>
<g id="Stroke13">
	<g>
		<path d="M3,24.5v-5.7h36.7v5.7H3z M36.5,60.4v29.4h-23v4.7H7.6V60.4H36.5z M36.2,32.8v5.5H7.7v-5.5H36.2z M7.7,52.1v-5.5h28.5v5.5
			H7.7z M35.9,5.3v5.5H8.3V5.3H35.9z M30.5,66.1h-17v18h17V66.1z M87,43.9h10V50H40v-6.1h13.7c0.9-4.4,1.9-9.6,2.9-15.1h-11v-6h12
			c0.6-3.8,1.2-7.7,1.8-11.2H43.6v-6h49.7v6H65.9l-1.7,11.2H87V43.9z M47.9,94.7V58.3H90v35.8h-6.5v-4H54.3v4.6H47.9z M83.5,64.4
			H54.3v19.5h29.2V64.4z M80.5,28.8H63.2c-0.9,5.4-1.9,10.7-2.8,15.1h20.1V28.8z"/>
	</g>
	<g>
		<path d="M61.9,94c0,0,11.3,0,11.7,0"/>
		<g>
			<rect x="61.9" y="93.2" width="7.2" height="1.5"/>
			<g>
				<path d="M73.7,94c-2.1,0.8-4.8,2.1-6.4,3.6l1.3-3.6l-1.3-3.6C68.9,91.8,71.6,93.2,73.7,94z"/>
			</g>
		</g>
	</g>
	<g>
		<path d="M56.5,92L56.5,92l-0.7,0.4L55.7,92l0.9-0.5H57v3.9h-0.5V92z"/>
		<path d="M60.1,95.4v-1.1h-1.8V94l1.7-2.5h0.6v2.4h0.5v0.4h-0.5v1.1H60.1z M60.1,93.9v-1.3c0-0.2,0-0.4,0-0.6h0
			c-0.1,0.2-0.2,0.4-0.3,0.6l-1,1.3v0H60.1z"/>
	</g>
</g>
<g id="Stroke12" class="st0">
	<g class="st1">
		<path d="M3,24.5v-5.7h36.7v5.7H3z M36.5,60.4v29.4h-23v4.7H7.6V60.4H36.5z M36.2,32.8v5.5H7.7v-5.5H36.2z M7.7,52.1v-5.5h28.5v5.5
			H7.7z M35.9,5.3v5.5H8.3V5.3H35.9z M30.5,66.1h-17v18h17V66.1z M87,43.9h10V50H40v-6.1h13.7c0.9-4.4,1.9-9.6,2.9-15.1h-11v-6h12
			c0.6-3.8,1.2-7.7,1.8-11.2H43.6v-6h49.7v6H65.9l-1.7,11.2H87V43.9z M83.5,64.4H54.3v30.3h-6.4V58.3H90v35.8h-6.5 M80.5,28.8H63.2
			c-0.9,5.4-1.9,10.7-2.8,15.1h20.1V28.8z"/>
	</g>
	<g class="st1">
		<line x1="55.3" y1="68.1" x2="66.5" y2="68.1"/>
		<g>
			<rect x="55.3" y="67.3" width="6.7" height="1.5"/>
			<g>
				<path d="M66.5,68.1c-2.1,0.8-4.8,2.1-6.4,3.6l1.3-3.6L60,64.5C61.7,65.9,64.3,67.3,66.5,68.1z"/>
			</g>
		</g>
	</g>
	<g class="st1">
		<path d="M56.5,73.1L56.5,73.1l-0.7,0.4l-0.1-0.4l0.9-0.5H57v3.9h-0.5V73.1z"/>
		<path d="M58.6,75.9c0.2,0.1,0.5,0.2,0.9,0.2c0.7,0,0.9-0.4,0.9-0.8c0-0.5-0.5-0.8-1-0.8H59v-0.4h0.3c0.4,0,0.9-0.2,0.9-0.7
			c0-0.3-0.2-0.6-0.7-0.6c-0.3,0-0.6,0.1-0.8,0.3l-0.1-0.4c0.2-0.1,0.6-0.3,1-0.3c0.8,0,1.1,0.5,1.1,0.9c0,0.4-0.2,0.7-0.7,0.9v0
			c0.5,0.1,0.9,0.5,0.9,1c0,0.6-0.5,1.2-1.4,1.2c-0.4,0-0.8-0.1-1-0.3L58.6,75.9z"/>
	</g>
</g>
<g id="Stroke11" class="st0">
	<g class="st1">
		<path d="M3,24.5v-5.7h36.7v5.7H3z M36.5,60.4v29.4h-23v4.7H7.6V60.4H36.5z M36.2,32.8v5.5H7.7v-5.5H36.2z M7.7,52.1v-5.5h28.5v5.5
			H7.7z M35.9,5.3v5.5H8.3V5.3H35.9z M30.5,66.1h-17v18h17V66.1z M87,43.9h10V50H40v-6.1h13.7c0.9-4.4,1.9-9.6,2.9-15.1h-11v-6h12
			c0.6-3.8,1.2-7.7,1.8-11.2H43.6v-6h49.7v6H65.9l-1.7,11.2H87V43.9z M54.3,58.3v6.1v19.5v6.2v4.6h-6.4V58.3 M80.5,28.8H63.2
			c-0.9,5.4-1.9,10.7-2.8,15.1h20.1V28.8z"/>
	</g>
	<g class="st1">
		<line x1="58.8" y1="58.3" x2="58.8" y2="69.5"/>
		<g>
			<rect x="58.1" y="58.3" width="1.5" height="6.7"/>
			<g>
				<path d="M58.8,69.5c-0.8-2.1-2.1-4.8-3.6-6.4l3.6,1.3l3.6-1.3C61,64.7,59.6,67.4,58.8,69.5z"/>
			</g>
		</g>
	</g>
	<g class="st1">
		<path d="M63.4,58.4L63.4,58.4l-0.7,0.4l-0.1-0.4l0.9-0.5h0.4v3.9h-0.5V58.4z"/>
		<path d="M65.4,61.8v-0.3l0.4-0.4c1-0.9,1.4-1.5,1.5-2c0-0.4-0.2-0.8-0.8-0.8c-0.4,0-0.6,0.2-0.8,0.3l-0.2-0.4
			c0.3-0.2,0.7-0.4,1.1-0.4c0.8,0,1.2,0.6,1.2,1.1c0,0.7-0.5,1.3-1.3,2.1l-0.3,0.3v0h1.8v0.4H65.4z"/>
	</g>
</g>
<g id="Stroke10" class="st0">
	<g class="st1">
		<path d="M3,24.5v-5.7h36.7v5.7H3z M36.5,60.4v29.4h-23v4.7H7.6V60.4H36.5z M36.2,32.8v5.5H7.7v-5.5H36.2z M7.7,52.1v-5.5h28.5v5.5
			H7.7z M35.9,5.3v5.5H8.3V5.3H35.9z M30.5,66.1h-17v18h17V66.1z M87,43.9h10V50H40v-6.1h13.7c0.9-4.4,1.9-9.6,2.9-15.1h-11v-6h12
			c0.6-3.8,1.2-7.7,1.8-11.2H43.6v-6h49.7v6H65.9l-1.7,11.2H87V43.9z M80.5,28.8H63.2c-0.9,5.4-1.9,10.7-2.8,15.1h20.1V28.8z"/>
	</g>
	<g class="st1">
		<path d="M40.3,53.6c1.4,0,13.3,0,13.3,0"/>
		<g>
			<path d="M40.3,54.4l0-1.5c0.8,0,5.2,0,8.8,0l0,1.5C44,54.4,40.9,54.4,40.3,54.4z"/>
			<g>
				<path d="M53.5,53.6c-2.1,0.8-4.8,2.1-6.4,3.6l1.3-3.6l-1.3-3.6C48.8,51.5,51.4,52.8,53.5,53.6z"/>
			</g>
		</g>
	</g>
	<g class="st1">
		<path d="M40.4,57L40.4,57l-0.7,0.4L39.6,57l0.9-0.5h0.4v3.9h-0.5V57z"/>
		<path d="M43.5,57L43.5,57l-0.7,0.4L42.7,57l0.9-0.5H44v3.9h-0.5V57z"/>
	</g>
</g>
<g id="Stroke9" class="st0">
	<g class="st1">
		<path d="M3,24.5v-5.7h36.7v5.7H3z M36.5,60.4v29.4h-23v4.7H7.6V60.4H36.5z M36.2,32.8v5.5H7.7v-5.5H36.2z M7.7,52.1v-5.5h28.5v5.5
			H7.7z M35.9,5.3v5.5H8.3V5.3H35.9z M30.5,66.1h-17v18h17V66.1z M53.7,43.9c0.9-4.4,1.9-9.6,2.9-15.1h-11v-6h12
			c0.6-3.8,1.2-7.7,1.8-11.2H43.6v-6h49.7v6H65.9l-1.7,11.2H87v21.1 M47.9,94.7V58.3H90v35.8h-6.5v-4H54.3v4.6H47.9z M83.5,64.4
			H54.3v19.5h29.2V64.4z M80.5,28.8H63.2c-0.9,5.4-1.9,10.7-2.8,15.1h20.1V28.8z"/>
	</g>
	<g class="st1">
		<line x1="46.2" y1="32.8" x2="53.8" y2="32.8"/>
		<g>
			<rect x="46.2" y="32" width="3.1" height="1.5"/>
			<g>
				<path d="M53.8,32.8c-2.1,0.8-4.8,2.1-6.4,3.6l1.3-3.6l-1.3-3.6C49,30.7,51.7,32,53.8,32.8z"/>
			</g>
		</g>
	</g>
	<g class="st1">
		<path d="M46.7,37.1L46.7,37.1L46,37.5l-0.1-0.4l0.9-0.5h0.4v3.9h-0.5V37.1z"/>
		<path d="M51.2,38.5c0,1.3-0.5,2.1-1.4,2.1c-0.8,0-1.3-0.7-1.3-2c0-1.3,0.6-2,1.4-2C50.8,36.6,51.2,37.3,51.2,38.5z M49.1,38.6
			c0,1,0.3,1.6,0.8,1.6c0.5,0,0.8-0.6,0.8-1.6c0-1-0.2-1.6-0.8-1.6C49.4,37,49.1,37.5,49.1,38.6z"/>
	</g>
</g>
<g id="Stroke8" class="st0">
	<g class="st1">
		<path d="M3,24.5v-5.7h36.7v5.7H3z M36.5,60.4v29.4h-23v4.7H7.6V60.4H36.5z M36.2,32.8v5.5H7.7v-5.5H36.2z M7.7,52.1v-5.5h28.5v5.5
			H7.7z M35.9,5.3v5.5H8.3V5.3H35.9z M30.5,66.1h-17v18h17V66.1z M53.7,43.9c0.9-4.4,1.9-9.6,2.9-15.1l1-6c0.6-3.8,1.2-7.7,1.8-11.2
			H43.6v-6h49.7v6H65.9l-1.7,11.2l-1,6c-0.9,5.4-1.9,10.7-2.8,15.1 M47.9,94.7V58.3H90v35.8h-6.5v-4H54.3v4.6H47.9z M83.5,64.4H54.3
			v19.5h29.2V64.4z"/>
	</g>
	<g class="st1">
		<path d="M69.5,12.7C69.4,14.1,68.3,23,68.3,23"/>
		<g>
			<path d="M69.6,18.6l-1.5-0.2c0.5-4.1,0.6-5.4,0.7-5.8l1.5,0.1C70.2,13.3,70,15.3,69.6,18.6z"/>
			<g>
				<path d="M68.3,23c-0.5-2.2-1.5-5-2.8-6.8l3.4,1.7l3.7-0.9C71,18.5,69.3,21,68.3,23z"/>
			</g>
		</g>
	</g>
	<g class="st1">
		<path d="M73.3,16.6c0.1,0,0.2,0,0.4,0c0.3,0,0.6-0.2,0.8-0.4c0.3-0.2,0.4-0.6,0.5-1h0c-0.2,0.3-0.5,0.4-0.9,0.4
			c-0.7,0-1.2-0.5-1.2-1.2c0-0.7,0.5-1.4,1.3-1.4s1.3,0.6,1.3,1.6c0,0.9-0.3,1.5-0.7,1.8c-0.3,0.3-0.7,0.5-1.1,0.5
			c-0.2,0-0.4,0-0.5,0V16.6z M73.5,14.3c0,0.5,0.3,0.8,0.8,0.8c0.4,0,0.6-0.2,0.8-0.4c0,0,0-0.1,0-0.2c0-0.7-0.2-1.2-0.8-1.2
			C73.8,13.4,73.5,13.8,73.5,14.3z"/>
	</g>
</g>
<g id="Stroke7" class="st0">
	<g class="st1">
		<path d="M3,24.5v-5.7h36.7v5.7H3z M36.5,60.4v29.4h-23v4.7H7.6V60.4H36.5z M36.2,32.8v5.5H7.7v-5.5H36.2z M7.7,52.1v-5.5h28.5v5.5
			H7.7z M35.9,5.3v5.5H8.3V5.3H35.9z M30.5,66.1h-17v18h17V66.1z M59.4,11.6H43.6v-6h49.7v6H65.9"/>
	</g>
	<g class="st1">
		<path d="M44.2,15.4c5.3,0,14-0.1,13.6,0"/>
		<g>
			<path d="M45.6,16.2c-0.5,0-0.9,0-1.4,0l0-1.5c2.2,0,4.9,0,7.4,0l1.7,0l0,1.5l-1.7,0C49.6,16.2,47.5,16.2,45.6,16.2z"/>
			<g>
				<path d="M57.8,15.4c-2.1,0.8-4.8,2.1-6.4,3.5l1.3-3.6l-1.3-3.6C53,13.3,55.6,14.6,57.8,15.4z"/>
			</g>
		</g>
	</g>
	<g class="st1">
		<path d="M44.2,21c0-0.5,0.3-0.8,0.8-1l0,0c-0.4-0.2-0.6-0.5-0.6-0.9c0-0.6,0.5-1,1.2-1c0.8,0,1.1,0.5,1.1,1c0,0.3-0.2,0.7-0.6,0.9
			v0c0.5,0.2,0.8,0.5,0.8,1c0,0.7-0.6,1.1-1.3,1.1C44.7,22.1,44.2,21.6,44.2,21z M46.3,21c0-0.5-0.3-0.7-0.9-0.9
			c-0.5,0.1-0.7,0.4-0.7,0.8c0,0.4,0.3,0.7,0.8,0.7C46,21.7,46.3,21.4,46.3,21z M44.9,19c0,0.4,0.3,0.6,0.7,0.7
			c0.3-0.1,0.6-0.4,0.6-0.7c0-0.3-0.2-0.6-0.7-0.6C45.1,18.4,44.9,18.7,44.9,19z"/>
	</g>
</g>
<g id="Stroke6" class="st0">
	<g class="st1">
		<path d="M3,24.5v-5.7h36.7v5.7H3z M36.5,60.4v29.4h-23v4.7H7.6V60.4H36.5z M36.2,32.8v5.5H7.7v-5.5H36.2z M7.7,52.1v-5.5h28.5v5.5
			H7.7z M35.9,5.3v5.5H8.3V5.3H35.9z M30.5,66.1h-17v18h17V66.1z"/>
	</g>
	<g class="st1">
		<path d="M19.1,93.6c1.1,0,12.3,0,12.3,0"/>
		<g>
			<rect x="19.1" y="92.8" width="7.8" height="1.5"/>
			<g>
				<path d="M31.4,93.6c-2.1,0.8-4.8,2.1-6.4,3.6l1.3-3.6L25,90C26.6,91.4,29.3,92.8,31.4,93.6z"/>
			</g>
		</g>
	</g>
	<g class="st1">
		<path d="M17.3,91.4v0.3l-1.7,3.5H15l1.7-3.4v0h-1.9v-0.4H17.3z"/>
	</g>
</g>
<g id="Stroke5" class="st0">
	<g class="st1">
		<path d="M3,24.5v-5.7h36.7v5.7H3z M30.5,84.1v-18h-17v28.4H7.6V60.4h28.9v29.4h-6.3 M36.2,32.8v5.5H7.7v-5.5H36.2z M7.7,52.1v-5.5
			h28.5v5.5H7.7z M35.9,5.3v5.5H8.3V5.3H35.9z"/>
	</g>
	<g class="st1">
		<line x1="15.2" y1="69.8" x2="25.4" y2="69.8"/>
		<g>
			<rect x="15.2" y="69" width="5.7" height="1.5"/>
			<g>
				<path d="M25.4,69.8c-2.1,0.8-4.8,2.1-6.4,3.6l1.3-3.6L19,66.2C20.7,67.7,23.3,69,25.4,69.8z"/>
			</g>
		</g>
	</g>
	<g class="st1">
		<path d="M17.7,73.9c-0.1,0-0.2,0-0.4,0c-0.8,0.1-1.3,0.7-1.4,1.4h0c0.2-0.2,0.5-0.4,0.9-0.4c0.7,0,1.2,0.5,1.2,1.3
			c0,0.7-0.5,1.4-1.3,1.4c-0.8,0-1.4-0.6-1.4-1.7c0-0.8,0.3-1.4,0.7-1.8c0.3-0.3,0.8-0.5,1.2-0.6c0.2,0,0.3,0,0.4,0V73.9z
			 M17.6,76.2c0-0.6-0.3-0.9-0.8-0.9c-0.3,0-0.6,0.2-0.8,0.5c0,0.1-0.1,0.1-0.1,0.2c0,0.6,0.3,1.1,0.9,1.1
			C17.3,77.1,17.6,76.7,17.6,76.2z"/>
	</g>
</g>
<g id="Stroke4" class="st0">
	<g class="st1">
		<path d="M3,24.5v-5.7h36.7v5.7H3z M13.5,60.4v5.7v18v5.7v4.7H7.6V60.4 M36.2,32.8v5.5H7.7v-5.5H36.2z M7.7,52.1v-5.5h28.5v5.5H7.7
			z M35.9,5.3v5.5H8.3V5.3H35.9z"/>
	</g>
	<g class="st1">
		<path d="M17.7,60.4c0,0.9,0,9.7,0,9.7"/>
		<g>
			<rect x="17" y="60.4" width="1.5" height="5.1"/>
			<g>
				<path d="M17.7,70.1c-0.8-2.1-2.1-4.8-3.6-6.4l3.6,1.3l3.6-1.3C19.9,65.3,18.5,68,17.7,70.1z"/>
			</g>
		</g>
	</g>
	<g class="st1">
		<path d="M24.5,61h-1.5l-0.2,1c0.1,0,0.2,0,0.3,0c0.3,0,0.6,0.1,0.8,0.2c0.3,0.2,0.6,0.5,0.6,1c0,0.8-0.6,1.3-1.5,1.3
			c-0.4,0-0.8-0.1-1-0.2l0.1-0.4c0.2,0.1,0.5,0.2,0.8,0.2c0.5,0,0.9-0.3,0.9-0.8c0-0.5-0.3-0.9-1.1-0.9c-0.2,0-0.4,0-0.5,0l0.3-1.9
			h1.9V61z"/>
	</g>
</g>
<g id="Stroke3" class="st0">
	<g class="st1">
		<path d="M3,24.5v-5.7h36.7v5.7H3z M36.2,32.8v5.5H7.7v-5.5H36.2z M7.7,52.1v-5.5h28.5v5.5H7.7z M35.9,5.3v5.5H8.3V5.3H35.9z"/>
	</g>
	<g class="st1">
		<path d="M7.7,55.7c0,0,10.5,0,10.9,0"/>
		<g>
			<rect x="7.7" y="55" width="6.4" height="1.5"/>
			<g>
				<path d="M18.6,55.7c-2.1,0.8-4.8,2.1-6.4,3.6l1.3-3.6l-1.3-3.6C13.8,53.6,16.5,54.9,18.6,55.7z"/>
			</g>
		</g>
	</g>
	<g class="st1">
		<path d="M9.2,62.6v-1.1H7.3v-0.3l1.7-2.5h0.6v2.4h0.5v0.4H9.7v1.1H9.2z M9.2,61.1v-1.3c0-0.2,0-0.4,0-0.6h0
			c-0.1,0.2-0.2,0.4-0.3,0.6l-1,1.3v0H9.2z"/>
	</g>
</g>
<g id="Stroke2" class="st0">
	<g class="st1">
		<path d="M3,24.5v-5.7h36.7v5.7H3z M36.2,32.8v5.5H7.7v-5.5H36.2z M35.9,5.3v5.5H8.3V5.3H35.9z"/>
	</g>
	<g class="st1">
		<line x1="7.7" y1="42.3" x2="20.9" y2="42.3"/>
		<g>
			<rect x="7.7" y="41.5" width="8.7" height="1.5"/>
			<g>
				<path d="M20.9,42.3c-2.1,0.8-4.8,2.1-6.4,3.6l1.3-3.6l-1.3-3.6C16.1,40.1,18.8,41.5,20.9,42.3z"/>
			</g>
		</g>
	</g>
	<g class="st1">
		<path d="M8.1,48.1c0.1,0.1,0.5,0.2,0.9,0.2c0.7,0,0.9-0.4,0.9-0.8c0-0.5-0.5-0.8-1-0.8H8.5v-0.4h0.3c0.4,0,0.9-0.2,0.9-0.7
			c0-0.3-0.2-0.6-0.7-0.6c-0.3,0-0.6,0.1-0.8,0.3L8.1,45c0.2-0.1,0.6-0.3,1-0.3c0.8,0,1.1,0.5,1.1,0.9c0,0.4-0.2,0.7-0.7,0.9v0
			c0.5,0.1,0.9,0.5,0.9,1c0,0.6-0.5,1.2-1.4,1.2c-0.4,0-0.8-0.1-1-0.3L8.1,48.1z"/>
	</g>
</g>
<g id="Stroke1" class="st0">
	<g class="st1">
		<path d="M3,24.5v-5.7h36.7v5.7H3z M35.9,5.3v5.5H8.3V5.3H35.9z"/>
	</g>
	<g class="st1">
		<path d="M3,28.8c0.5,0,13.3,0,13.3,0"/>
		<g>
			<rect x="3" y="28" width="8.8" height="1.5"/>
			<g>
				<path d="M16.3,28.8c-2.1,0.8-4.8,2.1-6.4,3.6l1.3-3.6l-1.3-3.6C11.5,26.6,14.2,28,16.3,28.8z"/>
			</g>
		</g>
	</g>
	<g class="st1">
		<path d="M2.9,35.2v-0.3l0.4-0.4c1-0.9,1.4-1.5,1.5-2c0-0.4-0.2-0.8-0.8-0.8c-0.4,0-0.6,0.2-0.8,0.3L3,31.7
			c0.3-0.2,0.7-0.4,1.1-0.4c0.8,0,1.2,0.6,1.2,1.1c0,0.7-0.5,1.3-1.3,2.1l-0.3,0.3v0h1.8v0.4H2.9z"/>
	</g>
</g>
<g id="Stroke0" class="st0">
	<g class="st1">
		<path d="M35.9,5.3v5.5H8.3V5.3H35.9z"/>
	</g>
	<g class="st1">
		<line x1="8.3" y1="15.6" x2="19.7" y2="15.6"/>
		<g>
			<rect x="8.3" y="14.8" width="6.9" height="1.5"/>
			<g>
				<path d="M19.7,15.6c-2.1,0.8-4.8,2.1-6.4,3.6l1.3-3.6L13.3,12C15,13.4,17.6,14.8,19.7,15.6z"/>
			</g>
		</g>
	</g>
	<g class="st1">
		<path d="M9.7,19.2L9.7,19.2L9,19.6l-0.1-0.4l0.9-0.5h0.4v3.9H9.7V19.2z"/>
	</g>
</g>
<g id="Kanji" class="st0">
	<g class="st1">
		<path d="M3,24.5v-5.7h36.7v5.7H3z M36.5,60.4v29.4h-23v4.7H7.6V60.4H36.5z M36.2,32.8v5.5H7.7v-5.5H36.2z M7.7,52.1v-5.5h28.5v5.5
			H7.7z M35.9,5.3v5.5H8.3V5.3H35.9z M30.5,66.1h-17v18h17V66.1z M87,43.9h10V50H40v-6.1h13.7c0.9-4.4,1.9-9.6,2.9-15.1h-11v-6h12
			c0.6-3.8,1.2-7.7,1.8-11.2H43.6v-6h49.7v6H65.9l-1.7,11.2H87V43.9z M47.9,94.7V58.3H90v35.8h-6.5v-4H54.3v4.6H47.9z M83.5,64.4
			H54.3v19.5h29.2V64.4z M80.5,28.8H63.2c-0.9,5.4-1.9,10.7-2.8,15.1h20.1V28.8z"/>
	</g>
</g>
</svg>
