<?xml version="1.0" encoding="utf-8"?>
<!-- Generator: Adobe Illustrator 26.2.1, SVG Export Plug-In . SVG Version: 6.00 Build 0)  -->
<svg version="1.1" xmlns="http://www.w3.org/2000/svg" xmlns:xlink="http://www.w3.org/1999/xlink" x="0px" y="0px"
	 viewBox="0 0 100 100" style="enable-background:new 0 0 100 100;" xml:space="preserve" width = "100px" height = "100px">
<style type="text/css">
	.st0{display:none;}
	.st1{display:inline;}
</style>

		<path d="M3,24.5v-5.7h36.7v5.7H3z M36.5,60.4v29.4h-23v4.7H7.6V60.4H36.5z M36.2,32.8v5.5H7.7v-5.5H36.2z M7.7,52.1v-5.5h28.5v5.5
			H7.7z M35.9,5.3v5.5H8.3V5.3H35.9z M30.5,66.1h-17v18h17V66.1z M87,43.9h10V50H40v-6.1h13.7c0.9-4.4,1.9-9.6,2.9-15.1h-11v-6h12
			c0.6-3.8,1.2-7.7,1.8-11.2H43.6v-6h49.7v6H65.9l-1.7,11.2H87V43.9z M80.5,28.8H63.2c-0.9,5.4-1.9,10.7-2.8,15.1h20.1V28.8z"/>

		<path d="M40.3,53.6c1.4,0,13.3,0,13.3,0"/>

			<path d="M40.3,54.4l0-1.5c0.8,0,5.2,0,8.8,0l0,1.5C44,54.4,40.9,54.4,40.3,54.4z"/>

				<path d="M53.5,53.6c-2.1,0.8-4.8,2.1-6.4,3.6l1.3-3.6l-1.3-3.6C48.8,51.5,51.4,52.8,53.5,53.6z"/>

		<path d="M40.4,57L40.4,57l-0.7,0.4L39.6,57l0.9-0.5h0.4v3.9h-0.5V57z"/>
		<path d="M43.5,57L43.5,57l-0.7,0.4L42.7,57l0.9-0.5H44v3.9h-0.5V57z"/>


 </svg>