<?xml version="1.0" encoding="utf-8"?>
<!-- Generator: Adobe Illustrator 26.2.1, SVG Export Plug-In . SVG Version: 6.00 Build 0)  -->
<svg version="1.1" xmlns="http://www.w3.org/2000/svg" xmlns:xlink="http://www.w3.org/1999/xlink" x="0px" y="0px"
	 viewBox="0 0 100 100" style="enable-background:new 0 0 100 100;" xml:space="preserve" width = "100px" height = "100px">
<style type="text/css">
	.st0{display:none;}
	.st1{display:inline;}
</style>

		<path d="M3,24.5v-5.7h36.7v5.7H3z M36.5,60.4v29.4h-23v4.7H7.6V60.4H36.5z M36.2,32.8v5.5H7.7v-5.5H36.2z M7.7,52.1v-5.5h28.5v5.5
			H7.7z M35.9,5.3v5.5H8.3V5.3H35.9z M30.5,66.1h-17v18h17V66.1z M59.4,11.6H43.6v-6h49.7v6H65.9"/>


		<path d="M44.2,15.4c5.3,0,14-0.1,13.6,0"/>

			<path d="M45.6,16.2c-0.5,0-0.9,0-1.4,0l0-1.5c2.2,0,4.9,0,7.4,0l1.7,0l0,1.5l-1.7,0C49.6,16.2,47.5,16.2,45.6,16.2z"/>

				<path d="M57.8,15.4c-2.1,0.8-4.8,2.1-6.4,3.5l1.3-3.6l-1.3-3.6C53,13.3,55.6,14.6,57.8,15.4z"/>

		<path d="M44.2,21c0-0.5,0.3-0.8,0.8-1l0,0c-0.4-0.2-0.6-0.5-0.6-0.9c0-0.6,0.5-1,1.2-1c0.8,0,1.1,0.5,1.1,1c0,0.3-0.2,0.7-0.6,0.9
			v0c0.5,0.2,0.8,0.5,0.8,1c0,0.7-0.6,1.1-1.3,1.1C44.7,22.1,44.2,21.6,44.2,21z M46.3,21c0-0.5-0.3-0.7-0.9-0.9
			c-0.5,0.1-0.7,0.4-0.7,0.8c0,0.4,0.3,0.7,0.8,0.7C46,21.7,46.3,21.4,46.3,21z M44.9,19c0,0.4,0.3,0.6,0.7,0.7
			c0.3-0.1,0.6-0.4,0.6-0.7c0-0.3-0.2-0.6-0.7-0.6C45.1,18.4,44.9,18.7,44.9,19z"/>

 </svg>