<?xml version="1.0" encoding="utf-8"?>
<!-- Generator: Adobe Illustrator 26.2.1, SVG Export Plug-In . SVG Version: 6.00 Build 0)  -->
<svg version="1.1" xmlns="http://www.w3.org/2000/svg" xmlns:xlink="http://www.w3.org/1999/xlink" x="0px" y="0px"
	 viewBox="0 0 100 100" style="enable-background:new 0 0 100 100;" xml:space="preserve" width = "100px" height = "100px">
<style type="text/css">
	.st0{display:none;}
	.st1{display:inline;}
</style> 


		<path d="M3,24.5v-5.7h36.7v5.7H3z M36.2,32.8v5.5H7.7v-5.5H36.2z M7.7,52.1v-5.5h28.5v5.5H7.7z M35.9,5.3v5.5H8.3V5.3H35.9z"/>

		<path d="M7.7,55.7c0,0,10.5,0,10.9,0"/>

			<rect x="7.7" y="55" width="6.4" height="1.5"/>

				<path d="M18.6,55.7c-2.1,0.8-4.8,2.1-6.4,3.6l1.3-3.6l-1.3-3.6C13.8,53.6,16.5,54.9,18.6,55.7z"/>

		<path d="M9.2,62.6v-1.1H7.3v-0.3l1.7-2.5h0.6v2.4h0.5v0.4H9.7v1.1H9.2z M9.2,61.1v-1.3c0-0.2,0-0.4,0-0.6h0
			c-0.1,0.2-0.2,0.4-0.3,0.6l-1,1.3v0H9.2z"/>


</svg>