<?xml version="1.0" encoding="utf-8"?>
<!-- Generator: Adobe Illustrator 26.2.1, SVG Export Plug-In . SVG Version: 6.00 Build 0)  -->
<svg version="1.1" xmlns="http://www.w3.org/2000/svg" xmlns:xlink="http://www.w3.org/1999/xlink" x="0px" y="0px"
	 viewBox="0 0 100 100" style="enable-background:new 0 0 100 100;" xml:space="preserve" width = "100px" height = "100px">
<style type="text/css">
	.st0{display:none;}
	.st1{display:inline;}
</style>




		<path d="M3,24.5v-5.7h36.7v5.7H3z M30.5,84.1v-18h-17v28.4H7.6V60.4h28.9v29.4h-6.3 M36.2,32.8v5.5H7.7v-5.5H36.2z M7.7,52.1v-5.5
			h28.5v5.5H7.7z M35.9,5.3v5.5H8.3V5.3H35.9z"/>


		<line x1="15.2" y1="69.8" x2="25.4" y2="69.8"/>

			<rect x="15.2" y="69" width="5.7" height="1.5"/>
	
				<path d="M25.4,69.8c-2.1,0.8-4.8,2.1-6.4,3.6l1.3-3.6L19,66.2C20.7,67.7,23.3,69,25.4,69.8z"/>

		<path d="M17.7,73.9c-0.1,0-0.2,0-0.4,0c-0.8,0.1-1.3,0.7-1.4,1.4h0c0.2-0.2,0.5-0.4,0.9-0.4c0.7,0,1.2,0.5,1.2,1.3
			c0,0.7-0.5,1.4-1.3,1.4c-0.8,0-1.4-0.6-1.4-1.7c0-0.8,0.3-1.4,0.7-1.8c0.3-0.3,0.8-0.5,1.2-0.6c0.2,0,0.3,0,0.4,0V73.9z
			 M17.6,76.2c0-0.6-0.3-0.9-0.8-0.9c-0.3,0-0.6,0.2-0.8,0.5c0,0.1-0.1,0.1-0.1,0.2c0,0.6,0.3,1.1,0.9,1.1
			C17.3,77.1,17.6,76.7,17.6,76.2z"/>


 </svg>