<?xml version="1.0" encoding="utf-8"?>
<!-- Generator: Adobe Illustrator 26.2.1, SVG Export Plug-In . SVG Version: 6.00 Build 0)  -->
<svg version="1.1" xmlns="http://www.w3.org/2000/svg" xmlns:xlink="http://www.w3.org/1999/xlink" x="0px" y="0px"
	 viewBox="0 0 100 100" style="enable-background:new 0 0 100 100;" xml:space="preserve" width = "100px" height = "100px">
<style type="text/css">
	.st0{display:none;}
	.st1{display:inline;}
</style> 

		<path d="M3,24.5v-5.7h36.7v5.7H3z M13.5,60.4v5.7v18v5.7v4.7H7.6V60.4 M36.2,32.8v5.5H7.7v-5.5H36.2z M7.7,52.1v-5.5h28.5v5.5H7.7
			z M35.9,5.3v5.5H8.3V5.3H35.9z"/>

		<path d="M17.7,60.4c0,0.9,0,9.7,0,9.7"/>

			<rect x="17" y="60.4" width="1.5" height="5.1"/>
		
				<path d="M17.7,70.1c-0.8-2.1-2.1-4.8-3.6-6.4l3.6,1.3l3.6-1.3C19.9,65.3,18.5,68,17.7,70.1z"/>

		<path d="M24.5,61h-1.5l-0.2,1c0.1,0,0.2,0,0.3,0c0.3,0,0.6,0.1,0.8,0.2c0.3,0.2,0.6,0.5,0.6,1c0,0.8-0.6,1.3-1.5,1.3
			c-0.4,0-0.8-0.1-1-0.2l0.1-0.4c0.2,0.1,0.5,0.2,0.8,0.2c0.5,0,0.9-0.3,0.9-0.8c0-0.5-0.3-0.9-1.1-0.9c-0.2,0-0.4,0-0.5,0l0.3-1.9
			h1.9V61z"/>

</svg>