<?xml version="1.0" encoding="utf-8"?>
<!-- Generator: Adobe Illustrator 26.2.1, SVG Export Plug-In . SVG Version: 6.00 Build 0)  -->
<svg version="1.1" xmlns="http://www.w3.org/2000/svg" xmlns:xlink="http://www.w3.org/1999/xlink" x="0px" y="0px"
	 viewBox="0 0 100 100" style="enable-background:new 0 0 100 100;" xml:space="preserve" width = "100px" height = "100px">
<style type="text/css">
	.st0{display:none;}
	.st1{display:inline;}
</style> 


		<path d="M3,24.5v-5.7h36.7v5.7H3z M36.5,60.4v29.4h-23v4.7H7.6V60.4H36.5z M36.2,32.8v5.5H7.7v-5.5H36.2z M7.7,52.1v-5.5h28.5v5.5
			H7.7z M35.9,5.3v5.5H8.3V5.3H35.9z M30.5,66.1h-17v18h17V66.1z M87,43.9h10V50H40v-6.1h13.7c0.9-4.4,1.9-9.6,2.9-15.1h-11v-6h12
			c0.6-3.8,1.2-7.7,1.8-11.2H43.6v-6h49.7v6H65.9l-1.7,11.2H87V43.9z M54.3,58.3v6.1v19.5v6.2v4.6h-6.4V58.3 M80.5,28.8H63.2
			c-0.9,5.4-1.9,10.7-2.8,15.1h20.1V28.8z"/>

		<line x1="58.8" y1="58.3" x2="58.8" y2="69.5"/>
	<rect x="58.1" y="58.3" width="1.5" height="6.7"/>
		
	<path d="M58.8,69.5c-0.8-2.1-2.1-4.8-3.6-6.4l3.6,1.3l3.6-1.3C61,64.7,59.6,67.4,58.8,69.5z"/>
			<path d="M63.4,58.4L63.4,58.4l-0.7,0.4l-0.1-0.4l0.9-0.5h0.4v3.9h-0.5V58.4z"/>
		<path d="M65.4,61.8v-0.3l0.4-0.4c1-0.9,1.4-1.5,1.5-2c0-0.4-0.2-0.8-0.8-0.8c-0.4,0-0.6,0.2-0.8,0.3l-0.2-0.4
			c0.3-0.2,0.7-0.4,1.1-0.4c0.8,0,1.2,0.6,1.2,1.1c0,0.7-0.5,1.3-1.3,2.1l-0.3,0.3v0h1.8v0.4H65.4z"/>
</svg>