<?xml version="1.0" encoding="utf-8"?>
<!-- Generator: Adobe Illustrator 26.2.1, SVG Export Plug-In . SVG Version: 6.00 Build 0)  -->
<svg version="1.1" xmlns="http://www.w3.org/2000/svg" xmlns:xlink="http://www.w3.org/1999/xlink" x="0px" y="0px"
	 viewBox="0 0 100 100" style="enable-background:new 0 0 100 100;" xml:space="preserve">
<style type="text/css">
	.st0{display:none;}
	.st1{display:inline;}
	.st2{fill:none;stroke:#000000;stroke-width:1.5;stroke-miterlimit:10;}
</style>
<g id="Stroke4" class="st0">
	<g class="st1">
		<path d="M17.4,50.5c-3.8,4.5-7.8,8.6-11.5,12c-0.8-1.3-2.6-4.2-3.7-5.6c8.6-7.3,18.7-19.5,25.1-31.1l7.4,3.1
			c-0.3,0.6-1.1,0.9-2.2,0.8c-2.5,4.1-5.4,8.4-8.5,12.5l1.8,0.6c-0.3,0.6-0.8,1.1-2,1.3v52.3h-6.4V50.5z M31.7,6.5
			c-0.3,0.6-1.1,0.9-2.1,0.8C24.4,14.7,15,24.6,7,31.2c-0.9-1.4-2.7-3.8-3.9-5c7.6-5.9,16.4-15.2,21-22.7L31.7,6.5z M87.5,47.2
			c-8.5,0.3-17.3,0.7-25.6,1l-8.3,0.3l-20.7,0.7c-0.2,0.8-0.8,1.3-1.5,1.4L29.2,43l15.6-0.3c2.3-1.8,4.6-3.7,7-5.8
			C47,31.6,39.1,24.6,32.3,19.8l4.2-4.3c1.9,1.3,3.9,2.8,6,4.4c4.5-4.7,10-11.5,13.1-16.5l7.2,3.8C62.4,7.8,61.6,8,60.6,8
			c-3.5,4.5-9.1,10.9-13.8,15.4c3.7,3.1,7.2,6.3,9.8,9.1c7.4-7,14.7-14.7,19.9-21l7.3,3.9c-0.3,0.5-1.2,0.8-2.3,0.7
			c-7.3,8-18,18.4-27.7,26.4c9.3-0.2,19.5-0.4,29.6-0.7"/>
	</g>
	<g class="st1">
		<g>
			<path class="st2" d="M78.2,22c-0.1,0.2-8.3,8.4-13.3,13.3c-1.3,1.3-0.4,3.5,1.5,3.5h4.8"/>
			<g>
				<path d="M75.7,38.8c-2.1,0.8-4.8,2.1-6.4,3.6l1.3-3.6l-1.3-3.6C70.9,36.7,73.5,38,75.7,38.8z"/>
			</g>
		</g>
	</g>
	<g class="st1">
		<path d="M82.3,21.3h-1.5l-0.2,1c0.1,0,0.2,0,0.3,0c0.3,0,0.6,0.1,0.8,0.2c0.3,0.2,0.6,0.5,0.6,1c0,0.8-0.6,1.3-1.5,1.3
			c-0.4,0-0.8-0.1-1-0.2l0.1-0.4c0.2,0.1,0.5,0.2,0.8,0.2c0.5,0,0.9-0.3,0.9-0.8c0-0.5-0.3-0.9-1.1-0.9c-0.2,0-0.4,0-0.5,0l0.3-1.9
			h1.9V21.3z"/>
	</g>
</g>
<g id="Stroke3" class="st0">
	<g class="st1">
		<path d="M17.4,50.5c-3.8,4.5-7.8,8.6-11.5,12c-0.8-1.3-2.6-4.2-3.7-5.6c8.6-7.3,18.7-19.5,25.1-31.1l7.4,3.1
			c-0.3,0.6-1.1,0.9-2.2,0.8c-2.5,4.1-5.4,8.4-8.5,12.5l1.8,0.6c-0.3,0.6-0.8,1.1-2,1.3v52.3h-6.4V50.5z M31.7,6.5
			c-0.3,0.6-1.1,0.9-2.1,0.8C24.4,14.7,15,24.6,7,31.2c-0.9-1.4-2.7-3.8-3.9-5c7.6-5.9,16.4-15.2,21-22.7L31.7,6.5z M50.4,35.9
			c-4.8-5.3-12.7-12.3-19.5-17.1l4.2-4.3c1.9,1.3,3.9,2.8,6,4.4c4.5-4.7,10-11.5,13.1-16.5l7.2,3.8C61,6.8,60.2,7,59.2,7
			c-3.5,4.5-9.1,10.9-13.8,15.4c3.7,3.1,7.2,6.3,9.8,9.1"/>
	</g>
	<g class="st1">
		<path d="M51.1,23.4l-0.5-0.5c-0.9-1.1-0.9-2.7,0.1-3.8c3.4-3.7,9.1-9.9,9.3-10.1l1.1,1.1l-0.5-0.5l0.5,0.5
			c-0.2,0.2-3.7,4-9.3,10.1c-0.5,0.5-0.5,1.3,0,1.8l0.5,0.5L51.1,23.4z"/>
		<g>
			<path d="M54.6,26.3c-2-1.1-4.7-2.2-6.9-2.6l3.6-1.3l1.9-3.3C53.1,21.3,53.8,24.2,54.6,26.3z"/>
		</g>
	</g>
	<g class="st1">
		<path d="M62.5,15.7v-1.1h-1.8v-0.3l1.7-2.5H63v2.4h0.5v0.4H63v1.1H62.5z M62.5,14.2v-1.3c0-0.2,0-0.4,0-0.6h0
			c-0.1,0.2-0.2,0.4-0.3,0.6l-1,1.3v0H62.5z"/>
	</g>
</g>
<g id="Stroke8">
	<g>
		<path d="M17.4,50.5c-3.8,4.5-7.8,8.6-11.5,12c-0.8-1.3-2.6-4.2-3.7-5.6c8.6-7.3,18.7-19.5,25.1-31.1l7.4,3.1
			c-0.3,0.6-1.1,0.9-2.2,0.8c-2.5,4.1-5.4,8.4-8.5,12.5l1.8,0.6c-0.3,0.6-0.8,1.1-2,1.3v52.3h-6.4V50.5z M31.7,6.5
			c-0.3,0.6-1.1,0.9-2.1,0.8C24.4,14.7,15,24.6,7,31.2c-0.9-1.4-2.7-3.8-3.9-5c7.6-5.9,16.4-15.2,21-22.7L31.7,6.5z M82.1,57
			l4.6,2.2c-0.3,0.5-0.7,0.7-1,0.9c-3.9,8.2-9.9,15-17.1,20.5c8.4,4.8,18.3,8.3,28.8,10.2c-1.5,1.4-3.2,4-4.1,5.8
			c-11-2.4-21.4-6.6-30.2-12.3c-9.2,5.8-19.9,9.9-30.6,12.3c-0.7-1.7-2.3-4.3-3.4-5.8C39,88.9,49,85.4,57.6,80.4
			c-4.9-3.8-9.3-8.3-12.8-13.2c-4,3.6-8.1,6.7-12.2,9.3c-0.9-1.3-2.9-3.6-4.2-4.7c8.9-5.3,18.7-14,25.2-23.3l-20.7,0.7
			c-0.2,0.8-0.8,1.3-1.5,1.4L29.2,43l15.6-0.3c2.3-1.8,4.6-3.7,7-5.8C47,31.6,39.1,24.6,32.3,19.8l4.2-4.3c1.9,1.3,3.9,2.8,6,4.4
			c4.5-4.7,10-11.5,13.1-16.5l7.2,3.8C62.4,7.8,61.6,8,60.6,8c-3.5,4.5-9.1,10.9-13.8,15.4c3.7,3.1,7.2,6.3,9.8,9.1
			c7.4-7,14.7-14.7,19.9-21l7.3,3.9c-0.3,0.5-1.2,0.8-2.3,0.7c-7.3,8-18,18.4-27.7,26.4c9.3-0.2,19.5-0.4,29.6-0.7
			c-2.6-3.3-5.4-6.5-8.1-9.3l5.2-3c6.6,6.6,14,15.6,17.3,21.6l-5.6,3.4c-1.1-2.1-2.7-4.6-4.7-7.3c-8.5,0.3-17.3,0.7-25.6,1l1,0.4
			c-0.3,0.6-1.1,0.9-2.2,0.8c-1.8,2.7-3.8,5.3-6.1,7.9h26.3L82.1,57z M49.6,62.7L49,63.3c3.5,5.1,8.3,9.7,14,13.7
			c5.7-4,10.5-8.8,13.9-14.3H49.6z"/>
	</g>
	<g>
		<path d="M47.7,77.1c-0.6-0.5-1.1-1-1.7-1.5c-1.4-1.3-2.6-2.8-3.7-4.4l1.2-0.8c1,1.5,2.2,2.9,3.5,4.1c0.5,0.5,1,1,1.6,1.4
			L47.7,77.1z"/>
		<g>
			<path d="M51.9,79c-2.2-0.5-5.1-0.9-7.3-0.7l3.1-2.2l0.9-3.7C49.2,74.6,50.6,77.2,51.9,79z"/>
		</g>
	</g>
	<g>
		<path d="M40.2,77c0.1,0,0.2,0,0.4,0c0.3,0,0.6-0.2,0.8-0.4c0.3-0.2,0.4-0.6,0.5-1h0c-0.2,0.3-0.5,0.4-0.9,0.4
			c-0.7,0-1.2-0.5-1.2-1.2c0-0.7,0.5-1.4,1.3-1.4s1.3,0.6,1.3,1.6c0,0.9-0.3,1.5-0.7,1.8c-0.3,0.3-0.7,0.5-1.1,0.5
			c-0.2,0-0.4,0-0.5,0V77z M40.3,74.7c0,0.5,0.3,0.8,0.7,0.8c0.4,0,0.6-0.2,0.8-0.4c0,0,0-0.1,0-0.2c0-0.7-0.2-1.2-0.8-1.2
			C40.7,73.8,40.3,74.2,40.3,74.7z"/>
	</g>
</g>
<g id="Stroke7" class="st0">
	<g class="st1">
		<path d="M17.4,50.5c-3.8,4.5-7.8,8.6-11.5,12c-0.8-1.3-2.6-4.2-3.7-5.6c8.6-7.3,18.7-19.5,25.1-31.1l7.4,3.1
			c-0.3,0.6-1.1,0.9-2.2,0.8c-2.5,4.1-5.4,8.4-8.5,12.5l1.8,0.6c-0.3,0.6-0.8,1.1-2,1.3v52.3h-6.4V50.5z M31.7,6.5
			c-0.3,0.6-1.1,0.9-2.1,0.8C24.4,14.7,15,24.6,7,31.2c-0.9-1.4-2.7-3.8-3.9-5c7.6-5.9,16.4-15.2,21-22.7L31.7,6.5z M44.8,67.2
			c-4,3.6-8.1,6.7-12.2,9.3c-0.9-1.3-2.9-3.6-4.2-4.7c8.9-5.3,18.7-14,25.2-23.3l-20.7,0.7c-0.2,0.8-0.8,1.3-1.5,1.4L29.2,43
			l15.6-0.3c2.3-1.8,4.6-3.7,7-5.8C47,31.6,39.1,24.6,32.3,19.8l4.2-4.3c1.9,1.3,3.9,2.8,6,4.4c4.5-4.7,10-11.5,13.1-16.5l7.2,3.8
			C62.4,7.8,61.6,8,60.6,8c-3.5,4.5-9.1,10.9-13.8,15.4c3.7,3.1,7.2,6.3,9.8,9.1c7.4-7,14.7-14.7,19.9-21l7.3,3.9
			c-0.3,0.5-1.2,0.8-2.3,0.7c-7.3,8-18,18.4-27.7,26.4c9.3-0.2,19.5-0.4,29.6-0.7c-2.6-3.3-5.4-6.5-8.1-9.3l5.2-3
			c6.6,6.6,14,15.6,17.3,21.6l-5.6,3.4c-1.1-2.1-2.7-4.6-4.7-7.3c-8.5,0.3-17.3,0.7-25.6,1l1,0.4c-0.3,0.6-1.1,0.9-2.2,0.8
			c-1.8,2.7-3.8,5.3-6.1,7.9h26.3l1.2-0.3l4.6,2.2c-0.3,0.5-0.7,0.7-1,0.9c-3.9,8.2-9.9,15-17.1,20.5l-5.5,3.7
			c-9.2,5.8-19.9,9.9-30.6,12.3c-0.7-1.7-2.3-4.3-3.4-5.8C39,88.9,49,85.4,57.6,80.4L63,77c5.7-4,10.5-8.8,13.9-14.3H49.6L49,63.3"
			/>
	</g>
	<g class="st1">
		<path d="M64.2,72.7l-1.1-1c1.5-1.7,3.4-3.7,4.8-5.3c0.3-0.3,0.3-0.7,0.2-1s-0.5-0.5-0.9-0.6c-2.8,0.1-6.5,0-9.8,0
			c-1.8,0-3.4,0-4.7,0v-1.5c1.2,0,2.9,0,4.7,0c3.3,0,6.9,0.1,9.8,0c1,0,1.9,0.5,2.3,1.4c0.4,0.9,0.3,1.9-0.4,2.7
			C67.5,69,65.7,71.1,64.2,72.7z"/>
		<g>
			<path d="M60.6,75.6c0.8-2.1,1.6-5,1.7-7.1l1.8,3.4l3.5,1.4C65.3,73.5,62.6,74.5,60.6,75.6z"/>
		</g>
	</g>
	<g class="st1">
		<path d="M49.3,68c0-0.5,0.3-0.8,0.8-1l0,0c-0.4-0.2-0.6-0.5-0.6-0.9c0-0.6,0.5-1,1.2-1c0.8,0,1.1,0.5,1.1,1c0,0.3-0.2,0.7-0.6,0.9
			v0c0.5,0.2,0.8,0.5,0.8,1c0,0.7-0.6,1.1-1.3,1.1C49.8,69.1,49.3,68.6,49.3,68z M51.4,68c0-0.5-0.3-0.7-0.9-0.9
			c-0.5,0.1-0.7,0.4-0.7,0.8c0,0.4,0.3,0.7,0.8,0.7C51.1,68.7,51.4,68.4,51.4,68z M50,66.1c0,0.4,0.3,0.6,0.7,0.7
			c0.3-0.1,0.6-0.4,0.6-0.7c0-0.3-0.2-0.6-0.7-0.6C50.2,65.4,50,65.7,50,66.1z"/>
	</g>
</g>
<g id="Stroke6" class="st0">
	<g class="st1">
		<path d="M17.4,50.5c-3.8,4.5-7.8,8.6-11.5,12c-0.8-1.3-2.6-4.2-3.7-5.6c8.6-7.3,18.7-19.5,25.1-31.1l7.4,3.1
			c-0.3,0.6-1.1,0.9-2.2,0.8c-2.5,4.1-5.4,8.4-8.5,12.5l1.8,0.6c-0.3,0.6-0.8,1.1-2,1.3v52.3h-6.4V50.5z M31.7,6.5
			c-0.3,0.6-1.1,0.9-2.1,0.8C24.4,14.7,15,24.6,7,31.2c-0.9-1.4-2.7-3.8-3.9-5c7.6-5.9,16.4-15.2,21-22.7L31.7,6.5z M44.8,67.2
			c-4,3.6-8.1,6.7-12.2,9.3c-0.9-1.3-2.9-3.6-4.2-4.7c8.9-5.3,18.7-14,25.2-23.3l-20.7,0.7c-0.2,0.8-0.8,1.3-1.5,1.4L29.2,43
			l15.6-0.3c2.3-1.8,4.6-3.7,7-5.8C47,31.6,39.1,24.6,32.3,19.8l4.2-4.3c1.9,1.3,3.9,2.8,6,4.4c4.5-4.7,10-11.5,13.1-16.5l7.2,3.8
			C62.4,7.8,61.6,8,60.6,8c-3.5,4.5-9.1,10.9-13.8,15.4c3.7,3.1,7.2,6.3,9.8,9.1c7.4-7,14.7-14.7,19.9-21l7.3,3.9
			c-0.3,0.5-1.2,0.8-2.3,0.7c-7.3,8-18,18.4-27.7,26.4c9.3-0.2,19.5-0.4,29.6-0.7c-2.6-3.3-5.4-6.5-8.1-9.3l5.2-3
			c6.6,6.6,14,15.6,17.3,21.6l-5.6,3.4c-1.1-2.1-2.7-4.6-4.7-7.3c-8.5,0.3-17.3,0.7-25.6,1l1,0.4c-0.3,0.6-1.1,0.9-2.2,0.8
			c-1.8,2.7-3.8,5.3-6.1,7.9 M49.6,62.7L49,63.3"/>
	</g>
	<g class="st1">
		<path d="M57.4,60.8l-1.1-1c0.3-0.3,0.7-0.7,1-1.1c1.9-2.2,3.7-4.5,5.1-7.1l1.3,0.7c-1.5,2.6-3.3,5.1-5.3,7.4
			C58.1,60,57.8,60.4,57.4,60.8z"/>
		<g>
			<path d="M53.6,63.3c1-2,2-4.8,2.2-7l1.5,3.5l3.4,1.7C58.5,61.6,55.7,62.4,53.6,63.3z"/>
		</g>
	</g>
	<g class="st1">
		<path d="M66.5,53.5v0.3l-1.7,3.5h-0.5L66,54v0h-1.9v-0.4H66.5z"/>
	</g>
</g>
<g id="Stroke5" class="st0">
	<g class="st1">
		<path d="M17.4,50.5c-3.8,4.5-7.8,8.6-11.5,12c-0.8-1.3-2.6-4.2-3.7-5.6c8.6-7.3,18.7-19.5,25.1-31.1l7.4,3.1
			c-0.3,0.6-1.1,0.9-2.2,0.8c-2.5,4.1-5.4,8.4-8.5,12.5l1.8,0.6c-0.3,0.6-0.8,1.1-2,1.3v52.3h-6.4V50.5z M31.7,6.5
			c-0.3,0.6-1.1,0.9-2.1,0.8C24.4,14.7,15,24.6,7,31.2c-0.9-1.4-2.7-3.8-3.9-5c7.6-5.9,16.4-15.2,21-22.7L31.7,6.5z M53.6,48.5
			l-20.7,0.7c-0.2,0.8-0.8,1.3-1.5,1.4L29.2,43l15.6-0.3c2.3-1.8,4.6-3.7,7-5.8C47,31.6,39.1,24.6,32.3,19.8l4.2-4.3
			c1.9,1.3,3.9,2.8,6,4.4c4.5-4.7,10-11.5,13.1-16.5l7.2,3.8C62.4,7.8,61.6,8,60.6,8c-3.5,4.5-9.1,10.9-13.8,15.4
			c3.7,3.1,7.2,6.3,9.8,9.1c7.4-7,14.7-14.7,19.9-21l7.3,3.9c-0.3,0.5-1.2,0.8-2.3,0.7c-7.3,8-18,18.4-27.7,26.4
			c9.3-0.2,19.5-0.4,29.6-0.7c-2.6-3.3-5.4-6.5-8.1-9.3l5.2-3c6.6,6.6,14,15.6,17.3,21.6l-5.6,3.4c-1.1-2.1-2.7-4.6-4.7-7.3
			c-8.5,0.3-17.3,0.7-25.6,1"/>
	</g>
	<g class="st1">
		<line x1="84.9" y1="28.9" x2="93.3" y2="37.1"/>
		<g>
			<rect x="86.8" y="27.9" transform="matrix(0.6988 -0.7153 0.7153 0.6988 3.8546 72.0708)" width="1.5" height="7.2"/>
			<g>
				<path d="M93.3,37.1c-2.1-0.9-4.9-1.8-7.1-1.9l3.4-1.6l1.6-3.5C91.4,32.3,92.3,35.1,93.3,37.1z"/>
			</g>
		</g>
	</g>
	<g class="st1">
		<path d="M84.3,24.4c-0.1,0-0.2,0-0.4,0c-0.8,0.1-1.3,0.7-1.4,1.4h0c0.2-0.2,0.5-0.4,0.9-0.4c0.7,0,1.2,0.5,1.2,1.3
			c0,0.7-0.5,1.4-1.3,1.4c-0.8,0-1.4-0.6-1.4-1.7c0-0.8,0.3-1.4,0.7-1.8c0.3-0.3,0.8-0.5,1.2-0.6c0.2,0,0.3,0,0.4,0V24.4z
			 M84.1,26.7c0-0.6-0.3-0.9-0.8-0.9c-0.3,0-0.6,0.2-0.8,0.5c0,0.1-0.1,0.1-0.1,0.2c0,0.6,0.3,1.1,0.9,1.1
			C83.8,27.6,84.1,27.2,84.1,26.7z"/>
	</g>
</g>
<g id="Stroke2" class="st0">
	<g class="st1">
		<path d="M17.4,50.5c-3.8,4.5-7.8,8.6-11.5,12c-0.8-1.3-2.6-4.2-3.7-5.6c8.6-7.3,18.7-19.5,25.1-31.1l7.4,3.1
			c-0.3,0.6-1.1,0.9-2.2,0.8c-2.5,4.1-5.4,8.4-8.5,12.5l1.8,0.6c-0.3,0.6-0.8,1.1-2,1.3v52.3h-6.4V50.5z M31.7,6.5
			c-0.3,0.6-1.1,0.9-2.1,0.8C24.4,14.7,15,24.6,7,31.2c-0.9-1.4-2.7-3.8-3.9-5c7.6-5.9,16.4-15.2,21-22.7L31.7,6.5z"/>
	</g>
	<g class="st1">
		<line x1="27.8" y1="42.1" x2="27.8" y2="64.3"/>
		<g>
			<rect x="27.1" y="42.1" width="1.5" height="17.7"/>
			<g>
				<path d="M27.8,64.3c-0.8-2.1-2.1-4.8-3.6-6.4l3.6,1.3l3.6-1.3C30,59.6,28.6,62.2,27.8,64.3z"/>
			</g>
		</g>
	</g>
	<g class="st1">
		<path d="M31.2,45.7c0.1,0.1,0.5,0.2,0.9,0.2c0.7,0,0.9-0.4,0.9-0.8c0-0.5-0.5-0.8-1-0.8h-0.3V44h0.3c0.4,0,0.9-0.2,0.9-0.7
			c0-0.3-0.2-0.6-0.7-0.6c-0.3,0-0.6,0.1-0.8,0.3l-0.1-0.4c0.2-0.1,0.6-0.3,1-0.3c0.8,0,1.1,0.5,1.1,0.9c0,0.4-0.2,0.7-0.7,0.9v0
			c0.5,0.1,0.9,0.5,0.9,1c0,0.6-0.5,1.2-1.4,1.2c-0.4,0-0.8-0.1-1-0.3L31.2,45.7z"/>
	</g>
</g>
<g id="Stroke1" class="st0">
	<g class="st1">
		<path d="M17.4,50.5c-3.8,4.5-7.8,8.6-11.5,12c-0.8-1.3-2.6-4.2-3.7-5.6c8.6-7.3,18.7-19.5,25.1-31.1l7.4,3.1
			c-0.3,0.6-1.1,0.9-2.2,0.8c-2.5,4.1-5.4,8.4-8.5,12.5 M31.7,6.5c-0.3,0.6-1.1,0.9-2.1,0.8C24.4,14.7,15,24.6,7,31.2
			c-0.9-1.4-2.7-3.8-3.9-5c7.6-5.9,16.4-15.2,21-22.7L31.7,6.5z"/>
	</g>
	<g class="st1">
		<path d="M28.6,44.9l-1.2-1c2.9-3.5,5.7-7.3,8.1-11.1l1.3,0.8C34.3,37.5,31.5,41.3,28.6,44.9z"/>
		<g>
			<path d="M25,47.8c0.8-2.1,1.5-5,1.4-7.2l1.9,3.3l3.6,1.3C29.7,45.5,27,46.7,25,47.8z"/>
		</g>
	</g>
	<g class="st1">
		<path d="M37.5,37.5v-0.3l0.4-0.4c1-0.9,1.4-1.5,1.5-2c0-0.4-0.2-0.8-0.8-0.8c-0.4,0-0.6,0.2-0.8,0.3L37.6,34
			c0.3-0.2,0.7-0.4,1.1-0.4c0.8,0,1.2,0.6,1.2,1.1c0,0.7-0.5,1.3-1.3,2.1l-0.3,0.3v0H40v0.4H37.5z"/>
	</g>
</g>
<g id="Stroke0" class="st0">
	<g class="st1">
		<path d="M31.7,6.5c-0.3,0.6-1.1,0.9-2.1,0.8C24.4,14.7,15,24.6,7,31.2c-0.9-1.4-2.7-3.8-3.9-5c7.6-5.9,16.4-15.2,21-22.7L31.7,6.5
			z"/>
	</g>
	<g class="st1">
		<path d="M24.6,21.1l-1.1-1c2.9-3.3,5.5-7,7.7-11l1.3,0.7C30.2,14,27.6,17.8,24.6,21.1z"/>
		<g>
			<path d="M20.9,23.9c0.9-2.1,1.7-4.9,1.8-7.1l1.7,3.4l3.5,1.5C25.7,21.9,22.9,22.9,20.9,23.9z"/>
		</g>
	</g>
	<g class="st1">
		<path d="M34.4,10.9L34.4,10.9l-0.7,0.4l-0.1-0.4l0.9-0.5H35v3.9h-0.5V10.9z"/>
	</g>
</g>
<g id="Kanji" class="st0">
	<g class="st1">
		<path d="M17.4,50.5c-3.8,4.5-7.8,8.6-11.5,12c-0.8-1.3-2.6-4.2-3.7-5.6c8.6-7.3,18.7-19.5,25.1-31.1l7.4,3.1
			c-0.3,0.6-1.1,0.9-2.2,0.8c-2.5,4.1-5.4,8.4-8.5,12.5l1.8,0.6c-0.3,0.6-0.8,1.1-2,1.3v52.3h-6.4V50.5z M31.7,6.5
			c-0.3,0.6-1.1,0.9-2.1,0.8C24.4,14.7,15,24.6,7,31.2c-0.9-1.4-2.7-3.8-3.9-5c7.6-5.9,16.4-15.2,21-22.7L31.7,6.5z M82.1,57
			l4.6,2.2c-0.3,0.5-0.7,0.7-1,0.9c-3.9,8.2-9.9,15-17.1,20.5c8.4,4.8,18.3,8.3,28.8,10.2c-1.5,1.4-3.2,4-4.1,5.8
			c-11-2.4-21.4-6.6-30.2-12.3c-9.2,5.8-19.9,9.9-30.6,12.3c-0.7-1.7-2.3-4.3-3.4-5.8C39,88.9,49,85.4,57.6,80.4
			c-4.9-3.8-9.3-8.3-12.8-13.2c-4,3.6-8.1,6.7-12.2,9.3c-0.9-1.3-2.9-3.6-4.2-4.7c8.9-5.3,18.7-14,25.2-23.3l-20.7,0.7
			c-0.2,0.8-0.8,1.3-1.5,1.4L29.2,43l15.6-0.3c2.3-1.8,4.6-3.7,7-5.8C47,31.6,39.1,24.6,32.3,19.8l4.2-4.3c1.9,1.3,3.9,2.8,6,4.4
			c4.5-4.7,10-11.5,13.1-16.5l7.2,3.8C62.4,7.8,61.6,8,60.6,8c-3.5,4.5-9.1,10.9-13.8,15.4c3.7,3.1,7.2,6.3,9.8,9.1
			c7.4-7,14.7-14.7,19.9-21l7.3,3.9c-0.3,0.5-1.2,0.8-2.3,0.7c-7.3,8-18,18.4-27.7,26.4c9.3-0.2,19.5-0.4,29.6-0.7
			c-2.6-3.3-5.4-6.5-8.1-9.3l5.2-3c6.6,6.6,14,15.6,17.3,21.6l-5.6,3.4c-1.1-2.1-2.7-4.6-4.7-7.3c-8.5,0.3-17.3,0.7-25.6,1l1,0.4
			c-0.3,0.6-1.1,0.9-2.2,0.8c-1.8,2.7-3.8,5.3-6.1,7.9h26.3L82.1,57z M49.6,62.7L49,63.3c3.5,5.1,8.3,9.7,14,13.7
			c5.7-4,10.5-8.8,13.9-14.3H49.6z"/>
	</g>
</g>
</svg>
