<?xml version="1.0" encoding="utf-8"?>
<!-- Generator: Adobe Illustrator 26.2.1, SVG Export Plug-In . SVG Version: 6.00 Build 0)  -->
<svg version="1.1" xmlns="http://www.w3.org/2000/svg" xmlns:xlink="http://www.w3.org/1999/xlink" x="0px" y="0px"
	 viewBox="0 0 100 100" style="enable-background:new 0 0 100 100;" xml:space="preserve" width = "100px" height = "100px">
<style type="text/css">
	.st0{display:none;}
	.st1{display:inline;}
</style>


		<path d="M17.4,50.5c-3.8,4.5-7.8,8.6-11.5,12c-0.8-1.3-2.6-4.2-3.7-5.6c8.6-7.3,18.7-19.5,25.1-31.1l7.4,3.1
			c-0.3,0.6-1.1,0.9-2.2,0.8c-2.5,4.1-5.4,8.4-8.5,12.5 M31.7,6.5c-0.3,0.6-1.1,0.9-2.1,0.8C24.4,14.7,15,24.6,7,31.2
			c-0.9-1.4-2.7-3.8-3.9-5c7.6-5.9,16.4-15.2,21-22.7L31.7,6.5z"/>


		<path d="M28.6,44.9l-1.2-1c2.9-3.5,5.7-7.3,8.1-11.1l1.3,0.8C34.3,37.5,31.5,41.3,28.6,44.9z"/>

			<path d="M25,47.8c0.8-2.1,1.5-5,1.4-7.2l1.9,3.3l3.6,1.3C29.7,45.5,27,46.7,25,47.8z"/>

		<path d="M37.5,37.5v-0.3l0.4-0.4c1-0.9,1.4-1.5,1.5-2c0-0.4-0.2-0.8-0.8-0.8c-0.4,0-0.6,0.2-0.8,0.3L37.6,34
			c0.3-0.2,0.7-0.4,1.1-0.4c0.8,0,1.2,0.6,1.2,1.1c0,0.7-0.5,1.3-1.3,2.1l-0.3,0.3v0H40v0.4H37.5z"/>

 </svg>