<?xml version="1.0" encoding="utf-8"?>
<!-- Generator: Adobe Illustrator 26.2.1, SVG Export Plug-In . SVG Version: 6.00 Build 0)  -->
<svg version="1.1" xmlns="http://www.w3.org/2000/svg" xmlns:xlink="http://www.w3.org/1999/xlink" x="0px" y="0px"
	 viewBox="0 0 100 100" style="enable-background:new 0 0 100 100;" xml:space="preserve" width = "100px" height = "100px">
<style type="text/css">
	.st0{display:none;}
	.st1{display:inline;}
</style>

		<path d="M17.4,50.5c-3.8,4.5-7.8,8.6-11.5,12c-0.8-1.3-2.6-4.2-3.7-5.6c8.6-7.3,18.7-19.5,25.1-31.1l7.4,3.1
			c-0.3,0.6-1.1,0.9-2.2,0.8c-2.5,4.1-5.4,8.4-8.5,12.5l1.8,0.6c-0.3,0.6-0.8,1.1-2,1.3v52.3h-6.4V50.5z M31.7,6.5
			c-0.3,0.6-1.1,0.9-2.1,0.8C24.4,14.7,15,24.6,7,31.2c-0.9-1.4-2.7-3.8-3.9-5c7.6-5.9,16.4-15.2,21-22.7L31.7,6.5z M44.8,67.2
			c-4,3.6-8.1,6.7-12.2,9.3c-0.9-1.3-2.9-3.6-4.2-4.7c8.9-5.3,18.7-14,25.2-23.3l-20.7,0.7c-0.2,0.8-0.8,1.3-1.5,1.4L29.2,43
			l15.6-0.3c2.3-1.8,4.6-3.7,7-5.8C47,31.6,39.1,24.6,32.3,19.8l4.2-4.3c1.9,1.3,3.9,2.8,6,4.4c4.5-4.7,10-11.5,13.1-16.5l7.2,3.8
			C62.4,7.8,61.6,8,60.6,8c-3.5,4.5-9.1,10.9-13.8,15.4c3.7,3.1,7.2,6.3,9.8,9.1c7.4-7,14.7-14.7,19.9-21l7.3,3.9
			c-0.3,0.5-1.2,0.8-2.3,0.7c-7.3,8-18,18.4-27.7,26.4c9.3-0.2,19.5-0.4,29.6-0.7c-2.6-3.3-5.4-6.5-8.1-9.3l5.2-3
			c6.6,6.6,14,15.6,17.3,21.6l-5.6,3.4c-1.1-2.1-2.7-4.6-4.7-7.3c-8.5,0.3-17.3,0.7-25.6,1l1,0.4c-0.3,0.6-1.1,0.9-2.2,0.8
			c-1.8,2.7-3.8,5.3-6.1,7.9h26.3l1.2-0.3l4.6,2.2c-0.3,0.5-0.7,0.7-1,0.9c-3.9,8.2-9.9,15-17.1,20.5l-5.5,3.7
			c-9.2,5.8-19.9,9.9-30.6,12.3c-0.7-1.7-2.3-4.3-3.4-5.8C39,88.9,49,85.4,57.6,80.4L63,77c5.7-4,10.5-8.8,13.9-14.3H49.6L49,63.3"
			/>

		<path d="M64.2,72.7l-1.1-1c1.5-1.7,3.4-3.7,4.8-5.3c0.3-0.3,0.3-0.7,0.2-1s-0.5-0.5-0.9-0.6c-2.8,0.1-6.5,0-9.8,0
			c-1.8,0-3.4,0-4.7,0v-1.5c1.2,0,2.9,0,4.7,0c3.3,0,6.9,0.1,9.8,0c1,0,1.9,0.5,2.3,1.4c0.4,0.9,0.3,1.9-0.4,2.7
			C67.5,69,65.7,71.1,64.2,72.7z"/>
	
			<path d="M60.6,75.6c0.8-2.1,1.6-5,1.7-7.1l1.8,3.4l3.5,1.4C65.3,73.5,62.6,74.5,60.6,75.6z"/>
	

		<path d="M49.3,68c0-0.5,0.3-0.8,0.8-1l0,0c-0.4-0.2-0.6-0.5-0.6-0.9c0-0.6,0.5-1,1.2-1c0.8,0,1.1,0.5,1.1,1c0,0.3-0.2,0.7-0.6,0.9
			v0c0.5,0.2,0.8,0.5,0.8,1c0,0.7-0.6,1.1-1.3,1.1C49.8,69.1,49.3,68.6,49.3,68z M51.4,68c0-0.5-0.3-0.7-0.9-0.9
			c-0.5,0.1-0.7,0.4-0.7,0.8c0,0.4,0.3,0.7,0.8,0.7C51.1,68.7,51.4,68.4,51.4,68z M50,66.1c0,0.4,0.3,0.6,0.7,0.7
			c0.3-0.1,0.6-0.4,0.6-0.7c0-0.3-0.2-0.6-0.7-0.6C50.2,65.4,50,65.7,50,66.1z"/>


 </svg>