<?xml version="1.0" encoding="utf-8"?>
<!-- Generator: Adobe Illustrator 26.2.1, SVG Export Plug-In . SVG Version: 6.00 Build 0)  -->
<svg version="1.1" xmlns="http://www.w3.org/2000/svg" xmlns:xlink="http://www.w3.org/1999/xlink" x="0px" y="0px"
	 viewBox="0 0 100 100" style="enable-background:new 0 0 100 100;" xml:space="preserve" width = "100px" height = "100px">
<style type="text/css">
	.st0{display:none;}
	.st1{display:inline;}
</style>
		<path d="M17.4,50.5c-3.8,4.5-7.8,8.6-11.5,12c-0.8-1.3-2.6-4.2-3.7-5.6c8.6-7.3,18.7-19.5,25.1-31.1l7.4,3.1
			c-0.3,0.6-1.1,0.9-2.2,0.8c-2.5,4.1-5.4,8.4-8.5,12.5l1.8,0.6c-0.3,0.6-0.8,1.1-2,1.3v52.3h-6.4V50.5z M31.7,6.5
			c-0.3,0.6-1.1,0.9-2.1,0.8C24.4,14.7,15,24.6,7,31.2c-0.9-1.4-2.7-3.8-3.9-5c7.6-5.9,16.4-15.2,21-22.7L31.7,6.5z"/>


		<line x1="27.8" y1="42.1" x2="27.8" y2="64.3"/>
	
			<rect x="27.1" y="42.1" width="1.5" height="17.7"/>

				<path d="M27.8,64.3c-0.8-2.1-2.1-4.8-3.6-6.4l3.6,1.3l3.6-1.3C30,59.6,28.6,62.2,27.8,64.3z"/>

		<path d="M31.2,45.7c0.1,0.1,0.5,0.2,0.9,0.2c0.7,0,0.9-0.4,0.9-0.8c0-0.5-0.5-0.8-1-0.8h-0.3V44h0.3c0.4,0,0.9-0.2,0.9-0.7
			c0-0.3-0.2-0.6-0.7-0.6c-0.3,0-0.6,0.1-0.8,0.3l-0.1-0.4c0.2-0.1,0.6-0.3,1-0.3c0.8,0,1.1,0.5,1.1,0.9c0,0.4-0.2,0.7-0.7,0.9v0
			c0.5,0.1,0.9,0.5,0.9,1c0,0.6-0.5,1.2-1.4,1.2c-0.4,0-0.8-0.1-1-0.3L31.2,45.7z"/>
 </svg>