<?xml version="1.0" encoding="utf-8"?>
<!-- Generator: Adobe Illustrator 26.2.1, SVG Export Plug-In . SVG Version: 6.00 Build 0)  -->
<svg version="1.1" xmlns="http://www.w3.org/2000/svg" xmlns:xlink="http://www.w3.org/1999/xlink" x="0px" y="0px"
	 viewBox="0 0 100 100" style="enable-background:new 0 0 100 100;" xml:space="preserve" width = "100px" height = "100px">
<style type="text/css">
	.st0{display:none;}
	.st1{display:inline;}
</style>

		<path d="M17.4,50.5c-3.8,4.5-7.8,8.6-11.5,12c-0.8-1.3-2.6-4.2-3.7-5.6c8.6-7.3,18.7-19.5,25.1-31.1l7.4,3.1
			c-0.3,0.6-1.1,0.9-2.2,0.8c-2.5,4.1-5.4,8.4-8.5,12.5l1.8,0.6c-0.3,0.6-0.8,1.1-2,1.3v52.3h-6.4V50.5z M31.7,6.5
			c-0.3,0.6-1.1,0.9-2.1,0.8C24.4,14.7,15,24.6,7,31.2c-0.9-1.4-2.7-3.8-3.9-5c7.6-5.9,16.4-15.2,21-22.7L31.7,6.5z M50.4,35.9
			c-4.8-5.3-12.7-12.3-19.5-17.1l4.2-4.3c1.9,1.3,3.9,2.8,6,4.4c4.5-4.7,10-11.5,13.1-16.5l7.2,3.8C61,6.8,60.2,7,59.2,7
			c-3.5,4.5-9.1,10.9-13.8,15.4c3.7,3.1,7.2,6.3,9.8,9.1"/>

		<path d="M51.1,23.4l-0.5-0.5c-0.9-1.1-0.9-2.7,0.1-3.8c3.4-3.7,9.1-9.9,9.3-10.1l1.1,1.1l-0.5-0.5l0.5,0.5
			c-0.2,0.2-3.7,4-9.3,10.1c-0.5,0.5-0.5,1.3,0,1.8l0.5,0.5L51.1,23.4z"/>

			<path d="M54.6,26.3c-2-1.1-4.7-2.2-6.9-2.6l3.6-1.3l1.9-3.3C53.1,21.3,53.8,24.2,54.6,26.3z"/>

		<path d="M62.5,15.7v-1.1h-1.8v-0.3l1.7-2.5H63v2.4h0.5v0.4H63v1.1H62.5z M62.5,14.2v-1.3c0-0.2,0-0.4,0-0.6h0
			c-0.1,0.2-0.2,0.4-0.3,0.6l-1,1.3v0H62.5z"/>
</svg>