<?xml version="1.0" encoding="utf-8"?>
<!-- Generator: Adobe Illustrator 26.2.1, SVG Export Plug-In . SVG Version: 6.00 Build 0)  -->
<svg version="1.1" xmlns="http://www.w3.org/2000/svg" xmlns:xlink="http://www.w3.org/1999/xlink" x="0px" y="0px"
	 viewBox="0 0 100 100" style="enable-background:new 0 0 100 100;" xml:space="preserve" width = "100px" height = "100px">
<style type="text/css">
	.st0{display:none;}
	.st1{display:inline;}
</style>
		<path d="M31.7,6.5c-0.3,0.6-1.1,0.9-2.1,0.8C24.4,14.7,15,24.6,7,31.2c-0.9-1.4-2.7-3.8-3.9-5c7.6-5.9,16.4-15.2,21-22.7L31.7,6.5
			z"/>
		<path d="M24.6,21.1l-1.1-1c2.9-3.3,5.5-7,7.7-11l1.3,0.7C30.2,14,27.6,17.8,24.6,21.1z"/>

			<path d="M20.9,23.9c0.9-2.1,1.7-4.9,1.8-7.1l1.7,3.4l3.5,1.5C25.7,21.9,22.9,22.9,20.9,23.9z"/>

		<path d="M34.4,10.9L34.4,10.9l-0.7,0.4l-0.1-0.4l0.9-0.5H35v3.9h-0.5V10.9z"/>
 </svg>