<?xml version="1.0" encoding="utf-8"?>
<!-- Generator: Adobe Illustrator 26.2.1, SVG Export Plug-In . SVG Version: 6.00 Build 0)  -->
<svg version="1.1" xmlns="http://www.w3.org/2000/svg" xmlns:xlink="http://www.w3.org/1999/xlink" x="0px" y="0px"
	 viewBox="0 0 100 100" style="enable-background:new 0 0 100 100;" xml:space="preserve" width = "100px" height = "100px">
<style type="text/css">
	.st0{display:none;}
	.st1{display:inline;}
</style> 

		<path d="M17.4,50.5c-3.8,4.5-7.8,8.6-11.5,12c-0.8-1.3-2.6-4.2-3.7-5.6c8.6-7.3,18.7-19.5,25.1-31.1l7.4,3.1
			c-0.3,0.6-1.1,0.9-2.2,0.8c-2.5,4.1-5.4,8.4-8.5,12.5l1.8,0.6c-0.3,0.6-0.8,1.1-2,1.3v52.3h-6.4V50.5z M31.7,6.5
			c-0.3,0.6-1.1,0.9-2.1,0.8C24.4,14.7,15,24.6,7,31.2c-0.9-1.4-2.7-3.8-3.9-5c7.6-5.9,16.4-15.2,21-22.7L31.7,6.5z M87.5,47.2
			c-8.5,0.3-17.3,0.7-25.6,1l-8.3,0.3l-20.7,0.7c-0.2,0.8-0.8,1.3-1.5,1.4L29.2,43l15.6-0.3c2.3-1.8,4.6-3.7,7-5.8
			C47,31.6,39.1,24.6,32.3,19.8l4.2-4.3c1.9,1.3,3.9,2.8,6,4.4c4.5-4.7,10-11.5,13.1-16.5l7.2,3.8C62.4,7.8,61.6,8,60.6,8
			c-3.5,4.5-9.1,10.9-13.8,15.4c3.7,3.1,7.2,6.3,9.8,9.1c7.4-7,14.7-14.7,19.9-21l7.3,3.9c-0.3,0.5-1.2,0.8-2.3,0.7
			c-7.3,8-18,18.4-27.7,26.4c9.3-0.2,19.5-0.4,29.6-0.7"/>

			<path class="st2" d="M78.2,22c-0.1,0.2-8.3,8.4-13.3,13.3c-1.3,1.3-0.4,3.5,1.5,3.5h4.8"/>

				<path d="M75.7,38.8c-2.1,0.8-4.8,2.1-6.4,3.6l1.3-3.6l-1.3-3.6C70.9,36.7,73.5,38,75.7,38.8z"/>

		<path d="M82.3,21.3h-1.5l-0.2,1c0.1,0,0.2,0,0.3,0c0.3,0,0.6,0.1,0.8,0.2c0.3,0.2,0.6,0.5,0.6,1c0,0.8-0.6,1.3-1.5,1.3
			c-0.4,0-0.8-0.1-1-0.2l0.1-0.4c0.2,0.1,0.5,0.2,0.8,0.2c0.5,0,0.9-0.3,0.9-0.8c0-0.5-0.3-0.9-1.1-0.9c-0.2,0-0.4,0-0.5,0l0.3-1.9
			h1.9V21.3z"/>

</svg>