<?xml version="1.0" encoding="utf-8"?>
<!-- Generator: Adobe Illustrator 26.2.1, SVG Export Plug-In . SVG Version: 6.00 Build 0)  -->
<svg version="1.1" xmlns="http://www.w3.org/2000/svg" xmlns:xlink="http://www.w3.org/1999/xlink" x="0px" y="0px"
	 viewBox="0 0 100 100" style="enable-background:new 0 0 100 100;" xml:space="preserve" width = "100px" height = "100px">
<style type="text/css">
	.st0{display:none;}
	.st1{display:inline;}
</style>

		<path d="M17.4,50.5c-3.8,4.5-7.8,8.6-11.5,12c-0.8-1.3-2.6-4.2-3.7-5.6c8.6-7.3,18.7-19.5,25.1-31.1l7.4,3.1
			c-0.3,0.6-1.1,0.9-2.2,0.8c-2.5,4.1-5.4,8.4-8.5,12.5l1.8,0.6c-0.3,0.6-0.8,1.1-2,1.3v52.3h-6.4V50.5z M31.7,6.5
			c-0.3,0.6-1.1,0.9-2.1,0.8C24.4,14.7,15,24.6,7,31.2c-0.9-1.4-2.7-3.8-3.9-5c7.6-5.9,16.4-15.2,21-22.7L31.7,6.5z M53.6,48.5
			l-20.7,0.7c-0.2,0.8-0.8,1.3-1.5,1.4L29.2,43l15.6-0.3c2.3-1.8,4.6-3.7,7-5.8C47,31.6,39.1,24.6,32.3,19.8l4.2-4.3
			c1.9,1.3,3.9,2.8,6,4.4c4.5-4.7,10-11.5,13.1-16.5l7.2,3.8C62.4,7.8,61.6,8,60.6,8c-3.5,4.5-9.1,10.9-13.8,15.4
			c3.7,3.1,7.2,6.3,9.8,9.1c7.4-7,14.7-14.7,19.9-21l7.3,3.9c-0.3,0.5-1.2,0.8-2.3,0.7c-7.3,8-18,18.4-27.7,26.4
			c9.3-0.2,19.5-0.4,29.6-0.7c-2.6-3.3-5.4-6.5-8.1-9.3l5.2-3c6.6,6.6,14,15.6,17.3,21.6l-5.6,3.4c-1.1-2.1-2.7-4.6-4.7-7.3
			c-8.5,0.3-17.3,0.7-25.6,1"/>

		<line x1="84.9" y1="28.9" x2="93.3" y2="37.1"/>

			<rect x="86.8" y="27.9" transform="matrix(0.6988 -0.7153 0.7153 0.6988 3.8546 72.0708)" width="1.5" height="7.2"/>
		
				<path d="M93.3,37.1c-2.1-0.9-4.9-1.8-7.1-1.9l3.4-1.6l1.6-3.5C91.4,32.3,92.3,35.1,93.3,37.1z"/>


		<path d="M84.3,24.4c-0.1,0-0.2,0-0.4,0c-0.8,0.1-1.3,0.7-1.4,1.4h0c0.2-0.2,0.5-0.4,0.9-0.4c0.7,0,1.2,0.5,1.2,1.3
			c0,0.7-0.5,1.4-1.3,1.4c-0.8,0-1.4-0.6-1.4-1.7c0-0.8,0.3-1.4,0.7-1.8c0.3-0.3,0.8-0.5,1.2-0.6c0.2,0,0.3,0,0.4,0V24.4z
			 M84.1,26.7c0-0.6-0.3-0.9-0.8-0.9c-0.3,0-0.6,0.2-0.8,0.5c0,0.1-0.1,0.1-0.1,0.2c0,0.6,0.3,1.1,0.9,1.1
			C83.8,27.6,84.1,27.2,84.1,26.7z"/>


 </svg>