<?xml version="1.0" encoding="utf-8"?>
<!-- Generator: Adobe Illustrator 26.2.1, SVG Export Plug-In . SVG Version: 6.00 Build 0)  -->
<svg version="1.1" xmlns="http://www.w3.org/2000/svg" xmlns:xlink="http://www.w3.org/1999/xlink" x="0px" y="0px"
	 viewBox="0 0 100 100" style="enable-background:new 0 0 100 100;" xml:space="preserve" width = "100px" height = "100px">
<style type="text/css">
	.st0{display:none;}
	.st1{display:inline;}
</style>
		<path d="M17.4,50.5c-3.8,4.5-7.8,8.6-11.5,12c-0.8-1.3-2.6-4.2-3.7-5.6c8.6-7.3,18.7-19.5,25.1-31.1l7.4,3.1
			c-0.3,0.6-1.1,0.9-2.2,0.8c-2.5,4.1-5.4,8.4-8.5,12.5l1.8,0.6c-0.3,0.6-0.8,1.1-2,1.3v52.3h-6.4V50.5z M31.7,6.5
			c-0.3,0.6-1.1,0.9-2.1,0.8C24.4,14.7,15,24.6,7,31.2c-0.9-1.4-2.7-3.8-3.9-5c7.6-5.9,16.4-15.2,21-22.7L31.7,6.5z M44.8,67.2
			c-4,3.6-8.1,6.7-12.2,9.3c-0.9-1.3-2.9-3.6-4.2-4.7c8.9-5.3,18.7-14,25.2-23.3l-20.7,0.7c-0.2,0.8-0.8,1.3-1.5,1.4L29.2,43
			l15.6-0.3c2.3-1.8,4.6-3.7,7-5.8C47,31.6,39.1,24.6,32.3,19.8l4.2-4.3c1.9,1.3,3.9,2.8,6,4.4c4.5-4.7,10-11.5,13.1-16.5l7.2,3.8
			C62.4,7.8,61.6,8,60.6,8c-3.5,4.5-9.1,10.9-13.8,15.4c3.7,3.1,7.2,6.3,9.8,9.1c7.4-7,14.7-14.7,19.9-21l7.3,3.9
			c-0.3,0.5-1.2,0.8-2.3,0.7c-7.3,8-18,18.4-27.7,26.4c9.3-0.2,19.5-0.4,29.6-0.7c-2.6-3.3-5.4-6.5-8.1-9.3l5.2-3
			c6.6,6.6,14,15.6,17.3,21.6l-5.6,3.4c-1.1-2.1-2.7-4.6-4.7-7.3c-8.5,0.3-17.3,0.7-25.6,1l1,0.4c-0.3,0.6-1.1,0.9-2.2,0.8
			c-1.8,2.7-3.8,5.3-6.1,7.9 M49.6,62.7L49,63.3"/>
		<path d="M57.4,60.8l-1.1-1c0.3-0.3,0.7-0.7,1-1.1c1.9-2.2,3.7-4.5,5.1-7.1l1.3,0.7c-1.5,2.6-3.3,5.1-5.3,7.4
			C58.1,60,57.8,60.4,57.4,60.8z"/>
			<path d="M53.6,63.3c1-2,2-4.8,2.2-7l1.5,3.5l3.4,1.7C58.5,61.6,55.7,62.4,53.6,63.3z"/>
		<path d="M66.5,53.5v0.3l-1.7,3.5h-0.5L66,54v0h-1.9v-0.4H66.5z"/>
 </svg>