<?xml version="1.0" encoding="utf-8"?>
<!-- Generator: Adobe Illustrator 26.2.1, SVG Export Plug-In . SVG Version: 6.00 Build 0)  -->
<svg version="1.1" xmlns="http://www.w3.org/2000/svg" xmlns:xlink="http://www.w3.org/1999/xlink" x="0px" y="0px"
	 viewBox="0 0 100 100" style="enable-background:new 0 0 100 100;" xml:space="preserve">
<style type="text/css">
	.st0{display:none;}
	.st1{display:inline;}
</style>
<g id="Stroke7">
	<g>
		<path d="M95.3,13.4H52.4v14.1h38v57.3c0,4.2-1,6.2-4.1,7.3c-3.1,1-8.9,1.1-17.1,1.1c-0.4-1.9-1.4-4.5-2.4-6.3
			c3.4,0.1,6.6,0.2,9.2,0.2c7.5,0,7.8,0,7.8-2.4V33.9H52.4v59h-6.6v-59H16v59.2H9.5V27.5h36.3V13.4H4.7V6.7h90.6V13.4z M38.3,76.7
			c-4.1-3.7-12.2-9.2-18.6-12.9l3.9-3.8c6.4,3.4,14.6,8.7,18.7,12.3L38.3,76.7z M38.6,56c-4-3.4-11.7-8.5-17.9-11.9l3.8-3.8
			c6.2,3.2,14.1,8.1,18,11.4L38.6,56z M59.5,59.8C66.2,63.2,74.7,68.4,79,72l-4,4.5c-4.2-3.7-12.5-9.2-19.3-12.8L59.5,59.8z
			 M60.7,40.2c6.4,3.1,14.6,7.9,18.8,11.2L75.6,56c-4.1-3.5-12.2-8.4-18.7-11.8L60.7,40.2z"/>
	</g>
	<g>
		<line x1="55.5" y1="67.1" x2="65" y2="73.7"/>
		<g>
			<rect x="57.6" y="65.6" transform="matrix(0.568 -0.823 0.823 0.568 -31.6671 77.9288)" width="1.5" height="7"/>
			<g>
				<path d="M65,73.7c-2.2-0.6-5.1-0.9-7.3-0.7l3.1-2.2l1-3.7C62.3,69.2,63.7,71.8,65,73.7z"/>
			</g>
		</g>
	</g>
	<g>
		<path d="M53.7,73.2c0-0.5,0.3-0.8,0.8-1l0,0c-0.4-0.2-0.6-0.5-0.6-0.9c0-0.6,0.5-1,1.2-1c0.8,0,1.1,0.5,1.1,1
			c0,0.3-0.2,0.7-0.6,0.9v0c0.5,0.2,0.8,0.5,0.8,1c0,0.7-0.6,1.1-1.3,1.1C54.2,74.3,53.7,73.8,53.7,73.2z M55.8,73.2
			c0-0.5-0.3-0.7-0.9-0.9c-0.5,0.1-0.7,0.4-0.7,0.8c0,0.4,0.3,0.7,0.8,0.7C55.5,73.9,55.8,73.6,55.8,73.2z M54.4,71.2
			c0,0.4,0.3,0.6,0.7,0.7c0.3-0.1,0.6-0.4,0.6-0.7c0-0.3-0.2-0.6-0.7-0.6C54.6,70.6,54.4,70.9,54.4,71.2z"/>
	</g>
</g>
<g id="Stroke6" class="st0">
	<g class="st1">
		<path d="M95.3,13.4H52.4v14.1h38v57.3c0,4.2-1,6.2-4.1,7.3c-3.1,1-8.9,1.1-17.1,1.1c-0.4-1.9-1.4-4.5-2.4-6.3
			c3.4,0.1,6.6,0.2,9.2,0.2c7.5,0,7.8,0,7.8-2.4V33.9H52.4v59h-6.6v-59H16v59.2H9.5V27.5h36.3V13.4H4.7V6.7h90.6V13.4z M38.3,76.7
			c-4.1-3.7-12.2-9.2-18.6-12.9l3.9-3.8c6.4,3.4,14.6,8.7,18.7,12.3L38.3,76.7z M38.6,56c-4-3.4-11.7-8.5-17.9-11.9l3.8-3.8
			c6.2,3.2,14.1,8.1,18,11.4L38.6,56z M60.7,40.2c6.4,3.1,14.6,7.9,18.8,11.2L75.6,56c-4.1-3.5-12.2-8.4-18.7-11.8L60.7,40.2z"/>
	</g>
	<g class="st1">
		<line x1="56.2" y1="48.2" x2="67.5" y2="54.9"/>
		<g>
			<rect x="59.1" y="46.1" transform="matrix(0.5122 -0.8589 0.8589 0.5122 -14.0919 76.0084)" width="1.5" height="8.6"/>
			<g>
				<path d="M67.5,54.9c-2.2-0.4-5.2-0.6-7.3-0.2l2.9-2.4l0.7-3.7C64.5,50.7,66,53.2,67.5,54.9z"/>
			</g>
		</g>
	</g>
	<g class="st1">
		<path d="M57.5,52.1v0.3L55.8,56h-0.5l1.7-3.4v0H55v-0.4H57.5z"/>
	</g>
</g>
<g id="Stroke5" class="st0">
	<g class="st1">
		<path d="M95.3,13.4H52.4v14.1h38v57.3c0,4.2-1,6.2-4.1,7.3c-3.1,1-8.9,1.1-17.1,1.1c-0.4-1.9-1.4-4.5-2.4-6.3
			c3.4,0.1,6.6,0.2,9.2,0.2c7.5,0,7.8,0,7.8-2.4V33.9H52.4v59h-6.6v-59H16v59.2H9.5V27.5h36.3V13.4H4.7V6.7h90.6V13.4z M38.3,76.7
			c-4.1-3.7-12.2-9.2-18.6-12.9l3.9-3.8c6.4,3.4,14.6,8.7,18.7,12.3L38.3,76.7z M38.6,56c-4-3.4-11.7-8.5-17.9-11.9l3.8-3.8
			c6.2,3.2,14.1,8.1,18,11.4L38.6,56z"/>
	</g>
	<g class="st1">
		<line x1="20.3" y1="67.7" x2="28.9" y2="75.5"/>
		<g>
			<rect x="22.2" y="66.6" transform="matrix(0.6748 -0.738 0.738 0.6748 -44.2612 39.7051)" width="1.5" height="7"/>
			<g>
				<path d="M28.9,75.5c-2.1-0.9-5-1.6-7.1-1.7l3.4-1.8l1.5-3.5C26.8,70.7,27.8,73.5,28.9,75.5z"/>
			</g>
		</g>
	</g>
	<g class="st1">
		<path d="M18.9,69.3c-0.1,0-0.2,0-0.4,0c-0.8,0.1-1.3,0.7-1.4,1.4h0c0.2-0.2,0.5-0.4,0.9-0.4c0.7,0,1.2,0.5,1.2,1.3
			c0,0.7-0.5,1.4-1.3,1.4c-0.8,0-1.4-0.6-1.4-1.7c0-0.8,0.3-1.4,0.7-1.8c0.3-0.3,0.8-0.5,1.2-0.6c0.2,0,0.3,0,0.4,0V69.3z
			 M18.8,71.5c0-0.6-0.3-0.9-0.8-0.9c-0.3,0-0.6,0.2-0.8,0.5c0,0.1-0.1,0.1-0.1,0.2c0,0.6,0.3,1.1,0.9,1.1
			C18.5,72.4,18.8,72.1,18.8,71.5z"/>
	</g>
</g>
<g id="Stroke4" class="st0">
	<g class="st1">
		<path d="M95.3,13.4H52.4v14.1h38v57.3c0,4.2-1,6.2-4.1,7.3c-3.1,1-8.9,1.1-17.1,1.1c-0.4-1.9-1.4-4.5-2.4-6.3
			c3.4,0.1,6.6,0.2,9.2,0.2c7.5,0,7.8,0,7.8-2.4V33.9H52.4v59h-6.6v-59H16v59.2H9.5V27.5h36.3V13.4H4.7V6.7h90.6V13.4z M38.6,56
			c-4-3.4-11.7-8.5-17.9-11.9l3.8-3.8c6.2,3.2,14.1,8.1,18,11.4L38.6,56z"/>
	</g>
	<g class="st1">
		<line x1="20.3" y1="47.5" x2="29.8" y2="55.5"/>
		<g>
			<rect x="22.6" y="46.1" transform="matrix(0.6456 -0.7637 0.7637 0.6456 -29.9266 35.5161)" width="1.5" height="7.8"/>
			<g>
				<path d="M29.8,55.5c-2.1-0.8-5-1.4-7.2-1.4l3.3-1.9l1.3-3.6C27.5,50.7,28.6,53.5,29.8,55.5z"/>
			</g>
		</g>
	</g>
	<g class="st1">
		<path d="M20,51.2h-1.5l-0.1,1c0.1,0,0.2,0,0.3,0c0.3,0,0.6,0.1,0.8,0.2c0.3,0.2,0.6,0.5,0.6,1c0,0.8-0.6,1.3-1.5,1.3
			c-0.4,0-0.8-0.1-1-0.2l0.1-0.4c0.2,0.1,0.5,0.2,0.8,0.2c0.5,0,0.9-0.3,0.9-0.8c0-0.5-0.3-0.9-1.1-0.9c-0.2,0-0.4,0-0.5,0l0.3-1.9
			H20V51.2z"/>
	</g>
</g>
<g id="Stroke3" class="st0">
	<g class="st1">
		<path d="M95.3,13.4H52.4v14.1h38v57.3c0,4.2-1,6.2-4.1,7.3c-3.1,1-8.9,1.1-17.1,1.1c-0.4-1.9-1.4-4.5-2.4-6.3
			c3.4,0.1,6.6,0.2,9.2,0.2c7.5,0,7.8,0,7.8-2.4V33.9H52.4v59h-6.6v-59H16v59.2H9.5V27.5h36.3V13.4H4.7V6.7h90.6V13.4z"/>
	</g>
	<g class="st1">
		<line x1="56.9" y1="14.2" x2="56.9" y2="25.2"/>
		<g>
			<rect x="56.2" y="14.2" width="1.5" height="6.4"/>
			<g>
				<path d="M56.9,25.2c-0.8-2.1-2.1-4.8-3.6-6.4l3.6,1.3l3.6-1.3C59,20.4,57.7,23.1,56.9,25.2z"/>
			</g>
		</g>
	</g>
	<g class="st1">
		<path d="M62.6,18.4v-1.1h-1.8V17l1.7-2.5h0.6v2.4h0.5v0.4h-0.5v1.1H62.6z M62.6,16.9v-1.3c0-0.2,0-0.4,0-0.6h0
			c-0.1,0.2-0.2,0.4-0.3,0.6l-1,1.3v0H62.6z"/>
	</g>
</g>
<g id="Stroke2" class="st0">
	<g class="st1">
		<path d="M45.8,13.4H4.7V6.7h90.6v6.7H52.4 M45.8,33.9H16v59.2H9.5V27.5h80.9v57.3c0,4.2-1,6.2-4.1,7.3c-3.1,1-8.9,1.1-17.1,1.1
			c-0.4-1.9-1.4-4.5-2.4-6.3c3.4,0.1,6.6,0.2,9.2,0.2c7.5,0,7.8,0,7.8-2.4V33.9H52.4"/>
	</g>
	<g class="st1">
		<path d="M17.9,38.2c3.2,0,19.2,0,19.2,0"/>
		<g>
			<rect x="17.9" y="37.4" width="14.6" height="1.5"/>
			<g>
				<path d="M37.1,38.2c-2.1,0.8-4.8,2.1-6.4,3.6l1.3-3.6l-1.3-3.6C32.3,36.1,35,37.4,37.1,38.2z"/>
			</g>
		</g>
	</g>
	<g class="st1">
		<path d="M18.3,44.2c0.1,0.1,0.5,0.2,0.9,0.2c0.7,0,0.9-0.4,0.9-0.8c0-0.5-0.5-0.8-1-0.8h-0.3v-0.4h0.3c0.4,0,0.9-0.2,0.9-0.7
			c0-0.3-0.2-0.6-0.7-0.6c-0.3,0-0.6,0.1-0.8,0.3l-0.1-0.4c0.2-0.1,0.6-0.3,1-0.3c0.8,0,1.1,0.5,1.1,0.9c0,0.4-0.2,0.7-0.7,0.9v0
			c0.5,0.1,0.9,0.5,0.9,1c0,0.6-0.5,1.2-1.4,1.2c-0.4,0-0.8-0.1-1-0.3L18.3,44.2z"/>
	</g>
</g>
<g id="Stroke1" class="st0">
	<g class="st1">
		<path d="M45.8,13.4H4.7V6.7h90.6v6.7H52.4 M16,27.5v6.4v59.2H9.5V27.5"/>
	</g>
	<g class="st1">
		<path d="M20.2,28.4c0,1.1,0,17.6,0,17.6"/>
		<g>
			<rect x="19.5" y="28.4" width="1.5" height="13.1"/>
			<g>
				<path d="M20.2,46c-0.8-2.1-2.1-4.8-3.6-6.4l3.6,1.3l3.6-1.3C22.4,41.2,21,43.9,20.2,46z"/>
			</g>
		</g>
	</g>
	<g class="st1">
		<path d="M23.3,27.4L23.3,27.4l-0.7,0.4l-0.1-0.4l0.9-0.5h0.4v3.9h-0.5V27.4z"/>
	</g>
</g>
<g id="Stroke0" class="st0">
	<g class="st1">
		<path d="M45.8,13.4H4.7V6.7h90.6v6.7H52.4"/>
	</g>
	<g class="st1">
		<line x1="5.4" y1="17.4" x2="24.6" y2="17.4"/>
		<g>
			<rect x="5.4" y="16.7" width="14.6" height="1.5"/>
			<g>
				<path d="M24.6,17.4c-2.1,0.8-4.8,2.1-6.4,3.6l1.3-3.6l-1.3-3.6C19.8,15.3,22.4,16.7,24.6,17.4z"/>
			</g>
		</g>
	</g>
	<g class="st1">
		<path d="M5.8,19.8L5.8,19.8l-0.7,0.4L5,19.7l0.9-0.5h0.4v3.9H5.8V19.8z"/>
	</g>
</g>
<g id="Kanji" class="st0">
	<g class="st1">
		<path d="M95.3,13.4H52.4v14.1h38v57.3c0,4.2-1,6.2-4.1,7.3c-3.1,1-8.9,1.1-17.1,1.1c-0.4-1.9-1.4-4.5-2.4-6.3
			c3.4,0.1,6.6,0.2,9.2,0.2c7.5,0,7.8,0,7.8-2.4V33.9H52.4v59h-6.6v-59H16v59.2H9.5V27.5h36.3V13.4H4.7V6.7h90.6V13.4z M38.3,76.7
			c-4.1-3.7-12.2-9.2-18.6-12.9l3.9-3.8c6.4,3.4,14.6,8.7,18.7,12.3L38.3,76.7z M38.6,56c-4-3.4-11.7-8.5-17.9-11.9l3.8-3.8
			c6.2,3.2,14.1,8.1,18,11.4L38.6,56z M59.5,59.8C66.2,63.2,74.7,68.4,79,72l-4,4.5c-4.2-3.7-12.5-9.2-19.3-12.8L59.5,59.8z
			 M60.7,40.2c6.4,3.1,14.6,7.9,18.8,11.2L75.6,56c-4.1-3.5-12.2-8.4-18.7-11.8L60.7,40.2z"/>
	</g>
</g>
</svg>
