<?xml version="1.0" encoding="utf-8"?>
<!-- Generator: Adobe Illustrator 26.2.1, SVG Export Plug-In . SVG Version: 6.00 Build 0)  -->
<svg version="1.1" xmlns="http://www.w3.org/2000/svg" xmlns:xlink="http://www.w3.org/1999/xlink" x="0px" y="0px"
	 viewBox="0 0 100 100" style="enable-background:new 0 0 100 100;" xml:space="preserve" width = "100px" height = "100px">
<style type="text/css">
	.st0{display:none;}
	.st1{display:inline;}
</style> 


		<path d="M95.3,13.4H52.4v14.1h38v57.3c0,4.2-1,6.2-4.1,7.3c-3.1,1-8.9,1.1-17.1,1.1c-0.4-1.9-1.4-4.5-2.4-6.3
			c3.4,0.1,6.6,0.2,9.2,0.2c7.5,0,7.8,0,7.8-2.4V33.9H52.4v59h-6.6v-59H16v59.2H9.5V27.5h36.3V13.4H4.7V6.7h90.6V13.4z M38.3,76.7
			c-4.1-3.7-12.2-9.2-18.6-12.9l3.9-3.8c6.4,3.4,14.6,8.7,18.7,12.3L38.3,76.7z M38.6,56c-4-3.4-11.7-8.5-17.9-11.9l3.8-3.8
			c6.2,3.2,14.1,8.1,18,11.4L38.6,56z M60.7,40.2c6.4,3.1,14.6,7.9,18.8,11.2L75.6,56c-4.1-3.5-12.2-8.4-18.7-11.8L60.7,40.2z"/>

		<line x1="56.2" y1="48.2" x2="67.5" y2="54.9"/>

			<rect x="59.1" y="46.1" transform="matrix(0.5122 -0.8589 0.8589 0.5122 -14.0919 76.0084)" width="1.5" height="8.6"/>
	
				<path d="M67.5,54.9c-2.2-0.4-5.2-0.6-7.3-0.2l2.9-2.4l0.7-3.7C64.5,50.7,66,53.2,67.5,54.9z"/>
	
		<path d="M57.5,52.1v0.3L55.8,56h-0.5l1.7-3.4v0H55v-0.4H57.5z"/>


</svg>