<?xml version="1.0" encoding="utf-8"?>
<!-- Generator: Adobe Illustrator 26.2.1, SVG Export Plug-In . SVG Version: 6.00 Build 0)  -->
<svg version="1.1" xmlns="http://www.w3.org/2000/svg" xmlns:xlink="http://www.w3.org/1999/xlink" x="0px" y="0px"
	 viewBox="0 0 100 100" style="enable-background:new 0 0 100 100;" xml:space="preserve" width = "100px" height = "100px">
<style type="text/css">
	.st0{display:none;}
	.st1{display:inline;}
</style> 


		<path d="M45.8,13.4H4.7V6.7h90.6v6.7H52.4 M16,27.5v6.4v59.2H9.5V27.5"/>


		<path d="M20.2,28.4c0,1.1,0,17.6,0,17.6"/>

			<rect x="19.5" y="28.4" width="1.5" height="13.1"/>
		
				<path d="M20.2,46c-0.8-2.1-2.1-4.8-3.6-6.4l3.6,1.3l3.6-1.3C22.4,41.2,21,43.9,20.2,46z"/>
	
		<path d="M23.3,27.4L23.3,27.4l-0.7,0.4l-0.1-0.4l0.9-0.5h0.4v3.9h-0.5V27.4z"/>

</svg>