<?xml version="1.0" encoding="utf-8"?>
<!-- Generator: Adobe Illustrator 26.2.1, SVG Export Plug-In . SVG Version: 6.00 Build 0)  -->
<svg version="1.1" xmlns="http://www.w3.org/2000/svg" xmlns:xlink="http://www.w3.org/1999/xlink" x="0px" y="0px"
	 viewBox="0 0 100 100" style="enable-background:new 0 0 100 100;" xml:space="preserve" width = "100px" height = "100px">
<style type="text/css">
	.st0{display:none;}
	.st1{display:inline;}
</style>


		<path d="M95.3,13.4H52.4v14.1h38v57.3c0,4.2-1,6.2-4.1,7.3c-3.1,1-8.9,1.1-17.1,1.1c-0.4-1.9-1.4-4.5-2.4-6.3
			c3.4,0.1,6.6,0.2,9.2,0.2c7.5,0,7.8,0,7.8-2.4V33.9H52.4v59h-6.6v-59H16v59.2H9.5V27.5h36.3V13.4H4.7V6.7h90.6V13.4z M38.3,76.7
			c-4.1-3.7-12.2-9.2-18.6-12.9l3.9-3.8c6.4,3.4,14.6,8.7,18.7,12.3L38.3,76.7z M38.6,56c-4-3.4-11.7-8.5-17.9-11.9l3.8-3.8
			c6.2,3.2,14.1,8.1,18,11.4L38.6,56z M59.5,59.8C66.2,63.2,74.7,68.4,79,72l-4,4.5c-4.2-3.7-12.5-9.2-19.3-12.8L59.5,59.8z
			 M60.7,40.2c6.4,3.1,14.6,7.9,18.8,11.2L75.6,56c-4.1-3.5-12.2-8.4-18.7-11.8L60.7,40.2z"/>

		<line x1="55.5" y1="67.1" x2="65" y2="73.7"/>
		
			<rect x="57.6" y="65.6" transform="matrix(0.568 -0.823 0.823 0.568 -31.6671 77.9288)" width="1.5" height="7"/>
		
				<path d="M65,73.7c-2.2-0.6-5.1-0.9-7.3-0.7l3.1-2.2l1-3.7C62.3,69.2,63.7,71.8,65,73.7z"/>

		<path d="M53.7,73.2c0-0.5,0.3-0.8,0.8-1l0,0c-0.4-0.2-0.6-0.5-0.6-0.9c0-0.6,0.5-1,1.2-1c0.8,0,1.1,0.5,1.1,1
			c0,0.3-0.2,0.7-0.6,0.9v0c0.5,0.2,0.8,0.5,0.8,1c0,0.7-0.6,1.1-1.3,1.1C54.2,74.3,53.7,73.8,53.7,73.2z M55.8,73.2
			c0-0.5-0.3-0.7-0.9-0.9c-0.5,0.1-0.7,0.4-0.7,0.8c0,0.4,0.3,0.7,0.8,0.7C55.5,73.9,55.8,73.6,55.8,73.2z M54.4,71.2
			c0,0.4,0.3,0.6,0.7,0.7c0.3-0.1,0.6-0.4,0.6-0.7c0-0.3-0.2-0.6-0.7-0.6C54.6,70.6,54.4,70.9,54.4,71.2z"/>


 </svg>