<?xml version="1.0" encoding="utf-8"?>
<!-- Generator: Adobe Illustrator 26.2.1, SVG Export Plug-In . SVG Version: 6.00 Build 0)  -->
<svg version="1.1" xmlns="http://www.w3.org/2000/svg" xmlns:xlink="http://www.w3.org/1999/xlink" x="0px" y="0px"
	 viewBox="0 0 100 100" style="enable-background:new 0 0 100 100;" xml:space="preserve" width = "100px" height = "100px">
<style type="text/css">
	.st0{display:none;}
	.st1{display:inline;}
</style>



		<path d="M95.3,13.4H52.4v14.1h38v57.3c0,4.2-1,6.2-4.1,7.3c-3.1,1-8.9,1.1-17.1,1.1c-0.4-1.9-1.4-4.5-2.4-6.3
			c3.4,0.1,6.6,0.2,9.2,0.2c7.5,0,7.8,0,7.8-2.4V33.9H52.4v59h-6.6v-59H16v59.2H9.5V27.5h36.3V13.4H4.7V6.7h90.6V13.4z M38.3,76.7
			c-4.1-3.7-12.2-9.2-18.6-12.9l3.9-3.8c6.4,3.4,14.6,8.7,18.7,12.3L38.3,76.7z M38.6,56c-4-3.4-11.7-8.5-17.9-11.9l3.8-3.8
			c6.2,3.2,14.1,8.1,18,11.4L38.6,56z"/>

		<line x1="20.3" y1="67.7" x2="28.9" y2="75.5"/>
	
			<rect x="22.2" y="66.6" transform="matrix(0.6748 -0.738 0.738 0.6748 -44.2612 39.7051)" width="1.5" height="7"/>

				<path d="M28.9,75.5c-2.1-0.9-5-1.6-7.1-1.7l3.4-1.8l1.5-3.5C26.8,70.7,27.8,73.5,28.9,75.5z"/>
	
		<path d="M18.9,69.3c-0.1,0-0.2,0-0.4,0c-0.8,0.1-1.3,0.7-1.4,1.4h0c0.2-0.2,0.5-0.4,0.9-0.4c0.7,0,1.2,0.5,1.2,1.3
			c0,0.7-0.5,1.4-1.3,1.4c-0.8,0-1.4-0.6-1.4-1.7c0-0.8,0.3-1.4,0.7-1.8c0.3-0.3,0.8-0.5,1.2-0.6c0.2,0,0.3,0,0.4,0V69.3z
			 M18.8,71.5c0-0.6-0.3-0.9-0.8-0.9c-0.3,0-0.6,0.2-0.8,0.5c0,0.1-0.1,0.1-0.1,0.2c0,0.6,0.3,1.1,0.9,1.1
			C18.5,72.4,18.8,72.1,18.8,71.5z"/>



 </svg>