<?xml version="1.0" encoding="utf-8"?>
<!-- Generator: Adobe Illustrator 26.2.1, SVG Export Plug-In . SVG Version: 6.00 Build 0)  -->
<svg version="1.1" xmlns="http://www.w3.org/2000/svg" xmlns:xlink="http://www.w3.org/1999/xlink" x="0px" y="0px"
	 viewBox="0 0 100 100" style="enable-background:new 0 0 100 100;" xml:space="preserve" width = "100px" height = "100px">
<style type="text/css">
	.st0{display:none;}
	.st1{display:inline;}
</style> 


		<path d="M95.3,13.4H52.4v14.1h38v57.3c0,4.2-1,6.2-4.1,7.3c-3.1,1-8.9,1.1-17.1,1.1c-0.4-1.9-1.4-4.5-2.4-6.3
			c3.4,0.1,6.6,0.2,9.2,0.2c7.5,0,7.8,0,7.8-2.4V33.9H52.4v59h-6.6v-59H16v59.2H9.5V27.5h36.3V13.4H4.7V6.7h90.6V13.4z"/>
	

		<line x1="56.9" y1="14.2" x2="56.9" y2="25.2"/>

			<rect x="56.2" y="14.2" width="1.5" height="6.4"/>

				<path d="M56.9,25.2c-0.8-2.1-2.1-4.8-3.6-6.4l3.6,1.3l3.6-1.3C59,20.4,57.7,23.1,56.9,25.2z"/>

		<path d="M62.6,18.4v-1.1h-1.8V17l1.7-2.5h0.6v2.4h0.5v0.4h-0.5v1.1H62.6z M62.6,16.9v-1.3c0-0.2,0-0.4,0-0.6h0
			c-0.1,0.2-0.2,0.4-0.3,0.6l-1,1.3v0H62.6z"/>


</svg>