<?xml version="1.0" encoding="utf-8"?>
<!-- Generator: Adobe Illustrator 26.2.1, SVG Export Plug-In . SVG Version: 6.00 Build 0)  -->
<svg version="1.1" xmlns="http://www.w3.org/2000/svg" xmlns:xlink="http://www.w3.org/1999/xlink" x="0px" y="0px"
	 viewBox="0 0 100 100" style="enable-background:new 0 0 100 100;" xml:space="preserve">
<style type="text/css">
	.st0{display:none;}
	.st1{display:inline;}
</style>
<g id="Stroke3">
	<g>
		<path d="M32.8,18.6c-0.2,0.7-1,1.1-2.2,1C26.2,30.3,18.1,44.5,9.1,53.8c-1.4-1.3-4.1-3.1-5.9-4.1c9-8.6,16.9-22.3,20.8-33.4
			L32.8,18.6z M84.1,48.8c-0.3,0.7-0.9,1-2.1,1.1C72.4,76.6,52,90.6,14.3,96.5c-0.7-2.1-2.3-4.9-3.6-6.6
			C47,85.1,66.7,72.3,75.5,46.5L84.1,48.8z M46.3,3.5L55.2,4c-0.2,0.7-0.7,1.2-2,1.4v50c0,4.4-1.1,6.4-4.3,7.6
			c-3.2,1.1-8.7,1.2-17.3,1.2c-0.3-2-1.4-4.9-2.5-6.9c4.1,0.1,7.9,0.2,10.7,0.2c6,0,6.5,0,6.5-2.2V3.5z M90.2,52.4
			c-3.6-9.2-13-23.5-21.8-34l6-3c8.9,10.2,18.5,24.1,22.4,33.4L90.2,52.4z"/>
	</g>
	<g>
		<path d="M67.9,56.2l-1.3-0.7c1.7-3,3.2-6.1,4.6-9.2l1.4,0.6C71.1,50,69.6,53.2,67.9,56.2z"/>
		<g>
			<path d="M64.9,59.7c0.4-2.2,0.6-5.2,0.1-7.3l2.4,2.9l3.7,0.7C69.1,56.6,66.6,58.2,64.9,59.7z"/>
		</g>
	</g>
	<g>
		<path d="M68.7,46.1v-1.1h-1.8v-0.3l1.7-2.5h0.6v2.4h0.5v0.4h-0.5v1.1H68.7z M68.7,44.7v-1.3c0-0.2,0-0.4,0-0.6h0
			c-0.1,0.2-0.2,0.4-0.3,0.6l-1,1.3v0H68.7z"/>
	</g>
</g>
<g id="Stroke2" class="st0">
	<g class="st1">
		<path d="M32.8,18.6c-0.2,0.7-1,1.1-2.2,1C26.2,30.3,18.1,44.5,9.1,53.8c-1.4-1.3-4.1-3.1-5.9-4.1c9-8.6,16.9-22.3,20.8-33.4
			L32.8,18.6z M46.3,3.5L55.2,4c-0.2,0.7-0.7,1.2-2,1.4v50c0,4.4-1.1,6.4-4.3,7.6c-3.2,1.1-8.7,1.2-17.3,1.2c-0.3-2-1.4-4.9-2.5-6.9
			c4.1,0.1,7.9,0.2,10.7,0.2c6,0,6.5,0,6.5-2.2V3.5z M90.2,52.4c-3.6-9.2-13-23.5-21.8-34l6-3c8.9,10.2,18.5,24.1,22.4,33.4
			L90.2,52.4z"/>
	</g>
	<g class="st1">
		<path d="M72.6,31.3c-0.6-1-1.3-1.9-2-2.9c-3.9-5.3-4.1-5.6-4.1-5.8l1.4-0.6c0.1,0.2,1.2,1.8,4,5.5c0.7,1,1.4,2,2.1,2.9L72.6,31.3z
			"/>
		<g>
			<path d="M75.7,34.7c-1.8-1.3-4.4-2.8-6.5-3.4l3.7-0.9l2.3-3C74.8,29.5,75.2,32.5,75.7,34.7z"/>
		</g>
	</g>
	<g class="st1">
		<path d="M62.9,27c0.2,0.1,0.5,0.2,0.9,0.2c0.7,0,0.9-0.4,0.9-0.8c0-0.5-0.5-0.8-1-0.8h-0.3v-0.4h0.3c0.4,0,0.9-0.2,0.9-0.7
			c0-0.3-0.2-0.6-0.7-0.6c-0.3,0-0.6,0.1-0.8,0.3l-0.1-0.4c0.2-0.1,0.6-0.3,1-0.3c0.8,0,1.1,0.5,1.1,0.9c0,0.4-0.2,0.7-0.7,0.9v0
			c0.5,0.1,0.9,0.5,0.9,1c0,0.6-0.5,1.2-1.4,1.2c-0.4,0-0.8-0.1-1-0.3L62.9,27z"/>
	</g>
</g>
<g id="Stroke1" class="st0">
	<g class="st1">
		<path d="M32.8,18.6c-0.2,0.7-1,1.1-2.2,1C26.2,30.3,18.1,44.5,9.1,53.8c-1.4-1.3-4.1-3.1-5.9-4.1c9-8.6,16.9-22.3,20.8-33.4
			L32.8,18.6z M46.3,3.5L55.2,4c-0.2,0.7-0.7,1.2-2,1.4v50c0,4.4-1.1,6.4-4.3,7.6c-3.2,1.1-8.7,1.2-17.3,1.2c-0.3-2-1.4-4.9-2.5-6.9
			c4.1,0.1,7.9,0.2,10.7,0.2c6,0,6.5,0,6.5-2.2V3.5z"/>
	</g>
	<g class="st1">
		<path d="M31.7,29.5l-1.4-0.6c1.1-2.7,1.9-5.4,2.5-8.3l1.5,0.3C33.7,23.9,32.8,26.7,31.7,29.5z"/>
		<g>
			<path d="M29.1,33.3c0.1-2.3-0.1-5.2-0.7-7.3l2.8,2.6l3.8,0.2C33,29.8,30.7,31.7,29.1,33.3z"/>
		</g>
	</g>
	<g class="st1">
		<path d="M35.7,23v-0.3l0.4-0.4c1-0.9,1.4-1.5,1.5-2c0-0.4-0.2-0.8-0.8-0.8c-0.4,0-0.6,0.2-0.8,0.3l-0.2-0.4
			c0.3-0.2,0.7-0.4,1.1-0.4c0.8,0,1.2,0.6,1.2,1.1c0,0.7-0.5,1.3-1.3,2.1l-0.3,0.3v0h1.8V23H35.7z"/>
	</g>
</g>
<g id="Stroke0" class="st0">
	<g class="st1">
		<path d="M46.3,3.5L55.2,4c-0.2,0.7-0.7,1.2-2,1.4v50c0,4.4-1.1,6.4-4.3,7.6c-3.2,1.1-8.7,1.2-17.3,1.2c-0.3-2-1.4-4.9-2.5-6.9
			c4.1,0.1,7.9,0.2,10.7,0.2c6,0,6.5,0,6.5-2.2V3.5z"/>
	</g>
	<g class="st1">
		<path d="M42.2,4.5c0,0.3,0,11.4,0,11.4"/>
		<g>
			<rect x="41.4" y="4.5" width="1.5" height="6.8"/>
			<g>
				<path d="M42.2,15.8c-0.8-2.1-2.1-4.8-3.6-6.4l3.6,1.3l3.6-1.3C44.3,11,43,13.7,42.2,15.8z"/>
			</g>
		</g>
	</g>
	<g class="st1">
		<path d="M37.3,4.5L37.3,4.5l-0.7,0.4l-0.1-0.4L37.3,4h0.4v3.9h-0.5V4.5z"/>
	</g>
</g>
<g id="Kanji" class="st0">
	<g class="st1">
		<path d="M32.8,18.6c-0.2,0.7-1,1.1-2.2,1C26.2,30.3,18.1,44.5,9.1,53.8c-1.4-1.3-4.1-3.1-5.9-4.1c9-8.6,16.9-22.3,20.8-33.4
			L32.8,18.6z M84.1,48.8c-0.3,0.7-0.9,1-2.1,1.1C72.4,76.6,52,90.6,14.3,96.5c-0.7-2.1-2.3-4.9-3.6-6.6
			C47,85.1,66.7,72.3,75.5,46.5L84.1,48.8z M46.3,3.5L55.2,4c-0.2,0.7-0.7,1.2-2,1.4v50c0,4.4-1.1,6.4-4.3,7.6
			c-3.2,1.1-8.7,1.2-17.3,1.2c-0.3-2-1.4-4.9-2.5-6.9c4.1,0.1,7.9,0.2,10.7,0.2c6,0,6.5,0,6.5-2.2V3.5z M90.2,52.4
			c-3.6-9.2-13-23.5-21.8-34l6-3c8.9,10.2,18.5,24.1,22.4,33.4L90.2,52.4z"/>
	</g>
</g>
</svg>
