<?xml version="1.0" encoding="utf-8"?>
<!-- Generator: Adobe Illustrator 26.2.1, SVG Export Plug-In . SVG Version: 6.00 Build 0)  -->
<svg version="1.1" xmlns="http://www.w3.org/2000/svg" xmlns:xlink="http://www.w3.org/1999/xlink" x="0px" y="0px"
	 viewBox="0 0 100 100" style="enable-background:new 0 0 100 100;" xml:space="preserve" width = "100px" height = "100px">
<style type="text/css">
	.st0{display:none;}
	.st1{display:inline;}
</style> 

		<path d="M32.8,18.6c-0.2,0.7-1,1.1-2.2,1C26.2,30.3,18.1,44.5,9.1,53.8c-1.4-1.3-4.1-3.1-5.9-4.1c9-8.6,16.9-22.3,20.8-33.4
			L32.8,18.6z M46.3,3.5L55.2,4c-0.2,0.7-0.7,1.2-2,1.4v50c0,4.4-1.1,6.4-4.3,7.6c-3.2,1.1-8.7,1.2-17.3,1.2c-0.3-2-1.4-4.9-2.5-6.9
			c4.1,0.1,7.9,0.2,10.7,0.2c6,0,6.5,0,6.5-2.2V3.5z M90.2,52.4c-3.6-9.2-13-23.5-21.8-34l6-3c8.9,10.2,18.5,24.1,22.4,33.4
			L90.2,52.4z"/>

		<path d="M72.6,31.3c-0.6-1-1.3-1.9-2-2.9c-3.9-5.3-4.1-5.6-4.1-5.8l1.4-0.6c0.1,0.2,1.2,1.8,4,5.5c0.7,1,1.4,2,2.1,2.9L72.6,31.3z
			"/>
		<path d="M75.7,34.7c-1.8-1.3-4.4-2.8-6.5-3.4l3.7-0.9l2.3-3C74.8,29.5,75.2,32.5,75.7,34.7z"/>
		<path d="M62.9,27c0.2,0.1,0.5,0.2,0.9,0.2c0.7,0,0.9-0.4,0.9-0.8c0-0.5-0.5-0.8-1-0.8h-0.3v-0.4h0.3c0.4,0,0.9-0.2,0.9-0.7
			c0-0.3-0.2-0.6-0.7-0.6c-0.3,0-0.6,0.1-0.8,0.3l-0.1-0.4c0.2-0.1,0.6-0.3,1-0.3c0.8,0,1.1,0.5,1.1,0.9c0,0.4-0.2,0.7-0.7,0.9v0
			c0.5,0.1,0.9,0.5,0.9,1c0,0.6-0.5,1.2-1.4,1.2c-0.4,0-0.8-0.1-1-0.3L62.9,27z"/>


</svg>