<?xml version="1.0" encoding="utf-8"?>
<!-- Generator: Adobe Illustrator 26.2.1, SVG Export Plug-In . SVG Version: 6.00 Build 0)  -->
<svg version="1.1" xmlns="http://www.w3.org/2000/svg" xmlns:xlink="http://www.w3.org/1999/xlink" x="0px" y="0px"
	 viewBox="0 0 100 100" style="enable-background:new 0 0 100 100;" xml:space="preserve" width = "100px" height = "100px">
<style type="text/css">
	.st0{display:none;}
	.st1{display:inline;}
</style> 


		<path d="M32.8,18.6c-0.2,0.7-1,1.1-2.2,1C26.2,30.3,18.1,44.5,9.1,53.8c-1.4-1.3-4.1-3.1-5.9-4.1c9-8.6,16.9-22.3,20.8-33.4
			L32.8,18.6z M84.1,48.8c-0.3,0.7-0.9,1-2.1,1.1C72.4,76.6,52,90.6,14.3,96.5c-0.7-2.1-2.3-4.9-3.6-6.6
			C47,85.1,66.7,72.3,75.5,46.5L84.1,48.8z M46.3,3.5L55.2,4c-0.2,0.7-0.7,1.2-2,1.4v50c0,4.4-1.1,6.4-4.3,7.6
			c-3.2,1.1-8.7,1.2-17.3,1.2c-0.3-2-1.4-4.9-2.5-6.9c4.1,0.1,7.9,0.2,10.7,0.2c6,0,6.5,0,6.5-2.2V3.5z M90.2,52.4
			c-3.6-9.2-13-23.5-21.8-34l6-3c8.9,10.2,18.5,24.1,22.4,33.4L90.2,52.4z"/>

		<path d="M67.9,56.2l-1.3-0.7c1.7-3,3.2-6.1,4.6-9.2l1.4,0.6C71.1,50,69.6,53.2,67.9,56.2z"/>

		<path d="M64.9,59.7c0.4-2.2,0.6-5.2,0.1-7.3l2.4,2.9l3.7,0.7C69.1,56.6,66.6,58.2,64.9,59.7z"/>

		<path d="M68.7,46.1v-1.1h-1.8v-0.3l1.7-2.5h0.6v2.4h0.5v0.4h-0.5v1.1H68.7z M68.7,44.7v-1.3c0-0.2,0-0.4,0-0.6h0
			c-0.1,0.2-0.2,0.4-0.3,0.6l-1,1.3v0H68.7z"/>

</svg>