<?xml version="1.0" encoding="utf-8"?>
<!-- Generator: Adobe Illustrator 26.2.1, SVG Export Plug-In . SVG Version: 6.00 Build 0)  -->
<svg version="1.1" xmlns="http://www.w3.org/2000/svg" xmlns:xlink="http://www.w3.org/1999/xlink" x="0px" y="0px"
	 viewBox="0 0 100 100" style="enable-background:new 0 0 100 100;" xml:space="preserve" width = "100px" height = "100px">
<style type="text/css">
	.st0{display:none;}
	.st1{display:inline;}
</style> 

		<path d="M46.3,3.5L55.2,4c-0.2,0.7-0.7,1.2-2,1.4v50c0,4.4-1.1,6.4-4.3,7.6c-3.2,1.1-8.7,1.2-17.3,1.2c-0.3-2-1.4-4.9-2.5-6.9
			c4.1,0.1,7.9,0.2,10.7,0.2c6,0,6.5,0,6.5-2.2V3.5z"/>


		<path d="M42.2,4.5c0,0.3,0,11.4,0,11.4"/>

			<rect x="41.4" y="4.5" width="1.5" height="6.8"/>

				<path d="M42.2,15.8c-0.8-2.1-2.1-4.8-3.6-6.4l3.6,1.3l3.6-1.3C44.3,11,43,13.7,42.2,15.8z"/>

		<path d="M37.3,4.5L37.3,4.5l-0.7,0.4l-0.1-0.4L37.3,4h0.4v3.9h-0.5V4.5z"/>


</svg>