<?xml version="1.0" encoding="utf-8"?>
<!-- Generator: Adobe Illustrator 26.2.1, SVG Export Plug-In . SVG Version: 6.00 Build 0)  -->
<svg version="1.1" xmlns="http://www.w3.org/2000/svg" xmlns:xlink="http://www.w3.org/1999/xlink" x="0px" y="0px"
	 viewBox="0 0 100 100" style="enable-background:new 0 0 100 100;" xml:space="preserve" width = "100px" height = "100px">
<style type="text/css">
	.st0{display:none;}
	.st1{display:inline;}
</style> 


		<path d="M18.1,6.2l8.7,0.6c-0.1,0.7-0.7,1.2-2,1.3v32.5c0,19.3-1.6,38.6-14.6,53.6c-1.3-1.5-3.9-3.6-5.5-4.6
			c12-13.9,13.4-31.4,13.4-49V6.2z"/>

		<line x1="29.4" y1="8.1" x2="29.4" y2="22.3"/>
		
			<rect x="28.7" y="8.1" width="1.5" height="9.6"/>
		
				<path d="M29.4,22.3c-0.8-2.1-2.1-4.8-3.6-6.4l3.6,1.3l3.6-1.3C31.6,17.5,30.2,20.1,29.4,22.3z"/>

		<path d="M34.3,8.4L34.3,8.4l-0.7,0.4l-0.1-0.4l0.9-0.5h0.4v3.9h-0.5V8.4z"/>


</svg>