<?xml version="1.0" encoding="utf-8"?>
<!-- Generator: Adobe Illustrator 26.2.1, SVG Export Plug-In . SVG Version: 6.00 Build 0)  -->
<svg version="1.1" xmlns="http://www.w3.org/2000/svg" xmlns:xlink="http://www.w3.org/1999/xlink" x="0px" y="0px"
	 viewBox="0 0 100 100" style="enable-background:new 0 0 100 100;" xml:space="preserve">
<style type="text/css">
	.st0{display:none;}
	.st1{display:inline;fill:none;}
	.st2{display:inline;}
	.st3{fill:none;}
</style>
<g id="Stroke2" class="st0">
	<rect x="17.2" y="27.6" class="st1" width="12.6" height="0"/>
	<g class="st2">
		<path d="M53.3,87.4h42.1v6.7H4.6v-6.7h41.6V45.1H11.1v-6.7h35.1V5.9l9.1,0.6c-0.1,0.7-0.7,1.2-2.1,1.4v30.5h35.6v6.7H53.3V87.4z"
			/>
	</g>
	<g class="st2">
		<line x1="6.2" y1="96.9" x2="36.2" y2="96.9"/>
		<g>
			<rect x="6.2" y="96.4" width="27.7" height="1"/>
			<g>
				<path d="M36.2,96.9c-1.1,0.5-2.4,1.4-3.3,2.4l0.7-2.4l-0.7-2.4C33.7,95.5,35.1,96.4,36.2,96.9z"/>
			</g>
		</g>
	</g>
	<g class="st2">
		<path d="M1.6,98.2c0.1,0.1,0.5,0.2,0.9,0.2c0.7,0,0.9-0.4,0.9-0.8c0-0.5-0.5-0.8-1-0.8H2.1v-0.4h0.3c0.4,0,0.9-0.2,0.9-0.7
			c0-0.3-0.2-0.6-0.7-0.6c-0.3,0-0.6,0.1-0.8,0.3l-0.1-0.4c0.2-0.1,0.6-0.3,1-0.3c0.8,0,1.1,0.5,1.1,0.9c0,0.4-0.2,0.7-0.7,0.9v0
			c0.5,0.1,0.9,0.5,0.9,1c0,0.6-0.5,1.2-1.4,1.2c-0.4,0-0.8-0.1-1-0.3L1.6,98.2z"/>
	</g>
</g>
<g id="Stroke1" class="st0">
	<rect x="17.2" y="27.6" class="st1" width="12.6" height="0"/>
	<g class="st2">
		<path d="M46.2,87.4V45.1H11.1v-6.7h35.1V5.9l9.1,0.6c-0.1,0.7-0.7,1.2-2.1,1.4v30.5h35.6v6.7H53.3v42.2"/>
	</g>
	<g class="st2">
		<line x1="58.3" y1="11.7" x2="58.3" y2="26.9"/>
		<g>
			<rect x="57.6" y="11.7" width="1.5" height="10.7"/>
			<g>
				<path d="M58.3,26.9c-0.8-2.1-2.1-4.8-3.6-6.4l3.6,1.3l3.6-1.3C60.4,22.2,59.1,24.8,58.3,26.9z"/>
			</g>
		</g>
	</g>
	<g class="st2">
		<path d="M61.8,16.7v-0.3l0.4-0.4c1-0.9,1.4-1.5,1.5-2c0-0.4-0.2-0.8-0.8-0.8c-0.4,0-0.6,0.2-0.8,0.3l-0.2-0.4
			c0.3-0.2,0.7-0.4,1.1-0.4c0.8,0,1.2,0.6,1.2,1.1c0,0.7-0.5,1.3-1.3,2.1l-0.3,0.3v0h1.8v0.4H61.8z"/>
	</g>
</g>
<g id="Stroke0" class="st0">
	<rect x="17.2" y="27.6" class="st1" width="12.6" height="0"/>
	<g class="st2">
		<path d="M46.9,45.1H11.8v-6.7h35.1h7h35.6v6.7H53.9"/>
	</g>
	<g class="st2">
		<line x1="12.4" y1="50" x2="39.6" y2="50"/>
		<g>
			<rect x="12.4" y="49.2" width="22.6" height="1.5"/>
			<g>
				<path d="M39.6,50c-2.1,0.8-4.8,2.1-6.4,3.6l1.3-3.6l-1.3-3.6C34.8,47.9,37.5,49.2,39.6,50z"/>
			</g>
		</g>
	</g>
	<g class="st2">
		<path d="M13.9,53.7L13.9,53.7l-0.7,0.4l-0.1-0.4l0.9-0.5h0.4v3.9h-0.5V53.7z"/>
	</g>
</g>
<g id="Kanji">
	<rect x="17.2" y="27.6" class="st3" width="12.6" height="0"/>
	<g>
		<path d="M53.3,87.4h42.1v6.7H4.6v-6.7h41.6V45.1H11.1v-6.7h35.1V5.9l9.1,0.6c-0.1,0.7-0.7,1.2-2.1,1.4v30.5h35.6v6.7H53.3V87.4z"
			/>
	</g>
</g>
</svg>
