<?xml version="1.0" encoding="utf-8"?>
<!-- Generator: Adobe Illustrator 26.2.1, SVG Export Plug-In . SVG Version: 6.00 Build 0)  -->
<svg version="1.1" xmlns="http://www.w3.org/2000/svg" xmlns:xlink="http://www.w3.org/1999/xlink" x="0px" y="0px"
	 viewBox="0 0 100 100" style="enable-background:new 0 0 100 100;" xml:space="preserve" width = "100px" height = "100px">
<style type="text/css">
	.st0{display:none;}
	.st1{display:inline;}
</style> 


	<rect x="17.2" y="27.6" class="st1" width="12.6" height="0"/>

		<path d="M46.2,87.4V45.1H11.1v-6.7h35.1V5.9l9.1,0.6c-0.1,0.7-0.7,1.2-2.1,1.4v30.5h35.6v6.7H53.3v42.2"/>

		<line x1="58.3" y1="11.7" x2="58.3" y2="26.9"/>

			<rect x="57.6" y="11.7" width="1.5" height="10.7"/>

				<path d="M58.3,26.9c-0.8-2.1-2.1-4.8-3.6-6.4l3.6,1.3l3.6-1.3C60.4,22.2,59.1,24.8,58.3,26.9z"/>

		<path d="M61.8,16.7v-0.3l0.4-0.4c1-0.9,1.4-1.5,1.5-2c0-0.4-0.2-0.8-0.8-0.8c-0.4,0-0.6,0.2-0.8,0.3l-0.2-0.4
			c0.3-0.2,0.7-0.4,1.1-0.4c0.8,0,1.2,0.6,1.2,1.1c0,0.7-0.5,1.3-1.3,2.1l-0.3,0.3v0h1.8v0.4H61.8z"/>

</svg>