<?xml version="1.0" encoding="utf-8"?>
<!-- Generator: Adobe Illustrator 26.2.1, SVG Export Plug-In . SVG Version: 6.00 Build 0)  -->
<svg version="1.1" xmlns="http://www.w3.org/2000/svg" xmlns:xlink="http://www.w3.org/1999/xlink" x="0px" y="0px"
	 viewBox="0 0 100 100" style="enable-background:new 0 0 100 100;" xml:space="preserve" width = "100px" height = "100px">
<style type="text/css">
	.st0{display:none;}
	.st1{display:inline;}
</style> 

	<rect x="17.2" y="27.6" class="st1" width="12.6" height="0"/>

		<path d="M53.3,87.4h42.1v6.7H4.6v-6.7h41.6V45.1H11.1v-6.7h35.1V5.9l9.1,0.6c-0.1,0.7-0.7,1.2-2.1,1.4v30.5h35.6v6.7H53.3V87.4z"
			/>

		<line x1="6.2" y1="96.9" x2="36.2" y2="96.9"/>

			<rect x="6.2" y="96.4" width="27.7" height="1"/>

				<path d="M36.2,96.9c-1.1,0.5-2.4,1.4-3.3,2.4l0.7-2.4l-0.7-2.4C33.7,95.5,35.1,96.4,36.2,96.9z"/>

		<path d="M1.6,98.2c0.1,0.1,0.5,0.2,0.9,0.2c0.7,0,0.9-0.4,0.9-0.8c0-0.5-0.5-0.8-1-0.8H2.1v-0.4h0.3c0.4,0,0.9-0.2,0.9-0.7
			c0-0.3-0.2-0.6-0.7-0.6c-0.3,0-0.6,0.1-0.8,0.3l-0.1-0.4c0.2-0.1,0.6-0.3,1-0.3c0.8,0,1.1,0.5,1.1,0.9c0,0.4-0.2,0.7-0.7,0.9v0
			c0.5,0.1,0.9,0.5,0.9,1c0,0.6-0.5,1.2-1.4,1.2c-0.4,0-0.8-0.1-1-0.3L1.6,98.2z"/>



</svg>