<?xml version="1.0" encoding="utf-8"?>
<!-- Generator: Adobe Illustrator 26.2.1, SVG Export Plug-In . SVG Version: 6.00 Build 0)  -->
<svg version="1.1" xmlns="http://www.w3.org/2000/svg" xmlns:xlink="http://www.w3.org/1999/xlink" x="0px" y="0px"
	 viewBox="0 0 100 100" style="enable-background:new 0 0 100 100;" xml:space="preserve">
<style type="text/css">
	.st0{fill:#FFFFFF;}
	.st1{display:none;}
	.st2{display:inline;fill:#FFFFFF;}
	.st3{display:inline;}
</style>
<g id="Stroke3">
	<path class="st0" d="M56.9,88.2"/>
	<g>
		<path d="M78,82h17.1v6.7H4.9V82h22.9c2.4-9.5,5-21.7,7.5-34.1H15.5v-6.6h21.1c1.5-8,2.9-16,4.1-23.2h-30v-6.7h79V18H48.1
			c-1.2,7.3-2.7,15.2-4.3,23.2H78V82z M71.2,47.8H42.6c-2.5,12.6-5.1,24.7-7.2,34.1h35.8V47.8z"/>
	</g>
	<g>
		<path d="M5.6,93.3c2.3,0,88.2,0,88.8,0"/>
		<g>
			<path d="M25.9,94.1c-11.3,0-19.6,0-20.4,0l0-1.5c1.6,0,41.2,0,67.4,0l16.8,0v1.5l-16.8,0C58.5,94.1,39.9,94.1,25.9,94.1z"/>
			<g>
				<path d="M94.3,93.3c-2.1,0.8-4.8,2.1-6.4,3.6l1.3-3.6l-1.3-3.6C89.6,91.2,92.2,92.5,94.3,93.3z"/>
			</g>
		</g>
	</g>
	<g>
		<path d="M7.6,94.5h0.7v2.9h0.6v0.5H8.3v1H7.7v-1H5.9v-0.6L7.6,94.5z M7.7,95.1l-1.4,2.3h1.4V95.1z"/>
	</g>
</g>
<g id="Kanji" class="st1">
	<path class="st2" d="M56.9,88.2"/>
	<g class="st3">
		<path d="M78,82h17.1v6.7H4.9V82h22.9c2.4-9.5,5-21.7,7.5-34.1H15.5v-6.6h21.1c1.5-8,2.9-16,4.1-23.2h-30v-6.7h79V18H48.1
			c-1.2,7.3-2.7,15.2-4.3,23.2H78V82z M71.2,47.8H42.6c-2.5,12.6-5.1,24.7-7.2,34.1h35.8V47.8z"/>
	</g>
</g>
<g id="Stroke2" class="st1">
	<path class="st2" d="M56.9,88.2"/>
	<g class="st3">
		<path d="M27.8,82c2.4-9.5,5-21.7,7.5-34.1H15.5v-6.6h21.1c1.5-8,2.9-16,4.1-23.2h-30v-6.7h79V18H48.1c-1.2,7.3-2.7,15.2-4.3,23.2
			H78V82 M71.2,47.8H42.6c-2.5,12.6-5.1,24.7-7.2,34.1h35.8V47.8z"/>
	</g>
	<path class="st3" d="M14.2,52.4"/>
	<g class="st3">
		<line x1="31" y1="53.7" x2="14.2" y2="53.7"/>
		<g>
			<rect x="14.2" y="53" width="12.2" height="1.5"/>
			<g>
				<path d="M31,53.7c-2.1-0.8-4.8-2.1-6.4-3.6l1.3,3.6l-1.3,3.6C26.2,55.9,28.8,54.5,31,53.7z"/>
			</g>
		</g>
	</g>
	<g class="st3">
		<path d="M65.3,77L64,55.1c0-0.8-0.7-1.5-1.5-1.5c-10.7-0.1-17.4-0.1-18,0l-0.3-1.5c0.2-0.1,0.6-0.2,18.4,0c1.6,0,2.9,1.3,3,2.9
			l1.3,21.9L65.3,77z"/>
		<g>
			<path d="M66.3,81.5c-0.9-2.1-2.4-4.6-3.9-6.2l3.6,1.1l3.5-1.5C68.1,76.6,66.9,79.3,66.3,81.5z"/>
		</g>
	</g>
	<g class="st3">
		<path d="M16.5,59.8c0.3,0.1,0.5,0.2,0.7,0.4c0.2,0.2,0.2,0.4,0.2,0.7c0,0.4-0.1,0.7-0.4,0.9c-0.3,0.2-0.6,0.3-1.1,0.3
			c-0.2,0-0.4,0-0.6-0.1s-0.4-0.1-0.6-0.2v-0.6c0.2,0.1,0.4,0.2,0.6,0.2s0.4,0.1,0.6,0.1c0.3,0,0.6-0.1,0.7-0.2s0.3-0.4,0.3-0.6
			c0-0.3-0.1-0.5-0.3-0.6c-0.2-0.1-0.4-0.2-0.7-0.2h-0.5v-0.5h0.5c0.3,0,0.5-0.1,0.6-0.2s0.2-0.3,0.2-0.5c0-0.2-0.1-0.4-0.2-0.5
			c-0.1-0.1-0.3-0.2-0.6-0.2c-0.2,0-0.4,0-0.5,0.1s-0.4,0.1-0.6,0.2v-0.5c0.2-0.1,0.4-0.1,0.6-0.1s0.3,0,0.5,0c0.4,0,0.8,0.1,1,0.3
			c0.3,0.2,0.4,0.5,0.4,0.9c0,0.2-0.1,0.4-0.2,0.6S16.8,59.8,16.5,59.8z"/>
	</g>
</g>
<g id="Stroke1" class="st1">
	<path class="st2" d="M56.9,88.2"/>
	<g class="st3">
		<path d="M27.8,82c2.4-9.5,5-21.7,7.5-34.1l1.3-6.6c1.5-8,2.9-16,4.1-23.2h-30v-6.7h79V18H48.1c-1.2,7.3-2.7,15.2-4.3,23.2
			l-1.2,6.6c-2.5,12.6-5.1,24.7-7.2,34.1H27.8z"/>
	</g>
	<g class="st3">
		<line x1="54.3" y1="21.5" x2="43.1" y2="78.5"/>
		<g>
			<rect x="22.4" y="47" transform="matrix(0.1927 -0.9813 0.9813 0.1927 -7.2381 86.7595)" width="53.5" height="1.5"/>
			<g>
				<path d="M43.1,78.5c-0.4-2.2-1.2-5.1-2.3-7l3.3,2l3.7-0.6C46.1,74.2,44.3,76.5,43.1,78.5z"/>
			</g>
		</g>
	</g>
	<g class="st3">
		<path d="M57,24.8c0.4-0.4,0.8-0.7,1.5-0.7c0.9,0,1.3,0.6,1.3,1.2c0,0.9-0.7,1.6-1.8,2.5l-0.4,0.4v0h2.3v0.4h-3.1v-0.3l0.5-0.4
			c1.3-1.1,1.9-1.7,1.9-2.5c0-0.5-0.3-0.9-0.9-0.9c-0.4,0-0.8,0.2-1.1,0.6L57,24.8z"/>
	</g>
</g>
<g id="Stroke0" class="st1">
	<path class="st2" d="M56.9,88.2"/>
	<g class="st3">
		<path d="M10.7,18v-6.7h79V18"/>
	</g>
	<path class="st3" d="M12.3,22.9"/>
	<g class="st3">
		<line x1="79.9" y1="24.7" x2="11.7" y2="24.7"/>
		<g>
			<rect x="11.7" y="23.9" width="63.7" height="1.5"/>
			<g>
				<path d="M79.9,24.7c-2.1-0.8-4.8-2.1-6.4-3.6l1.3,3.6l-1.3,3.6C75.2,26.8,77.8,25.5,79.9,24.7z"/>
			</g>
		</g>
	</g>
	<g class="st3">
		<path d="M13.7,28.3L13.7,28.3l-0.9,0.5l-0.1-0.4l1.1-0.6h0.4v4.6h-0.5V28.3z"/>
	</g>
</g>
</svg>
