<?xml version="1.0" encoding="utf-8"?>
<!-- Generator: Adobe Illustrator 26.2.1, SVG Export Plug-In . SVG Version: 6.00 Build 0)  -->
<svg version="1.1" xmlns="http://www.w3.org/2000/svg" xmlns:xlink="http://www.w3.org/1999/xlink" x="0px" y="0px"
	 viewBox="0 0 100 100" style="enable-background:new 0 0 100 100;" xml:space="preserve" width = "100px" height = "100px">
<style type="text/css">
	.st0{display:none;}
	.st1{display:inline;}
</style> 

	<path class="st2" d="M56.9,88.2"/>

		<path d="M27.8,82c2.4-9.5,5-21.7,7.5-34.1H15.5v-6.6h21.1c1.5-8,2.9-16,4.1-23.2h-30v-6.7h79V18H48.1c-1.2,7.3-2.7,15.2-4.3,23.2
			H78V82 M71.2,47.8H42.6c-2.5,12.6-5.1,24.7-7.2,34.1h35.8V47.8z"/>

	<path class="st3" d="M14.2,52.4"/>

		<line x1="31" y1="53.7" x2="14.2" y2="53.7"/>

			<rect x="14.2" y="53" width="12.2" height="1.5"/>
	
				<path d="M31,53.7c-2.1-0.8-4.8-2.1-6.4-3.6l1.3,3.6l-1.3,3.6C26.2,55.9,28.8,54.5,31,53.7z"/>

			<path d="M65.3,77L64,55.1c0-0.8-0.7-1.5-1.5-1.5c-10.7-0.1-17.4-0.1-18,0l-0.3-1.5c0.2-0.1,0.6-0.2,18.4,0c1.6,0,2.9,1.3,3,2.9
			l1.3,21.9L65.3,77z"/>

			<path d="M66.3,81.5c-0.9-2.1-2.4-4.6-3.9-6.2l3.6,1.1l3.5-1.5C68.1,76.6,66.9,79.3,66.3,81.5z"/>

		<path d="M16.5,59.8c0.3,0.1,0.5,0.2,0.7,0.4c0.2,0.2,0.2,0.4,0.2,0.7c0,0.4-0.1,0.7-0.4,0.9c-0.3,0.2-0.6,0.3-1.1,0.3
			c-0.2,0-0.4,0-0.6-0.1s-0.4-0.1-0.6-0.2v-0.6c0.2,0.1,0.4,0.2,0.6,0.2s0.4,0.1,0.6,0.1c0.3,0,0.6-0.1,0.7-0.2s0.3-0.4,0.3-0.6
			c0-0.3-0.1-0.5-0.3-0.6c-0.2-0.1-0.4-0.2-0.7-0.2h-0.5v-0.5h0.5c0.3,0,0.5-0.1,0.6-0.2s0.2-0.3,0.2-0.5c0-0.2-0.1-0.4-0.2-0.5
			c-0.1-0.1-0.3-0.2-0.6-0.2c-0.2,0-0.4,0-0.5,0.1s-0.4,0.1-0.6,0.2v-0.5c0.2-0.1,0.4-0.1,0.6-0.1s0.3,0,0.5,0c0.4,0,0.8,0.1,1,0.3
			c0.3,0.2,0.4,0.5,0.4,0.9c0,0.2-0.1,0.4-0.2,0.6S16.8,59.8,16.5,59.8z"/>


</svg>