<?xml version="1.0" encoding="utf-8"?>
<!-- Generator: Adobe Illustrator 26.2.1, SVG Export Plug-In . SVG Version: 6.00 Build 0)  -->
<svg version="1.1" xmlns="http://www.w3.org/2000/svg" xmlns:xlink="http://www.w3.org/1999/xlink" x="0px" y="0px"
	 viewBox="0 0 100 100" style="enable-background:new 0 0 100 100;" xml:space="preserve" width = "100px" height = "100px">
<style type="text/css">
	.st0{display:none;}
	.st1{display:inline;}
</style> 


	<path class="st0" d="M56.9,88.2"/>

		<path d="M78,82h17.1v6.7H4.9V82h22.9c2.4-9.5,5-21.7,7.5-34.1H15.5v-6.6h21.1c1.5-8,2.9-16,4.1-23.2h-30v-6.7h79V18H48.1
			c-1.2,7.3-2.7,15.2-4.3,23.2H78V82z M71.2,47.8H42.6c-2.5,12.6-5.1,24.7-7.2,34.1h35.8V47.8z"/>

		<path d="M5.6,93.3c2.3,0,88.2,0,88.8,0"/>

			<path d="M25.9,94.1c-11.3,0-19.6,0-20.4,0l0-1.5c1.6,0,41.2,0,67.4,0l16.8,0v1.5l-16.8,0C58.5,94.1,39.9,94.1,25.9,94.1z"/>

				<path d="M94.3,93.3c-2.1,0.8-4.8,2.1-6.4,3.6l1.3-3.6l-1.3-3.6C89.6,91.2,92.2,92.5,94.3,93.3z"/>

		<path d="M7.6,94.5h0.7v2.9h0.6v0.5H8.3v1H7.7v-1H5.9v-0.6L7.6,94.5z M7.7,95.1l-1.4,2.3h1.4V95.1z"/>


</svg>