<?xml version="1.0" encoding="utf-8"?>
<!-- Generator: Adobe Illustrator 26.2.1, SVG Export Plug-In . SVG Version: 6.00 Build 0)  -->
<svg version="1.1" xmlns="http://www.w3.org/2000/svg" xmlns:xlink="http://www.w3.org/1999/xlink" x="0px" y="0px"
	 viewBox="0 0 100 100" style="enable-background:new 0 0 100 100;" xml:space="preserve">
<style type="text/css">
	.st0{fill:none;}
	.st1{display:none;}
	.st2{display:inline;fill:none;}
	.st3{display:inline;}
</style>
<g id="Stroke6">
	<rect x="17.2" y="27.6" class="st0" width="12.6" height="0"/>
	<g>
		<path d="M53.7,62.3v22c7.5,1.5,11,1.5,42.9,1.5c-1,1.6-2.1,4.7-2.5,6.5H71.5c-21.9,0-37.5-4-47-22.1c-3.4,9.2-8.6,18-16.2,23.9
			c-1.1-1.4-3.4-3.6-4.9-4.7c12.5-9.3,17.5-26.7,19.1-41.5l8.8,1.3c-0.1,0.7-0.7,1.1-2,1.2c-0.5,3.5-1.2,7.3-2.1,11.1
			C31.3,72.7,38,79,46.8,82.3V41.1H16.4V5.9h69v35.2H53.7v14.8h34.5v6.4H53.7z M23.1,12.4v22.2h55.3V12.4H23.1z"/>
	</g>
	<g>
		<path d="M35.5,89.3c-0.6-0.4-1.2-0.9-1.8-1.4c-3.9-3.1-7.1-7-9.5-11.5l1.3-0.7c2.3,4.4,5.4,8.1,9.1,11c0.6,0.5,1.2,0.9,1.8,1.3
			L35.5,89.3z"/>
		<g>
			<path d="M39.8,91c-2.2-0.5-5.2-0.7-7.3-0.3l3-2.4l0.8-3.7C36.9,86.7,38.5,89.2,39.8,91z"/>
		</g>
	</g>
	<g>
		<path d="M24.7,79.8v0.3L23,83.7h-0.5l1.7-3.4v0h-1.9v-0.4H24.7z"/>
	</g>
</g>
<g id="Stroke5" class="st1">
	<rect x="17.2" y="27.6" class="st2" width="12.6" height="0"/>
	<g class="st3">
		<path d="M47.1,84.3l-0.3-43.2H16.4V5.9h69v35.2H53.7v14.8h34.5v6.4H53.7v22 M24.5,70.2c-3.4,9.2-8.6,18-16.2,23.9
			c-1.1-1.4-3.4-3.6-4.9-4.7c12.5-9.3,17.5-26.7,19.1-41.5l8.8,1.3c-0.1,0.7-0.7,1.1-2,1.2c-0.5,3.5-1.2,7.3-2.1,11.1 M23.1,12.4
			v22.2h55.3V12.4H23.1z"/>
	</g>
	<g class="st3">
		<path d="M27.3,74.6l-1.4-0.5c2.6-7.2,4.8-14.7,6.4-22.3l1.5,0.3C32.1,59.8,30,67.3,27.3,74.6z"/>
		<g>
			<path d="M25,78.6c0-2.3-0.3-5.2-1.1-7.2l2.9,2.4l3.8,0C28.7,74.9,26.5,76.9,25,78.6z"/>
		</g>
	</g>
	<g class="st3">
		<path d="M37.1,53.4c-0.1,0-0.2,0-0.4,0c-0.8,0.1-1.3,0.7-1.4,1.4h0c0.2-0.2,0.5-0.4,0.9-0.4c0.7,0,1.2,0.5,1.2,1.3
			c0,0.7-0.5,1.4-1.3,1.4c-0.8,0-1.4-0.6-1.4-1.7c0-0.8,0.3-1.4,0.7-1.8c0.3-0.3,0.8-0.5,1.2-0.6c0.2,0,0.3,0,0.4,0V53.4z M37,55.6
			c0-0.6-0.3-0.9-0.8-0.9c-0.3,0-0.6,0.2-0.8,0.5c0,0.1-0.1,0.1-0.1,0.2c0,0.6,0.3,1.1,0.9,1.1C36.7,56.5,37,56.2,37,55.6z"/>
	</g>
</g>
<g id="Stroke4" class="st1">
	<rect x="17.2" y="27.6" class="st2" width="12.6" height="0"/>
	<g class="st3">
		<path d="M46.8,84.3l0-2V41.1H16.4V5.9h69v35.2H53.7v14.8h34.5v6.4H53.7v22 M23.1,12.4v22.2h55.3V12.4H23.1z"/>
	</g>
	<g class="st3">
		<line x1="55.4" y1="66.4" x2="75.9" y2="66.4"/>
		<g>
			<rect x="55.4" y="65.6" width="16" height="1.5"/>
			<g>
				<path d="M75.9,66.4c-2.1,0.8-4.8,2.1-6.4,3.6l1.3-3.6l-1.3-3.6C71.2,64.2,73.8,65.6,75.9,66.4z"/>
			</g>
		</g>
	</g>
	<g class="st3">
		<path d="M58,69.5h-1.5l-0.2,1c0.1,0,0.2,0,0.3,0c0.3,0,0.6,0.1,0.8,0.2c0.3,0.2,0.6,0.5,0.6,1c0,0.8-0.6,1.3-1.5,1.3
			c-0.4,0-0.8-0.1-1-0.2l0.1-0.4c0.2,0.1,0.5,0.2,0.8,0.2c0.5,0,0.9-0.3,0.9-0.8c0-0.5-0.3-0.9-1.1-0.9c-0.2,0-0.4,0-0.5,0l0.3-1.9
			H58V69.5z"/>
	</g>
</g>
<g id="Stroke3" class="st1">
	<rect x="17.2" y="27.6" class="st2" width="12.6" height="0"/>
	<g class="st3">
		<path d="M46.8,84.3l0-2V41.1H16.4V5.9h69v35.2H53.7v14.8v6.4v22 M23.1,12.4v22.2h55.3V12.4H23.1z"/>
	</g>
	<g class="st3">
		<line x1="58.6" y1="44.4" x2="58.6" y2="60"/>
		<g>
			<rect x="57.9" y="44.4" width="1.5" height="11"/>
			<g>
				<path d="M58.6,60c-0.8-2.1-2.1-4.8-3.6-6.4l3.6,1.3l3.6-1.3C60.8,55.2,59.4,57.9,58.6,60z"/>
			</g>
		</g>
	</g>
	<g class="st3">
		<path d="M63.2,48.3v-1.1h-1.8v-0.3l1.7-2.5h0.6v2.4h0.5v0.4h-0.5v1.1H63.2z M63.2,46.8v-1.3c0-0.2,0-0.4,0-0.6h0
			c-0.1,0.2-0.2,0.4-0.3,0.6l-1,1.3v0H63.2z"/>
	</g>
</g>
<g id="Stroke2" class="st1">
	<rect x="17.2" y="27.6" class="st2" width="12.6" height="0"/>
	<g class="st3">
		<path d="M46.8,41.1H16.4V5.9h69v35.2H53.7 M23.1,12.4v22.2h55.3V12.4H23.1z"/>
	</g>
	<g class="st3">
		<line x1="16.4" y1="45.4" x2="35.2" y2="45.4"/>
		<g>
			<rect x="16.4" y="44.7" width="14.3" height="1.5"/>
			<g>
				<path d="M35.2,45.4c-2.1,0.8-4.8,2.1-6.4,3.6l1.3-3.6l-1.3-3.6C30.5,43.3,33.1,44.6,35.2,45.4z"/>
			</g>
		</g>
	</g>
	<g class="st3">
		<path d="M16.8,51.5c0.2,0.1,0.5,0.2,0.9,0.2c0.7,0,0.9-0.4,0.9-0.8c0-0.5-0.5-0.8-1-0.8h-0.3v-0.4h0.3c0.4,0,0.9-0.2,0.9-0.7
			c0-0.3-0.2-0.6-0.7-0.6c-0.3,0-0.6,0.1-0.8,0.3l-0.1-0.4c0.2-0.1,0.6-0.3,1-0.3c0.8,0,1.1,0.5,1.1,0.9c0,0.4-0.2,0.7-0.7,0.9v0
			c0.5,0.1,0.9,0.5,0.9,1c0,0.6-0.5,1.2-1.4,1.2c-0.4,0-0.8-0.1-1-0.3L16.8,51.5z"/>
	</g>
</g>
<g id="Stroke1" class="st1">
	<rect x="17.2" y="27.6" class="st2" width="12.6" height="0"/>
	<g class="st3">
		<path d="M53.7,41.1 M23.1,12.4V5.9h-6.7h69v35.2h-7V12.4 M23.1,34.6 M78.4,12.4"/>
	</g>
	<polyline class="st3" points="16.4,5.9 16.4,41.1 23.1,41.1 23.1,34.6 23.1,12.4 23.1,5.9 	"/>
	<path class="st3" d="M23.1,34.6"/>
	<path class="st3" d="M78.4,12.4"/>
	<g class="st3">
		<path d="M25.3,16.8c1.2,0,17.4,0,17.4,0"/>
		<g>
			<rect x="25.3" y="16" width="12.9" height="1.5"/>
			<g>
				<path d="M42.7,16.8c-2.1,0.8-4.8,2.1-6.4,3.6l1.3-3.6l-1.3-3.6C38,14.7,40.6,16,42.7,16.8z"/>
			</g>
		</g>
	</g>
	<g class="st3">
		<path d="M26,23v-0.3l0.4-0.4c1-0.9,1.4-1.5,1.5-2c0-0.4-0.2-0.8-0.8-0.8c-0.4,0-0.6,0.2-0.8,0.3l-0.2-0.4c0.3-0.2,0.7-0.4,1.1-0.4
			c0.8,0,1.2,0.6,1.2,1.1c0,0.7-0.5,1.3-1.3,2.1l-0.3,0.3v0h1.8V23H26z"/>
	</g>
</g>
<g id="Stroke0" class="st1">
	<rect x="17.2" y="27.6" class="st2" width="12.6" height="0"/>
	<g class="st3">
		<path d="M53.7,41.1 M23.1,41.1h-6.7V5.9h6.7v6.5v22.2"/>
	</g>
	<g class="st3">
		<line x1="27.5" y1="5.9" x2="27.5" y2="21.9"/>
		<g>
			<rect x="26.8" y="5.9" width="1.5" height="11.5"/>
			<g>
				<path d="M27.5,21.9c-0.8-2.1-2.1-4.8-3.6-6.4l3.6,1.3l3.6-1.3C29.7,17.1,28.3,19.8,27.5,21.9z"/>
			</g>
		</g>
	</g>
	<g class="st3">
		<path d="M32.4,7.1L32.4,7.1l-0.7,0.4l-0.1-0.4l0.9-0.5h0.4v3.9h-0.5V7.1z"/>
	</g>
</g>
<g id="Kanji" class="st1">
	<rect x="17.2" y="27.6" class="st2" width="12.6" height="0"/>
	<g class="st3">
		<path d="M53.7,62.3v22c7.5,1.5,11,1.5,42.9,1.5c-1,1.6-2.1,4.7-2.5,6.5H71.5c-21.9,0-37.5-4-47-22.1c-3.4,9.2-8.6,18-16.2,23.9
			c-1.1-1.4-3.4-3.6-4.9-4.7c12.5-9.3,17.5-26.7,19.1-41.5l8.8,1.3c-0.1,0.7-0.7,1.1-2,1.2c-0.5,3.5-1.2,7.3-2.1,11.1
			C31.3,72.7,38,79,46.8,82.3V41.1H16.4V5.9h69v35.2H53.7v14.8h34.5v6.4H53.7z M23.1,12.4v22.2h55.3V12.4H23.1z"/>
	</g>
</g>
</svg>
