<?xml version="1.0" encoding="utf-8"?>
<!-- Generator: Adobe Illustrator 26.2.1, SVG Export Plug-In . SVG Version: 6.00 Build 0)  -->
<svg version="1.1" xmlns="http://www.w3.org/2000/svg" xmlns:xlink="http://www.w3.org/1999/xlink" x="0px" y="0px"
	 viewBox="0 0 100 100" style="enable-background:new 0 0 100 100;" xml:space="preserve" width = "100px" height = "100px">
<style type="text/css">
	.st0{display:none;}
	.st1{display:inline;}
</style>

	<rect x="17.2" y="27.6" class="st2" width="12.6" height="0"/>

		<path d="M47.1,84.3l-0.3-43.2H16.4V5.9h69v35.2H53.7v14.8h34.5v6.4H53.7v22 M24.5,70.2c-3.4,9.2-8.6,18-16.2,23.9
			c-1.1-1.4-3.4-3.6-4.9-4.7c12.5-9.3,17.5-26.7,19.1-41.5l8.8,1.3c-0.1,0.7-0.7,1.1-2,1.2c-0.5,3.5-1.2,7.3-2.1,11.1 M23.1,12.4
			v22.2h55.3V12.4H23.1z"/>

		<path d="M27.3,74.6l-1.4-0.5c2.6-7.2,4.8-14.7,6.4-22.3l1.5,0.3C32.1,59.8,30,67.3,27.3,74.6z"/>

			<path d="M25,78.6c0-2.3-0.3-5.2-1.1-7.2l2.9,2.4l3.8,0C28.7,74.9,26.5,76.9,25,78.6z"/>

		<path d="M37.1,53.4c-0.1,0-0.2,0-0.4,0c-0.8,0.1-1.3,0.7-1.4,1.4h0c0.2-0.2,0.5-0.4,0.9-0.4c0.7,0,1.2,0.5,1.2,1.3
			c0,0.7-0.5,1.4-1.3,1.4c-0.8,0-1.4-0.6-1.4-1.7c0-0.8,0.3-1.4,0.7-1.8c0.3-0.3,0.8-0.5,1.2-0.6c0.2,0,0.3,0,0.4,0V53.4z M37,55.6
			c0-0.6-0.3-0.9-0.8-0.9c-0.3,0-0.6,0.2-0.8,0.5c0,0.1-0.1,0.1-0.1,0.2c0,0.6,0.3,1.1,0.9,1.1C36.7,56.5,37,56.2,37,55.6z"/>




 </svg>