<?xml version="1.0" encoding="utf-8"?>
<!-- Generator: Adobe Illustrator 26.2.1, SVG Export Plug-In . SVG Version: 6.00 Build 0)  -->
<svg version="1.1" xmlns="http://www.w3.org/2000/svg" xmlns:xlink="http://www.w3.org/1999/xlink" x="0px" y="0px"
	 viewBox="0 0 100 100" style="enable-background:new 0 0 100 100;" xml:space="preserve" width = "100px" height = "100px">
<style type="text/css">
	.st0{display:none;}
	.st1{display:inline;}
</style> 

	<rect x="17.2" y="27.6" class="st0" width="12.6" height="0"/>

		<path d="M53.7,62.3v22c7.5,1.5,11,1.5,42.9,1.5c-1,1.6-2.1,4.7-2.5,6.5H71.5c-21.9,0-37.5-4-47-22.1c-3.4,9.2-8.6,18-16.2,23.9
			c-1.1-1.4-3.4-3.6-4.9-4.7c12.5-9.3,17.5-26.7,19.1-41.5l8.8,1.3c-0.1,0.7-0.7,1.1-2,1.2c-0.5,3.5-1.2,7.3-2.1,11.1
			C31.3,72.7,38,79,46.8,82.3V41.1H16.4V5.9h69v35.2H53.7v14.8h34.5v6.4H53.7z M23.1,12.4v22.2h55.3V12.4H23.1z"/>


		<path d="M35.5,89.3c-0.6-0.4-1.2-0.9-1.8-1.4c-3.9-3.1-7.1-7-9.5-11.5l1.3-0.7c2.3,4.4,5.4,8.1,9.1,11c0.6,0.5,1.2,0.9,1.8,1.3
			L35.5,89.3z"/>

			<path d="M39.8,91c-2.2-0.5-5.2-0.7-7.3-0.3l3-2.4l0.8-3.7C36.9,86.7,38.5,89.2,39.8,91z"/>

		<path d="M24.7,79.8v0.3L23,83.7h-0.5l1.7-3.4v0h-1.9v-0.4H24.7z"/>


</svg>