<?xml version="1.0" encoding="utf-8"?>
<!-- Generator: Adobe Illustrator 26.2.1, SVG Export Plug-In . SVG Version: 6.00 Build 0)  -->
<svg version="1.1" xmlns="http://www.w3.org/2000/svg" xmlns:xlink="http://www.w3.org/1999/xlink" x="0px" y="0px"
	 viewBox="0 0 100 100" style="enable-background:new 0 0 100 100;" xml:space="preserve" width = "100px" height = "100px">
<style type="text/css">
	.st0{display:none;}
	.st1{display:inline;}
</style>

	<rect x="17.2" y="27.6" class="st2" width="12.6" height="0"/>

		<path d="M53.7,41.1 M23.1,12.4V5.9h-6.7h69v35.2h-7V12.4 M23.1,34.6 M78.4,12.4"/>

	<polyline class="st3" points="16.4,5.9 16.4,41.1 23.1,41.1 23.1,34.6 23.1,12.4 23.1,5.9 	"/>
	<path class="st3" d="M23.1,34.6"/>
	<path class="st3" d="M78.4,12.4"/>

		<path d="M25.3,16.8c1.2,0,17.4,0,17.4,0"/>

			<rect x="25.3" y="16" width="12.9" height="1.5"/>
		
				<path d="M42.7,16.8c-2.1,0.8-4.8,2.1-6.4,3.6l1.3-3.6l-1.3-3.6C38,14.7,40.6,16,42.7,16.8z"/>

		<path d="M26,23v-0.3l0.4-0.4c1-0.9,1.4-1.5,1.5-2c0-0.4-0.2-0.8-0.8-0.8c-0.4,0-0.6,0.2-0.8,0.3l-0.2-0.4c0.3-0.2,0.7-0.4,1.1-0.4
			c0.8,0,1.2,0.6,1.2,1.1c0,0.7-0.5,1.3-1.3,2.1l-0.3,0.3v0h1.8V23H26z"/>




 </svg>