<?xml version="1.0" encoding="utf-8"?>
<!-- Generator: Adobe Illustrator 26.2.1, SVG Export Plug-In . SVG Version: 6.00 Build 0)  -->
<svg version="1.1" xmlns="http://www.w3.org/2000/svg" xmlns:xlink="http://www.w3.org/1999/xlink" x="0px" y="0px"
	 viewBox="0 0 100 100" style="enable-background:new 0 0 100 100;" xml:space="preserve">
<style type="text/css">
	.st0{display:none;}
	.st1{display:inline;}
</style>
<g id="Stroke1">
	<g>
		<path d="M47.2,6.7H54c0,17.9,2.3,56.7,42.7,80.7c-1.5,1.2-4.2,4-5.4,5.7c-26-15.8-36.8-38.7-41.2-58.2
			C42.9,61.7,29.9,81.7,8.9,93.3c-1.3-1.4-3.9-3.9-5.6-5.1c22.1-11.5,35-32.8,41.3-61.9l4.1,1c-0.8-5-1.2-9.6-1.3-13.6H21.9V6.8
			L47.2,6.7L47.2,6.7z"/>
	</g>
	<g>
		<path d="M58.7,25.2c-0.3-1.4-0.6-2.8-0.9-4.1c-0.8-4.2-1.2-8.6-1.4-12.9l1.5,0c0.1,4.2,0.6,8.5,1.3,12.7c0.2,1.3,0.5,2.7,0.9,4.1
			L58.7,25.2z"/>
		<g>
			<path d="M60.6,29.4c-1.3-1.9-3.3-4.1-5.1-5.3l3.8,0.4l3.1-2.1C61.4,24.2,60.8,27.1,60.6,29.4z"/>
		</g>
	</g>
	<g>
		<path d="M60,11.4v-0.3l0.4-0.4c1-0.9,1.4-1.5,1.5-2c0-0.4-0.2-0.8-0.8-0.8c-0.4,0-0.6,0.2-0.8,0.3l-0.2-0.4
			c0.3-0.2,0.7-0.4,1.1-0.4c0.8,0,1.2,0.6,1.2,1.1c0,0.7-0.5,1.3-1.3,2.1L60.7,11v0h1.8v0.4H60z"/>
	</g>
</g>
<g id="Stroke0" class="st0">
	<g class="st1">
		<path d="M50.1,34.9C42.9,61.7,29.9,81.7,8.9,93.3c-1.3-1.4-3.9-3.9-5.6-5.1c22.1-11.5,35-32.8,41.3-61.9l4.1,1l3.1,0.9"/>
	</g>
	<g class="st1">
		<path d="M54,37.9l-1.4-0.4c0.8-2.7,1.4-5.4,1.8-8.2l1.5,0.2C55.5,32.3,54.8,35.1,54,37.9z"/>
		<g>
			<path d="M51.9,42c-0.1-2.3-0.6-5.2-1.4-7.2l3,2.3l3.8-0.1C55.4,38.1,53.3,40.2,51.9,42z"/>
		</g>
	</g>
	<g class="st1">
		<path d="M58.4,29.5L58.4,29.5l-0.7,0.4l-0.1-0.4l0.9-0.5h0.4v3.9h-0.5V29.5z"/>
	</g>
</g>
<g id="Kanji" class="st0">
	<g class="st1">
		<path d="M47.2,6.7H54c0,17.9,2.3,56.7,42.7,80.7c-1.5,1.2-4.2,4-5.4,5.7c-26-15.8-36.8-38.7-41.2-58.2
			C42.9,61.7,29.9,81.7,8.9,93.3c-1.3-1.4-3.9-3.9-5.6-5.1c22.1-11.5,35-32.8,41.3-61.9l4.1,1c-0.8-5-1.2-9.6-1.3-13.6H21.9V6.8
			L47.2,6.7L47.2,6.7z"/>
	</g>
</g>
</svg>
