<?xml version="1.0" encoding="utf-8"?>
<!-- Generator: Adobe Illustrator 26.2.1, SVG Export Plug-In . SVG Version: 6.00 Build 0)  -->
<svg version="1.1" xmlns="http://www.w3.org/2000/svg" xmlns:xlink="http://www.w3.org/1999/xlink" x="0px" y="0px"
	 viewBox="0 0 100 100" style="enable-background:new 0 0 100 100;" xml:space="preserve">
<style type="text/css">
	.st0{display:none;}
	.st1{display:inline;}
</style>
<g id="Stroke5">
	<g>
		<path d="M93.3,20.1H26C21.4,29.2,15.6,37.3,9.3,43c-1.3-1.2-3.9-3.1-5.6-4.1C13,31.1,20.9,17.5,25.4,3.1l8.5,2.3
			c-0.2,0.7-1,1.1-2.2,1.1c-0.9,2.6-1.9,5.2-2.9,7.7h64.4V20.1z M20.8,55.4c6.4,3.5,13.3,7.8,19.9,12.3c4.8-5.1,9-10.7,12.3-16.6
			l7.8,3c-0.3,0.8-1.4,1-2.4,0.9c-3.4,5.9-7.6,11.4-12.4,16.5c7.6,5.5,14.3,11.1,18.7,15.9l-5.4,5.1c-4.2-4.8-10.7-10.6-18.1-16.2
			c-8.9,8.4-19.4,15.4-30.3,20.6c-1-1.4-3.2-3.8-4.7-5c10.7-4.7,21-11.3,29.7-19.5c-6.5-4.6-13.4-9-19.9-12.6L20.8,55.4z M13.1,43.1
			h65.9c0.1,26.7,1.6,46.5,9.6,46.5c2.1,0,2.6-5.8,2.8-14.6c1.4,1.5,3.4,3.1,4.8,3.9c-0.7,12.8-2.1,17.3-8,17.3
			c-13.2,0-15.4-18.9-16-47.2H13.1V43.1z M83.5,34.4H24.7v-5.8h58.7V34.4z"/>
	</g>
	<g>
		<path d="M15.1,65.3c2.1,0.8,4.4,1.8,6.7,3.1c1.7,0.9,3.3,1.9,4.7,2.8"/>
		<g>
			<path d="M22.3,69.5c-0.3-0.2-0.5-0.3-0.8-0.5c-2.2-1.1-4.4-2.2-6.7-3l0.5-1.4c2.3,0.9,4.6,1.9,6.8,3.1c0.3,0.2,0.6,0.3,0.9,0.5
				L22.3,69.5z"/>
			<g>
				<path d="M26.5,71.2c-2.2-0.4-5.2-0.6-7.3-0.2l2.9-2.4l0.7-3.7C23.5,66.9,25.1,69.4,26.5,71.2z"/>
			</g>
		</g>
	</g>
	<g>
		<path d="M13.1,65.5c-0.1,0-0.2,0-0.4,0c-0.8,0.1-1.3,0.7-1.4,1.4h0c0.2-0.2,0.5-0.4,0.9-0.4c0.7,0,1.2,0.5,1.2,1.3
			c0,0.7-0.5,1.4-1.3,1.4c-0.8,0-1.4-0.6-1.4-1.7c0-0.8,0.3-1.4,0.7-1.8c0.3-0.3,0.8-0.5,1.2-0.6c0.2,0,0.3,0,0.4,0V65.5z
			 M12.9,67.7c0-0.6-0.3-0.9-0.8-0.9c-0.3,0-0.6,0.2-0.8,0.5c0,0.1-0.1,0.1-0.1,0.2c0,0.6,0.3,1.1,0.9,1.1
			C12.6,68.6,12.9,68.3,12.9,67.7z"/>
	</g>
</g>
<g id="Stroke4" class="st0">
	<g class="st1">
		<path d="M93.3,20.1H26C21.4,29.2,15.6,37.3,9.3,43c-1.3-1.2-3.9-3.1-5.6-4.1C13,31.1,20.9,17.5,25.4,3.1l8.5,2.3
			c-0.2,0.7-1,1.1-2.2,1.1c-0.9,2.6-1.9,5.2-2.9,7.7h64.4V20.1z M41.2,76.3c-8.9,8.4-19.4,15.4-30.3,20.6c-1-1.4-3.2-3.8-4.7-5
			c10.7-4.7,21-11.3,29.7-19.5l4.8-4.7c4.8-5.1,9-10.7,12.3-16.6l7.8,3c-0.3,0.8-1.4,1-2.4,0.9c-3.4,5.9-7.6,11.4-12.4,16.5
			 M13.1,43.1h65.9c0.1,26.7,1.6,46.5,9.6,46.5c2.1,0,2.6-5.8,2.8-14.6c1.4,1.5,3.4,3.1,4.8,3.9c-0.7,12.8-2.1,17.3-8,17.3
			c-13.2,0-15.4-18.9-16-47.2H13.1V43.1z M83.5,34.4H24.7v-5.8h58.7V34.4z"/>
	</g>
	<g class="st1">
		<path d="M59.3,63.7L58,62.9c1.2-2,2.2-4.1,3-6.3l1.4,0.5C61.6,59.5,60.6,61.7,59.3,63.7z"/>
		<g>
			<path d="M55.9,67c0.6-2.2,1.1-5.1,0.9-7.3l2.1,3.1l3.6,1.1C60.5,64.4,57.8,65.7,55.9,67z"/>
		</g>
	</g>
	<g class="st1">
		<path d="M66.5,55H65l-0.1,1c0.1,0,0.2,0,0.3,0c0.3,0,0.6,0.1,0.8,0.2c0.3,0.2,0.6,0.5,0.6,1c0,0.8-0.6,1.3-1.5,1.3
			c-0.4,0-0.8-0.1-1-0.2l0.1-0.4c0.2,0.1,0.5,0.2,0.8,0.2c0.5,0,0.9-0.3,0.9-0.8c0-0.5-0.3-0.9-1.1-0.9c-0.2,0-0.4,0-0.5,0l0.3-1.9
			h1.9V55z"/>
	</g>
</g>
<g id="Stroke3" class="st0">
	<g class="st1">
		<path d="M93.3,20.1H26C21.4,29.2,15.6,37.3,9.3,43c-1.3-1.2-3.9-3.1-5.6-4.1C13,31.1,20.9,17.5,25.4,3.1l8.5,2.3
			c-0.2,0.7-1,1.1-2.2,1.1c-0.9,2.6-1.9,5.2-2.9,7.7h64.4V20.1z M13.1,43.1h65.9c0.1,26.7,1.6,46.5,9.6,46.5c2.1,0,2.6-5.8,2.8-14.6
			c1.4,1.5,3.4,3.1,4.8,3.9c-0.7,12.8-2.1,17.3-8,17.3c-13.2,0-15.4-18.9-16-47.2H13.1V43.1z M83.5,34.4H24.7v-5.8h58.7V34.4z"/>
	</g>
	<g class="st1">
		<path d="M13.1,53.1c0.4,0,13.2,0,13.2,0"/>
		<g>
			<rect x="13.1" y="52.4" width="8.6" height="1.5"/>
			<g>
				<path d="M26.3,53.1c-2.1,0.8-4.8,2.1-6.4,3.6l1.3-3.6l-1.3-3.6C21.5,51,24.2,52.3,26.3,53.1z"/>
			</g>
		</g>
	</g>
	<g class="st1">
		<path d="M14.4,59.8v-1.1h-1.8v-0.3l1.7-2.5h0.6v2.4h0.5v0.4h-0.5v1.1H14.4z M14.4,58.3V57c0-0.2,0-0.4,0-0.6h0
			c-0.1,0.2-0.2,0.4-0.3,0.6l-1,1.3v0H14.4z"/>
	</g>
</g>
<g id="Stroke2" class="st0">
	<g class="st1">
		<path d="M93.3,20.1H26C21.4,29.2,15.6,37.3,9.3,43c-1.3-1.2-3.9-3.1-5.6-4.1C13,31.1,20.9,17.5,25.4,3.1l8.5,2.3
			c-0.2,0.7-1,1.1-2.2,1.1c-0.9,2.6-1.9,5.2-2.9,7.7h64.4V20.1z M83.5,34.4H24.7v-5.8h58.7V34.4z"/>
	</g>
	<g class="st1">
		<line x1="24.7" y1="38.5" x2="39.9" y2="38.5"/>
		<g>
			<rect x="24.7" y="37.7" width="10.6" height="1.5"/>
			<g>
				<path d="M39.9,38.5c-2.1,0.8-4.8,2.1-6.4,3.6l1.3-3.6l-1.3-3.6C35.1,36.3,37.7,37.7,39.9,38.5z"/>
			</g>
		</g>
	</g>
	<g class="st1">
		<path d="M23.3,44.6c0.1,0.1,0.5,0.2,0.9,0.2c0.7,0,0.9-0.4,0.9-0.8c0-0.5-0.5-0.8-1-0.8h-0.3v-0.4H24c0.4,0,0.9-0.2,0.9-0.7
			c0-0.3-0.2-0.6-0.7-0.6c-0.3,0-0.6,0.1-0.8,0.3l-0.1-0.4c0.2-0.1,0.6-0.3,1-0.3c0.8,0,1.1,0.5,1.1,0.9c0,0.4-0.2,0.7-0.7,0.9v0
			c0.5,0.1,0.9,0.5,0.9,1c0,0.6-0.5,1.2-1.4,1.2c-0.4,0-0.8-0.1-1-0.3L23.3,44.6z"/>
	</g>
</g>
<g id="Stroke1" class="st0">
	<g class="st1">
		<path d="M93.3,20.1H26C21.4,29.2,15.6,37.3,9.3,43c-1.3-1.2-3.9-3.1-5.6-4.1C13,31.1,20.9,17.5,25.4,3.1l8.5,2.3
			c-0.2,0.7-1,1.1-2.2,1.1c-0.9,2.6-1.9,5.2-2.9,7.7h64.4V20.1z M10.9,96.9 M59.4,92.5"/>
	</g>
	<g class="st1">
		<path d="M27.3,24.5c0.4,0,16.9,0,16.9,0"/>
		<g>
			<path d="M27.3,25.3l0-1.5c0.3,0,7.9,0,12.4,0l0,1.5C32.1,25.3,27.5,25.3,27.3,25.3z"/>
			<g>
				<path d="M44.2,24.5c-2.1,0.8-4.8,2.1-6.4,3.6l1.3-3.6L37.8,21C39.4,22.4,42.1,23.7,44.2,24.5z"/>
			</g>
		</g>
	</g>
	<g class="st1">
		<path d="M25.4,31v-0.3l0.4-0.4c1-0.9,1.4-1.5,1.5-2c0-0.4-0.2-0.8-0.8-0.8c-0.4,0-0.6,0.2-0.8,0.3l-0.2-0.4
			c0.3-0.2,0.7-0.4,1.1-0.4c0.8,0,1.2,0.6,1.2,1.1c0,0.7-0.5,1.3-1.3,2.1l-0.3,0.3v0h1.8V31H25.4z"/>
	</g>
</g>
<g id="Stroke0" class="st0">
	<g class="st1">
		<path d="M26,20.1C21.4,29.2,15.6,37.3,9.3,43c-1.3-1.2-3.9-3.1-5.6-4.1C13,31.1,20.9,17.5,25.4,3.1l8.5,2.3
			c-0.2,0.7-1,1.1-2.2,1.1c-0.9,2.6-1.9,5.2-2.9,7.7"/>
	</g>
	<g class="st1">
		<path d="M33.9,14.6l-1.4-0.5c0.8-2.2,1.6-4.5,2.3-6.8l1.4,0.4C35.5,10,34.7,12.4,33.9,14.6z"/>
		<g>
			<path d="M31.5,18.6c0-2.3-0.3-5.2-1-7.3l2.9,2.5l3.8,0.1C35.2,14.9,33,16.9,31.5,18.6z"/>
		</g>
	</g>
	<g class="st1">
		<path d="M38.6,5.9L38.6,5.9l-0.7,0.4l-0.1-0.4l0.9-0.5h0.4v3.9h-0.5V5.9z"/>
	</g>
</g>
<g id="Kanji" class="st0">
	<g class="st1">
		<path d="M93.3,20.1H26C21.4,29.2,15.6,37.3,9.3,43c-1.3-1.2-3.9-3.1-5.6-4.1C13,31.1,20.9,17.5,25.4,3.1l8.5,2.3
			c-0.2,0.7-1,1.1-2.2,1.1c-0.9,2.6-1.9,5.2-2.9,7.7h64.4V20.1z M20.8,55.4c6.4,3.5,13.3,7.8,19.9,12.3c4.8-5.1,9-10.7,12.3-16.6
			l7.8,3c-0.3,0.8-1.4,1-2.4,0.9c-3.4,5.9-7.6,11.4-12.4,16.5c7.6,5.5,14.3,11.1,18.7,15.9l-5.4,5.1c-4.2-4.8-10.7-10.6-18.1-16.2
			c-8.9,8.4-19.4,15.4-30.3,20.6c-1-1.4-3.2-3.8-4.7-5c10.7-4.7,21-11.3,29.7-19.5c-6.5-4.6-13.4-9-19.9-12.6L20.8,55.4z M13.1,43.1
			h65.9c0.1,26.7,1.6,46.5,9.6,46.5c2.1,0,2.6-5.8,2.8-14.6c1.4,1.5,3.4,3.1,4.8,3.9c-0.7,12.8-2.1,17.3-8,17.3
			c-13.2,0-15.4-18.9-16-47.2H13.1V43.1z M83.5,34.4H24.7v-5.8h58.7V34.4z"/>
	</g>
</g>
</svg>
