<?xml version="1.0" encoding="utf-8"?>
<!-- Generator: Adobe Illustrator 26.2.1, SVG Export Plug-In . SVG Version: 6.00 Build 0)  -->
<svg version="1.1" xmlns="http://www.w3.org/2000/svg" xmlns:xlink="http://www.w3.org/1999/xlink" x="0px" y="0px"
	 viewBox="0 0 100 100" style="enable-background:new 0 0 100 100;" xml:space="preserve" width = "100px" height = "100px">
<style type="text/css">
	.st0{display:none;}
	.st1{display:inline;}
</style> 


		<path d="M93.3,20.1H26C21.4,29.2,15.6,37.3,9.3,43c-1.3-1.2-3.9-3.1-5.6-4.1C13,31.1,20.9,17.5,25.4,3.1l8.5,2.3
			c-0.2,0.7-1,1.1-2.2,1.1c-0.9,2.6-1.9,5.2-2.9,7.7h64.4V20.1z M10.9,96.9 M59.4,92.5"/>

		<path d="M27.3,24.5c0.4,0,16.9,0,16.9,0"/>

		<path d="M27.3,25.3l0-1.5c0.3,0,7.9,0,12.4,0l0,1.5C32.1,25.3,27.5,25.3,27.3,25.3z"/>
	
		<path d="M44.2,24.5c-2.1,0.8-4.8,2.1-6.4,3.6l1.3-3.6L37.8,21C39.4,22.4,42.1,23.7,44.2,24.5z"/>


		<path d="M25.4,31v-0.3l0.4-0.4c1-0.9,1.4-1.5,1.5-2c0-0.4-0.2-0.8-0.8-0.8c-0.4,0-0.6,0.2-0.8,0.3l-0.2-0.4
			c0.3-0.2,0.7-0.4,1.1-0.4c0.8,0,1.2,0.6,1.2,1.1c0,0.7-0.5,1.3-1.3,2.1l-0.3,0.3v0h1.8V31H25.4z"/>

</svg>