<?xml version="1.0" encoding="utf-8"?>
<!-- Generator: Adobe Illustrator 26.2.1, SVG Export Plug-In . SVG Version: 6.00 Build 0)  -->
<svg version="1.1" xmlns="http://www.w3.org/2000/svg" xmlns:xlink="http://www.w3.org/1999/xlink" x="0px" y="0px"
	 viewBox="0 0 100 100" style="enable-background:new 0 0 100 100;" xml:space="preserve" width = "100px" height = "100px">
<style type="text/css">
	.st0{display:none;}
	.st1{display:inline;}
</style> 

		<path d="M93.3,20.1H26C21.4,29.2,15.6,37.3,9.3,43c-1.3-1.2-3.9-3.1-5.6-4.1C13,31.1,20.9,17.5,25.4,3.1l8.5,2.3
			c-0.2,0.7-1,1.1-2.2,1.1c-0.9,2.6-1.9,5.2-2.9,7.7h64.4V20.1z M83.5,34.4H24.7v-5.8h58.7V34.4z"/>

	
		<line x1="24.7" y1="38.5" x2="39.9" y2="38.5"/>
	
		<rect x="24.7" y="37.7" width="10.6" height="1.5"/>
	
		<path d="M39.9,38.5c-2.1,0.8-4.8,2.1-6.4,3.6l1.3-3.6l-1.3-3.6C35.1,36.3,37.7,37.7,39.9,38.5z"/>

		<path d="M23.3,44.6c0.1,0.1,0.5,0.2,0.9,0.2c0.7,0,0.9-0.4,0.9-0.8c0-0.5-0.5-0.8-1-0.8h-0.3v-0.4H24c0.4,0,0.9-0.2,0.9-0.7
			c0-0.3-0.2-0.6-0.7-0.6c-0.3,0-0.6,0.1-0.8,0.3l-0.1-0.4c0.2-0.1,0.6-0.3,1-0.3c0.8,0,1.1,0.5,1.1,0.9c0,0.4-0.2,0.7-0.7,0.9v0
			c0.5,0.1,0.9,0.5,0.9,1c0,0.6-0.5,1.2-1.4,1.2c-0.4,0-0.8-0.1-1-0.3L23.3,44.6z"/>

</svg>