<?xml version="1.0" encoding="utf-8"?>
<!-- Generator: Adobe Illustrator 26.2.1, SVG Export Plug-In . SVG Version: 6.00 Build 0)  -->
<svg version="1.1" xmlns="http://www.w3.org/2000/svg" xmlns:xlink="http://www.w3.org/1999/xlink" x="0px" y="0px"
	 viewBox="0 0 100 100" style="enable-background:new 0 0 100 100;" xml:space="preserve" width = "100px" height = "100px">
<style type="text/css">
	.st0{display:none;}
	.st1{display:inline;}
</style>


		<path d="M93.3,20.1H26C21.4,29.2,15.6,37.3,9.3,43c-1.3-1.2-3.9-3.1-5.6-4.1C13,31.1,20.9,17.5,25.4,3.1l8.5,2.3
			c-0.2,0.7-1,1.1-2.2,1.1c-0.9,2.6-1.9,5.2-2.9,7.7h64.4V20.1z M20.8,55.4c6.4,3.5,13.3,7.8,19.9,12.3c4.8-5.1,9-10.7,12.3-16.6
			l7.8,3c-0.3,0.8-1.4,1-2.4,0.9c-3.4,5.9-7.6,11.4-12.4,16.5c7.6,5.5,14.3,11.1,18.7,15.9l-5.4,5.1c-4.2-4.8-10.7-10.6-18.1-16.2
			c-8.9,8.4-19.4,15.4-30.3,20.6c-1-1.4-3.2-3.8-4.7-5c10.7-4.7,21-11.3,29.7-19.5c-6.5-4.6-13.4-9-19.9-12.6L20.8,55.4z M13.1,43.1
			h65.9c0.1,26.7,1.6,46.5,9.6,46.5c2.1,0,2.6-5.8,2.8-14.6c1.4,1.5,3.4,3.1,4.8,3.9c-0.7,12.8-2.1,17.3-8,17.3
			c-13.2,0-15.4-18.9-16-47.2H13.1V43.1z M83.5,34.4H24.7v-5.8h58.7V34.4z"/>

		<path d="M15.1,65.3c2.1,0.8,4.4,1.8,6.7,3.1c1.7,0.9,3.3,1.9,4.7,2.8"/>

			<path d="M22.3,69.5c-0.3-0.2-0.5-0.3-0.8-0.5c-2.2-1.1-4.4-2.2-6.7-3l0.5-1.4c2.3,0.9,4.6,1.9,6.8,3.1c0.3,0.2,0.6,0.3,0.9,0.5
				L22.3,69.5z"/>

				<path d="M26.5,71.2c-2.2-0.4-5.2-0.6-7.3-0.2l2.9-2.4l0.7-3.7C23.5,66.9,25.1,69.4,26.5,71.2z"/>

		<path d="M13.1,65.5c-0.1,0-0.2,0-0.4,0c-0.8,0.1-1.3,0.7-1.4,1.4h0c0.2-0.2,0.5-0.4,0.9-0.4c0.7,0,1.2,0.5,1.2,1.3
			c0,0.7-0.5,1.4-1.3,1.4c-0.8,0-1.4-0.6-1.4-1.7c0-0.8,0.3-1.4,0.7-1.8c0.3-0.3,0.8-0.5,1.2-0.6c0.2,0,0.3,0,0.4,0V65.5z
			 M12.9,67.7c0-0.6-0.3-0.9-0.8-0.9c-0.3,0-0.6,0.2-0.8,0.5c0,0.1-0.1,0.1-0.1,0.2c0,0.6,0.3,1.1,0.9,1.1
			C12.6,68.6,12.9,68.3,12.9,67.7z"/>





 </svg>