<?xml version="1.0" encoding="utf-8"?>
<!-- Generator: Adobe Illustrator 26.2.1, SVG Export Plug-In . SVG Version: 6.00 Build 0)  -->
<svg version="1.1" xmlns="http://www.w3.org/2000/svg" xmlns:xlink="http://www.w3.org/1999/xlink" x="0px" y="0px"
	 viewBox="0 0 100 100" style="enable-background:new 0 0 100 100;" xml:space="preserve" width = "100px" height = "100px">
<style type="text/css">
	.st0{display:none;}
	.st1{display:inline;}
</style> 


		<path d="M93.3,20.1H26C21.4,29.2,15.6,37.3,9.3,43c-1.3-1.2-3.9-3.1-5.6-4.1C13,31.1,20.9,17.5,25.4,3.1l8.5,2.3
			c-0.2,0.7-1,1.1-2.2,1.1c-0.9,2.6-1.9,5.2-2.9,7.7h64.4V20.1z M13.1,43.1h65.9c0.1,26.7,1.6,46.5,9.6,46.5c2.1,0,2.6-5.8,2.8-14.6
			c1.4,1.5,3.4,3.1,4.8,3.9c-0.7,12.8-2.1,17.3-8,17.3c-13.2,0-15.4-18.9-16-47.2H13.1V43.1z M83.5,34.4H24.7v-5.8h58.7V34.4z"/>

		<path d="M13.1,53.1c0.4,0,13.2,0,13.2,0"/>

			<rect x="13.1" y="52.4" width="8.6" height="1.5"/>
	
				<path d="M26.3,53.1c-2.1,0.8-4.8,2.1-6.4,3.6l1.3-3.6l-1.3-3.6C21.5,51,24.2,52.3,26.3,53.1z"/>


		<path d="M14.4,59.8v-1.1h-1.8v-0.3l1.7-2.5h0.6v2.4h0.5v0.4h-0.5v1.1H14.4z M14.4,58.3V57c0-0.2,0-0.4,0-0.6h0
			c-0.1,0.2-0.2,0.4-0.3,0.6l-1,1.3v0H14.4z"/>



</svg>