<?xml version="1.0" encoding="utf-8"?>
<!-- Generator: Adobe Illustrator 26.2.1, SVG Export Plug-In . SVG Version: 6.00 Build 0)  -->
<svg version="1.1" xmlns="http://www.w3.org/2000/svg" xmlns:xlink="http://www.w3.org/1999/xlink" x="0px" y="0px"
	 viewBox="0 0 100 100" style="enable-background:new 0 0 100 100;" xml:space="preserve">
<style type="text/css">
	.st0{display:none;}
	.st1{display:inline;}
	.st2{fill:none;stroke:#000000;stroke-width:1.5;stroke-miterlimit:10;}
</style>
<g id="Stroke13">
	<g>
		<path d="M44.9,38.6h-30v55.7H8.2V5.7h36.6V38.6z M38.4,10.9H14.8v8.5h23.6V10.9z M14.8,33.4h23.6v-9H14.8V33.4z M75,49.7h-7.7
			v42.2h-6.2v-8.4c-13.3,1-26.6,1.8-35.1,2.3c-0.1,0.8-0.8,1.2-1.4,1.3l-1.8-6.7l9.2-0.4V49.7H24v-5.1H75V49.7z M61.1,56.2v-6.5
			H37.9v6.5H61.1z M61.1,67.4v-6.7H37.9v6.7H61.1z M37.9,71.9v7.8c7.1-0.3,15.1-0.7,23.1-1.2v-6.6H37.9z M91.8,5.7v79.4
			c0,8.6-4,9-19.2,9c-0.2-1.9-1.2-5-2.2-6.9c3.4,0.1,6.6,0.2,9,0.2c5.2,0,5.8,0,5.8-2.3V38.7H54.3v-33H91.8z M85.2,10.9H60.8v8.5
			h24.4V10.9z M60.8,33.5h24.4v-9.1H60.8V33.5z"/>
	</g>
	<g>
		<line x1="71.1" y1="51.9" x2="71.1" y2="63.6"/>
		<g>
			<rect x="70.4" y="51.9" width="1.5" height="7.2"/>
			<g>
				<path d="M71.1,63.6c-0.8-2.1-2.1-4.8-3.6-6.4l3.6,1.3l3.6-1.3C73.3,58.9,71.9,61.5,71.1,63.6z"/>
			</g>
		</g>
	</g>
	<g>
		<path d="M74.5,51.5L74.5,51.5l-0.7,0.4l-0.1-0.4l0.9-0.5H75v3.9h-0.5V51.5z"/>
		<path d="M78.1,54.9v-1.1h-1.8v-0.3L78,51h0.6v2.4h0.5v0.4h-0.5v1.1H78.1z M78.1,53.4v-1.3c0-0.2,0-0.4,0-0.6h0
			c-0.1,0.2-0.2,0.4-0.3,0.6l-1,1.3v0H78.1z"/>
	</g>
</g>
<g id="Stroke12" class="st0">
	<g class="st1">
		<path d="M44.9,38.6h-30v55.7H8.2V5.7h36.6V38.6z M38.4,10.9H14.8v8.5h23.6V10.9z M14.8,33.4h23.6v-9H14.8V33.4z M61.1,83.5
			c-13.3,1-26.6,1.8-35.1,2.3c-0.1,0.8-0.8,1.2-1.4,1.3l-1.8-6.7l9.2-0.4V49.7H24v-5.1H75v5.1h-37v6.5h23.1 M61.1,67.4v-6.7H37.9
			v6.7H61.1z M37.9,71.9v7.8c7.1-0.3,15.1-0.7,23.1-1.2v-6.6H37.9z M91.8,5.7v79.4c0,8.6-4,9-19.2,9c-0.2-1.9-1.2-5-2.2-6.9
			c3.4,0.1,6.6,0.2,9,0.2c5.2,0,5.8,0,5.8-2.3V38.7H54.3v-33H91.8z M85.2,10.9H60.8v8.5h24.4V10.9z M60.8,33.5h24.4v-9.1H60.8V33.5z
			"/>
	</g>
	<g class="st1">
		<line x1="26.6" y1="89.5" x2="41.7" y2="88.1"/>
		<g>
			
				<rect x="26.6" y="88.3" transform="matrix(0.9957 -9.241330e-02 9.241330e-02 0.9957 -8.0913 3.3307)" width="10.6" height="1.5"/>
			<g>
				<path d="M41.7,88.1c-2,1-4.6,2.6-6.1,4.1l1-3.7L35,85.2C36.7,86.4,39.5,87.5,41.7,88.1z"/>
			</g>
		</g>
	</g>
	<g class="st1">
		<path d="M28,92L28,92l-0.7,0.4L27.2,92l0.9-0.5h0.4v3.9H28V92z"/>
		<path d="M30,94.8c0.1,0.1,0.5,0.2,0.9,0.2c0.7,0,0.9-0.4,0.9-0.8c0-0.5-0.5-0.8-1-0.8h-0.3v-0.4h0.3c0.4,0,0.9-0.2,0.9-0.7
			c0-0.3-0.2-0.6-0.7-0.6c-0.3,0-0.6,0.1-0.8,0.3L30,91.7c0.2-0.1,0.6-0.3,1-0.3c0.8,0,1.1,0.5,1.1,0.9c0,0.4-0.2,0.7-0.7,0.9v0
			c0.5,0.1,0.9,0.5,0.9,1c0,0.6-0.5,1.2-1.4,1.2c-0.4,0-0.8-0.1-1-0.3L30,94.8z"/>
	</g>
</g>
<g id="Stroke11" class="st0">
	<g class="st1">
		<path d="M44.9,38.6h-30v55.7H8.2V5.7h36.6V38.6z M38.4,10.9H14.8v8.5h23.6V10.9z M14.8,33.4h23.6v-9H14.8V33.4z M61.1,71.9H37.9
			V80h-6V49.7H24v-5.1H75v5.1c0,0-35.4-0.3-37,0v6.5h23.1 M61.1,67.4v-6.7H37.9v6.7H61.1z M91.8,5.7v79.4c0,8.6-4,9-19.2,9
			c-0.2-1.9-1.2-5-2.2-6.9c3.4,0.1,6.6,0.2,9,0.2c5.2,0,5.8,0,5.8-2.3V38.7H54.3v-33H91.8z M85.2,10.9H60.8v8.5h24.4V10.9z
			 M60.8,33.5h24.4v-9.1H60.8V33.5z"/>
	</g>
	<path class="st1" d="M61.1,60.7"/>
	<g class="st1">
		<line x1="39.7" y1="75.7" x2="51.4" y2="75.7"/>
		<g>
			<rect x="39.7" y="74.9" width="7.2" height="1.5"/>
			<g>
				<path d="M51.4,75.7c-2.1,0.8-4.8,2.1-6.4,3.6l1.3-3.6L45,72.1C46.6,73.5,49.3,74.9,51.4,75.7z"/>
			</g>
		</g>
	</g>
	<g class="st1">
		<path d="M39.9,80.2L39.9,80.2l-0.7,0.4l-0.1-0.4l0.9-0.5h0.4v3.9h-0.5V80.2z"/>
		<path d="M41.9,83.7v-0.3l0.4-0.4c1-0.9,1.4-1.5,1.5-2c0-0.4-0.2-0.8-0.8-0.8c-0.4,0-0.6,0.2-0.8,0.3L42,80.1
			c0.3-0.2,0.7-0.4,1.1-0.4c0.8,0,1.2,0.6,1.2,1.1c0,0.7-0.5,1.3-1.3,2.1l-0.3,0.3v0h1.8v0.4H41.9z"/>
	</g>
</g>
<g id="Stroke10" class="st0">
	<g class="st1">
		<path d="M44.9,38.6h-30v55.7H8.2V5.7h36.6V38.6z M38.4,10.9H14.8v8.5h23.6V10.9z M14.8,33.4h23.6v-9H14.8V33.4z M61.1,56.2v4.5
			H37.9v6.7v4.5v7.8l-6,0.3V49.7H24v-5.1H75v5.1c0,0-12.7-0.1-13.9,0H37.9v6.5H61.1 M91.8,5.7v79.4c0,8.6-4,9-19.2,9
			c-0.2-1.9-1.2-5-2.2-6.9c3.4,0.1,6.6,0.2,9,0.2c5.2,0,5.8,0,5.8-2.3V38.7H54.3v-33H91.8z M85.2,10.9H60.8v8.5h24.4V10.9z
			 M60.8,33.5h24.4v-9.1H60.8V33.5z"/>
	</g>
	<g class="st1">
		<line x1="39.3" y1="64.6" x2="50.4" y2="64.6"/>
		<g>
			<rect x="39.3" y="63.8" width="6.5" height="1.5"/>
			<g>
				<path d="M50.4,64.6c-2.1,0.8-4.8,2.1-6.4,3.6l1.3-3.6L44,61C45.6,62.5,48.3,63.8,50.4,64.6z"/>
			</g>
		</g>
	</g>
	<g class="st1">
		<path d="M40.5,69.5L40.5,69.5l-0.7,0.4l-0.1-0.4l0.9-0.5H41v3.9h-0.5V69.5z"/>
		<path d="M43.6,69.5L43.6,69.5l-0.7,0.4l-0.1-0.4l0.9-0.5h0.4v3.9h-0.5V69.5z"/>
	</g>
</g>
<g id="Stroke9" class="st0">
	<g class="st1">
		<path d="M44.9,38.6h-30v55.7H8.2V5.7h36.6V38.6z M38.4,10.9H14.8v8.5h23.6V10.9z M14.8,33.4h23.6v-9H14.8V33.4z M61.1,49.7H37.9
			v6.5v4.5v6.7v4.5v7.8l-6,0.3V49.7H24v-5.1H75v5.1h-7.7 M91.8,5.7v79.4c0,8.6-4,9-19.2,9c-0.2-1.9-1.2-5-2.2-6.9
			c3.4,0.1,6.6,0.2,9,0.2c5.2,0,5.8,0,5.8-2.3V38.7H54.3v-33H91.8z M85.2,10.9H60.8v8.5h24.4V10.9z M60.8,33.5h24.4v-9.1H60.8V33.5z
			"/>
	</g>
	<g class="st1">
		<path d="M41.6,50.8c0,2,0,11.5,0,11.5"/>
		<g>
			<rect x="40.8" y="50.8" width="1.5" height="6.9"/>
			<g>
				<path d="M41.6,62.3c-0.8-2.1-2.1-4.8-3.6-6.4l3.6,1.3l3.6-1.3C43.7,57.5,42.4,60.2,41.6,62.3z"/>
			</g>
		</g>
	</g>
	<g class="st1">
		<path d="M45.5,51.5L45.5,51.5l-0.7,0.4l-0.1-0.4l0.9-0.5H46v3.9h-0.5V51.5z"/>
		<path d="M50,52.9c0,1.3-0.5,2.1-1.4,2.1c-0.8,0-1.3-0.7-1.3-2c0-1.3,0.6-2,1.4-2C49.6,50.9,50,51.7,50,52.9z M47.9,53
			c0,1,0.3,1.6,0.8,1.6c0.5,0,0.8-0.6,0.8-1.6c0-1-0.2-1.6-0.8-1.6C48.2,51.3,47.9,51.9,47.9,53z"/>
	</g>
</g>
<g id="Stroke8" class="st0">
	<g class="st1">
		<path d="M44.9,38.6h-30v55.7H8.2V5.7h36.6V38.6z M38.4,10.9H14.8v8.5h23.6V10.9z M14.8,33.4h23.6v-9H14.8V33.4z M31.9,49.7H24
			v-5.1H75v5.1h-7.7 M75,44.6v5.1c0,0-16.8,0-13.9,0H37.9 M91.8,5.7v79.4c0,8.6-4,9-19.2,9c-0.2-1.9-1.2-5-2.2-6.9
			c3.4,0.1,6.6,0.2,9,0.2c5.2,0,5.8,0,5.8-2.3V38.7H54.3v-33H91.8z M85.2,10.9H60.8v8.5h24.4V10.9z M60.8,33.5h24.4v-9.1H60.8V33.5z
			"/>
	</g>
	<g class="st1">
		<path d="M24,54.1c0.6,0,12.1,0,12.1,0"/>
		<g>
			<rect x="24" y="53.4" width="7.6" height="1.5"/>
			<g>
				<path d="M36.2,54.1c-2.1,0.8-4.8,2.1-6.4,3.6l1.3-3.6l-1.3-3.6C31.4,52,34.1,53.3,36.2,54.1z"/>
			</g>
		</g>
	</g>
	<g class="st1">
		<path d="M24.6,60.3c0.1,0,0.2,0,0.4,0c0.3,0,0.6-0.2,0.8-0.4c0.3-0.2,0.4-0.6,0.5-1h0c-0.2,0.3-0.5,0.4-0.9,0.4
			c-0.7,0-1.2-0.5-1.2-1.2c0-0.7,0.5-1.4,1.3-1.4s1.3,0.6,1.3,1.6c0,0.9-0.3,1.5-0.7,1.8c-0.3,0.3-0.7,0.5-1.1,0.5
			c-0.2,0-0.4,0-0.5,0V60.3z M24.8,58.1c0,0.5,0.3,0.8,0.7,0.8c0.4,0,0.6-0.2,0.8-0.4c0,0,0-0.1,0-0.2c0-0.7-0.2-1.2-0.8-1.2
			C25.1,57.1,24.8,57.5,24.8,58.1z"/>
	</g>
</g>
<g id="Stroke7" class="st0">
	<g class="st1">
		<path d="M44.9,38.6h-30v55.7H8.2V5.7h36.6V38.6z M38.4,10.9H14.8v8.5h23.6V10.9z M14.8,33.4h23.6v-9H14.8V33.4z M91.8,5.7v79.4
			c0,8.6-4,9-19.2,9c-0.2-1.9-1.2-5-2.2-6.9c3.4,0.1,6.6,0.2,9,0.2c5.2,0,5.8,0,5.8-2.3V38.7H54.3v-33H91.8z M85.2,10.9H60.8v8.5
			h24.4V10.9z M60.8,33.5h24.4v-9.1H60.8V33.5z"/>
	</g>
	<g class="st1">
		<path d="M54.3,42.9c1.4-0.1,15.4-0.1,15.3,0"/>
		<g>
			<path d="M54.3,43.6l-0.1-1.5c0.9,0,6.8-0.1,10.8-0.1l0,1.5C60.7,43.5,55.1,43.6,54.3,43.6z"/>
			<g>
				<path d="M69.5,42.9c-2.1,0.8-4.8,2.1-6.5,3.5l1.3-3.5l-1.2-3.6C64.8,40.7,67.4,42.1,69.5,42.9z"/>
			</g>
		</g>
	</g>
	<g class="st1">
		<path d="M54.5,47.9c0-0.5,0.3-0.8,0.8-1l0,0c-0.4-0.2-0.6-0.5-0.6-0.9c0-0.6,0.5-1,1.2-1c0.8,0,1.1,0.5,1.1,1
			c0,0.3-0.2,0.7-0.6,0.9v0c0.5,0.2,0.8,0.5,0.8,1c0,0.7-0.6,1.1-1.3,1.1C55,48.9,54.5,48.4,54.5,47.9z M56.6,47.8
			c0-0.5-0.3-0.7-0.9-0.9c-0.5,0.1-0.7,0.4-0.7,0.8c0,0.4,0.3,0.7,0.8,0.7C56.3,48.5,56.6,48.2,56.6,47.8z M55.1,45.9
			c0,0.4,0.3,0.6,0.7,0.7c0.3-0.1,0.6-0.4,0.6-0.7c0-0.3-0.2-0.6-0.7-0.6C55.4,45.3,55.1,45.5,55.1,45.9z"/>
	</g>
</g>
<g id="Stroke6" class="st0">
	<g class="st1">
		<path d="M44.9,38.6h-30v55.7H8.2V5.7h36.6V38.6z M38.4,10.9H14.8v8.5h23.6V10.9z M14.8,33.4h23.6v-9H14.8V33.4z M85.2,10.9H60.8
			v8.5h24.4V10.9z M60.8,38.8l-6.5-0.1v-33h37.5v79.4c0,8.6-4,9-19.2,9c-0.2-1.9-1.2-5-2.2-6.9c3.4,0.1,6.6,0.2,9,0.2
			c5.2,0,5.8,0,5.8-2.3V24.4H60.8"/>
	</g>
	<g class="st1">
		<line x1="61.8" y1="28.3" x2="75.6" y2="28.3"/>
		<g>
			<rect x="61.8" y="27.6" width="9.2" height="1.5"/>
			<g>
				<path d="M75.6,28.3c-2.1,0.8-4.8,2.1-6.4,3.6l1.3-3.6l-1.3-3.6C70.8,26.2,73.4,27.5,75.6,28.3z"/>
			</g>
		</g>
	</g>
	<g class="st1">
		<path d="M64.6,30v0.3l-1.7,3.5h-0.5l1.7-3.4v0h-1.9V30H64.6z"/>
	</g>
</g>
<g id="Stroke5" class="st0">
	<g class="st1">
		<path d="M44.9,38.6h-30v55.7H8.2V5.7h36.6V38.6z M38.4,10.9H14.8v8.5h23.6V10.9z M14.8,33.4h23.6v-9H14.8V33.4z M91.8,5.7v79.4
			c0,8.6-4,9-19.2,9c-0.2-1.9-1.2-5-2.2-6.9c3.4,0.1,6.6,0.2,9,0.2c5.2,0,5.8,0,5.8-2.3V38.7H54.3v-33H91.8z M85.2,38.7V10.9H60.8
			v27.8"/>
	</g>
	<g class="st1">
		<path d="M62.9,14.4c0.6,0,12.7,0,12.7,0"/>
		<g>
			<rect x="62.9" y="13.7" width="8.2" height="1.5"/>
			<g>
				<path d="M75.6,14.4c-2.1,0.8-4.8,2.1-6.4,3.6l1.3-3.6l-1.3-3.6C70.8,12.3,73.4,13.7,75.6,14.4z"/>
			</g>
		</g>
	</g>
	<g class="st1">
		<path d="M65.4,17.3c-0.1,0-0.2,0-0.4,0c-0.8,0.1-1.3,0.7-1.4,1.4h0c0.2-0.2,0.5-0.4,0.9-0.4c0.7,0,1.2,0.5,1.2,1.3
			c0,0.7-0.5,1.4-1.3,1.4c-0.8,0-1.4-0.6-1.4-1.7c0-0.8,0.3-1.4,0.7-1.8c0.3-0.3,0.8-0.5,1.2-0.6c0.2,0,0.3,0,0.4,0V17.3z
			 M65.2,19.5c0-0.6-0.3-0.9-0.8-0.9c-0.3,0-0.6,0.2-0.8,0.5c0,0.1-0.1,0.1-0.1,0.2c0,0.6,0.3,1.1,0.9,1.1
			C64.9,20.5,65.2,20.1,65.2,19.5z"/>
	</g>
</g>
<g id="Stroke4" class="st0">
	<g class="st1">
		<path d="M44.9,38.6h-30v55.7H8.2V5.7h36.6V38.6z M38.4,10.9H14.8v8.5h23.6V10.9z M14.8,33.4h23.6v-9H14.8V33.4z M60.8,5.7
			c0,0,0.4,4.3,0,5.2v8.5v5v9.1c-0.1,0.8,0,5.2,0,5.2h-6.5v-33"/>
	</g>
	<g class="st1">
		<path d="M65.2,5.7c0,0.7,0,10.4,0,10.4"/>
		<g>
			<rect x="64.4" y="5.7" width="1.5" height="5.9"/>
			<g>
				<path d="M65.2,16.1c-0.8-2.1-2.1-4.8-3.6-6.4l3.6,1.3l3.6-1.3C67.3,11.3,66,14,65.2,16.1z"/>
			</g>
		</g>
	</g>
	<g class="st1">
		<path d="M70.3,5.7h-1.5l-0.1,1c0.1,0,0.2,0,0.3,0c0.3,0,0.6,0.1,0.8,0.2c0.3,0.2,0.6,0.5,0.6,1c0,0.8-0.6,1.3-1.5,1.3
			c-0.4,0-0.8-0.1-1-0.2l0.1-0.4c0.2,0.1,0.5,0.2,0.8,0.2c0.5,0,0.9-0.3,0.9-0.8c0-0.5-0.3-0.9-1.1-0.9c-0.2,0-0.4,0-0.5,0l0.3-1.9
			h1.9V5.7z"/>
	</g>
</g>
<g id="Stroke3" class="st0">
	<g class="st1">
		<path d="M44.9,38.6h-30v55.7H8.2V5.7h36.6V38.6z M38.4,10.9H14.8v8.5h23.6V10.9z M14.8,33.4h23.6v-9H14.8V33.4z M67.3,91.9h-6.2"
			/>
	</g>
	<g class="st1">
		<line x1="16.4" y1="42.7" x2="28.7" y2="42.7"/>
		<g>
			<rect x="16.4" y="42" width="7.8" height="1.5"/>
			<g>
				<path d="M28.7,42.7c-2.1,0.8-4.8,2.1-6.4,3.6l1.3-3.6l-1.3-3.6C23.9,40.6,26.6,42,28.7,42.7z"/>
			</g>
		</g>
	</g>
	<g class="st1">
		<path d="M18.3,49v-1.1h-1.8v-0.3l1.7-2.5h0.6v2.4h0.5v0.4h-0.5V49H18.3z M18.3,47.5v-1.3c0-0.2,0-0.4,0-0.6h0
			c-0.1,0.2-0.2,0.4-0.3,0.6l-1,1.3v0H18.3z"/>
	</g>
</g>
<g id="Stroke2" class="st0">
	<g class="st1">
		<path d="M38.4,38.7V24.4H14.8v69.9H8.2V5.7h36.6v32.9 M38.4,10.9H14.8v8.5h23.6V10.9z"/>
	</g>
	<g class="st1">
		<line x1="16.2" y1="28.2" x2="28.6" y2="28.2"/>
		<g>
			<rect x="16.2" y="27.5" width="7.9" height="1.5"/>
			<g>
				<path d="M28.6,28.2c-2.1,0.8-4.8,2.1-6.4,3.6l1.3-3.6l-1.3-3.6C23.8,26.1,26.5,27.4,28.6,28.2z"/>
			</g>
		</g>
	</g>
	<g class="st1">
		<path d="M16.9,34.2c0.1,0.1,0.5,0.2,0.9,0.2c0.7,0,0.9-0.4,0.9-0.8c0-0.5-0.5-0.8-1-0.8h-0.3v-0.4h0.3c0.4,0,0.9-0.2,0.9-0.7
			c0-0.3-0.2-0.6-0.7-0.6c-0.3,0-0.6,0.1-0.8,0.3L17,31.1c0.2-0.1,0.6-0.3,1-0.3c0.8,0,1.1,0.5,1.1,0.9c0,0.4-0.2,0.7-0.7,0.9v0
			c0.5,0.1,0.9,0.5,0.9,1c0,0.6-0.5,1.2-1.4,1.2c-0.4,0-0.8-0.1-1-0.3L16.9,34.2z"/>
	</g>
</g>
<g id="Stroke1" class="st0">
	<g class="st1">
		<path d="M38.4,33.4v-9v-5v-8.5H14.8v83.4H8.2V5.7h36.6v32.9h-6.3 M22.7,80.4 M67.3,91.9h-6.2"/>
	</g>
	<g class="st1">
		<line x1="16.5" y1="14.7" x2="29.4" y2="14.7"/>
		<g>
			<line class="st2" x1="16.5" y1="14.7" x2="24.8" y2="14.7"/>
			<g>
				<path d="M29.4,14.7c-2.1,0.8-4.8,2.1-6.4,3.6l1.3-3.6L23,11.2C24.6,12.6,27.2,13.9,29.4,14.7z"/>
			</g>
		</g>
	</g>
	<g class="st1">
		<path d="M16.8,21.9v-0.3l0.4-0.4c1-0.9,1.4-1.5,1.5-2c0-0.4-0.2-0.8-0.8-0.8c-0.4,0-0.6,0.2-0.8,0.3l-0.2-0.4
			c0.3-0.2,0.7-0.4,1.1-0.4c0.8,0,1.2,0.6,1.2,1.1c0,0.7-0.5,1.3-1.3,2.1l-0.3,0.3v0h1.8v0.4H16.8z"/>
	</g>
</g>
<g id="Stroke0" class="st0">
	<g class="st1">
		<path d="M14.8,5.7v5.2v8.5v5v9v5.2v55.7H8.2V5.7 M22.7,80.4 M67.3,91.9h-6.2"/>
	</g>
	<g class="st1">
		<path d="M19.5,6.3c0,0.6,0,12.6,0,12.6"/>
		<g>
			<rect x="18.7" y="6.3" width="1.5" height="8.1"/>
			<g>
				<path d="M19.5,18.9c-0.8-2.1-2.1-4.8-3.6-6.4l3.6,1.3l3.6-1.3C21.6,14.1,20.2,16.7,19.5,18.9z"/>
			</g>
		</g>
	</g>
	<g class="st1">
		<path d="M24.2,7.2L24.2,7.2l-0.7,0.4l-0.1-0.4l0.9-0.5h0.4v3.9h-0.5V7.2z"/>
	</g>
</g>
<g id="Kanji" class="st0">
	<g class="st1">
		<path d="M44.9,38.6h-30v55.7H8.2V5.7h36.6V38.6z M38.4,10.9H14.8v8.5h23.6V10.9z M14.8,33.4h23.6v-9H14.8V33.4z M75,49.7h-7.7
			v42.2h-6.2v-8.4c-13.3,1-26.6,1.8-35.1,2.3c-0.1,0.8-0.8,1.2-1.4,1.3l-1.8-6.7l9.2-0.4V49.7H24v-5.1H75V49.7z M61.1,56.2v-6.5
			H37.9v6.5H61.1z M61.1,67.4v-6.7H37.9v6.7H61.1z M37.9,71.9v7.8c7.1-0.3,15.1-0.7,23.1-1.2v-6.6H37.9z M91.8,5.7v79.4
			c0,8.6-4,9-19.2,9c-0.2-1.9-1.2-5-2.2-6.9c3.4,0.1,6.6,0.2,9,0.2c5.2,0,5.8,0,5.8-2.3V38.7H54.3v-33H91.8z M85.2,10.9H60.8v8.5
			h24.4V10.9z M60.8,33.5h24.4v-9.1H60.8V33.5z"/>
	</g>
</g>
</svg>
