<?xml version="1.0" encoding="utf-8"?>
<!-- Generator: Adobe Illustrator 26.2.1, SVG Export Plug-In . SVG Version: 6.00 Build 0)  -->
<svg version="1.1" xmlns="http://www.w3.org/2000/svg" xmlns:xlink="http://www.w3.org/1999/xlink" x="0px" y="0px"
	 viewBox="0 0 100 100" style="enable-background:new 0 0 100 100;" xml:space="preserve" width = "100px" height = "100px">
<style type="text/css">
	.st0{display:none;}
	.st1{display:inline;}
</style>


		<path d="M44.9,38.6h-30v55.7H8.2V5.7h36.6V38.6z M38.4,10.9H14.8v8.5h23.6V10.9z M14.8,33.4h23.6v-9H14.8V33.4z M31.9,49.7H24
			v-5.1H75v5.1h-7.7 M75,44.6v5.1c0,0-16.8,0-13.9,0H37.9 M91.8,5.7v79.4c0,8.6-4,9-19.2,9c-0.2-1.9-1.2-5-2.2-6.9
			c3.4,0.1,6.6,0.2,9,0.2c5.2,0,5.8,0,5.8-2.3V38.7H54.3v-33H91.8z M85.2,10.9H60.8v8.5h24.4V10.9z M60.8,33.5h24.4v-9.1H60.8V33.5z
			"/>


		<path d="M24,54.1c0.6,0,12.1,0,12.1,0"/>
	
			<rect x="24" y="53.4" width="7.6" height="1.5"/>
	
				<path d="M36.2,54.1c-2.1,0.8-4.8,2.1-6.4,3.6l1.3-3.6l-1.3-3.6C31.4,52,34.1,53.3,36.2,54.1z"/>

		<path d="M24.6,60.3c0.1,0,0.2,0,0.4,0c0.3,0,0.6-0.2,0.8-0.4c0.3-0.2,0.4-0.6,0.5-1h0c-0.2,0.3-0.5,0.4-0.9,0.4
			c-0.7,0-1.2-0.5-1.2-1.2c0-0.7,0.5-1.4,1.3-1.4s1.3,0.6,1.3,1.6c0,0.9-0.3,1.5-0.7,1.8c-0.3,0.3-0.7,0.5-1.1,0.5
			c-0.2,0-0.4,0-0.5,0V60.3z M24.8,58.1c0,0.5,0.3,0.8,0.7,0.8c0.4,0,0.6-0.2,0.8-0.4c0,0,0-0.1,0-0.2c0-0.7-0.2-1.2-0.8-1.2
			C25.1,57.1,24.8,57.5,24.8,58.1z"/>

 </svg>