<?xml version="1.0" encoding="utf-8"?>
<!-- Generator: Adobe Illustrator 26.2.1, SVG Export Plug-In . SVG Version: 6.00 Build 0)  -->
<svg version="1.1" xmlns="http://www.w3.org/2000/svg" xmlns:xlink="http://www.w3.org/1999/xlink" x="0px" y="0px"
	 viewBox="0 0 100 100" style="enable-background:new 0 0 100 100;" xml:space="preserve" width = "100px" height = "100px">
<style type="text/css">
	.st0{display:none;}
	.st1{display:inline;}
</style> 


		<path d="M44.9,38.6h-30v55.7H8.2V5.7h36.6V38.6z M38.4,10.9H14.8v8.5h23.6V10.9z M14.8,33.4h23.6v-9H14.8V33.4z M67.3,91.9h-6.2"
			/>


		<line x1="16.4" y1="42.7" x2="28.7" y2="42.7"/>

			<rect x="16.4" y="42" width="7.8" height="1.5"/>

				<path d="M28.7,42.7c-2.1,0.8-4.8,2.1-6.4,3.6l1.3-3.6l-1.3-3.6C23.9,40.6,26.6,42,28.7,42.7z"/>


		<path d="M18.3,49v-1.1h-1.8v-0.3l1.7-2.5h0.6v2.4h0.5v0.4h-0.5V49H18.3z M18.3,47.5v-1.3c0-0.2,0-0.4,0-0.6h0
			c-0.1,0.2-0.2,0.4-0.3,0.6l-1,1.3v0H18.3z"/>


</svg>