<?xml version="1.0" encoding="utf-8"?>
<!-- Generator: Adobe Illustrator 26.2.1, SVG Export Plug-In . SVG Version: 6.00 Build 0)  -->
<svg version="1.1" xmlns="http://www.w3.org/2000/svg" xmlns:xlink="http://www.w3.org/1999/xlink" x="0px" y="0px"
	 viewBox="0 0 100 100" style="enable-background:new 0 0 100 100;" xml:space="preserve" width = "100px" height = "100px">
<style type="text/css">
	.st0{display:none;}
	.st1{display:inline;}
</style> 

		<path d="M38.4,38.7V24.4H14.8v69.9H8.2V5.7h36.6v32.9 M38.4,10.9H14.8v8.5h23.6V10.9z"/>

		<line x1="16.2" y1="28.2" x2="28.6" y2="28.2"/>

			<rect x="16.2" y="27.5" width="7.9" height="1.5"/>

				<path d="M28.6,28.2c-2.1,0.8-4.8,2.1-6.4,3.6l1.3-3.6l-1.3-3.6C23.8,26.1,26.5,27.4,28.6,28.2z"/>

		<path d="M16.9,34.2c0.1,0.1,0.5,0.2,0.9,0.2c0.7,0,0.9-0.4,0.9-0.8c0-0.5-0.5-0.8-1-0.8h-0.3v-0.4h0.3c0.4,0,0.9-0.2,0.9-0.7
			c0-0.3-0.2-0.6-0.7-0.6c-0.3,0-0.6,0.1-0.8,0.3L17,31.1c0.2-0.1,0.6-0.3,1-0.3c0.8,0,1.1,0.5,1.1,0.9c0,0.4-0.2,0.7-0.7,0.9v0
			c0.5,0.1,0.9,0.5,0.9,1c0,0.6-0.5,1.2-1.4,1.2c-0.4,0-0.8-0.1-1-0.3L16.9,34.2z"/>


</svg>