<?xml version="1.0" encoding="utf-8"?>
<!-- Generator: Adobe Illustrator 26.2.1, SVG Export Plug-In . SVG Version: 6.00 Build 0)  -->
<svg version="1.1" xmlns="http://www.w3.org/2000/svg" xmlns:xlink="http://www.w3.org/1999/xlink" x="0px" y="0px"
	 viewBox="0 0 100 100" style="enable-background:new 0 0 100 100;" xml:space="preserve" width = "100px" height = "100px">
<style type="text/css">
	.st0{display:none;}
	.st1{display:inline;}
</style>


		<path d="M44.9,38.6h-30v55.7H8.2V5.7h36.6V38.6z M38.4,10.9H14.8v8.5h23.6V10.9z M14.8,33.4h23.6v-9H14.8V33.4z M91.8,5.7v79.4
			c0,8.6-4,9-19.2,9c-0.2-1.9-1.2-5-2.2-6.9c3.4,0.1,6.6,0.2,9,0.2c5.2,0,5.8,0,5.8-2.3V38.7H54.3v-33H91.8z M85.2,38.7V10.9H60.8
			v27.8"/>


		<path d="M62.9,14.4c0.6,0,12.7,0,12.7,0"/>
	
			<rect x="62.9" y="13.7" width="8.2" height="1.5"/>
	
				<path d="M75.6,14.4c-2.1,0.8-4.8,2.1-6.4,3.6l1.3-3.6l-1.3-3.6C70.8,12.3,73.4,13.7,75.6,14.4z"/>

		<path d="M65.4,17.3c-0.1,0-0.2,0-0.4,0c-0.8,0.1-1.3,0.7-1.4,1.4h0c0.2-0.2,0.5-0.4,0.9-0.4c0.7,0,1.2,0.5,1.2,1.3
			c0,0.7-0.5,1.4-1.3,1.4c-0.8,0-1.4-0.6-1.4-1.7c0-0.8,0.3-1.4,0.7-1.8c0.3-0.3,0.8-0.5,1.2-0.6c0.2,0,0.3,0,0.4,0V17.3z
			 M65.2,19.5c0-0.6-0.3-0.9-0.8-0.9c-0.3,0-0.6,0.2-0.8,0.5c0,0.1-0.1,0.1-0.1,0.2c0,0.6,0.3,1.1,0.9,1.1
			C64.9,20.5,65.2,20.1,65.2,19.5z"/>




 </svg>