<?xml version="1.0" encoding="utf-8"?>
<!-- Generator: Adobe Illustrator 26.2.1, SVG Export Plug-In . SVG Version: 6.00 Build 0)  -->
<svg version="1.1" xmlns="http://www.w3.org/2000/svg" xmlns:xlink="http://www.w3.org/1999/xlink" x="0px" y="0px"
	 viewBox="0 0 100 100" style="enable-background:new 0 0 100 100;" xml:space="preserve" width = "100px" height = "100px">
<style type="text/css">
	.st0{display:none;}
	.st1{display:inline;}
</style> 



		<path d="M14.8,5.7v5.2v8.5v5v9v5.2v55.7H8.2V5.7 M22.7,80.4 M67.3,91.9h-6.2"/>


		<path d="M19.5,6.3c0,0.6,0,12.6,0,12.6"/>
	
			<rect x="18.7" y="6.3" width="1.5" height="8.1"/>

				<path d="M19.5,18.9c-0.8-2.1-2.1-4.8-3.6-6.4l3.6,1.3l3.6-1.3C21.6,14.1,20.2,16.7,19.5,18.9z"/>

		<path d="M24.2,7.2L24.2,7.2l-0.7,0.4l-0.1-0.4l0.9-0.5h0.4v3.9h-0.5V7.2z"/>


</svg>