<?xml version="1.0" encoding="utf-8"?>
<!-- Generator: Adobe Illustrator 26.2.1, SVG Export Plug-In . SVG Version: 6.00 Build 0)  -->
<svg version="1.1" xmlns="http://www.w3.org/2000/svg" xmlns:xlink="http://www.w3.org/1999/xlink" x="0px" y="0px"
	 viewBox="0 0 100 100" style="enable-background:new 0 0 100 100;" xml:space="preserve" width = "100px" height = "100px">
<style type="text/css">
	.st0{display:none;}
	.st1{display:inline;}
</style> 

		<path d="M44.9,38.6h-30v55.7H8.2V5.7h36.6V38.6z M38.4,10.9H14.8v8.5h23.6V10.9z M14.8,33.4h23.6v-9H14.8V33.4z M61.1,49.7H37.9
			v6.5v4.5v6.7v4.5v7.8l-6,0.3V49.7H24v-5.1H75v5.1h-7.7 M91.8,5.7v79.4c0,8.6-4,9-19.2,9c-0.2-1.9-1.2-5-2.2-6.9
			c3.4,0.1,6.6,0.2,9,0.2c5.2,0,5.8,0,5.8-2.3V38.7H54.3v-33H91.8z M85.2,10.9H60.8v8.5h24.4V10.9z M60.8,33.5h24.4v-9.1H60.8V33.5z
			"/>


		<path d="M41.6,50.8c0,2,0,11.5,0,11.5"/>

			<rect x="40.8" y="50.8" width="1.5" height="6.9"/>

				<path d="M41.6,62.3c-0.8-2.1-2.1-4.8-3.6-6.4l3.6,1.3l3.6-1.3C43.7,57.5,42.4,60.2,41.6,62.3z"/>


		<path d="M45.5,51.5L45.5,51.5l-0.7,0.4l-0.1-0.4l0.9-0.5H46v3.9h-0.5V51.5z"/>
		<path d="M50,52.9c0,1.3-0.5,2.1-1.4,2.1c-0.8,0-1.3-0.7-1.3-2c0-1.3,0.6-2,1.4-2C49.6,50.9,50,51.7,50,52.9z M47.9,53
			c0,1,0.3,1.6,0.8,1.6c0.5,0,0.8-0.6,0.8-1.6c0-1-0.2-1.6-0.8-1.6C48.2,51.3,47.9,51.9,47.9,53z"/>

</svg>