<?xml version="1.0" encoding="utf-8"?>
<!-- Generator: Adobe Illustrator 26.2.1, SVG Export Plug-In . SVG Version: 6.00 Build 0)  -->
<svg version="1.1" xmlns="http://www.w3.org/2000/svg" xmlns:xlink="http://www.w3.org/1999/xlink" x="0px" y="0px"
	 viewBox="0 0 100 100" style="enable-background:new 0 0 100 100;" xml:space="preserve" width = "100px" height = "100px">
<style type="text/css">
	.st0{display:none;}
	.st1{display:inline;}
</style> 

		<path d="M44.9,38.6h-30v55.7H8.2V5.7h36.6V38.6z M38.4,10.9H14.8v8.5h23.6V10.9z M14.8,33.4h23.6v-9H14.8V33.4z M85.2,10.9H60.8
			v8.5h24.4V10.9z M60.8,38.8l-6.5-0.1v-33h37.5v79.4c0,8.6-4,9-19.2,9c-0.2-1.9-1.2-5-2.2-6.9c3.4,0.1,6.6,0.2,9,0.2
			c5.2,0,5.8,0,5.8-2.3V24.4H60.8"/>

		<line x1="61.8" y1="28.3" x2="75.6" y2="28.3"/>

			<rect x="61.8" y="27.6" width="9.2" height="1.5"/>

				<path d="M75.6,28.3c-2.1,0.8-4.8,2.1-6.4,3.6l1.3-3.6l-1.3-3.6C70.8,26.2,73.4,27.5,75.6,28.3z"/>

		<path d="M64.6,30v0.3l-1.7,3.5h-0.5l1.7-3.4v0h-1.9V30H64.6z"/>


</svg>