<?xml version="1.0" encoding="utf-8"?>
<!-- Generator: Adobe Illustrator 26.2.1, SVG Export Plug-In . SVG Version: 6.00 Build 0)  -->
<svg version="1.1" xmlns="http://www.w3.org/2000/svg" xmlns:xlink="http://www.w3.org/1999/xlink" x="0px" y="0px"
	 viewBox="0 0 100 100" style="enable-background:new 0 0 100 100;" xml:space="preserve" width = "100px" height = "100px">
<style type="text/css">
	.st0{display:none;}
	.st1{display:inline;}
</style> 

		<path d="M44.9,38.6h-30v55.7H8.2V5.7h36.6V38.6z M38.4,10.9H14.8v8.5h23.6V10.9z M14.8,33.4h23.6v-9H14.8V33.4z M75,49.7h-7.7
			v42.2h-6.2v-8.4c-13.3,1-26.6,1.8-35.1,2.3c-0.1,0.8-0.8,1.2-1.4,1.3l-1.8-6.7l9.2-0.4V49.7H24v-5.1H75V49.7z M61.1,56.2v-6.5
			H37.9v6.5H61.1z M61.1,67.4v-6.7H37.9v6.7H61.1z M37.9,71.9v7.8c7.1-0.3,15.1-0.7,23.1-1.2v-6.6H37.9z M91.8,5.7v79.4
			c0,8.6-4,9-19.2,9c-0.2-1.9-1.2-5-2.2-6.9c3.4,0.1,6.6,0.2,9,0.2c5.2,0,5.8,0,5.8-2.3V38.7H54.3v-33H91.8z M85.2,10.9H60.8v8.5
			h24.4V10.9z M60.8,33.5h24.4v-9.1H60.8V33.5z"/>

		<line x1="71.1" y1="51.9" x2="71.1" y2="63.6"/>
	
			<rect x="70.4" y="51.9" width="1.5" height="7.2"/>

				<path d="M71.1,63.6c-0.8-2.1-2.1-4.8-3.6-6.4l3.6,1.3l3.6-1.3C73.3,58.9,71.9,61.5,71.1,63.6z"/>

		<path d="M74.5,51.5L74.5,51.5l-0.7,0.4l-0.1-0.4l0.9-0.5H75v3.9h-0.5V51.5z"/>
		<path d="M78.1,54.9v-1.1h-1.8v-0.3L78,51h0.6v2.4h0.5v0.4h-0.5v1.1H78.1z M78.1,53.4v-1.3c0-0.2,0-0.4,0-0.6h0
			c-0.1,0.2-0.2,0.4-0.3,0.6l-1,1.3v0H78.1z"/>

</svg>