<?xml version="1.0" encoding="utf-8"?>
<!-- Generator: Adobe Illustrator 26.2.1, SVG Export Plug-In . SVG Version: 6.00 Build 0)  -->
<svg version="1.1" xmlns="http://www.w3.org/2000/svg" xmlns:xlink="http://www.w3.org/1999/xlink" x="0px" y="0px"
	 viewBox="0 0 100 100" style="enable-background:new 0 0 100 100;" xml:space="preserve">
<style type="text/css">
	.st0{fill:none;}
	.st1{display:none;}
	.st2{display:inline;fill:none;}
	.st3{display:inline;}
</style>
<g id="Stroke3">
	<rect x="17.2" y="27.6" class="st0" width="12.6" height="0"/>
	<g>
		<path d="M90,6.1v77.6c0,5.2-1.4,7.5-5.1,8.7s-10.4,1.3-21.3,1.2c-0.5-1.9-1.8-5.1-2.9-7.1c4.8,0.2,9.4,0.3,13,0.3
			c8.7,0,9.3,0,9.3-3.1V61.5H33.4C30.8,73.2,25.6,85,15,93.9c-1-1.5-3.5-4-5-5c17.2-14.6,18.9-35.3,18.9-51.9V6.1H90z M35.7,36.9
			c0,5.1-0.2,11.4-1.1,18H83v-18H35.7z M83,12.7H35.7v17.8H83V12.7z"/>
	</g>
	<g>
		<line x1="37.5" y1="66.7" x2="66.3" y2="66.7"/>
		<g>
			<rect x="37.5" y="65.9" width="24.2" height="1.5"/>
			<g>
				<path d="M66.3,66.7c-2.1,0.8-4.8,2.1-6.4,3.6l1.3-3.6l-1.3-3.6C61.5,64.5,64.1,65.9,66.3,66.7z"/>
			</g>
		</g>
	</g>
	<g>
		<path d="M39.4,72.8v-1.1h-1.8v-0.3l1.7-2.5h0.6v2.4h0.5v0.4h-0.5v1.1H39.4z M39.4,71.3V70c0-0.2,0-0.4,0-0.6h0
			c-0.1,0.2-0.2,0.4-0.3,0.6l-1,1.3v0H39.4z"/>
	</g>
</g>
<g id="Stroke2" class="st1">
	<rect x="17.2" y="27.6" class="st2" width="12.6" height="0"/>
	<g class="st3">
		<path d="M33.4,61.5C30.8,73.2,25.6,85,15,93.9c-1-1.5-3.5-4-5-5c17.2-14.6,18.9-35.3,18.9-51.9V6.1h61v77.6c0,5.2-1.4,7.5-5.1,8.7
			s-10.4,1.3-21.3,1.2c-0.5-1.9-1.8-5.1-2.9-7.1c4.8,0.2,9.4,0.3,13,0.3c8.7,0,9.3,0,9.3-3.1V36.9H35.7c0,5.1-0.2,11.4-1.1,18
			 M83,12.7H35.7v17.8H83V12.7z"/>
	</g>
	<g class="st3">
		<line x1="38.8" y1="41.5" x2="72.9" y2="41.5"/>
		<g>
			<rect x="38.8" y="40.8" width="29.6" height="1.5"/>
			<g>
				<path d="M72.9,41.5c-2.1,0.8-4.8,2.1-6.4,3.6l1.3-3.6L66.5,38C68.2,39.4,70.8,40.7,72.9,41.5z"/>
			</g>
		</g>
	</g>
	<g class="st3">
		<path d="M39.8,48.5c0.1,0.1,0.5,0.2,0.9,0.2c0.7,0,0.9-0.4,0.9-0.8c0-0.5-0.5-0.8-1-0.8h-0.3v-0.4h0.3c0.4,0,0.9-0.2,0.9-0.7
			c0-0.3-0.2-0.6-0.7-0.6c-0.3,0-0.6,0.1-0.8,0.3l-0.1-0.4c0.2-0.1,0.6-0.3,1-0.3c0.8,0,1.1,0.5,1.1,0.9c0,0.4-0.2,0.7-0.7,0.9v0
			c0.5,0.1,0.9,0.5,0.9,1c0,0.6-0.5,1.2-1.4,1.2c-0.4,0-0.8-0.1-1-0.3L39.8,48.5z"/>
	</g>
</g>
<g id="Stroke1" class="st1">
	<rect x="17.2" y="27.6" class="st2" width="12.6" height="0"/>
	<g class="st3">
		<path d="M35.7,36.9c0,5.1-0.2,11.4-1.1,18l-1.2,6.5C30.8,73.2,25.6,85,15,93.9c-1-1.5-3.5-4-5-5c17.2-14.6,18.9-35.3,18.9-51.9
			V6.1h61v77.6c0,5.2-1.4,7.5-5.1,8.7s-10.4,1.3-21.3,1.2c-0.5-1.9-1.8-5.1-2.9-7.1c4.8,0.2,9.4,0.3,13,0.3c8.7,0,9.3,0,9.3-3.1v-71
			H35.7v17.8V36.9z"/>
	</g>
	<g class="st3">
		<path d="M79.1,27.1h-1.5V19c0-1.6-1.3-2.8-2.8-2.8H42.9v-1.5h31.9c2.4,0,4.3,1.9,4.3,4.3V27.1z"/>
		<g>
			<path d="M78.4,31.6c-0.8-2.1-2.1-4.8-3.6-6.4l3.6,1.3l3.6-1.3C80.5,26.8,79.2,29.5,78.4,31.6z"/>
		</g>
	</g>
	<g class="st3">
		<path d="M42.9,22.9v-0.3l0.4-0.4c1-0.9,1.4-1.5,1.5-2c0-0.4-0.2-0.8-0.8-0.8c-0.4,0-0.6,0.2-0.8,0.3L43,19.4
			c0.3-0.2,0.7-0.4,1.1-0.4c0.8,0,1.2,0.6,1.2,1.1c0,0.7-0.5,1.3-1.3,2.1l-0.3,0.3v0h1.8v0.4H42.9z"/>
	</g>
</g>
<g id="Stroke0" class="st1">
	<rect x="17.2" y="27.6" class="st2" width="12.6" height="0"/>
	<g class="st3">
		<path d="M35.7,6.1v6.6v17.8v6.4c0,5.1-0.2,11.4-1.1,18l-1.2,6.5C30.8,73.2,25.6,85,15,93.9c-1-1.5-3.5-4-5-5
			c17.2-14.6,18.9-35.3,18.9-51.9V6.1"/>
	</g>
	<g class="st3">
		<line x1="40.6" y1="7" x2="40.6" y2="27.5"/>
		<g>
			<rect x="39.8" y="7" width="1.5" height="16"/>
			<g>
				<path d="M40.6,27.5c-0.8-2.1-2.1-4.8-3.6-6.4l3.6,1.3l3.6-1.3C42.7,22.8,41.3,25.4,40.6,27.5z"/>
			</g>
		</g>
	</g>
	<g class="st3">
		<path d="M45.5,8.8L45.5,8.8l-0.7,0.4l-0.1-0.4l0.9-0.5H46v3.9h-0.5V8.8z"/>
	</g>
</g>
<g id="Kanji" class="st1">
	<rect x="17.2" y="27.6" class="st2" width="12.6" height="0"/>
	<g class="st3">
		<path d="M90,6.1v77.6c0,5.2-1.4,7.5-5.1,8.7s-10.4,1.3-21.3,1.2c-0.5-1.9-1.8-5.1-2.9-7.1c4.8,0.2,9.4,0.3,13,0.3
			c8.7,0,9.3,0,9.3-3.1V61.5H33.4C30.8,73.2,25.6,85,15,93.9c-1-1.5-3.5-4-5-5c17.2-14.6,18.9-35.3,18.9-51.9V6.1H90z M35.7,36.9
			c0,5.1-0.2,11.4-1.1,18H83v-18H35.7z M83,12.7H35.7v17.8H83V12.7z"/>
	</g>
</g>
</svg>
