<?xml version="1.0" encoding="utf-8"?>
<!-- Generator: Adobe Illustrator 26.2.1, SVG Export Plug-In . SVG Version: 6.00 Build 0)  -->
<svg version="1.1" xmlns="http://www.w3.org/2000/svg" xmlns:xlink="http://www.w3.org/1999/xlink" x="0px" y="0px"
	 viewBox="0 0 100 100" style="enable-background:new 0 0 100 100;" xml:space="preserve" width = "100px" height = "100px">
<style type="text/css">
	.st0{display:none;}
	.st1{display:inline;}
</style> 




	<rect x="17.2" y="27.6" class="st0" width="12.6" height="0"/>
	
		<path d="M90,6.1v77.6c0,5.2-1.4,7.5-5.1,8.7s-10.4,1.3-21.3,1.2c-0.5-1.9-1.8-5.1-2.9-7.1c4.8,0.2,9.4,0.3,13,0.3
			c8.7,0,9.3,0,9.3-3.1V61.5H33.4C30.8,73.2,25.6,85,15,93.9c-1-1.5-3.5-4-5-5c17.2-14.6,18.9-35.3,18.9-51.9V6.1H90z M35.7,36.9
			c0,5.1-0.2,11.4-1.1,18H83v-18H35.7z M83,12.7H35.7v17.8H83V12.7z"/>

		<line x1="37.5" y1="66.7" x2="66.3" y2="66.7"/>
	
			<rect x="37.5" y="65.9" width="24.2" height="1.5"/>
		
				<path d="M66.3,66.7c-2.1,0.8-4.8,2.1-6.4,3.6l1.3-3.6l-1.3-3.6C61.5,64.5,64.1,65.9,66.3,66.7z"/>
	
		<path d="M39.4,72.8v-1.1h-1.8v-0.3l1.7-2.5h0.6v2.4h0.5v0.4h-0.5v1.1H39.4z M39.4,71.3V70c0-0.2,0-0.4,0-0.6h0
			c-0.1,0.2-0.2,0.4-0.3,0.6l-1,1.3v0H39.4z"/>


</svg>