<?xml version="1.0" encoding="utf-8"?>
<!-- Generator: Adobe Illustrator 26.2.1, SVG Export Plug-In . SVG Version: 6.00 Build 0)  -->
<svg version="1.1" xmlns="http://www.w3.org/2000/svg" xmlns:xlink="http://www.w3.org/1999/xlink" x="0px" y="0px"
	 viewBox="0 0 100 100" style="enable-background:new 0 0 100 100;" xml:space="preserve" width = "100px" height = "100px">
<style type="text/css">
	.st0{display:none;}
	.st1{display:inline;}
</style> 

	<rect x="17.2" y="27.6" class="st2" width="12.6" height="0"/>

		<path d="M33.4,61.5C30.8,73.2,25.6,85,15,93.9c-1-1.5-3.5-4-5-5c17.2-14.6,18.9-35.3,18.9-51.9V6.1h61v77.6c0,5.2-1.4,7.5-5.1,8.7
			s-10.4,1.3-21.3,1.2c-0.5-1.9-1.8-5.1-2.9-7.1c4.8,0.2,9.4,0.3,13,0.3c8.7,0,9.3,0,9.3-3.1V36.9H35.7c0,5.1-0.2,11.4-1.1,18
			 M83,12.7H35.7v17.8H83V12.7z"/>


		<line x1="38.8" y1="41.5" x2="72.9" y2="41.5"/>
	
			<rect x="38.8" y="40.8" width="29.6" height="1.5"/>
		
				<path d="M72.9,41.5c-2.1,0.8-4.8,2.1-6.4,3.6l1.3-3.6L66.5,38C68.2,39.4,70.8,40.7,72.9,41.5z"/>

		<path d="M39.8,48.5c0.1,0.1,0.5,0.2,0.9,0.2c0.7,0,0.9-0.4,0.9-0.8c0-0.5-0.5-0.8-1-0.8h-0.3v-0.4h0.3c0.4,0,0.9-0.2,0.9-0.7
			c0-0.3-0.2-0.6-0.7-0.6c-0.3,0-0.6,0.1-0.8,0.3l-0.1-0.4c0.2-0.1,0.6-0.3,1-0.3c0.8,0,1.1,0.5,1.1,0.9c0,0.4-0.2,0.7-0.7,0.9v0
			c0.5,0.1,0.9,0.5,0.9,1c0,0.6-0.5,1.2-1.4,1.2c-0.4,0-0.8-0.1-1-0.3L39.8,48.5z"/>


</svg>