<?xml version="1.0" encoding="utf-8"?>
<!-- Generator: Adobe Illustrator 26.2.1, SVG Export Plug-In . SVG Version: 6.00 Build 0)  -->
<svg version="1.1" xmlns="http://www.w3.org/2000/svg" xmlns:xlink="http://www.w3.org/1999/xlink" x="0px" y="0px"
	 viewBox="0 0 100 100" style="enable-background:new 0 0 100 100;" xml:space="preserve" width = "100px" height = "100px">
<style type="text/css">
	.st0{display:none;}
	.st1{display:inline;}
</style> 

	<rect x="17.2" y="27.6" class="st2" width="12.6" height="0"/>

		<path d="M35.7,6.1v6.6v17.8v6.4c0,5.1-0.2,11.4-1.1,18l-1.2,6.5C30.8,73.2,25.6,85,15,93.9c-1-1.5-3.5-4-5-5
			c17.2-14.6,18.9-35.3,18.9-51.9V6.1"/>

		<line x1="40.6" y1="7" x2="40.6" y2="27.5"/>

			<rect x="39.8" y="7" width="1.5" height="16"/>

				<path d="M40.6,27.5c-0.8-2.1-2.1-4.8-3.6-6.4l3.6,1.3l3.6-1.3C42.7,22.8,41.3,25.4,40.6,27.5z"/>

		<path d="M45.5,8.8L45.5,8.8l-0.7,0.4l-0.1-0.4l0.9-0.5H46v3.9h-0.5V8.8z"/>

</svg>