<?xml version="1.0" encoding="utf-8"?>
<!-- Generator: Adobe Illustrator 26.2.1, SVG Export Plug-In . SVG Version: 6.00 Build 0)  -->
<svg version="1.1" xmlns="http://www.w3.org/2000/svg" xmlns:xlink="http://www.w3.org/1999/xlink" x="0px" y="0px"
	 viewBox="0 0 100 100" style="enable-background:new 0 0 100 100;" xml:space="preserve" width = "100px" height = "100px">
<style type="text/css">
	.st0{display:none;}
	.st1{display:inline;}
</style>

	<rect x="17.2" y="27.6" class="st2" width="12.6" height="0"/>

		<path d="M35.7,36.9c0,5.1-0.2,11.4-1.1,18l-1.2,6.5C30.8,73.2,25.6,85,15,93.9c-1-1.5-3.5-4-5-5c17.2-14.6,18.9-35.3,18.9-51.9
			V6.1h61v77.6c0,5.2-1.4,7.5-5.1,8.7s-10.4,1.3-21.3,1.2c-0.5-1.9-1.8-5.1-2.9-7.1c4.8,0.2,9.4,0.3,13,0.3c8.7,0,9.3,0,9.3-3.1v-71
			H35.7v17.8V36.9z"/>

		<path d="M79.1,27.1h-1.5V19c0-1.6-1.3-2.8-2.8-2.8H42.9v-1.5h31.9c2.4,0,4.3,1.9,4.3,4.3V27.1z"/>
		
			<path d="M78.4,31.6c-0.8-2.1-2.1-4.8-3.6-6.4l3.6,1.3l3.6-1.3C80.5,26.8,79.2,29.5,78.4,31.6z"/>

		<path d="M42.9,22.9v-0.3l0.4-0.4c1-0.9,1.4-1.5,1.5-2c0-0.4-0.2-0.8-0.8-0.8c-0.4,0-0.6,0.2-0.8,0.3L43,19.4
			c0.3-0.2,0.7-0.4,1.1-0.4c0.8,0,1.2,0.6,1.2,1.1c0,0.7-0.5,1.3-1.3,2.1l-0.3,0.3v0h1.8v0.4H42.9z"/>


 </svg>