<?xml version="1.0" encoding="utf-8"?>
<!-- Generator: Adobe Illustrator 26.2.1, SVG Export Plug-In . SVG Version: 6.00 Build 0)  -->
<svg version="1.1" xmlns="http://www.w3.org/2000/svg" xmlns:xlink="http://www.w3.org/1999/xlink" x="0px" y="0px"
	 viewBox="0 0 100 100" style="enable-background:new 0 0 100 100;" xml:space="preserve">
<style type="text/css">
	.st0{display:none;}
	.st1{display:inline;}
</style>
<g id="Stroke5">
	<g>
		<path d="M95.4,50.4H77.2c-0.4,0.2-0.9,0.3-1.5,0.4c-3.2,11-8.4,19.5-15.5,26.1c11.9,4.5,22.8,9.5,30.3,13.8l-4.7,5.8
			c-7.5-4.7-18.9-10-31.4-14.9C43.6,89.3,29.4,93.8,12,96.5c-0.7-1.6-2.5-4.3-3.9-5.8c15.7-2.1,28.7-5.7,38.7-11.8
			C40,76.4,33,74,26.4,72.1c-0.8,1.5-1.5,3-2.2,4.3l-6.9-1.8c3.5-6.3,7.6-15.1,11.7-24.1H4.6v-6.5h27.3c2.8-6.4,5.5-12.7,7.7-18.2
			l8.6,1.7c-0.3,0.8-0.9,1.1-2.2,1.1c-1.9,4.6-4.2,9.9-6.6,15.4h55.9V50.4z M14.7,22.2v15.2H7.9V15.8h38.3V3.4l9,0.6
			c-0.1,0.7-0.6,1.2-2,1.4v10.4H92v21.6h-7V22.2H14.7z M36.5,50.4C34,56.1,31.4,61.7,29,66.8c7.6,2,15.9,4.7,24.1,7.6
			c7.1-5.9,12.2-13.7,15.2-23.9H36.5z"/>
	</g>
	<g>
		<path d="M4.6,54.5c0.7,0,11.8,0,11.8,0"/>
		<g>
			<rect x="4.6" y="53.8" width="7.2" height="1.5"/>
			<g>
				<path d="M16.4,54.5c-2.1,0.8-4.8,2.1-6.4,3.6l1.3-3.6L10,51C11.6,52.4,14.3,53.8,16.4,54.5z"/>
			</g>
		</g>
	</g>
	<g>
		<path d="M6.7,57.7c-0.1,0-0.2,0-0.4,0c-0.8,0.1-1.3,0.7-1.4,1.4h0c0.2-0.2,0.5-0.4,0.9-0.4c0.7,0,1.2,0.5,1.2,1.3
			c0,0.7-0.5,1.4-1.3,1.4c-0.8,0-1.4-0.6-1.4-1.7c0-0.8,0.3-1.4,0.7-1.8c0.3-0.3,0.8-0.5,1.2-0.6c0.2,0,0.3,0,0.4,0V57.7z M6.6,60
			c0-0.6-0.3-0.9-0.8-0.9c-0.3,0-0.6,0.2-0.8,0.5C5,59.6,5,59.7,5,59.8c0,0.6,0.3,1.1,0.9,1.1C6.3,60.9,6.6,60.5,6.6,60z"/>
	</g>
</g>
<g id="Stroke4" class="st0">
	<g class="st1">
		<path d="M75.7,50.9c-3.2,11-8.4,19.5-15.5,26.1c11.9,4.5,22.8,9.5,30.3,13.8l-4.7,5.8c-7.5-4.7-18.9-10-31.4-14.9
			C43.6,89.3,29.4,93.8,12,96.5c-0.7-1.6-2.5-4.3-3.9-5.8c15.7-2.1,28.7-5.7,38.7-11.8C40,76.4,33,74,26.4,72.1
			c-0.8,1.5-1.5,3-2.2,4.3l-6.9-1.8c3.5-6.3,7.6-15.1,11.7-24.1h8l-8,16.3c7.6,2,15.9,4.7,24.1,7.6c7.1-5.9,11.9-12.9,14.9-23.1
			 M31.9,43.9c2.8-6.4,5.5-12.7,7.7-18.2l8.6,1.7c-0.3,0.8-0.9,1.1-2.2,1.1c-1.9,4.6-4.2,9.9-6.6,15.4 M14.7,22.2v15.2H7.9V15.8
			h38.3V3.4l9,0.6c-0.1,0.7-0.6,1.2-2,1.4v10.4H92v21.6h-7V22.2H14.7z"/>
	</g>
	<g class="st1">
		<path d="M64.3,51.7c-1.2,2.2-2.3,4.5-3.6,6.7c-0.8,1.5-1.6,3-2.4,4.4"/>
		<g>
			<path d="M61.1,59.2l-1.3-0.7L60,58c1.2-2.3,2.4-4.5,3.6-6.7l1.3,0.7c-1.2,2.2-2.3,4.5-3.6,6.7L61.1,59.2z"/>
			<g>
				<path d="M58.3,62.8c0.3-2.2,0.4-5.2-0.1-7.3l2.5,2.8l3.7,0.6C62.4,59.6,60,61.3,58.3,62.8z"/>
			</g>
		</g>
	</g>
	<g class="st1">
		<path d="M61.6,48.9h-1.5l-0.1,1c0.1,0,0.2,0,0.3,0c0.3,0,0.6,0.1,0.8,0.2c0.3,0.2,0.6,0.5,0.6,1c0,0.8-0.6,1.3-1.5,1.3
			c-0.4,0-0.8-0.1-1-0.2l0.1-0.4c0.2,0.1,0.5,0.2,0.8,0.2c0.5,0,0.9-0.3,0.9-0.8c0-0.5-0.3-0.9-1.1-0.9c-0.2,0-0.4,0-0.5,0l0.3-1.9
			h1.9V48.9z"/>
	</g>
</g>
<g id="Stroke3" class="st0">
	<g class="st1">
		<path d="M47.3,78.3c-6.8-2.5-13.8-4.9-20.4-6.8c-0.8,1.5-1.5,3-2.2,4.3L17.8,74c3.5-6.3,7.6-15.1,11.7-24.1l2.9-6.5
			c2.8-6.4,5.5-12.7,7.7-18.2l8.6,1.7c-0.3,0.8-0.9,1.1-2.2,1.1c-1.9,4.6-4.2,9.9-6.6,15.4l-3.3,7.1C34,56.1,31.4,61.7,29,66.8
			c1.4,0,31.5,9.6,31.5,9.6c11.9,4.5,22.8,9.5,30.3,13.8L86.2,96c-7.5-4.7-18.9-10-31.4-14.9 M14.7,22.2v15.2H7.9V15.8h38.3V3.4
			l9,0.6c-0.1,0.7-0.6,1.2-2,1.4v10.4H92v21.6h-7V22.2H14.7z"/>
	</g>
	<g class="st1">
		<line x1="52" y1="28.2" x2="46.1" y2="41.2"/>
		<g>
			<rect x="45.1" y="31.9" transform="matrix(0.4141 -0.9102 0.9102 0.4141 -0.4091 64.5705)" width="9.8" height="1.5"/>
			<g>
				<path d="M46.1,41.2c0.2-2.3,0-5.2-0.6-7.3l2.7,2.7l3.8,0.3C50,37.7,47.7,39.5,46.1,41.2z"/>
			</g>
		</g>
	</g>
	<g class="st1">
		<path d="M56.2,31.3v-1.1h-1.8v-0.3l1.7-2.5h0.6v2.4h0.5v0.4h-0.5v1.1H56.2z M56.2,29.9v-1.3c0-0.2,0-0.4,0-0.6h0
			c-0.1,0.2-0.2,0.4-0.3,0.6l-1,1.3v0H56.2z"/>
	</g>
</g>
<g id="Stroke2" class="st0">
	<g class="st1">
		<path d="M14.7,22.2v15.2H7.9V15.8h38.3V3.4l9,0.6c-0.1,0.7-0.6,1.2-2,1.4v10.4H92v21.6h-7V22.2H14.7z"/>
	</g>
	<g class="st1">
		<path d="M16.6,26.2c0.3,0,12.3,0,12.3,0"/>
		<g>
			<rect x="16.6" y="25.5" width="7.8" height="1.5"/>
			<g>
				<path d="M28.9,26.2c-2.1,0.8-4.8,2.1-6.4,3.6l1.3-3.6l-1.3-3.6C24.2,24.1,26.8,25.5,28.9,26.2z"/>
			</g>
		</g>
	</g>
	<g class="st1">
		<path d="M17,32.4c0.1,0.1,0.5,0.2,0.9,0.2c0.7,0,0.9-0.4,0.9-0.8c0-0.5-0.5-0.8-1-0.8h-0.3v-0.4h0.3c0.4,0,0.9-0.2,0.9-0.7
			c0-0.3-0.2-0.6-0.7-0.6c-0.3,0-0.6,0.1-0.8,0.3L17,29.4c0.2-0.1,0.6-0.3,1-0.3c0.8,0,1.1,0.5,1.1,0.9c0,0.4-0.2,0.7-0.7,0.9v0
			c0.5,0.1,0.9,0.5,0.9,1c0,0.6-0.5,1.2-1.4,1.2c-0.4,0-0.8-0.1-1-0.3L17,32.4z"/>
	</g>
</g>
<g id="Stroke1" class="st0">
	<g class="st1">
		<path d="M46.3,15.8c0,0,0.1-10.8,0-12.4l9,0.6c-0.1,0.7-0.6,1.2-2,1.4v10.4 M14.7,22.2v15.2H7.9V15.8h6.8"/>
	</g>
	<g class="st1">
		<path d="M18.9,15.8c0,1.4,0,11,0,10.8"/>
		<g>
			<rect x="18.2" y="15.8" width="1.5" height="6.3"/>
			<g>
				<path d="M18.9,26.6c-0.8-2.1-2.1-4.8-3.6-6.4l3.6,1.3l3.6-1.3C21.1,21.9,19.7,24.5,18.9,26.6z"/>
			</g>
		</g>
	</g>
	<g class="st1">
		<path d="M21.7,18.4v-0.3l0.4-0.4c1-0.9,1.4-1.5,1.5-2c0-0.4-0.2-0.8-0.8-0.8c-0.4,0-0.6,0.2-0.8,0.3l-0.2-0.4
			c0.3-0.2,0.7-0.4,1.1-0.4c0.8,0,1.2,0.6,1.2,1.1c0,0.7-0.5,1.3-1.3,2.1L22.5,18v0h1.8v0.4H21.7z"/>
	</g>
</g>
<g id="Stroke0" class="st0">
	<g class="st1">
		<path d="M46.3,15.8V3.4l9,0.6c-0.1,0.7-0.6,1.2-2,1.4v10.4"/>
	</g>
	<g class="st1">
		<line x1="42.1" y1="4.9" x2="42.1" y2="14.4"/>
		<g>
			<rect x="41.4" y="4.9" width="1.5" height="4.9"/>
			<g>
				<path d="M42.1,14.4c-0.8-2.1-2.1-4.8-3.6-6.4l3.6,1.3l3.6-1.3C44.3,9.6,42.9,12.2,42.1,14.4z"/>
			</g>
		</g>
	</g>
	<g class="st1">
		<path d="M38.5,3.5L38.5,3.5l-0.7,0.4l-0.1-0.4L38.6,3H39v3.9h-0.5V3.5z"/>
	</g>
</g>
<g id="Kanji" class="st0">
	<g class="st1">
		<path d="M95.4,50.4H77.2c-0.4,0.2-0.9,0.3-1.5,0.4c-3.2,11-8.4,19.5-15.5,26.1c11.9,4.5,22.8,9.5,30.3,13.8l-4.7,5.8
			c-7.5-4.7-18.9-10-31.4-14.9C43.6,89.3,29.4,93.8,12,96.5c-0.7-1.6-2.5-4.3-3.9-5.8c15.7-2.1,28.7-5.7,38.7-11.8
			C40,76.4,33,74,26.4,72.1c-0.8,1.5-1.5,3-2.2,4.3l-6.9-1.8c3.5-6.3,7.6-15.1,11.7-24.1H4.6v-6.5h27.3c2.8-6.4,5.5-12.7,7.7-18.2
			l8.6,1.7c-0.3,0.8-0.9,1.1-2.2,1.1c-1.9,4.6-4.2,9.9-6.6,15.4h55.9V50.4z M14.7,22.2v15.2H7.9V15.8h38.3V3.4l9,0.6
			c-0.1,0.7-0.6,1.2-2,1.4v10.4H92v21.6h-7V22.2H14.7z M36.5,50.4C34,56.1,31.4,61.7,29,66.8c7.6,2,15.9,4.7,24.1,7.6
			c7.1-5.9,12.2-13.7,15.2-23.9H36.5z"/>
	</g>
</g>
</svg>
