<?xml version="1.0" encoding="utf-8"?>
<!-- Generator: Adobe Illustrator 26.2.1, SVG Export Plug-In . SVG Version: 6.00 Build 0)  -->
<svg version="1.1" xmlns="http://www.w3.org/2000/svg" xmlns:xlink="http://www.w3.org/1999/xlink" x="0px" y="0px"
	 viewBox="0 0 100 100" style="enable-background:new 0 0 100 100;" xml:space="preserve" width = "100px" height = "100px">
<style type="text/css">
	.st0{display:none;}
	.st1{display:inline;}
</style>

		<path d="M75.7,50.9c-3.2,11-8.4,19.5-15.5,26.1c11.9,4.5,22.8,9.5,30.3,13.8l-4.7,5.8c-7.5-4.7-18.9-10-31.4-14.9
			C43.6,89.3,29.4,93.8,12,96.5c-0.7-1.6-2.5-4.3-3.9-5.8c15.7-2.1,28.7-5.7,38.7-11.8C40,76.4,33,74,26.4,72.1
			c-0.8,1.5-1.5,3-2.2,4.3l-6.9-1.8c3.5-6.3,7.6-15.1,11.7-24.1h8l-8,16.3c7.6,2,15.9,4.7,24.1,7.6c7.1-5.9,11.9-12.9,14.9-23.1
			 M31.9,43.9c2.8-6.4,5.5-12.7,7.7-18.2l8.6,1.7c-0.3,0.8-0.9,1.1-2.2,1.1c-1.9,4.6-4.2,9.9-6.6,15.4 M14.7,22.2v15.2H7.9V15.8
			h38.3V3.4l9,0.6c-0.1,0.7-0.6,1.2-2,1.4v10.4H92v21.6h-7V22.2H14.7z"/>


		<path d="M64.3,51.7c-1.2,2.2-2.3,4.5-3.6,6.7c-0.8,1.5-1.6,3-2.4,4.4"/>
	
		<path d="M61.1,59.2l-1.3-0.7L60,58c1.2-2.3,2.4-4.5,3.6-6.7l1.3,0.7c-1.2,2.2-2.3,4.5-3.6,6.7L61.1,59.2z"/>
	
		<path d="M58.3,62.8c0.3-2.2,0.4-5.2-0.1-7.3l2.5,2.8l3.7,0.6C62.4,59.6,60,61.3,58.3,62.8z"/>

		<path d="M61.6,48.9h-1.5l-0.1,1c0.1,0,0.2,0,0.3,0c0.3,0,0.6,0.1,0.8,0.2c0.3,0.2,0.6,0.5,0.6,1c0,0.8-0.6,1.3-1.5,1.3
			c-0.4,0-0.8-0.1-1-0.2l0.1-0.4c0.2,0.1,0.5,0.2,0.8,0.2c0.5,0,0.9-0.3,0.9-0.8c0-0.5-0.3-0.9-1.1-0.9c-0.2,0-0.4,0-0.5,0l0.3-1.9
			h1.9V48.9z"/>


 </svg>