<?xml version="1.0" encoding="utf-8"?>
<!-- Generator: Adobe Illustrator 26.2.1, SVG Export Plug-In . SVG Version: 6.00 Build 0)  -->
<svg version="1.1" xmlns="http://www.w3.org/2000/svg" xmlns:xlink="http://www.w3.org/1999/xlink" x="0px" y="0px"
	 viewBox="0 0 100 100" style="enable-background:new 0 0 100 100;" xml:space="preserve" width = "100px" height = "100px">
<style type="text/css">
	.st0{display:none;}
	.st1{display:inline;}
</style> 

		<path d="M14.7,22.2v15.2H7.9V15.8h38.3V3.4l9,0.6c-0.1,0.7-0.6,1.2-2,1.4v10.4H92v21.6h-7V22.2H14.7z"/>

		<path d="M16.6,26.2c0.3,0,12.3,0,12.3,0"/>

		<rect x="16.6" y="25.5" width="7.8" height="1.5"/>
		
		<path d="M28.9,26.2c-2.1,0.8-4.8,2.1-6.4,3.6l1.3-3.6l-1.3-3.6C24.2,24.1,26.8,25.5,28.9,26.2z"/>

		<path d="M17,32.4c0.1,0.1,0.5,0.2,0.9,0.2c0.7,0,0.9-0.4,0.9-0.8c0-0.5-0.5-0.8-1-0.8h-0.3v-0.4h0.3c0.4,0,0.9-0.2,0.9-0.7
			c0-0.3-0.2-0.6-0.7-0.6c-0.3,0-0.6,0.1-0.8,0.3L17,29.4c0.2-0.1,0.6-0.3,1-0.3c0.8,0,1.1,0.5,1.1,0.9c0,0.4-0.2,0.7-0.7,0.9v0
			c0.5,0.1,0.9,0.5,0.9,1c0,0.6-0.5,1.2-1.4,1.2c-0.4,0-0.8-0.1-1-0.3L17,32.4z"/>



</svg>