<?xml version="1.0" encoding="utf-8"?>
<!-- Generator: Adobe Illustrator 26.2.1, SVG Export Plug-In . SVG Version: 6.00 Build 0)  -->
<svg version="1.1" xmlns="http://www.w3.org/2000/svg" xmlns:xlink="http://www.w3.org/1999/xlink" x="0px" y="0px"
	 viewBox="0 0 100 100" style="enable-background:new 0 0 100 100;" xml:space="preserve" width = "100px" height = "100px">
<style type="text/css">
	.st0{display:none;}
	.st1{display:inline;}
</style>

		<path d="M95.4,50.4H77.2c-0.4,0.2-0.9,0.3-1.5,0.4c-3.2,11-8.4,19.5-15.5,26.1c11.9,4.5,22.8,9.5,30.3,13.8l-4.7,5.8
			c-7.5-4.7-18.9-10-31.4-14.9C43.6,89.3,29.4,93.8,12,96.5c-0.7-1.6-2.5-4.3-3.9-5.8c15.7-2.1,28.7-5.7,38.7-11.8
			C40,76.4,33,74,26.4,72.1c-0.8,1.5-1.5,3-2.2,4.3l-6.9-1.8c3.5-6.3,7.6-15.1,11.7-24.1H4.6v-6.5h27.3c2.8-6.4,5.5-12.7,7.7-18.2
			l8.6,1.7c-0.3,0.8-0.9,1.1-2.2,1.1c-1.9,4.6-4.2,9.9-6.6,15.4h55.9V50.4z M14.7,22.2v15.2H7.9V15.8h38.3V3.4l9,0.6
			c-0.1,0.7-0.6,1.2-2,1.4v10.4H92v21.6h-7V22.2H14.7z M36.5,50.4C34,56.1,31.4,61.7,29,66.8c7.6,2,15.9,4.7,24.1,7.6
			c7.1-5.9,12.2-13.7,15.2-23.9H36.5z"/>

		<path d="M4.6,54.5c0.7,0,11.8,0,11.8,0"/>
	
		<rect x="4.6" y="53.8" width="7.2" height="1.5"/>
			
		<path d="M16.4,54.5c-2.1,0.8-4.8,2.1-6.4,3.6l1.3-3.6L10,51C11.6,52.4,14.3,53.8,16.4,54.5z"/>

		<path d="M6.7,57.7c-0.1,0-0.2,0-0.4,0c-0.8,0.1-1.3,0.7-1.4,1.4h0c0.2-0.2,0.5-0.4,0.9-0.4c0.7,0,1.2,0.5,1.2,1.3
			c0,0.7-0.5,1.4-1.3,1.4c-0.8,0-1.4-0.6-1.4-1.7c0-0.8,0.3-1.4,0.7-1.8c0.3-0.3,0.8-0.5,1.2-0.6c0.2,0,0.3,0,0.4,0V57.7z M6.6,60
			c0-0.6-0.3-0.9-0.8-0.9c-0.3,0-0.6,0.2-0.8,0.5C5,59.6,5,59.7,5,59.8c0,0.6,0.3,1.1,0.9,1.1C6.3,60.9,6.6,60.5,6.6,60z"/>



 </svg>