<?xml version="1.0" encoding="utf-8"?>
<!-- Generator: Adobe Illustrator 26.2.1, SVG Export Plug-In . SVG Version: 6.00 Build 0)  -->
<svg version="1.1" xmlns="http://www.w3.org/2000/svg" xmlns:xlink="http://www.w3.org/1999/xlink" x="0px" y="0px"
	 viewBox="0 0 100 100" style="enable-background:new 0 0 100 100;" xml:space="preserve" width = "100px" height = "100px">
<style type="text/css">
	.st0{display:none;}
	.st1{display:inline;}
</style>

		<path d="M46.3,15.8c0,0,0.1-10.8,0-12.4l9,0.6c-0.1,0.7-0.6,1.2-2,1.4v10.4 M14.7,22.2v15.2H7.9V15.8h6.8"/>


		<path d="M18.9,15.8c0,1.4,0,11,0,10.8"/>

		<rect x="18.2" y="15.8" width="1.5" height="6.3"/>
		
		<path d="M18.9,26.6c-0.8-2.1-2.1-4.8-3.6-6.4l3.6,1.3l3.6-1.3C21.1,21.9,19.7,24.5,18.9,26.6z"/>

		<path d="M21.7,18.4v-0.3l0.4-0.4c1-0.9,1.4-1.5,1.5-2c0-0.4-0.2-0.8-0.8-0.8c-0.4,0-0.6,0.2-0.8,0.3l-0.2-0.4
			c0.3-0.2,0.7-0.4,1.1-0.4c0.8,0,1.2,0.6,1.2,1.1c0,0.7-0.5,1.3-1.3,2.1L22.5,18v0h1.8v0.4H21.7z"/>


 </svg>