<?xml version="1.0" encoding="utf-8"?>
<!-- Generator: Adobe Illustrator 26.2.1, SVG Export Plug-In . SVG Version: 6.00 Build 0)  -->
<svg version="1.1" xmlns="http://www.w3.org/2000/svg" xmlns:xlink="http://www.w3.org/1999/xlink" x="0px" y="0px"
	 viewBox="0 0 100 100" style="enable-background:new 0 0 100 100;" xml:space="preserve" width = "100px" height = "100px">
<style type="text/css">
	.st0{display:none;}
	.st1{display:inline;}
</style>

		<path d="M47.3,78.3c-6.8-2.5-13.8-4.9-20.4-6.8c-0.8,1.5-1.5,3-2.2,4.3L17.8,74c3.5-6.3,7.6-15.1,11.7-24.1l2.9-6.5
			c2.8-6.4,5.5-12.7,7.7-18.2l8.6,1.7c-0.3,0.8-0.9,1.1-2.2,1.1c-1.9,4.6-4.2,9.9-6.6,15.4l-3.3,7.1C34,56.1,31.4,61.7,29,66.8
			c1.4,0,31.5,9.6,31.5,9.6c11.9,4.5,22.8,9.5,30.3,13.8L86.2,96c-7.5-4.7-18.9-10-31.4-14.9 M14.7,22.2v15.2H7.9V15.8h38.3V3.4
			l9,0.6c-0.1,0.7-0.6,1.2-2,1.4v10.4H92v21.6h-7V22.2H14.7z"/>

		<line x1="52" y1="28.2" x2="46.1" y2="41.2"/>
	
		<rect x="45.1" y="31.9" transform="matrix(0.4141 -0.9102 0.9102 0.4141 -0.4091 64.5705)" width="9.8" height="1.5"/>
	
		<path d="M46.1,41.2c0.2-2.3,0-5.2-0.6-7.3l2.7,2.7l3.8,0.3C50,37.7,47.7,39.5,46.1,41.2z"/>

		<path d="M56.2,31.3v-1.1h-1.8v-0.3l1.7-2.5h0.6v2.4h0.5v0.4h-0.5v1.1H56.2z M56.2,29.9v-1.3c0-0.2,0-0.4,0-0.6h0
			c-0.1,0.2-0.2,0.4-0.3,0.6l-1,1.3v0H56.2z"/>

 </svg>