<?xml version="1.0" encoding="utf-8"?>
<!-- Generator: Adobe Illustrator 26.2.1, SVG Export Plug-In . SVG Version: 6.00 Build 0)  -->
<svg version="1.1" xmlns="http://www.w3.org/2000/svg" xmlns:xlink="http://www.w3.org/1999/xlink" x="0px" y="0px"
	 viewBox="0 0 100 100" style="enable-background:new 0 0 100 100;" xml:space="preserve">
<style type="text/css">
	.st0{fill:#FFFFFF;}
	.st1{fill:none;}
	.st2{display:none;}
	.st3{display:inline;fill:#FFFFFF;}
	.st4{display:inline;}
</style>
<g id="Stroke1">
	<path class="st0" d="M56.9,88.2"/>
	<g>
		<path d="M73,84.3c0,3.7,0.6,4.3,3.5,4.3h9.4c3,0,3.6-3.1,3.9-18.3c1.6,1.3,4.4,2.7,6.3,3.1C95.4,90,93.8,95,86.4,95H75.5
			c-7.3,0-9.5-2.3-9.5-10.7V35.2l-24.2,0.6c-2.2,23.8-9.3,47.1-32.7,60.6c-1.1-1.7-3.3-3.9-5.2-5c21.8-11.9,28.6-33,30.8-55.4
			L7.3,36.7L7,30l28.2-0.7c0.6-8.6,0.5-17.3,0.6-25.7l9.5,0.5c-0.1,0.9-0.9,1.5-2.4,1.7c-0.1,7.5-0.1,15.4-0.6,23.3l25.3-0.6l1-0.7
			l4.8,1.1L73,30.6V84.3z"/>
	</g>
	<g>
		<path class="st1" d="M72,99.3"/>
	</g>
	<g>
		<path d="M60.4,41.9c-2.2-3-7.5-4.2-16.1-3.5l-0.1-1.5c9.3-0.8,14.9,0.5,17.4,4.1L60.4,41.9z"/>
		<g>
			<path d="M63.1,45.4c-1.7-1.5-4.2-3.1-6.2-3.9l3.7-0.6l2.5-2.9C62.7,40.2,62.8,43.2,63.1,45.4z"/>
		</g>
	</g>
	<g>
		<path d="M45.9,44.8v-0.3l0.4-0.4c1-0.9,1.4-1.5,1.5-2c0-0.4-0.2-0.8-0.8-0.8c-0.4,0-0.6,0.2-0.8,0.3L46,41.2
			c0.3-0.2,0.7-0.4,1.1-0.4c0.8,0,1.2,0.6,1.2,1.1c0,0.7-0.5,1.3-1.3,2.1l-0.3,0.3v0h1.8v0.4H45.9z"/>
	</g>
</g>
<g id="Stroke0" class="st2">
	<path class="st3" d="M56.9,88.2"/>
	<g class="st4">
		<path d="M41.8,35.8c-2.2,23.8-9.3,47.1-32.7,60.6c-1.1-1.7-3.3-3.9-5.2-5c21.8-11.9,28.6-33,30.8-55.4l0.5-6.7
			c0.6-8.6,0.5-17.3,0.6-25.7l9.5,0.5c-0.1,0.9-0.9,1.5-2.4,1.7c-0.1,7.5-0.1,15.4-0.6,23.3"/>
	</g>
	<g class="st4">
		<path d="M34.2,88.4l-1.1-1C49,70.9,50.5,30.2,51.1,14.8c0.1-2.2,0.1-3.9,0.2-5l1.5,0.1c-0.1,1-0.1,2.7-0.2,4.9
			C52,30.4,50.4,71.5,34.2,88.4z"/>
		<g>
			<path d="M30.3,90.8c1.1-2,2.1-4.8,2.4-6.9l1.4,3.5l3.3,1.8C35.3,89.2,32.4,90,30.3,90.8z"/>
		</g>
	</g>
	<g class="st4">
		<path d="M56.7,11.4L56.7,11.4L56,11.8l-0.1-0.4l0.9-0.5h0.4v3.9h-0.5V11.4z"/>
	</g>
</g>
<g id="Kanji" class="st2">
	<path class="st3" d="M56.9,88.2"/>
	<g class="st4">
		<path d="M73,84.3c0,3.7,0.6,4.3,3.5,4.3h9.4c3,0,3.6-3.1,3.9-18.3c1.6,1.3,4.4,2.7,6.3,3.1C95.4,90,93.8,95,86.4,95H75.5
			c-7.3,0-9.5-2.3-9.5-10.7V35.2l-24.2,0.6c-2.2,23.8-9.3,47.1-32.7,60.6c-1.1-1.7-3.3-3.9-5.2-5c21.8-11.9,28.6-33,30.8-55.4
			L7.3,36.7L7,30l28.2-0.7c0.6-8.6,0.5-17.3,0.6-25.7l9.5,0.5c-0.1,0.9-0.9,1.5-2.4,1.7c-0.1,7.5-0.1,15.4-0.6,23.3l25.3-0.6l1-0.7
			l4.8,1.1L73,30.6V84.3z"/>
	</g>
</g>
</svg>
