<?xml version="1.0" encoding="utf-8"?>
<!-- Generator: Adobe Illustrator 26.2.1, SVG Export Plug-In . SVG Version: 6.00 Build 0)  -->
<svg version="1.1" xmlns="http://www.w3.org/2000/svg" xmlns:xlink="http://www.w3.org/1999/xlink" x="0px" y="0px"
	 viewBox="0 0 100 100" style="enable-background:new 0 0 100 100;" xml:space="preserve">
<style type="text/css">
	.st0{display:none;}
	.st1{display:inline;}
</style>
<g id="Stroke5">
	<g>
		<path d="M93.1,53.8v42.9h-6.9v-4.2H43.1v4h-6.6v-33c-8.4,5.1-17.1,9-25.8,11.8c-0.7-1.7-2.5-4.6-3.8-5.9
			C19.8,65.6,33.3,58.8,45,49.5C41,45,34.5,39.4,28.8,35.4l5-4.1c5.7,3.8,12.4,9.2,16.5,13.7c8-7.2,14.8-15.7,19.5-25.1H38
			c-6.7,7.6-15.2,15.3-25.7,21.7c-1-1.6-3.2-4-4.8-5.1c16.3-9.3,28-22.4,33.9-33.2l9,1.5c-0.2,0.8-0.9,1.3-2.2,1.3
			c-1.5,2.5-3.3,5.1-5.3,7.7h30.8l1.2-0.4l4.9,2.6c-0.3,0.4-0.8,0.7-1.3,0.9c-6,14.6-16.2,27.1-28.2,36.9H93.1z M43.1,86.3h43.1V60
			H43.1V86.3z"/>
	</g>
	<g>
		<line x1="45" y1="82.4" x2="60.7" y2="82.4"/>
		<g>
			<rect x="45" y="81.6" width="11.2" height="1.5"/>
			<g>
				<path d="M60.7,82.4c-2.1,0.8-4.8,2.1-6.4,3.6l1.3-3.6l-1.3-3.6C56,80.2,58.6,81.6,60.7,82.4z"/>
			</g>
		</g>
	</g>
	<g>
		<path d="M47.5,76.4c-0.1,0-0.2,0-0.4,0c-0.8,0.1-1.3,0.7-1.4,1.4h0c0.2-0.2,0.5-0.4,0.9-0.4c0.7,0,1.2,0.5,1.2,1.3
			c0,0.7-0.5,1.4-1.3,1.4c-0.8,0-1.4-0.6-1.4-1.7c0-0.8,0.3-1.4,0.7-1.8c0.3-0.3,0.8-0.5,1.2-0.6c0.2,0,0.3,0,0.4,0V76.4z
			 M47.4,78.7c0-0.6-0.3-0.9-0.8-0.9c-0.3,0-0.6,0.2-0.8,0.5c0,0.1-0.1,0.1-0.1,0.2c0,0.6,0.3,1.1,0.9,1.1
			C47.1,79.6,47.4,79.2,47.4,78.7z"/>
	</g>
</g>
<g id="Stroke4" class="st0">
	<g class="st1">
		<path d="M86.2,60H43.1v36.5h-6.6v-33c-8.4,5.1-17.1,9-25.8,11.8c-0.7-1.7-2.5-4.6-3.8-5.9C19.8,65.6,33.3,58.8,45,49.5
			C41,45,34.5,39.4,28.8,35.4l5-4.1c5.7,3.8,12.4,9.2,16.5,13.7c8-7.2,14.8-15.7,19.5-25.1H38c-6.7,7.6-15.2,15.3-25.7,21.7
			c-1-1.6-3.2-4-4.8-5.1c16.3-9.3,28-22.4,33.9-33.2l9,1.5c-0.2,0.8-0.9,1.3-2.2,1.3c-1.5,2.5-3.3,5.1-5.3,7.7h30.8l1.2-0.4l4.9,2.6
			c-0.3,0.4-0.8,0.7-1.3,0.9c-6,14.6-16.2,27.1-28.2,36.9h42.8v42.9h-6.9"/>
	</g>
	<g class="st1">
		<path d="M44.8,64c0.4,0,15.6,0,15.6,0"/>
		<g>
			<rect x="44.8" y="63.2" width="11.1" height="1.5"/>
			<g>
				<path d="M60.4,64c-2.1,0.8-4.8,2.1-6.4,3.6l1.3-3.6L54,60.4C55.7,61.9,58.3,63.2,60.4,64z"/>
			</g>
		</g>
	</g>
	<g class="st1">
		<path d="M47.4,66.6H46l-0.1,1c0.1,0,0.2,0,0.3,0c0.3,0,0.6,0.1,0.8,0.2c0.3,0.2,0.6,0.5,0.6,1c0,0.8-0.6,1.3-1.5,1.3
			c-0.4,0-0.8-0.1-1-0.2l0.1-0.4c0.2,0.1,0.5,0.2,0.8,0.2c0.5,0,0.9-0.3,0.9-0.8c0-0.5-0.3-0.9-1.1-0.9c-0.2,0-0.4,0-0.5,0l0.3-1.9
			h1.9V66.6z"/>
	</g>
</g>
<g id="Stroke3" class="st0">
	<g class="st1">
		<path d="M43.1,92.5v4h-6.6v-33c-8.4,5.1-17.1,9-25.8,11.8c-0.7-1.7-2.5-4.6-3.8-5.9C19.8,65.6,33.3,58.8,45,49.5
			C41,45,34.5,39.4,28.8,35.4l5-4.1c5.7,3.8,12.4,9.2,16.5,13.7c8-7.2,14.8-15.7,19.5-25.1H38c-6.7,7.6-15.2,15.3-25.7,21.7
			c-1-1.6-3.2-4-4.8-5.1c16.3-9.3,28-22.4,33.9-33.2l9,1.5c-0.2,0.8-0.9,1.3-2.2,1.3c-1.5,2.5-3.3,5.1-5.3,7.7h30.8l1.2-0.4l4.9,2.6
			c-0.3,0.4-0.8,0.7-1.3,0.9c-6,14.6-16.2,27.1-28.2,36.9L43.1,60v26.3"/>
	</g>
	<g class="st1">
		<path d="M47.6,60c0,1.5,0,13.3,0,13.3"/>
		<g>
			<rect x="46.9" y="60" width="1.5" height="8.8"/>
			<g>
				<path d="M47.6,73.2c-0.8-2.1-2.1-4.8-3.6-6.4l3.6,1.3l3.6-1.3C49.8,68.5,48.4,71.1,47.6,73.2z"/>
			</g>
		</g>
	</g>
	<g class="st1">
		<path d="M51.5,62.4v-1.1h-1.8V61l1.7-2.5H52V61h0.5v0.4H52v1.1H51.5z M51.5,61v-1.3c0-0.2,0-0.4,0-0.6h0c-0.1,0.2-0.2,0.4-0.3,0.6
			l-1,1.3v0H51.5z"/>
	</g>
</g>
<g id="Stroke2" class="st0">
	<g class="st1">
		<path d="M36.5,63.5c-8.4,5.1-17.1,9-25.8,11.8c-0.7-1.7-2.5-4.6-3.8-5.9C19.8,65.6,33.3,58.8,45,49.5C41,45,34.5,39.4,28.8,35.4
			l5-4.1c5.7,3.8,12.4,9.2,16.5,13.7c8-7.2,14.8-15.7,19.5-25.1H38c-6.7,7.6-15.2,15.3-25.7,21.7c-1-1.6-3.2-4-4.8-5.1
			c16.3-9.3,28-22.4,33.9-33.2l9,1.5c-0.2,0.8-0.9,1.3-2.2,1.3c-1.5,2.5-3.3,5.1-5.3,7.7h30.8l1.2-0.4l4.9,2.6
			c-0.3,0.4-0.8,0.7-1.3,0.9c-6,14.6-16.2,27.1-28.2,36.9 M43.1,60"/>
	</g>
	<g class="st1">
		<line x1="27.1" y1="39.3" x2="37" y2="47.8"/>
		<g>
			<rect x="29.6" y="37.8" transform="matrix(0.6496 -0.7603 0.7603 0.6496 -21.3392 37.8314)" width="1.5" height="8.5"/>
			<g>
				<path d="M37,47.8c-2.1-0.8-5-1.5-7.2-1.5l3.3-1.9l1.3-3.5C34.8,43,35.9,45.8,37,47.8z"/>
			</g>
		</g>
	</g>
	<g class="st1">
		<path d="M23.8,44.2c0.1,0.1,0.5,0.2,0.9,0.2c0.7,0,0.9-0.4,0.9-0.8c0-0.5-0.5-0.8-1-0.8h-0.3v-0.4h0.3c0.4,0,0.9-0.2,0.9-0.7
			c0-0.3-0.2-0.6-0.7-0.6c-0.3,0-0.6,0.1-0.8,0.3l-0.1-0.4c0.2-0.1,0.6-0.3,1-0.3c0.8,0,1.1,0.5,1.1,0.9c0,0.4-0.2,0.7-0.7,0.9v0
			c0.5,0.1,0.9,0.5,0.9,1c0,0.6-0.5,1.2-1.4,1.2c-0.4,0-0.8-0.1-1-0.3L23.8,44.2z"/>
	</g>
</g>
<g id="Stroke1" class="st0">
	<g class="st1">
		<path d="M50.3,45c8-7.2,14.8-15.7,19.5-25.1H38c-6.7,7.6-15.2,15.3-25.7,21.7c-1-1.6-3.2-4-4.8-5.1c16.3-9.3,28-22.4,33.9-33.2
			l9,1.5c-0.2,0.8-0.9,1.3-2.2,1.3c-1.5,2.5-3.3,5.1-5.3,7.7h30.8l1.2-0.4l4.9,2.6c-0.3,0.4-0.8,0.7-1.3,0.9
			c-6,14.6-16.2,27.1-28.2,36.9l-2.4,2.1c-3.2,2.8-6.7,5.1-10.4,7.1l-1,0.5c-8.4,5.1-17.1,9-25.8,11.8c-0.7-1.7-2.5-4.6-3.8-5.9
			C19.8,65.6,33.3,58.8,45,49.5"/>
	</g>
	<g class="st1">
		<path d="M38.8,24c0.3,0,14.2,0,14.2,0"/>
		<g>
			<rect x="38.8" y="23.2" width="9.7" height="1.5"/>
			<g>
				<path d="M53,24c-2.1,0.8-4.8,2.1-6.4,3.6l1.3-3.6l-1.3-3.6C48.3,21.8,50.9,23.2,53,24z"/>
			</g>
		</g>
	</g>
	<g class="st1">
		<path d="M39.1,30.2v-0.3l0.4-0.4c1-0.9,1.4-1.5,1.5-2c0-0.4-0.2-0.8-0.8-0.8c-0.4,0-0.6,0.2-0.8,0.3l-0.2-0.4
			c0.3-0.2,0.7-0.4,1.1-0.4c0.8,0,1.2,0.6,1.2,1.1c0,0.7-0.5,1.3-1.3,2.1l-0.3,0.3v0h1.8v0.4H39.1z"/>
	</g>
</g>
<g id="Stroke0" class="st0">
	<g class="st1">
		<path d="M38,19.9c-6.7,7.6-15.2,15.3-25.7,21.7c-1-1.6-3.2-4-4.8-5.1c16.3-9.3,28-22.4,33.9-33.2l9,1.5c-0.2,0.8-0.9,1.3-2.2,1.3
			c-1.5,2.5-3.3,5.1-5.3,7.7 M43.1,60"/>
	</g>
	<g class="st1">
		<path d="M47.1,17.2l-0.7-0.4l-0.6-0.4c2-2.8,3.7-5.6,5.2-8.6l1.3,0.7C50.8,11.5,49.1,14.4,47.1,17.2z"/>
		<g>
			<path d="M43.7,20.4c0.7-2.2,1.2-5.1,1-7.3l2.1,3.2l3.6,1.1C48.3,17.9,45.6,19.2,43.7,20.4z"/>
		</g>
	</g>
	<g class="st1">
		<path d="M54.6,7.3L54.6,7.3l-0.7,0.4l-0.1-0.4l0.9-0.5h0.4v3.9h-0.5V7.3z"/>
	</g>
</g>
<g id="Kanji" class="st0">
	<g class="st1">
		<path d="M93.1,53.8v42.9h-6.9v-4.2H43.1v4h-6.6v-33c-8.4,5.1-17.1,9-25.8,11.8c-0.7-1.7-2.5-4.6-3.8-5.9
			C19.8,65.6,33.3,58.8,45,49.5C41,45,34.5,39.4,28.8,35.4l5-4.1c5.7,3.8,12.4,9.2,16.5,13.7c8-7.2,14.8-15.7,19.5-25.1H38
			c-6.7,7.6-15.2,15.3-25.7,21.7c-1-1.6-3.2-4-4.8-5.1c16.3-9.3,28-22.4,33.9-33.2l9,1.5c-0.2,0.8-0.9,1.3-2.2,1.3
			c-1.5,2.5-3.3,5.1-5.3,7.7h30.8l1.2-0.4l4.9,2.6c-0.3,0.4-0.8,0.7-1.3,0.9c-6,14.6-16.2,27.1-28.2,36.9H93.1z M43.1,86.3h43.1V60
			H43.1V86.3z"/>
	</g>
</g>
</svg>
