<?xml version="1.0" encoding="utf-8"?>
<!-- Generator: Adobe Illustrator 26.2.1, SVG Export Plug-In . SVG Version: 6.00 Build 0)  -->
<svg version="1.1" xmlns="http://www.w3.org/2000/svg" xmlns:xlink="http://www.w3.org/1999/xlink" x="0px" y="0px"
	 viewBox="0 0 100 100" style="enable-background:new 0 0 100 100;" xml:space="preserve" width = "100px" height = "100px">
<style type="text/css">
	.st0{display:none;}
	.st1{display:inline;}
</style> 


		<path d="M38,19.9c-6.7,7.6-15.2,15.3-25.7,21.7c-1-1.6-3.2-4-4.8-5.1c16.3-9.3,28-22.4,33.9-33.2l9,1.5c-0.2,0.8-0.9,1.3-2.2,1.3
			c-1.5,2.5-3.3,5.1-5.3,7.7 M43.1,60"/>

		<path d="M47.1,17.2l-0.7-0.4l-0.6-0.4c2-2.8,3.7-5.6,5.2-8.6l1.3,0.7C50.8,11.5,49.1,14.4,47.1,17.2z"/>

			<path d="M43.7,20.4c0.7-2.2,1.2-5.1,1-7.3l2.1,3.2l3.6,1.1C48.3,17.9,45.6,19.2,43.7,20.4z"/>

		<path d="M54.6,7.3L54.6,7.3l-0.7,0.4l-0.1-0.4l0.9-0.5h0.4v3.9h-0.5V7.3z"/>

</svg>