<?xml version="1.0" encoding="utf-8"?>
<!-- Generator: Adobe Illustrator 26.2.1, SVG Export Plug-In . SVG Version: 6.00 Build 0)  -->
<svg version="1.1" xmlns="http://www.w3.org/2000/svg" xmlns:xlink="http://www.w3.org/1999/xlink" x="0px" y="0px"
	 viewBox="0 0 100 100" style="enable-background:new 0 0 100 100;" xml:space="preserve" width = "100px" height = "100px">
<style type="text/css">
	.st0{display:none;}
	.st1{display:inline;}
</style>

		<path d="M50.3,45c8-7.2,14.8-15.7,19.5-25.1H38c-6.7,7.6-15.2,15.3-25.7,21.7c-1-1.6-3.2-4-4.8-5.1c16.3-9.3,28-22.4,33.9-33.2
			l9,1.5c-0.2,0.8-0.9,1.3-2.2,1.3c-1.5,2.5-3.3,5.1-5.3,7.7h30.8l1.2-0.4l4.9,2.6c-0.3,0.4-0.8,0.7-1.3,0.9
			c-6,14.6-16.2,27.1-28.2,36.9l-2.4,2.1c-3.2,2.8-6.7,5.1-10.4,7.1l-1,0.5c-8.4,5.1-17.1,9-25.8,11.8c-0.7-1.7-2.5-4.6-3.8-5.9
			C19.8,65.6,33.3,58.8,45,49.5"/>

		<path d="M38.8,24c0.3,0,14.2,0,14.2,0"/>
	
			<rect x="38.8" y="23.2" width="9.7" height="1.5"/>
		
				<path d="M53,24c-2.1,0.8-4.8,2.1-6.4,3.6l1.3-3.6l-1.3-3.6C48.3,21.8,50.9,23.2,53,24z"/>

		<path d="M39.1,30.2v-0.3l0.4-0.4c1-0.9,1.4-1.5,1.5-2c0-0.4-0.2-0.8-0.8-0.8c-0.4,0-0.6,0.2-0.8,0.3l-0.2-0.4
			c0.3-0.2,0.7-0.4,1.1-0.4c0.8,0,1.2,0.6,1.2,1.1c0,0.7-0.5,1.3-1.3,2.1l-0.3,0.3v0h1.8v0.4H39.1z"/>


 </svg>