<?xml version="1.0" encoding="utf-8"?>
<!-- Generator: Adobe Illustrator 26.2.1, SVG Export Plug-In . SVG Version: 6.00 Build 0)  -->
<svg version="1.1" xmlns="http://www.w3.org/2000/svg" xmlns:xlink="http://www.w3.org/1999/xlink" x="0px" y="0px"
	 viewBox="0 0 100 100" style="enable-background:new 0 0 100 100;" xml:space="preserve" width = "100px" height = "100px">
<style type="text/css">
	.st0{display:none;}
	.st1{display:inline;}
</style> 



		<path d="M36.5,63.5c-8.4,5.1-17.1,9-25.8,11.8c-0.7-1.7-2.5-4.6-3.8-5.9C19.8,65.6,33.3,58.8,45,49.5C41,45,34.5,39.4,28.8,35.4
			l5-4.1c5.7,3.8,12.4,9.2,16.5,13.7c8-7.2,14.8-15.7,19.5-25.1H38c-6.7,7.6-15.2,15.3-25.7,21.7c-1-1.6-3.2-4-4.8-5.1
			c16.3-9.3,28-22.4,33.9-33.2l9,1.5c-0.2,0.8-0.9,1.3-2.2,1.3c-1.5,2.5-3.3,5.1-5.3,7.7h30.8l1.2-0.4l4.9,2.6
			c-0.3,0.4-0.8,0.7-1.3,0.9c-6,14.6-16.2,27.1-28.2,36.9 M43.1,60"/>
	
	
		<line x1="27.1" y1="39.3" x2="37" y2="47.8"/>

			<rect x="29.6" y="37.8" transform="matrix(0.6496 -0.7603 0.7603 0.6496 -21.3392 37.8314)" width="1.5" height="8.5"/>
			
				<path d="M37,47.8c-2.1-0.8-5-1.5-7.2-1.5l3.3-1.9l1.3-3.5C34.8,43,35.9,45.8,37,47.8z"/>
	
		<path d="M23.8,44.2c0.1,0.1,0.5,0.2,0.9,0.2c0.7,0,0.9-0.4,0.9-0.8c0-0.5-0.5-0.8-1-0.8h-0.3v-0.4h0.3c0.4,0,0.9-0.2,0.9-0.7
			c0-0.3-0.2-0.6-0.7-0.6c-0.3,0-0.6,0.1-0.8,0.3l-0.1-0.4c0.2-0.1,0.6-0.3,1-0.3c0.8,0,1.1,0.5,1.1,0.9c0,0.4-0.2,0.7-0.7,0.9v0
			c0.5,0.1,0.9,0.5,0.9,1c0,0.6-0.5,1.2-1.4,1.2c-0.4,0-0.8-0.1-1-0.3L23.8,44.2z"/>

</svg>