<?xml version="1.0" encoding="utf-8"?>
<!-- Generator: Adobe Illustrator 26.2.1, SVG Export Plug-In . SVG Version: 6.00 Build 0)  -->
<svg version="1.1" xmlns="http://www.w3.org/2000/svg" xmlns:xlink="http://www.w3.org/1999/xlink" x="0px" y="0px"
	 viewBox="0 0 100 100" style="enable-background:new 0 0 100 100;" xml:space="preserve">
<style type="text/css">
	.st0{display:none;}
	.st1{display:inline;}
</style>
<g id="Stroke5" class="st0">
	<g class="st1">
		<path d="M34.8,6.4c-0.4,0.7-1.1,1-2.3,0.9c-2.6,7-5.7,14-9.2,20.7l2.7,0.7c-0.2,0.6-0.7,1.1-2,1.2v66.3h-6.5V38.3
			c-3.8,6.3-8,11.9-12.2,16.7c-0.7-1.6-2.4-4.7-3.5-6.3c9.6-10.4,19.2-27.7,25-45L34.8,6.4z M65.5,76.5v19.8H59V76.5v-6.2V35.6
			c-6.6,17.7-17.1,34.5-28.1,43.8c-1.1-1.6-3.3-3.9-4.8-5.1c11.1-8.5,22-25.3,28.4-42H29.7v-6.4H59V4l8.5,0.6
			c-0.1,0.7-0.6,1.2-2,1.3v20h30.9v6.4H70.2c6.1,16.6,16.8,33.2,28,41.5c-1.6,1.2-3.9,3.6-5.1,5.3C82.2,70,71.9,52.8,65.5,35.2v35"
			/>
	</g>
	<g class="st1">
		<path d="M75.3,35.7c2,3.5,4,6.9,6.1,10.4c0.7,1.3,1.5,2.5,2.2,3.8"/>
		<g>
			<path d="M80.6,46.3c-2-3.4-4-6.8-6-10.3l1.3-0.8c2,3.4,4,6.8,6,10.2L80.6,46.3z"/>
			<g>
				<path d="M83.6,49.8c-1.8-1.4-4.3-3-6.3-3.7l3.7-0.7l2.4-2.9C83,44.6,83.2,47.6,83.6,49.8z"/>
			</g>
		</g>
	</g>
	<g class="st1">
		<path d="M80.8,33.8c-0.1,0-0.2,0-0.4,0c-0.8,0.1-1.3,0.7-1.4,1.4h0c0.2-0.2,0.5-0.4,0.9-0.4c0.7,0,1.2,0.5,1.2,1.3
			c0,0.7-0.5,1.4-1.3,1.4c-0.8,0-1.4-0.6-1.4-1.7c0-0.8,0.3-1.4,0.7-1.8c0.3-0.3,0.8-0.5,1.2-0.6c0.2,0,0.3,0,0.4,0V33.8z M80.7,36
			c0-0.6-0.3-0.9-0.8-0.9c-0.3,0-0.6,0.2-0.8,0.5c0,0.1-0.1,0.1-0.1,0.2c0,0.6,0.3,1.1,0.9,1.1C80.4,37,80.7,36.6,80.7,36z"/>
	</g>
</g>
<g id="Stroke4" class="st0">
	<g class="st1">
		<path d="M34.8,6.4c-0.4,0.7-1.1,1-2.3,0.9c-2.6,7-5.7,14-9.2,20.7l2.7,0.7c-0.2,0.6-0.7,1.1-2,1.2v66.3h-6.5V38.3
			c-3.8,6.3-8,11.9-12.2,16.7c-0.7-1.6-2.4-4.7-3.5-6.3c9.6-10.4,19.2-27.7,25-45L34.8,6.4z M65.3,32.4l0.2,37.8v6.2v19.8H59V76.5
			v-6.2V35.6c-6.6,17.7-17.1,34.5-28.1,43.8c-1.1-1.6-3.3-3.9-4.8-5.1c11.1-8.5,22-25.3,28.4-42H29.7v-6.4H59V4l8.5,0.6
			c-0.1,0.7-0.6,1.2-2,1.3v20h30.9v6.4H70.2"/>
	</g>
	<g class="st1">
		<path d="M46.8,42.2l-1.2-0.8c1.3-2,2.6-4.1,3.8-6.2l1.3,0.7C49.5,38,48.2,40.1,46.8,42.2z"/>
		<g>
			<path d="M43.6,45.5c0.5-2.2,0.9-5.1,0.7-7.3l2.2,3.1l3.7,0.9C48.1,42.8,45.5,44.2,43.6,45.5z"/>
		</g>
	</g>
	<g class="st1">
		<path d="M46.8,33.9h-1.5l-0.1,1c0.1,0,0.2,0,0.3,0c0.3,0,0.6,0.1,0.8,0.2c0.3,0.2,0.6,0.5,0.6,1c0,0.8-0.6,1.3-1.5,1.3
			c-0.4,0-0.8-0.1-1-0.2l0.1-0.4c0.2,0.1,0.5,0.2,0.8,0.2c0.5,0,0.9-0.3,0.9-0.8c0-0.5-0.3-0.9-1.1-0.9c-0.2,0-0.4,0-0.5,0l0.3-1.9
			h1.9V33.9z"/>
	</g>
</g>
<g id="Stroke3" class="st0">
	<g class="st1">
		<path d="M34.8,6.4c-0.4,0.7-1.1,1-2.3,0.9c-2.6,7-5.7,14-9.2,20.7l2.7,0.7c-0.2,0.6-0.7,1.1-2,1.2v66.3h-6.5V38.3
			c-3.8,6.3-8,11.9-12.2,16.7c-0.7-1.6-2.4-4.7-3.5-6.3c9.6-10.4,19.2-27.7,25-45L34.8,6.4z M65.5,76.5v19.8H59V76.5v-6.2V35.6V32
			h6.5v3.2v35 M54.4,32.3H29.7v-6.4H59V4l8.5,0.6c-0.1,0.7-0.6,1.2-2,1.3v20h30.9v6.4H70.2"/>
	</g>
	<g class="st1">
		<path d="M70.7,6.1c0,1.2,0,14.8,0,14.8"/>
		<g>
			<rect x="69.9" y="6.1" width="1.5" height="10.3"/>
			<g>
				<path d="M70.7,20.9c-0.8-2.1-2.1-4.8-3.6-6.4l3.6,1.3l3.6-1.3C72.8,16.1,71.5,18.8,70.7,20.9z"/>
			</g>
		</g>
	</g>
	<g class="st1">
		<path d="M74.8,8.9V7.9H73V7.5L74.7,5h0.6v2.4h0.5v0.4h-0.5v1.1H74.8z M74.8,7.5V6.2c0-0.2,0-0.4,0-0.6h0c-0.1,0.2-0.2,0.4-0.3,0.6
			l-1,1.3v0H74.8z"/>
	</g>
</g>
<g id="Stroke6">
	<g>
		<path d="M34.8,6.4c-0.4,0.7-1.1,1-2.3,0.9c-2.6,7-5.7,14-9.2,20.7l2.7,0.7c-0.2,0.6-0.7,1.1-2,1.2v66.3h-6.5V38.3
			c-3.8,6.3-8,11.9-12.2,16.7c-0.7-1.6-2.4-4.7-3.5-6.3c9.6-10.4,19.2-27.7,25-45L34.8,6.4z M96.4,32.3H70.2
			c6.1,16.6,16.8,33.2,28,41.5c-1.6,1.2-3.9,3.6-5.1,5.3C82.2,70,71.9,52.8,65.5,35.2v35h16.2v6.2H65.5v19.8H59V76.5H42.4v-6.2H59
			V35.6c-6.6,17.7-17.1,34.5-28.1,43.8c-1.1-1.6-3.3-3.9-4.8-5.1c11.1-8.5,22-25.3,28.4-42H29.7v-6.4H59V4l8.5,0.6
			c-0.1,0.7-0.6,1.2-2,1.3v20h30.9V32.3z"/>
	</g>
	<g>
		<line x1="43" y1="80.5" x2="57" y2="80.5"/>
		<g>
			<rect x="43" y="79.8" width="9.5" height="1.5"/>
			<g>
				<path d="M57,80.5c-2.1,0.8-4.8,2.1-6.4,3.6l1.3-3.6L50.6,77C52.3,78.4,54.9,79.8,57,80.5z"/>
			</g>
		</g>
	</g>
	<g>
		<path d="M44.7,83.4v0.3L43,87.3h-0.5l1.7-3.4v0h-1.9v-0.4H44.7z"/>
	</g>
</g>
<g id="Stroke2" class="st0">
	<g class="st1">
		<path d="M24,96.3h-6.5V38.3c-3.8,6.3-8,11.9-12.2,16.7c-0.7-1.6-2.4-4.7-3.5-6.3c9.6-10.4,19.2-27.7,25-45l8,2.7
			c-0.4,0.7-1.1,1-2.3,0.9c-2.6,7-5.7,14-9.2,20.7l2.7,0.7c-0.2,0.6-0.7,1.1-2,1.2 M54.4,32.3H29.7v-6.4H59h6.5h30.9v6.4H70.2
			 M59,35.6 M65.5,35.2"/>
	</g>
	<g class="st1">
		<path d="M29.7,36.6c0.7,0,13.9,0,13.9,0"/>
		<g>
			<rect x="29.7" y="35.8" width="9.3" height="1.5"/>
			<g>
				<path d="M43.6,36.6c-2.1,0.8-4.8,2.1-6.4,3.6l1.3-3.6L37.2,33C38.8,34.4,41.5,35.8,43.6,36.6z"/>
			</g>
		</g>
	</g>
	<g class="st1">
		<path d="M29.2,42.7c0.1,0.1,0.5,0.2,0.9,0.2c0.7,0,0.9-0.4,0.9-0.8c0-0.5-0.5-0.8-1-0.8h-0.3V41h0.3c0.4,0,0.9-0.2,0.9-0.7
			c0-0.3-0.2-0.6-0.7-0.6c-0.3,0-0.6,0.1-0.8,0.3l-0.1-0.4c0.2-0.1,0.6-0.3,1-0.3c0.8,0,1.1,0.5,1.1,0.9c0,0.4-0.2,0.7-0.7,0.9v0
			c0.5,0.1,0.9,0.5,0.9,1c0,0.6-0.5,1.2-1.4,1.2c-0.4,0-0.8-0.1-1-0.3L29.2,42.7z"/>
	</g>
</g>
<g id="Stroke1" class="st0">
	<g class="st1">
		<path d="M34.8,6.4c-0.4,0.7-1.1,1-2.3,0.9c-2.6,7-5.7,14-9.2,20.7l2.7,0.7c-0.2,0.6-0.7,1.1-2,1.2v66.3h-6.5V38.3
			c-3.8,6.3-8,11.9-12.2,16.7c-0.7-1.6-2.4-4.7-3.5-6.3c9.6-10.4,19.2-27.7,25-45L34.8,6.4z"/>
	</g>
	<g class="st1">
		<path d="M28.6,29.9c0,0.3,0,13.8,0,13.8"/>
		<g>
			<rect x="27.8" y="29.9" width="1.5" height="9.2"/>
			<g>
				<path d="M28.6,43.7c-0.8-2.1-2.1-4.8-3.6-6.4l3.6,1.3l3.6-1.3C30.7,38.9,29.4,41.6,28.6,43.7z"/>
			</g>
		</g>
	</g>
	<g class="st1">
		<path d="M30.8,32.9v-0.3l0.4-0.4c1-0.9,1.4-1.5,1.5-2c0-0.4-0.2-0.8-0.8-0.8c-0.4,0-0.6,0.2-0.8,0.3l-0.2-0.4
			c0.3-0.2,0.7-0.4,1.1-0.4c0.8,0,1.2,0.6,1.2,1.1c0,0.7-0.5,1.3-1.3,2.1l-0.3,0.3v0h1.8v0.4H30.8z"/>
	</g>
</g>
<g id="Stroke0" class="st0">
	<g class="st1">
		<path d="M17.5,38.3c-3.8,6.3-8,11.9-12.2,16.7c-0.7-1.6-2.4-4.7-3.5-6.3c9.6-10.4,19.2-27.7,25-45l8,2.7c-0.4,0.7-1.1,1-2.3,0.9
			c-2.6,7-5.7,14-9.2,20.7"/>
	</g>
	<g class="st1">
		<path d="M35.5,9.5C35.4,10,31.3,21,31.3,21"/>
		<g>
			<path d="M33.6,17l-1.4-0.5c2.2-6,2.6-7,2.6-7.1l1.5,0.3C36.2,9.8,36.2,10.1,33.6,17z"/>
			<g>
				<path d="M31.3,21c0-2.3-0.3-5.2-1.1-7.3l2.9,2.5l3.8,0C35,17.3,32.8,19.3,31.3,21z"/>
			</g>
		</g>
	</g>
	<g class="st1">
		<path d="M38.7,8.8L38.7,8.8L38,9.2l-0.1-0.4l0.9-0.5h0.4v3.9h-0.5V8.8z"/>
	</g>
</g>
<g id="Kanji" class="st0">
	<g class="st1">
		<path d="M34.8,6.4c-0.4,0.7-1.1,1-2.3,0.9c-2.6,7-5.7,14-9.2,20.7l2.7,0.7c-0.2,0.6-0.7,1.1-2,1.2v66.3h-6.5V38.3
			c-3.8,6.3-8,11.9-12.2,16.7c-0.7-1.6-2.4-4.7-3.5-6.3c9.6-10.4,19.2-27.7,25-45L34.8,6.4z M96.4,32.3H70.2
			c6.1,16.6,16.8,33.2,28,41.5c-1.6,1.2-3.9,3.6-5.1,5.3C82.2,70,71.9,52.8,65.5,35.2v35h16.2v6.2H65.5v19.8H59V76.5H42.4v-6.2H59
			V35.6c-6.6,17.7-17.1,34.5-28.1,43.8c-1.1-1.6-3.3-3.9-4.8-5.1c11.1-8.5,22-25.3,28.4-42H29.7v-6.4H59V4l8.5,0.6
			c-0.1,0.7-0.6,1.2-2,1.3v20h30.9V32.3z"/>
	</g>
</g>
</svg>
