<?xml version="1.0" encoding="utf-8"?>
<!-- Generator: Adobe Illustrator 26.2.1, SVG Export Plug-In . SVG Version: 6.00 Build 0)  -->
<svg version="1.1" xmlns="http://www.w3.org/2000/svg" xmlns:xlink="http://www.w3.org/1999/xlink" x="0px" y="0px"
	 viewBox="0 0 100 100" style="enable-background:new 0 0 100 100;" xml:space="preserve" width = "100px" height = "100px">
<style type="text/css">
	.st0{display:none;}
	.st1{display:inline;}
</style>

		<path d="M34.8,6.4c-0.4,0.7-1.1,1-2.3,0.9c-2.6,7-5.7,14-9.2,20.7l2.7,0.7c-0.2,0.6-0.7,1.1-2,1.2v66.3h-6.5V38.3
			c-3.8,6.3-8,11.9-12.2,16.7c-0.7-1.6-2.4-4.7-3.5-6.3c9.6-10.4,19.2-27.7,25-45L34.8,6.4z M96.4,32.3H70.2
			c6.1,16.6,16.8,33.2,28,41.5c-1.6,1.2-3.9,3.6-5.1,5.3C82.2,70,71.9,52.8,65.5,35.2v35h16.2v6.2H65.5v19.8H59V76.5H42.4v-6.2H59
			V35.6c-6.6,17.7-17.1,34.5-28.1,43.8c-1.1-1.6-3.3-3.9-4.8-5.1c11.1-8.5,22-25.3,28.4-42H29.7v-6.4H59V4l8.5,0.6
			c-0.1,0.7-0.6,1.2-2,1.3v20h30.9V32.3z"/>

		<line x1="43" y1="80.5" x2="57" y2="80.5"/>

		<rect x="43" y="79.8" width="9.5" height="1.5"/>
	
		<path d="M57,80.5c-2.1,0.8-4.8,2.1-6.4,3.6l1.3-3.6L50.6,77C52.3,78.4,54.9,79.8,57,80.5z"/>

		<path d="M44.7,83.4v0.3L43,87.3h-0.5l1.7-3.4v0h-1.9v-0.4H44.7z"/>


 </svg>