<?xml version="1.0" encoding="utf-8"?>
<!-- Generator: Adobe Illustrator 26.2.1, SVG Export Plug-In . SVG Version: 6.00 Build 0)  -->
<svg version="1.1" xmlns="http://www.w3.org/2000/svg" xmlns:xlink="http://www.w3.org/1999/xlink" x="0px" y="0px"
	 viewBox="0 0 100 100" style="enable-background:new 0 0 100 100;" xml:space="preserve" width = "100px" height = "100px">
<style type="text/css">
	.st0{display:none;}
	.st1{display:inline;}
</style> 

		<path d="M17.5,38.3c-3.8,6.3-8,11.9-12.2,16.7c-0.7-1.6-2.4-4.7-3.5-6.3c9.6-10.4,19.2-27.7,25-45l8,2.7c-0.4,0.7-1.1,1-2.3,0.9
			c-2.6,7-5.7,14-9.2,20.7"/>
		<path d="M35.5,9.5C35.4,10,31.3,21,31.3,21"/>
		<path d="M33.6,17l-1.4-0.5c2.2-6,2.6-7,2.6-7.1l1.5,0.3C36.2,9.8,36.2,10.1,33.6,17z"/>
		<path d="M31.3,21c0-2.3-0.3-5.2-1.1-7.3l2.9,2.5l3.8,0C35,17.3,32.8,19.3,31.3,21z"/>
		<path d="M38.7,8.8L38.7,8.8L38,9.2l-0.1-0.4l0.9-0.5h0.4v3.9h-0.5V8.8z"/>

</svg>