<?xml version="1.0" encoding="utf-8"?>
<!-- Generator: Adobe Illustrator 26.2.1, SVG Export Plug-In . SVG Version: 6.00 Build 0)  -->
<svg version="1.1" xmlns="http://www.w3.org/2000/svg" xmlns:xlink="http://www.w3.org/1999/xlink" x="0px" y="0px"
	 viewBox="0 0 100 100" style="enable-background:new 0 0 100 100;" xml:space="preserve">
<style type="text/css">
	.st0{fill:none;}
	.st1{display:none;}
	.st2{display:inline;fill:none;}
	.st3{display:inline;}
</style>
<g id="Stroke3">
	<rect x="17.2" y="27.6" class="st0" width="12.6" height="0"/>
	<g>
		<path d="M95.7,57.1v6.6H53.3V86c0,5.1-1.5,7.1-5.1,8.2c-3.7,1.2-10.2,1.3-21,1.2c-0.5-1.9-1.8-4.8-2.9-6.7
			c4.8,0.2,9.4,0.2,12.9,0.2c8.5,0,9.2,0,9.2-2.9V63.7H4.3v-6.6h42.1V40.2H11v-6.4h35.4V17.6c-11,1.3-22.6,2.3-33.3,2.9
			c-0.2-1.7-1-4.3-1.8-5.8c24.2-1.6,53.3-4.8,68.1-10.1l5.8,5.7c-0.3,0.2-0.6,0.3-1.2,0.3c-0.2,0-0.5,0-0.9-0.1
			c-7.2,2.4-17,4.3-27.8,5.9c-0.2,0.7-0.7,1-2,1.2v16.2H90v6.4H53.3v16.9H95.7z"/>
	</g>
	<g>
		<path d="M41.6,19.6c0.1,3.5,0.2,7.1,0.3,10.6"/>
		<g>
			
				<rect x="40.9" y="19.6" transform="matrix(0.9996 -2.728892e-02 2.728892e-02 0.9996 -0.6028 1.1451)" width="1.5" height="6.1"/>
			<g>
				<path d="M41.9,30.2c-0.8-2.1-2.3-4.7-3.7-6.3l3.6,1.2l3.5-1.4C43.9,25.4,42.6,28.1,41.9,30.2z"/>
			</g>
		</g>
	</g>
	<g>
		<path d="M35.7,24.9v-1.1h-1.8v-0.3l1.7-2.5h0.6v2.4h0.5v0.4h-0.5v1.1H35.7z M35.7,23.4v-1.3c0-0.2,0-0.4,0-0.6h0
			c-0.1,0.2-0.2,0.4-0.3,0.6l-1,1.3v0H35.7z"/>
	</g>
</g>
<g id="Stroke2" class="st1">
	<rect x="17.2" y="27.6" class="st2" width="12.6" height="0"/>
	<g class="st3">
		<path d="M46.4,17.6c-11,1.3-22.6,2.3-33.3,2.9c-0.2-1.7-1-4.3-1.8-5.8c24.2-1.6,53.3-4.8,68.1-10.1l5.8,5.7
			c-0.3,0.2-0.6,0.3-1.2,0.3c-0.2,0-0.5,0-0.9-0.1c-7.2,2.4-17,4.3-27.8,5.9 M46.4,40.2H11v-6.4H90v6.4H53.3 M46.4,63.7H4.3v-6.6
			h91.3v6.6H53.3"/>
	</g>
	<g class="st3">
		<path d="M4.3,68.3c0.8,0,32,0,32,0"/>
		<g>
			<path d="M13,69.1c-4.7,0-8.4,0-8.7,0l0.1-1.5c0.6,0,15.1,0,27.4,0l0,1.5C28.1,69.1,19.6,69.1,13,69.1z"/>
			<g>
				<path d="M36.3,68.3c-2.1,0.8-4.8,2.1-6.4,3.6l1.3-3.6l-1.3-3.6C31.5,66.2,34.2,67.5,36.3,68.3z"/>
			</g>
		</g>
	</g>
	<g class="st3">
		<path d="M4.7,74.6c0.1,0.1,0.5,0.2,0.9,0.2c0.7,0,0.9-0.4,0.9-0.8c0-0.5-0.5-0.8-1-0.8H5.2v-0.4h0.3c0.4,0,0.9-0.2,0.9-0.7
			c0-0.3-0.2-0.6-0.7-0.6c-0.3,0-0.6,0.1-0.8,0.3l-0.1-0.4c0.2-0.1,0.6-0.3,1-0.3c0.8,0,1.1,0.5,1.1,0.9c0,0.4-0.2,0.7-0.7,0.9v0
			c0.5,0.1,0.9,0.5,0.9,1c0,0.6-0.5,1.2-1.4,1.2c-0.4,0-0.8-0.1-1-0.3L4.7,74.6z"/>
	</g>
</g>
<g id="Stroke1" class="st1">
	<rect x="17.2" y="27.6" class="st2" width="12.6" height="0"/>
	<g class="st3">
		<path d="M46.4,17.6c-11,1.3-22.6,2.3-33.3,2.9c-0.2-1.7-1-4.3-1.8-5.8c24.2-1.6,53.3-4.8,68.1-10.1l5.8,5.7
			c-0.3,0.2-0.6,0.3-1.2,0.3c-0.2,0-0.5,0-0.9-0.1c-7.2,2.4-17,4.3-27.8,5.9 M46.4,40.2H11v-6.4H90v6.4H53.3"/>
	</g>
	<g class="st3">
		<line x1="11.3" y1="44.7" x2="30.6" y2="44.7"/>
		<g>
			<rect x="11.3" y="43.9" width="14.7" height="1.5"/>
			<g>
				<path d="M30.6,44.7c-2.1,0.8-4.8,2.1-6.4,3.6l1.3-3.6l-1.3-3.6C25.8,42.5,28.5,43.9,30.6,44.7z"/>
			</g>
		</g>
	</g>
	<g class="st3">
		<path d="M12.2,51.6v-0.3l0.4-0.4c1-0.9,1.4-1.5,1.5-2c0-0.4-0.2-0.8-0.8-0.8c-0.4,0-0.6,0.2-0.8,0.3L12.3,48
			c0.3-0.2,0.7-0.4,1.1-0.4c0.8,0,1.2,0.6,1.2,1.1c0,0.7-0.5,1.3-1.3,2.1l-0.3,0.3v0h1.8v0.4H12.2z"/>
	</g>
</g>
<g id="Stroke0" class="st1">
	<g class="st3">
		<path d="M46.4,17.6c-11,1.3-22.6,2.3-33.3,2.9c-0.2-1.7-1-4.3-1.8-5.8c24.2-1.6,53.3-4.8,68.1-10.1l5.8,5.7
			c-0.3,0.2-0.6,0.3-1.2,0.3c-0.2,0-0.5,0-0.9-0.1c-7.2,2.4-17,4.3-27.8,5.9"/>
	</g>
	<g class="st3">
		<path d="M16.8,25.3c-0.7,0-1.4,0-2.1,0l0-1.5c10.4,0.1,20.9-0.7,31-2.6c0.9-0.2,1.7-0.3,2.6-0.5l0.3,1.5c-0.9,0.2-1.7,0.3-2.6,0.5
			C36.5,24.4,26.7,25.3,16.8,25.3z"/>
		<g>
			<path d="M52.9,20.5c-1.9,1.2-4.2,3.1-5.6,4.8l0.5-3.8l-2-3.2C47.8,19.3,50.7,20.1,52.9,20.5z"/>
		</g>
	</g>
	<g class="st3">
		<path d="M16.1,27.8L16.1,27.8l-0.7,0.4l-0.1-0.4l0.9-0.5h0.4v3.9h-0.5V27.8z"/>
	</g>
</g>
<g id="Kanji" class="st1">
	<rect x="17.2" y="27.6" class="st2" width="12.6" height="0"/>
	<g class="st3">
		<path d="M95.7,57.1v6.6H53.3V86c0,5.1-1.5,7.1-5.1,8.2c-3.7,1.2-10.2,1.3-21,1.2c-0.5-1.9-1.8-4.8-2.9-6.7
			c4.8,0.2,9.4,0.2,12.9,0.2c8.5,0,9.2,0,9.2-2.9V63.7H4.3v-6.6h42.1V40.2H11v-6.4h35.4V17.6c-11,1.3-22.6,2.3-33.3,2.9
			c-0.2-1.7-1-4.3-1.8-5.8c24.2-1.6,53.3-4.8,68.1-10.1l5.8,5.7c-0.3,0.2-0.6,0.3-1.2,0.3c-0.2,0-0.5,0-0.9-0.1
			c-7.2,2.4-17,4.3-27.8,5.9c-0.2,0.7-0.7,1-2,1.2v16.2H90v6.4H53.3v16.9H95.7z"/>
	</g>
</g>
</svg>
