<?xml version="1.0" encoding="utf-8"?>
<!-- Generator: Adobe Illustrator 26.2.1, SVG Export Plug-In . SVG Version: 6.00 Build 0)  -->
<svg version="1.1" xmlns="http://www.w3.org/2000/svg" xmlns:xlink="http://www.w3.org/1999/xlink" x="0px" y="0px"
	 viewBox="0 0 100 100" style="enable-background:new 0 0 100 100;" xml:space="preserve" width = "100px" height = "100px">
<style type="text/css">
	.st0{display:none;}
	.st1{display:inline;}
</style> 

	<rect x="17.2" y="27.6" class="st0" width="12.6" height="0"/>

		<path d="M95.7,57.1v6.6H53.3V86c0,5.1-1.5,7.1-5.1,8.2c-3.7,1.2-10.2,1.3-21,1.2c-0.5-1.9-1.8-4.8-2.9-6.7
			c4.8,0.2,9.4,0.2,12.9,0.2c8.5,0,9.2,0,9.2-2.9V63.7H4.3v-6.6h42.1V40.2H11v-6.4h35.4V17.6c-11,1.3-22.6,2.3-33.3,2.9
			c-0.2-1.7-1-4.3-1.8-5.8c24.2-1.6,53.3-4.8,68.1-10.1l5.8,5.7c-0.3,0.2-0.6,0.3-1.2,0.3c-0.2,0-0.5,0-0.9-0.1
			c-7.2,2.4-17,4.3-27.8,5.9c-0.2,0.7-0.7,1-2,1.2v16.2H90v6.4H53.3v16.9H95.7z"/>

		<path d="M41.6,19.6c0.1,3.5,0.2,7.1,0.3,10.6"/>
	
				<rect x="40.9" y="19.6" transform="matrix(0.9996 -2.728892e-02 2.728892e-02 0.9996 -0.6028 1.1451)" width="1.5" height="6.1"/>
	
				<path d="M41.9,30.2c-0.8-2.1-2.3-4.7-3.7-6.3l3.6,1.2l3.5-1.4C43.9,25.4,42.6,28.1,41.9,30.2z"/>

		<path d="M35.7,24.9v-1.1h-1.8v-0.3l1.7-2.5h0.6v2.4h0.5v0.4h-0.5v1.1H35.7z M35.7,23.4v-1.3c0-0.2,0-0.4,0-0.6h0
			c-0.1,0.2-0.2,0.4-0.3,0.6l-1,1.3v0H35.7z"/>

</svg>