<?xml version="1.0" encoding="utf-8"?>
<!-- Generator: Adobe Illustrator 26.2.1, SVG Export Plug-In . SVG Version: 6.00 Build 0)  -->
<svg version="1.1" xmlns="http://www.w3.org/2000/svg" xmlns:xlink="http://www.w3.org/1999/xlink" x="0px" y="0px"
	 viewBox="0 0 100 100" style="enable-background:new 0 0 100 100;" xml:space="preserve" width = "100px" height = "100px">
<style type="text/css">
	.st0{display:none;}
	.st1{display:inline;}
</style> 

		<path d="M38.2,20.9c2.4-5.2,5.1-12.4,6.5-17.6l9.4,2.5c-0.2,0.6-1,1-2.2,1c-1.5,4.2-3.8,9.5-6.1,14.1 M19.6,51.8"/>

		<line x1="56.3" y1="7.6" x2="52.8" y2="18"/>

			<rect x="52" y="9.9" transform="matrix(0.3139 -0.9495 0.9495 0.3139 27.8091 59.7782)" width="6.5" height="1.5"/>
	
				<path d="M52.8,18c-0.1-2.3-0.5-5.2-1.4-7.2l3,2.3l3.8-0.1C56.4,14.2,54.2,16.3,52.8,18z"/>

		<path d="M60.1,6.5L60.1,6.5l-0.7,0.4l-0.1-0.4L60.2,6h0.4v3.9h-0.5V6.5z"/>

</svg>