<?xml version="1.0" encoding="utf-8"?>
<!-- Generator: Adobe Illustrator 26.2.1, SVG Export Plug-In . SVG Version: 6.00 Build 0)  -->
<svg version="1.1" xmlns="http://www.w3.org/2000/svg" xmlns:xlink="http://www.w3.org/1999/xlink" x="0px" y="0px"
	 viewBox="0 0 100 100" style="enable-background:new 0 0 100 100;" xml:space="preserve" width = "100px" height = "100px">
<style type="text/css">
	.st0{display:none;}
	.st1{display:inline;}
</style>

		<path d="M48.8,17.8c-1.3-3.5-4.3-8.2-7.2-11.6l5.2-2.3c3.3,3.6,6.7,8.6,7.9,12.1L51,17.8"/>


		<rect x="39.7" y="8.1" transform="matrix(0.8633 -0.5047 0.5047 0.8633 -3.805769e-02 21.9)" width="1.5" height="5.8"/>

			<path d="M44.1,17.4c-1.8-1.4-4.3-3-6.3-3.7l3.7-0.7l2.4-2.9C43.6,12.2,43.8,15.2,44.1,17.4z"/>

		<path d="M35.9,6.4L35.9,6.4l-0.7,0.4l-0.1-0.4L36,5.9h0.4v3.9h-0.5V6.4z"/>

 </svg>