<?xml version="1.0" encoding="utf-8"?>
<!-- Generator: Adobe Illustrator 26.2.1, SVG Export Plug-In . SVG Version: 6.00 Build 0)  -->
<svg version="1.1" xmlns="http://www.w3.org/2000/svg" xmlns:xlink="http://www.w3.org/1999/xlink" x="0px" y="0px"
	 viewBox="0 0 100 100" style="enable-background:new 0 0 100 100;" xml:space="preserve">
<style type="text/css">
	.st0{display:none;}
	.st1{display:inline;}
</style>
<g id="Stroke2">
	<g>
		<path d="M50.1,86.5h45.4v6.8H4.5v-6.8H43V6.7l9.1,0.6c-0.1,0.7-0.7,1.2-2.1,1.4v29.6h38.4v6.8H50.1V86.5z"/>
	</g>
	<g>
		<path d="M5.3,82.3c1.5,0,21.8,0,21.8,0"/>
		<g>
			<rect x="5.3" y="81.6" width="17.2" height="1.5"/>
			<g>
				<path d="M27,82.3c-2.1,0.8-4.8,2.1-6.4,3.6l1.3-3.6l-1.3-3.6C22.3,80.2,24.9,81.5,27,82.3z"/>
			</g>
		</g>
	</g>
	<g>
		<path d="M5.7,79.1c0.1,0.1,0.5,0.2,0.9,0.2c0.7,0,0.9-0.4,0.9-0.8c0-0.5-0.5-0.8-1-0.8H6.1v-0.4h0.3c0.4,0,0.9-0.2,0.9-0.7
			c0-0.3-0.2-0.6-0.7-0.6c-0.3,0-0.6,0.1-0.8,0.3l-0.1-0.4c0.2-0.1,0.6-0.3,1-0.3c0.8,0,1.1,0.5,1.1,0.9c0,0.4-0.2,0.7-0.7,0.9v0
			c0.5,0.1,0.9,0.5,0.9,1c0,0.6-0.5,1.2-1.4,1.2c-0.4,0-0.8-0.1-1-0.3L5.7,79.1z"/>
	</g>
</g>
<g id="Stroke1" class="st0">
	<g class="st1">
		<path d="M43,86.5V6.7l9.1,0.6c-0.1,0.7-0.7,1.2-2.1,1.4v29.6h38.4v6.8H50.1v41.3"/>
	</g>
	<g class="st1">
		<line x1="51.5" y1="50" x2="70.6" y2="50"/>
		<g>
			<rect x="51.5" y="49.2" width="14.6" height="1.5"/>
			<g>
				<path d="M70.6,50c-2.1,0.8-4.8,2.1-6.4,3.6l1.3-3.6l-1.3-3.6C65.9,47.9,68.5,49.2,70.6,50z"/>
			</g>
		</g>
	</g>
	<g class="st1">
		<path d="M52.4,57.1v-0.3l0.4-0.4c1-0.9,1.4-1.5,1.5-2c0-0.4-0.2-0.8-0.8-0.8c-0.4,0-0.6,0.2-0.8,0.3l-0.2-0.4
			c0.3-0.2,0.7-0.4,1.1-0.4c0.8,0,1.2,0.6,1.2,1.1c0,0.7-0.5,1.3-1.3,2.1l-0.3,0.3v0h1.8v0.4H52.4z"/>
	</g>
</g>
<g id="Stroke0" class="st0">
	<g class="st1">
		<path d="M43,86.5V6.7l9.1,0.6c-0.1,0.7-0.7,1.2-2.1,1.4v29.6v6.8v41.3"/>
	</g>
	<g class="st1">
		<line x1="55.2" y1="8.1" x2="55.2" y2="25.8"/>
		<g>
			<rect x="54.4" y="8.1" width="1.5" height="13.2"/>
			<g>
				<path d="M55.2,25.8c-0.8-2.1-2.1-4.8-3.6-6.4l3.6,1.3l3.6-1.3C57.3,21.1,56,23.7,55.2,25.8z"/>
			</g>
		</g>
	</g>
	<g class="st1">
		<path d="M59.1,10L59.1,10l-0.7,0.4l-0.1-0.4l0.9-0.5h0.4v3.9h-0.5V10z"/>
	</g>
</g>
<g id="Kanji" class="st0">
	<g class="st1">
		<path d="M50.1,86.5h45.4v6.8H4.5v-6.8H43V6.7l9.1,0.6c-0.1,0.7-0.7,1.2-2.1,1.4v29.6h38.4v6.8H50.1V86.5z"/>
	</g>
</g>
</svg>
