<?xml version="1.0" encoding="utf-8"?>
<!-- Generator: Adobe Illustrator 26.2.1, SVG Export Plug-In . SVG Version: 6.00 Build 0)  -->
<svg version="1.1" xmlns="http://www.w3.org/2000/svg" xmlns:xlink="http://www.w3.org/1999/xlink" x="0px" y="0px"
	 viewBox="0 0 100 100" style="enable-background:new 0 0 100 100;" xml:space="preserve" width = "100px" height = "100px">
<style type="text/css">
	.st0{display:none;}
	.st1{display:inline;}
</style>
		<path d="M43,86.5V6.7l9.1,0.6c-0.1,0.7-0.7,1.2-2.1,1.4v29.6h38.4v6.8H50.1v41.3"/>
		<line x1="51.5" y1="50" x2="70.6" y2="50"/>
		<rect x="51.5" y="49.2" width="14.6" height="1.5"/>
		<path d="M70.6,50c-2.1,0.8-4.8,2.1-6.4,3.6l1.3-3.6l-1.3-3.6C65.9,47.9,68.5,49.2,70.6,50z"/>
		<path d="M52.4,57.1v-0.3l0.4-0.4c1-0.9,1.4-1.5,1.5-2c0-0.4-0.2-0.8-0.8-0.8c-0.4,0-0.6,0.2-0.8,0.3l-0.2-0.4
			c0.3-0.2,0.7-0.4,1.1-0.4c0.8,0,1.2,0.6,1.2,1.1c0,0.7-0.5,1.3-1.3,2.1l-0.3,0.3v0h1.8v0.4H52.4z"/>
 </svg>