<?xml version="1.0" encoding="utf-8"?>
<!-- Generator: Adobe Illustrator 26.2.1, SVG Export Plug-In . SVG Version: 6.00 Build 0)  -->
<svg version="1.1" xmlns="http://www.w3.org/2000/svg" xmlns:xlink="http://www.w3.org/1999/xlink" x="0px" y="0px"
	 viewBox="0 0 100 100" style="enable-background:new 0 0 100 100;" xml:space="preserve" width = "100px" height = "100px">
<style type="text/css">
	.st0{display:none;}
	.st1{display:inline;}
</style><g id="Stroke2">
	<g>
		<path d="M50.1,86.5h45.4v6.8H4.5v-6.8H43V6.7l9.1,0.6c-0.1,0.7-0.7,1.2-2.1,1.4v29.6h38.4v6.8H50.1V86.5z"/>
	</g>
	<g>
		<path d="M5.3,82.3c1.5,0,21.8,0,21.8,0"/>
		<g>
			<rect x="5.3" y="81.6" width="17.2" height="1.5"/>
			<g>
				<path d="M27,82.3c-2.1,0.8-4.8,2.1-6.4,3.6l1.3-3.6l-1.3-3.6C22.3,80.2,24.9,81.5,27,82.3z"/>
			</g>
		</g>
	</g>
	<g>
		<path d="M5.7,79.1c0.1,0.1,0.5,0.2,0.9,0.2c0.7,0,0.9-0.4,0.9-0.8c0-0.5-0.5-0.8-1-0.8H6.1v-0.4h0.3c0.4,0,0.9-0.2,0.9-0.7
			c0-0.3-0.2-0.6-0.7-0.6c-0.3,0-0.6,0.1-0.8,0.3l-0.1-0.4c0.2-0.1,0.6-0.3,1-0.3c0.8,0,1.1,0.5,1.1,0.9c0,0.4-0.2,0.7-0.7,0.9v0
			c0.5,0.1,0.9,0.5,0.9,1c0,0.6-0.5,1.2-1.4,1.2c-0.4,0-0.8-0.1-1-0.3L5.7,79.1z"/>
	</g>
</g> </svg>