<?xml version="1.0" encoding="utf-8"?>
<!-- Generator: Adobe Illustrator 26.2.1, SVG Export Plug-In . SVG Version: 6.00 Build 0)  -->
<svg version="1.1" xmlns="http://www.w3.org/2000/svg" xmlns:xlink="http://www.w3.org/1999/xlink" x="0px" y="0px"
	 viewBox="0 0 100 100" style="enable-background:new 0 0 100 100;" xml:space="preserve" width = "100px" height = "100px">
<style type="text/css">
	.st0{display:none;}
	.st1{display:inline;}
</style> 

		<path d="M5.1,71.7H95v5.7H5.1V71.7z M13.7,22.5h72.7v5.7H13.7V22.5z"/>

	<path d="M53,47.8"/>

		<line x1="7.3" y1="83.8" x2="88.1" y2="83.8"/>

			<path d="M83.6,84.5H7.3c-0.4,0-0.8-0.3-0.8-0.8S6.9,83,7.3,83h76.3c0.4,0,0.8,0.3,0.8,0.8S84,84.5,83.6,84.5z"/>

				<path d="M88.1,83.8c-2.1,0.8-4.8,2.1-6.4,3.6l1.3-3.6l-1.3-3.6C83.3,81.7,86,83,88.1,83.8z"/>

		<path d="M11.2,91.4H7.9v-0.3l0.5-0.5c1.3-1.1,2-1.7,2-2.5c0-0.5-0.3-0.9-1-0.9c-0.4,0-0.8,0.2-1.1,0.4l-0.2-0.3
			c0.3-0.2,0.8-0.4,1.4-0.4c1.1,0,1.5,0.7,1.5,1.3c0,0.8-0.7,1.6-1.9,2.5L8.7,91v0h2.4V91.4z"/>


</svg>