<?xml version="1.0" encoding="utf-8"?>
<!-- Generator: Adobe Illustrator 26.2.1, SVG Export Plug-In . SVG Version: 6.00 Build 0)  -->
<svg version="1.1" xmlns="http://www.w3.org/2000/svg" xmlns:xlink="http://www.w3.org/1999/xlink" x="0px" y="0px"
	 viewBox="0 0 100 100" style="enable-background:new 0 0 100 100;" xml:space="preserve" width = "100px" height = "100px">
<style type="text/css">
	.st0{display:none;}
	.st1{display:inline;}
</style> 


		<path d="M13.7,14.9h72.7v5.7H13.7V14.9z"/>

	<path class="st1" d="M53,47.8"/>

		<line x1="15.6" y1="27" x2="84.2" y2="27"/>
	
			<path d="M79.7,27.8H15.6c-0.4,0-0.8-0.3-0.8-0.8s0.3-0.8,0.8-0.8h64.1c0.4,0,0.8,0.3,0.8,0.8S80.1,27.8,79.7,27.8z"/>
			
				<path d="M84.2,27c-2.1,0.8-4.8,2.1-6.4,3.6l1.3-3.6l-1.3-3.6C79.4,24.9,82.1,26.3,84.2,27z"/>


		<path d="M16.4,36.1v-4h0l-0.9,0.4l-0.1-0.4l1.1-0.5H17v4.5H16.4z"/>



</svg>