<?xml version="1.0" encoding="utf-8"?>
<!-- Generator: Adobe Illustrator 26.2.1, SVG Export Plug-In . SVG Version: 6.00 Build 0)  -->
<svg version="1.1" xmlns="http://www.w3.org/2000/svg" xmlns:xlink="http://www.w3.org/1999/xlink" x="0px" y="0px"
	 viewBox="0 0 100 100" style="enable-background:new 0 0 100 100;" xml:space="preserve">
<style type="text/css">
	.st0{fill:none;}
	.st1{display:none;}
	.st2{display:inline;fill:none;}
	.st3{display:inline;}
</style>
<g id="Stroke4">
	<rect x="17.2" y="27.6" class="st0" width="12.6" height="0"/>
	<g>
		<path d="M95.3,61.4v6.8H53.2v28.2h-7V68.2H4.7v-6.8h41.4V42.9H11.4v-6.7h34.7V3.6l9,0.6c-0.1,0.7-0.7,1.2-2,1.4v30.6h36.1v6.7
			H53.2v18.5H95.3z M20.5,6.4c5,7.2,10.3,16.8,12.4,22.9l-6.4,2.9c-2-6.1-7.1-16-12-23.3L20.5,6.4z M87.2,9.6
			c-0.2,0.6-1,0.9-2.2,0.9c-3.4,6.6-9,16.1-13.5,22c-0.1,0-5.7-2.6-5.7-2.6c4.5-6.3,10-16.5,13-23.8L87.2,9.6z"/>
	</g>
	<g>
		<line x1="57.2" y1="6.4" x2="57.2" y2="26.7"/>
		<g>
			<rect x="56.4" y="6.4" width="1.5" height="15.8"/>
			<g>
				<path d="M57.2,26.7c-0.8-2.1-2.1-4.8-3.6-6.4l3.6,1.3l3.6-1.3C59.3,21.9,57.9,24.6,57.2,26.7z"/>
			</g>
		</g>
	</g>
	<g>
		<path d="M63.3,7.2h-1.5l-0.1,1c0.1,0,0.2,0,0.3,0c0.3,0,0.6,0.1,0.8,0.2c0.3,0.2,0.6,0.5,0.6,1c0,0.8-0.6,1.3-1.5,1.3
			c-0.4,0-0.8-0.1-1-0.2l0.1-0.4c0.2,0.1,0.5,0.2,0.8,0.2c0.5,0,0.9-0.3,0.9-0.8c0-0.5-0.3-0.9-1.1-0.9c-0.2,0-0.4,0-0.5,0l0.3-1.9
			h1.9V7.2z"/>
	</g>
</g>
<g id="Stroke3" class="st1">
	<rect x="17.2" y="27.6" class="st2" width="12.6" height="0"/>
	<g class="st3">
		<path d="M46.1,42.9H11.4v-6.7h34.7h7h36.1v6.7H53.2 M46.1,68.2H4.7v-6.8h41.4h7h42.1v6.8H53.2 M20.5,6.4
			c5,7.2,10.3,16.8,12.4,22.9l-6.4,2.9c-2-6.1-7.1-16-12-23.3L20.5,6.4z M87.2,9.6c-0.2,0.6-1,0.9-2.2,0.9c-3.4,6.6-9,16.1-13.5,22
			c-0.1,0-5.7-2.6-5.7-2.6c4.5-6.3,10-16.5,13-23.8L87.2,9.6z"/>
	</g>
	<g class="st3">
		<line x1="5.4" y1="72.7" x2="35.9" y2="72.7"/>
		<g>
			<rect x="5.4" y="72" width="26" height="1.5"/>
			<g>
				<path d="M35.9,72.7c-2.1,0.8-4.8,2.1-6.4,3.6l1.3-3.6l-1.3-3.6C31.2,70.6,33.8,71.9,35.9,72.7z"/>
			</g>
		</g>
	</g>
	<g class="st3">
		<path d="M7.2,78.9v-1.1H5.4v-0.3L7.1,75h0.6v2.4h0.5v0.4H7.7v1.1H7.2z M7.2,77.5v-1.3c0-0.2,0-0.4,0-0.6h0C7.1,75.8,7,76,6.9,76.1
			l-1,1.3v0H7.2z"/>
	</g>
</g>
<g id="Stroke2" class="st1">
	<rect x="17.2" y="27.6" class="st2" width="12.6" height="0"/>
	<g class="st3">
		<path d="M46.1,42.9H11.4v-6.7h34.7h7h36.1v6.7H53.2 M20.5,6.4c5,7.2,10.3,16.8,12.4,22.9l-6.4,2.9c-2-6.1-7.1-16-12-23.3L20.5,6.4
			z M87.2,9.6c-0.2,0.6-1,0.9-2.2,0.9c-3.4,6.6-9,16.1-13.5,22c-0.1,0-5.7-2.6-5.7-2.6c4.5-6.3,10-16.5,13-23.8L87.2,9.6z"/>
	</g>
	<g class="st3">
		<line x1="14.1" y1="47.4" x2="42.6" y2="47.4"/>
		<g>
			<rect x="14.1" y="46.6" width="24" height="1.5"/>
			<g>
				<path d="M42.6,47.4c-2.1,0.8-4.8,2.1-6.4,3.6l1.3-3.6l-1.3-3.6C37.9,45.2,40.5,46.6,42.6,47.4z"/>
			</g>
		</g>
	</g>
	<g class="st3">
		<path d="M14.5,52.8c0.1,0.1,0.5,0.2,0.9,0.2c0.7,0,0.9-0.4,0.9-0.8c0-0.5-0.5-0.8-1-0.8H15v-0.4h0.3c0.4,0,0.9-0.2,0.9-0.7
			c0-0.3-0.2-0.6-0.7-0.6c-0.3,0-0.6,0.1-0.8,0.3l-0.1-0.4c0.2-0.1,0.6-0.3,1-0.3c0.8,0,1.1,0.5,1.1,0.9c0,0.4-0.2,0.7-0.7,0.9v0
			c0.5,0.1,0.9,0.5,0.9,1c0,0.6-0.5,1.2-1.4,1.2c-0.4,0-0.8-0.1-1-0.3L14.5,52.8z"/>
	</g>
</g>
<g id="Stroke1" class="st1">
	<rect x="17.2" y="27.6" class="st2" width="12.6" height="0"/>
	<g class="st3">
		<path d="M20.5,6.4c5,7.2,10.3,16.8,12.4,22.9l-6.4,2.9c-2-6.1-7.1-16-12-23.3L20.5,6.4z M87.2,9.6c-0.2,0.6-1,0.9-2.2,0.9
			c-3.4,6.6-9,16.1-13.5,22c-0.1,0-5.7-2.6-5.7-2.6c4.5-6.3,10-16.5,13-23.8L87.2,9.6z"/>
	</g>
	<g class="st3">
		<path d="M80.8,27.9l-1.2-0.9l0.1-0.2c3-4.4,5.3-9.2,6.6-14.3l1.4,0.4c-1.4,5.3-3.7,10.2-6.8,14.8L80.8,27.9z"/>
		<g>
			<path d="M77.4,31.1c0.7-2.2,1.2-5.1,1-7.3l2.1,3.2l3.6,1.1C82,28.6,79.3,29.9,77.4,31.1z"/>
		</g>
	</g>
	<g class="st3">
		<path d="M89.2,18v-0.3l0.4-0.4c1-0.9,1.4-1.5,1.5-2c0-0.4-0.2-0.8-0.8-0.8c-0.4,0-0.6,0.2-0.8,0.3l-0.2-0.4
			c0.3-0.2,0.7-0.4,1.1-0.4c0.8,0,1.2,0.6,1.2,1.1c0,0.7-0.5,1.3-1.3,2.1l-0.3,0.3v0h1.8V18H89.2z"/>
	</g>
</g>
<g id="Stroke0" class="st1">
	<rect x="17.2" y="27.6" class="st2" width="12.6" height="0"/>
	<g class="st3">
		<path d="M20.5,6.4c5,7.2,10.3,16.8,12.4,22.9l-6.4,2.9c-2-6.1-7.1-16-12-23.3L20.5,6.4z"/>
	</g>
	<g class="st3">
		<path d="M32.2,18.5c-0.7-1.2-1.5-2.5-2.3-3.6c-1.7-2.4-3.6-4.6-5.8-6.6l1-1.1c2.2,2.1,4.2,4.3,6,6.8c0.9,1.2,1.7,2.5,2.4,3.8
			L32.2,18.5z"/>
		<g>
			<path d="M34.9,22.2c-1.7-1.5-4.1-3.3-6.1-4.1l3.8-0.5l2.6-2.8C34.6,17,34.6,19.9,34.9,22.2z"/>
		</g>
	</g>
	<g class="st3">
		<path d="M32.6,7.4L32.6,7.4l-0.7,0.4l-0.1-0.4l0.9-0.5h0.4v3.9h-0.5V7.4z"/>
	</g>
</g>
<g id="Kanji" class="st1">
	<rect x="17.2" y="27.6" class="st2" width="12.6" height="0"/>
	<g class="st3">
		<path d="M95.3,61.4v6.8H53.2v28.2h-7V68.2H4.7v-6.8h41.4V42.9H11.4v-6.7h34.7V3.6l9,0.6c-0.1,0.7-0.7,1.2-2,1.4v30.6h36.1v6.7
			H53.2v18.5H95.3z M20.5,6.4c5,7.2,10.3,16.8,12.4,22.9l-6.4,2.9c-2-6.1-7.1-16-12-23.3L20.5,6.4z M87.2,9.6
			c-0.2,0.6-1,0.9-2.2,0.9c-3.4,6.6-9,16.1-13.5,22c-0.1,0-5.7-2.6-5.7-2.6c4.5-6.3,10-16.5,13-23.8L87.2,9.6z"/>
	</g>
</g>
</svg>
