<?xml version="1.0" encoding="utf-8"?>
<!-- Generator: Adobe Illustrator 26.2.1, SVG Export Plug-In . SVG Version: 6.00 Build 0)  -->
<svg version="1.1" xmlns="http://www.w3.org/2000/svg" xmlns:xlink="http://www.w3.org/1999/xlink" x="0px" y="0px"
	 viewBox="0 0 100 100" style="enable-background:new 0 0 100 100;" xml:space="preserve" width = "100px" height = "100px">
<style type="text/css">
	.st0{display:none;}
	.st1{display:inline;}
</style> 

	<rect x="17.2" y="27.6" class="st0" width="12.6" height="0"/>

		<path d="M95.3,61.4v6.8H53.2v28.2h-7V68.2H4.7v-6.8h41.4V42.9H11.4v-6.7h34.7V3.6l9,0.6c-0.1,0.7-0.7,1.2-2,1.4v30.6h36.1v6.7
			H53.2v18.5H95.3z M20.5,6.4c5,7.2,10.3,16.8,12.4,22.9l-6.4,2.9c-2-6.1-7.1-16-12-23.3L20.5,6.4z M87.2,9.6
			c-0.2,0.6-1,0.9-2.2,0.9c-3.4,6.6-9,16.1-13.5,22c-0.1,0-5.7-2.6-5.7-2.6c4.5-6.3,10-16.5,13-23.8L87.2,9.6z"/>

		<line x1="57.2" y1="6.4" x2="57.2" y2="26.7"/>

			<rect x="56.4" y="6.4" width="1.5" height="15.8"/>
		
				<path d="M57.2,26.7c-0.8-2.1-2.1-4.8-3.6-6.4l3.6,1.3l3.6-1.3C59.3,21.9,57.9,24.6,57.2,26.7z"/>

		<path d="M63.3,7.2h-1.5l-0.1,1c0.1,0,0.2,0,0.3,0c0.3,0,0.6,0.1,0.8,0.2c0.3,0.2,0.6,0.5,0.6,1c0,0.8-0.6,1.3-1.5,1.3
			c-0.4,0-0.8-0.1-1-0.2l0.1-0.4c0.2,0.1,0.5,0.2,0.8,0.2c0.5,0,0.9-0.3,0.9-0.8c0-0.5-0.3-0.9-1.1-0.9c-0.2,0-0.4,0-0.5,0l0.3-1.9
			h1.9V7.2z"/>



</svg>