<?xml version="1.0" encoding="utf-8"?>
<!-- Generator: Adobe Illustrator 26.2.1, SVG Export Plug-In . SVG Version: 6.00 Build 0)  -->
<svg version="1.1" xmlns="http://www.w3.org/2000/svg" xmlns:xlink="http://www.w3.org/1999/xlink" x="0px" y="0px"
	 viewBox="0 0 100 100" style="enable-background:new 0 0 100 100;" xml:space="preserve" width = "100px" height = "100px">
<style type="text/css">
	.st0{display:none;}
	.st1{display:inline;}
</style> 

	<rect x="17.2" y="27.6" class="st2" width="12.6" height="0"/>

		<path d="M46.1,42.9H11.4v-6.7h34.7h7h36.1v6.7H53.2 M46.1,68.2H4.7v-6.8h41.4h7h42.1v6.8H53.2 M20.5,6.4
			c5,7.2,10.3,16.8,12.4,22.9l-6.4,2.9c-2-6.1-7.1-16-12-23.3L20.5,6.4z M87.2,9.6c-0.2,0.6-1,0.9-2.2,0.9c-3.4,6.6-9,16.1-13.5,22
			c-0.1,0-5.7-2.6-5.7-2.6c4.5-6.3,10-16.5,13-23.8L87.2,9.6z"/>

		<line x1="5.4" y1="72.7" x2="35.9" y2="72.7"/>

			<rect x="5.4" y="72" width="26" height="1.5"/>
		
				<path d="M35.9,72.7c-2.1,0.8-4.8,2.1-6.4,3.6l1.3-3.6l-1.3-3.6C31.2,70.6,33.8,71.9,35.9,72.7z"/>

		<path d="M7.2,78.9v-1.1H5.4v-0.3L7.1,75h0.6v2.4h0.5v0.4H7.7v1.1H7.2z M7.2,77.5v-1.3c0-0.2,0-0.4,0-0.6h0C7.1,75.8,7,76,6.9,76.1
			l-1,1.3v0H7.2z"/>


</svg>