<?xml version="1.0" encoding="utf-8"?>
<!-- Generator: Adobe Illustrator 26.2.1, SVG Export Plug-In . SVG Version: 6.00 Build 0)  -->
<svg version="1.1" xmlns="http://www.w3.org/2000/svg" xmlns:xlink="http://www.w3.org/1999/xlink" x="0px" y="0px"
	 viewBox="0 0 100 100" style="enable-background:new 0 0 100 100;" xml:space="preserve" width = "100px" height = "100px">
<style type="text/css">
	.st0{display:none;}
	.st1{display:inline;}
</style> 

	<rect x="17.2" y="27.6" class="st2" width="12.6" height="0"/>

		<path d="M46.1,42.9H11.4v-6.7h34.7h7h36.1v6.7H53.2 M20.5,6.4c5,7.2,10.3,16.8,12.4,22.9l-6.4,2.9c-2-6.1-7.1-16-12-23.3L20.5,6.4
			z M87.2,9.6c-0.2,0.6-1,0.9-2.2,0.9c-3.4,6.6-9,16.1-13.5,22c-0.1,0-5.7-2.6-5.7-2.6c4.5-6.3,10-16.5,13-23.8L87.2,9.6z"/>

		<line x1="14.1" y1="47.4" x2="42.6" y2="47.4"/>

			<rect x="14.1" y="46.6" width="24" height="1.5"/>

				<path d="M42.6,47.4c-2.1,0.8-4.8,2.1-6.4,3.6l1.3-3.6l-1.3-3.6C37.9,45.2,40.5,46.6,42.6,47.4z"/>

		<path d="M14.5,52.8c0.1,0.1,0.5,0.2,0.9,0.2c0.7,0,0.9-0.4,0.9-0.8c0-0.5-0.5-0.8-1-0.8H15v-0.4h0.3c0.4,0,0.9-0.2,0.9-0.7
			c0-0.3-0.2-0.6-0.7-0.6c-0.3,0-0.6,0.1-0.8,0.3l-0.1-0.4c0.2-0.1,0.6-0.3,1-0.3c0.8,0,1.1,0.5,1.1,0.9c0,0.4-0.2,0.7-0.7,0.9v0
			c0.5,0.1,0.9,0.5,0.9,1c0,0.6-0.5,1.2-1.4,1.2c-0.4,0-0.8-0.1-1-0.3L14.5,52.8z"/>

</svg>