<?xml version="1.0" encoding="utf-8"?>
<!-- Generator: Adobe Illustrator 26.2.1, SVG Export Plug-In . SVG Version: 6.00 Build 0)  -->
<svg version="1.1" xmlns="http://www.w3.org/2000/svg" xmlns:xlink="http://www.w3.org/1999/xlink" x="0px" y="0px"
	 viewBox="0 0 100 100" style="enable-background:new 0 0 100 100;" xml:space="preserve" width = "100px" height = "100px">
<style type="text/css">
	.st0{display:none;}
	.st1{display:inline;}
</style> 


		<path d="M83.5,51.7 M83.6,35.4H63.1h-6.5H40.8v4.4c0,9.6-3.2,21.9-16.6,30.3c-0.9-1.2-3.4-3.6-4.9-4.4
			c12.6-7.6,15.1-17.9,15.1-26.1v-4.2H16.7c-0.8,0,0,57.6,0,57.6h-6.5V29.1h24V13.4H4.6V6.9h90.8v6.5c0,0-53.2-0.2-54.6,0v15.7h49.6
			v63.4h-6.8"/>

		<line x1="45.3" y1="15" x2="45.3" y2="26.9"/>
	
			<rect x="44.6" y="15" width="1.5" height="7.4"/>
		
				<path d="M45.3,26.9c-0.8-2.1-2.1-4.8-3.6-6.4l3.6,1.3l3.6-1.3C47.5,22.2,46.1,24.8,45.3,26.9z"/>

		<path d="M49.8,18.6v-1.1h-1.8v-0.3l1.7-2.5h0.6v2.4h0.5v0.4h-0.5v1.1H49.8z M49.8,17.1v-1.3c0-0.2,0-0.4,0-0.6h0
			c-0.1,0.2-0.2,0.4-0.3,0.6l-1,1.3v0H49.8z"/>


</svg>