<?xml version="1.0" encoding="utf-8"?>
<!-- Generator: Adobe Illustrator 26.2.1, SVG Export Plug-In . SVG Version: 6.00 Build 0)  -->
<svg version="1.1" xmlns="http://www.w3.org/2000/svg" xmlns:xlink="http://www.w3.org/1999/xlink" x="0px" y="0px"
	 viewBox="0 0 100 100" style="enable-background:new 0 0 100 100;" xml:space="preserve" width = "100px" height = "100px">
<style type="text/css">
	.st0{display:none;}
	.st1{display:inline;}
</style>

		<path d="M83.6,35.4H63.1h-6.5H40.8h-6.4H16.7v51.2v6.4h-6.5V29.1h80.2v63.4h-6.8 M83.5,51.7 M34.2,13.4H4.6V6.9h90.8v6.5h-32
			c0,0-5.9,0-6.8,0H40.8"/>


		<line x1="19" y1="39.7" x2="35.4" y2="39.7"/>

			<rect x="19" y="38.9" width="11.9" height="1.5"/>
		
				<path d="M35.4,39.7c-2.1,0.8-4.8,2.1-6.4,3.6l1.3-3.6L29,36.1C30.6,37.5,33.3,38.9,35.4,39.7z"/>

		<path d="M19.4,45.7c0.1,0.1,0.5,0.2,0.9,0.2c0.7,0,0.9-0.4,0.9-0.8c0-0.5-0.5-0.8-1-0.8h-0.3V44h0.3c0.4,0,0.9-0.2,0.9-0.7
			c0-0.3-0.2-0.6-0.7-0.6c-0.3,0-0.6,0.1-0.8,0.3l-0.1-0.4c0.2-0.1,0.6-0.3,1-0.3c0.8,0,1.1,0.5,1.1,0.9c0,0.4-0.2,0.7-0.7,0.9v0
			c0.5,0.1,0.9,0.5,0.9,1c0,0.6-0.5,1.2-1.4,1.2c-0.4,0-0.8-0.1-1-0.3L19.4,45.7z"/>

</svg>