<?xml version="1.0" encoding="utf-8"?>
<!-- Generator: Adobe Illustrator 26.2.1, SVG Export Plug-In . SVG Version: 6.00 Build 0)  -->
<svg version="1.1" xmlns="http://www.w3.org/2000/svg" xmlns:xlink="http://www.w3.org/1999/xlink" x="0px" y="0px"
	 viewBox="0 0 100 100" style="enable-background:new 0 0 100 100;" xml:space="preserve" width = "100px" height = "100px">
<style type="text/css">
	.st0{display:none;}
	.st1{display:inline;}
</style> 


		<path d="M83.6,35.4H63.1V55c0,2.2,0.4,2.6,3,2.6h8.6c2.3,0,2.7-1,3-8.2c1.3,1,3.9,1.9,5.8,2.4c-0.8,9.5-2.5,11.8-8,11.8H65.3
			c-7.1,0-8.7-1.8-8.7-8.5V35.4H40.8v4.4c0,9.6-3.2,21.9-16.6,30.3c-0.9-1.2-3.4-3.6-4.9-4.4c12.6-7.6,15.1-17.9,15.1-26.1v-4.2
			H16.7v57.6h-6.5V29.1h24V13.4H4.6V6.9h90.8v6.5h-32v15.7h27v63.4h-6.8 M56.6,29.1V13.4H40.8v15.7H56.6z"/>


		<path d="M69.2,15.5c0,0.5,0,11.6,0,11.6"/>

			<rect x="68.5" y="15.5" width="1.5" height="7.1"/>

				<path d="M69.2,27.1c-0.8-2.1-2.1-4.8-3.6-6.4l3.6,1.3l3.6-1.3C71.3,22.3,70,25,69.2,27.1z"/>

		<path d="M66.8,14.9h-1.5l-0.1,1c0.1,0,0.2,0,0.3,0c0.3,0,0.6,0.1,0.8,0.2c0.3,0.2,0.6,0.5,0.6,1c0,0.8-0.6,1.3-1.5,1.3
			c-0.4,0-0.8-0.1-1-0.2l0.1-0.4c0.2,0.1,0.5,0.2,0.8,0.2c0.5,0,0.9-0.3,0.9-0.8c0-0.5-0.3-0.9-1.1-0.9c-0.2,0-0.4,0-0.5,0l0.3-1.9
			h1.9V14.9z"/>


</svg>