<?xml version="1.0" encoding="utf-8"?>
<!-- Generator: Adobe Illustrator 26.2.1, SVG Export Plug-In . SVG Version: 6.00 Build 0)  -->
<svg version="1.1" xmlns="http://www.w3.org/2000/svg" xmlns:xlink="http://www.w3.org/1999/xlink" x="0px" y="0px"
	 viewBox="0 0 100 100" style="enable-background:new 0 0 100 100;" xml:space="preserve">
<style type="text/css">
	.st0{display:none;}
	.st1{display:inline;}
</style>
<g id="Stroke5">
	<g>
		<path d="M95.4,13.4h-32v15.7h27v63.4h-6.8v-5.9H16.7v6.4h-6.5V29.1h24V13.4H4.6V6.9h90.8V13.4z M83.6,80.4V35.4H63.1V55
			c0,2.2,0.4,2.6,3,2.6h8.6c2.3,0,2.7-1,3-8.2c1.3,1,3.9,1.9,5.8,2.4c-0.8,9.5-2.5,11.8-8,11.8H65.3c-7.1,0-8.7-1.8-8.7-8.5V35.4
			H40.8v4.4c0,9.6-3.2,21.9-16.6,30.3c-0.9-1.2-3.4-3.6-4.9-4.4c12.6-7.6,15.1-17.9,15.1-26.1v-4.2H16.7v44.9H83.6z M56.6,29.1V13.4
			H40.8v15.7H56.6z"/>
	</g>
	<g>
		<line x1="19.2" y1="91.1" x2="35.3" y2="91.1"/>
		<g>
			<rect x="19.2" y="90.3" width="11.5" height="1.5"/>
			<g>
				<path d="M35.3,91.1c-2.1,0.8-4.8,2.1-6.4,3.6l1.3-3.6l-1.3-3.6C30.5,88.9,33.2,90.3,35.3,91.1z"/>
			</g>
		</g>
	</g>
	<g>
		<path d="M20.4,93.9c-0.1,0-0.2,0-0.4,0c-0.8,0.1-1.3,0.7-1.4,1.4h0c0.2-0.2,0.5-0.4,0.9-0.4c0.7,0,1.2,0.5,1.2,1.3
			c0,0.7-0.5,1.4-1.3,1.4c-0.8,0-1.4-0.6-1.4-1.7c0-0.8,0.3-1.4,0.7-1.8c0.3-0.3,0.8-0.5,1.2-0.6c0.2,0,0.3,0,0.4,0V93.9z
			 M20.2,96.2c0-0.6-0.3-0.9-0.8-0.9c-0.3,0-0.6,0.2-0.8,0.5c0,0.1-0.1,0.1-0.1,0.2c0,0.6,0.3,1.1,0.9,1.1
			C19.9,97.1,20.2,96.7,20.2,96.2z"/>
	</g>
</g>
<g id="Stroke4" class="st0">
	<g class="st1">
		<path d="M83.6,35.4H63.1V55c0,2.2,0.4,2.6,3,2.6h8.6c2.3,0,2.7-1,3-8.2c1.3,1,3.9,1.9,5.8,2.4c-0.8,9.5-2.5,11.8-8,11.8H65.3
			c-7.1,0-8.7-1.8-8.7-8.5V35.4H40.8v4.4c0,9.6-3.2,21.9-16.6,30.3c-0.9-1.2-3.4-3.6-4.9-4.4c12.6-7.6,15.1-17.9,15.1-26.1v-4.2
			H16.7v57.6h-6.5V29.1h24V13.4H4.6V6.9h90.8v6.5h-32v15.7h27v63.4h-6.8 M56.6,29.1V13.4H40.8v15.7H56.6z"/>
	</g>
	<g class="st1">
		<path d="M69.2,15.5c0,0.5,0,11.6,0,11.6"/>
		<g>
			<rect x="68.5" y="15.5" width="1.5" height="7.1"/>
			<g>
				<path d="M69.2,27.1c-0.8-2.1-2.1-4.8-3.6-6.4l3.6,1.3l3.6-1.3C71.3,22.3,70,25,69.2,27.1z"/>
			</g>
		</g>
	</g>
	<g class="st1">
		<path d="M66.8,14.9h-1.5l-0.1,1c0.1,0,0.2,0,0.3,0c0.3,0,0.6,0.1,0.8,0.2c0.3,0.2,0.6,0.5,0.6,1c0,0.8-0.6,1.3-1.5,1.3
			c-0.4,0-0.8-0.1-1-0.2l0.1-0.4c0.2,0.1,0.5,0.2,0.8,0.2c0.5,0,0.9-0.3,0.9-0.8c0-0.5-0.3-0.9-1.1-0.9c-0.2,0-0.4,0-0.5,0l0.3-1.9
			h1.9V14.9z"/>
	</g>
</g>
<g id="Stroke3" class="st0">
	<g class="st1">
		<path d="M83.5,51.7 M83.6,35.4H63.1h-6.5H40.8v4.4c0,9.6-3.2,21.9-16.6,30.3c-0.9-1.2-3.4-3.6-4.9-4.4
			c12.6-7.6,15.1-17.9,15.1-26.1v-4.2H16.7c-0.8,0,0,57.6,0,57.6h-6.5V29.1h24V13.4H4.6V6.9h90.8v6.5c0,0-53.2-0.2-54.6,0v15.7h49.6
			v63.4h-6.8"/>
	</g>
	<g class="st1">
		<line x1="45.3" y1="15" x2="45.3" y2="26.9"/>
		<g>
			<rect x="44.6" y="15" width="1.5" height="7.4"/>
			<g>
				<path d="M45.3,26.9c-0.8-2.1-2.1-4.8-3.6-6.4l3.6,1.3l3.6-1.3C47.5,22.2,46.1,24.8,45.3,26.9z"/>
			</g>
		</g>
	</g>
	<g class="st1">
		<path d="M49.8,18.6v-1.1h-1.8v-0.3l1.7-2.5h0.6v2.4h0.5v0.4h-0.5v1.1H49.8z M49.8,17.1v-1.3c0-0.2,0-0.4,0-0.6h0
			c-0.1,0.2-0.2,0.4-0.3,0.6l-1,1.3v0H49.8z"/>
	</g>
</g>
<g id="Stroke2" class="st0">
	<g class="st1">
		<path d="M83.6,35.4H63.1h-6.5H40.8h-6.4H16.7v51.2v6.4h-6.5V29.1h80.2v63.4h-6.8 M83.5,51.7 M34.2,13.4H4.6V6.9h90.8v6.5h-32
			c0,0-5.9,0-6.8,0H40.8"/>
	</g>
	<g class="st1">
		<line x1="19" y1="39.7" x2="35.4" y2="39.7"/>
		<g>
			<rect x="19" y="38.9" width="11.9" height="1.5"/>
			<g>
				<path d="M35.4,39.7c-2.1,0.8-4.8,2.1-6.4,3.6l1.3-3.6L29,36.1C30.6,37.5,33.3,38.9,35.4,39.7z"/>
			</g>
		</g>
	</g>
	<g class="st1">
		<path d="M19.4,45.7c0.1,0.1,0.5,0.2,0.9,0.2c0.7,0,0.9-0.4,0.9-0.8c0-0.5-0.5-0.8-1-0.8h-0.3V44h0.3c0.4,0,0.9-0.2,0.9-0.7
			c0-0.3-0.2-0.6-0.7-0.6c-0.3,0-0.6,0.1-0.8,0.3l-0.1-0.4c0.2-0.1,0.6-0.3,1-0.3c0.8,0,1.1,0.5,1.1,0.9c0,0.4-0.2,0.7-0.7,0.9v0
			c0.5,0.1,0.9,0.5,0.9,1c0,0.6-0.5,1.2-1.4,1.2c-0.4,0-0.8-0.1-1-0.3L19.4,45.7z"/>
	</g>
</g>
<g id="Stroke1" class="st0">
	<g class="st1">
		<path d="M16.7,29.1v6.3v44.9v6.3v6.4h-6.5V29.1 M40.8,35.4 M34.2,13.4H4.6V6.9h90.8v6.5h-32h-6.8H40.8"/>
	</g>
	<g class="st1">
		<line x1="21.2" y1="29.9" x2="21.2" y2="43"/>
		<g>
			<rect x="20.4" y="29.9" width="1.5" height="8.6"/>
			<g>
				<path d="M21.2,43c-0.8-2.1-2.1-4.8-3.6-6.4l3.6,1.3l3.6-1.3C23.3,38.2,22,40.9,21.2,43z"/>
			</g>
		</g>
	</g>
	<g class="st1">
		<path d="M24.3,33.7v-0.3l0.4-0.4c1-0.9,1.4-1.5,1.5-2c0-0.4-0.2-0.8-0.8-0.8c-0.4,0-0.6,0.2-0.8,0.3l-0.2-0.4
			c0.3-0.2,0.7-0.4,1.1-0.4c0.8,0,1.2,0.6,1.2,1.1c0,0.7-0.5,1.3-1.3,2.1l-0.3,0.3v0h1.8v0.4H24.3z"/>
	</g>
</g>
<g id="Stroke0" class="st0">
	<g class="st1">
		<path d="M34.2,13.4H4.6V6.9h90.8v6.5h-32h-6.8H40.8"/>
	</g>
	<g class="st1">
		<rect x="4.6" y="17.3" width="14.9" height="1.5"/>
		<g>
			<path d="M24.1,18.1c-2.1,0.8-4.8,2.1-6.4,3.6l1.3-3.6l-1.3-3.6C19.3,16,21.9,17.3,24.1,18.1z"/>
		</g>
	</g>
	<g class="st1">
		<path d="M6,20.9L6,20.9l-0.7,0.4l-0.1-0.4l0.9-0.5h0.4v3.9H6V20.9z"/>
	</g>
</g>
<g id="Kanji" class="st0">
	<g class="st1">
		<path d="M95.4,13.4h-32v15.7h27v63.4h-6.8v-5.9H16.7v6.4h-6.5V29.1h24V13.4H4.6V6.9h90.8V13.4z M83.6,80.4V35.4H63.1V55
			c0,2.2,0.4,2.6,3,2.6h8.6c2.3,0,2.7-1,3-8.2c1.3,1,3.9,1.9,5.8,2.4c-0.8,9.5-2.5,11.8-8,11.8H65.3c-7.1,0-8.7-1.8-8.7-8.5V35.4
			H40.8v4.4c0,9.6-3.2,21.9-16.6,30.3c-0.9-1.2-3.4-3.6-4.9-4.4c12.6-7.6,15.1-17.9,15.1-26.1v-4.2H16.7v44.9H83.6z M56.6,29.1V13.4
			H40.8v15.7H56.6z"/>
	</g>
</g>
</svg>
