<?xml version="1.0" encoding="utf-8"?>
<!-- Generator: Adobe Illustrator 26.2.1, SVG Export Plug-In . SVG Version: 6.00 Build 0)  -->
<svg version="1.1" xmlns="http://www.w3.org/2000/svg" xmlns:xlink="http://www.w3.org/1999/xlink" x="0px" y="0px"
	 viewBox="0 0 100 100" style="enable-background:new 0 0 100 100;" xml:space="preserve">
<style type="text/css">
	.st0{fill:#FFFFFF;}
	.st1{display:none;}
	.st2{display:inline;fill:#FFFFFF;}
	.st3{display:inline;}
</style>
<g id="Stroke4">
	<path class="st0" d="M56.9,88.2"/>
	<g>
		<path d="M8.5,9.6h83v79.9h-7V83H15.2v7.4H8.5V9.6z M15.2,76.5h69.3V16.2H62.7V47c0,3.6,0.4,4,3.7,4h5.2c5.5,0,5.6,0,5.9-12.4
			c1.3,1.1,3.5,2.2,5.3,2.7c-0.2,4.2-0.5,9.1-1.1,10.9c-1.1,2.7-3.1,4.5-9.6,4.5h-7c-9,0-9-5.1-9-10.5v-30H41.8
			C40.7,37,37.9,54,21.4,63.3c-0.8-1.6-2.8-3.8-4.2-4.9c14.4-7.9,17.2-22.5,18-42.1h-20V76.5z"/>
	</g>
	<g>
		<path d="M19.8,90.5V89c0.9,0,40.2-0.2,55.6-0.3l0,1.5C63.9,90.3,20.8,90.5,19.8,90.5z"/>
		<g>
			<path d="M79.9,89.4c-2.1-0.8-4.8-2.1-6.4-3.5l1.3,3.6L73.5,93C75.2,91.6,77.8,90.2,79.9,89.4z"/>
		</g>
	</g>
	<g>
		<path d="M22.4,93h-1.5l-0.1,1c0.1,0,0.2,0,0.3,0c0.3,0,0.6,0.1,0.8,0.2c0.3,0.2,0.6,0.5,0.6,1c0,0.8-0.6,1.3-1.5,1.3
			c-0.4,0-0.8-0.1-1-0.2l0.1-0.4c0.2,0.1,0.5,0.2,0.8,0.2c0.5,0,0.9-0.3,0.9-0.8c0-0.5-0.3-0.9-1.1-0.9c-0.2,0-0.4,0-0.5,0l0.3-1.9
			h1.9V93z"/>
	</g>
</g>
<g id="Stroke3" class="st1">
	<path class="st2" d="M56.9,88.2"/>
	<g class="st3">
		<path d="M84.5,16.2H62.7V47c0,3.6,0.4,4,3.7,4h5.2c5.5,0,5.6,0,5.9-12.4c1.3,1.1,3.5,2.2,5.3,2.7c-0.2,4.2-0.5,9.1-1.1,10.9
			c-1.1,2.7-3.1,4.5-9.6,4.5h-7c-9,0-9-5.1-9-10.5v-30H41.8C40.7,37,37.9,54,21.4,63.3c-0.8-1.6-2.8-3.8-4.2-4.9
			c14.4-7.9,17.2-22.5,18-42.1h-20v74.1H8.5V9.6h83v79.9c-2.3,0-4.7,0-7,0"/>
	</g>
	<g class="st3">
		<path d="M69.3,64.7c-8.4,0-14.5-0.5-17-3.1c-0.9-0.9-1.3-2-1.2-3.4c0.7-13.6,0.5-19.8,0.3-25.9c-0.1-3.6-0.2-7.1-0.1-11.9l1.5,0
			c-0.1,4.8,0,8.2,0.1,11.9c0.2,6.1,0.4,12.3-0.3,26c0,0.9,0.2,1.7,0.8,2.3c2.7,2.8,11.8,2.7,19.8,2.6l0,1.5
			C71.9,64.7,70.6,64.7,69.3,64.7z"/>
		<g>
			<path d="M77.8,63.9c-2.1,0.8-4.8,2.2-6.4,3.6l1.3-3.6l-1.3-3.6C73,61.8,75.6,63.1,77.8,63.9z"/>
		</g>
	</g>
	<g class="st3">
		<path d="M47.3,27.3v-1.1h-1.8v-0.3l1.7-2.5h0.6v2.4h0.5v0.4h-0.5v1.1H47.3z M47.3,25.8v-1.3c0-0.2,0-0.4,0-0.6h0
			c-0.1,0.2-0.2,0.4-0.3,0.6l-1,1.3v0H47.3z"/>
	</g>
</g>
<g id="Kanji" class="st1">
	<path class="st2" d="M56.9,88.2"/>
	<g class="st3">
		<path d="M8.5,9.6h83v79.9h-7V83H15.2v7.4H8.5V9.6z M15.2,76.5h69.3V16.2H62.7V47c0,3.6,0.4,4,3.7,4h5.2c5.5,0,5.6,0,5.9-12.4
			c1.3,1.1,3.5,2.2,5.3,2.7c-0.2,4.2-0.5,9.1-1.1,10.9c-1.1,2.7-3.1,4.5-9.6,4.5h-7c-9,0-9-5.1-9-10.5v-30H41.8
			C40.7,37,37.9,54,21.4,63.3c-0.8-1.6-2.8-3.8-4.2-4.9c14.4-7.9,17.2-22.5,18-42.1h-20V76.5z"/>
	</g>
</g>
<g id="Stroke1" class="st1">
	<path class="st2" d="M56.9,88.2"/>
	<g class="st3">
		<path d="M84.5,16.2v73.3h7V9.6h-83v80.7h6.7V16.2 M84.5,16.2 M15.2,16.2"/>
	</g>
	<g class="st3">
		<path d="M78.3,81.1l-1.5,0C77,63.6,77,34.8,76.7,26.1c-0.2-5.9-3.4-5.9-42.6-5.4c-4.2,0.1-8.9,0.1-14,0.2l0-1.5
			c5.1-0.1,9.8-0.1,14-0.2c40.6-0.5,43.9-0.6,44.1,6.8C78.5,34.8,78.5,63.6,78.3,81.1z"/>
		<g>
			<path d="M77.5,85.6c-0.8-2.1-2.1-4.8-3.5-6.4l3.6,1.3l3.6-1.3C79.6,80.8,78.3,83.4,77.5,85.6z"/>
		</g>
	</g>
	<g class="st3">
		<path d="M19.8,25.2c0.4-0.4,0.8-0.7,1.5-0.7c0.9,0,1.3,0.6,1.3,1.2c0,0.9-0.7,1.6-1.8,2.5l-0.4,0.4v0h2.3v0.4h-3.1v-0.3l0.5-0.4
			c1.3-1.1,1.9-1.7,1.9-2.5c0-0.5-0.3-0.9-0.9-0.9c-0.4,0-0.8,0.2-1.1,0.6L19.8,25.2z"/>
	</g>
</g>
<g id="Stroke2" class="st1">
	<g class="st3">
		<path d="M56.1,16.2H41.8C40.7,37,37.9,54,21.4,63.3c-0.8-1.6-2.8-3.8-4.2-4.9c14.4-7.9,17.2-22.5,18-42.1h-20v74.1H8.5V9.6h83
			v79.9h-7V16.2H62.7"/>
	</g>
	<path class="st2" d="M56.9,88.2"/>
	<g class="st3">
		<path d="M32.5,62.8l-1.1-1c2-2.1,4.3-5.1,6-7.6c8.4-12.7,8.5-32,8-36.5l1.5-0.1c0.5,5.7,0.2,24.7-8.3,37.5
			C37,57.6,34.6,60.6,32.5,62.8z"/>
		<g>
			<path d="M28.4,65c1.2-1.9,2.4-4.7,2.8-6.8l1.2,3.6l3.2,2C33.5,63.7,30.6,64.3,28.4,65z"/>
		</g>
	</g>
	<g class="st3">
		<path d="M49,23c0.2,0.1,0.5,0.2,0.9,0.2c0.7,0,0.9-0.4,0.9-0.8c0-0.5-0.5-0.8-1-0.8h-0.3v-0.4h0.3c0.4,0,0.9-0.2,0.9-0.7
			c0-0.3-0.2-0.6-0.7-0.6c-0.3,0-0.6,0.1-0.8,0.3L49,19.9c0.2-0.1,0.6-0.3,1-0.3c0.8,0,1.1,0.5,1.1,0.9c0,0.4-0.2,0.7-0.7,0.9v0
			c0.5,0.1,0.9,0.5,0.9,1c0,0.6-0.5,1.2-1.4,1.2c-0.4,0-0.8-0.1-1-0.3L49,23z"/>
	</g>
</g>
<g id="Stroke0" class="st1">
	<path class="st3" d="M53,47.8"/>
	<g class="st3">
		<path d="M14.4,9.6v80.7H7.7V9.6"/>
	</g>
	<g class="st3">
		<line x1="20.1" y1="10.5" x2="20.1" y2="81.5"/>
		<g>
			<rect x="19.4" y="10.5" width="1.5" height="66.5"/>
			<g>
				<path d="M20.1,81.5c-0.8-2.1-2.1-4.8-3.6-6.4l3.6,1.3l3.6-1.3C22.3,76.8,20.9,79.4,20.1,81.5z"/>
			</g>
		</g>
	</g>
	<g class="st3">
		<path d="M26.8,12.9L26.8,12.9l-0.9,0.5L25.8,13l1.1-0.6h0.4v4.6h-0.5V12.9z"/>
	</g>
</g>
</svg>
