<?xml version="1.0" encoding="utf-8"?>
<!-- Generator: Adobe Illustrator 26.2.1, SVG Export Plug-In . SVG Version: 6.00 Build 0)  -->
<svg version="1.1" xmlns="http://www.w3.org/2000/svg" xmlns:xlink="http://www.w3.org/1999/xlink" x="0px" y="0px"
	 viewBox="0 0 100 100" style="enable-background:new 0 0 100 100;" xml:space="preserve" width = "100px" height = "100px">
<style type="text/css">
	.st0{display:none;}
	.st1{display:inline;}
</style> 


	<path class="st0" d="M56.9,88.2"/>

		<path d="M8.5,9.6h83v79.9h-7V83H15.2v7.4H8.5V9.6z M15.2,76.5h69.3V16.2H62.7V47c0,3.6,0.4,4,3.7,4h5.2c5.5,0,5.6,0,5.9-12.4
			c1.3,1.1,3.5,2.2,5.3,2.7c-0.2,4.2-0.5,9.1-1.1,10.9c-1.1,2.7-3.1,4.5-9.6,4.5h-7c-9,0-9-5.1-9-10.5v-30H41.8
			C40.7,37,37.9,54,21.4,63.3c-0.8-1.6-2.8-3.8-4.2-4.9c14.4-7.9,17.2-22.5,18-42.1h-20V76.5z"/>

		<path d="M19.8,90.5V89c0.9,0,40.2-0.2,55.6-0.3l0,1.5C63.9,90.3,20.8,90.5,19.8,90.5z"/>

			<path d="M79.9,89.4c-2.1-0.8-4.8-2.1-6.4-3.5l1.3,3.6L73.5,93C75.2,91.6,77.8,90.2,79.9,89.4z"/>

		<path d="M22.4,93h-1.5l-0.1,1c0.1,0,0.2,0,0.3,0c0.3,0,0.6,0.1,0.8,0.2c0.3,0.2,0.6,0.5,0.6,1c0,0.8-0.6,1.3-1.5,1.3
			c-0.4,0-0.8-0.1-1-0.2l0.1-0.4c0.2,0.1,0.5,0.2,0.8,0.2c0.5,0,0.9-0.3,0.9-0.8c0-0.5-0.3-0.9-1.1-0.9c-0.2,0-0.4,0-0.5,0l0.3-1.9
			h1.9V93z"/>



</svg>