<?xml version="1.0" encoding="utf-8"?>
<!-- Generator: Adobe Illustrator 26.2.1, SVG Export Plug-In . SVG Version: 6.00 Build 0)  -->
<svg version="1.1" xmlns="http://www.w3.org/2000/svg" xmlns:xlink="http://www.w3.org/1999/xlink" x="0px" y="0px"
	 viewBox="0 0 100 100" style="enable-background:new 0 0 100 100;" xml:space="preserve" width = "100px" height = "100px">
<style type="text/css">
	.st0{display:none;}
	.st1{display:inline;}
</style> 

		<path d="M56.1,16.2H41.8C40.7,37,37.9,54,21.4,63.3c-0.8-1.6-2.8-3.8-4.2-4.9c14.4-7.9,17.2-22.5,18-42.1h-20v74.1H8.5V9.6h83
			v79.9h-7V16.2H62.7"/>

	<path class="st2" d="M56.9,88.2"/>

		<path d="M32.5,62.8l-1.1-1c2-2.1,4.3-5.1,6-7.6c8.4-12.7,8.5-32,8-36.5l1.5-0.1c0.5,5.7,0.2,24.7-8.3,37.5
			C37,57.6,34.6,60.6,32.5,62.8z"/>
	
			<path d="M28.4,65c1.2-1.9,2.4-4.7,2.8-6.8l1.2,3.6l3.2,2C33.5,63.7,30.6,64.3,28.4,65z"/>

		<path d="M49,23c0.2,0.1,0.5,0.2,0.9,0.2c0.7,0,0.9-0.4,0.9-0.8c0-0.5-0.5-0.8-1-0.8h-0.3v-0.4h0.3c0.4,0,0.9-0.2,0.9-0.7
			c0-0.3-0.2-0.6-0.7-0.6c-0.3,0-0.6,0.1-0.8,0.3L49,19.9c0.2-0.1,0.6-0.3,1-0.3c0.8,0,1.1,0.5,1.1,0.9c0,0.4-0.2,0.7-0.7,0.9v0
			c0.5,0.1,0.9,0.5,0.9,1c0,0.6-0.5,1.2-1.4,1.2c-0.4,0-0.8-0.1-1-0.3L49,23z"/>

</svg>