<?xml version="1.0" encoding="utf-8"?>
<!-- Generator: Adobe Illustrator 26.2.1, SVG Export Plug-In . SVG Version: 6.00 Build 0)  -->
<svg version="1.1" xmlns="http://www.w3.org/2000/svg" xmlns:xlink="http://www.w3.org/1999/xlink" x="0px" y="0px"
	 viewBox="0 0 100 100" style="enable-background:new 0 0 100 100;" xml:space="preserve" width = "100px" height = "100px">
<style type="text/css">
	.st0{display:none;}
	.st1{display:inline;}
</style> 

	<path class="st2" d="M56.9,88.2"/>

		<path d="M84.5,16.2H62.7V47c0,3.6,0.4,4,3.7,4h5.2c5.5,0,5.6,0,5.9-12.4c1.3,1.1,3.5,2.2,5.3,2.7c-0.2,4.2-0.5,9.1-1.1,10.9
			c-1.1,2.7-3.1,4.5-9.6,4.5h-7c-9,0-9-5.1-9-10.5v-30H41.8C40.7,37,37.9,54,21.4,63.3c-0.8-1.6-2.8-3.8-4.2-4.9
			c14.4-7.9,17.2-22.5,18-42.1h-20v74.1H8.5V9.6h83v79.9c-2.3,0-4.7,0-7,0"/>

		<path d="M69.3,64.7c-8.4,0-14.5-0.5-17-3.1c-0.9-0.9-1.3-2-1.2-3.4c0.7-13.6,0.5-19.8,0.3-25.9c-0.1-3.6-0.2-7.1-0.1-11.9l1.5,0
			c-0.1,4.8,0,8.2,0.1,11.9c0.2,6.1,0.4,12.3-0.3,26c0,0.9,0.2,1.7,0.8,2.3c2.7,2.8,11.8,2.7,19.8,2.6l0,1.5
			C71.9,64.7,70.6,64.7,69.3,64.7z"/>

			<path d="M77.8,63.9c-2.1,0.8-4.8,2.2-6.4,3.6l1.3-3.6l-1.3-3.6C73,61.8,75.6,63.1,77.8,63.9z"/>

		<path d="M47.3,27.3v-1.1h-1.8v-0.3l1.7-2.5h0.6v2.4h0.5v0.4h-0.5v1.1H47.3z M47.3,25.8v-1.3c0-0.2,0-0.4,0-0.6h0
			c-0.1,0.2-0.2,0.4-0.3,0.6l-1,1.3v0H47.3z"/>

	<path class="st2" d="M56.9,88.2"/>

		<path d="M8.5,9.6h83v79.9h-7V83H15.2v7.4H8.5V9.6z M15.2,76.5h69.3V16.2H62.7V47c0,3.6,0.4,4,3.7,4h5.2c5.5,0,5.6,0,5.9-12.4
			c1.3,1.1,3.5,2.2,5.3,2.7c-0.2,4.2-0.5,9.1-1.1,10.9c-1.1,2.7-3.1,4.5-9.6,4.5h-7c-9,0-9-5.1-9-10.5v-30H41.8
			C40.7,37,37.9,54,21.4,63.3c-0.8-1.6-2.8-3.8-4.2-4.9c14.4-7.9,17.2-22.5,18-42.1h-20V76.5z"/>


</svg>