<?xml version="1.0" encoding="utf-8"?>
<!-- Generator: Adobe Illustrator 26.2.1, SVG Export Plug-In . SVG Version: 6.00 Build 0)  -->
<svg version="1.1" xmlns="http://www.w3.org/2000/svg" xmlns:xlink="http://www.w3.org/1999/xlink" x="0px" y="0px"
	 viewBox="0 0 100 100" style="enable-background:new 0 0 100 100;" xml:space="preserve">
<style type="text/css">
	.st0{display:none;}
	.st1{display:inline;}
</style>
<g id="Stroke2" class="st0">
	<g class="st1">
		<path d="M94.5,39.8H55.3C61.9,63.7,74.8,82.1,96.1,90c-1.7,1.5-3.9,4.3-5,6.3c-20.9-8.6-33.6-26.3-41-50.4
			C45.4,65.7,34.5,85.3,8.7,96.4c-1-1.8-3.1-4.2-4.8-5.7C30.3,80,40.2,60,44,39.8H5.4v-6.9h39.7c1.3-10.4,1.2-20.6,1.3-29.3l9.4,0.5
			C55.8,5,55,5.5,53.6,5.8c-0.1,7.9-0.2,17.3-1.4,27.1h42.2V39.8z"/>
	</g>
	<g class="st1">
		<path d="M61.6,43.8c0.1,0.1,0.5,0.2,0.9,0.2c0.7,0,0.9-0.4,0.9-0.8c0-0.5-0.5-0.8-1-0.8H62v-0.4h0.3c0.4,0,0.9-0.2,0.9-0.7
			c0-0.3-0.2-0.6-0.7-0.6c-0.3,0-0.6,0.1-0.8,0.3l-0.1-0.4c0.2-0.1,0.6-0.3,1-0.3c0.8,0,1.1,0.5,1.1,0.9c0,0.4-0.2,0.7-0.7,0.9v0
			c0.5,0.1,0.9,0.5,0.9,1c0,0.6-0.5,1.2-1.4,1.2c-0.4,0-0.8-0.1-1-0.3L61.6,43.8z"/>
	</g>
	<g class="st1">
		<path d="M65,57c-1.4-2-2.5-4-3.5-6.1c-1.3-2.8-2.3-5.8-2.9-8.7l1.5-0.3c0.6,2.9,1.6,5.7,2.8,8.4c1,2,2.1,4,3.4,5.9L65,57z"/>
		<g>
			<path d="M68.3,60.1c-1.9-1.2-4.6-2.5-6.7-3l3.6-1.1l2.1-3.2C67.2,55,67.7,58,68.3,60.1z"/>
		</g>
	</g>
</g>
<g id="Stroke1">
	<g>
		<path d="M52.1,39.8C47.5,59.6,34.5,85.3,8.7,96.4c-1-1.8-3.1-4.2-4.8-5.7C30.3,80,40.2,60,44,39.8H5.4v-6.9h39.7
			c1.3-10.4,1.2-20.6,1.3-29.3l9.4,0.5C55.8,5,55,5.5,53.6,5.8c-0.1,7.9-0.2,17.3-1.4,27.1h42.2v6.9H55.3"/>
	</g>
	<g>
		<path d="M58.7,17l-1.5-0.1c0.4-7.4,0.7-11.7,0.7-12.7h1.5C59.3,5.4,59,11.8,58.7,17z"/>
		<g>
			<path d="M57.6,21.5c-0.7-2.2-1.9-4.9-3.2-6.6l3.5,1.5l3.6-1.1C60,16.8,58.5,19.4,57.6,21.5z"/>
		</g>
	</g>
	<g>
		<path d="M60.6,8.1V7.8l0.4-0.4c1-0.9,1.4-1.5,1.5-2c0-0.4-0.2-0.8-0.8-0.8c-0.4,0-0.6,0.2-0.8,0.3l-0.2-0.4
			c0.3-0.2,0.7-0.4,1.1-0.4c0.8,0,1.2,0.6,1.2,1.1c0,0.7-0.5,1.3-1.3,2.1l-0.3,0.3v0h1.8v0.4H60.6z"/>
	</g>
</g>
<g id="Stroke0" class="st0">
	<g class="st1">
		<path d="M44,39.8H5.4v-6.9h39.7h7.1h42.2v6.9H55.3"/>
	</g>
	<g class="st1">
		<line x1="5.4" y1="44.3" x2="19.7" y2="44.3"/>
		<g>
			<rect x="5.4" y="43.6" width="9.7" height="1.5"/>
			<g>
				<path d="M19.7,44.3c-2.1,0.8-4.8,2.1-6.4,3.6l1.3-3.6l-1.3-3.6C14.9,42.2,17.6,43.5,19.7,44.3z"/>
			</g>
		</g>
	</g>
	<g class="st1">
		<path d="M6.9,47L6.9,47l-0.7,0.4L6.1,47l0.9-0.5h0.5v3.9H6.9V47z"/>
	</g>
</g>
<g id="Kanji" class="st0">
	<g class="st1">
		<path d="M94.5,39.8H55.3C61.9,63.7,74.8,82.1,96.1,90c-1.7,1.5-3.9,4.3-5,6.3c-20.9-8.6-33.6-26.3-41-50.4
			C45.4,65.7,34.5,85.3,8.7,96.4c-1-1.8-3.1-4.2-4.8-5.7C30.3,80,40.2,60,44,39.8H5.4v-6.9h39.7c1.3-10.4,1.2-20.6,1.3-29.3l9.4,0.5
			C55.8,5,55,5.5,53.6,5.8c-0.1,7.9-0.2,17.3-1.4,27.1h42.2V39.8z"/>
	</g>
</g>
</svg>
