<?xml version="1.0" encoding="utf-8"?>
<!-- Generator: Adobe Illustrator 26.2.1, SVG Export Plug-In . SVG Version: 6.00 Build 0)  -->
<svg version="1.1" xmlns="http://www.w3.org/2000/svg" xmlns:xlink="http://www.w3.org/1999/xlink" x="0px" y="0px"
	 viewBox="0 0 100 100" style="enable-background:new 0 0 100 100;" xml:space="preserve" width = "100px" height = "100px">
<style type="text/css">
	.st0{display:none;}
	.st1{display:inline;}
</style> 

		<path d="M52.1,39.8C47.5,59.6,34.5,85.3,8.7,96.4c-1-1.8-3.1-4.2-4.8-5.7C30.3,80,40.2,60,44,39.8H5.4v-6.9h39.7
			c1.3-10.4,1.2-20.6,1.3-29.3l9.4,0.5C55.8,5,55,5.5,53.6,5.8c-0.1,7.9-0.2,17.3-1.4,27.1h42.2v6.9H55.3"/>

		<path d="M58.7,17l-1.5-0.1c0.4-7.4,0.7-11.7,0.7-12.7h1.5C59.3,5.4,59,11.8,58.7,17z"/>

			<path d="M57.6,21.5c-0.7-2.2-1.9-4.9-3.2-6.6l3.5,1.5l3.6-1.1C60,16.8,58.5,19.4,57.6,21.5z"/>

		<path d="M60.6,8.1V7.8l0.4-0.4c1-0.9,1.4-1.5,1.5-2c0-0.4-0.2-0.8-0.8-0.8c-0.4,0-0.6,0.2-0.8,0.3l-0.2-0.4
			c0.3-0.2,0.7-0.4,1.1-0.4c0.8,0,1.2,0.6,1.2,1.1c0,0.7-0.5,1.3-1.3,2.1l-0.3,0.3v0h1.8v0.4H60.6z"/>


</svg>