<?xml version="1.0" encoding="utf-8"?>
<!-- Generator: Adobe Illustrator 26.2.1, SVG Export Plug-In . SVG Version: 6.00 Build 0)  -->
<svg version="1.1" xmlns="http://www.w3.org/2000/svg" xmlns:xlink="http://www.w3.org/1999/xlink" x="0px" y="0px"
	 viewBox="0 0 100 100" style="enable-background:new 0 0 100 100;" xml:space="preserve">
<style type="text/css">
	.st0{display:none;}
	.st1{display:inline;}
</style>
<g id="Stroke13">
	<g>
		<path d="M37.6,20.5v5.6H3.2v-5.6H37.6z M34.7,61.4v29.3H13.2v4.8H7.4V61.4H34.7z M7.5,39.6v-5.5h27.2v5.5H7.5z M7.5,53.2v-5.5
			h27.2v5.5H7.5z M34.3,7.2v5.5H8V7.2H34.3z M28.9,67H13.2v18h15.7V67z M62.6,56c-0.1,0.7-0.8,1.2-2,1.4
			c-1.2,18.5-4.3,31.7-21.1,39.1c-0.8-1.7-2.7-4.2-4.2-5.4c15.3-6.2,18.1-17.6,18.9-35.9L62.6,56z M63.8,29V18.9H40.2v-5.8h23.5V3.5
			L72.4,4c-0.1,0.7-0.6,1.2-1.9,1.4v7.7h24.4v5.8H70.5V29h21.2v5.7h-48V29H63.8z M94.4,60.5h-6.3v-12H46.8v12h-6.2V42.6h53.7V60.5z
			 M77.9,86.3c0,2.4,0.4,2.8,2.7,2.8H88c2.4,0,2.8-1.7,3.1-13.5c1.3,1.1,3.9,2.1,5.7,2.6c-0.5,13.6-2.2,16.9-8.1,16.9h-8.9
			c-6.6,0-8.2-1.9-8.2-8.8V55.4l8.3,0.5c-0.1,0.7-0.6,1.2-2,1.4V86.3z"/>
	</g>
	<g>
		<path d="M67.5,58.6c0,0.4,0,10.9,0,10.9"/>
		<g>
			<rect x="66.8" y="58.6" width="1.5" height="6.4"/>
			<g>
				<path d="M67.5,69.5c-0.8-2.1-2.1-4.8-3.6-6.4l3.6,1.3l3.6-1.3C69.6,64.7,68.3,67.4,67.5,69.5z"/>
			</g>
		</g>
	</g>
	<g>
		<path d="M65.7,53.9L65.7,53.9L65,54.2l-0.1-0.4l0.9-0.5h0.4v3.9h-0.5V53.9z"/>
		<path d="M69.3,57.3v-1.1h-1.8v-0.3l1.7-2.5h0.6v2.4h0.5v0.4h-0.5v1.1H69.3z M69.3,55.8v-1.3c0-0.2,0-0.4,0-0.6h0
			c-0.1,0.2-0.2,0.4-0.3,0.6l-1,1.3v0H69.3z"/>
	</g>
</g>
<g id="Stroke12" class="st0">
	<g class="st1">
		<path d="M37.6,20.5v5.6H3.2v-5.6H37.6z M34.7,61.4v29.3H13.2v4.8H7.4V61.4H34.7z M7.5,39.6v-5.5h27.2v5.5H7.5z M7.5,53.2v-5.5
			h27.2v5.5H7.5z M34.3,7.2v5.5H8V7.2H34.3z M28.9,67H13.2v18h15.7V67z M62.6,56c-0.1,0.7-0.8,1.2-2,1.4
			c-1.2,18.5-4.3,31.7-21.1,39.1c-0.8-1.7-2.7-4.2-4.2-5.4c15.3-6.2,18.1-17.6,18.9-35.9L62.6,56z M63.8,29V18.9H40.2v-5.8h23.5V3.5
			L72.4,4c-0.1,0.7-0.6,1.2-1.9,1.4v7.7h24.4v5.8H70.5V29h21.2v5.7h-48V29H63.8z M94.4,60.5h-6.3v-12H46.8v12h-6.2V42.6h53.7V60.5z"
			/>
	</g>
	<g class="st1">
		<path d="M64.2,64.5l-1.5-0.3l0-0.1c0.5-2.3,0.9-4.7,1.2-7l1.5,0.2c-0.4,2.4-0.8,4.7-1.3,7.1L64.2,64.5z"/>
		<g>
			<path d="M62.6,68.8c-0.3-2.2-1.1-5.1-2.2-7l3.2,2l3.8-0.5C65.6,64.6,63.8,66.9,62.6,68.8z"/>
		</g>
	</g>
	<g class="st1">
		<path d="M68.1,56.2L68.1,56.2l-0.7,0.4l-0.1-0.4l0.9-0.5h0.4v3.9h-0.5V56.2z"/>
		<path d="M70.2,59c0.2,0.1,0.5,0.2,0.9,0.2c0.7,0,0.9-0.4,0.9-0.8c0-0.5-0.5-0.8-1-0.8h-0.3v-0.4h0.3c0.4,0,0.9-0.2,0.9-0.7
			c0-0.3-0.2-0.6-0.7-0.6c-0.3,0-0.6,0.1-0.8,0.3l-0.1-0.4c0.2-0.1,0.6-0.3,1-0.3c0.8,0,1.1,0.5,1.1,0.9c0,0.4-0.2,0.7-0.7,0.9v0
			c0.5,0.1,0.9,0.5,0.9,1c0,0.6-0.5,1.2-1.4,1.2c-0.4,0-0.8-0.1-1-0.3L70.2,59z"/>
	</g>
</g>
<g id="Stroke11" class="st0">
	<g class="st1">
		<path d="M37.6,20.5v5.6H3.2v-5.6H37.6z M34.7,61.4v29.3H13.2v4.8H7.4V61.4H34.7z M7.5,39.6v-5.5h27.2v5.5H7.5z M7.5,53.2v-5.5
			h27.2v5.5H7.5z M34.3,7.2v5.5H8V7.2H34.3z M28.9,67H13.2v18h15.7V67z M63.8,29V18.9H40.2v-5.8h23.5V3.5L72.4,4
			c-0.1,0.7-0.6,1.2-1.9,1.4v7.7h24.4v5.8H70.5V29h21.2v5.7h-48V29H63.8z M94.4,60.5h-6.3v-12H46.8v12h-6.2V42.6h53.7V60.5z"/>
	</g>
	<g class="st1">
		<path d="M48.7,52.2c1.3,0,13.5,0,13.5,0"/>
		<g>
			<rect x="48.7" y="51.5" width="9" height="1.5"/>
			<g>
				<path d="M62.2,52.2c-2.1,0.8-4.8,2.1-6.4,3.6l1.3-3.6l-1.3-3.6C57.4,50.1,60,51.5,62.2,52.2z"/>
			</g>
		</g>
	</g>
	<g class="st1">
		<path d="M49.2,55.1L49.2,55.1l-0.7,0.4l-0.1-0.4l0.9-0.5h0.5v3.9h-0.5V55.1z"/>
		<path d="M51.2,58.5v-0.3l0.4-0.4c1-0.9,1.4-1.5,1.5-2c0-0.4-0.2-0.8-0.8-0.8c-0.4,0-0.6,0.2-0.8,0.3l-0.2-0.4
			c0.3-0.2,0.7-0.4,1.1-0.4c0.8,0,1.2,0.6,1.2,1.1c0,0.7-0.5,1.3-1.3,2.1l-0.3,0.3v0h1.8v0.4H51.2z"/>
	</g>
</g>
<g id="Stroke10" class="st0">
	<g class="st1">
		<path d="M37.6,20.5v5.6H3.2v-5.6H37.6z M34.7,61.4v29.3H13.2v4.8H7.4V61.4H34.7z M7.5,39.6v-5.5h27.2v5.5H7.5z M7.5,53.2v-5.5
			h27.2v5.5H7.5z M34.3,7.2v5.5H8V7.2H34.3z M28.9,67H13.2v18h15.7V67z M63.8,29V18.9H40.2v-5.8h23.5V3.5L72.4,4
			c-0.1,0.7-0.6,1.2-1.9,1.4v7.7h24.4v5.8H70.5V29h21.2v5.7h-48V29H63.8z M46.8,42.6v5.8v12h-6.2V42.6"/>
	</g>
	<g class="st1">
		<line x1="51.1" y1="43.6" x2="51.1" y2="54.1"/>
		<g>
			<rect x="50.4" y="43.6" width="1.5" height="6"/>
			<g>
				<path d="M51.1,54.1c-0.8-2.1-2.1-4.8-3.6-6.4l3.6,1.3l3.6-1.3C53.2,49.3,51.9,52,51.1,54.1z"/>
			</g>
		</g>
	</g>
	<g class="st1">
		<path d="M54.6,42.7L54.6,42.7l-0.7,0.4l-0.1-0.4l0.9-0.5h0.4v3.9h-0.5V42.7z"/>
		<path d="M57.7,42.7L57.7,42.7L57,43.1l-0.1-0.4l0.9-0.5h0.4v3.9h-0.5V42.7z"/>
	</g>
</g>
<g id="Stroke9" class="st0">
	<g class="st1">
		<path d="M37.6,20.5v5.6H3.2v-5.6H37.6z M34.7,61.4v29.3H13.2v4.8H7.4V61.4H34.7z M7.5,39.6v-5.5h27.2v5.5H7.5z M7.5,53.2v-5.5
			h27.2v5.5H7.5z M34.3,7.2v5.5H8V7.2H34.3z M28.9,67H13.2v18h15.7V67z M63.8,29V18.9H40.2v-5.8h23.5V3.5L72.4,4
			c-0.1,0.7-0.6,1.2-1.9,1.4v7.7h24.4v5.8H70.5V29h21.2v5.7h-48V29H63.8z"/>
	</g>
	<g class="st1">
		<path d="M43.4,38.6c2.4,0,13.2,0,13.2,0"/>
		<g>
			<rect x="43.4" y="37.8" width="8.7" height="1.5"/>
			<g>
				<path d="M56.6,38.6c-2.1,0.8-4.8,2.1-6.4,3.6l1.3-3.6L50.2,35C51.8,36.4,54.5,37.8,56.6,38.6z"/>
			</g>
		</g>
	</g>
	<g class="st1">
		<path d="M42.9,41.9L42.9,41.9l-0.7,0.4l-0.1-0.4l0.9-0.5h0.4v3.9h-0.5V41.9z"/>
		<path d="M47.4,43.3c0,1.3-0.5,2.1-1.4,2.1c-0.8,0-1.3-0.7-1.3-2c0-1.3,0.6-2,1.4-2C47,41.3,47.4,42,47.4,43.3z M45.3,43.3
			c0,1,0.3,1.6,0.8,1.6c0.5,0,0.8-0.6,0.8-1.6c0-1-0.2-1.6-0.8-1.6C45.6,41.7,45.3,42.3,45.3,43.3z"/>
	</g>
</g>
<g id="Stroke8" class="st0">
	<g class="st1">
		<path d="M37.6,20.5v5.6H3.2v-5.6H37.6z M34.7,61.4v29.3H13.2v4.8H7.4V61.4H34.7z M7.5,39.6v-5.5h27.2v5.5H7.5z M7.5,53.2v-5.5
			h27.2v5.5H7.5z M34.3,7.2v5.5H8V7.2H34.3z M28.9,67H13.2v18h15.7V67z M63.8,29V18.9H40.2v-5.8h23.5V3.5L72.4,4
			c-0.1,0.7-0.6,1.2-1.9,1.4v7.7h24.4v5.8H70.5V29"/>
	</g>
	<g class="st1">
		<path d="M76.7,4.2c0,1,0,7.7,0,7.8"/>
		<g>
			<path d="M77.5,7.5l-1.5,0l0-0.8c0-1.2,0-2.2,0-2.5l1.5,0c0,0.3,0,1.3,0,2.5L77.5,7.5z"/>
			<g>
				<path d="M76.7,12c-0.8-2.1-2.1-4.8-3.6-6.4l3.6,1.3l3.6-1.3C78.8,7.2,77.5,9.9,76.7,12z"/>
			</g>
		</g>
	</g>
	<g class="st1">
		<path d="M82.3,7.8c0.1,0,0.2,0,0.4,0c0.3,0,0.6-0.2,0.8-0.4c0.3-0.2,0.4-0.6,0.5-1h0c-0.2,0.3-0.5,0.4-0.9,0.4
			c-0.7,0-1.2-0.5-1.2-1.2c0-0.7,0.5-1.4,1.3-1.4s1.3,0.6,1.3,1.6c0,0.9-0.3,1.5-0.7,1.8c-0.3,0.3-0.7,0.5-1.1,0.5
			c-0.2,0-0.4,0-0.5,0V7.8z M82.5,5.5c0,0.5,0.3,0.8,0.8,0.8c0.4,0,0.6-0.2,0.8-0.4c0,0,0-0.1,0-0.2c0-0.7-0.2-1.2-0.8-1.2
			C82.8,4.6,82.5,5,82.5,5.5z"/>
	</g>
</g>
<g id="Stroke7" class="st0">
	<g class="st1">
		<path d="M37.6,20.5v5.6H3.2v-5.6H37.6z M34.7,61.4v29.3H13.2v4.8H7.4V61.4H34.7z M7.5,39.6v-5.5h27.2v5.5H7.5z M7.5,53.2v-5.5
			h27.2v5.5H7.5z M34.3,7.2v5.5H8V7.2H34.3z M28.9,67H13.2v18h15.7V67z M63.8,18.9H40.2v-5.8h23.5h6.7h24.4v5.8H70.5"/>
	</g>
	<g class="st1">
		<path d="M40.7,23.4c3.1,0,11.4,0,10.9,0"/>
		<g>
			<rect x="40.7" y="22.6" width="6.3" height="1.5"/>
			<g>
				<path d="M51.6,23.4c-2.1,0.8-4.8,2.1-6.4,3.6l1.3-3.6l-1.3-3.6C46.8,21.2,49.5,22.6,51.6,23.4z"/>
			</g>
		</g>
	</g>
	<g class="st1">
		<path d="M40.9,29.1c0-0.5,0.3-0.8,0.8-1l0,0c-0.4-0.2-0.6-0.5-0.6-0.9c0-0.6,0.5-1,1.2-1c0.8,0,1.1,0.5,1.1,1
			c0,0.3-0.2,0.7-0.6,0.9v0c0.5,0.2,0.8,0.5,0.8,1c0,0.7-0.6,1.1-1.3,1.1C41.4,30.1,40.9,29.6,40.9,29.1z M43,29
			c0-0.5-0.3-0.7-0.9-0.9c-0.5,0.1-0.7,0.4-0.7,0.8c0,0.4,0.3,0.7,0.8,0.7C42.7,29.7,43,29.4,43,29z M41.6,27.1
			c0,0.4,0.3,0.6,0.7,0.7c0.3-0.1,0.6-0.4,0.6-0.7c0-0.3-0.2-0.6-0.7-0.6C41.8,26.5,41.6,26.8,41.6,27.1z"/>
	</g>
</g>
<g id="Stroke6" class="st0">
	<g class="st1">
		<path d="M37.2,20v5.6H2.8V20H37.2z M34.3,60.8v29.3H12.8v4.8H7V60.8H34.3z M7.1,39.1v-5.5h27.2v5.5H7.1z M7.1,52.7v-5.5h27.2v5.5
			H7.1z M33.9,6.7v5.5H7.6V6.7H33.9z M28.5,66.4H12.8v18h15.7V66.4z"/>
	</g>
	<g class="st1">
		<line x1="18" y1="94.1" x2="32.5" y2="94.1"/>
		<g>
			<rect x="18" y="93.4" width="10" height="1.5"/>
			<g>
				<path d="M32.5,94.1c-2.1,0.8-4.8,2.1-6.4,3.6l1.3-3.6l-1.3-3.6C27.7,92,30.4,93.3,32.5,94.1z"/>
			</g>
		</g>
	</g>
	<g class="st1">
		<path d="M17.2,91.9v0.3l-1.7,3.5H15l1.7-3.4v0h-1.9v-0.4H17.2z"/>
	</g>
</g>
<g id="Stroke5" class="st0">
	<g class="st1">
		<path d="M37.6,20.5v5.6H3.2v-5.6H37.6z M28.6,90.6L28.9,67H13.2v28.5H7.4V61.4h27.3v29.3 M7.5,39.6v-5.5h27.2v5.5H7.5z M7.5,53.2
			v-5.5h27.2v5.5H7.5z M34.3,7.2v5.5H8V7.2H34.3z"/>
	</g>
	<g class="st1">
		<line x1="14.8" y1="71.5" x2="24.3" y2="71.5"/>
		<g>
			<rect x="14.8" y="70.7" width="4.9" height="1.5"/>
			<g>
				<path d="M24.3,71.5c-2.1,0.8-4.8,2.1-6.4,3.6l1.3-3.6l-1.3-3.6C19.5,69.4,22.1,70.7,24.3,71.5z"/>
			</g>
		</g>
	</g>
	<g class="st1">
		<path d="M17.3,77.2c-0.1,0-0.2,0-0.4,0c-0.8,0.1-1.3,0.7-1.4,1.4h0c0.2-0.2,0.5-0.4,0.9-0.4c0.7,0,1.2,0.5,1.2,1.3
			c0,0.7-0.5,1.4-1.3,1.4c-0.8,0-1.4-0.6-1.4-1.7c0-0.8,0.3-1.4,0.7-1.8c0.3-0.3,0.8-0.5,1.2-0.6c0.2,0,0.3,0,0.4,0V77.2z
			 M17.2,79.4c0-0.6-0.3-0.9-0.8-0.9c-0.3,0-0.6,0.2-0.8,0.5c0,0.1-0.1,0.1-0.1,0.2c0,0.6,0.3,1.1,0.9,1.1
			C16.9,80.3,17.2,80,17.2,79.4z"/>
	</g>
</g>
<g id="Stroke4" class="st0">
	<g class="st1">
		<path d="M37.6,20.5v5.6H3.2v-5.6H37.6z M13.2,61.4v29.3v4.8H7.4V61.4 M7.5,39.6v-5.5h27.2v5.5H7.5z M7.5,53.2v-5.5h27.2v5.5H7.5z
			 M34.3,7.2v5.5H8V7.2H34.3z"/>
	</g>
	<g class="st1">
		<path d="M17.4,61.9c0,0.5,0,11.4,0,11.4"/>
		<g>
			<rect x="16.7" y="61.9" width="1.5" height="6.8"/>
			<g>
				<path d="M17.4,73.2c-0.8-2.1-2.1-4.8-3.6-6.4l3.6,1.3l3.6-1.3C19.6,68.5,18.2,71.1,17.4,73.2z"/>
			</g>
		</g>
	</g>
	<g class="st1">
		<path d="M22.5,62.3H21l-0.1,1c0.1,0,0.2,0,0.3,0c0.3,0,0.6,0.1,0.8,0.2c0.3,0.2,0.6,0.5,0.6,1c0,0.8-0.6,1.3-1.5,1.3
			c-0.4,0-0.8-0.1-1-0.2l0.1-0.4c0.2,0.1,0.5,0.2,0.8,0.2c0.5,0,0.9-0.3,0.9-0.8c0-0.5-0.3-0.9-1.1-0.9c-0.2,0-0.4,0-0.5,0l0.3-1.9
			h1.9V62.3z"/>
	</g>
</g>
<g id="Stroke3" class="st0">
	<g class="st1">
		<path d="M37.6,20.5v5.6H3.2v-5.6H37.6z M7.5,39.6v-5.5h27.2v5.5H7.5z M7.5,53.2v-5.5h27.2v5.5H7.5z M34.3,7.2v5.5H8V7.2H34.3z"/>
	</g>
	<g class="st1">
		<line x1="8" y1="58.2" x2="20.4" y2="58.2"/>
		<g>
			<rect x="8" y="57.5" width="7.9" height="1.5"/>
			<g>
				<path d="M20.4,58.2c-2.1,0.8-4.8,2.1-6.4,3.6l1.3-3.6L14,54.6C15.7,56.1,18.3,57.4,20.4,58.2z"/>
			</g>
		</g>
	</g>
	<g class="st1">
		<path d="M9.4,65V64H7.6v-0.3l1.7-2.5h0.6v2.4h0.5V64H9.9V65H9.4z M9.4,63.6v-1.3c0-0.2,0-0.4,0-0.6h0c-0.1,0.2-0.2,0.4-0.3,0.6
			l-1,1.3v0H9.4z"/>
	</g>
</g>
<g id="Stroke2" class="st0">
	<g class="st1">
		<path d="M37.6,20.5v5.6H3.2v-5.6H37.6z M7.5,39.6v-5.5h27.2v5.5H7.5z M34.3,7.2v5.5H8V7.2H34.3z"/>
	</g>
	<g class="st1">
		<line x1="7.5" y1="43.8" x2="22.2" y2="43.8"/>
		<g>
			<rect x="7.5" y="43" width="10.2" height="1.5"/>
			<g>
				<path d="M22.2,43.8c-2.1,0.8-4.8,2.1-6.4,3.6l1.3-3.6l-1.3-3.6C17.5,41.6,20.1,43,22.2,43.8z"/>
			</g>
		</g>
	</g>
	<g class="st1">
		<path d="M7.9,49.4c0.1,0.1,0.5,0.2,0.9,0.2c0.7,0,0.9-0.4,0.9-0.8c0-0.5-0.5-0.8-1-0.8H8.4v-0.4h0.3c0.4,0,0.9-0.2,0.9-0.7
			c0-0.3-0.2-0.6-0.7-0.6c-0.3,0-0.6,0.1-0.8,0.3l-0.1-0.4C8.2,46.2,8.5,46,9,46c0.8,0,1.1,0.5,1.1,0.9c0,0.4-0.2,0.7-0.7,0.9v0
			c0.5,0.1,0.9,0.5,0.9,1c0,0.6-0.5,1.2-1.4,1.2c-0.4,0-0.8-0.1-1-0.3L7.9,49.4z"/>
	</g>
</g>
<g id="Stroke1" class="st0">
	<g class="st1">
		<path d="M37.6,20.5v5.6H3.2v-5.6H37.6z M34.3,7.2v5.5H8V7.2H34.3z"/>
	</g>
	<g class="st1">
		<line x1="3.8" y1="30.6" x2="16" y2="30.6"/>
		<g>
			<rect x="3.8" y="29.8" width="7.6" height="1.5"/>
			<g>
				<path d="M16,30.6c-2.1,0.8-4.8,2.1-6.4,3.6l1.3-3.6L9.6,27C11.2,28.4,13.9,29.8,16,30.6z"/>
			</g>
		</g>
	</g>
	<g class="st1">
		<path d="M4.1,37.1v-0.3l0.4-0.4c1-0.9,1.4-1.5,1.5-2c0-0.4-0.2-0.8-0.8-0.8c-0.4,0-0.6,0.2-0.8,0.3l-0.2-0.4
			c0.3-0.2,0.7-0.4,1.1-0.4c0.8,0,1.2,0.6,1.2,1.1c0,0.7-0.5,1.3-1.3,2.1l-0.3,0.3v0h1.8v0.4H4.1z"/>
	</g>
</g>
<g id="Stroke0" class="st0">
	<g class="st1">
		<path d="M34.3,7.2v5.5H8V7.2H34.3z"/>
	</g>
	<g class="st1">
		<line x1="8" y1="16.5" x2="20.2" y2="16.5"/>
		<g>
			<rect x="8" y="15.8" width="7.6" height="1.5"/>
			<g>
				<path d="M20.2,16.5c-2.1,0.8-4.8,2.1-6.4,3.6l1.3-3.6L13.8,13C15.4,14.4,18.1,15.7,20.2,16.5z"/>
			</g>
		</g>
	</g>
	<g class="st1">
		<path d="M9.1,20.4L9.1,20.4l-0.7,0.4l-0.1-0.4l0.9-0.5h0.4v3.9H9.1V20.4z"/>
	</g>
</g>
<g id="Kanji" class="st0">
	<g class="st1">
		<path d="M37.6,20.5v5.6H3.2v-5.6H37.6z M34.7,61.4v29.3H13.2v4.8H7.4V61.4H34.7z M7.5,39.6v-5.5h27.2v5.5H7.5z M7.5,53.2v-5.5
			h27.2v5.5H7.5z M34.3,7.2v5.5H8V7.2H34.3z M28.9,67H13.2v18h15.7V67z M62.6,56c-0.1,0.7-0.8,1.2-2,1.4
			c-1.2,18.5-4.3,31.7-21.1,39.1c-0.8-1.7-2.7-4.2-4.2-5.4c15.3-6.2,18.1-17.6,18.9-35.9L62.6,56z M63.8,29V18.9H40.2v-5.8h23.5V3.5
			L72.4,4c-0.1,0.7-0.6,1.2-1.9,1.4v7.7h24.4v5.8H70.5V29h21.2v5.7h-48V29H63.8z M94.4,60.5h-6.3v-12H46.8v12h-6.2V42.6h53.7V60.5z
			 M77.9,86.3c0,2.4,0.4,2.8,2.7,2.8H88c2.4,0,2.8-1.7,3.1-13.5c1.3,1.1,3.9,2.1,5.7,2.6c-0.5,13.6-2.2,16.9-8.1,16.9h-8.9
			c-6.6,0-8.2-1.9-8.2-8.8V55.4l8.3,0.5c-0.1,0.7-0.6,1.2-2,1.4V86.3z"/>
	</g>
</g>
</svg>
