<?xml version="1.0" encoding="utf-8"?>
<!-- Generator: Adobe Illustrator 26.2.1, SVG Export Plug-In . SVG Version: 6.00 Build 0)  -->
<svg version="1.1" xmlns="http://www.w3.org/2000/svg" xmlns:xlink="http://www.w3.org/1999/xlink" x="0px" y="0px"
	 viewBox="0 0 100 100" style="enable-background:new 0 0 100 100;" xml:space="preserve" width = "100px" height = "100px">
<style type="text/css">
	.st0{display:none;}
	.st1{display:inline;}
</style> 



		<path d="M37.6,20.5v5.6H3.2v-5.6H37.6z M7.5,39.6v-5.5h27.2v5.5H7.5z M34.3,7.2v5.5H8V7.2H34.3z"/>


		<line x1="7.5" y1="43.8" x2="22.2" y2="43.8"/>

			<rect x="7.5" y="43" width="10.2" height="1.5"/>

				<path d="M22.2,43.8c-2.1,0.8-4.8,2.1-6.4,3.6l1.3-3.6l-1.3-3.6C17.5,41.6,20.1,43,22.2,43.8z"/>

	
		<path d="M7.9,49.4c0.1,0.1,0.5,0.2,0.9,0.2c0.7,0,0.9-0.4,0.9-0.8c0-0.5-0.5-0.8-1-0.8H8.4v-0.4h0.3c0.4,0,0.9-0.2,0.9-0.7
			c0-0.3-0.2-0.6-0.7-0.6c-0.3,0-0.6,0.1-0.8,0.3l-0.1-0.4C8.2,46.2,8.5,46,9,46c0.8,0,1.1,0.5,1.1,0.9c0,0.4-0.2,0.7-0.7,0.9v0
			c0.5,0.1,0.9,0.5,0.9,1c0,0.6-0.5,1.2-1.4,1.2c-0.4,0-0.8-0.1-1-0.3L7.9,49.4z"/>


</svg>