<?xml version="1.0" encoding="utf-8"?>
<!-- Generator: Adobe Illustrator 26.2.1, SVG Export Plug-In . SVG Version: 6.00 Build 0)  -->
<svg version="1.1" xmlns="http://www.w3.org/2000/svg" xmlns:xlink="http://www.w3.org/1999/xlink" x="0px" y="0px"
	 viewBox="0 0 100 100" style="enable-background:new 0 0 100 100;" xml:space="preserve" width = "100px" height = "100px">
<style type="text/css">
	.st0{display:none;}
	.st1{display:inline;}
</style> 


		<path d="M37.6,20.5v5.6H3.2v-5.6H37.6z M34.7,61.4v29.3H13.2v4.8H7.4V61.4H34.7z M7.5,39.6v-5.5h27.2v5.5H7.5z M7.5,53.2v-5.5
			h27.2v5.5H7.5z M34.3,7.2v5.5H8V7.2H34.3z M28.9,67H13.2v18h15.7V67z M63.8,29V18.9H40.2v-5.8h23.5V3.5L72.4,4
			c-0.1,0.7-0.6,1.2-1.9,1.4v7.7h24.4v5.8H70.5V29h21.2v5.7h-48V29H63.8z"/>

		<path d="M43.4,38.6c2.4,0,13.2,0,13.2,0"/>

			<rect x="43.4" y="37.8" width="8.7" height="1.5"/>
	
				<path d="M56.6,38.6c-2.1,0.8-4.8,2.1-6.4,3.6l1.3-3.6L50.2,35C51.8,36.4,54.5,37.8,56.6,38.6z"/>
	
		<path d="M42.9,41.9L42.9,41.9l-0.7,0.4l-0.1-0.4l0.9-0.5h0.4v3.9h-0.5V41.9z"/>
		<path d="M47.4,43.3c0,1.3-0.5,2.1-1.4,2.1c-0.8,0-1.3-0.7-1.3-2c0-1.3,0.6-2,1.4-2C47,41.3,47.4,42,47.4,43.3z M45.3,43.3
			c0,1,0.3,1.6,0.8,1.6c0.5,0,0.8-0.6,0.8-1.6c0-1-0.2-1.6-0.8-1.6C45.6,41.7,45.3,42.3,45.3,43.3z"/>


</svg>