<?xml version="1.0" encoding="utf-8"?>
<!-- Generator: Adobe Illustrator 26.2.1, SVG Export Plug-In . SVG Version: 6.00 Build 0)  -->
<svg version="1.1" xmlns="http://www.w3.org/2000/svg" xmlns:xlink="http://www.w3.org/1999/xlink" x="0px" y="0px"
	 viewBox="0 0 100 100" style="enable-background:new 0 0 100 100;" xml:space="preserve" width = "100px" height = "100px">
<style type="text/css">
	.st0{display:none;}
	.st1{display:inline;}
</style>


		<path d="M37.6,20.5v5.6H3.2v-5.6H37.6z M28.6,90.6L28.9,67H13.2v28.5H7.4V61.4h27.3v29.3 M7.5,39.6v-5.5h27.2v5.5H7.5z M7.5,53.2
			v-5.5h27.2v5.5H7.5z M34.3,7.2v5.5H8V7.2H34.3z"/>
>
		<line x1="14.8" y1="71.5" x2="24.3" y2="71.5"/>

			<rect x="14.8" y="70.7" width="4.9" height="1.5"/>

				<path d="M24.3,71.5c-2.1,0.8-4.8,2.1-6.4,3.6l1.3-3.6l-1.3-3.6C19.5,69.4,22.1,70.7,24.3,71.5z"/>

		<path d="M17.3,77.2c-0.1,0-0.2,0-0.4,0c-0.8,0.1-1.3,0.7-1.4,1.4h0c0.2-0.2,0.5-0.4,0.9-0.4c0.7,0,1.2,0.5,1.2,1.3
			c0,0.7-0.5,1.4-1.3,1.4c-0.8,0-1.4-0.6-1.4-1.7c0-0.8,0.3-1.4,0.7-1.8c0.3-0.3,0.8-0.5,1.2-0.6c0.2,0,0.3,0,0.4,0V77.2z
			 M17.2,79.4c0-0.6-0.3-0.9-0.8-0.9c-0.3,0-0.6,0.2-0.8,0.5c0,0.1-0.1,0.1-0.1,0.2c0,0.6,0.3,1.1,0.9,1.1
			C16.9,80.3,17.2,80,17.2,79.4z"/>




 </svg>