<?xml version="1.0" encoding="utf-8"?>
<!-- Generator: Adobe Illustrator 26.2.1, SVG Export Plug-In . SVG Version: 6.00 Build 0)  -->
<svg version="1.1" xmlns="http://www.w3.org/2000/svg" xmlns:xlink="http://www.w3.org/1999/xlink" x="0px" y="0px"
	 viewBox="0 0 100 100" style="enable-background:new 0 0 100 100;" xml:space="preserve" width = "100px" height = "100px">
<style type="text/css">
	.st0{display:none;}
	.st1{display:inline;}
</style>


		<path d="M37.6,20.5v5.6H3.2v-5.6H37.6z M34.7,61.4v29.3H13.2v4.8H7.4V61.4H34.7z M7.5,39.6v-5.5h27.2v5.5H7.5z M7.5,53.2v-5.5
			h27.2v5.5H7.5z M34.3,7.2v5.5H8V7.2H34.3z M28.9,67H13.2v18h15.7V67z M63.8,29V18.9H40.2v-5.8h23.5V3.5L72.4,4
			c-0.1,0.7-0.6,1.2-1.9,1.4v7.7h24.4v5.8H70.5V29h21.2v5.7h-48V29H63.8z M46.8,42.6v5.8v12h-6.2V42.6"/>


		<line x1="51.1" y1="43.6" x2="51.1" y2="54.1"/>

			<rect x="50.4" y="43.6" width="1.5" height="6"/>

				<path d="M51.1,54.1c-0.8-2.1-2.1-4.8-3.6-6.4l3.6,1.3l3.6-1.3C53.2,49.3,51.9,52,51.1,54.1z"/>

		<path d="M54.6,42.7L54.6,42.7l-0.7,0.4l-0.1-0.4l0.9-0.5h0.4v3.9h-0.5V42.7z"/>
		<path d="M57.7,42.7L57.7,42.7L57,43.1l-0.1-0.4l0.9-0.5h0.4v3.9h-0.5V42.7z"/>



 </svg>