<?xml version="1.0" encoding="utf-8"?>
<!-- Generator: Adobe Illustrator 26.2.1, SVG Export Plug-In . SVG Version: 6.00 Build 0)  -->
<svg version="1.1" xmlns="http://www.w3.org/2000/svg" xmlns:xlink="http://www.w3.org/1999/xlink" x="0px" y="0px"
	 viewBox="0 0 100 100" style="enable-background:new 0 0 100 100;" xml:space="preserve" width = "100px" height = "100px">
<style type="text/css">
	.st0{display:none;}
	.st1{display:inline;}
</style> 


		<path d="M37.6,20.5v5.6H3.2v-5.6H37.6z M7.5,39.6v-5.5h27.2v5.5H7.5z M7.5,53.2v-5.5h27.2v5.5H7.5z M34.3,7.2v5.5H8V7.2H34.3z"/>


		<line x1="8" y1="58.2" x2="20.4" y2="58.2"/>
	
			<rect x="8" y="57.5" width="7.9" height="1.5"/>
	
				<path d="M20.4,58.2c-2.1,0.8-4.8,2.1-6.4,3.6l1.3-3.6L14,54.6C15.7,56.1,18.3,57.4,20.4,58.2z"/>
	

		<path d="M9.4,65V64H7.6v-0.3l1.7-2.5h0.6v2.4h0.5V64H9.9V65H9.4z M9.4,63.6v-1.3c0-0.2,0-0.4,0-0.6h0c-0.1,0.2-0.2,0.4-0.3,0.6
			l-1,1.3v0H9.4z"/>


</svg>