<?xml version="1.0" encoding="utf-8"?>
<!-- Generator: Adobe Illustrator 26.2.1, SVG Export Plug-In . SVG Version: 6.00 Build 0)  -->
<svg version="1.1" xmlns="http://www.w3.org/2000/svg" xmlns:xlink="http://www.w3.org/1999/xlink" x="0px" y="0px"
	 viewBox="0 0 100 100" style="enable-background:new 0 0 100 100;" xml:space="preserve">
<style type="text/css">
	.st0{display:none;}
	.st1{display:inline;}
</style>
<g id="Stroke2">
	<g>
		<path d="M95.1,14H52.7l-1.1,0.3v17.4l0.5-0.6c12.7,6.2,29.1,15.5,37.4,21.9l-4.7,6c-7.2-5.8-21.2-14.3-33.2-20.7v54.3h-7.1V14H4.9
			V7.3h90.1V14z"/>
	</g>
	<g>
		<path d="M68,52.8c-1.1-0.7-2.3-1.3-3.4-2c-2.6-1.5-5.4-2.8-8.1-4.1l0.6-1.4c2.8,1.3,5.6,2.7,8.2,4.1c1.2,0.6,2.3,1.3,3.4,2
			L68,52.8z"/>
		<g>
			<path d="M72.2,54.6C70,54.2,67,54,64.9,54.3l3-2.4l0.8-3.7C69.3,50.3,70.8,52.8,72.2,54.6z"/>
		</g>
	</g>
	<g>
		<path d="M53.2,46c0.2,0.1,0.5,0.2,0.9,0.2c0.7,0,0.9-0.4,0.9-0.8c0-0.5-0.5-0.8-1-0.8h-0.3v-0.4h0.3c0.4,0,0.9-0.2,0.9-0.7
			c0-0.3-0.2-0.6-0.7-0.6c-0.3,0-0.6,0.1-0.8,0.3l-0.1-0.4c0.2-0.1,0.6-0.3,1-0.3c0.8,0,1.1,0.5,1.1,0.9c0,0.4-0.2,0.7-0.7,0.9v0
			c0.5,0.1,0.9,0.5,0.9,1c0,0.6-0.5,1.2-1.4,1.2c-0.4,0-0.8-0.1-1-0.3L53.2,46z"/>
	</g>
</g>
<g id="Stroke1" class="st0">
	<g class="st1">
		<path d="M51.6,38.3v54.3h-7.1V14H4.9V7.3h90.1V14H52.7l-1.1,0.3v17.4"/>
	</g>
	<g class="st1">
		<line x1="55.8" y1="16.1" x2="55.8" y2="34.4"/>
		<g>
			<rect x="55.1" y="16.1" width="1.5" height="13.8"/>
			<g>
				<path d="M55.8,34.4c-0.8-2.1-2.1-4.8-3.6-6.4l3.6,1.3l3.6-1.3C57.9,29.6,56.6,32.3,55.8,34.4z"/>
			</g>
		</g>
	</g>
	<g class="st1">
		<path d="M58.4,20.9v-0.3l0.4-0.4c1-0.9,1.4-1.5,1.5-2c0-0.4-0.2-0.8-0.8-0.8c-0.4,0-0.6,0.2-0.8,0.3l-0.2-0.4
			c0.3-0.2,0.7-0.4,1.1-0.4c0.8,0,1.2,0.6,1.2,1.1c0,0.7-0.5,1.3-1.3,2.1l-0.3,0.3v0h1.8v0.4H58.4z"/>
	</g>
</g>
<g id="Stroke0" class="st0">
	<g class="st1">
		<path d="M44.4,14H4.9V7.3h90.1V14H52.7"/>
	</g>
	<g class="st1">
		<line x1="7" y1="18.4" x2="26" y2="18.4"/>
		<g>
			<rect x="7" y="17.7" width="14.4" height="1.5"/>
			<g>
				<path d="M26,18.4c-2.1,0.8-4.8,2.1-6.4,3.6l1.3-3.6l-1.3-3.6C21.2,16.3,23.8,17.6,26,18.4z"/>
			</g>
		</g>
	</g>
	<g class="st1">
		<path d="M8.4,21.4L8.4,21.4l-0.7,0.4l-0.1-0.4l0.9-0.5h0.4v3.9H8.4V21.4z"/>
	</g>
</g>
<g id="Kanji" class="st0">
	<g class="st1">
		<path d="M95.1,14H52.7l-1.1,0.3v17.4l0.5-0.6c12.7,6.2,29.1,15.5,37.4,21.9l-4.7,6c-7.2-5.8-21.2-14.3-33.2-20.7v54.3h-7.1V14H4.9
			V7.3h90.1V14z"/>
	</g>
</g>
</svg>
