<?xml version="1.0" encoding="utf-8"?>
<!-- Generator: Adobe Illustrator 26.2.1, SVG Export Plug-In . SVG Version: 6.00 Build 0)  -->
<svg version="1.1" xmlns="http://www.w3.org/2000/svg" xmlns:xlink="http://www.w3.org/1999/xlink" x="0px" y="0px"
	 viewBox="0 0 100 100" style="enable-background:new 0 0 100 100;" xml:space="preserve" width = "100px" height = "100px">
<style type="text/css">
	.st0{display:none;}
	.st1{display:inline;}
</style>

	<path d="M51.6,38.3v54.3h-7.1V14H4.9V7.3h90.1V14H52.7l-1.1,0.3v17.4"/>

	<line x1="55.8" y1="16.1" x2="55.8" y2="34.4"/>
	
	<rect x="55.1" y="16.1" width="1.5" height="13.8"/>
	<path d="M55.8,34.4c-0.8-2.1-2.1-4.8-3.6-6.4l3.6,1.3l3.6-1.3C57.9,29.6,56.6,32.3,55.8,34.4z"/>

	<path d="M58.4,20.9v-0.3l0.4-0.4c1-0.9,1.4-1.5,1.5-2c0-0.4-0.2-0.8-0.8-0.8c-0.4,0-0.6,0.2-0.8,0.3l-0.2-0.4
			c0.3-0.2,0.7-0.4,1.1-0.4c0.8,0,1.2,0.6,1.2,1.1c0,0.7-0.5,1.3-1.3,2.1l-0.3,0.3v0h1.8v0.4H58.4z"/>
</svg>