<?xml version="1.0" encoding="utf-8"?>
<!-- Generator: Adobe Illustrator 26.2.1, SVG Export Plug-In . SVG Version: 6.00 Build 0)  -->
<svg version="1.1" xmlns="http://www.w3.org/2000/svg" xmlns:xlink="http://www.w3.org/1999/xlink" x="0px" y="0px"
	 viewBox="0 0 100 100" style="enable-background:new 0 0 100 100;" xml:space="preserve" width = "100px" height = "100px">
<style type="text/css">
	.st0{display:none;}
	.st1{display:inline;}
</style>

		<path d="M95.1,14H52.7l-1.1,0.3v17.4l0.5-0.6c12.7,6.2,29.1,15.5,37.4,21.9l-4.7,6c-7.2-5.8-21.2-14.3-33.2-20.7v54.3h-7.1V14H4.9
			V7.3h90.1V14z"/>

		<path d="M68,52.8c-1.1-0.7-2.3-1.3-3.4-2c-2.6-1.5-5.4-2.8-8.1-4.1l0.6-1.4c2.8,1.3,5.6,2.7,8.2,4.1c1.2,0.6,2.3,1.3,3.4,2
			L68,52.8z"/>

			<path d="M72.2,54.6C70,54.2,67,54,64.9,54.3l3-2.4l0.8-3.7C69.3,50.3,70.8,52.8,72.2,54.6z"/>

		<path d="M53.2,46c0.2,0.1,0.5,0.2,0.9,0.2c0.7,0,0.9-0.4,0.9-0.8c0-0.5-0.5-0.8-1-0.8h-0.3v-0.4h0.3c0.4,0,0.9-0.2,0.9-0.7
			c0-0.3-0.2-0.6-0.7-0.6c-0.3,0-0.6,0.1-0.8,0.3l-0.1-0.4c0.2-0.1,0.6-0.3,1-0.3c0.8,0,1.1,0.5,1.1,0.9c0,0.4-0.2,0.7-0.7,0.9v0
			c0.5,0.1,0.9,0.5,0.9,1c0,0.6-0.5,1.2-1.4,1.2c-0.4,0-0.8-0.1-1-0.3L53.2,46z"/>


 </svg>