<?xml version="1.0" encoding="utf-8"?>
<!-- Generator: Adobe Illustrator 26.2.1, SVG Export Plug-In . SVG Version: 6.00 Build 0)  -->
<svg version="1.1" xmlns="http://www.w3.org/2000/svg" xmlns:xlink="http://www.w3.org/1999/xlink" x="0px" y="0px"
	 viewBox="0 0 100 100" style="enable-background:new 0 0 100 100;" xml:space="preserve">
<style type="text/css">
	.st0{display:none;}
	.st1{display:inline;}
</style>
<g id="Stroke12">
	<g>
		<path d="M44.4,47.1V23.3H11.5v14.6H5.4V18.3h39v-6.7H11.1V6.2h73.8v5.4H51v6.7h39.8v19.6h-6.4V23.3H51v23.8H44.4z M50.6,84.2
			c0,3.4,1.3,4.1,7.8,4.1h23.3c5.5,0,6.4-1.8,7-12.3c1.5,1,4,1.9,5.9,2.3c-1,12.4-3.2,15.5-12.5,15.5h-24c-10.8,0-13.9-1.8-13.9-9.7
			v-3.5H20.5v5.3H14V50.6h68.6v29.9h-32V84.2z M15.1,44.2v-4.5h23.8v4.5H15.1z M17.1,29.3h21.7v4.5H17.1V29.3z M44.2,55.8H20.5v7.4
			h23.7V55.8z M20.5,75.5h23.7v-7.6H20.5V75.5z M75.9,63.2v-7.4H50.6v7.4H75.9z M50.6,75.5h25.3v-7.6H50.6V75.5z M56.7,29.3h22.2
			v4.5H56.7V29.3z M56.7,44.2v-4.5h24.7v4.5H56.7z"/>
	</g>
	<g>
		<line x1="52.7" y1="56.3" x2="52.7" y2="62.1"/>
		<rect x="52" y="56.3" width="1.5" height="5.8"/>
	</g>
	<g>
		<line x1="52.7" y1="68.8" x2="52.7" y2="74.7"/>
		<rect x="52" y="68.8" width="1.5" height="5.9"/>
	</g>
	<g>
		<path d="M59.6,85.9h-5c-1.4,0-2.6-1.2-2.6-2.6v-1.5h1.5v1.5c0,0.6,0.5,1.1,1.1,1.1h5V85.9z"/>
		<g>
			<path d="M63.3,85.2c-1.7,0.6-3.8,1.7-5.1,2.9l1-2.9l-1-2.9C59.4,83.5,61.5,84.5,63.3,85.2z"/>
		</g>
	</g>
	<g>
		<path d="M56.3,57.3L56.3,57.3l-0.7,0.4l-0.1-0.4l0.9-0.5h0.4v3.9h-0.5V57.3z"/>
		<path d="M58.3,60.1c0.2,0.1,0.5,0.2,0.9,0.2c0.7,0,0.9-0.4,0.9-0.8c0-0.5-0.5-0.8-1-0.8h-0.3v-0.4h0.3c0.4,0,0.9-0.2,0.9-0.7
			c0-0.3-0.2-0.6-0.7-0.6c-0.3,0-0.6,0.1-0.8,0.3l-0.1-0.4c0.2-0.1,0.6-0.3,1-0.3c0.8,0,1.1,0.5,1.1,0.9c0,0.4-0.2,0.7-0.7,0.9v0
			c0.5,0.1,0.9,0.5,0.9,1c0,0.6-0.5,1.2-1.4,1.2c-0.4,0-0.8-0.1-1-0.3L58.3,60.1z"/>
	</g>
</g>
<g id="Stroke11" class="st0">
	<g class="st1">
		<path d="M44.4,47.1V23.3H11.5v14.6H5.4V18.3h39v-6.7H11.1V6.2h73.8v5.4H51v6.7h39.8v19.6h-6.4V23.3H51v23.8H44.4z M44.2,80.6H20.5
			v5.3H14V50.6h68.6v29.9h-32 M15.1,44.2v-4.5h23.8v4.5H15.1z M17.1,29.3h21.7v4.5H17.1V29.3z M75.9,63.2v-7.4H20.5v7.4 M75.9,75.5
			v-7.6H20.5v7.6 M56.7,29.3h22.2v4.5H56.7V29.3z M56.7,44.2v-4.5h24.7v4.5H56.7z"/>
	</g>
	<g class="st1">
		<path d="M21.8,84.5c0,0,10.7,0,13.3,0"/>
		<g>
			<rect x="21.8" y="83.8" width="8.8" height="1.5"/>
			<g>
				<path d="M35.1,84.5c-2.1,0.8-4.8,2.1-6.4,3.6l1.3-3.6l-1.3-3.6C30.4,82.4,33,83.7,35.1,84.5z"/>
			</g>
		</g>
	</g>
	<g class="st1">
		<path d="M22.6,86.9L22.6,86.9l-0.7,0.4l-0.1-0.4l0.9-0.5h0.4v3.9h-0.5V86.9z"/>
		<path d="M24.5,90.3V90l0.4-0.4c1-0.9,1.4-1.5,1.5-2c0-0.4-0.2-0.8-0.8-0.8c-0.4,0-0.6,0.2-0.8,0.3l-0.2-0.4
			c0.3-0.2,0.7-0.4,1.1-0.4c0.8,0,1.2,0.6,1.2,1.1c0,0.7-0.5,1.3-1.3,2.1l-0.3,0.3v0H27v0.4H24.5z"/>
	</g>
</g>
<g id="Stroke10" class="st0">
	<g class="st1">
		<path d="M44.4,47.1V23.3H11.5v14.6H5.4V18.3h39v-6.7H11.1V6.2h73.8v5.4H51v6.7h39.8v19.6h-6.4V23.3H51v23.8H44.4z M75.9,80.7v-5.2
			v-7.6v-4.7v-7.4H20.5v7.4v12.3v10.4H14V50.6h68.6v29.9 M15.1,44.2v-4.5h23.8v4.5H15.1z M17.1,29.3h21.7v4.5H17.1V29.3z M56.7,29.3
			h22.2v4.5H56.7V29.3z M56.7,44.2v-4.5h24.7v4.5H56.7z"/>
	</g>
	<polyline class="st1" points="20.5,63.2 75.9,63.2 75.9,67.9 20.5,68.2 	"/>
	<g class="st1">
		<line x1="21.5" y1="72.1" x2="37.9" y2="72.1"/>
		<g>
			<rect x="21.5" y="71.3" width="11.8" height="1.5"/>
			<g>
				<path d="M37.9,72.1c-2.1,0.8-4.8,2.1-6.4,3.6l1.3-3.6l-1.3-3.6C33.1,69.9,35.8,71.3,37.9,72.1z"/>
			</g>
		</g>
	</g>
	<g class="st1">
		<path d="M23,74.8L23,74.8l-0.7,0.4l-0.1-0.4l0.9-0.5h0.4v3.9H23V74.8z"/>
		<path d="M26,74.8L26,74.8l-0.7,0.4l-0.1-0.4l0.9-0.5h0.4v3.9H26V74.8z"/>
	</g>
</g>
<g id="Stroke9" class="st0">
	<g class="st1">
		<path d="M44.4,47.1V23.3H11.5v14.6H5.4V18.3h39v-6.7H11.1V6.2h73.8v5.4H51v6.7h39.8v19.6h-6.4V23.3H51v23.8H44.4z M75.8,80.6
			l0.1-5.1v-7.6v-4.7v-7.4H20.5v7.4v4.7v7.6v5.1v5.3H14V50.6h68.6v29.9 M15.1,44.2v-4.5h23.8v4.5H15.1z M17.1,29.3h21.7v4.5H17.1
			V29.3z M56.7,29.3h22.2v4.5H56.7V29.3z M56.7,44.2v-4.5h24.7v4.5H56.7z"/>
	</g>
	<g class="st1">
		<line x1="22" y1="60" x2="36.5" y2="60"/>
		<g>
			<rect x="22" y="59.2" width="9.9" height="1.5"/>
			<g>
				<path d="M36.5,60c-2.1,0.8-4.8,2.1-6.4,3.6l1.3-3.6l-1.3-3.6C31.7,57.8,34.3,59.2,36.5,60z"/>
			</g>
		</g>
	</g>
	<g class="st1">
		<path d="M23.5,62.9L23.5,62.9l-0.7,0.4l-0.1-0.4l0.9-0.5h0.4v3.9h-0.5V62.9z"/>
		<path d="M28.1,64.3c0,1.3-0.5,2.1-1.4,2.1c-0.8,0-1.3-0.7-1.3-2c0-1.3,0.6-2,1.4-2C27.6,62.3,28.1,63.1,28.1,64.3z M26,64.4
			c0,1,0.3,1.6,0.8,1.6c0.5,0,0.8-0.6,0.8-1.6c0-1-0.2-1.6-0.8-1.6C26.3,62.8,26,63.3,26,64.4z"/>
	</g>
</g>
<g id="Stroke8" class="st0">
	<g class="st1">
		<path d="M44.4,47.1V23.3H11.5v14.6H5.4V18.3h39v-6.7H11.1V6.2h73.8v5.4H51v6.7h39.8v19.6h-6.4V23.3H51v23.8H44.4z M20.5,50.6v5.1
			v7.4v4.7v7.6v5.1v5.3H14V50.6 M15.1,44.2v-4.5h23.8v4.5H15.1z M17.1,29.3h21.7v4.5H17.1V29.3z M56.7,29.3h22.2v4.5H56.7V29.3z
			 M56.7,44.2v-4.5h24.7v4.5H56.7z"/>
	</g>
	<g class="st1">
		<path d="M24.6,50.6c0,0.1,0,11.5,0,11.5"/>
		<g>
			<rect x="23.9" y="50.6" width="1.5" height="7"/>
			<g>
				<path d="M24.6,62.2c-0.8-2.1-2.1-4.8-3.6-6.4l3.6,1.3l3.6-1.3C26.8,57.4,25.4,60,24.6,62.2z"/>
			</g>
		</g>
	</g>
	<g class="st1">
		<path d="M27.5,54.2c0.1,0,0.2,0,0.4,0c0.3,0,0.6-0.2,0.8-0.4c0.3-0.2,0.4-0.6,0.5-1h0c-0.2,0.3-0.5,0.4-0.9,0.4
			c-0.7,0-1.2-0.5-1.2-1.2c0-0.7,0.5-1.4,1.3-1.4s1.3,0.6,1.3,1.6c0,0.9-0.3,1.5-0.7,1.8c-0.3,0.3-0.7,0.5-1.1,0.5
			c-0.2,0-0.4,0-0.5,0V54.2z M27.7,51.9c0,0.5,0.3,0.8,0.7,0.8c0.4,0,0.6-0.2,0.8-0.4c0,0,0-0.1,0-0.2c0-0.7-0.2-1.2-0.8-1.2
			C28,51,27.7,51.4,27.7,51.9z"/>
	</g>
</g>
<g id="Stroke7" class="st0">
	<g class="st1">
		<path d="M44.4,47.1V23.3H11.5v14.6H5.4V18.3h39v-6.7H11.1V6.2h73.8v5.4H51v6.7h39.8v19.6h-6.4V23.3H51v23.8H44.4z M15.1,44.2v-4.5
			h23.8v4.5H15.1z M17.1,29.3h21.7v4.5H17.1V29.3z M56.7,29.3h22.2v4.5H56.7V29.3z M56.7,44.2v-4.5h24.7v4.5H56.7z"/>
	</g>
	<g class="st1">
		<line x1="56.7" y1="48.5" x2="71.7" y2="48.5"/>
		<g>
			<rect x="56.7" y="47.8" width="10.5" height="1.5"/>
			<g>
				<path d="M71.7,48.5c-2.1,0.8-4.8,2.1-6.4,3.6l1.3-3.6l-1.3-3.6C66.9,46.4,69.6,47.7,71.7,48.5z"/>
			</g>
		</g>
	</g>
	<g class="st1">
		<path d="M56.9,54c0-0.5,0.3-0.8,0.8-1l0,0c-0.4-0.2-0.6-0.5-0.6-0.9c0-0.6,0.5-1,1.2-1c0.8,0,1.1,0.5,1.1,1c0,0.3-0.2,0.7-0.6,0.9
			v0c0.5,0.2,0.8,0.5,0.8,1c0,0.7-0.6,1.1-1.3,1.1C57.4,55.1,56.9,54.6,56.9,54z M59,54c0-0.5-0.3-0.7-0.9-0.9
			c-0.5,0.1-0.7,0.4-0.7,0.8c0,0.4,0.3,0.7,0.8,0.7C58.7,54.7,59,54.4,59,54z M57.6,52c0,0.4,0.3,0.6,0.7,0.7
			c0.3-0.1,0.6-0.4,0.6-0.7c0-0.3-0.2-0.6-0.7-0.6C57.8,51.4,57.6,51.7,57.6,52z"/>
	</g>
</g>
<g id="Stroke6" class="st0">
	<g class="st1">
		<path d="M44.4,47.1V23.3H11.5v14.6H5.4V18.3h39v-6.7H11.1V6.2h73.8v5.4H51v6.7h39.8v19.6h-6.4V23.3H51v23.8H44.4z M15.1,44.2v-4.5
			h23.8v4.5H15.1z M17.1,29.3h21.7v4.5H17.1V29.3z M56.7,29.3h22.2v4.5H56.7V29.3z"/>
	</g>
	<g class="st1">
		<line x1="56.7" y1="38.3" x2="68.2" y2="38.3"/>
		<g>
			<rect x="56.7" y="37.5" width="7" height="1.5"/>
			<g>
				<path d="M68.2,38.3c-2.1,0.8-4.8,2.1-6.4,3.6l1.3-3.6l-1.3-3.6C63.5,36.1,66.1,37.5,68.2,38.3z"/>
			</g>
		</g>
	</g>
	<g class="st1">
		<path d="M59.5,40.4v0.3l-1.7,3.6h-0.5l1.7-3.4v0H57v-0.4H59.5z"/>
	</g>
</g>
<g id="Stroke5" class="st0">
	<g class="st1">
		<path d="M44.4,47.1V23.3H11.5v14.6H5.4V18.3h39v-6.7H11.1V6.2h73.8v5.4H51v6.7h39.8v19.6h-6.4V23.3H51v23.8H44.4z M15.1,44.2v-4.5
			h23.8v4.5H15.1z M17.1,29.3h21.7v4.5H17.1V29.3z"/>
	</g>
	<g class="st1">
		<path d="M15.1,48.6c0.5,0,13.8,0,13.8,0"/>
		<g>
			<path d="M19.9,49.4c-2.5,0-4.6,0-4.8,0l0-1.5c0.3,0,5.4,0,9.2,0v1.5C22.9,49.3,21.4,49.4,19.9,49.4z"/>
			<g>
				<path d="M28.9,48.6c-2.1,0.8-4.8,2.1-6.4,3.6l1.3-3.6L22.5,45C24.1,46.5,26.7,47.8,28.9,48.6z"/>
			</g>
		</g>
	</g>
	<g class="st1">
		<path d="M17.6,51.5c-0.1,0-0.2,0-0.4,0c-0.8,0.1-1.3,0.7-1.4,1.4h0c0.2-0.2,0.5-0.4,0.9-0.4c0.7,0,1.2,0.5,1.2,1.3
			c0,0.7-0.5,1.4-1.3,1.4c-0.8,0-1.4-0.6-1.4-1.7c0-0.8,0.3-1.4,0.7-1.8c0.3-0.3,0.8-0.5,1.2-0.6c0.2,0,0.3,0,0.4,0V51.5z
			 M17.4,53.8c0-0.6-0.3-0.9-0.8-0.9c-0.3,0-0.6,0.2-0.8,0.5c0,0.1-0.1,0.1-0.1,0.2c0,0.6,0.3,1.1,0.9,1.1
			C17.1,54.7,17.4,54.3,17.4,53.8z"/>
	</g>
</g>
<g id="Stroke4" class="st0">
	<g class="st1">
		<path d="M44.4,47.1V23.3H11.5v14.6H5.4V18.3h39v-6.7H11.1V6.2h73.8v5.4H51v6.7h39.8v19.6h-6.4V23.3H51v23.8H44.4z M17.1,29.3h21.7
			v4.5H17.1V29.3z"/>
	</g>
	<g class="st1">
		<path d="M17.1,38.6c3.1,0,13.1,0,13.1,0"/>
		<g>
			<path d="M17.1,39.4l0-1.5c1.7,0,5.5,0,8.6,0l0,1.5C22.6,39.3,18.8,39.3,17.1,39.4z"/>
			<g>
				<path d="M30.2,38.6c-2.1,0.8-4.8,2.1-6.4,3.6l1.3-3.6L23.8,35C25.4,36.5,28,37.8,30.2,38.6z"/>
			</g>
		</g>
	</g>
	<g class="st1">
		<path d="M19.7,41.6h-1.5l-0.1,1c0.1,0,0.2,0,0.3,0c0.3,0,0.6,0.1,0.8,0.2c0.3,0.2,0.6,0.5,0.6,1c0,0.8-0.6,1.3-1.5,1.3
			c-0.4,0-0.8-0.1-1-0.2l0.1-0.4c0.2,0.1,0.5,0.2,0.8,0.2c0.5,0,0.9-0.3,0.9-0.8c0-0.5-0.3-0.9-1.1-0.9c-0.2,0-0.4,0-0.5,0l0.3-1.9
			h1.9V41.6z"/>
	</g>
</g>
<g id="Stroke3" class="st0">
	<g class="st1">
		<path d="M44.4,47.1V23.3H11.5v14.6H5.4V18.3h39v-6.7H11.1V6.2h73.8v5.4H51v6.7h39.8v19.6h-6.4V23.3H51v23.8H44.4z"/>
	</g>
	<g class="st1">
		<line x1="55.1" y1="12.2" x2="55.1" y2="17.1"/>
		<rect x="54.4" y="12.2" width="1.5" height="4.8"/>
	</g>
	<g class="st1">
		<line x1="55.1" y1="24.5" x2="55.1" y2="35.7"/>
		<g>
			<rect x="54.4" y="24.5" width="1.5" height="6.7"/>
			<g>
				<path d="M55.1,35.7c-0.8-2.1-2.1-4.8-3.6-6.4l3.6,1.3l3.6-1.3C57.2,31,55.9,33.6,55.1,35.7z"/>
			</g>
		</g>
	</g>
	<g class="st1">
		<path d="M59.6,16.6v-1.1h-1.8v-0.3l1.7-2.5h0.6v2.4h0.5v0.4h-0.5v1.1H59.6z M59.6,15.1v-1.3c0-0.2,0-0.4,0-0.6h0
			c-0.1,0.2-0.2,0.4-0.3,0.6l-1,1.3v0H59.6z"/>
	</g>
</g>
<g id="Stroke2" class="st0">
	<g class="st1">
		<path d="M44.4,11.6H11.1V6.2h73.8v5.4H51 M44.4,23.3H11.5v14.6H5.4V18.3h85.4v19.6h-6.4V23.3H51"/>
	</g>
	<g class="st1">
		<line x1="13.7" y1="27.4" x2="28.7" y2="27.4"/>
		<g>
			<rect x="13.7" y="26.6" width="10.5" height="1.5"/>
			<g>
				<path d="M28.7,27.4c-2.1,0.8-4.8,2.1-6.4,3.6l1.3-3.6l-1.3-3.6C24,25.2,26.6,26.6,28.7,27.4z"/>
			</g>
		</g>
	</g>
	<g class="st1">
		<path d="M14.1,33.3c0.1,0.1,0.5,0.2,0.9,0.2c0.7,0,0.9-0.4,0.9-0.8c0-0.5-0.5-0.8-1-0.8h-0.3v-0.4h0.3c0.4,0,0.9-0.2,0.9-0.7
			c0-0.3-0.2-0.6-0.7-0.6c-0.3,0-0.6,0.1-0.8,0.3l-0.1-0.4c0.2-0.1,0.6-0.3,1-0.3c0.8,0,1.1,0.5,1.1,0.9c0,0.4-0.2,0.7-0.7,0.9v0
			c0.5,0.1,0.9,0.5,0.9,1c0,0.6-0.5,1.2-1.4,1.2c-0.4,0-0.8-0.1-1-0.3L14.1,33.3z"/>
	</g>
</g>
<g id="Stroke1" class="st0">
	<g class="st1">
		<path d="M44.4,11.6H11.1V6.2h73.8v5.4H51 M11.5,18.3v5v14.6H5.4V18.3"/>
	</g>
	<g class="st1">
		<line x1="15.8" y1="18.3" x2="15.8" y2="29.6"/>
		<g>
			<rect x="15.1" y="18.3" width="1.5" height="6.7"/>
			<g>
				<path d="M15.8,29.6c-0.8-2.1-2.1-4.8-3.6-6.4l3.6,1.3l3.6-1.3C18,24.8,16.6,27.4,15.8,29.6z"/>
			</g>
		</g>
	</g>
	<g class="st1">
		<path d="M18.1,20.7v-0.3l0.4-0.4c1-0.9,1.4-1.5,1.5-2c0-0.4-0.2-0.8-0.8-0.8c-0.4,0-0.6,0.2-0.8,0.3l-0.2-0.4
			c0.3-0.2,0.7-0.4,1.1-0.4c0.8,0,1.2,0.6,1.2,1.1c0,0.7-0.5,1.3-1.3,2.1l-0.3,0.3v0h1.8v0.4H18.1z"/>
	</g>
</g>
<g id="Stroke0" class="st0">
	<g class="st1">
		<path d="M44.4,11.6H11.1V6.2h73.8v5.4H51"/>
	</g>
	<g class="st1">
		<path d="M11.1,16.2c1,0,13.9,0,14.4,0"/>
		<g>
			<rect x="11.1" y="15.4" width="9.8" height="1.5"/>
			<g>
				<path d="M25.5,16.2c-2.1,0.8-4.8,2.1-6.4,3.6l1.3-3.6L19,12.6C20.7,14,23.3,15.4,25.5,16.2z"/>
			</g>
		</g>
	</g>
	<g class="st1">
		<path d="M12.5,18.8L12.5,18.8l-0.7,0.4l-0.1-0.4l0.9-0.5H13v3.9h-0.5V18.8z"/>
	</g>
</g>
<g id="Kanji" class="st0">
	<g class="st1">
		<path d="M44.4,47.1V23.3H11.5v14.6H5.4V18.3h39v-6.7H11.1V6.2h73.8v5.4H51v6.7h39.8v19.6h-6.4V23.3H51v23.8H44.4z M50.6,84.2
			c0,3.4,1.3,4.1,7.8,4.1h23.3c5.5,0,6.4-1.8,7-12.3c1.5,1,4,1.9,5.9,2.3c-1,12.4-3.2,15.5-12.5,15.5h-24c-10.8,0-13.9-1.8-13.9-9.7
			v-3.5H20.5v5.3H14V50.6h68.6v29.9h-32V84.2z M15.1,44.2v-4.5h23.8v4.5H15.1z M17.1,29.3h21.7v4.5H17.1V29.3z M44.2,55.8H20.5v7.4
			h23.7V55.8z M20.5,75.5h23.7v-7.6H20.5V75.5z M75.9,63.2v-7.4H50.6v7.4H75.9z M50.6,75.5h25.3v-7.6H50.6V75.5z M56.7,29.3h22.2
			v4.5H56.7V29.3z M56.7,44.2v-4.5h24.7v4.5H56.7z"/>
	</g>
</g>
</svg>
