<?xml version="1.0" encoding="utf-8"?>
<!-- Generator: Adobe Illustrator 26.2.1, SVG Export Plug-In . SVG Version: 6.00 Build 0)  -->
<svg version="1.1" xmlns="http://www.w3.org/2000/svg" xmlns:xlink="http://www.w3.org/1999/xlink" x="0px" y="0px"
	 viewBox="0 0 100 100" style="enable-background:new 0 0 100 100;" xml:space="preserve" width = "100px" height = "100px">
<style type="text/css">
	.st0{display:none;}
	.st1{display:inline;}
</style>

		<path d="M44.4,11.6H11.1V6.2h73.8v5.4H51 M11.5,18.3v5v14.6H5.4V18.3"/>

		<line x1="15.8" y1="18.3" x2="15.8" y2="29.6"/>

			<rect x="15.1" y="18.3" width="1.5" height="6.7"/>
	
				<path d="M15.8,29.6c-0.8-2.1-2.1-4.8-3.6-6.4l3.6,1.3l3.6-1.3C18,24.8,16.6,27.4,15.8,29.6z"/>

		<path d="M18.1,20.7v-0.3l0.4-0.4c1-0.9,1.4-1.5,1.5-2c0-0.4-0.2-0.8-0.8-0.8c-0.4,0-0.6,0.2-0.8,0.3l-0.2-0.4
			c0.3-0.2,0.7-0.4,1.1-0.4c0.8,0,1.2,0.6,1.2,1.1c0,0.7-0.5,1.3-1.3,2.1l-0.3,0.3v0h1.8v0.4H18.1z"/>


 </svg>