<?xml version="1.0" encoding="utf-8"?>
<!-- Generator: Adobe Illustrator 26.2.1, SVG Export Plug-In . SVG Version: 6.00 Build 0)  -->
<svg version="1.1" xmlns="http://www.w3.org/2000/svg" xmlns:xlink="http://www.w3.org/1999/xlink" x="0px" y="0px"
	 viewBox="0 0 100 100" style="enable-background:new 0 0 100 100;" xml:space="preserve" width = "100px" height = "100px">
<style type="text/css">
	.st0{display:none;}
	.st1{display:inline;}
</style>

		<path d="M44.4,47.1V23.3H11.5v14.6H5.4V18.3h39v-6.7H11.1V6.2h73.8v5.4H51v6.7h39.8v19.6h-6.4V23.3H51v23.8H44.4z M75.9,80.7v-5.2
			v-7.6v-4.7v-7.4H20.5v7.4v12.3v10.4H14V50.6h68.6v29.9 M15.1,44.2v-4.5h23.8v4.5H15.1z M17.1,29.3h21.7v4.5H17.1V29.3z M56.7,29.3
			h22.2v4.5H56.7V29.3z M56.7,44.2v-4.5h24.7v4.5H56.7z"/>

	<polyline class="st1" points="20.5,63.2 75.9,63.2 75.9,67.9 20.5,68.2 	"/>

		<line x1="21.5" y1="72.1" x2="37.9" y2="72.1"/>
		
			<rect x="21.5" y="71.3" width="11.8" height="1.5"/>

				<path d="M37.9,72.1c-2.1,0.8-4.8,2.1-6.4,3.6l1.3-3.6l-1.3-3.6C33.1,69.9,35.8,71.3,37.9,72.1z"/>


		<path d="M23,74.8L23,74.8l-0.7,0.4l-0.1-0.4l0.9-0.5h0.4v3.9H23V74.8z"/>
		<path d="M26,74.8L26,74.8l-0.7,0.4l-0.1-0.4l0.9-0.5h0.4v3.9H26V74.8z"/>

 </svg>