<?xml version="1.0" encoding="utf-8"?>
<!-- Generator: Adobe Illustrator 26.2.1, SVG Export Plug-In . SVG Version: 6.00 Build 0)  -->
<svg version="1.1" xmlns="http://www.w3.org/2000/svg" xmlns:xlink="http://www.w3.org/1999/xlink" x="0px" y="0px"
	 viewBox="0 0 100 100" style="enable-background:new 0 0 100 100;" xml:space="preserve" width = "100px" height = "100px">
<style type="text/css">
	.st0{display:none;}
	.st1{display:inline;}
</style> 

		<path d="M44.4,47.1V23.3H11.5v14.6H5.4V18.3h39v-6.7H11.1V6.2h73.8v5.4H51v6.7h39.8v19.6h-6.4V23.3H51v23.8H44.4z M17.1,29.3h21.7
			v4.5H17.1V29.3z"/>


		<path d="M17.1,38.6c3.1,0,13.1,0,13.1,0"/>

			<path d="M17.1,39.4l0-1.5c1.7,0,5.5,0,8.6,0l0,1.5C22.6,39.3,18.8,39.3,17.1,39.4z"/>

				<path d="M30.2,38.6c-2.1,0.8-4.8,2.1-6.4,3.6l1.3-3.6L23.8,35C25.4,36.5,28,37.8,30.2,38.6z"/>

		<path d="M19.7,41.6h-1.5l-0.1,1c0.1,0,0.2,0,0.3,0c0.3,0,0.6,0.1,0.8,0.2c0.3,0.2,0.6,0.5,0.6,1c0,0.8-0.6,1.3-1.5,1.3
			c-0.4,0-0.8-0.1-1-0.2l0.1-0.4c0.2,0.1,0.5,0.2,0.8,0.2c0.5,0,0.9-0.3,0.9-0.8c0-0.5-0.3-0.9-1.1-0.9c-0.2,0-0.4,0-0.5,0l0.3-1.9
			h1.9V41.6z"/>

</svg>