<?xml version="1.0" encoding="utf-8"?>
<!-- Generator: Adobe Illustrator 26.2.1, SVG Export Plug-In . SVG Version: 6.00 Build 0)  -->
<svg version="1.1" xmlns="http://www.w3.org/2000/svg" xmlns:xlink="http://www.w3.org/1999/xlink" x="0px" y="0px"
	 viewBox="0 0 100 100" style="enable-background:new 0 0 100 100;" xml:space="preserve" width = "100px" height = "100px">
<style type="text/css">
	.st0{display:none;}
	.st1{display:inline;}
</style> 


		<path d="M44.4,47.1V23.3H11.5v14.6H5.4V18.3h39v-6.7H11.1V6.2h73.8v5.4H51v6.7h39.8v19.6h-6.4V23.3H51v23.8H44.4z M44.2,80.6H20.5
			v5.3H14V50.6h68.6v29.9h-32 M15.1,44.2v-4.5h23.8v4.5H15.1z M17.1,29.3h21.7v4.5H17.1V29.3z M75.9,63.2v-7.4H20.5v7.4 M75.9,75.5
			v-7.6H20.5v7.6 M56.7,29.3h22.2v4.5H56.7V29.3z M56.7,44.2v-4.5h24.7v4.5H56.7z"/>

		<path d="M21.8,84.5c0,0,10.7,0,13.3,0"/>

			<rect x="21.8" y="83.8" width="8.8" height="1.5"/>
	
				<path d="M35.1,84.5c-2.1,0.8-4.8,2.1-6.4,3.6l1.3-3.6l-1.3-3.6C30.4,82.4,33,83.7,35.1,84.5z"/>

		<path d="M22.6,86.9L22.6,86.9l-0.7,0.4l-0.1-0.4l0.9-0.5h0.4v3.9h-0.5V86.9z"/>
		<path d="M24.5,90.3V90l0.4-0.4c1-0.9,1.4-1.5,1.5-2c0-0.4-0.2-0.8-0.8-0.8c-0.4,0-0.6,0.2-0.8,0.3l-0.2-0.4
			c0.3-0.2,0.7-0.4,1.1-0.4c0.8,0,1.2,0.6,1.2,1.1c0,0.7-0.5,1.3-1.3,2.1l-0.3,0.3v0H27v0.4H24.5z"/>

</svg>