<?xml version="1.0" encoding="utf-8"?>
<!-- Generator: Adobe Illustrator 26.2.1, SVG Export Plug-In . SVG Version: 6.00 Build 0)  -->
<svg version="1.1" xmlns="http://www.w3.org/2000/svg" xmlns:xlink="http://www.w3.org/1999/xlink" x="0px" y="0px"
	 viewBox="0 0 100 100" style="enable-background:new 0 0 100 100;" xml:space="preserve" width = "100px" height = "100px">
<style type="text/css">
	.st0{display:none;}
	.st1{display:inline;}
</style>

		<path d="M44.4,47.1V23.3H11.5v14.6H5.4V18.3h39v-6.7H11.1V6.2h73.8v5.4H51v6.7h39.8v19.6h-6.4V23.3H51v23.8H44.4z M50.6,84.2
			c0,3.4,1.3,4.1,7.8,4.1h23.3c5.5,0,6.4-1.8,7-12.3c1.5,1,4,1.9,5.9,2.3c-1,12.4-3.2,15.5-12.5,15.5h-24c-10.8,0-13.9-1.8-13.9-9.7
			v-3.5H20.5v5.3H14V50.6h68.6v29.9h-32V84.2z M15.1,44.2v-4.5h23.8v4.5H15.1z M17.1,29.3h21.7v4.5H17.1V29.3z M44.2,55.8H20.5v7.4
			h23.7V55.8z M20.5,75.5h23.7v-7.6H20.5V75.5z M75.9,63.2v-7.4H50.6v7.4H75.9z M50.6,75.5h25.3v-7.6H50.6V75.5z M56.7,29.3h22.2
			v4.5H56.7V29.3z M56.7,44.2v-4.5h24.7v4.5H56.7z"/>

		<line x1="52.7" y1="56.3" x2="52.7" y2="62.1"/>
		<rect x="52" y="56.3" width="1.5" height="5.8"/>


		<line x1="52.7" y1="68.8" x2="52.7" y2="74.7"/>
		<rect x="52" y="68.8" width="1.5" height="5.9"/>

		<path d="M59.6,85.9h-5c-1.4,0-2.6-1.2-2.6-2.6v-1.5h1.5v1.5c0,0.6,0.5,1.1,1.1,1.1h5V85.9z"/>
	
			<path d="M63.3,85.2c-1.7,0.6-3.8,1.7-5.1,2.9l1-2.9l-1-2.9C59.4,83.5,61.5,84.5,63.3,85.2z"/>

		<path d="M56.3,57.3L56.3,57.3l-0.7,0.4l-0.1-0.4l0.9-0.5h0.4v3.9h-0.5V57.3z"/>
		<path d="M58.3,60.1c0.2,0.1,0.5,0.2,0.9,0.2c0.7,0,0.9-0.4,0.9-0.8c0-0.5-0.5-0.8-1-0.8h-0.3v-0.4h0.3c0.4,0,0.9-0.2,0.9-0.7
			c0-0.3-0.2-0.6-0.7-0.6c-0.3,0-0.6,0.1-0.8,0.3l-0.1-0.4c0.2-0.1,0.6-0.3,1-0.3c0.8,0,1.1,0.5,1.1,0.9c0,0.4-0.2,0.7-0.7,0.9v0
			c0.5,0.1,0.9,0.5,0.9,1c0,0.6-0.5,1.2-1.4,1.2c-0.4,0-0.8-0.1-1-0.3L58.3,60.1z"/>


 </svg>