<?xml version="1.0" encoding="utf-8"?>
<!-- Generator: Adobe Illustrator 26.2.1, SVG Export Plug-In . SVG Version: 6.00 Build 0)  -->
<svg version="1.1" xmlns="http://www.w3.org/2000/svg" xmlns:xlink="http://www.w3.org/1999/xlink" x="0px" y="0px"
	 viewBox="0 0 100 100" style="enable-background:new 0 0 100 100;" xml:space="preserve" width = "100px" height = "100px">
<style type="text/css">
	.st0{display:none;}
	.st1{display:inline;}
</style>


		<path d="M44.4,47.1V23.3H11.5v14.6H5.4V18.3h39v-6.7H11.1V6.2h73.8v5.4H51v6.7h39.8v19.6h-6.4V23.3H51v23.8H44.4z M15.1,44.2v-4.5
			h23.8v4.5H15.1z M17.1,29.3h21.7v4.5H17.1V29.3z M56.7,29.3h22.2v4.5H56.7V29.3z M56.7,44.2v-4.5h24.7v4.5H56.7z"/>

		<line x1="56.7" y1="48.5" x2="71.7" y2="48.5"/>
	
			<rect x="56.7" y="47.8" width="10.5" height="1.5"/>
			
				<path d="M71.7,48.5c-2.1,0.8-4.8,2.1-6.4,3.6l1.3-3.6l-1.3-3.6C66.9,46.4,69.6,47.7,71.7,48.5z"/>

		<path d="M56.9,54c0-0.5,0.3-0.8,0.8-1l0,0c-0.4-0.2-0.6-0.5-0.6-0.9c0-0.6,0.5-1,1.2-1c0.8,0,1.1,0.5,1.1,1c0,0.3-0.2,0.7-0.6,0.9
			v0c0.5,0.2,0.8,0.5,0.8,1c0,0.7-0.6,1.1-1.3,1.1C57.4,55.1,56.9,54.6,56.9,54z M59,54c0-0.5-0.3-0.7-0.9-0.9
			c-0.5,0.1-0.7,0.4-0.7,0.8c0,0.4,0.3,0.7,0.8,0.7C58.7,54.7,59,54.4,59,54z M57.6,52c0,0.4,0.3,0.6,0.7,0.7
			c0.3-0.1,0.6-0.4,0.6-0.7c0-0.3-0.2-0.6-0.7-0.6C57.8,51.4,57.6,51.7,57.6,52z"/>



 </svg>