<?xml version="1.0" encoding="utf-8"?>
<!-- Generator: Adobe Illustrator 26.2.1, SVG Export Plug-In . SVG Version: 6.00 Build 0)  -->
<svg version="1.1" xmlns="http://www.w3.org/2000/svg" xmlns:xlink="http://www.w3.org/1999/xlink" x="0px" y="0px"
	 viewBox="0 0 100 100" style="enable-background:new 0 0 100 100;" xml:space="preserve">
<style type="text/css">
	.st0{display:none;}
	.st1{display:inline;}
</style>
<g id="Stroke3">
	<g>
		<path d="M91.5,45.9H54.7c6.6,20.7,19.8,34.9,41.9,40.3c-1.5,1.5-3.5,4.4-4.6,6.3c-21.1-6-34.1-19.3-41.7-39.3
			c-4,15-14.9,29.5-42.8,39.3c-0.7-1.7-2.7-4.5-4.1-5.8C33,76.4,42,61.1,44.6,45.9H8.3V39h37c0.2-2.1,0.2-4.2,0.2-6.2V14.3H5.2V7.4
			h89v6.9H52.6v18.5c0,2,0,4.1-0.2,6.2h39.1V45.9z"/>
	</g>
	<g>
		<path d="M57.4,75.5c-0.2-0.3-0.4-0.6-0.7-0.9c-2.5-3.3-4.6-7-6.2-10.9l1.4-0.6c1.5,3.8,3.5,7.3,6,10.5c0.2,0.3,0.4,0.6,0.6,0.8
			L57.4,75.5z"/>
		<g>
			<path d="M61,78.4c-2-1.1-4.7-2.2-6.9-2.5l3.5-1.4l1.8-3.3C59.4,73.4,60.1,76.3,61,78.4z"/>
		</g>
	</g>
	<g>
		<path d="M48.4,68.3v-1.1h-1.8v-0.3l1.7-2.5h0.6v2.4h0.5v0.4h-0.5v1.1H48.4z M48.4,66.9v-1.3c0-0.2,0-0.4,0-0.6h0
			c-0.1,0.2-0.2,0.4-0.3,0.6l-1,1.3v0H48.4z"/>
	</g>
</g>
<g id="Stroke2" class="st0">
	<g class="st1">
		<path d="M50.3,53.3c-4,15-14.9,29.5-42.8,39.3c-0.7-1.7-2.7-4.5-4.1-5.8C33,76.4,42,61.1,44.6,45.9H8.3V39h37
			c0.2-2.1,0.2-4.2,0.2-6.2V14.3H5.2V7.4h89v6.9H52.6v18.5c0,2,0,4.1-0.2,6.2h39.1v6.9l-39.4,0"/>
	</g>
	<g class="st1">
		<path d="M56.6,16.6c0,0.7,0,11.4,0,11.4"/>
		<g>
			<rect x="55.9" y="16.6" width="1.5" height="6.8"/>
			<g>
				<path d="M56.6,28c-0.8-2.1-2.1-4.8-3.6-6.4l3.6,1.3l3.6-1.3C58.8,23.2,57.4,25.9,56.6,28z"/>
			</g>
		</g>
	</g>
	<g class="st1">
		<path d="M58.9,18.9c0.2,0.1,0.5,0.2,0.9,0.2c0.7,0,0.9-0.4,0.9-0.8c0-0.5-0.5-0.8-1-0.8h-0.3v-0.4h0.3c0.4,0,0.9-0.2,0.9-0.7
			c0-0.3-0.2-0.6-0.7-0.6c-0.3,0-0.6,0.1-0.8,0.3l-0.1-0.4c0.2-0.1,0.6-0.3,1-0.3c0.8,0,1.1,0.5,1.1,0.9c0,0.4-0.2,0.7-0.7,0.9v0
			c0.5,0.1,0.9,0.5,0.9,1c0,0.6-0.5,1.2-1.4,1.2c-0.4,0-0.8-0.1-1-0.3L58.9,18.9z"/>
	</g>
</g>
<g id="Stroke1" class="st0">
	<g class="st1">
		<path d="M45.5,14.3H5.2V7.4h89v6.9H52.6 M44.6,45.9H8.3V39h83.2v6.9H54.7"/>
	</g>
	<g class="st1">
		<path d="M8.3,50.6c3.8,0,17.4,0,16.8,0"/>
		<g>
			<path d="M20.6,51.4l-4.8,0c-3,0-6,0-7.5,0l0-1.5c1.5,0,4.5,0,7.5,0l4.8,0L20.6,51.4z"/>
			<g>
				<path d="M25.1,50.6c-2.1,0.8-4.8,2.1-6.4,3.6l1.3-3.6l-1.3-3.6C20.4,48.5,23,49.8,25.1,50.6z"/>
			</g>
		</g>
	</g>
	<g class="st1">
		<path d="M8.6,56.7v-0.3L9,56c1-0.9,1.4-1.5,1.5-2c0-0.4-0.2-0.8-0.8-0.8c-0.4,0-0.6,0.2-0.8,0.3l-0.2-0.4c0.3-0.2,0.7-0.4,1.1-0.4
			c0.8,0,1.2,0.6,1.2,1.1c0,0.7-0.5,1.3-1.3,2.1l-0.3,0.3v0h1.8v0.4H8.6z"/>
	</g>
</g>
<g id="Stroke0" class="st0">
	<g class="st1">
		<path d="M46.1,14.3H5.8V7.4h89v6.9H53.2"/>
	</g>
	<g class="st1">
		<line x1="6" y1="18.9" x2="23" y2="18.9"/>
		<g>
			<rect x="6" y="18.2" width="12.5" height="1.5"/>
			<g>
				<path d="M23,18.9c-2.1,0.8-4.8,2.1-6.4,3.6l1.3-3.6l-1.3-3.6C18.3,16.8,20.9,18.1,23,18.9z"/>
			</g>
		</g>
	</g>
	<g class="st1">
		<path d="M6.8,23.1L6.8,23.1l-0.7,0.4L6,23.1l0.9-0.5h0.4v3.9H6.8V23.1z"/>
	</g>
</g>
<g id="Kanji" class="st0">
	<g class="st1">
		<path d="M91.5,45.9H54.7c6.6,20.7,19.8,34.9,41.9,40.3c-1.5,1.5-3.5,4.4-4.6,6.3c-21.1-6-34.1-19.3-41.7-39.3
			c-4,15-14.9,29.5-42.8,39.3c-0.7-1.7-2.7-4.5-4.1-5.8C33,76.4,42,61.1,44.6,45.9H8.3V39h37c0.2-2.1,0.2-4.2,0.2-6.2V14.3H5.2V7.4
			h89v6.9H52.6v18.5c0,2,0,4.1-0.2,6.2h39.1V45.9z"/>
	</g>
</g>
</svg>
