<?xml version="1.0" encoding="utf-8"?>
<!-- Generator: Adobe Illustrator 26.2.1, SVG Export Plug-In . SVG Version: 6.00 Build 0)  -->
<svg version="1.1" xmlns="http://www.w3.org/2000/svg" xmlns:xlink="http://www.w3.org/1999/xlink" x="0px" y="0px"
	 viewBox="0 0 100 100" style="enable-background:new 0 0 100 100;" xml:space="preserve" width = "100px" height = "100px">
<style type="text/css">
	.st0{display:none;}
	.st1{display:inline;}
</style> 

		<path d="M45.5,14.3H5.2V7.4h89v6.9H52.6 M44.6,45.9H8.3V39h83.2v6.9H54.7"/>

		<path d="M8.3,50.6c3.8,0,17.4,0,16.8,0"/>

			<path d="M20.6,51.4l-4.8,0c-3,0-6,0-7.5,0l0-1.5c1.5,0,4.5,0,7.5,0l4.8,0L20.6,51.4z"/>
	
				<path d="M25.1,50.6c-2.1,0.8-4.8,2.1-6.4,3.6l1.3-3.6l-1.3-3.6C20.4,48.5,23,49.8,25.1,50.6z"/>

		<path d="M8.6,56.7v-0.3L9,56c1-0.9,1.4-1.5,1.5-2c0-0.4-0.2-0.8-0.8-0.8c-0.4,0-0.6,0.2-0.8,0.3l-0.2-0.4c0.3-0.2,0.7-0.4,1.1-0.4
			c0.8,0,1.2,0.6,1.2,1.1c0,0.7-0.5,1.3-1.3,2.1l-0.3,0.3v0h1.8v0.4H8.6z"/>


</svg>