<?xml version="1.0" encoding="utf-8"?>
<!-- Generator: Adobe Illustrator 26.2.1, SVG Export Plug-In . SVG Version: 6.00 Build 0)  -->
<svg version="1.1" xmlns="http://www.w3.org/2000/svg" xmlns:xlink="http://www.w3.org/1999/xlink" x="0px" y="0px"
	 viewBox="0 0 100 100" style="enable-background:new 0 0 100 100;" xml:space="preserve" width = "100px" height = "100px">
<style type="text/css">
	.st0{display:none;}
	.st1{display:inline;}
</style> 


		<path d="M91.5,45.9H54.7c6.6,20.7,19.8,34.9,41.9,40.3c-1.5,1.5-3.5,4.4-4.6,6.3c-21.1-6-34.1-19.3-41.7-39.3
			c-4,15-14.9,29.5-42.8,39.3c-0.7-1.7-2.7-4.5-4.1-5.8C33,76.4,42,61.1,44.6,45.9H8.3V39h37c0.2-2.1,0.2-4.2,0.2-6.2V14.3H5.2V7.4
			h89v6.9H52.6v18.5c0,2,0,4.1-0.2,6.2h39.1V45.9z"/>

		<path d="M57.4,75.5c-0.2-0.3-0.4-0.6-0.7-0.9c-2.5-3.3-4.6-7-6.2-10.9l1.4-0.6c1.5,3.8,3.5,7.3,6,10.5c0.2,0.3,0.4,0.6,0.6,0.8
			L57.4,75.5z"/>

			<path d="M61,78.4c-2-1.1-4.7-2.2-6.9-2.5l3.5-1.4l1.8-3.3C59.4,73.4,60.1,76.3,61,78.4z"/>

		<path d="M48.4,68.3v-1.1h-1.8v-0.3l1.7-2.5h0.6v2.4h0.5v0.4h-0.5v1.1H48.4z M48.4,66.9v-1.3c0-0.2,0-0.4,0-0.6h0
			c-0.1,0.2-0.2,0.4-0.3,0.6l-1,1.3v0H48.4z"/>


</svg>