<?xml version="1.0" encoding="utf-8"?>
<!-- Generator: Adobe Illustrator 26.2.1, SVG Export Plug-In . SVG Version: 6.00 Build 0)  -->
<svg version="1.1" xmlns="http://www.w3.org/2000/svg" xmlns:xlink="http://www.w3.org/1999/xlink" x="0px" y="0px"
	 viewBox="0 0 100 100" style="enable-background:new 0 0 100 100;" xml:space="preserve">
<style type="text/css">
	.st0{display:none;}
	.st1{display:inline;}
</style>
<g id="Stroke11">
	<g>
		<path d="M41.7,82.7c-0.5,0.6-1.4,0.7-2.2,0.5c-8,4.2-20.4,8.4-30.5,11c-1-1.4-3.2-3.7-4.6-4.9C14.5,87.1,27,83.2,34.5,79
			L41.7,82.7z M10.9,5.8h78.1V28H10.9V5.8z M17.2,11.2v11.3h17.3V11.2H17.2z M17.4,34.1h65.7v43.3H17.4V34.1z M23.9,38.9v8h52.5v-8
			H23.9z M23.9,51.7v8.1h52.5v-8.1H23.9z M23.9,64.5v8.1h52.5v-8.1H23.9z M40.4,11.2v11.3h17.9V11.2H40.4z M88.6,94.2
			c-6.8-3.3-18.3-7.7-29.9-11.3l5.3-3.7c11.5,3.4,23.9,7.8,31.6,11.2L88.6,94.2z M64.3,11.2v11.3h18.3V11.2H64.3z"/>
	</g>
	<g>
		<line x1="57.3" y1="86.7" x2="69.5" y2="90.8"/>
		<g>
			<rect x="60.5" y="83.8" transform="matrix(0.3207 -0.9472 0.9472 0.3207 -41.735 117.798)" width="1.5" height="8.4"/>
			<g>
				<path d="M69.5,90.8c-2.3,0.1-5.2,0.5-7.2,1.3l2.4-3l-0.1-3.8C65.7,87.2,67.7,89.4,69.5,90.8z"/>
			</g>
		</g>
	</g>
	<g>
		<path d="M51.4,85.3L51.4,85.3l-0.7,0.4l-0.1-0.4l0.9-0.5h0.4v3.9h-0.5V85.3z"/>
		<path d="M53.3,88.7v-0.3l0.4-0.4c1-0.9,1.4-1.5,1.5-2c0-0.4-0.2-0.8-0.8-0.8c-0.4,0-0.6,0.2-0.8,0.3l-0.2-0.4
			c0.3-0.2,0.7-0.4,1.1-0.4c0.8,0,1.2,0.6,1.2,1.1c0,0.7-0.5,1.3-1.3,2.1l-0.3,0.3v0h1.8v0.4H53.3z"/>
	</g>
</g>
<g id="Stroke10" class="st0">
	<g class="st1">
		<path d="M41.7,82.7c-0.5,0.6-1.4,0.7-2.2,0.5c-8,4.2-20.4,8.4-30.5,11c-1-1.4-3.2-3.7-4.6-4.9C14.5,87.1,27,83.2,34.5,79
			L41.7,82.7z M10.9,5.8h78.1V28H10.9V5.8z M17.2,11.2v11.3h17.3V11.2H17.2z M17.4,34.1h65.7v43.3H17.4V34.1z M23.9,38.9v8h52.5v-8
			H23.9z M23.9,51.7v8.1h52.5v-8.1H23.9z M23.9,64.5v8.1h52.5v-8.1H23.9z M40.4,11.2v11.3h17.9V11.2H40.4z M64.3,11.2v11.3h18.3
			V11.2H64.3z"/>
	</g>
	<g class="st1">
		<path d="M36,90.6l-0.7-1.3c6.9-3.4,7.9-4,8-4.1l0.9,1.2C44.2,86.5,43.6,86.9,36,90.6z"/>
		<g>
			<path d="M31.6,91.9c1.6-1.6,3.3-4,4.2-6l0.4,3.8l2.7,2.6C36.9,91.7,33.9,91.7,31.6,91.9z"/>
		</g>
	</g>
	<g class="st1">
		<path d="M46.2,84.4L46.2,84.4l-0.7,0.4l-0.1-0.4l0.9-0.5h0.4v3.9h-0.5V84.4z"/>
		<path d="M49.3,84.4L49.3,84.4l-0.7,0.4l-0.1-0.4l0.9-0.5h0.4v3.9h-0.5V84.4z"/>
	</g>
</g>
<g id="Stroke9" class="st0">
	<g class="st1">
		<path d="M10.9,5.8h78.1V28H10.9V5.8z M17.2,11.2v11.3h17.3V11.2H17.2z M17.4,34.1h65.7v43.3H17.4V34.1z M23.9,38.9v8h52.5v-8H23.9
			z M23.9,51.7v8.1h52.5v-8.1H23.9z M23.9,64.5v8.1h52.5v-8.1H23.9z M40.4,11.2v11.3h17.9V11.2H40.4z M64.3,11.2v11.3h18.3V11.2
			H64.3z"/>
	</g>
	<g class="st1">
		<path d="M17.2,81.5c1.2,0,18.1,0,18.1,0"/>
		<g>
			<path d="M22.5,82.3c-2.7,0-4.9,0-5.3,0l0.1-1.5c0.8,0,9.7,0,13.5,0l0,1.5C28.4,82.3,25.2,82.3,22.5,82.3z"/>
			<g>
				<path d="M35.3,81.5c-2.1,0.8-4.8,2.1-6.4,3.6l1.3-3.6L28.9,78C30.6,79.4,33.2,80.7,35.3,81.5z"/>
			</g>
		</g>
	</g>
	<g class="st1">
		<path d="M18,84.5L18,84.5l-0.7,0.4l-0.1-0.4l0.9-0.5h0.5v3.9H18V84.5z"/>
		<path d="M22.6,85.9c0,1.3-0.5,2.1-1.4,2.1c-0.8,0-1.3-0.7-1.3-2c0-1.3,0.6-2,1.4-2C22.1,83.9,22.6,84.7,22.6,85.9z M20.4,86
			c0,1,0.3,1.6,0.8,1.6c0.5,0,0.8-0.6,0.8-1.6c0-1-0.2-1.6-0.8-1.6C20.8,84.4,20.4,84.9,20.4,86z"/>
	</g>
</g>
<g id="Stroke8" class="st0">
	<g class="st1">
		<path d="M10.9,5.8h78.1V28H10.9V5.8z M17.2,11.2v11.3h17.3V11.2H17.2z M17.4,77.5V34.1h65.7v43.3h-6.7v-13H23.9v13H17.4
			 M23.9,38.9v8h52.5v-8H23.9z M23.9,51.7v8.1h52.5v-8.1H23.9z M40.4,11.2v11.3h17.9V11.2H40.4z M64.3,11.2v11.3h18.3V11.2H64.3z"/>
	</g>
	<g class="st1">
		<path d="M25,68.5c1.5,0,16,0,16,0"/>
		<g>
			<path d="M25.1,69.2l0-1.5c0.7,0,4.6,0,11.5,0l0,1.5C29.6,69.2,25.8,69.2,25.1,69.2z"/>
			<g>
				<path d="M41,68.5c-2.1,0.8-4.8,2.1-6.4,3.6l1.3-3.6l-1.3-3.6C36.2,66.3,38.9,67.7,41,68.5z"/>
			</g>
		</g>
	</g>
	<g class="st1">
		<path d="M25.6,74.5c0.1,0,0.2,0,0.4,0c0.3,0,0.6-0.2,0.8-0.4c0.3-0.2,0.4-0.6,0.5-1h0c-0.2,0.3-0.5,0.4-0.9,0.4
			c-0.7,0-1.2-0.5-1.2-1.2c0-0.7,0.5-1.4,1.3-1.4s1.3,0.6,1.3,1.6c0,0.9-0.3,1.5-0.7,1.8c-0.3,0.3-0.7,0.5-1.1,0.5
			c-0.2,0-0.4,0-0.5,0V74.5z M25.8,72.3c0,0.5,0.3,0.8,0.7,0.8c0.4,0,0.6-0.2,0.8-0.4c0,0,0-0.1,0-0.2c0-0.7-0.2-1.2-0.8-1.2
			C26.1,71.4,25.8,71.7,25.8,72.3z"/>
	</g>
</g>
<g id="Stroke7" class="st0">
	<g class="st1">
		<path d="M10.9,5.8h78.1V28H10.9V5.8z M17.2,11.2v11.3h17.3V11.2H17.2z M76.5,51.7H23.9v25.8h-6.5V34.1h65.7l-0.6,43.3h-6.1
			 M23.9,38.9v8h52.5v-8H23.9z M40.4,11.2v11.3h17.9V11.2H40.4z M64.3,11.2v11.3h18.3V11.2H64.3z"/>
	</g>
	<g class="st1">
		<line x1="25.3" y1="55.8" x2="37.8" y2="55.8"/>
		<g>
			<rect x="25.3" y="55.1" width="8" height="1.5"/>
			<g>
				<path d="M37.8,55.8c-2.1,0.8-4.8,2.1-6.4,3.6l1.3-3.6l-1.3-3.6C33.1,53.7,35.7,55,37.8,55.8z"/>
			</g>
		</g>
	</g>
	<g class="st1">
		<path d="M25.6,61c0-0.5,0.3-0.8,0.8-1l0,0c-0.4-0.2-0.6-0.5-0.6-0.9c0-0.6,0.5-1,1.2-1c0.8,0,1.1,0.5,1.1,1c0,0.3-0.2,0.7-0.6,0.9
			v0c0.5,0.2,0.8,0.5,0.8,1c0,0.7-0.6,1.1-1.3,1.1C26,62.1,25.6,61.6,25.6,61z M27.7,61c0-0.5-0.3-0.7-0.9-0.9
			c-0.5,0.1-0.7,0.4-0.7,0.8c0,0.4,0.3,0.7,0.8,0.7C27.3,61.7,27.7,61.4,27.7,61z M26.2,59.1c0,0.4,0.3,0.6,0.7,0.7
			c0.3-0.1,0.6-0.4,0.6-0.7c0-0.3-0.2-0.6-0.7-0.6C26.4,58.4,26.2,58.7,26.2,59.1z"/>
	</g>
</g>
<g id="Stroke6" class="st0">
	<g class="st1">
		<path d="M10.9,5.8h78.1V28H10.9V5.8z M17.2,11.2v11.3h17.3V11.2H17.2z M76.5,38.9H23.9v38.5h-6.5V34.1h65.7v43.3h-6 M40.4,11.2
			v11.3h17.9V11.2H40.4z M64.3,11.2v11.3h18.3V11.2H64.3z"/>
	</g>
	<g class="st1">
		<line x1="25.3" y1="43" x2="41.2" y2="43"/>
		<g>
			<rect x="25.3" y="42.2" width="11.3" height="1.5"/>
			<g>
				<path d="M41.2,43c-2.1,0.8-4.8,2.1-6.4,3.6l1.3-3.6l-1.3-3.6C36.4,40.8,39,42.2,41.2,43z"/>
			</g>
		</g>
	</g>
	<g class="st1">
		<path d="M28.1,44.7V45l-1.7,3.5h-0.5l1.7-3.4v0h-1.9v-0.4H28.1z"/>
	</g>
</g>
<g id="Stroke5" class="st0">
	<g class="st1">
		<path d="M10.9,5.8h78.1V28H10.9V5.8z M17.2,11.2v11.3h17.3V11.2H17.2z M23.9,77.5h-6.5V34.1h6.5v4.8v8v17.5v8.1 M40.4,11.2v11.3
			h17.9V11.2H40.4z M64.3,11.2v11.3h18.3V11.2H64.3z"/>
	</g>
	<g class="st1">
		<rect x="28" y="34.1" width="1.5" height="7.8"/>
		<g>
			<path d="M28.7,46.5c-0.8-2.1-2.1-4.8-3.6-6.4l3.6,1.3l3.6-1.3C30.8,41.7,29.5,44.4,28.7,46.5z"/>
		</g>
	</g>
	<g class="st1">
		<path d="M33.8,34.2c-0.1,0-0.2,0-0.4,0c-0.8,0.1-1.3,0.7-1.4,1.4h0c0.2-0.2,0.5-0.4,0.9-0.4c0.7,0,1.2,0.5,1.2,1.3
			c0,0.7-0.5,1.4-1.3,1.4c-0.8,0-1.4-0.6-1.4-1.7c0-0.8,0.3-1.4,0.7-1.8c0.3-0.3,0.8-0.5,1.2-0.6c0.2,0,0.3,0,0.4,0V34.2z
			 M33.6,36.5c0-0.6-0.3-0.9-0.8-0.9c-0.3,0-0.6,0.2-0.8,0.5c0,0.1-0.1,0.1-0.1,0.2c0,0.6,0.3,1.1,0.9,1.1
			C33.3,37.4,33.6,37,33.6,36.5z"/>
	</g>
	<path class="st1" d="M32.8,35.6"/>
</g>
<g id="Stroke4" class="st0">
	<g class="st1">
		<path d="M10.9,5.8h78.1V28H10.9V5.8z M17.2,11.2v11.3h17.3V11.2H17.2z M40.4,11.2v11.3h17.9V11.2H40.4z M64.3,11.2v11.3h18.3V11.2
			H64.3z"/>
	</g>
	<g class="st1">
		<path d="M12.6,32.8c-0.5,0-1.1,0-1.6,0l0-1.5c3.7,0,7.6,0,11,0l3.7,0l0,1.5l-3.7,0C19,32.8,15.7,32.8,12.6,32.8z"/>
		<g>
			<path d="M30.1,32.1c-2.1,0.8-4.8,2.1-6.4,3.5l1.3-3.6l-1.3-3.6C25.4,29.9,28,31.3,30.1,32.1z"/>
		</g>
	</g>
	<g class="st1">
		<path d="M13.5,34.9h-1.5l-0.1,1c0.1,0,0.2,0,0.3,0c0.3,0,0.6,0.1,0.8,0.2c0.3,0.2,0.6,0.5,0.6,1c0,0.8-0.6,1.3-1.5,1.3
			c-0.4,0-0.8-0.1-1-0.2l0.1-0.4c0.2,0.1,0.5,0.2,0.8,0.2c0.5,0,0.9-0.3,0.9-0.8c0-0.5-0.3-0.9-1.1-0.9c-0.2,0-0.4,0-0.5,0l0.3-1.9
			h1.9V34.9z"/>
	</g>
</g>
<g id="Stroke3" class="st0">
	<g class="st1">
		<path d="M34.5,22.5V11.2H17.2V28h-6.3V5.8h78.1V28h-6.5v-5.5 M40.4,11.2v11.3h17.9V11.2H40.4z M64.3,11.2v11.3h18.3V11.2H64.3z"/>
	</g>
	<g class="st1">
		<path d="M68.7,12c0,0.6,0,10.6,0,10.6"/>
		<g>
			<rect x="68" y="12" width="1.5" height="6.1"/>
			<g>
				<path d="M68.7,22.5c-0.8-2.1-2.1-4.8-3.6-6.4l3.6,1.3l3.6-1.3C70.9,17.8,69.5,20.4,68.7,22.5z"/>
			</g>
		</g>
	</g>
	<g class="st1">
		<path d="M74.7,15.8v-1.1h-1.8v-0.3l1.7-2.5h0.6v2.4h0.5v0.4h-0.5v1.1H74.7z M74.7,14.3V13c0-0.2,0-0.4,0-0.6h0
			c-0.1,0.2-0.2,0.4-0.3,0.6l-1,1.3v0H74.7z"/>
	</g>
</g>
<g id="Stroke2" class="st0">
	<g class="st1">
		<path d="M17.2,22.5V28c0,0-4.6,0-6.3,0V5.8h78.1V28h-6.5V11.2H64.3H40.4v11.3 M17.2,11.2v11.3h17.3V11.2H17.2z"/>
	</g>
	<g class="st1">
		<path d="M44.5,12.2c0,0.7,0,8.4,0,8.4"/>
		<g>
			<rect x="43.7" y="12.2" width="1.5" height="3.9"/>
			<g>
				<path d="M44.5,20.5c-0.8-2.1-2.1-4.8-3.6-6.4l3.6,1.3l3.6-1.3C46.6,15.8,45.3,18.4,44.5,20.5z"/>
			</g>
		</g>
	</g>
	<g class="st1">
		<path d="M48.3,15.7c0.1,0.1,0.5,0.2,0.9,0.2c0.7,0,0.9-0.4,0.9-0.8c0-0.5-0.5-0.8-1-0.8h-0.3v-0.4h0.3c0.4,0,0.9-0.2,0.9-0.7
			c0-0.3-0.2-0.6-0.7-0.6c-0.3,0-0.6,0.1-0.8,0.3l-0.1-0.4c0.2-0.1,0.6-0.3,1-0.3c0.8,0,1.1,0.5,1.1,0.9c0,0.4-0.2,0.7-0.7,0.9v0
			c0.5,0.1,0.9,0.5,0.9,1c0,0.6-0.5,1.2-1.4,1.2c-0.4,0-0.8-0.1-1-0.3L48.3,15.7z"/>
	</g>
</g>
<g id="Stroke1" class="st0">
	<g class="st1">
		<path d="M82.6,22.5V11.2H17.2v11.3V28h-6.3V5.8h78.1V28h-6.5"/>
	</g>
	<g class="st1">
		<line x1="18.7" y1="15.4" x2="31.2" y2="15.4"/>
		<g>
			<rect x="18.7" y="14.7" width="7.7" height="1.5"/>
			<g>
				<path d="M31.2,15.4c-2.3,0.8-5.1,2.3-6.8,3.8l1.4-3.8l-1.4-3.8C26.1,13.2,28.9,14.6,31.2,15.4z"/>
			</g>
		</g>
	</g>
	<g class="st1">
		<path d="M19,22.1v-0.3l0.4-0.4c1-0.9,1.4-1.5,1.5-2c0-0.4-0.2-0.8-0.8-0.8c-0.4,0-0.6,0.2-0.8,0.3l-0.2-0.4
			c0.3-0.2,0.7-0.4,1.1-0.4c0.8,0,1.2,0.6,1.2,1.1c0,0.7-0.5,1.3-1.3,2.1l-0.3,0.3v0h1.8v0.4H19z"/>
	</g>
</g>
<g id="Stroke0" class="st0">
	<g class="st1">
		<path d="M17.2,5.8v5.4v11.3V28h-6.3V5.8"/>
	</g>
	<g class="st1">
		<rect x="20.9" y="5.8" width="1.5" height="7.4"/>
		<g>
			<path d="M21.7,17.7c-0.8-2.1-2.1-4.8-3.6-6.4l3.6,1.3l3.6-1.3C23.8,13,22.5,15.6,21.7,17.7z"/>
		</g>
	</g>
	<g class="st1">
		<path d="M25.3,6L25.3,6l-0.7,0.4L24.6,6l0.9-0.5h0.4v3.9h-0.5V6z"/>
	</g>
</g>
<g id="Kanji" class="st0">
	<g class="st1">
		<path d="M41.7,82.7c-0.5,0.6-1.4,0.7-2.2,0.5c-8,4.2-20.4,8.4-30.5,11c-1-1.4-3.2-3.7-4.6-4.9C14.5,87.1,27,83.2,34.5,79
			L41.7,82.7z M10.9,5.8h78.1V28H10.9V5.8z M17.2,11.2v11.3h17.3V11.2H17.2z M17.4,34.1h65.7v43.3H17.4V34.1z M23.9,38.9v8h52.5v-8
			H23.9z M23.9,51.7v8.1h52.5v-8.1H23.9z M23.9,64.5v8.1h52.5v-8.1H23.9z M40.4,11.2v11.3h17.9V11.2H40.4z M88.6,94.2
			c-6.8-3.3-18.3-7.7-29.9-11.3l5.3-3.7c11.5,3.4,23.9,7.8,31.6,11.2L88.6,94.2z M64.3,11.2v11.3h18.3V11.2H64.3z"/>
	</g>
</g>
</svg>
