<?xml version="1.0" encoding="utf-8"?>
<!-- Generator: Adobe Illustrator 26.2.1, SVG Export Plug-In . SVG Version: 6.00 Build 0)  -->
<svg version="1.1" xmlns="http://www.w3.org/2000/svg" xmlns:xlink="http://www.w3.org/1999/xlink" x="0px" y="0px"
	 viewBox="0 0 100 100" style="enable-background:new 0 0 100 100;" xml:space="preserve" width = "100px" height = "100px">
<style type="text/css">
	.st0{display:none;}
	.st1{display:inline;}
</style>

		<path d="M41.7,82.7c-0.5,0.6-1.4,0.7-2.2,0.5c-8,4.2-20.4,8.4-30.5,11c-1-1.4-3.2-3.7-4.6-4.9C14.5,87.1,27,83.2,34.5,79
			L41.7,82.7z M10.9,5.8h78.1V28H10.9V5.8z M17.2,11.2v11.3h17.3V11.2H17.2z M17.4,34.1h65.7v43.3H17.4V34.1z M23.9,38.9v8h52.5v-8
			H23.9z M23.9,51.7v8.1h52.5v-8.1H23.9z M23.9,64.5v8.1h52.5v-8.1H23.9z M40.4,11.2v11.3h17.9V11.2H40.4z M64.3,11.2v11.3h18.3
			V11.2H64.3z"/>


		<path d="M36,90.6l-0.7-1.3c6.9-3.4,7.9-4,8-4.1l0.9,1.2C44.2,86.5,43.6,86.9,36,90.6z"/>

			<path d="M31.6,91.9c1.6-1.6,3.3-4,4.2-6l0.4,3.8l2.7,2.6C36.9,91.7,33.9,91.7,31.6,91.9z"/>

		<path d="M46.2,84.4L46.2,84.4l-0.7,0.4l-0.1-0.4l0.9-0.5h0.4v3.9h-0.5V84.4z"/>
		<path d="M49.3,84.4L49.3,84.4l-0.7,0.4l-0.1-0.4l0.9-0.5h0.4v3.9h-0.5V84.4z"/>


 </svg>