<?xml version="1.0" encoding="utf-8"?>
<!-- Generator: Adobe Illustrator 26.2.1, SVG Export Plug-In . SVG Version: 6.00 Build 0)  -->
<svg version="1.1" xmlns="http://www.w3.org/2000/svg" xmlns:xlink="http://www.w3.org/1999/xlink" x="0px" y="0px"
	 viewBox="0 0 100 100" style="enable-background:new 0 0 100 100;" xml:space="preserve" width = "100px" height = "100px">
<style type="text/css">
	.st0{display:none;}
	.st1{display:inline;}
</style>


		<path d="M10.9,5.8h78.1V28H10.9V5.8z M17.2,11.2v11.3h17.3V11.2H17.2z M23.9,77.5h-6.5V34.1h6.5v4.8v8v17.5v8.1 M40.4,11.2v11.3
			h17.9V11.2H40.4z M64.3,11.2v11.3h18.3V11.2H64.3z"/>


		<rect x="28" y="34.1" width="1.5" height="7.8"/>

			<path d="M28.7,46.5c-0.8-2.1-2.1-4.8-3.6-6.4l3.6,1.3l3.6-1.3C30.8,41.7,29.5,44.4,28.7,46.5z"/>


		<path d="M33.8,34.2c-0.1,0-0.2,0-0.4,0c-0.8,0.1-1.3,0.7-1.4,1.4h0c0.2-0.2,0.5-0.4,0.9-0.4c0.7,0,1.2,0.5,1.2,1.3
			c0,0.7-0.5,1.4-1.3,1.4c-0.8,0-1.4-0.6-1.4-1.7c0-0.8,0.3-1.4,0.7-1.8c0.3-0.3,0.8-0.5,1.2-0.6c0.2,0,0.3,0,0.4,0V34.2z
			 M33.6,36.5c0-0.6-0.3-0.9-0.8-0.9c-0.3,0-0.6,0.2-0.8,0.5c0,0.1-0.1,0.1-0.1,0.2c0,0.6,0.3,1.1,0.9,1.1
			C33.3,37.4,33.6,37,33.6,36.5z"/>

	<path class="st1" d="M32.8,35.6"/>


 </svg>