<?xml version="1.0" encoding="utf-8"?>
<!-- Generator: Adobe Illustrator 26.2.1, SVG Export Plug-In . SVG Version: 6.00 Build 0)  -->
<svg version="1.1" xmlns="http://www.w3.org/2000/svg" xmlns:xlink="http://www.w3.org/1999/xlink" x="0px" y="0px"
	 viewBox="0 0 100 100" style="enable-background:new 0 0 100 100;" xml:space="preserve" width = "100px" height = "100px">
<style type="text/css">
	.st0{display:none;}
	.st1{display:inline;}
</style>


		<path d="M10.9,5.8h78.1V28H10.9V5.8z M17.2,11.2v11.3h17.3V11.2H17.2z M76.5,51.7H23.9v25.8h-6.5V34.1h65.7l-0.6,43.3h-6.1
			 M23.9,38.9v8h52.5v-8H23.9z M40.4,11.2v11.3h17.9V11.2H40.4z M64.3,11.2v11.3h18.3V11.2H64.3z"/>

		<line x1="25.3" y1="55.8" x2="37.8" y2="55.8"/>
	
		<rect x="25.3" y="55.1" width="8" height="1.5"/>

		<path d="M37.8,55.8c-2.1,0.8-4.8,2.1-6.4,3.6l1.3-3.6l-1.3-3.6C33.1,53.7,35.7,55,37.8,55.8z"/>

		<path d="M25.6,61c0-0.5,0.3-0.8,0.8-1l0,0c-0.4-0.2-0.6-0.5-0.6-0.9c0-0.6,0.5-1,1.2-1c0.8,0,1.1,0.5,1.1,1c0,0.3-0.2,0.7-0.6,0.9
			v0c0.5,0.2,0.8,0.5,0.8,1c0,0.7-0.6,1.1-1.3,1.1C26,62.1,25.6,61.6,25.6,61z M27.7,61c0-0.5-0.3-0.7-0.9-0.9
			c-0.5,0.1-0.7,0.4-0.7,0.8c0,0.4,0.3,0.7,0.8,0.7C27.3,61.7,27.7,61.4,27.7,61z M26.2,59.1c0,0.4,0.3,0.6,0.7,0.7
			c0.3-0.1,0.6-0.4,0.6-0.7c0-0.3-0.2-0.6-0.7-0.6C26.4,58.4,26.2,58.7,26.2,59.1z"/>


 </svg>