<?xml version="1.0" encoding="utf-8"?>
<!-- Generator: Adobe Illustrator 26.2.1, SVG Export Plug-In . SVG Version: 6.00 Build 0)  -->
<svg version="1.1" xmlns="http://www.w3.org/2000/svg" xmlns:xlink="http://www.w3.org/1999/xlink" x="0px" y="0px"
	 viewBox="0 0 100 100" style="enable-background:new 0 0 100 100;" xml:space="preserve" width = "100px" height = "100px">
<style type="text/css">
	.st0{display:none;}
	.st1{display:inline;}
</style> 

		<path d="M10.9,5.8h78.1V28H10.9V5.8z M17.2,11.2v11.3h17.3V11.2H17.2z M17.4,34.1h65.7v43.3H17.4V34.1z M23.9,38.9v8h52.5v-8H23.9
			z M23.9,51.7v8.1h52.5v-8.1H23.9z M23.9,64.5v8.1h52.5v-8.1H23.9z M40.4,11.2v11.3h17.9V11.2H40.4z M64.3,11.2v11.3h18.3V11.2
			H64.3z"/>

		<path d="M17.2,81.5c1.2,0,18.1,0,18.1,0"/>

			<path d="M22.5,82.3c-2.7,0-4.9,0-5.3,0l0.1-1.5c0.8,0,9.7,0,13.5,0l0,1.5C28.4,82.3,25.2,82.3,22.5,82.3z"/>

				<path d="M35.3,81.5c-2.1,0.8-4.8,2.1-6.4,3.6l1.3-3.6L28.9,78C30.6,79.4,33.2,80.7,35.3,81.5z"/>

		<path d="M18,84.5L18,84.5l-0.7,0.4l-0.1-0.4l0.9-0.5h0.5v3.9H18V84.5z"/>
		<path d="M22.6,85.9c0,1.3-0.5,2.1-1.4,2.1c-0.8,0-1.3-0.7-1.3-2c0-1.3,0.6-2,1.4-2C22.1,83.9,22.6,84.7,22.6,85.9z M20.4,86
			c0,1,0.3,1.6,0.8,1.6c0.5,0,0.8-0.6,0.8-1.6c0-1-0.2-1.6-0.8-1.6C20.8,84.4,20.4,84.9,20.4,86z"/>


</svg>