<?xml version="1.0" encoding="utf-8"?>
<!-- Generator: Adobe Illustrator 26.2.1, SVG Export Plug-In . SVG Version: 6.00 Build 0)  -->
<svg version="1.1" xmlns="http://www.w3.org/2000/svg" xmlns:xlink="http://www.w3.org/1999/xlink" x="0px" y="0px"
	 viewBox="0 0 100 100" style="enable-background:new 0 0 100 100;" xml:space="preserve" width = "100px" height = "100px">
<style type="text/css">
	.st0{display:none;}
	.st1{display:inline;}
</style> 


		<path d="M17.2,22.5V28c0,0-4.6,0-6.3,0V5.8h78.1V28h-6.5V11.2H64.3H40.4v11.3 M17.2,11.2v11.3h17.3V11.2H17.2z"/>

		<path d="M44.5,12.2c0,0.7,0,8.4,0,8.4"/>

		<rect x="43.7" y="12.2" width="1.5" height="3.9"/>

		<path d="M44.5,20.5c-0.8-2.1-2.1-4.8-3.6-6.4l3.6,1.3l3.6-1.3C46.6,15.8,45.3,18.4,44.5,20.5z"/>
	

		<path d="M48.3,15.7c0.1,0.1,0.5,0.2,0.9,0.2c0.7,0,0.9-0.4,0.9-0.8c0-0.5-0.5-0.8-1-0.8h-0.3v-0.4h0.3c0.4,0,0.9-0.2,0.9-0.7
			c0-0.3-0.2-0.6-0.7-0.6c-0.3,0-0.6,0.1-0.8,0.3l-0.1-0.4c0.2-0.1,0.6-0.3,1-0.3c0.8,0,1.1,0.5,1.1,0.9c0,0.4-0.2,0.7-0.7,0.9v0
			c0.5,0.1,0.9,0.5,0.9,1c0,0.6-0.5,1.2-1.4,1.2c-0.4,0-0.8-0.1-1-0.3L48.3,15.7z"/>



</svg>