<?xml version="1.0" encoding="utf-8"?>
<!-- Generator: Adobe Illustrator 26.2.1, SVG Export Plug-In . SVG Version: 6.00 Build 0)  -->
<svg version="1.1" xmlns="http://www.w3.org/2000/svg" xmlns:xlink="http://www.w3.org/1999/xlink" x="0px" y="0px"
	 viewBox="0 0 100 100" style="enable-background:new 0 0 100 100;" xml:space="preserve" width = "100px" height = "100px">
<style type="text/css">
	.st0{display:none;}
	.st1{display:inline;}
</style> 


		<path d="M82.6,22.5V11.2H17.2v11.3V28h-6.3V5.8h78.1V28h-6.5"/>


		<line x1="18.7" y1="15.4" x2="31.2" y2="15.4"/>

			<rect x="18.7" y="14.7" width="7.7" height="1.5"/>
	
				<path d="M31.2,15.4c-2.3,0.8-5.1,2.3-6.8,3.8l1.4-3.8l-1.4-3.8C26.1,13.2,28.9,14.6,31.2,15.4z"/>

		<path d="M19,22.1v-0.3l0.4-0.4c1-0.9,1.4-1.5,1.5-2c0-0.4-0.2-0.8-0.8-0.8c-0.4,0-0.6,0.2-0.8,0.3l-0.2-0.4
			c0.3-0.2,0.7-0.4,1.1-0.4c0.8,0,1.2,0.6,1.2,1.1c0,0.7-0.5,1.3-1.3,2.1l-0.3,0.3v0h1.8v0.4H19z"/>


</svg>