<?xml version="1.0" encoding="utf-8"?>
<!-- Generator: Adobe Illustrator 26.2.1, SVG Export Plug-In . SVG Version: 6.00 Build 0)  -->
<svg version="1.1" xmlns="http://www.w3.org/2000/svg" xmlns:xlink="http://www.w3.org/1999/xlink" x="0px" y="0px"
	 viewBox="0 0 100 100" style="enable-background:new 0 0 100 100;" xml:space="preserve">
<style type="text/css">
	.st0{display:none;}
	.st1{display:inline;}
</style>
<g id="Stroke4">
	<g>
		<path d="M63.7,88.5h32.7v6.6H23.6v-6.6h33.2V56.7H33.7v-4.9C27.9,66.9,19.9,80.9,8.5,91.7c-1.1-1.6-3.4-4-4.9-5.3
			C18.8,72.5,27.8,51.6,33.3,30H7.7v-6.6h27.2c1.4-6.2,2.5-12.4,3.5-18.5l9.2,1.6c-0.2,0.9-1,1.3-2.4,1.3
			c-0.9,5.1-1.9,10.3-3.1,15.6h52.7V30H40.5c-1.7,6.8-3.7,13.5-6.2,20.1h56.7v6.5H63.7V88.5z"/>
	</g>
	<g>
		<line x1="24.1" y1="84.4" x2="43.2" y2="84.4"/>
		<g>
			<rect x="24.1" y="83.7" width="14.5" height="1.5"/>
			<g>
				<path d="M43.2,84.4c-2.1,0.8-4.8,2.1-6.4,3.6l1.3-3.6l-1.3-3.6C38.4,82.3,41.1,83.6,43.2,84.4z"/>
			</g>
		</g>
	</g>
	<g>
		<path d="M27.2,78.4h-1.5l-0.1,1c0.1,0,0.2,0,0.3,0c0.3,0,0.6,0.1,0.8,0.2c0.3,0.2,0.6,0.5,0.6,1c0,0.8-0.6,1.3-1.5,1.3
			c-0.4,0-0.8-0.1-1-0.2l0.1-0.4c0.2,0.1,0.5,0.2,0.8,0.2c0.5,0,0.9-0.3,0.9-0.8c0-0.5-0.3-0.9-1.1-0.9c-0.2,0-0.4,0-0.5,0l0.3-1.9
			h1.9V78.4z"/>
	</g>
</g>
<g id="Stroke3" class="st0">
	<g class="st1">
		<path d="M56.9,88.5V56.7H33.7v-4.9C27.9,66.9,19.9,80.9,8.5,91.7c-1.1-1.6-3.4-4-4.9-5.3C18.8,72.5,27.8,51.6,33.3,30H7.7v-6.6
			h27.2c1.4-6.2,2.5-12.4,3.5-18.5l9.2,1.6c-0.2,0.9-1,1.3-2.4,1.3c-0.9,5.1-1.9,10.3-3.1,15.6h52.7V30H40.5
			c-1.7,6.8-3.7,13.5-6.2,20.1h56.7v6.5H63.7v31.8"/>
	</g>
	<g class="st1">
		<line x1="67.8" y1="58.9" x2="67.8" y2="74.6"/>
		<g>
			<rect x="67.1" y="58.9" width="1.5" height="11.2"/>
			<g>
				<path d="M67.8,74.6c-0.8-2.1-2.1-4.8-3.6-6.4l3.6,1.3l3.6-1.3C70,69.8,68.6,72.5,67.8,74.6z"/>
			</g>
		</g>
	</g>
	<g class="st1">
		<path d="M72,63.3v-1.1h-1.8v-0.3l1.7-2.5h0.6v2.4H73v0.4h-0.5v1.1H72z M72,61.8v-1.3c0-0.2,0-0.4,0-0.6h0
			c-0.1,0.2-0.2,0.4-0.3,0.6l-1,1.3v0H72z"/>
	</g>
</g>
<g id="Stroke2" class="st0">
	<g class="st1">
		<path d="M56.9,56.7H33.7v-4.9C27.9,66.9,19.9,80.9,8.5,91.7c-1.1-1.6-3.4-4-4.9-5.3C18.8,72.5,27.8,51.6,33.3,30H7.7v-6.6h27.2
			c1.4-6.2,2.5-12.4,3.5-18.5l9.2,1.6c-0.2,0.9-1,1.3-2.4,1.3c-0.9,5.1-1.9,10.3-3.1,15.6h52.7V30H40.5c-1.7,6.8-3.7,13.5-6.2,20.1
			h56.7v6.5H63.7"/>
	</g>
	<g class="st1">
		<line x1="35.2" y1="60.8" x2="52.2" y2="60.8"/>
		<g>
			<rect x="35.2" y="60.1" width="12.4" height="1.5"/>
			<g>
				<path d="M52.2,60.8c-2.1,0.8-4.8,2.1-6.4,3.6l1.3-3.6l-1.3-3.6C47.4,58.7,50,60,52.2,60.8z"/>
			</g>
		</g>
	</g>
	<g class="st1">
		<path d="M35.6,66.9c0.1,0.1,0.5,0.2,0.9,0.2c0.7,0,0.9-0.4,0.9-0.8c0-0.5-0.5-0.8-1-0.8h-0.3v-0.4h0.3c0.4,0,0.9-0.2,0.9-0.7
			c0-0.3-0.2-0.6-0.7-0.6c-0.3,0-0.6,0.1-0.8,0.3l-0.1-0.4c0.2-0.1,0.6-0.3,1-0.3c0.8,0,1.1,0.5,1.1,0.9c0,0.4-0.2,0.7-0.7,0.9v0
			c0.5,0.1,0.9,0.5,0.9,1c0,0.6-0.5,1.2-1.4,1.2c-0.4,0-0.8-0.1-1-0.3L35.6,66.9z"/>
	</g>
</g>
<g id="Stroke1" class="st0">
	<g class="st1">
		<path d="M33.7,51.7C27.9,66.9,19.9,80.9,8.5,91.7c-1.1-1.6-3.4-4-4.9-5.3C18.8,72.5,27.8,51.6,33.3,30H7.7v-6.6h27.2
			c1.4-6.2,2.5-12.4,3.5-18.5l9.2,1.6c-0.2,0.9-1,1.3-2.4,1.3c-0.9,5.1-1.9,10.3-3.1,15.6h52.7V30H40.5c-1.7,6.8-3.7,13.5-6.2,20.1"
			/>
	</g>
	<g class="st1">
		<path d="M51.9,7.3c-0.7,1.8-1.4,3.6-2.1,5.5c-1,2.5-2,5-3,7.4"/>
		<g>
			<path d="M49.2,16.3l-1.4-0.6c0.4-1.1,0.9-2.1,1.3-3.2c0.7-1.8,1.4-3.7,2.1-5.5l1.4,0.5c-0.7,1.8-1.4,3.6-2.1,5.5
				C50.1,14.1,49.7,15.2,49.2,16.3z"/>
			<g>
				<path d="M46.8,20.2c0.1-2.3-0.2-5.2-0.9-7.3l2.8,2.5l3.8,0.1C50.6,16.6,48.4,18.5,46.8,20.2z"/>
			</g>
		</g>
	</g>
	<g class="st1">
		<path d="M54.7,11.4v-0.3l0.4-0.4c1-0.9,1.4-1.5,1.5-2c0-0.4-0.2-0.8-0.8-0.8c-0.4,0-0.6,0.2-0.8,0.3l-0.2-0.4
			c0.3-0.2,0.7-0.4,1.1-0.4c0.8,0,1.2,0.6,1.2,1.1c0,0.7-0.5,1.3-1.3,2.1L55.4,11v0h1.8v0.4H54.7z"/>
	</g>
</g>
<g id="Stroke0" class="st0">
	<g class="st1">
		<path d="M33.3,30H7.7v-6.6h27.2h7.2h52.7V30H40.5"/>
	</g>
	<g class="st1">
		<line x1="8.7" y1="34.3" x2="23.3" y2="34.3"/>
		<g>
			<rect x="8.7" y="33.5" width="10" height="1.5"/>
			<g>
				<path d="M23.3,34.3c-2.1,0.8-4.8,2.1-6.4,3.6l1.3-3.6l-1.3-3.6C18.5,32.1,21.1,33.5,23.3,34.3z"/>
			</g>
		</g>
	</g>
	<g class="st1">
		<path d="M10.2,38L10.2,38l-0.7,0.4l-0.1-0.4l0.9-0.5h0.4v3.9h-0.5V38z"/>
	</g>
</g>
<g id="Kanji" class="st0">
	<g class="st1">
		<path d="M63.7,88.5h32.7v6.6H23.6v-6.6h33.2V56.7H33.7v-4.9C27.9,66.9,19.9,80.9,8.5,91.7c-1.1-1.6-3.4-4-4.9-5.3
			C18.8,72.5,27.8,51.6,33.3,30H7.7v-6.6h27.2c1.4-6.2,2.5-12.4,3.5-18.5l9.2,1.6c-0.2,0.9-1,1.3-2.4,1.3
			c-0.9,5.1-1.9,10.3-3.1,15.6h52.7V30H40.5c-1.7,6.8-3.7,13.5-6.2,20.1h56.7v6.5H63.7V88.5z"/>
	</g>
</g>
</svg>
