<?xml version="1.0" encoding="utf-8"?>
<!-- Generator: Adobe Illustrator 26.2.1, SVG Export Plug-In . SVG Version: 6.00 Build 0)  -->
<svg version="1.1" xmlns="http://www.w3.org/2000/svg" xmlns:xlink="http://www.w3.org/1999/xlink" x="0px" y="0px"
	 viewBox="0 0 100 100" style="enable-background:new 0 0 100 100;" xml:space="preserve" width = "100px" height = "100px">
<style type="text/css">
	.st0{display:none;}
	.st1{display:inline;}
</style> 


		<path d="M56.9,88.5V56.7H33.7v-4.9C27.9,66.9,19.9,80.9,8.5,91.7c-1.1-1.6-3.4-4-4.9-5.3C18.8,72.5,27.8,51.6,33.3,30H7.7v-6.6
			h27.2c1.4-6.2,2.5-12.4,3.5-18.5l9.2,1.6c-0.2,0.9-1,1.3-2.4,1.3c-0.9,5.1-1.9,10.3-3.1,15.6h52.7V30H40.5
			c-1.7,6.8-3.7,13.5-6.2,20.1h56.7v6.5H63.7v31.8"/>

		<line x1="67.8" y1="58.9" x2="67.8" y2="74.6"/>
	
			<rect x="67.1" y="58.9" width="1.5" height="11.2"/>
		
				<path d="M67.8,74.6c-0.8-2.1-2.1-4.8-3.6-6.4l3.6,1.3l3.6-1.3C70,69.8,68.6,72.5,67.8,74.6z"/>
	
		<path d="M72,63.3v-1.1h-1.8v-0.3l1.7-2.5h0.6v2.4H73v0.4h-0.5v1.1H72z M72,61.8v-1.3c0-0.2,0-0.4,0-0.6h0
			c-0.1,0.2-0.2,0.4-0.3,0.6l-1,1.3v0H72z"/>



</svg>