<?xml version="1.0" encoding="utf-8"?>
<!-- Generator: Adobe Illustrator 26.2.1, SVG Export Plug-In . SVG Version: 6.00 Build 0)  -->
<svg version="1.1" xmlns="http://www.w3.org/2000/svg" xmlns:xlink="http://www.w3.org/1999/xlink" x="0px" y="0px"
	 viewBox="0 0 100 100" style="enable-background:new 0 0 100 100;" xml:space="preserve" width = "100px" height = "100px">
<style type="text/css">
	.st0{display:none;}
	.st1{display:inline;}
</style>

		<path d="M33.7,51.7C27.9,66.9,19.9,80.9,8.5,91.7c-1.1-1.6-3.4-4-4.9-5.3C18.8,72.5,27.8,51.6,33.3,30H7.7v-6.6h27.2
			c1.4-6.2,2.5-12.4,3.5-18.5l9.2,1.6c-0.2,0.9-1,1.3-2.4,1.3c-0.9,5.1-1.9,10.3-3.1,15.6h52.7V30H40.5c-1.7,6.8-3.7,13.5-6.2,20.1"
			/>


		<path d="M51.9,7.3c-0.7,1.8-1.4,3.6-2.1,5.5c-1,2.5-2,5-3,7.4"/>

			<path d="M49.2,16.3l-1.4-0.6c0.4-1.1,0.9-2.1,1.3-3.2c0.7-1.8,1.4-3.7,2.1-5.5l1.4,0.5c-0.7,1.8-1.4,3.6-2.1,5.5
				C50.1,14.1,49.7,15.2,49.2,16.3z"/>
	
				<path d="M46.8,20.2c0.1-2.3-0.2-5.2-0.9-7.3l2.8,2.5l3.8,0.1C50.6,16.6,48.4,18.5,46.8,20.2z"/>

		<path d="M54.7,11.4v-0.3l0.4-0.4c1-0.9,1.4-1.5,1.5-2c0-0.4-0.2-0.8-0.8-0.8c-0.4,0-0.6,0.2-0.8,0.3l-0.2-0.4
			c0.3-0.2,0.7-0.4,1.1-0.4c0.8,0,1.2,0.6,1.2,1.1c0,0.7-0.5,1.3-1.3,2.1L55.4,11v0h1.8v0.4H54.7z"/>



 </svg>