<?xml version="1.0" encoding="utf-8"?>
<!-- Generator: Adobe Illustrator 26.2.1, SVG Export Plug-In . SVG Version: 6.00 Build 0)  -->
<svg version="1.1" xmlns="http://www.w3.org/2000/svg" xmlns:xlink="http://www.w3.org/1999/xlink" x="0px" y="0px"
	 viewBox="0 0 100 100" style="enable-background:new 0 0 100 100;" xml:space="preserve" width = "100px" height = "100px">
<style type="text/css">
	.st0{display:none;}
	.st1{display:inline;}
</style> 


		<path d="M56.9,56.7H33.7v-4.9C27.9,66.9,19.9,80.9,8.5,91.7c-1.1-1.6-3.4-4-4.9-5.3C18.8,72.5,27.8,51.6,33.3,30H7.7v-6.6h27.2
			c1.4-6.2,2.5-12.4,3.5-18.5l9.2,1.6c-0.2,0.9-1,1.3-2.4,1.3c-0.9,5.1-1.9,10.3-3.1,15.6h52.7V30H40.5c-1.7,6.8-3.7,13.5-6.2,20.1
			h56.7v6.5H63.7"/>

		<line x1="35.2" y1="60.8" x2="52.2" y2="60.8"/>
	
			<rect x="35.2" y="60.1" width="12.4" height="1.5"/>
		
				<path d="M52.2,60.8c-2.1,0.8-4.8,2.1-6.4,3.6l1.3-3.6l-1.3-3.6C47.4,58.7,50,60,52.2,60.8z"/>

		<path d="M35.6,66.9c0.1,0.1,0.5,0.2,0.9,0.2c0.7,0,0.9-0.4,0.9-0.8c0-0.5-0.5-0.8-1-0.8h-0.3v-0.4h0.3c0.4,0,0.9-0.2,0.9-0.7
			c0-0.3-0.2-0.6-0.7-0.6c-0.3,0-0.6,0.1-0.8,0.3l-0.1-0.4c0.2-0.1,0.6-0.3,1-0.3c0.8,0,1.1,0.5,1.1,0.9c0,0.4-0.2,0.7-0.7,0.9v0
			c0.5,0.1,0.9,0.5,0.9,1c0,0.6-0.5,1.2-1.4,1.2c-0.4,0-0.8-0.1-1-0.3L35.6,66.9z"/>

</svg>