<?xml version="1.0" encoding="utf-8"?>
<!-- Generator: Adobe Illustrator 26.2.1, SVG Export Plug-In . SVG Version: 6.00 Build 0)  -->
<svg version="1.1" xmlns="http://www.w3.org/2000/svg" xmlns:xlink="http://www.w3.org/1999/xlink" x="0px" y="0px"
	 viewBox="0 0 100 100" style="enable-background:new 0 0 100 100;" xml:space="preserve">
<style type="text/css">
	.st0{display:none;}
	.st1{display:inline;}
</style>
<g id="Stroke6">
	<g>
		<path d="M44.8,24.9c-0.1,0.4-0.7,0.8-1.2,1c-3.5,8.3-8.6,16.3-14.4,23.6c4.8,3.2,14.6,10.4,17.2,12.4l-4,5.6
			c-2.8-2.8-9.2-8.1-14.1-12v41h-6.7V58c-5.1,5.1-10.4,9.6-15.7,13.1c-0.7-1.7-2.5-4.7-3.6-5.9c12.6-7.8,25.9-21.7,33.1-36.4H4.9
			v-6.2h16.7V3.5L30.3,4c-0.1,0.7-0.7,1.2-2,1.4v17.2h10.8l1.2-0.4L44.8,24.9z M73.5,86.8h24.2v6.6H40.4v-6.6h26.2V43.5H44.4V37
			h22.2V4.2l8.9,0.6c-0.1,0.7-0.7,1.2-2.1,1.4V37h22.1v6.5H73.5V86.8z"/>
	</g>
	<g>
		<path d="M40.9,83c0.3,0,15.3,0,15.3,0"/>
		<g>
			<rect x="40.9" y="82.2" width="10.8" height="1.5"/>
			<g>
				<path d="M56.2,83c-2.1,0.8-4.8,2.1-6.4,3.6l1.3-3.6l-1.3-3.6C51.4,80.8,54.1,82.2,56.2,83z"/>
			</g>
		</g>
	</g>
	<g>
		<path d="M43.7,77.1v0.3L42,81h-0.5l1.7-3.4v0h-1.9v-0.4H43.7z"/>
	</g>
</g>
<g id="Stroke5" class="st0">
	<g class="st1">
		<path d="M44.8,24.9c-0.1,0.4-0.7,0.8-1.2,1c-3.5,8.3-8.6,16.3-14.4,23.6c4.8,3.2,14.6,10.4,17.2,12.4l-4,5.6
			c-2.8-2.8-9.2-8.1-14.1-12v41h-6.7V58c-5.1,5.1-10.4,9.6-15.7,13.1c-0.7-1.7-2.5-4.7-3.6-5.9c12.6-7.8,25.9-21.7,33.1-36.4H4.9
			v-6.2h16.7V3.5L30.3,4c-0.1,0.7-0.7,1.2-2,1.4v17.2h10.8l1.2-0.4L44.8,24.9z M66.7,86.8V43.5H44.4V37h22.2V4.2l8.9,0.6
			c-0.1,0.7-0.7,1.2-2.1,1.4V37h22.1v6.5H73.5v43.3"/>
	</g>
	<g class="st1">
		<path d="M62.3,5.1c0,0,0,13.2,0,14.7"/>
		<g>
			<rect x="61.6" y="5.1" width="1.5" height="10.2"/>
			<g>
				<path d="M62.3,19.8c-0.8-2.1-2.1-4.8-3.6-6.4l3.6,1.3l3.6-1.3C64.5,15.1,63.1,17.7,62.3,19.8z"/>
			</g>
		</g>
	</g>
	<g class="st1">
		<path d="M59.2,5c-0.1,0-0.2,0-0.4,0c-0.8,0.1-1.3,0.7-1.4,1.4h0C57.7,6.2,58,6,58.4,6c0.7,0,1.2,0.5,1.2,1.3
			c0,0.7-0.5,1.4-1.3,1.4c-0.8,0-1.4-0.6-1.4-1.7c0-0.8,0.3-1.4,0.7-1.8c0.3-0.3,0.8-0.5,1.2-0.6c0.2,0,0.3,0,0.4,0V5z M59.1,7.3
			c0-0.6-0.3-0.9-0.8-0.9c-0.3,0-0.6,0.2-0.8,0.5c0,0.1-0.1,0.1-0.1,0.2c0,0.6,0.3,1.1,0.9,1.1C58.8,8.2,59.1,7.8,59.1,7.3z"/>
	</g>
</g>
<g id="Stroke4" class="st0">
	<g class="st1">
		<path d="M44.8,24.9c-0.1,0.4-0.7,0.8-1.2,1c-3.5,8.3-8.6,16.3-14.4,23.6c4.8,3.2,14.6,10.4,17.2,12.4l-4,5.6
			c-2.8-2.8-9.2-8.1-14.1-12v41h-6.7V58c-5.1,5.1-10.4,9.6-15.7,13.1c-0.7-1.7-2.5-4.7-3.6-5.9c12.6-7.8,25.9-21.7,33.1-36.4H4.9
			v-6.2h16.7V3.5L30.3,4c-0.1,0.7-0.7,1.2-2,1.4v17.2h10.8l1.2-0.4L44.8,24.9z M66.7,43.5H44.4V37h22.2h6.8h22.1v6.5H73.5"/>
	</g>
	<g class="st1">
		<path d="M44.4,47.8c0.8,0,12.8,0,12.8,0"/>
		<g>
			<rect x="44.4" y="47.1" width="8.3" height="1.5"/>
			<g>
				<path d="M57.2,47.8c-2.1,0.8-4.8,2.1-6.4,3.6l1.3-3.6l-1.3-3.6C52.5,45.7,55.1,47,57.2,47.8z"/>
			</g>
		</g>
	</g>
	<g class="st1">
		<path d="M47,51.1h-1.5l-0.1,1c0.1,0,0.2,0,0.3,0c0.3,0,0.6,0.1,0.8,0.2c0.3,0.2,0.6,0.5,0.6,1c0,0.8-0.6,1.3-1.5,1.3
			c-0.4,0-0.8-0.1-1-0.2l0.1-0.4c0.2,0.1,0.5,0.2,0.8,0.2c0.5,0,0.9-0.3,0.9-0.8c0-0.5-0.3-0.9-1.1-0.9c-0.2,0-0.4,0-0.5,0l0.3-1.9
			H47V51.1z"/>
	</g>
</g>
<g id="Stroke3" class="st0">
	<g class="st1">
		<path d="M44.8,24.9c-0.1,0.4-0.7,0.8-1.2,1c-3.5,8.3-8.6,16.3-14.4,23.6c4.8,3.2,14.6,10.4,17.2,12.4l-4,5.6
			c-2.8-2.8-9.2-8.1-14.1-12v41h-6.7V58c-5.1,5.1-10.4,9.6-15.7,13.1c-0.7-1.7-2.5-4.7-3.6-5.9c12.6-7.8,25.9-21.7,33.1-36.4H4.9
			v-6.2h16.7V3.5L30.3,4c-0.1,0.7-0.7,1.2-2,1.4v17.2h10.8l1.2-0.4L44.8,24.9z"/>
	</g>
	<g class="st1">
		<path d="M36,48.8c0.3,0.1,8.1,5.2,8.1,5.2"/>
		<g>
			<path d="M39.9,52.2c-3.5-2.3-4.1-2.6-4.2-2.7l0.5-1.4c0.1,0,0.3,0.1,4.5,2.8L39.9,52.2z"/>
			<g>
				<path d="M44.1,54c-2.2-0.5-5.2-0.8-7.3-0.5l3-2.3l0.9-3.7C41.2,49.6,42.7,52.2,44.1,54z"/>
			</g>
		</g>
	</g>
	<g class="st1">
		<path d="M33.7,50v-1.1h-1.8v-0.3l1.7-2.5h0.6v2.4h0.5v0.4h-0.5V50H33.7z M33.7,48.5v-1.3c0-0.2,0-0.4,0-0.6h0
			c-0.1,0.2-0.2,0.4-0.3,0.6l-1,1.3v0H33.7z"/>
	</g>
</g>
<g id="Stroke2" class="st0">
	<g class="st1">
		<path d="M28.1,50.9l0.3,45.6h-6.7V58c-5.1,5.1-10.4,9.6-15.7,13.1c-0.7-1.7-2.5-4.7-3.6-5.9c12.6-7.8,25.9-21.7,33.1-36.4H4.9
			v-6.2h16.7V3.5L30.3,4c-0.1,0.7-0.7,1.2-2,1.4v17.2h10.8l1.2-0.4l4.5,2.7c-0.1,0.4-0.7,0.8-1.2,1c-3.5,8.3-8.6,16.3-14.4,23.6"/>
	</g>
	<g class="st1">
		<line x1="32.2" y1="56" x2="32.2" y2="69.2"/>
		<g>
			<rect x="31.5" y="56" width="1.5" height="8.7"/>
			<g>
				<path d="M32.2,69.2c-0.8-2.1-2.1-4.8-3.6-6.4l3.6,1.3l3.6-1.3C34.4,64.4,33,67.1,32.2,69.2z"/>
			</g>
		</g>
	</g>
	<g class="st1">
		<path d="M34.7,59.1c0.1,0.1,0.5,0.2,0.9,0.2c0.7,0,0.9-0.4,0.9-0.8c0-0.5-0.5-0.8-1-0.8h-0.3v-0.4h0.3c0.4,0,0.9-0.2,0.9-0.7
			c0-0.3-0.2-0.6-0.7-0.6c-0.3,0-0.6,0.1-0.8,0.3L34.7,56c0.2-0.1,0.6-0.3,1-0.3c0.8,0,1.1,0.5,1.1,0.9c0,0.4-0.2,0.7-0.7,0.9v0
			c0.5,0.1,0.9,0.5,0.9,1c0,0.6-0.5,1.2-1.4,1.2c-0.4,0-0.8-0.1-1-0.3L34.7,59.1z"/>
	</g>
</g>
<g id="Stroke1" class="st0">
	<g class="st1">
		<path d="M21.6,58c-5.1,5.1-10.4,9.6-15.7,13.1c-0.7-1.7-2.5-4.7-3.6-5.9c12.6-7.8,25.9-21.7,33.1-36.4H4.9v-6.2h16.7V3.5L30.3,4
			c-0.1,0.7-0.7,1.2-2,1.4v17.2h10.8l1.2-0.4l4.5,2.7c-0.1,0.4-0.7,0.8-1.2,1c-3.5,8.3-8.6,16.3-14.4,23.6 M28.3,55.5"/>
	</g>
	<g class="st1">
		<path d="M26.2,38l-1.3-0.8l2.5-4.1c0.2-0.4,0.1-0.8,0-0.9c-0.2-0.3-0.6-0.7-1.2-0.7H5.4V30h20.8c1.1,0,2.1,0.5,2.5,1.4
			c0.4,0.8,0.4,1.7-0.1,2.4L26.2,38z"/>
		<g>
			<path d="M23.2,41.5c0.4-2.2,0.7-5.2,0.3-7.3l2.4,3l3.7,0.8C27.5,38.5,25,40.1,23.2,41.5z"/>
		</g>
	</g>
	<g class="st1">
		<path d="M5.7,37.3V37l0.4-0.4c1-0.9,1.4-1.5,1.5-2c0-0.4-0.2-0.8-0.8-0.8c-0.4,0-0.6,0.2-0.8,0.3l-0.2-0.4
			c0.3-0.2,0.7-0.4,1.1-0.4c0.8,0,1.2,0.6,1.2,1.1c0,0.7-0.5,1.3-1.3,2.1l-0.3,0.3v0h1.8v0.4H5.7z"/>
	</g>
</g>
<g id="Stroke0" class="st0">
	<g class="st1">
		<path d="M21.6,22.6V3.5L30.3,4c-0.1,0.7-0.7,1.2-2,1.4v17.2"/>
	</g>
	<g class="st1">
		<path d="M32.3,3.9c0,0.5,0,11.2,0,11.2"/>
		<g>
			<rect x="31.6" y="3.9" width="1.5" height="6.6"/>
			<g>
				<path d="M32.3,15.1c-0.8-2.1-2.1-4.8-3.6-6.4l3.6,1.3l3.6-1.3C34.5,10.3,33.1,13,32.3,15.1z"/>
			</g>
		</g>
	</g>
	<g class="st1">
		<path d="M36.5,4.4L36.5,4.4l-0.7,0.4l-0.1-0.4l0.9-0.5H37v3.9h-0.5V4.4z"/>
	</g>
</g>
<g id="Kanji" class="st0">
	<g class="st1">
		<path d="M44.8,24.9c-0.1,0.4-0.7,0.8-1.2,1c-3.5,8.3-8.6,16.3-14.4,23.6c4.8,3.2,14.6,10.4,17.2,12.4l-4,5.6
			c-2.8-2.8-9.2-8.1-14.1-12v41h-6.7V58c-5.1,5.1-10.4,9.6-15.7,13.1c-0.7-1.7-2.5-4.7-3.6-5.9c12.6-7.8,25.9-21.7,33.1-36.4H4.9
			v-6.2h16.7V3.5L30.3,4c-0.1,0.7-0.7,1.2-2,1.4v17.2h10.8l1.2-0.4L44.8,24.9z M73.5,86.8h24.2v6.6H40.4v-6.6h26.2V43.5H44.4V37
			h22.2V4.2l8.9,0.6c-0.1,0.7-0.7,1.2-2.1,1.4V37h22.1v6.5H73.5V86.8z"/>
	</g>
</g>
</svg>
