<?xml version="1.0" encoding="utf-8"?>
<!-- Generator: Adobe Illustrator 26.2.1, SVG Export Plug-In . SVG Version: 6.00 Build 0)  -->
<svg version="1.1" xmlns="http://www.w3.org/2000/svg" xmlns:xlink="http://www.w3.org/1999/xlink" x="0px" y="0px"
	 viewBox="0 0 100 100" style="enable-background:new 0 0 100 100;" xml:space="preserve" width = "100px" height = "100px">
<style type="text/css">
	.st0{display:none;}
	.st1{display:inline;}
</style> 

		<path d="M44.8,24.9c-0.1,0.4-0.7,0.8-1.2,1c-3.5,8.3-8.6,16.3-14.4,23.6c4.8,3.2,14.6,10.4,17.2,12.4l-4,5.6
			c-2.8-2.8-9.2-8.1-14.1-12v41h-6.7V58c-5.1,5.1-10.4,9.6-15.7,13.1c-0.7-1.7-2.5-4.7-3.6-5.9c12.6-7.8,25.9-21.7,33.1-36.4H4.9
			v-6.2h16.7V3.5L30.3,4c-0.1,0.7-0.7,1.2-2,1.4v17.2h10.8l1.2-0.4L44.8,24.9z"/>


		<path d="M36,48.8c0.3,0.1,8.1,5.2,8.1,5.2"/>

			<path d="M39.9,52.2c-3.5-2.3-4.1-2.6-4.2-2.7l0.5-1.4c0.1,0,0.3,0.1,4.5,2.8L39.9,52.2z"/>
	
		<path d="M44.1,54c-2.2-0.5-5.2-0.8-7.3-0.5l3-2.3l0.9-3.7C41.2,49.6,42.7,52.2,44.1,54z"/>

		<path d="M33.7,50v-1.1h-1.8v-0.3l1.7-2.5h0.6v2.4h0.5v0.4h-0.5V50H33.7z M33.7,48.5v-1.3c0-0.2,0-0.4,0-0.6h0
			c-0.1,0.2-0.2,0.4-0.3,0.6l-1,1.3v0H33.7z"/>


</svg>