<?xml version="1.0" encoding="utf-8"?>
<!-- Generator: Adobe Illustrator 26.2.1, SVG Export Plug-In . SVG Version: 6.00 Build 0)  -->
<svg version="1.1" xmlns="http://www.w3.org/2000/svg" xmlns:xlink="http://www.w3.org/1999/xlink" x="0px" y="0px"
	 viewBox="0 0 100 100" style="enable-background:new 0 0 100 100;" xml:space="preserve" width = "100px" height = "100px">
<style type="text/css">
	.st0{display:none;}
	.st1{display:inline;}
</style> 


		<path d="M21.6,58c-5.1,5.1-10.4,9.6-15.7,13.1c-0.7-1.7-2.5-4.7-3.6-5.9c12.6-7.8,25.9-21.7,33.1-36.4H4.9v-6.2h16.7V3.5L30.3,4
			c-0.1,0.7-0.7,1.2-2,1.4v17.2h10.8l1.2-0.4l4.5,2.7c-0.1,0.4-0.7,0.8-1.2,1c-3.5,8.3-8.6,16.3-14.4,23.6 M28.3,55.5"/>

		<path d="M26.2,38l-1.3-0.8l2.5-4.1c0.2-0.4,0.1-0.8,0-0.9c-0.2-0.3-0.6-0.7-1.2-0.7H5.4V30h20.8c1.1,0,2.1,0.5,2.5,1.4
			c0.4,0.8,0.4,1.7-0.1,2.4L26.2,38z"/>
	
		<path d="M23.2,41.5c0.4-2.2,0.7-5.2,0.3-7.3l2.4,3l3.7,0.8C27.5,38.5,25,40.1,23.2,41.5z"/>

		<path d="M5.7,37.3V37l0.4-0.4c1-0.9,1.4-1.5,1.5-2c0-0.4-0.2-0.8-0.8-0.8c-0.4,0-0.6,0.2-0.8,0.3l-0.2-0.4
			c0.3-0.2,0.7-0.4,1.1-0.4c0.8,0,1.2,0.6,1.2,1.1c0,0.7-0.5,1.3-1.3,2.1l-0.3,0.3v0h1.8v0.4H5.7z"/>

</svg>