<?xml version="1.0" encoding="utf-8"?>
<!-- Generator: Adobe Illustrator 26.2.1, SVG Export Plug-In . SVG Version: 6.00 Build 0)  -->
<svg version="1.1" xmlns="http://www.w3.org/2000/svg" xmlns:xlink="http://www.w3.org/1999/xlink" x="0px" y="0px"
	 viewBox="0 0 100 100" style="enable-background:new 0 0 100 100;" xml:space="preserve" width = "100px" height = "100px">
<style type="text/css">
	.st0{display:none;}
	.st1{display:inline;}
</style>

		<path d="M44.8,24.9c-0.1,0.4-0.7,0.8-1.2,1c-3.5,8.3-8.6,16.3-14.4,23.6c4.8,3.2,14.6,10.4,17.2,12.4l-4,5.6
			c-2.8-2.8-9.2-8.1-14.1-12v41h-6.7V58c-5.1,5.1-10.4,9.6-15.7,13.1c-0.7-1.7-2.5-4.7-3.6-5.9c12.6-7.8,25.9-21.7,33.1-36.4H4.9
			v-6.2h16.7V3.5L30.3,4c-0.1,0.7-0.7,1.2-2,1.4v17.2h10.8l1.2-0.4L44.8,24.9z M66.7,43.5H44.4V37h22.2h6.8h22.1v6.5H73.5"/>

		<path d="M44.4,47.8c0.8,0,12.8,0,12.8,0"/>
		
	<rect x="44.4" y="47.1" width="8.3" height="1.5"/>
		
	<path d="M57.2,47.8c-2.1,0.8-4.8,2.1-6.4,3.6l1.3-3.6l-1.3-3.6C52.5,45.7,55.1,47,57.2,47.8z"/>


		<path d="M47,51.1h-1.5l-0.1,1c0.1,0,0.2,0,0.3,0c0.3,0,0.6,0.1,0.8,0.2c0.3,0.2,0.6,0.5,0.6,1c0,0.8-0.6,1.3-1.5,1.3
			c-0.4,0-0.8-0.1-1-0.2l0.1-0.4c0.2,0.1,0.5,0.2,0.8,0.2c0.5,0,0.9-0.3,0.9-0.8c0-0.5-0.3-0.9-1.1-0.9c-0.2,0-0.4,0-0.5,0l0.3-1.9
			H47V51.1z"/>


 </svg>