<?xml version="1.0" encoding="utf-8"?>
<!-- Generator: Adobe Illustrator 26.2.1, SVG Export Plug-In . SVG Version: 6.00 Build 0)  -->
<svg version="1.1" xmlns="http://www.w3.org/2000/svg" xmlns:xlink="http://www.w3.org/1999/xlink" x="0px" y="0px"
	 viewBox="0 0 100 100" style="enable-background:new 0 0 100 100;" xml:space="preserve">
<style type="text/css">
	.st0{display:none;}
	.st1{display:inline;}
</style>
<g id="Stroke3">
	<g>
		<path d="M53.2,21.9h37.4V69h-6.9v-5.9H53.2v33.3h-7V63.1H16.1v6.4H9.4V21.9h36.8V3.6l9,0.6c-0.1,0.7-0.7,1.2-2,1.4V21.9z
			 M16.1,56.4h30.1V28.5H16.1V56.4z M53.2,56.4h30.5V28.5H53.2V56.4z"/>
	</g>
	<g>
		<line x1="57.7" y1="4.8" x2="57.7" y2="17.9"/>
		<g>
			<rect x="56.9" y="4.8" width="1.5" height="8.6"/>
			<g>
				<path d="M57.7,17.9c-0.8-2.1-2.1-4.8-3.6-6.4l3.6,1.3l3.6-1.3C59.8,13.2,58.5,15.8,57.7,17.9z"/>
			</g>
		</g>
	</g>
	<g>
		<path d="M62.3,8.8V7.8h-1.8V7.4l1.7-2.5h0.6v2.4h0.5v0.4h-0.5v1.1H62.3z M62.3,7.3V6c0-0.2,0-0.4,0-0.6h0C62.1,5.7,62,5.8,61.9,6
			l-1,1.3v0H62.3z"/>
	</g>
</g>
<g id="Stroke2" class="st0">
	<g class="st1">
		<path d="M46.2,63.1H16.1v6.4H9.4V21.9h36.8h7h37.4V69h-6.9v-5.9H53.2 M53.2,56.4h30.5V28.5H16.1v27.9h30.1"/>
	</g>
	<path class="st1" d="M46.2,56.4"/>
	<g class="st1">
		<line x1="19.2" y1="67.8" x2="34.1" y2="67.8"/>
		<g>
			<rect x="19.2" y="67" width="10.4" height="1.5"/>
			<g>
				<path d="M34.1,67.8c-2.1,0.8-4.8,2.1-6.4,3.6l1.3-3.6l-1.3-3.6C29.4,65.7,32,67,34.1,67.8z"/>
			</g>
		</g>
	</g>
	<g class="st1">
		<path d="M19.6,73.7c0.1,0.1,0.5,0.2,0.9,0.2c0.7,0,0.9-0.4,0.9-0.8c0-0.5-0.5-0.8-1-0.8h-0.3v-0.4h0.3c0.4,0,0.9-0.2,0.9-0.7
			c0-0.3-0.2-0.6-0.7-0.6c-0.3,0-0.6,0.1-0.8,0.3l-0.1-0.4c0.2-0.1,0.6-0.3,1-0.3c0.8,0,1.1,0.5,1.1,0.9c0,0.4-0.2,0.7-0.7,0.9v0
			c0.5,0.1,0.9,0.5,0.9,1c0,0.6-0.5,1.2-1.4,1.2c-0.4,0-0.8-0.1-1-0.3L19.6,73.7z"/>
	</g>
</g>
<g id="Stroke1" class="st0">
	<g class="st1">
		<path d="M83.7,28.5H53.2h-7H16.1v41H9.4V21.9h36.8h7h37.4V69h-6.9"/>
	</g>
	<g class="st1">
		<line x1="19.5" y1="32.7" x2="34.1" y2="32.7"/>
		<g>
			<rect x="19.5" y="31.9" width="10.1" height="1.5"/>
			<g>
				<path d="M34.1,32.7c-2.1,0.8-4.8,2.1-6.4,3.6l1.3-3.6l-1.3-3.6C29.4,30.5,32,31.9,34.1,32.7z"/>
			</g>
		</g>
	</g>
	<g class="st1">
		<path d="M19.8,39.8v-0.3l0.4-0.4c1-0.9,1.4-1.5,1.5-2c0-0.4-0.2-0.8-0.8-0.8c-0.4,0-0.6,0.2-0.8,0.3l-0.2-0.4
			c0.3-0.2,0.7-0.4,1.1-0.4c0.8,0,1.2,0.6,1.2,1.1c0,0.7-0.5,1.3-1.3,2.1l-0.3,0.3v0h1.8v0.4H19.8z"/>
	</g>
</g>
<g id="Stroke0" class="st0">
	<g class="st1">
		<path d="M16.1,21.9c0,0,0.1,4.4,0,6.6v27.9v6.7v6.4H9.4V21.9"/>
	</g>
	<g class="st1">
		<line x1="20.8" y1="21.9" x2="20.8" y2="33.7"/>
		<g>
			<rect x="20" y="21.9" width="1.5" height="7.3"/>
			<g>
				<path d="M20.8,33.7c-0.8-2.1-2.1-4.8-3.6-6.4l3.6,1.3l3.6-1.3C22.9,28.9,21.6,31.6,20.8,33.7z"/>
			</g>
		</g>
	</g>
	<g class="st1">
		<path d="M26.8,22.8L26.8,22.8l-0.7,0.4L26,22.7l0.9-0.5h0.4v3.9h-0.5V22.8z"/>
	</g>
</g>
<g id="Kanji" class="st0">
	<g class="st1">
		<path d="M53.2,21.9h37.4V69h-6.9v-5.9H53.2v33.3h-7V63.1H16.1v6.4H9.4V21.9h36.8V3.6l9,0.6c-0.1,0.7-0.7,1.2-2,1.4V21.9z
			 M16.1,56.4h30.1V28.5H16.1V56.4z M53.2,56.4h30.5V28.5H53.2V56.4z"/>
	</g>
</g>
</svg>
