<?xml version="1.0" encoding="utf-8"?>
<!-- Generator: Adobe Illustrator 26.2.1, SVG Export Plug-In . SVG Version: 6.00 Build 0)  -->
<svg version="1.1" xmlns="http://www.w3.org/2000/svg" xmlns:xlink="http://www.w3.org/1999/xlink" x="0px" y="0px"
	 viewBox="0 0 100 100" style="enable-background:new 0 0 100 100;" xml:space="preserve" width = "100px" height = "100px">
<style type="text/css">
	.st0{display:none;}
	.st1{display:inline;}
</style>

		<path d="M10,4.9c6.1,4.8,12.9,11.8,15.8,16.9l-5.6,3.9c-2.7-5.2-9.4-12.5-15.4-17.4L10,4.9z M41.4,12.3v20.6
			c0,14-1.2,33.8-9.6,47.4c-1.2-1.2-3.9-2.9-5.4-3.7c8-12.8,8.8-30.6,8.8-43.7V6.6h54.5v67.4c0,7.5-3.8,7.7-17.4,7.7
			c-0.2-1.7-1.1-4.3-1.9-5.8c2.6,0,5,0.1,6.9,0.1c5.5,0,6.1,0,6.1-2V12.3H41.4z M45.4,35.7H59V27H46.4v-5.1H59v-8.2l7.7,0.5
			c-0.1,0.7-0.6,1.1-1.9,1.3v6.4h13.7V27H64.8v8.7h14.8v5.1H45.4V35.7z M53.9,69.2v5.2h-5.4V46.8h27.2v22.3H53.9z M70.2,51.8H53.9
			v12.3h16.3V51.8z"/>
	
	<rect x="17.2" y="27.6" class="st2" width="12.6" height="0"/>
	
		<line x1="3.4" y1="13.7" x2="14.3" y2="25.7"/>

			<rect x="6.6" y="12.2" transform="matrix(0.7413 -0.6712 0.6712 0.7413 -10.2265 9.6086)" width="1.5" height="11.7"/>
		
				<path d="M14.3,25.7c-2-1-4.8-2.1-6.9-2.4l3.5-1.4l1.8-3.3C12.7,20.8,13.5,23.6,14.3,25.7z"/>
	
		<path d="M3,23.8c0.1,0,0.2,0,0.4,0c0.3,0,0.6-0.2,0.8-0.4c0.3-0.2,0.4-0.6,0.5-1h0c-0.2,0.3-0.5,0.4-0.9,0.4
			c-0.7,0-1.2-0.5-1.2-1.2c0-0.7,0.5-1.4,1.3-1.4s1.3,0.6,1.3,1.6c0,0.9-0.3,1.5-0.7,1.8c-0.3,0.3-0.7,0.5-1.1,0.5
			c-0.2,0-0.4,0-0.5,0V23.8z M3.2,21.6c0,0.5,0.3,0.8,0.7,0.8c0.4,0,0.6-0.2,0.8-0.4c0,0,0-0.1,0-0.2c0-0.7-0.2-1.2-0.8-1.2
			C3.5,20.6,3.2,21,3.2,21.6z"/>


 </svg>