<?xml version="1.0" encoding="utf-8"?>
<!-- Generator: Adobe Illustrator 26.2.1, SVG Export Plug-In . SVG Version: 6.00 Build 0)  -->
<svg version="1.1" xmlns="http://www.w3.org/2000/svg" xmlns:xlink="http://www.w3.org/1999/xlink" x="0px" y="0px"
	 viewBox="0 0 100 100" style="enable-background:new 0 0 100 100;" xml:space="preserve" width = "100px" height = "100px">
<style type="text/css">
	.st0{display:none;}
	.st1{display:inline;}
</style>

		<path d="M41.4,12.3v20.6c0,14-1.2,33.8-9.6,47.4c-1.2-1.2-3.9-2.9-5.4-3.7c8-12.8,8.8-30.6,8.8-43.7V6.6h54.5v67.4
			c0,7.5-3.8,7.7-17.4,7.7c-0.2-1.7-1.1-4.3-1.9-5.8c2.6,0,5,0.1,6.9,0.1c5.5,0,6.1,0,6.1-2V12.3H41.4z M45.4,35.7H59V27H46.4v-5.1
			H59v-8.2l7.7,0.5c-0.1,0.7-0.6,1.1-1.9,1.3v6.4h13.7V27H64.8v8.7h14.8v5.1H45.4V35.7z M53.9,46.8v22.3v5.2h-5.4V46.8"/>

	<rect x="17.2" y="27.6" class="st2" width="12.6" height="0"/>

		<line x1="58.1" y1="46.8" x2="58.1" y2="61.1"/>
	
			<line class="st3" x1="58.1" y1="46.8" x2="58.1" y2="56.6"/>
	
				<path d="M58.1,61.1c-0.8-2.1-2.1-4.8-3.6-6.4l3.6,1.3l3.6-1.3C60.2,56.3,58.9,58.9,58.1,61.1z"/>
	
	<text transform="matrix(1 0 0 1 61.8697 51.6519)" class="st1 st4 st5">6</text>

 </svg>