<?xml version="1.0" encoding="utf-8"?>
<!-- Generator: Adobe Illustrator 26.2.1, SVG Export Plug-In . SVG Version: 6.00 Build 0)  -->
<svg version="1.1" xmlns="http://www.w3.org/2000/svg" xmlns:xlink="http://www.w3.org/1999/xlink" x="0px" y="0px"
	 viewBox="0 0 100 100" style="enable-background:new 0 0 100 100;" xml:space="preserve" width = "100px" height = "100px">
<style type="text/css">
	.st0{display:none;}
	.st1{display:inline;}
</style> 

		<path d="M23.3,42.5v33c7.8,12,22.6,12,39.8,12c11.5,0,25.5-0.3,33.8-0.8c-0.9,1.5-1.9,4.5-2.2,6.4c-6.9,0.2-18,0.4-28.1,0.4
			c-22.3,0-36.2,0-46.1-12.4c-4.4,4.5-9.1,8.9-12.8,12.4c0,0.8-0.2,1.1-0.9,1.5L3,88.3c4.2-3.3,9.4-7.7,13.9-12V48.9H4v-6.4H23.3z
			 M10,4.9c6.1,4.8,12.9,11.8,15.8,16.9l-5.6,3.9c-2.7-5.2-9.4-12.5-15.4-17.4L10,4.9z M41.4,12.3v20.6c0,14-1.2,33.8-9.6,47.4
			c-1.2-1.2-3.9-2.9-5.4-3.7c8-12.8,8.8-30.6,8.8-43.7V6.6h54.5v67.4c0,7.5-3.8,7.7-17.4,7.7c-0.2-1.7-1.1-4.3-1.9-5.8
			c2.6,0,5,0.1,6.9,0.1c5.5,0,6.1,0,6.1-2V12.3H41.4z M45.4,35.7H59V27H46.4v-5.1H59v-8.2l7.7,0.5c-0.1,0.7-0.6,1.1-1.9,1.3v6.4
			h13.7V27H64.8v8.7h14.8v5.1H45.4V35.7z M53.9,69.2v5.2h-5.4V46.8h27.2v22.3H53.9z M70.2,51.8H53.9v12.3h16.3V51.8z"/>
	
	<rect x="17.2" y="27.6" class="st2" width="12.6" height="0"/>

		<path d="M27.8,94.5c-0.5-0.3-0.9-0.7-1.2-1l-6-7.7l1.2-0.9l6,7.7c0.2,0.2,0.5,0.5,0.9,0.7L27.8,94.5z"/>

			<path d="M32.3,95.8c-2.3-0.2-5.2-0.2-7.3,0.4l2.7-2.6l0.4-3.8C29,91.8,30.8,94.2,32.3,95.8z"/>

		<path d="M18.6,90.1L18.6,90.1l-0.7,0.4L17.8,90l0.9-0.5h0.4v3.9h-0.5V90.1z"/>
		<path d="M21.7,90.1L21.7,90.1L21,90.4L20.9,90l0.9-0.5h0.4v3.9h-0.5V90.1z"/>


</svg>