<?xml version="1.0" encoding="utf-8"?>
<!-- Generator: Adobe Illustrator 26.2.1, SVG Export Plug-In . SVG Version: 6.00 Build 0)  -->
<svg version="1.1" xmlns="http://www.w3.org/2000/svg" xmlns:xlink="http://www.w3.org/1999/xlink" x="0px" y="0px"
	 viewBox="0 0 100 100" style="enable-background:new 0 0 100 100;" xml:space="preserve" width = "100px" height = "100px">
<style type="text/css">
	.st0{display:none;}
	.st1{display:inline;}
</style> 

		<path d="M41.4,6.6v5.7v20.6c0,14-1.2,33.8-9.6,47.4c-1.2-1.2-3.9-2.9-5.4-3.7c8-12.8,8.8-30.6,8.8-43.7V6.6"/>

	<rect x="17.2" y="27.6" class="st2" width="12.6" height="0"/>
	
		<line x1="46.9" y1="7.7" x2="46.9" y2="28.5"/>
	
			<rect x="46.2" y="7.7" width="1.5" height="16.3"/>
		
				<path d="M46.9,28.5c-0.8-2.1-2.1-4.8-3.6-6.4l3.6,1.3l3.6-1.3C49,23.7,47.7,26.3,46.9,28.5z"/>

		<path d="M51.4,9L51.4,9l-0.7,0.4L50.6,9l0.9-0.5h0.5v3.9h-0.5V9z"/>

</svg>