<?xml version="1.0" encoding="utf-8"?>
<!-- Generator: Adobe Illustrator 26.2.1, SVG Export Plug-In . SVG Version: 6.00 Build 0)  -->
<svg version="1.1" xmlns="http://www.w3.org/2000/svg" xmlns:xlink="http://www.w3.org/1999/xlink" x="0px" y="0px"
	 viewBox="0 0 100 100" style="enable-background:new 0 0 100 100;" xml:space="preserve">
<style type="text/css">
	.st0{display:none;}
	.st1{display:inline;}
	.st2{display:inline;fill:none;}
	.st3{fill:none;stroke:#000000;stroke-width:1.5;stroke-miterlimit:10;}
	.st4{font-family:'MyriadPro-Regular';}
	.st5{font-size:6px;}
	.st6{fill:none;}
</style>
<g id="Stroke10" class="st0">
	<g class="st1">
		<path d="M23.3,42.5v33c7.8,12,22.6,12,39.8,12c11.5,0,25.5-0.3,33.8-0.8c-0.9,1.5-1.9,4.5-2.2,6.4c-6.9,0.2-18,0.4-28.1,0.4
			c-22.3,0-36.2,0-46.1-12.4c-4.4,4.5-9.1,8.9-12.8,12.4c0,0.8-0.2,1.1-0.9,1.5L3,88.3c4.2-3.3,9.4-7.7,13.9-12V48.9H4v-6.4H23.3z
			 M10,4.9c6.1,4.8,12.9,11.8,15.8,16.9l-5.6,3.9c-2.7-5.2-9.4-12.5-15.4-17.4L10,4.9z M41.4,12.3v20.6c0,14-1.2,33.8-9.6,47.4
			c-1.2-1.2-3.9-2.9-5.4-3.7c8-12.8,8.8-30.6,8.8-43.7V6.6h54.5v67.4c0,7.5-3.8,7.7-17.4,7.7c-0.2-1.7-1.1-4.3-1.9-5.8
			c2.6,0,5,0.1,6.9,0.1c5.5,0,6.1,0,6.1-2V12.3H41.4z M45.4,35.7H59V27H46.4v-5.1H59v-8.2l7.7,0.5c-0.1,0.7-0.6,1.1-1.9,1.3v6.4
			h13.7V27H64.8v8.7h14.8v5.1H45.4V35.7z M53.9,69.2v5.2h-5.4V46.8h27.2v22.3H53.9z M70.2,51.8H53.9v12.3h16.3V51.8z"/>
	</g>
	<rect x="17.2" y="27.6" class="st2" width="12.6" height="0"/>
	<g class="st1">
		<path d="M27.8,94.5c-0.5-0.3-0.9-0.7-1.2-1l-6-7.7l1.2-0.9l6,7.7c0.2,0.2,0.5,0.5,0.9,0.7L27.8,94.5z"/>
		<g>
			<path d="M32.3,95.8c-2.3-0.2-5.2-0.2-7.3,0.4l2.7-2.6l0.4-3.8C29,91.8,30.8,94.2,32.3,95.8z"/>
		</g>
	</g>
	<g class="st1">
		<path d="M18.6,90.1L18.6,90.1l-0.7,0.4L17.8,90l0.9-0.5h0.4v3.9h-0.5V90.1z"/>
		<path d="M21.7,90.1L21.7,90.1L21,90.4L20.9,90l0.9-0.5h0.4v3.9h-0.5V90.1z"/>
	</g>
</g>
<g id="Stroke9" class="st0">
	<g class="st1">
		<path d="M20.5,81.2c-4.4,4.5-9.1,8.9-12.8,12.4c0,0.8-0.2,1.1-0.9,1.5L3,88.3c4.2-3.3,9.4-7.7,13.9-12V48.9H4v-6.4h19.3v33
			 M10,4.9c6.1,4.8,12.9,11.8,15.8,16.9l-5.6,3.9c-2.7-5.2-9.4-12.5-15.4-17.4L10,4.9z M41.4,12.3v20.6c0,14-1.2,33.8-9.6,47.4
			c-1.2-1.2-3.9-2.9-5.4-3.7c8-12.8,8.8-30.6,8.8-43.7V6.6h54.5v67.4c0,7.5-3.8,7.7-17.4,7.7c-0.2-1.7-1.1-4.3-1.9-5.8
			c2.6,0,5,0.1,6.9,0.1c5.5,0,6.1,0,6.1-2V12.3H41.4z M45.4,35.7H59V27H46.4v-5.1H59v-8.2l7.7,0.5c-0.1,0.7-0.6,1.1-1.9,1.3v6.4
			h13.7V27H64.8v8.7h14.8v5.1H45.4V35.7z M53.9,69.2v5.2h-5.4V46.8h27.2v22.3H53.9z M70.2,51.8H53.9v12.3h16.3V51.8z"/>
	</g>
	<rect x="17.2" y="27.6" class="st2" width="12.6" height="0"/>
	<g class="st1">
		<path d="M7.8,79.7L6.6,79l5-8.3c0.6-1,0.9-2.1,1-3.3L13,56.5c0-0.6-0.2-1.1-0.6-1.5c-0.4-0.4-0.9-0.6-1.5-0.6H4.8v-1.5H11
			c1,0,1.9,0.4,2.5,1.1c0.7,0.7,1,1.6,1,2.6L14,67.5c-0.1,1.4-0.5,2.8-1.2,4L7.8,79.7z"/>
		<g>
			<path d="M4.8,83.2C5.3,81,5.5,78,5.1,75.9l2.4,3l3.7,0.7C9.1,80.3,6.6,81.8,4.8,83.2z"/>
		</g>
	</g>
	<g class="st1">
		<path d="M6.3,57.2L6.3,57.2l-0.7,0.4l-0.1-0.4l0.9-0.5h0.5v3.9H6.3V57.2z"/>
		<path d="M10.8,58.6c0,1.3-0.5,2.1-1.4,2.1c-0.8,0-1.3-0.7-1.3-2c0-1.3,0.6-2,1.4-2C10.3,56.6,10.8,57.4,10.8,58.6z M8.7,58.7
			c0,1,0.3,1.6,0.8,1.6c0.5,0,0.8-0.6,0.8-1.6c0-1-0.2-1.6-0.8-1.6C9,57,8.7,57.6,8.7,58.7z"/>
	</g>
</g>
<g id="Stroke8" class="st0">
	<g class="st1">
		<path d="M10,4.9c6.1,4.8,12.9,11.8,15.8,16.9l-5.6,3.9c-2.7-5.2-9.4-12.5-15.4-17.4L10,4.9z M41.4,12.3v20.6
			c0,14-1.2,33.8-9.6,47.4c-1.2-1.2-3.9-2.9-5.4-3.7c8-12.8,8.8-30.6,8.8-43.7V6.6h54.5v67.4c0,7.5-3.8,7.7-17.4,7.7
			c-0.2-1.7-1.1-4.3-1.9-5.8c2.6,0,5,0.1,6.9,0.1c5.5,0,6.1,0,6.1-2V12.3H41.4z M45.4,35.7H59V27H46.4v-5.1H59v-8.2l7.7,0.5
			c-0.1,0.7-0.6,1.1-1.9,1.3v6.4h13.7V27H64.8v8.7h14.8v5.1H45.4V35.7z M53.9,69.2v5.2h-5.4V46.8h27.2v22.3H53.9z M70.2,51.8H53.9
			v12.3h16.3V51.8z"/>
	</g>
	<rect x="17.2" y="27.6" class="st2" width="12.6" height="0"/>
	<g class="st1">
		<line x1="3.4" y1="13.7" x2="14.3" y2="25.7"/>
		<g>
			<rect x="6.6" y="12.2" transform="matrix(0.7413 -0.6712 0.6712 0.7413 -10.2265 9.6086)" width="1.5" height="11.7"/>
			<g>
				<path d="M14.3,25.7c-2-1-4.8-2.1-6.9-2.4l3.5-1.4l1.8-3.3C12.7,20.8,13.5,23.6,14.3,25.7z"/>
			</g>
		</g>
	</g>
	<g class="st1">
		<path d="M3,23.8c0.1,0,0.2,0,0.4,0c0.3,0,0.6-0.2,0.8-0.4c0.3-0.2,0.4-0.6,0.5-1h0c-0.2,0.3-0.5,0.4-0.9,0.4
			c-0.7,0-1.2-0.5-1.2-1.2c0-0.7,0.5-1.4,1.3-1.4s1.3,0.6,1.3,1.6c0,0.9-0.3,1.5-0.7,1.8c-0.3,0.3-0.7,0.5-1.1,0.5
			c-0.2,0-0.4,0-0.5,0V23.8z M3.2,21.6c0,0.5,0.3,0.8,0.7,0.8c0.4,0,0.6-0.2,0.8-0.4c0,0,0-0.1,0-0.2c0-0.7-0.2-1.2-0.8-1.2
			C3.5,20.6,3.2,21,3.2,21.6z"/>
	</g>
</g>
<g id="Stroke7" class="st0">
	<g class="st1">
		<path d="M41.4,12.3v20.6c0,14-1.2,33.8-9.6,47.4c-1.2-1.2-3.9-2.9-5.4-3.7c8-12.8,8.8-30.6,8.8-43.7V6.6h54.5v67.4
			c0,7.5-3.8,7.7-17.4,7.7c-0.2-1.7-1.1-4.3-1.9-5.8c2.6,0,5,0.1,6.9,0.1c5.5,0,6.1,0,6.1-2V12.3H41.4z M45.4,35.7H59V27H46.4v-5.1
			H59v-8.2l7.7,0.5c-0.1,0.7-0.6,1.1-1.9,1.3v6.4h13.7V27H64.8v8.7h14.8v5.1H45.4V35.7z M53.9,69.2v5.2h-5.4V46.8h27.2v22.3H53.9z
			 M70.2,51.8H53.9v12.3h16.3V51.8z"/>
	</g>
	<rect x="17.2" y="27.6" class="st2" width="12.6" height="0"/>
	<g class="st1">
		<line x1="55.9" y1="73.3" x2="73.2" y2="73.3"/>
		<g>
			<rect x="55.9" y="72.6" width="12.8" height="1.5"/>
			<g>
				<path d="M73.2,73.3c-2.1,0.8-4.8,2.1-6.4,3.6l1.3-3.6l-1.3-3.6C68.5,71.2,71.1,72.5,73.2,73.3z"/>
			</g>
		</g>
	</g>
	<g class="st1">
		<path d="M56,79.2c0-0.5,0.3-0.8,0.8-1l0,0c-0.4-0.2-0.6-0.5-0.6-0.9c0-0.6,0.5-1,1.2-1c0.8,0,1.1,0.5,1.1,1c0,0.3-0.2,0.7-0.6,0.9
			v0c0.5,0.2,0.8,0.5,0.8,1c0,0.7-0.6,1.1-1.3,1.1C56.5,80.2,56,79.8,56,79.2z M58.1,79.2c0-0.5-0.3-0.7-0.9-0.9
			c-0.5,0.1-0.7,0.4-0.7,0.8c0,0.4,0.3,0.7,0.8,0.7C57.8,79.9,58.1,79.6,58.1,79.2z M56.7,77.2c0,0.4,0.3,0.6,0.7,0.7
			c0.3-0.1,0.6-0.4,0.6-0.7c0-0.3-0.2-0.6-0.7-0.6C56.9,76.6,56.7,76.9,56.7,77.2z"/>
	</g>
</g>
<g id="Stroke6" class="st0">
	<g class="st1">
		<path d="M41.4,12.3v20.6c0,14-1.2,33.8-9.6,47.4c-1.2-1.2-3.9-2.9-5.4-3.7c8-12.8,8.8-30.6,8.8-43.7V6.6h54.5v67.4
			c0,7.5-3.8,7.7-17.4,7.7c-0.2-1.7-1.1-4.3-1.9-5.8c2.6,0,5,0.1,6.9,0.1c5.5,0,6.1,0,6.1-2V12.3H41.4z M45.4,35.7H59V27H46.4v-5.1
			H59v-8.2l7.7,0.5c-0.1,0.7-0.6,1.1-1.9,1.3v6.4h13.7V27H64.8v8.7h14.8v5.1H45.4V35.7z M70.2,64.2v5.1l5.5-0.1V46.8H48.4v27.5h5.4
			V64.2V51.8h16.3V64.2H53.9 M70.2,51.8H53.9"/>
	</g>
	<rect x="17.2" y="27.6" class="st2" width="12.6" height="0"/>
	<g class="st1">
		<polygon points="65.1,63.1 65.1,54.4 55.5,54.4 55.5,52.9 66.6,52.9 66.6,63.1 		"/>
		<g>
			<path d="M65.9,67.7c-0.8-2.1-2.2-4.8-3.6-6.4l3.6,1.3l3.6-1.3C68,62.9,66.7,65.5,65.9,67.7z"/>
		</g>
	</g>
	<g class="st1">
		<path d="M59.3,56.8v0.3l-1.7,3.5h-0.5l1.7-3.4v0h-1.9v-0.4H59.3z"/>
	</g>
</g>
<g id="Stroke5" class="st0">
	<g class="st1">
		<path d="M41.4,12.3v20.6c0,14-1.2,33.8-9.6,47.4c-1.2-1.2-3.9-2.9-5.4-3.7c8-12.8,8.8-30.6,8.8-43.7V6.6h54.5v67.4
			c0,7.5-3.8,7.7-17.4,7.7c-0.2-1.7-1.1-4.3-1.9-5.8c2.6,0,5,0.1,6.9,0.1c5.5,0,6.1,0,6.1-2V12.3H41.4z M45.4,35.7H59V27H46.4v-5.1
			H59v-8.2l7.7,0.5c-0.1,0.7-0.6,1.1-1.9,1.3v6.4h13.7V27H64.8v8.7h14.8v5.1H45.4V35.7z M53.9,46.8v22.3v5.2h-5.4V46.8"/>
	</g>
	<rect x="17.2" y="27.6" class="st2" width="12.6" height="0"/>
	<g class="st1">
		<line x1="58.1" y1="46.8" x2="58.1" y2="61.1"/>
		<g>
			<line class="st3" x1="58.1" y1="46.8" x2="58.1" y2="56.6"/>
			<g>
				<path d="M58.1,61.1c-0.8-2.1-2.1-4.8-3.6-6.4l3.6,1.3l3.6-1.3C60.2,56.3,58.9,58.9,58.1,61.1z"/>
			</g>
		</g>
	</g>
	<text transform="matrix(1 0 0 1 61.8697 51.6519)" class="st1 st4 st5">6</text>
</g>
<g id="Stroke4" class="st0">
	<g class="st1">
		<path d="M3,88.3 M41.4,12.3v20.6c0,14-1.2,33.8-9.6,47.4c-1.2-1.2-3.9-2.9-5.4-3.7c8-12.8,8.8-30.6,8.8-43.7V6.6h54.5v67.4
			c0,7.5-3.8,7.7-17.4,7.7c-0.2-1.7-1.1-4.3-1.9-5.8c2.6,0,5,0.1,6.9,0.1c5.5,0,6.1,0,6.1-2V12.3H41.4z M45.4,35.7H59V27H46.4v-5.1
			H59v-8.2l7.7,0.5c-0.1,0.7-0.6,1.1-1.9,1.3v6.4h13.7V27H64.8v8.7h14.8v5.1H45.4V35.7z"/>
	</g>
	<rect x="17.2" y="27.6" class="st2" width="12.6" height="0"/>
	<g class="st1">
		<path d="M47.1,46.2c0.4,0,30.6,0,30.6,0"/>
		<g>
			<rect x="47.1" y="45.5" width="26.1" height="1.5"/>
			<g>
				<path d="M77.7,46.2c-2.1,0.8-4.8,2.1-6.4,3.6l1.3-3.6l-1.3-3.6C73,44.1,75.6,45.5,77.7,46.2z"/>
			</g>
		</g>
	</g>
	<g class="st1">
		<path d="M49.7,49.7h-1.5l-0.1,1c0.1,0,0.2,0,0.3,0c0.3,0,0.6,0.1,0.8,0.2c0.3,0.2,0.6,0.5,0.6,1c0,0.8-0.6,1.3-1.5,1.3
			c-0.4,0-0.8-0.1-1-0.2l0.1-0.4c0.2,0.1,0.5,0.2,0.8,0.2c0.5,0,0.9-0.3,0.9-0.8c0-0.5-0.3-0.9-1.1-0.9c-0.2,0-0.4,0-0.5,0l0.3-1.9
			h1.9V49.7z"/>
	</g>
</g>
<g id="Stroke3" class="st0">
	<g class="st1">
		<path d="M41.4,12.3v20.6c0,14-1.2,33.8-9.6,47.4c-1.2-1.2-3.9-2.9-5.4-3.7c8-12.8,8.8-30.6,8.8-43.7V6.6h54.5v67.4
			c0,7.5-3.8,7.7-17.4,7.7c-0.2-1.7-1.1-4.3-1.9-5.8c2.6,0,5,0.1,6.9,0.1c5.5,0,6.1,0,6.1-2V12.3H41.4z M59,35.7V27H46.4v-5.1H59
			v-8.2l7.7,0.5c-0.1,0.7-0.6,1.1-1.9,1.3v6.4h13.7V27H64.8v8.7"/>
	</g>
	<rect x="17.2" y="27.6" class="st2" width="12.6" height="0"/>
	<g class="st1">
		<path d="M70.8,13.7v7.5"/>
		<g>
			<line class="st3" x1="70.8" y1="13.7" x2="70.8" y2="18.1"/>
			<g>
				<path d="M70.8,21.3c-0.6-1.5-1.5-3.3-2.5-4.5l2.5,0.9l2.5-0.9C72.3,17.9,71.4,19.8,70.8,21.3z"/>
			</g>
		</g>
	</g>
	<text transform="matrix(1 0 0 1 74.1527 17.9389)" class="st1 st4 st5">4</text>
</g>
<g id="Stroke2" class="st0">
	<g class="st1">
		<path d="M41.4,12.3v20.6c0,14-1.2,33.8-9.6,47.4c-1.2-1.2-3.9-2.9-5.4-3.7c8-12.8,8.8-30.6,8.8-43.7V6.6h54.5v67.4
			c0,7.5-3.8,7.7-17.4,7.7c-0.2-1.7-1.1-4.3-1.9-5.8c2.6,0,5,0.1,6.9,0.1c5.5,0,6.1,0,6.1-2V12.3H41.4z M59,27H46.4v-5.1H59h5.8
			h13.7V27H64.8"/>
	</g>
	<line class="st2" x1="29.8" y1="27.6" x2="29.8" y2="27.6"/>
	<g class="st1">
		<line x1="72.3" y1="31.8" x2="48.7" y2="31.8"/>
		<g>
			<rect x="48.7" y="31.1" width="19.1" height="1.5"/>
			<g>
				<path d="M72.3,31.8c-2.1-0.8-4.8-2.1-6.4-3.6l1.3,3.6l-1.3,3.6C67.5,34,70.2,32.6,72.3,31.8z"/>
			</g>
		</g>
	</g>
	<g class="st1">
		<path d="M49.1,38.7c0.1,0.1,0.5,0.2,0.9,0.2c0.7,0,0.9-0.4,0.9-0.8c0-0.5-0.5-0.8-1-0.8h-0.3V37h0.3c0.4,0,0.9-0.2,0.9-0.7
			c0-0.3-0.2-0.6-0.7-0.6c-0.3,0-0.6,0.1-0.8,0.3l-0.1-0.4c0.2-0.1,0.6-0.3,1-0.3c0.8,0,1.1,0.5,1.1,0.9c0,0.4-0.2,0.7-0.7,0.9v0
			c0.5,0.1,0.9,0.5,0.9,1c0,0.6-0.5,1.2-1.4,1.2c-0.4,0-0.8-0.1-1-0.3L49.1,38.7z"/>
	</g>
</g>
<g id="Stroke1" class="st0">
	<g class="st1">
		<path d="M41.4,12.3v20.6c0,14-1.2,33.8-9.6,47.4c-1.2-1.2-3.9-2.9-5.4-3.7c8-12.8,8.8-30.6,8.8-43.7V6.6h54.5v67.4
			c0,7.5-3.8,7.7-17.4,7.7c-0.2-1.7-1.1-4.3-1.9-5.8c2.6,0,5,0.1,6.9,0.1c5.5,0,6.1,0,6.1-2V12.3H41.4z"/>
	</g>
	<rect x="17.2" y="27.6" class="st2" width="12.6" height="0"/>
	<g class="st1">
		<path d="M78.3,32h-1.5V19.1c0-1.2-1-2.3-2.3-2.3H49.4v-1.5h25.1c2.1,0,3.8,1.7,3.8,3.8V32z"/>
		<g>
			<path d="M77.5,36.5c-0.8-2.1-2.1-4.8-3.6-6.4l3.6,1.3l3.6-1.3C79.7,31.8,78.3,34.4,77.5,36.5z"/>
		</g>
	</g>
	<g class="st1">
		<path d="M50.3,23.3v-0.3l0.4-0.4c1-0.9,1.4-1.5,1.5-2c0-0.4-0.2-0.8-0.8-0.8c-0.4,0-0.6,0.2-0.8,0.3l-0.2-0.4
			c0.3-0.2,0.7-0.4,1.1-0.4c0.8,0,1.2,0.6,1.2,1.1c0,0.7-0.5,1.3-1.3,2.1L51,22.8v0h1.8v0.4H50.3z"/>
	</g>
</g>
<g id="Stroke0" class="st0">
	<g class="st1">
		<path d="M41.4,6.6v5.7v20.6c0,14-1.2,33.8-9.6,47.4c-1.2-1.2-3.9-2.9-5.4-3.7c8-12.8,8.8-30.6,8.8-43.7V6.6"/>
	</g>
	<rect x="17.2" y="27.6" class="st2" width="12.6" height="0"/>
	<g class="st1">
		<line x1="46.9" y1="7.7" x2="46.9" y2="28.5"/>
		<g>
			<rect x="46.2" y="7.7" width="1.5" height="16.3"/>
			<g>
				<path d="M46.9,28.5c-0.8-2.1-2.1-4.8-3.6-6.4l3.6,1.3l3.6-1.3C49,23.7,47.7,26.3,46.9,28.5z"/>
			</g>
		</g>
	</g>
	<g class="st1">
		<path d="M51.4,9L51.4,9l-0.7,0.4L50.6,9l0.9-0.5h0.5v3.9h-0.5V9z"/>
	</g>
</g>
<g id="Kanji">
	<g>
		<path d="M23.3,42.5v33c7.8,12,22.6,12,39.8,12c11.5,0,25.5-0.3,33.8-0.8c-0.9,1.5-1.9,4.5-2.2,6.4c-6.9,0.2-18,0.4-28.1,0.4
			c-22.3,0-36.2,0-46.1-12.4c-4.4,4.5-9.1,8.9-12.8,12.4c0,0.8-0.2,1.1-0.9,1.5L3,88.3c4.2-3.3,9.4-7.7,13.9-12V48.9H4v-6.4H23.3z
			 M10,4.9c6.1,4.8,12.9,11.8,15.8,16.9l-5.6,3.9c-2.7-5.2-9.4-12.5-15.4-17.4L10,4.9z M41.4,12.3v20.6c0,14-1.2,33.8-9.6,47.4
			c-1.2-1.2-3.9-2.9-5.4-3.7c8-12.8,8.8-30.6,8.8-43.7V6.6h54.5v67.4c0,7.5-3.8,7.7-17.4,7.7c-0.2-1.7-1.1-4.3-1.9-5.8
			c2.6,0,5,0.1,6.9,0.1c5.5,0,6.1,0,6.1-2V12.3H41.4z M45.4,35.7H59V27H46.4v-5.1H59v-8.2l7.7,0.5c-0.1,0.7-0.6,1.1-1.9,1.3v6.4
			h13.7V27H64.8v8.7h14.8v5.1H45.4V35.7z M53.9,69.2v5.2h-5.4V46.8h27.2v22.3H53.9z M70.2,51.8H53.9v12.3h16.3V51.8z"/>
	</g>
	<rect x="17.2" y="27.6" class="st6" width="12.6" height="0"/>
</g>
</svg>
