<?xml version="1.0" encoding="utf-8"?>
<!-- Generator: Adobe Illustrator 26.2.1, SVG Export Plug-In . SVG Version: 6.00 Build 0)  -->
<svg version="1.1" xmlns="http://www.w3.org/2000/svg" xmlns:xlink="http://www.w3.org/1999/xlink" x="0px" y="0px"
	 viewBox="0 0 100 100" style="enable-background:new 0 0 100 100;" xml:space="preserve">
<style type="text/css">
	.st0{display:none;}
	.st1{display:inline;}
</style>
<g id="Stroke11">
	<g>
		<path d="M25.4,43.7v32.7c7.8,11.9,22.1,11.9,40.1,11.9c10.8,0,23.5-0.3,31.3-0.8c-0.8,1.6-2,4.8-2.2,6.8
			c-6.9,0.3-17.9,0.5-27.8,0.5c-20.6,0-34.3,0-44.4-12.4c-4.9,4.4-10.2,8.9-14.5,12.3C8,95.6,7.7,96,7,96.3l-3.9-7.4
			c4.8-3.2,10.7-7.8,15.8-12.2V50.1H4.2v-6.4H25.4z M10.5,6.2c6.7,4.3,14.4,10.9,17.9,15.8l-5.3,4.5c-3.3-5-10.9-11.8-17.6-16.3
			L10.5,6.2z M39.2,32.7h17.1c0.7-2.8,1.4-6.1,1.9-9.1H30.6v-5.8h18.1c-1.3-3.5-4.3-8.2-7.2-11.6l5.2-2.3c3.3,3.6,6.7,8.6,7.9,12.1
			L51,17.8h21.1l-2.6-1C72,13.1,75.2,7.5,77,3.7L85,6c-0.3,0.6-1,0.9-2.1,1c-1.9,3.1-5,7.5-7.7,10.8h19.9v5.8H65.1
			c-0.7,2.7-1.7,6.1-2.7,9.1h23.8V82h-6.7v-3.5H45.7V82h-6.5V32.7z M79.6,46.3v-8.2H45.7v8.2H79.6z M45.7,51.3v8.4h33.8v-8.4H45.7z
			 M45.7,73.2h33.8v-8.5H45.7V73.2z"/>
	</g>
	<g>
		<path d="M30.9,94.6c-1.2-0.6-2.4-1.2-3.6-1.8C25.1,91.5,23,90,21,88.4l1-1.2c1.9,1.6,4,3,6.1,4.3c1.1,0.6,2.3,1.2,3.4,1.8
			L30.9,94.6z"/>
		<g>
			<path d="M35.4,95.6c-2.3-0.1-5.2,0.2-7.3,0.9l2.6-2.8l0.2-3.8C31.8,91.8,33.8,94.1,35.4,95.6z"/>
		</g>
	</g>
	<g>
		<path d="M16.9,90.3L16.9,90.3l-0.7,0.4l-0.1-0.4l0.9-0.5h0.4v3.9h-0.5V90.3z"/>
		<path d="M18.8,93.7v-0.3l0.4-0.4c1-0.9,1.4-1.5,1.5-2c0-0.4-0.2-0.8-0.8-0.8c-0.4,0-0.6,0.2-0.8,0.3l-0.2-0.4
			c0.3-0.2,0.7-0.4,1.1-0.4c0.8,0,1.2,0.6,1.2,1.1c0,0.7-0.5,1.3-1.3,2.1l-0.3,0.3v0h1.8v0.4H18.8z"/>
	</g>
</g>
<g id="Stroke10" class="st0">
	<g class="st1">
		<path d="M22.4,82.4c-4.9,4.4-10.2,8.9-14.5,12.3C8,95.6,7.7,96,7,96.3l-3.9-7.4c4.8-3.2,10.7-7.8,15.8-12.2V50.1H4.2v-6.4h21.2
			v32.7 M10.5,6.2c6.7,4.3,14.4,10.9,17.9,15.8l-5.3,4.5c-3.3-5-10.9-11.8-17.6-16.3L10.5,6.2z M39.2,32.7h17.1
			c0.7-2.8,1.4-6.1,1.9-9.1H30.6v-5.8h18.1c-1.3-3.5-4.3-8.2-7.2-11.6l5.2-2.3c3.3,3.6,6.7,8.6,7.9,12.1L51,17.8h21.1l-2.6-1
			C72,13.1,75.2,7.5,77,3.7L85,6c-0.3,0.6-1,0.9-2.1,1c-1.9,3.1-5,7.5-7.7,10.8h19.9v5.8H65.1c-0.7,2.7-1.7,6.1-2.7,9.1h23.8V82
			h-6.7v-3.5H45.7V82h-6.5V32.7z M79.6,46.3v-8.2H45.7v8.2H79.6z M45.7,51.3v8.4h33.8v-8.4H45.7z M45.7,73.2h33.8v-8.5H45.7V73.2z"
			/>
	</g>
	<g class="st1">
		<path d="M15.6,60.2l-1.5-0.1l0.2-5.1c0-0.8-0.7-1.6-1.6-1.6H6.6V52h6.1c1.7,0,3.1,1.4,3.1,3.1L15.6,60.2z"/>
		<g>
			<path d="M14.7,64.7c-0.7-2.2-1.9-4.9-3.3-6.5l3.5,1.4l3.6-1.1C17,60,15.6,62.6,14.7,64.7z"/>
		</g>
	</g>
	<g class="st1">
		<path d="M6.5,55.3L6.5,55.3l-0.7,0.4l-0.1-0.4l0.9-0.5H7v3.9H6.5V55.3z"/>
		<path d="M9.5,55.3L9.5,55.3l-0.7,0.4l-0.1-0.4l0.9-0.5h0.4v3.9H9.5V55.3z"/>
	</g>
</g>
<g id="Stroke9" class="st0">
	<g class="st1">
		<path d="M10.5,6.2c6.7,4.3,14.4,10.9,17.9,15.8l-5.3,4.5c-3.3-5-10.9-11.8-17.6-16.3L10.5,6.2z M39.2,32.7h17.1
			c0.7-2.8,1.4-6.1,1.9-9.1H30.6v-5.8h18.1c-1.3-3.5-4.3-8.2-7.2-11.6l5.2-2.3c3.3,3.6,6.7,8.6,7.9,12.1L51,17.8h21.1l-2.6-1
			C72,13.1,75.2,7.5,77,3.7L85,6c-0.3,0.6-1,0.9-2.1,1c-1.9,3.1-5,7.5-7.7,10.8h19.9v5.8H65.1c-0.7,2.7-1.7,6.1-2.7,9.1h23.8V82
			h-6.7v-3.5H45.7V82h-6.5V32.7z M79.6,46.3v-8.2H45.7v8.2H79.6z M45.7,51.3v8.4h33.8v-8.4H45.7z M45.7,73.2h33.8v-8.5H45.7V73.2z"
			/>
	</g>
	<g class="st1">
		<path d="M10.7,19.8c-2-1.7-4-3.7-4.1-3.8l1.1-1c0.1,0.1,2.1,2,4,3.7L10.7,19.8z"/>
		<g>
			<path d="M14.7,22c-2.2-0.7-5.1-1.3-7.2-1.3l3.2-2l1.2-3.6C12.3,17.4,13.5,20.1,14.7,22z"/>
		</g>
	</g>
	<g class="st1">
		<path d="M1.9,12.1L1.9,12.1l-0.7,0.4L1.1,12L2,11.6h0.4v3.9H1.9V12.1z"/>
		<path d="M6.4,13.5c0,1.3-0.5,2.1-1.4,2.1c-0.8,0-1.3-0.7-1.3-2c0-1.3,0.6-2,1.4-2C6,11.5,6.4,12.3,6.4,13.5z M4.3,13.6
			c0,1,0.3,1.6,0.8,1.6c0.5,0,0.8-0.6,0.8-1.6c0-1-0.2-1.6-0.8-1.6C4.7,11.9,4.3,12.5,4.3,13.6z"/>
	</g>
</g>
<g id="Stroke8" class="st0">
	<g class="st1">
		<path d="M39.2,32.7h17.1c0.7-2.8,1.4-6.1,1.9-9.1H30.6v-5.8h18.1c-1.3-3.5-4.3-8.2-7.2-11.6l5.2-2.3c3.3,3.6,6.7,8.6,7.9,12.1
			L51,17.8h21.1l-2.6-1C72,13.1,75.2,7.5,77,3.7L85,6c-0.3,0.6-1,0.9-2.1,1c-1.9,3.1-5,7.5-7.7,10.8h19.9v5.8H65.1
			c-0.7,2.7-1.7,6.1-2.7,9.1h23.8V82h-6.7v-3.5H45.7V82h-6.5V32.7z M79.6,46.3v-8.2H45.7v8.2H79.6z M45.7,51.3v8.4h33.8v-8.4H45.7z
			 M45.7,73.2h33.8v-8.5H45.7V73.2z"/>
	</g>
	<g class="st1">
		<path d="M47.3,82.6c0.6,0,12.4,0,12.4,0"/>
		<g>
			<rect x="47.3" y="81.8" width="7.9" height="1.5"/>
			<g>
				<path d="M59.7,82.6c-2.1,0.8-4.8,2.1-6.4,3.6l1.3-3.6L53.3,79C55,80.4,57.6,81.8,59.7,82.6z"/>
			</g>
		</g>
	</g>
	<g class="st1">
		<path d="M47.2,88.5c0.1,0,0.2,0,0.4,0c0.3,0,0.6-0.2,0.8-0.4c0.3-0.2,0.4-0.6,0.5-1h0c-0.2,0.3-0.5,0.4-0.9,0.4
			c-0.7,0-1.2-0.5-1.2-1.2c0-0.7,0.5-1.4,1.3-1.4s1.3,0.6,1.3,1.6c0,0.9-0.3,1.5-0.7,1.8c-0.3,0.3-0.7,0.5-1.1,0.5
			c-0.2,0-0.4,0-0.5,0V88.5z M47.4,86.3c0,0.5,0.3,0.8,0.7,0.8c0.4,0,0.6-0.2,0.8-0.4c0,0,0-0.1,0-0.2c0-0.7-0.2-1.2-0.8-1.2
			C47.7,85.3,47.4,85.7,47.4,86.3z"/>
	</g>
</g>
<g id="Stroke7" class="st0">
	<g class="st1">
		<path d="M79.6,64.7H45.7V82h-6.5V32.7h17.1c0.7-2.8,1.4-6.1,1.9-9.1H30.6v-5.8h18.1c-1.3-3.5-4.3-8.2-7.2-11.6l5.2-2.3
			c3.3,3.6,6.7,8.6,7.9,12.1L51,17.8h21.1l-2.6-1C72,13.1,75.2,7.5,77,3.7L85,6c-0.3,0.6-1,0.9-2.1,1c-1.9,3.1-5,7.5-7.7,10.8h19.9
			v5.8H65.1c-0.7,2.7-1.7,6.1-2.7,9.1h23.8V82h-6.7 M79.6,46.3v-8.2H45.7v8.2H79.6z M45.7,51.3v8.4h33.8v-8.4H45.7z"/>
	</g>
	<g class="st1">
		<path d="M47.1,68.8c1.1,0,12.1,0,12.1,0"/>
		<g>
			<rect x="47.1" y="68" width="7.6" height="1.5"/>
			<g>
				<path d="M59.2,68.8c-2.1,0.8-4.8,2.1-6.4,3.6l1.3-3.6l-1.3-3.6C54.5,66.6,57.1,68,59.2,68.8z"/>
			</g>
		</g>
	</g>
	<g class="st1">
		<path d="M47.3,73.6c0-0.5,0.3-0.8,0.8-1l0,0c-0.4-0.2-0.6-0.5-0.6-0.9c0-0.6,0.5-1,1.2-1c0.8,0,1.1,0.5,1.1,1
			c0,0.3-0.2,0.7-0.6,0.9v0c0.5,0.2,0.8,0.5,0.8,1c0,0.7-0.6,1.1-1.3,1.1C47.8,74.6,47.3,74.1,47.3,73.6z M49.4,73.5
			c0-0.5-0.3-0.7-0.9-0.9c-0.5,0.1-0.7,0.4-0.7,0.8c0,0.4,0.3,0.7,0.8,0.7C49.1,74.2,49.4,74,49.4,73.5z M48,71.6
			c0,0.4,0.3,0.6,0.7,0.7c0.3-0.1,0.6-0.4,0.6-0.7c0-0.3-0.2-0.6-0.7-0.6C48.2,71,48,71.3,48,71.6z"/>
	</g>
</g>
<g id="Stroke6" class="st0">
	<g class="st1">
		<path d="M79.6,46.3v-8.2H45.7v8.2H79.6z M79.6,51.3H45.7V82h-6.5V32.7h17.1c0.7-2.8,1.4-6.1,1.9-9.1H30.6v-5.8h18.1
			c-1.3-3.5-4.3-8.2-7.2-11.6l5.2-2.3c3.3,3.6,6.7,8.6,7.9,12.1L51,17.8h21.1l-2.6-1C72,13.1,75.2,7.5,77,3.7L85,6
			c-0.3,0.6-1,0.9-2.1,1c-1.9,3.1-5,7.5-7.7,10.8h19.9v5.8H65.1c-0.7,2.7-1.7,6.1-2.7,9.1h23.8V82h-6.7"/>
	</g>
	<g class="st1">
		<path d="M47.1,55.5c0.3,0,15.5,0,15.5,0"/>
		<g>
			<rect x="47.1" y="54.8" width="11" height="1.5"/>
			<g>
				<path d="M62.7,55.5c-2.1,0.8-4.8,2.1-6.4,3.6l1.3-3.6l-1.3-3.6C57.9,53.4,60.5,54.7,62.7,55.5z"/>
			</g>
		</g>
	</g>
	<g class="st1">
		<path d="M49.9,57.9v0.3l-1.7,3.5h-0.5l1.7-3.4v0h-1.9v-0.4H49.9z"/>
	</g>
</g>
<g id="Stroke5" class="st0">
	<g class="st1">
		<path d="M79.6,38.1H45.7V82h-6.5V32.7h17.1c0.7-2.8,1.4-6.1,1.9-9.1H30.6v-5.8h18.1c-1.3-3.5-4.3-8.2-7.2-11.6l5.2-2.3
			c3.3,3.6,6.7,8.6,7.9,12.1L51,17.8h21.1l-2.6-1C72,13.1,75.2,7.5,77,3.7L85,6c-0.3,0.6-1,0.9-2.1,1c-1.9,3.1-5,7.5-7.7,10.8h19.9
			v5.8H65.1c-0.7,2.7-1.7,6.1-2.7,9.1h23.8V82h-6.7"/>
	</g>
	<g class="st1">
		<line x1="47.4" y1="42" x2="58.2" y2="42"/>
		<g>
			<rect x="47.4" y="41.3" width="6.3" height="1.5"/>
			<g>
				<path d="M58.2,42c-2.1,0.8-4.8,2.1-6.4,3.6l1.3-3.6l-1.3-3.6C53.4,39.9,56.1,41.2,58.2,42z"/>
			</g>
		</g>
	</g>
	<g class="st1">
		<path d="M49.9,44.8c-0.1,0-0.2,0-0.4,0c-0.8,0.1-1.3,0.7-1.4,1.4h0c0.2-0.2,0.5-0.4,0.9-0.4c0.7,0,1.2,0.5,1.2,1.3
			c0,0.7-0.5,1.4-1.3,1.4c-0.8,0-1.4-0.6-1.4-1.7c0-0.8,0.3-1.4,0.7-1.8c0.3-0.3,0.8-0.5,1.2-0.6c0.2,0,0.3,0,0.4,0V44.8z
			 M49.8,47.1c0-0.6-0.3-0.9-0.8-0.9c-0.3,0-0.6,0.2-0.8,0.5c0,0.1-0.1,0.1-0.1,0.2c0,0.6,0.3,1.1,0.9,1.1
			C49.4,48,49.8,47.6,49.8,47.1z"/>
	</g>
</g>
<g id="Stroke4" class="st0">
	<g class="st1">
		<path d="M79.6,82 M58.2,23.6H30.6v-5.8h18.1c-1.3-3.5-4.3-8.2-7.2-11.6l5.2-2.3c3.3,3.6,6.7,8.6,7.9,12.1L51,17.8h21.1l-2.6-1
			C72,13.1,75.2,7.5,77,3.7L85,6c-0.3,0.6-1,0.9-2.1,1c-1.9,3.1-5,7.5-7.7,10.8h19.9v5.8H65.1c-0.7,2.7-1.7,6.1-2.7,9.1
			c-0.9-0.2-6.4,0-6.4,0 M45.7,32.7c0,0,0,4,0,5.4v8.2V82h-6.5V32.7 M45.7,51.3"/>
	</g>
	<g class="st1">
		<path d="M50,32.7c0,0.7,0,11.3,0,11.3"/>
		<g>
			<rect x="49.2" y="32.7" width="1.5" height="6.7"/>
			<g>
				<path d="M50,44c-0.8-2.1-2.1-4.8-3.6-6.4l3.6,1.3l3.6-1.3C52.1,39.2,50.8,41.8,50,44z"/>
			</g>
		</g>
	</g>
	<g class="st1">
		<path d="M54.9,31.8h-1.5l-0.2,1c0.1,0,0.2,0,0.3,0c0.3,0,0.6,0.1,0.8,0.2c0.3,0.2,0.6,0.5,0.6,1c0,0.8-0.6,1.3-1.5,1.3
			c-0.4,0-0.8-0.1-1-0.2l0.1-0.4c0.2,0.1,0.5,0.2,0.8,0.2c0.5,0,0.9-0.3,0.9-0.8c0-0.5-0.3-0.9-1.1-0.9c-0.2,0-0.4,0-0.5,0l0.3-1.9
			h1.9V31.8z"/>
	</g>
</g>
<g id="Stroke3" class="st0">
	<g class="st1">
		<path d="M56.4,32.7c0.7-2.8,1.4-6.1,1.9-9.1H30.6v-5.8h18.1c-1.3-3.5-4.3-8.2-7.2-11.6l5.2-2.3c3.3,3.6,6.7,8.6,7.9,12.1L51,17.8
			h21.1l-2.6-1C72,13.1,75.2,7.5,77,3.7L85,6c-0.3,0.6-1,0.9-2.1,1c-1.9,3.1-5,7.5-7.7,10.8h19.9v5.8H65.1c-0.7,2.7-1.7,6.1-2.7,9.1
			"/>
	</g>
	<g class="st1">
		<path d="M53.8,24.4c0,0-1.6,5-2.2,7.4"/>
		<g>
			<path d="M53.5,27.7l-1.4-0.4c0.5-1.7,1-3.1,1-3.1l1.4,0.5C54.5,24.7,54,26.1,53.5,27.7z"/>
			<g>
				<path d="M51.5,31.8c-0.1-2.3-0.7-5.2-1.6-7.2l3,2.3l3.8-0.2C55,27.9,52.9,30,51.5,31.8z"/>
			</g>
		</g>
	</g>
	<g class="st1">
		<path d="M47.1,28.4v-1.1h-1.8V27l1.7-2.5h0.6v2.4h0.5v0.4h-0.5v1.1H47.1z M47.1,26.9v-1.3c0-0.2,0-0.4,0-0.6h0
			c-0.1,0.2-0.2,0.4-0.3,0.6l-1,1.3v0H47.1z"/>
	</g>
</g>
<g id="Stroke2" class="st0">
	<g class="st1">
		<path d="M58.2,23.6H30.6v-5.8h18.1c-1.3-3.5-4.3-8.2-7.2-11.6l5.2-2.3c3.3,3.6,6.7,8.6,7.9,12.1L51,17.8h21.1l-2.6-1
			C72,13.1,75.2,7.5,77,3.7L85,6c-0.3,0.6-1,0.9-2.1,1c-1.9,3.1-5,7.5-7.7,10.8h19.9v5.8H65.1"/>
	</g>
	<g class="st1">
		<path d="M30.6,27.8c2.9-0.1,16.3,0,16,0"/>
		<g>
			<path d="M30.7,28.5l0-1.5c1.4,0,5.2,0,11.5,0l0,1.5C35.8,28.5,32,28.5,30.7,28.5z"/>
			<g>
				<path d="M46.6,27.8c-2.1,0.8-4.8,2.1-6.4,3.5l1.3-3.6l-1.3-3.6C41.9,25.6,44.5,27,46.6,27.8z"/>
			</g>
		</g>
	</g>
	<g class="st1">
		<path d="M30.8,33.3c0.1,0.1,0.5,0.2,0.9,0.2c0.7,0,0.9-0.4,0.9-0.8c0-0.5-0.5-0.8-1-0.8h-0.3v-0.4h0.3c0.4,0,0.9-0.2,0.9-0.7
			c0-0.3-0.2-0.6-0.7-0.6c-0.3,0-0.6,0.1-0.8,0.3l-0.1-0.4c0.2-0.1,0.6-0.3,1-0.3c0.8,0,1.1,0.5,1.1,0.9c0,0.4-0.2,0.7-0.7,0.9v0
			c0.5,0.1,0.9,0.5,0.9,1c0,0.6-0.5,1.2-1.4,1.2c-0.4,0-0.8-0.1-1-0.3L30.8,33.3z"/>
	</g>
</g>
<g id="Stroke1" class="st0">
	<g class="st1">
		<path d="M65.1,23.6 M48.8,17.8c-1.3-3.5-4.3-8.2-7.2-11.6l5.2-2.3c3.3,3.6,6.7,8.6,7.9,12.1L51,17.8h21.1l-2.6-1
			C72,13.1,75.2,7.5,77,3.7L85,6c-0.3,0.6-1,0.9-2.1,1c-1.9,3.1-5,7.5-7.7,10.8"/>
	</g>
	<g class="st1">
		<path d="M88.1,7.8c0,0-6.6,9.6-6.4,9.6"/>
		<g>
			<path d="M84.8,14l-1.2-0.8c1.8-2.7,3.9-5.8,3.9-5.8l1.2,0.9C88.8,8.2,86.6,11.3,84.8,14z"/>
			<g>
				<path d="M81.8,17.4c0.5-2.2,0.7-5.2,0.4-7.3l2.3,3l3.7,0.8C86.1,14.5,83.6,16,81.8,17.4z"/>
			</g>
		</g>
	</g>
	<g class="st1">
		<path d="M90,10.7v-0.3l0.4-0.4c1-0.9,1.4-1.5,1.5-2c0-0.4-0.2-0.8-0.8-0.8c-0.4,0-0.6,0.2-0.8,0.3l-0.2-0.4
			c0.3-0.2,0.7-0.4,1.1-0.4c0.8,0,1.2,0.6,1.2,1.1c0,0.7-0.5,1.3-1.3,2.1l-0.3,0.3v0h1.8v0.4H90z"/>
	</g>
</g>
<g id="Stroke0" class="st0">
	<g class="st1">
		<path d="M48.8,17.8c-1.3-3.5-4.3-8.2-7.2-11.6l5.2-2.3c3.3,3.6,6.7,8.6,7.9,12.1L51,17.8"/>
	</g>
	<g class="st1">
		<rect x="39.7" y="8.1" transform="matrix(0.8633 -0.5047 0.5047 0.8633 -3.805769e-02 21.9)" width="1.5" height="5.8"/>
		<g>
			<path d="M44.1,17.4c-1.8-1.4-4.3-3-6.3-3.7l3.7-0.7l2.4-2.9C43.6,12.2,43.8,15.2,44.1,17.4z"/>
		</g>
	</g>
	<g class="st1">
		<path d="M35.9,6.4L35.9,6.4l-0.7,0.4l-0.1-0.4L36,5.9h0.4v3.9h-0.5V6.4z"/>
	</g>
</g>
<g id="Kanji" class="st0">
	<g class="st1">
		<path d="M25.4,43.7v32.7c7.8,11.9,22.1,11.9,40.1,11.9c10.8,0,23.5-0.3,31.3-0.8c-0.8,1.6-2,4.8-2.2,6.8
			c-6.9,0.3-17.9,0.5-27.8,0.5c-20.6,0-34.3,0-44.4-12.4c-4.9,4.4-10.2,8.9-14.5,12.3C8,95.6,7.7,96,7,96.3l-3.9-7.4
			c4.8-3.2,10.7-7.8,15.8-12.2V50.1H4.2v-6.4H25.4z M10.5,6.2c6.7,4.3,14.4,10.9,17.9,15.8l-5.3,4.5c-3.3-5-10.9-11.8-17.6-16.3
			L10.5,6.2z M39.2,32.7h17.1c0.7-2.8,1.4-6.1,1.9-9.1H30.6v-5.8h18.1c-1.3-3.5-4.3-8.2-7.2-11.6l5.2-2.3c3.3,3.6,6.7,8.6,7.9,12.1
			L51,17.8h21.1l-2.6-1C72,13.1,75.2,7.5,77,3.7L85,6c-0.3,0.6-1,0.9-2.1,1c-1.9,3.1-5,7.5-7.7,10.8h19.9v5.8H65.1
			c-0.7,2.7-1.7,6.1-2.7,9.1h23.8V82h-6.7v-3.5H45.7V82h-6.5V32.7z M79.6,46.3v-8.2H45.7v8.2H79.6z M45.7,51.3v8.4h33.8v-8.4H45.7z
			 M45.7,73.2h33.8v-8.5H45.7V73.2z"/>
	</g>
</g>
</svg>
