<?xml version="1.0" encoding="utf-8"?>
<!-- Generator: Adobe Illustrator 26.2.1, SVG Export Plug-In . SVG Version: 6.00 Build 0)  -->
<svg version="1.1" xmlns="http://www.w3.org/2000/svg" xmlns:xlink="http://www.w3.org/1999/xlink" x="0px" y="0px"
	 viewBox="0 0 100 100" style="enable-background:new 0 0 100 100;" xml:space="preserve" width = "100px" height = "100px">
<style type="text/css">
	.st0{display:none;}
	.st1{display:inline;}
</style> 


		<path d="M39.2,32.7h17.1c0.7-2.8,1.4-6.1,1.9-9.1H30.6v-5.8h18.1c-1.3-3.5-4.3-8.2-7.2-11.6l5.2-2.3c3.3,3.6,6.7,8.6,7.9,12.1
			L51,17.8h21.1l-2.6-1C72,13.1,75.2,7.5,77,3.7L85,6c-0.3,0.6-1,0.9-2.1,1c-1.9,3.1-5,7.5-7.7,10.8h19.9v5.8H65.1
			c-0.7,2.7-1.7,6.1-2.7,9.1h23.8V82h-6.7v-3.5H45.7V82h-6.5V32.7z M79.6,46.3v-8.2H45.7v8.2H79.6z M45.7,51.3v8.4h33.8v-8.4H45.7z
			 M45.7,73.2h33.8v-8.5H45.7V73.2z"/>

		<path d="M47.3,82.6c0.6,0,12.4,0,12.4,0"/>

			<rect x="47.3" y="81.8" width="7.9" height="1.5"/>
	
				<path d="M59.7,82.6c-2.1,0.8-4.8,2.1-6.4,3.6l1.3-3.6L53.3,79C55,80.4,57.6,81.8,59.7,82.6z"/>

		<path d="M47.2,88.5c0.1,0,0.2,0,0.4,0c0.3,0,0.6-0.2,0.8-0.4c0.3-0.2,0.4-0.6,0.5-1h0c-0.2,0.3-0.5,0.4-0.9,0.4
			c-0.7,0-1.2-0.5-1.2-1.2c0-0.7,0.5-1.4,1.3-1.4s1.3,0.6,1.3,1.6c0,0.9-0.3,1.5-0.7,1.8c-0.3,0.3-0.7,0.5-1.1,0.5
			c-0.2,0-0.4,0-0.5,0V88.5z M47.4,86.3c0,0.5,0.3,0.8,0.7,0.8c0.4,0,0.6-0.2,0.8-0.4c0,0,0-0.1,0-0.2c0-0.7-0.2-1.2-0.8-1.2
			C47.7,85.3,47.4,85.7,47.4,86.3z"/>


</svg>