<?xml version="1.0" encoding="utf-8"?>
<!-- Generator: Adobe Illustrator 26.2.1, SVG Export Plug-In . SVG Version: 6.00 Build 0)  -->
<svg version="1.1" xmlns="http://www.w3.org/2000/svg" xmlns:xlink="http://www.w3.org/1999/xlink" x="0px" y="0px"
	 viewBox="0 0 100 100" style="enable-background:new 0 0 100 100;" xml:space="preserve" width = "100px" height = "100px">
<style type="text/css">
	.st0{display:none;}
	.st1{display:inline;}
</style> 


		<path d="M79.6,46.3v-8.2H45.7v8.2H79.6z M79.6,51.3H45.7V82h-6.5V32.7h17.1c0.7-2.8,1.4-6.1,1.9-9.1H30.6v-5.8h18.1
			c-1.3-3.5-4.3-8.2-7.2-11.6l5.2-2.3c3.3,3.6,6.7,8.6,7.9,12.1L51,17.8h21.1l-2.6-1C72,13.1,75.2,7.5,77,3.7L85,6
			c-0.3,0.6-1,0.9-2.1,1c-1.9,3.1-5,7.5-7.7,10.8h19.9v5.8H65.1c-0.7,2.7-1.7,6.1-2.7,9.1h23.8V82h-6.7"/>

		<path d="M47.1,55.5c0.3,0,15.5,0,15.5,0"/>

			<rect x="47.1" y="54.8" width="11" height="1.5"/>
			
				<path d="M62.7,55.5c-2.1,0.8-4.8,2.1-6.4,3.6l1.3-3.6l-1.3-3.6C57.9,53.4,60.5,54.7,62.7,55.5z"/>

		<path d="M49.9,57.9v0.3l-1.7,3.5h-0.5l1.7-3.4v0h-1.9v-0.4H49.9z"/>



</svg>