<?xml version="1.0" encoding="utf-8"?>
<!-- Generator: Adobe Illustrator 26.2.1, SVG Export Plug-In . SVG Version: 6.00 Build 0)  -->
<svg version="1.1" xmlns="http://www.w3.org/2000/svg" xmlns:xlink="http://www.w3.org/1999/xlink" x="0px" y="0px"
	 viewBox="0 0 100 100" style="enable-background:new 0 0 100 100;" xml:space="preserve" width = "100px" height = "100px">
<style type="text/css">
	.st0{display:none;}
	.st1{display:inline;}
</style> 

		<path d="M65.1,23.6 M48.8,17.8c-1.3-3.5-4.3-8.2-7.2-11.6l5.2-2.3c3.3,3.6,6.7,8.6,7.9,12.1L51,17.8h21.1l-2.6-1
			C72,13.1,75.2,7.5,77,3.7L85,6c-0.3,0.6-1,0.9-2.1,1c-1.9,3.1-5,7.5-7.7,10.8"/>

		<path d="M88.1,7.8c0,0-6.6,9.6-6.4,9.6"/>
	
			<path d="M84.8,14l-1.2-0.8c1.8-2.7,3.9-5.8,3.9-5.8l1.2,0.9C88.8,8.2,86.6,11.3,84.8,14z"/>

				<path d="M81.8,17.4c0.5-2.2,0.7-5.2,0.4-7.3l2.3,3l3.7,0.8C86.1,14.5,83.6,16,81.8,17.4z"/>

		<path d="M90,10.7v-0.3l0.4-0.4c1-0.9,1.4-1.5,1.5-2c0-0.4-0.2-0.8-0.8-0.8c-0.4,0-0.6,0.2-0.8,0.3l-0.2-0.4
			c0.3-0.2,0.7-0.4,1.1-0.4c0.8,0,1.2,0.6,1.2,1.1c0,0.7-0.5,1.3-1.3,2.1l-0.3,0.3v0h1.8v0.4H90z"/>

</svg>