<?xml version="1.0" encoding="utf-8"?>
<!-- Generator: Adobe Illustrator 26.2.1, SVG Export Plug-In . SVG Version: 6.00 Build 0)  -->
<svg version="1.1" xmlns="http://www.w3.org/2000/svg" xmlns:xlink="http://www.w3.org/1999/xlink" x="0px" y="0px"
	 viewBox="0 0 100 100" style="enable-background:new 0 0 100 100;" xml:space="preserve" width = "100px" height = "100px">
<style type="text/css">
	.st0{display:none;}
	.st1{display:inline;}
</style>

		<path d="M10.5,6.2c6.7,4.3,14.4,10.9,17.9,15.8l-5.3,4.5c-3.3-5-10.9-11.8-17.6-16.3L10.5,6.2z M39.2,32.7h17.1
			c0.7-2.8,1.4-6.1,1.9-9.1H30.6v-5.8h18.1c-1.3-3.5-4.3-8.2-7.2-11.6l5.2-2.3c3.3,3.6,6.7,8.6,7.9,12.1L51,17.8h21.1l-2.6-1
			C72,13.1,75.2,7.5,77,3.7L85,6c-0.3,0.6-1,0.9-2.1,1c-1.9,3.1-5,7.5-7.7,10.8h19.9v5.8H65.1c-0.7,2.7-1.7,6.1-2.7,9.1h23.8V82
			h-6.7v-3.5H45.7V82h-6.5V32.7z M79.6,46.3v-8.2H45.7v8.2H79.6z M45.7,51.3v8.4h33.8v-8.4H45.7z M45.7,73.2h33.8v-8.5H45.7V73.2z"
			/>

		<path d="M10.7,19.8c-2-1.7-4-3.7-4.1-3.8l1.1-1c0.1,0.1,2.1,2,4,3.7L10.7,19.8z"/>

			<path d="M14.7,22c-2.2-0.7-5.1-1.3-7.2-1.3l3.2-2l1.2-3.6C12.3,17.4,13.5,20.1,14.7,22z"/>

		<path d="M1.9,12.1L1.9,12.1l-0.7,0.4L1.1,12L2,11.6h0.4v3.9H1.9V12.1z"/>
		<path d="M6.4,13.5c0,1.3-0.5,2.1-1.4,2.1c-0.8,0-1.3-0.7-1.3-2c0-1.3,0.6-2,1.4-2C6,11.5,6.4,12.3,6.4,13.5z M4.3,13.6
			c0,1,0.3,1.6,0.8,1.6c0.5,0,0.8-0.6,0.8-1.6c0-1-0.2-1.6-0.8-1.6C4.7,11.9,4.3,12.5,4.3,13.6z"/>

 </svg>