<?xml version="1.0" encoding="utf-8"?>
<!-- Generator: Adobe Illustrator 26.2.1, SVG Export Plug-In . SVG Version: 6.00 Build 0)  -->
<svg version="1.1" xmlns="http://www.w3.org/2000/svg" xmlns:xlink="http://www.w3.org/1999/xlink" x="0px" y="0px"
	 viewBox="0 0 100 100" style="enable-background:new 0 0 100 100;" xml:space="preserve" width = "100px" height = "100px">
<style type="text/css">
	.st0{display:none;}
	.st1{display:inline;}
</style> 

		<path d="M56.4,32.7c0.7-2.8,1.4-6.1,1.9-9.1H30.6v-5.8h18.1c-1.3-3.5-4.3-8.2-7.2-11.6l5.2-2.3c3.3,3.6,6.7,8.6,7.9,12.1L51,17.8
			h21.1l-2.6-1C72,13.1,75.2,7.5,77,3.7L85,6c-0.3,0.6-1,0.9-2.1,1c-1.9,3.1-5,7.5-7.7,10.8h19.9v5.8H65.1c-0.7,2.7-1.7,6.1-2.7,9.1
			"/>

		<path d="M53.8,24.4c0,0-1.6,5-2.2,7.4"/>

			<path d="M53.5,27.7l-1.4-0.4c0.5-1.7,1-3.1,1-3.1l1.4,0.5C54.5,24.7,54,26.1,53.5,27.7z"/>

				<path d="M51.5,31.8c-0.1-2.3-0.7-5.2-1.6-7.2l3,2.3l3.8-0.2C55,27.9,52.9,30,51.5,31.8z"/>

		<path d="M47.1,28.4v-1.1h-1.8V27l1.7-2.5h0.6v2.4h0.5v0.4h-0.5v1.1H47.1z M47.1,26.9v-1.3c0-0.2,0-0.4,0-0.6h0
			c-0.1,0.2-0.2,0.4-0.3,0.6l-1,1.3v0H47.1z"/>

</svg>