<?xml version="1.0" encoding="utf-8"?>
<!-- Generator: Adobe Illustrator 26.2.1, SVG Export Plug-In . SVG Version: 6.00 Build 0)  -->
<svg version="1.1" xmlns="http://www.w3.org/2000/svg" xmlns:xlink="http://www.w3.org/1999/xlink" x="0px" y="0px"
	 viewBox="0 0 100 100" style="enable-background:new 0 0 100 100;" xml:space="preserve" width = "100px" height = "100px">
<style type="text/css">
	.st0{display:none;}
	.st1{display:inline;}
</style> 


		<path d="M25.4,43.7v32.7c7.8,11.9,22.1,11.9,40.1,11.9c10.8,0,23.5-0.3,31.3-0.8c-0.8,1.6-2,4.8-2.2,6.8
			c-6.9,0.3-17.9,0.5-27.8,0.5c-20.6,0-34.3,0-44.4-12.4c-4.9,4.4-10.2,8.9-14.5,12.3C8,95.6,7.7,96,7,96.3l-3.9-7.4
			c4.8-3.2,10.7-7.8,15.8-12.2V50.1H4.2v-6.4H25.4z M10.5,6.2c6.7,4.3,14.4,10.9,17.9,15.8l-5.3,4.5c-3.3-5-10.9-11.8-17.6-16.3
			L10.5,6.2z M39.2,32.7h17.1c0.7-2.8,1.4-6.1,1.9-9.1H30.6v-5.8h18.1c-1.3-3.5-4.3-8.2-7.2-11.6l5.2-2.3c3.3,3.6,6.7,8.6,7.9,12.1
			L51,17.8h21.1l-2.6-1C72,13.1,75.2,7.5,77,3.7L85,6c-0.3,0.6-1,0.9-2.1,1c-1.9,3.1-5,7.5-7.7,10.8h19.9v5.8H65.1
			c-0.7,2.7-1.7,6.1-2.7,9.1h23.8V82h-6.7v-3.5H45.7V82h-6.5V32.7z M79.6,46.3v-8.2H45.7v8.2H79.6z M45.7,51.3v8.4h33.8v-8.4H45.7z
			 M45.7,73.2h33.8v-8.5H45.7V73.2z"/>

		<path d="M30.9,94.6c-1.2-0.6-2.4-1.2-3.6-1.8C25.1,91.5,23,90,21,88.4l1-1.2c1.9,1.6,4,3,6.1,4.3c1.1,0.6,2.3,1.2,3.4,1.8
			L30.9,94.6z"/>
	
		<path d="M35.4,95.6c-2.3-0.1-5.2,0.2-7.3,0.9l2.6-2.8l0.2-3.8C31.8,91.8,33.8,94.1,35.4,95.6z"/>

		<path d="M16.9,90.3L16.9,90.3l-0.7,0.4l-0.1-0.4l0.9-0.5h0.4v3.9h-0.5V90.3z"/>
		<path d="M18.8,93.7v-0.3l0.4-0.4c1-0.9,1.4-1.5,1.5-2c0-0.4-0.2-0.8-0.8-0.8c-0.4,0-0.6,0.2-0.8,0.3l-0.2-0.4
			c0.3-0.2,0.7-0.4,1.1-0.4c0.8,0,1.2,0.6,1.2,1.1c0,0.7-0.5,1.3-1.3,2.1l-0.3,0.3v0h1.8v0.4H18.8z"/>


</svg>