<?xml version="1.0" encoding="utf-8"?>
<!-- Generator: Adobe Illustrator 26.2.1, SVG Export Plug-In . SVG Version: 6.00 Build 0)  -->
<svg version="1.1" xmlns="http://www.w3.org/2000/svg" xmlns:xlink="http://www.w3.org/1999/xlink" x="0px" y="0px"
	 viewBox="0 0 100 100" style="enable-background:new 0 0 100 100;" xml:space="preserve" width = "100px" height = "100px">
<style type="text/css">
	.st0{display:none;}
	.st1{display:inline;}
</style>



		<path d="M79.6,38.1H45.7V82h-6.5V32.7h17.1c0.7-2.8,1.4-6.1,1.9-9.1H30.6v-5.8h18.1c-1.3-3.5-4.3-8.2-7.2-11.6l5.2-2.3
			c3.3,3.6,6.7,8.6,7.9,12.1L51,17.8h21.1l-2.6-1C72,13.1,75.2,7.5,77,3.7L85,6c-0.3,0.6-1,0.9-2.1,1c-1.9,3.1-5,7.5-7.7,10.8h19.9
			v5.8H65.1c-0.7,2.7-1.7,6.1-2.7,9.1h23.8V82h-6.7"/>

		<line x1="47.4" y1="42" x2="58.2" y2="42"/>
	
			<rect x="47.4" y="41.3" width="6.3" height="1.5"/>

				<path d="M58.2,42c-2.1,0.8-4.8,2.1-6.4,3.6l1.3-3.6l-1.3-3.6C53.4,39.9,56.1,41.2,58.2,42z"/>

		<path d="M49.9,44.8c-0.1,0-0.2,0-0.4,0c-0.8,0.1-1.3,0.7-1.4,1.4h0c0.2-0.2,0.5-0.4,0.9-0.4c0.7,0,1.2,0.5,1.2,1.3
			c0,0.7-0.5,1.4-1.3,1.4c-0.8,0-1.4-0.6-1.4-1.7c0-0.8,0.3-1.4,0.7-1.8c0.3-0.3,0.8-0.5,1.2-0.6c0.2,0,0.3,0,0.4,0V44.8z
			 M49.8,47.1c0-0.6-0.3-0.9-0.8-0.9c-0.3,0-0.6,0.2-0.8,0.5c0,0.1-0.1,0.1-0.1,0.2c0,0.6,0.3,1.1,0.9,1.1
			C49.4,48,49.8,47.6,49.8,47.1z"/>




 </svg>