<?xml version="1.0" encoding="utf-8"?>
<!-- Generator: Adobe Illustrator 26.2.1, SVG Export Plug-In . SVG Version: 6.00 Build 0)  -->
<svg version="1.1" xmlns="http://www.w3.org/2000/svg" xmlns:xlink="http://www.w3.org/1999/xlink" x="0px" y="0px"
	 viewBox="0 0 100 100" style="enable-background:new 0 0 100 100;" xml:space="preserve" width = "100px" height = "100px">
<style type="text/css">
	.st0{display:none;}
	.st1{display:inline;}
</style> 


		<path d="M79.6,82 M58.2,23.6H30.6v-5.8h18.1c-1.3-3.5-4.3-8.2-7.2-11.6l5.2-2.3c3.3,3.6,6.7,8.6,7.9,12.1L51,17.8h21.1l-2.6-1
			C72,13.1,75.2,7.5,77,3.7L85,6c-0.3,0.6-1,0.9-2.1,1c-1.9,3.1-5,7.5-7.7,10.8h19.9v5.8H65.1c-0.7,2.7-1.7,6.1-2.7,9.1
			c-0.9-0.2-6.4,0-6.4,0 M45.7,32.7c0,0,0,4,0,5.4v8.2V82h-6.5V32.7 M45.7,51.3"/>

		<path d="M50,32.7c0,0.7,0,11.3,0,11.3"/>

			<rect x="49.2" y="32.7" width="1.5" height="6.7"/>
		
				<path d="M50,44c-0.8-2.1-2.1-4.8-3.6-6.4l3.6,1.3l3.6-1.3C52.1,39.2,50.8,41.8,50,44z"/>

		<path d="M54.9,31.8h-1.5l-0.2,1c0.1,0,0.2,0,0.3,0c0.3,0,0.6,0.1,0.8,0.2c0.3,0.2,0.6,0.5,0.6,1c0,0.8-0.6,1.3-1.5,1.3
			c-0.4,0-0.8-0.1-1-0.2l0.1-0.4c0.2,0.1,0.5,0.2,0.8,0.2c0.5,0,0.9-0.3,0.9-0.8c0-0.5-0.3-0.9-1.1-0.9c-0.2,0-0.4,0-0.5,0l0.3-1.9
			h1.9V31.8z"/>

</svg>