<?xml version="1.0" encoding="utf-8"?>
<!-- Generator: Adobe Illustrator 26.2.1, SVG Export Plug-In . SVG Version: 6.00 Build 0)  -->
<svg version="1.1" xmlns="http://www.w3.org/2000/svg" xmlns:xlink="http://www.w3.org/1999/xlink" x="0px" y="0px"
	 viewBox="0 0 100 100" style="enable-background:new 0 0 100 100;" xml:space="preserve">
<style type="text/css">
	.st0{fill:none;}
	.st1{display:none;}
	.st2{display:inline;fill:none;}
	.st3{display:inline;}
</style>
<g id="Stroke3">
	<rect x="17.2" y="27.6" class="st0" width="12.6" height="0"/>
	<g>
		<path d="M78.2,40.9L83,43c-0.2,0.5-0.6,0.9-1,1.1c-4,13.8-10.9,24.5-19.7,32.8c9.3,6.3,20.8,10.8,34.5,13.2
			c-1.6,1.5-3.6,4.4-4.5,6.3c-14.1-2.9-25.9-7.9-35.5-15c-9.1,7-19.8,11.9-31.3,15.1c-0.8-1.8-2.5-4.5-3.9-5.9
			c10.7-2.7,21-7.2,29.7-13.7C44,70.3,38.1,62.2,33.6,52.6c-5,15.1-13,29.3-24.9,40.2c-1.1-1.6-3.7-3.9-5.5-4.9
			c17.5-15.3,26.1-38.2,29.5-60.6h-27v-6.7h27.9c0.6-5.8,0.9-11.6,1-17.1l9.2,0.4c-0.2,0.9-0.8,1.6-2.3,1.7c-0.1,4.8-0.4,9.8-1,15
			h54.4v6.7H39.6c-0.7,4.6-1.5,9.3-2.7,13.9h40L78.2,40.9z M38.4,47.7c4.2,9.8,10.2,18.2,18.2,24.9c7.2-6.6,13-14.8,16.6-24.9H38.4z
			"/>
	</g>
	<g>
		<path d="M40.6,72.8c-1.1-1.3-2.2-2.7-3.3-4.1c-1.9-2.5-3.6-5-5.2-7.7l1.3-0.8c1.6,2.6,3.3,5.1,5.2,7.5c1,1.4,2.1,2.8,3.2,4.1
			L40.6,72.8z"/>
		<g>
			<path d="M44.1,75.7c-2-1.1-4.7-2.2-6.9-2.5l3.5-1.4l1.8-3.3C42.6,70.7,43.3,73.6,44.1,75.7z"/>
		</g>
	</g>
	<g>
		<path d="M31.7,68.2v-1.1h-1.8v-0.3l1.7-2.5h0.6v2.4h0.5v0.4h-0.5v1.1H31.7z M31.7,66.7v-1.3c0-0.2,0-0.4,0-0.6h0
			c-0.1,0.2-0.2,0.4-0.3,0.6l-1,1.3v0H31.7z"/>
	</g>
</g>
<g id="Stroke2" class="st1">
	<rect x="17.2" y="27.6" class="st2" width="12.6" height="0"/>
	<g class="st3">
		<path d="M33.6,52.6c-5,15.1-13,29.3-24.9,40.2c-1.1-1.6-3.7-3.9-5.5-4.9c17.5-15.3,26.1-38.2,29.5-60.6h-27v-6.7h27.9
			c0.6-5.8,0.9-11.6,1-17.1l9.2,0.4c-0.2,0.9-0.8,1.6-2.3,1.7c-0.1,4.8-0.4,9.8-1,15h54.4v6.7H39.6c-0.7,4.6-1.5,9.3-2.7,13.9h40
			l1.3-0.3L83,43c-0.2,0.5-0.6,0.9-1,1.1c-4,13.8-10.9,24.5-19.7,32.8l-5.5,4.5c-9.1,7-19.8,11.9-31.3,15.1
			c-0.8-1.8-2.5-4.5-3.9-5.9c10.7-2.7,21-7.2,29.7-13.7l5.3-4.3c7.2-6.6,13-14.8,16.6-24.9H38.4h-3.5"/>
	</g>
	<g class="st3">
		<path d="M61.1,63l-1.3-0.7l3.5-7.2c0.4-0.9,0.4-1.9-0.1-2.7c-0.6-1-1.8-1.6-3.1-1.6h-24v-1.5h24c1.8,0,3.5,0.9,4.4,2.3
			c0.8,1.3,0.9,2.8,0.2,4.2L61.1,63z"/>
		<g>
			<path d="M58.5,66.7c0.2-2.3,0.2-5.2-0.4-7.3l2.6,2.7l3.8,0.4C62.5,63.4,60.1,65.1,58.5,66.7z"/>
		</g>
	</g>
	<g class="st3">
		<path d="M36.5,55.8c0.1,0.1,0.5,0.2,0.9,0.2c0.7,0,0.9-0.4,0.9-0.8c0-0.5-0.5-0.8-1-0.8h-0.3v-0.4h0.3c0.4,0,0.9-0.2,0.9-0.7
			c0-0.3-0.2-0.6-0.7-0.6c-0.3,0-0.6,0.1-0.8,0.3l-0.1-0.4c0.2-0.1,0.6-0.3,1-0.3c0.8,0,1.1,0.5,1.1,0.9c0,0.4-0.2,0.7-0.7,0.9v0
			c0.5,0.1,0.9,0.5,0.9,1c0,0.6-0.5,1.2-1.4,1.2c-0.4,0-0.8-0.1-1-0.3L36.5,55.8z"/>
	</g>
</g>
<g id="Stroke1" class="st1">
	<rect x="17.2" y="27.6" class="st2" width="12.6" height="0"/>
	<g class="st3">
		<path d="M33.6,52.6c-5,15.1-13,29.3-24.9,40.2c-1.1-1.6-3.7-3.9-5.5-4.9c17.5-15.3,26.1-38.2,29.5-60.6h-27v-6.7h27.9
			c0.6-5.8,0.9-11.6,1-17.1l9.2,0.4c-0.2,0.9-0.8,1.6-2.3,1.7c-0.1,4.8-0.4,9.8-1,15h54.4v6.7H39.6c-0.7,4.6-1.5,9.3-2.7,13.9"/>
	</g>
	<g class="st3">
		<path d="M46.5,13L45,12.8c0.1-0.4,0.1-0.9,0.2-1.3c0.3-2.1,0.5-4.3,0.6-6.5L47.3,5c-0.1,2.2-0.3,4.4-0.6,6.6
			C46.6,12.1,46.6,12.5,46.5,13z"/>
		<g>
			<path d="M44.9,17.3c-0.4-2.2-1.2-5.1-2.4-6.9l3.3,1.9l3.7-0.6C47.8,13,46,15.4,44.9,17.3z"/>
		</g>
	</g>
	<g class="st3">
		<path d="M50.3,10V9.7l0.4-0.4c1-0.9,1.4-1.5,1.5-2c0-0.4-0.2-0.8-0.8-0.8c-0.4,0-0.6,0.2-0.8,0.3l-0.2-0.4C50.6,6.2,51,6,51.5,6
			c0.8,0,1.2,0.6,1.2,1.1c0,0.7-0.5,1.3-1.3,2.1L51,9.5v0h1.8V10H50.3z"/>
	</g>
</g>
<g id="Stroke0" class="st1">
	<rect x="17.2" y="27.6" class="st2" width="12.6" height="0"/>
	<g class="st3">
		<path d="M32.7,27.3h-27v-6.7h27.9h6.9h54.4v6.7H39.6 M8.7,92.8"/>
	</g>
	<g class="st3">
		<line x1="5.9" y1="32.2" x2="24.5" y2="32.2"/>
		<g>
			<rect x="5.9" y="31.5" width="14.1" height="1.5"/>
			<g>
				<path d="M24.5,32.2c-2.1,0.8-4.8,2.1-6.4,3.6l1.3-3.6l-1.3-3.6C19.8,30.1,22.4,31.4,24.5,32.2z"/>
			</g>
		</g>
	</g>
	<g class="st3">
		<path d="M7.3,36.6L7.3,36.6L6.6,37l-0.1-0.4l0.9-0.5h0.4V40H7.3V36.6z"/>
	</g>
</g>
<g id="Kanji" class="st1">
	<rect x="17.2" y="27.6" class="st2" width="12.6" height="0"/>
	<g class="st3">
		<path d="M78.2,40.9L83,43c-0.2,0.5-0.6,0.9-1,1.1c-4,13.8-10.9,24.5-19.7,32.8c9.3,6.3,20.8,10.8,34.5,13.2
			c-1.6,1.5-3.6,4.4-4.5,6.3c-14.1-2.9-25.9-7.9-35.5-15c-9.1,7-19.8,11.9-31.3,15.1c-0.8-1.8-2.5-4.5-3.9-5.9
			c10.7-2.7,21-7.2,29.7-13.7C44,70.3,38.1,62.2,33.6,52.6c-5,15.1-13,29.3-24.9,40.2c-1.1-1.6-3.7-3.9-5.5-4.9
			c17.5-15.3,26.1-38.2,29.5-60.6h-27v-6.7h27.9c0.6-5.8,0.9-11.6,1-17.1l9.2,0.4c-0.2,0.9-0.8,1.6-2.3,1.7c-0.1,4.8-0.4,9.8-1,15
			h54.4v6.7H39.6c-0.7,4.6-1.5,9.3-2.7,13.9h40L78.2,40.9z M38.4,47.7c4.2,9.8,10.2,18.2,18.2,24.9c7.2-6.6,13-14.8,16.6-24.9H38.4z
			"/>
	</g>
</g>
</svg>
