<?xml version="1.0" encoding="utf-8"?>
<!-- Generator: Adobe Illustrator 26.2.1, SVG Export Plug-In . SVG Version: 6.00 Build 0)  -->
<svg version="1.1" xmlns="http://www.w3.org/2000/svg" xmlns:xlink="http://www.w3.org/1999/xlink" x="0px" y="0px"
	 viewBox="0 0 100 100" style="enable-background:new 0 0 100 100;" xml:space="preserve" width = "100px" height = "100px">
<style type="text/css">
	.st0{display:none;}
	.st1{display:inline;}
</style> 


	<rect x="17.2" y="27.6" class="st0" width="12.6" height="0"/>

		<path d="M78.2,40.9L83,43c-0.2,0.5-0.6,0.9-1,1.1c-4,13.8-10.9,24.5-19.7,32.8c9.3,6.3,20.8,10.8,34.5,13.2
			c-1.6,1.5-3.6,4.4-4.5,6.3c-14.1-2.9-25.9-7.9-35.5-15c-9.1,7-19.8,11.9-31.3,15.1c-0.8-1.8-2.5-4.5-3.9-5.9
			c10.7-2.7,21-7.2,29.7-13.7C44,70.3,38.1,62.2,33.6,52.6c-5,15.1-13,29.3-24.9,40.2c-1.1-1.6-3.7-3.9-5.5-4.9
			c17.5-15.3,26.1-38.2,29.5-60.6h-27v-6.7h27.9c0.6-5.8,0.9-11.6,1-17.1l9.2,0.4c-0.2,0.9-0.8,1.6-2.3,1.7c-0.1,4.8-0.4,9.8-1,15
			h54.4v6.7H39.6c-0.7,4.6-1.5,9.3-2.7,13.9h40L78.2,40.9z M38.4,47.7c4.2,9.8,10.2,18.2,18.2,24.9c7.2-6.6,13-14.8,16.6-24.9H38.4z
			"/>

		<path d="M40.6,72.8c-1.1-1.3-2.2-2.7-3.3-4.1c-1.9-2.5-3.6-5-5.2-7.7l1.3-0.8c1.6,2.6,3.3,5.1,5.2,7.5c1,1.4,2.1,2.8,3.2,4.1
			L40.6,72.8z"/>

			<path d="M44.1,75.7c-2-1.1-4.7-2.2-6.9-2.5l3.5-1.4l1.8-3.3C42.6,70.7,43.3,73.6,44.1,75.7z"/>

		<path d="M31.7,68.2v-1.1h-1.8v-0.3l1.7-2.5h0.6v2.4h0.5v0.4h-0.5v1.1H31.7z M31.7,66.7v-1.3c0-0.2,0-0.4,0-0.6h0
			c-0.1,0.2-0.2,0.4-0.3,0.6l-1,1.3v0H31.7z"/>


</svg>