<?xml version="1.0" encoding="utf-8"?>
<!-- Generator: Adobe Illustrator 26.2.1, SVG Export Plug-In . SVG Version: 6.00 Build 0)  -->
<svg version="1.1" xmlns="http://www.w3.org/2000/svg" xmlns:xlink="http://www.w3.org/1999/xlink" x="0px" y="0px"
	 viewBox="0 0 100 100" style="enable-background:new 0 0 100 100;" xml:space="preserve">
<style type="text/css">
	.st0{fill:none;}
	.st1{display:none;}
	.st2{display:inline;fill:none;}
	.st3{display:inline;}
	.st4{fill:none;stroke:#000000;stroke-width:1.5;stroke-miterlimit:10;}
	.st5{font-family:'MyriadPro-Regular';}
	.st6{font-size:6px;}
</style>
<g id="Stroke5">
	<rect x="17.2" y="27.6" class="st0" width="12.6" height="0"/>
	<g>
		<path d="M77.7,70.5c6-0.5,11.9-0.9,17.8-1.3l-0.2,6.3c-5.8,0.5-11.7,0.9-17.6,1.3v16.1h-6.9V77.4c-23.9,1.7-47,3.3-62.4,4.3
			c-0.2,0.9-0.8,1.3-1.6,1.4L4.5,75L22,74V13.7H6.1V7.1h88.2v6.6H77.7V70.5z M70.8,13.7H28.9v15h41.9V13.7z M28.9,34.9v16h41.9v-16
			H28.9z M28.9,57.2v16.3c12.7-0.8,27.2-1.7,41.9-2.7V57.2H28.9z"/>
	</g>
	<g>
		<path d="M82.2,15.8c0,0.3,0,19.9,0,19.9"/>
		<g>
			<rect x="81.5" y="15.8" width="1.5" height="15.4"/>
			<g>
				<path d="M82.2,35.7c-0.8-2.1-2.1-4.8-3.6-6.4l3.6,1.3l3.6-1.3C84.4,30.9,83,33.5,82.2,35.7z"/>
			</g>
		</g>
	</g>
	<g>
		<path d="M87.1,16.4c-0.1,0-0.2,0-0.4,0c-0.8,0.1-1.3,0.7-1.4,1.4h0c0.2-0.2,0.5-0.4,0.9-0.4c0.7,0,1.2,0.5,1.2,1.3
			c0,0.7-0.5,1.4-1.3,1.4c-0.8,0-1.4-0.6-1.4-1.7c0-0.8,0.3-1.4,0.7-1.8c0.3-0.3,0.8-0.5,1.2-0.6c0.2,0,0.3,0,0.4,0V16.4z
			 M86.9,18.7c0-0.6-0.3-0.9-0.8-0.9c-0.3,0-0.6,0.2-0.8,0.5c0,0.1-0.1,0.1-0.1,0.2c0,0.6,0.3,1.1,0.9,1.1
			C86.6,19.6,86.9,19.2,86.9,18.7z"/>
	</g>
</g>
<g id="Stroke4" class="st1">
	<rect x="17.2" y="27.6" class="st2" width="12.6" height="0"/>
	<g class="st3">
		<path d="M70.8,57.2H28.9v16.3l41.9-2.4l6.9-0.7c6-0.5,11.9-0.9,17.8-1.3l-0.2,6.3c-5.8,0.5-11.7,0.9-17.6,1.3l-6.9,0.6
			c-23.9,1.7-47,3.3-62.4,4.3c-0.2,0.9-0.8,1.3-1.6,1.4L4.5,75L22,74V13.7H6.1V7.1h88.2v6.6H28.9v15h41.9l0,6.2H28.9v16l41.8,0.6"/>
	</g>
	<g class="st3">
		<path d="M11.5,86.3c0.4-0.1,32.7-2.8,32.7-2.8"/>
		<g>
			<path class="st4" d="M11.5,86.3c0.3-0.1,19.3-1.7,28.2-2.4"/>
			<g>
				<path d="M44.3,83.5c-2.1,1-4.6,2.5-6.1,4.1l1-3.7l-1.6-3.4C39.3,81.7,42.1,82.9,44.3,83.5z"/>
			</g>
		</g>
	</g>
	<text transform="matrix(1 0 0 1 13.1587 91.9424)" class="st3 st5 st6">5</text>
</g>
<g id="Stroke3" class="st1">
	<rect x="17.2" y="27.6" class="st2" width="12.6" height="0"/>
	<g class="st3">
		<path d="M28.9,34.9v16h41.9v6.3H42.9h-14v16.3h-7L22,13.7H6.1V7.1h88.2v6.6H28.9v15l41.9,0.2v6"/>
	</g>
	<path class="st3" d="M50.2,50.9"/>
	<g class="st3">
		<path d="M31.5,61.2c1.7,0,19.4,0,19.4,0"/>
		<g>
			<path class="st4" d="M31.5,61.2c1.2,0,9.5,0,14.9,0"/>
			<g>
				<path d="M50.9,61.2c-2.1,0.8-4.8,2.1-6.4,3.6l1.3-3.6l-1.3-3.6C46.1,59,48.8,60.4,50.9,61.2z"/>
			</g>
		</g>
	</g>
	<text transform="matrix(1 0 0 1 31.8797 68.0239)" class="st3 st5 st6">4</text>
</g>
<g id="Stroke2" class="st1">
	<rect x="17.2" y="27.6" class="st2" width="12.6" height="0"/>
	<g class="st3">
		<path d="M22,74V13.7H6.1V7.1h88.2v6.6H28.9v15h41.9l-0.1,6.2H28.9v16v6.3v16.3"/>
	</g>
	<g class="st3">
		<path d="M31.1,39.4c0.3,0,14.1,0,14.1,0"/>
		<g>
			<rect x="31.1" y="38.7" width="9.5" height="1.5"/>
			<g>
				<path d="M45.1,39.4c-2.1,0.8-4.8,2.1-6.4,3.6l1.3-3.6l-1.3-3.6C40.4,37.3,43,38.6,45.1,39.4z"/>
			</g>
		</g>
	</g>
	<g class="st3">
		<path d="M31.5,45.7c0.1,0.1,0.5,0.2,0.9,0.2c0.7,0,0.9-0.4,0.9-0.8c0-0.5-0.5-0.8-1-0.8h-0.3V44h0.3c0.4,0,0.9-0.2,0.9-0.7
			c0-0.3-0.2-0.6-0.7-0.6c-0.3,0-0.6,0.1-0.8,0.3l-0.1-0.4c0.2-0.1,0.6-0.3,1-0.3c0.8,0,1.1,0.5,1.1,0.9c0,0.4-0.2,0.7-0.7,0.9v0
			c0.5,0.1,0.9,0.5,0.9,1c0,0.6-0.5,1.2-1.4,1.2c-0.4,0-0.8-0.1-1-0.3L31.5,45.7z"/>
	</g>
</g>
<g id="Stroke1" class="st1">
	<rect x="17.2" y="27.6" class="st2" width="12.6" height="0"/>
	<g class="st3">
		<path d="M70.8,77.4 M22,74V13.7H6.1V7.1h88.2v6.6H77.7H28.9v15v6.2v16v6.3v16.3"/>
	</g>
	<g class="st3">
		<line x1="33.5" y1="16" x2="33.5" y2="30"/>
		<g>
			<rect x="32.7" y="16" width="1.5" height="9.4"/>
			<g>
				<path d="M33.5,30c-0.8-2.1-2.1-4.8-3.6-6.4l3.6,1.3l3.6-1.3C35.6,25.2,34.3,27.9,33.5,30z"/>
			</g>
		</g>
	</g>
	<g class="st3">
		<path d="M37.3,20.3V20l0.4-0.4c1-0.9,1.4-1.5,1.5-2c0-0.4-0.2-0.8-0.8-0.8c-0.4,0-0.6,0.2-0.8,0.3l-0.2-0.4
			c0.3-0.2,0.7-0.4,1.1-0.4c0.8,0,1.2,0.6,1.2,1.1c0,0.7-0.5,1.3-1.3,2.1L38,19.8v0h1.8v0.4H37.3z"/>
	</g>
</g>
<g id="Stroke0" class="st1">
	<rect x="17.2" y="27.6" class="st2" width="12.6" height="0"/>
	<g class="st3">
		<path d="M22,13.7H6.1V7.1h88.2v6.6H77.7h-6.9H28.9"/>
	</g>
	<g class="st3">
		<path d="M6.9,18.4c1.1,0,19.5,0,19.5,0"/>
		<g>
			<rect x="6.9" y="17.6" width="15" height="1.5"/>
			<g>
				<path d="M26.5,18.4c-2.1,0.8-4.8,2.1-6.4,3.6l1.3-3.6l-1.3-3.6C21.7,16.2,24.3,17.6,26.5,18.4z"/>
			</g>
		</g>
	</g>
	<g class="st3">
		<path d="M8.3,21.9L8.3,21.9l-0.7,0.4l-0.1-0.4l0.9-0.5h0.4v3.9H8.3V21.9z"/>
	</g>
</g>
<g id="Kanji" class="st1">
	<rect x="17.2" y="27.6" class="st2" width="12.6" height="0"/>
	<g class="st3">
		<path d="M77.7,70.5c6-0.5,11.9-0.9,17.8-1.3l-0.2,6.3c-5.8,0.5-11.7,0.9-17.6,1.3v16.1h-6.9V77.4c-23.9,1.7-47,3.3-62.4,4.3
			c-0.2,0.9-0.8,1.3-1.6,1.4L4.5,75L22,74V13.7H6.1V7.1h88.2v6.6H77.7V70.5z M70.8,13.7H28.9v15h41.9V13.7z M28.9,34.9v16h41.9v-16
			H28.9z M28.9,57.2v16.3c12.7-0.8,27.2-1.7,41.9-2.7V57.2H28.9z"/>
	</g>
</g>
</svg>
