<?xml version="1.0" encoding="utf-8"?>
<!-- Generator: Adobe Illustrator 26.2.1, SVG Export Plug-In . SVG Version: 6.00 Build 0)  -->
<svg version="1.1" xmlns="http://www.w3.org/2000/svg" xmlns:xlink="http://www.w3.org/1999/xlink" x="0px" y="0px"
	 viewBox="0 0 100 100" style="enable-background:new 0 0 100 100;" xml:space="preserve" width = "100px" height = "100px">
<style type="text/css">
	.st0{display:none;}
	.st1{display:inline;}
</style>

	<rect x="17.2" y="27.6" class="st2" width="12.6" height="0"/>

		<path d="M70.8,57.2H28.9v16.3l41.9-2.4l6.9-0.7c6-0.5,11.9-0.9,17.8-1.3l-0.2,6.3c-5.8,0.5-11.7,0.9-17.6,1.3l-6.9,0.6
			c-23.9,1.7-47,3.3-62.4,4.3c-0.2,0.9-0.8,1.3-1.6,1.4L4.5,75L22,74V13.7H6.1V7.1h88.2v6.6H28.9v15h41.9l0,6.2H28.9v16l41.8,0.6"/>

		<path d="M11.5,86.3c0.4-0.1,32.7-2.8,32.7-2.8"/>

			<path class="st4" d="M11.5,86.3c0.3-0.1,19.3-1.7,28.2-2.4"/>

				<path d="M44.3,83.5c-2.1,1-4.6,2.5-6.1,4.1l1-3.7l-1.6-3.4C39.3,81.7,42.1,82.9,44.3,83.5z"/>

	<text transform="matrix(1 0 0 1 13.1587 91.9424)" class="st3 st5 st6">5</text>
</svg>