<?xml version="1.0" encoding="utf-8"?>
<!-- Generator: Adobe Illustrator 26.2.1, SVG Export Plug-In . SVG Version: 6.00 Build 0)  -->
<svg version="1.1" xmlns="http://www.w3.org/2000/svg" xmlns:xlink="http://www.w3.org/1999/xlink" x="0px" y="0px"
	 viewBox="0 0 100 100" style="enable-background:new 0 0 100 100;" xml:space="preserve" width = "100px" height = "100px">
<style type="text/css">
	.st0{display:none;}
	.st1{display:inline;}
</style>

	<rect x="17.2" y="27.6" class="st0" width="12.6" height="0"/>

		<path d="M77.7,70.5c6-0.5,11.9-0.9,17.8-1.3l-0.2,6.3c-5.8,0.5-11.7,0.9-17.6,1.3v16.1h-6.9V77.4c-23.9,1.7-47,3.3-62.4,4.3
			c-0.2,0.9-0.8,1.3-1.6,1.4L4.5,75L22,74V13.7H6.1V7.1h88.2v6.6H77.7V70.5z M70.8,13.7H28.9v15h41.9V13.7z M28.9,34.9v16h41.9v-16
			H28.9z M28.9,57.2v16.3c12.7-0.8,27.2-1.7,41.9-2.7V57.2H28.9z"/>

		<path d="M82.2,15.8c0,0.3,0,19.9,0,19.9"/>

			<rect x="81.5" y="15.8" width="1.5" height="15.4"/>

				<path d="M82.2,35.7c-0.8-2.1-2.1-4.8-3.6-6.4l3.6,1.3l3.6-1.3C84.4,30.9,83,33.5,82.2,35.7z"/>

		<path d="M87.1,16.4c-0.1,0-0.2,0-0.4,0c-0.8,0.1-1.3,0.7-1.4,1.4h0c0.2-0.2,0.5-0.4,0.9-0.4c0.7,0,1.2,0.5,1.2,1.3
			c0,0.7-0.5,1.4-1.3,1.4c-0.8,0-1.4-0.6-1.4-1.7c0-0.8,0.3-1.4,0.7-1.8c0.3-0.3,0.8-0.5,1.2-0.6c0.2,0,0.3,0,0.4,0V16.4z
			 M86.9,18.7c0-0.6-0.3-0.9-0.8-0.9c-0.3,0-0.6,0.2-0.8,0.5c0,0.1-0.1,0.1-0.1,0.2c0,0.6,0.3,1.1,0.9,1.1
			C86.6,19.6,86.9,19.2,86.9,18.7z"/>
 </svg>