<?xml version="1.0" encoding="utf-8"?>
<!-- Generator: Adobe Illustrator 26.2.1, SVG Export Plug-In . SVG Version: 6.00 Build 0)  -->
<svg version="1.1" xmlns="http://www.w3.org/2000/svg" xmlns:xlink="http://www.w3.org/1999/xlink" x="0px" y="0px"
	 viewBox="0 0 100 100" style="enable-background:new 0 0 100 100;" xml:space="preserve" width = "100px" height = "100px">
<style type="text/css">
	.st0{display:none;}
	.st1{display:inline;}
</style>

	<rect x="17.2" y="27.6" class="st2" width="12.6" height="0"/>

		<path d="M70.8,77.4 M22,74V13.7H6.1V7.1h88.2v6.6H77.7H28.9v15v6.2v16v6.3v16.3"/>

		<line x1="33.5" y1="16" x2="33.5" y2="30"/>
	
			<rect x="32.7" y="16" width="1.5" height="9.4"/>

				<path d="M33.5,30c-0.8-2.1-2.1-4.8-3.6-6.4l3.6,1.3l3.6-1.3C35.6,25.2,34.3,27.9,33.5,30z"/>

		<path d="M37.3,20.3V20l0.4-0.4c1-0.9,1.4-1.5,1.5-2c0-0.4-0.2-0.8-0.8-0.8c-0.4,0-0.6,0.2-0.8,0.3l-0.2-0.4
			c0.3-0.2,0.7-0.4,1.1-0.4c0.8,0,1.2,0.6,1.2,1.1c0,0.7-0.5,1.3-1.3,2.1L38,19.8v0h1.8v0.4H37.3z"/>

 </svg>