<?xml version="1.0" encoding="utf-8"?>
<!-- Generator: Adobe Illustrator 26.2.1, SVG Export Plug-In . SVG Version: 6.00 Build 0)  -->
<svg version="1.1" xmlns="http://www.w3.org/2000/svg" xmlns:xlink="http://www.w3.org/1999/xlink" x="0px" y="0px"
	 viewBox="0 0 100 100" style="enable-background:new 0 0 100 100;" xml:space="preserve" width = "100px" height = "100px">
<style type="text/css">
	.st0{display:none;}
	.st1{display:inline;}
</style> 


	<rect x="17.2" y="27.6" class="st2" width="12.6" height="0"/>

		<path d="M28.9,34.9v16h41.9v6.3H42.9h-14v16.3h-7L22,13.7H6.1V7.1h88.2v6.6H28.9v15l41.9,0.2v6"/>

	<path class="st3" d="M50.2,50.9"/>

		<path d="M31.5,61.2c1.7,0,19.4,0,19.4,0"/>

			<path class="st4" d="M31.5,61.2c1.2,0,9.5,0,14.9,0"/>

				<path d="M50.9,61.2c-2.1,0.8-4.8,2.1-6.4,3.6l1.3-3.6l-1.3-3.6C46.1,59,48.8,60.4,50.9,61.2z"/>

	<text transform="matrix(1 0 0 1 31.8797 68.0239)" class="st3 st5 st6">4</text>



</svg>