<?xml version="1.0" encoding="utf-8"?>
<!-- Generator: Adobe Illustrator 26.2.1, SVG Export Plug-In . SVG Version: 6.00 Build 0)  -->
<svg version="1.1" xmlns="http://www.w3.org/2000/svg" xmlns:xlink="http://www.w3.org/1999/xlink" x="0px" y="0px"
	 viewBox="0 0 100 100" style="enable-background:new 0 0 100 100;" xml:space="preserve" width = "100px" height = "100px">
<style type="text/css">
	.st0{display:none;}
	.st1{display:inline;}
</style> 

		<path d="M50.1,31.4c-6.2,32.1-20,53.4-37.9,64.8c-1.1-1.5-3.7-3.9-5.4-4.9C17.4,85,26.5,75.3,33.2,62.1c-4.2-4.1-11.1-9.2-17-12.6
			l3.7-4.7c5.5,3,11.9,7.3,16.3,11.1c3.6-8.7,6.4-18.7,8.2-30H23.5c-4,11.1-9.2,21-15.4,28c-1-1.3-3.3-3.4-4.7-4.5
			c9-10,15.7-27.5,19.5-45.8l8.3,2c-0.2,0.7-0.9,1.1-2.1,1.1c-1,4.3-2.1,8.6-3.4,12.8H47l1.3-0.3l4.3,1.8c-0.2,0.4-0.6,0.9-1,1.2
			l-0.9,5.7"/>

		<path d="M13.2,54.1c0.1,0.1,0.5,0.2,0.9,0.2c0.7,0,0.9-0.4,0.9-0.8c0-0.5-0.5-0.8-1-0.8h-0.3v-0.4h0.3c0.4,0,0.9-0.2,0.9-0.7
			c0-0.3-0.2-0.6-0.7-0.6c-0.3,0-0.6,0.1-0.8,0.3L13.2,51c0.2-0.1,0.6-0.3,1-0.3c0.8,0,1.1,0.5,1.1,0.9c0,0.4-0.2,0.7-0.7,0.9v0
			c0.5,0.1,0.9,0.5,0.9,1c0,0.6-0.5,1.2-1.4,1.2c-0.4,0-0.8-0.1-1-0.3L13.2,54.1z"/>

		<line x1="16.5" y1="54.2" x2="27.1" y2="62.4"/>
	
			<rect x="19.2" y="52.5" transform="matrix(0.6116 -0.7911 0.7911 0.6116 -37.292 37.9087)" width="1.5" height="8.9"/>
			
				<path d="M27.1,62.4c-2.2-0.7-5.1-1.2-7.3-1.1l3.2-2l1.2-3.6C24.6,57.8,25.8,60.5,27.1,62.4z"/>

</svg>