<?xml version="1.0" encoding="utf-8"?>
<!-- Generator: Adobe Illustrator 26.2.1, SVG Export Plug-In . SVG Version: 6.00 Build 0)  -->
<svg version="1.1" xmlns="http://www.w3.org/2000/svg" xmlns:xlink="http://www.w3.org/1999/xlink" x="0px" y="0px"
	 viewBox="0 0 100 100" style="enable-background:new 0 0 100 100;" xml:space="preserve" width = "100px" height = "100px">
<style type="text/css">
	.st0{display:none;}
	.st1{display:inline;}
</style> 


		<path d="M50.1,31.4c-6.2,32.1-20,53.4-37.9,64.8c-1.1-1.5-3.7-3.9-5.4-4.9C17.4,85,26.5,75.3,33.2,62.1l3-6.2
			c3.6-8.7,6.4-18.7,8.2-30H23.5c-4,11.1-9.2,21-15.4,28c-1-1.3-3.3-3.4-4.7-4.5c9-10,15.7-27.5,19.5-45.8l8.3,2
			c-0.2,0.7-0.9,1.1-2.1,1.1c-1,4.3-2.1,8.6-3.4,12.8H47l1.3-0.3l4.3,1.8c-0.2,0.4-0.6,0.9-1,1.2l-0.9,5.7"/>

		<path d="M39.3,34.1l-1.5-0.3l0.7-3.3c0.1-0.5,0-1-0.4-1.4c-0.3-0.4-0.8-0.6-1.3-0.6H25V27h11.8c1,0,1.9,0.4,2.5,1.2
			c0.6,0.7,0.9,1.7,0.7,2.7L39.3,34.1z"/>

			<path d="M37.7,38.4c-0.4-2.2-1.2-5.1-2.3-7l3.2,2l3.7-0.6C40.7,34.2,38.9,36.5,37.7,38.4z"/>

		<path d="M23.9,33.6v-0.3l0.4-0.4c1-0.9,1.4-1.5,1.5-2c0-0.4-0.2-0.8-0.8-0.8c-0.4,0-0.6,0.2-0.8,0.3L24,30.1
			c0.3-0.2,0.7-0.4,1.1-0.4c0.8,0,1.2,0.6,1.2,1.1c0,0.7-0.5,1.3-1.3,2.1l-0.3,0.3v0h1.8v0.4H23.9z"/>


</svg>