<?xml version="1.0" encoding="utf-8"?>
<!-- Generator: Adobe Illustrator 26.2.1, SVG Export Plug-In . SVG Version: 6.00 Build 0)  -->
<svg version="1.1" xmlns="http://www.w3.org/2000/svg" xmlns:xlink="http://www.w3.org/1999/xlink" x="0px" y="0px"
	 viewBox="0 0 100 100" style="enable-background:new 0 0 100 100;" xml:space="preserve">
<style type="text/css">
	.st0{display:none;}
	.st1{display:inline;}
</style>
<g id="Stroke5">
	<g>
		<path d="M55.6,3.8c-0.3,0.8-1.1,1.3-2.1,1.5c9.8,13.6,27.9,27,43.6,33.8c-1.6,1.6-3.2,4-4.3,6c-15.9-7.8-33.9-21.5-43.5-35
			C41,22.5,24.3,36.7,6.8,45.5c-0.8-1.4-2.5-4-3.9-5.4c17.6-8.5,34.9-23.5,42.8-36.9L55.6,3.8z M8.1,61v-6.4H92V61H43.9l1.2,0.4
			c-0.3,0.7-1.1,1-2.4,1.1c-3,6.8-7.5,15.8-11.8,23.2c13.3-0.3,28.8-0.8,44-1.3c-4.5-5.2-9.7-10.6-14.7-15l5.7-3.1
			c9.4,8.1,19.5,19.1,24.2,26.7l-6,3.8c-1.3-2.1-2.9-4.5-4.9-7c-24.3,1.3-50.1,2.4-66.1,2.9c-0.2,0.9-0.8,1.3-1.6,1.4l-2.5-8
			c4.2,0,9.1-0.1,14.6-0.3c4.1-7.2,8.8-17,11.9-24.8H8.1z M25.2,35.1h48.5v6.3H25.2V35.1z"/>
	</g>
	<g>
		<path d="M76.2,71.4c-2.5-2-5.1-3.9-7.6-5.7l0.9-1.2c2.6,1.9,5.1,3.8,7.6,5.8L76.2,71.4z"/>
		<g>
			<path d="M80.2,73.6c-2.2-0.7-5.1-1.3-7.2-1.1l3.2-2l1.2-3.6C77.7,69,79,71.7,80.2,73.6z"/>
		</g>
	</g>
	<g>
		<path d="M68.2,62.1c-0.1,0-0.2,0-0.4,0c-0.8,0.1-1.3,0.7-1.4,1.4h0c0.2-0.2,0.5-0.4,0.9-0.4c0.7,0,1.2,0.5,1.2,1.3
			c0,0.7-0.5,1.4-1.3,1.4c-0.8,0-1.4-0.6-1.4-1.7c0-0.8,0.3-1.4,0.7-1.8c0.3-0.3,0.8-0.5,1.2-0.6c0.2,0,0.3,0,0.4,0V62.1z M68,64.3
			c0-0.6-0.3-0.9-0.8-0.9c-0.3,0-0.6,0.2-0.8,0.5c0,0.1-0.1,0.1-0.1,0.2c0,0.6,0.3,1.1,0.9,1.1C67.7,65.3,68,64.9,68,64.3z"/>
	</g>
</g>
<g id="Stroke4" class="st0">
	<g class="st1">
		<path d="M55.6,3.8c-0.3,0.8-1.1,1.3-2.1,1.5c9.8,13.6,27.9,27,43.6,33.8c-1.6,1.6-3.2,4-4.3,6c-15.9-7.8-33.9-21.5-43.5-35
			C41,22.5,24.3,36.7,6.8,45.5c-0.8-1.4-2.5-4-3.9-5.4c17.6-8.5,34.9-23.5,42.8-36.9L55.6,3.8z M79.2,89.8
			c-24.3,1.3-50.1,2.4-66.1,2.9c-0.2,0.9-0.8,1.3-1.6,1.4l-2.5-8c4.2,0,9.1-0.1,14.6-0.3c4.1-7.2,8.8-17,11.9-24.8H8.1v-6.4H92V61
			H43.9l1.2,0.4c-0.3,0.7-1.1,1-2.4,1.1c-3,6.8-7.5,15.8-11.8,23.2c13.3-0.3,28.8-0.8,44-1.3 M25.2,35.1h48.5v6.3H25.2V35.1z"/>
	</g>
	<g class="st1">
		<path d="M56.3,81.7H37.9l-0.2-0.3c-0.3-0.5-0.3-0.5,4.2-10.9c1.3-3,2.8-6.4,2.9-6.8l0.6,0.2l0.8-0.3c0.1,0.4,0.1,0.4-3,7.5
			c-1.4,3.2-3.2,7.3-3.9,9.1h17V81.7z"/>
		<g>
			<path d="M60.8,80.9c-2.1,0.8-4.8,2.1-6.4,3.6l1.3-3.6l-1.3-3.6C56,78.8,58.7,80.2,60.8,80.9z"/>
		</g>
	</g>
	<g class="st1">
		<path d="M49.3,63.6h-1.5l-0.1,1c0.1,0,0.2,0,0.3,0c0.3,0,0.6,0.1,0.8,0.2c0.3,0.2,0.6,0.5,0.6,1c0,0.8-0.6,1.3-1.5,1.3
			c-0.4,0-0.8-0.1-1-0.2l0.1-0.4c0.2,0.1,0.5,0.2,0.8,0.2c0.5,0,0.9-0.3,0.9-0.8c0-0.5-0.3-0.9-1.1-0.9c-0.2,0-0.4,0-0.5,0l0.3-1.9
			h1.9V63.6z"/>
	</g>
</g>
<g id="Stroke3" class="st0">
	<g class="st1">
		<path d="M55.6,3.8c-0.3,0.8-1.1,1.3-2.1,1.5c9.8,13.6,27.9,27,43.6,33.8c-1.6,1.6-3.2,4-4.3,6c-15.9-7.8-33.9-21.5-43.5-35
			C41,22.5,24.3,36.7,6.8,45.5c-0.8-1.4-2.5-4-3.9-5.4c17.6-8.5,34.9-23.5,42.8-36.9L55.6,3.8z M35.5,61H8.1v-6.4H92V61H43.9
			 M25.2,35.1h48.5v6.3H25.2V35.1z"/>
	</g>
	<g class="st1">
		<line x1="8" y1="65.1" x2="21.8" y2="65.1"/>
		<g>
			<rect x="8" y="64.4" width="9.3" height="1.5"/>
			<g>
				<path d="M21.8,65.1c-2.1,0.8-4.8,2.1-6.4,3.6l1.3-3.6l-1.3-3.6C17.1,63,19.7,64.3,21.8,65.1z"/>
			</g>
		</g>
	</g>
	<g class="st1">
		<path d="M9.9,71.9v-1.1H8.1v-0.3L9.8,68h0.6v2.4h0.5v0.4h-0.5v1.1H9.9z M9.9,70.4v-1.3c0-0.2,0-0.4,0-0.6h0
			c-0.1,0.2-0.2,0.4-0.3,0.6l-1,1.3v0H9.9z"/>
	</g>
</g>
<g id="Stroke2" class="st0">
	<g class="st1">
		<path d="M55.6,3.8c-0.3,0.8-1.1,1.3-2.1,1.5c9.8,13.6,27.9,27,43.6,33.8c-1.6,1.6-3.2,4-4.3,6c-15.9-7.8-33.9-21.5-43.5-35
			C41,22.5,24.3,36.7,6.8,45.5c-0.8-1.4-2.5-4-3.9-5.4c17.6-8.5,34.9-23.5,42.8-36.9L55.6,3.8z M25.2,35.1h48.5v6.3H25.2V35.1z"/>
	</g>
	<g class="st1">
		<line x1="25.2" y1="45.8" x2="38.3" y2="45.8"/>
		<g>
			<rect x="25.2" y="45" width="8.6" height="1.5"/>
			<g>
				<path d="M38.3,45.8c-2.1,0.8-4.7,2.1-6.3,3.5l1.3-3.5L32,42.3C33.6,43.7,36.2,45,38.3,45.8z"/>
			</g>
		</g>
	</g>
	<g class="st1">
		<path d="M25.6,50.9c0.1,0.1,0.5,0.2,0.9,0.2c0.7,0,0.9-0.4,0.9-0.8c0-0.5-0.5-0.8-1-0.8H26v-0.4h0.3c0.4,0,0.9-0.2,0.9-0.7
			c0-0.3-0.2-0.6-0.7-0.6c-0.3,0-0.6,0.1-0.8,0.3l-0.1-0.4c0.2-0.1,0.6-0.3,1-0.3c0.8,0,1.1,0.5,1.1,0.9c0,0.4-0.2,0.7-0.7,0.9v0
			c0.5,0.1,0.9,0.5,0.9,1c0,0.6-0.5,1.2-1.4,1.2c-0.4,0-0.8-0.1-1-0.3L25.6,50.9z"/>
	</g>
</g>
<g id="Stroke1" class="st0">
	<g class="st1">
		<path d="M55.6,3.8c-0.3,0.8-1.1,1.3-2.1,1.5c9.8,13.6,27.9,27,43.6,33.8c-1.6,1.6-3.2,4-4.3,6c-15.9-7.8-33.9-21.5-43.5-35
			C41,22.5,24.3,36.7,6.8,45.5c-0.8-1.4-2.5-4-3.9-5.4c17.6-8.5,34.9-23.5,42.8-36.9L55.6,3.8z"/>
	</g>
	<g class="st1">
		<path d="M57.9,26.9l-0.2-0.2c-3.4-3-6.5-6.4-9.2-10l1.2-0.9c2.6,3.6,5.6,6.9,8.9,9.8l0.2,0.2l-0.4,0.6L57.9,26.9z"/>
		<g>
			<path d="M61.9,29.2c-2.1-0.7-5-1.4-7.2-1.3l3.3-1.9l1.3-3.6C59.5,24.5,60.7,27.2,61.9,29.2z"/>
		</g>
	</g>
	<g class="st1">
		<path d="M46.4,22.8v-0.3l0.4-0.4c1-0.9,1.4-1.5,1.5-2c0-0.4-0.2-0.8-0.8-0.8c-0.4,0-0.6,0.2-0.8,0.3l-0.2-0.4
			c0.3-0.2,0.7-0.4,1.1-0.4c0.8,0,1.2,0.6,1.2,1.1c0,0.7-0.5,1.3-1.3,2.1l-0.3,0.3v0h1.8v0.4H46.4z"/>
	</g>
</g>
<g id="Stroke0" class="st0">
	<g class="st1">
		<path d="M49.3,10.1C41,22.5,24.3,36.7,6.8,45.5c-0.8-1.4-2.5-4-3.9-5.4c17.6-8.5,34.9-23.5,42.8-36.9l9.9,0.6
			c-0.3,0.8-1.1,1.3-2.1,1.5"/>
	</g>
	<g class="st1">
		<path d="M57.8,5.8c-2.1,2.8-4.2,5.6-6.3,8.4c-1.2,1.6-2.4,3.2-3.6,4.8"/>
		<g>
			<path d="M51.3,15.8l-1.2-0.9l0.9-1.2c2.1-2.8,4.2-5.6,6.3-8.4l1.2,0.9c-2.1,2.8-4.2,5.6-6.3,8.4L51.3,15.8z"/>
			<g>
				<path d="M48,19c0.6-2.2,1.1-5.1,0.9-7.3l2.1,3.2l3.6,1.1C52.6,16.4,49.9,17.7,48,19z"/>
			</g>
		</g>
	</g>
	<g class="st1">
		<path d="M61.2,5.9L61.2,5.9l-0.7,0.4l-0.1-0.4l0.9-0.5h0.4v3.9h-0.5V5.9z"/>
	</g>
</g>
<g id="Kanji" class="st0">
	<g class="st1">
		<path d="M55.6,3.8c-0.3,0.8-1.1,1.3-2.1,1.5c9.8,13.6,27.9,27,43.6,33.8c-1.6,1.6-3.2,4-4.3,6c-15.9-7.8-33.9-21.5-43.5-35
			C41,22.5,24.3,36.7,6.8,45.5c-0.8-1.4-2.5-4-3.9-5.4c17.6-8.5,34.9-23.5,42.8-36.9L55.6,3.8z M8.1,61v-6.4H92V61H43.9l1.2,0.4
			c-0.3,0.7-1.1,1-2.4,1.1c-3,6.8-7.5,15.8-11.8,23.2c13.3-0.3,28.8-0.8,44-1.3c-4.5-5.2-9.7-10.6-14.7-15l5.7-3.1
			c9.4,8.1,19.5,19.1,24.2,26.7l-6,3.8c-1.3-2.1-2.9-4.5-4.9-7c-24.3,1.3-50.1,2.4-66.1,2.9c-0.2,0.9-0.8,1.3-1.6,1.4l-2.5-8
			c4.2,0,9.1-0.1,14.6-0.3c4.1-7.2,8.8-17,11.9-24.8H8.1z M25.2,35.1h48.5v6.3H25.2V35.1z"/>
	</g>
</g>
</svg>
