<?xml version="1.0" encoding="utf-8"?>
<!-- Generator: Adobe Illustrator 26.2.1, SVG Export Plug-In . SVG Version: 6.00 Build 0)  -->
<svg version="1.1" xmlns="http://www.w3.org/2000/svg" xmlns:xlink="http://www.w3.org/1999/xlink" x="0px" y="0px"
	 viewBox="0 0 100 100" style="enable-background:new 0 0 100 100;" xml:space="preserve" width = "100px" height = "100px">
<style type="text/css">
	.st0{display:none;}
	.st1{display:inline;}
</style> 

		<path d="M55.6,3.8c-0.3,0.8-1.1,1.3-2.1,1.5c9.8,13.6,27.9,27,43.6,33.8c-1.6,1.6-3.2,4-4.3,6c-15.9-7.8-33.9-21.5-43.5-35
			C41,22.5,24.3,36.7,6.8,45.5c-0.8-1.4-2.5-4-3.9-5.4c17.6-8.5,34.9-23.5,42.8-36.9L55.6,3.8z M25.2,35.1h48.5v6.3H25.2V35.1z"/>

		<line x1="25.2" y1="45.8" x2="38.3" y2="45.8"/>

			<rect x="25.2" y="45" width="8.6" height="1.5"/>
	
				<path d="M38.3,45.8c-2.1,0.8-4.7,2.1-6.3,3.5l1.3-3.5L32,42.3C33.6,43.7,36.2,45,38.3,45.8z"/>

		<path d="M25.6,50.9c0.1,0.1,0.5,0.2,0.9,0.2c0.7,0,0.9-0.4,0.9-0.8c0-0.5-0.5-0.8-1-0.8H26v-0.4h0.3c0.4,0,0.9-0.2,0.9-0.7
			c0-0.3-0.2-0.6-0.7-0.6c-0.3,0-0.6,0.1-0.8,0.3l-0.1-0.4c0.2-0.1,0.6-0.3,1-0.3c0.8,0,1.1,0.5,1.1,0.9c0,0.4-0.2,0.7-0.7,0.9v0
			c0.5,0.1,0.9,0.5,0.9,1c0,0.6-0.5,1.2-1.4,1.2c-0.4,0-0.8-0.1-1-0.3L25.6,50.9z"/>



</svg>