<?xml version="1.0" encoding="utf-8"?>
<!-- Generator: Adobe Illustrator 26.2.1, SVG Export Plug-In . SVG Version: 6.00 Build 0)  -->
<svg version="1.1" xmlns="http://www.w3.org/2000/svg" xmlns:xlink="http://www.w3.org/1999/xlink" x="0px" y="0px"
	 viewBox="0 0 100 100" style="enable-background:new 0 0 100 100;" xml:space="preserve" width = "100px" height = "100px">
<style type="text/css">
	.st0{display:none;}
	.st1{display:inline;}
</style>


		<path d="M55.6,3.8c-0.3,0.8-1.1,1.3-2.1,1.5c9.8,13.6,27.9,27,43.6,33.8c-1.6,1.6-3.2,4-4.3,6c-15.9-7.8-33.9-21.5-43.5-35
			C41,22.5,24.3,36.7,6.8,45.5c-0.8-1.4-2.5-4-3.9-5.4c17.6-8.5,34.9-23.5,42.8-36.9L55.6,3.8z M8.1,61v-6.4H92V61H43.9l1.2,0.4
			c-0.3,0.7-1.1,1-2.4,1.1c-3,6.8-7.5,15.8-11.8,23.2c13.3-0.3,28.8-0.8,44-1.3c-4.5-5.2-9.7-10.6-14.7-15l5.7-3.1
			c9.4,8.1,19.5,19.1,24.2,26.7l-6,3.8c-1.3-2.1-2.9-4.5-4.9-7c-24.3,1.3-50.1,2.4-66.1,2.9c-0.2,0.9-0.8,1.3-1.6,1.4l-2.5-8
			c4.2,0,9.1-0.1,14.6-0.3c4.1-7.2,8.8-17,11.9-24.8H8.1z M25.2,35.1h48.5v6.3H25.2V35.1z"/>

		<path d="M76.2,71.4c-2.5-2-5.1-3.9-7.6-5.7l0.9-1.2c2.6,1.9,5.1,3.8,7.6,5.8L76.2,71.4z"/>

			<path d="M80.2,73.6c-2.2-0.7-5.1-1.3-7.2-1.1l3.2-2l1.2-3.6C77.7,69,79,71.7,80.2,73.6z"/>

		<path d="M68.2,62.1c-0.1,0-0.2,0-0.4,0c-0.8,0.1-1.3,0.7-1.4,1.4h0c0.2-0.2,0.5-0.4,0.9-0.4c0.7,0,1.2,0.5,1.2,1.3
			c0,0.7-0.5,1.4-1.3,1.4c-0.8,0-1.4-0.6-1.4-1.7c0-0.8,0.3-1.4,0.7-1.8c0.3-0.3,0.8-0.5,1.2-0.6c0.2,0,0.3,0,0.4,0V62.1z M68,64.3
			c0-0.6-0.3-0.9-0.8-0.9c-0.3,0-0.6,0.2-0.8,0.5c0,0.1-0.1,0.1-0.1,0.2c0,0.6,0.3,1.1,0.9,1.1C67.7,65.3,68,64.9,68,64.3z"/>



 </svg>