<?xml version="1.0" encoding="utf-8"?>
<!-- Generator: Adobe Illustrator 26.2.1, SVG Export Plug-In . SVG Version: 6.00 Build 0)  -->
<svg version="1.1" xmlns="http://www.w3.org/2000/svg" xmlns:xlink="http://www.w3.org/1999/xlink" x="0px" y="0px"
	 viewBox="0 0 100 100" style="enable-background:new 0 0 100 100;" xml:space="preserve">
<style type="text/css">
	.st0{display:none;}
	.st1{display:inline;}
</style>
<g id="Stroke4">
	<g>
		<path d="M4.6,87.5h90.7v6.7H4.6V87.5z M92.6,26.2v6.6H8.1v-6.6h38.1V5.8l8.9,0.6c-0.1,0.7-0.6,1.2-2,1.4v18.4H92.6z M28,38.3
			c5.2,13.5,8.8,30.7,9.4,42.2c-0.7,0-1.4,0.1-6.9,1.5c-0.4-11.3-4-28.7-8.9-42.1L28,38.3z M80.8,39.6c-0.3,0.7-1.2,1.3-2.5,1.4
			c-3,13.2-8.6,32.7-13.3,43.7L59,83c4.4-11.4,9.5-31.5,12.1-45.5L80.8,39.6z"/>
	</g>
	<g>
		<path d="M5.4,83.3c0,0,14.7,0.1,15.1,0"/>
		<g>
			<path d="M16,84.1c-4.5,0-10.6,0-10.6,0l0-1.5c0,0,6.1,0,10.6,0L16,84.1z"/>
			<g>
				<path d="M20.5,83.3c-2.1,0.8-4.8,2.2-6.4,3.6l1.3-3.6l-1.3-3.6C15.7,81.2,18.4,82.5,20.5,83.3z"/>
			</g>
		</g>
	</g>
	<g>
		<path d="M8,77.2H6.5l-0.1,1c0.1,0,0.2,0,0.3,0c0.3,0,0.6,0.1,0.8,0.2c0.3,0.2,0.6,0.5,0.6,1c0,0.8-0.6,1.3-1.5,1.3
			c-0.4,0-0.8-0.1-1-0.2l0.1-0.4c0.2,0.1,0.5,0.2,0.8,0.2c0.5,0,0.9-0.3,0.9-0.8c0-0.5-0.3-0.9-1.1-0.9c-0.2,0-0.4,0-0.5,0l0.3-1.9
			H8V77.2z"/>
	</g>
</g>
<g id="Stroke3" class="st0">
	<g class="st1">
		<path d="M92.6,26.2v6.6H8.1v-6.6h38.1V5.8l8.9,0.6c-0.1,0.7-0.6,1.2-2,1.4v18.4H92.6z M28,38.3c5.2,13.5,8.8,30.7,9.4,42.2
			c-0.7,0-1.4,0.1-6.9,1.5c-0.4-11.3-4-28.7-8.9-42.1L28,38.3z M80.8,39.6c-0.3,0.7-1.2,1.3-2.5,1.4c-3,13.2-8.6,32.7-13.3,43.7
			L59,83c4.4-11.4,9.5-31.5,12.1-45.5L80.8,39.6z"/>
	</g>
	<g class="st1">
		<path d="M81.2,51.7l-1.4-0.4c1-3.8,1.8-7.6,2.5-11.5l1.5,0.3C83,44,82.2,47.9,81.2,51.7z"/>
		<g>
			<path d="M79.2,55.8c-0.2-2.3-0.8-5.2-1.7-7.1l3.1,2.2l3.8-0.3C82.5,51.8,80.5,54,79.2,55.8z"/>
		</g>
	</g>
	<g class="st1">
		<path d="M86.7,43.5v-1.1h-1.8v-0.3l1.7-2.5h0.6v2.4h0.5v0.4h-0.5v1.1H86.7z M86.7,42.1v-1.3c0-0.2,0-0.4,0-0.6h0
			c-0.1,0.2-0.2,0.4-0.3,0.6l-1,1.3v0H86.7z"/>
	</g>
</g>
<g id="Stroke2" class="st0">
	<g class="st1">
		<path d="M92.6,26.2v6.6H8.1v-6.6h38.1V5.8l8.9,0.6c-0.1,0.7-0.6,1.2-2,1.4v18.4H92.6z M28,38.3c5.2,13.5,8.8,30.7,9.4,42.2
			c-0.7,0-1.4,0.1-6.9,1.5c-0.4-11.3-4-28.7-8.9-42.1L28,38.3z"/>
	</g>
	<g class="st1">
		<path d="M19.8,49.8l-0.1-0.4c-0.7-2.6-1.6-5.3-2.5-7.8l1.4-0.5c0.9,2.6,1.8,5.3,2.5,7.9l0.1,0.4L19.8,49.8z"/>
		<g>
			<path d="M21.7,54c-1.3-1.9-3.3-4.1-5.1-5.3l3.8,0.4l3.1-2.1C22.6,48.8,21.9,51.7,21.7,54z"/>
		</g>
	</g>
	<g class="st1">
		<path d="M13.8,44.5c0.1,0.1,0.5,0.2,0.9,0.2c0.7,0,0.9-0.4,0.9-0.8c0-0.5-0.5-0.8-1-0.8h-0.3v-0.4h0.3c0.4,0,0.9-0.2,0.9-0.7
			c0-0.3-0.2-0.6-0.7-0.6c-0.3,0-0.6,0.1-0.8,0.3l-0.1-0.4c0.2-0.1,0.6-0.3,1-0.3c0.8,0,1.1,0.5,1.1,0.9c0,0.4-0.2,0.7-0.7,0.9v0
			c0.5,0.1,0.9,0.5,0.9,1c0,0.6-0.5,1.2-1.4,1.2c-0.4,0-0.8-0.1-1-0.3L13.8,44.5z"/>
	</g>
</g>
<g id="Stroke1" class="st0">
	<g class="st1">
		<path d="M92.6,26.2v6.6H8.1v-6.6h38.1V5.8l8.9,0.6c-0.1,0.7-0.6,1.2-2,1.4v18.4H92.6z"/>
	</g>
	<g class="st1">
		<path d="M8.4,43.2v-0.3l0.4-0.4c1-0.9,1.4-1.5,1.5-2c0-0.4-0.2-0.8-0.8-0.8c-0.4,0-0.6,0.2-0.8,0.3l-0.2-0.4
			c0.3-0.2,0.7-0.4,1.1-0.4c0.8,0,1.2,0.6,1.2,1.1c0,0.7-0.5,1.3-1.3,2.1l-0.3,0.3v0h1.8v0.4H8.4z"/>
	</g>
	<g class="st1">
		<path d="M8.1,36.6c0.5,0,16.1,0,16.1,0"/>
		<g>
			<rect x="8.1" y="35.8" width="11.6" height="1.5"/>
			<g>
				<path d="M24.2,36.6c-2.1,0.8-4.8,2.1-6.4,3.6l1.3-3.6L17.8,33C19.5,34.4,22.1,35.8,24.2,36.6z"/>
			</g>
		</g>
	</g>
</g>
<g id="Stroke0" class="st0">
	<g class="st1">
		<path d="M46.2,26.2V5.8l8.9,0.6c-0.1,0.7-0.6,1.2-2,1.4v18.4"/>
	</g>
	<g class="st1">
		<line x1="57.5" y1="5.8" x2="57.5" y2="20.3"/>
		<g>
			<rect x="56.7" y="5.8" width="1.5" height="10"/>
			<g>
				<path d="M57.5,20.3c-0.8-2.1-2.1-4.8-3.6-6.4l3.6,1.3l3.6-1.3C59.6,15.5,58.2,18.2,57.5,20.3z"/>
			</g>
		</g>
	</g>
	<g class="st1">
		<path d="M61.4,6L61.4,6l-0.7,0.4l-0.1-0.4l0.9-0.5h0.4v3.9h-0.5V6z"/>
	</g>
</g>
<g id="Kanji" class="st0">
	<g class="st1">
		<path d="M4.6,87.5h90.7v6.7H4.6V87.5z M92.6,26.2v6.6H8.1v-6.6h38.1V5.8l8.9,0.6c-0.1,0.7-0.6,1.2-2,1.4v18.4H92.6z M28,38.3
			c5.2,13.5,8.8,30.7,9.4,42.2c-0.7,0-1.4,0.1-6.9,1.5c-0.4-11.3-4-28.7-8.9-42.1L28,38.3z M80.8,39.6c-0.3,0.7-1.2,1.3-2.5,1.4
			c-3,13.2-8.6,32.7-13.3,43.7L59,83c4.4-11.4,9.5-31.5,12.1-45.5L80.8,39.6z"/>
	</g>
</g>
</svg>
