<?xml version="1.0" encoding="utf-8"?>
<!-- Generator: Adobe Illustrator 26.2.1, SVG Export Plug-In . SVG Version: 6.00 Build 0)  -->
<svg version="1.1" xmlns="http://www.w3.org/2000/svg" xmlns:xlink="http://www.w3.org/1999/xlink" x="0px" y="0px"
	 viewBox="0 0 100 100" style="enable-background:new 0 0 100 100;" xml:space="preserve" width = "100px" height = "100px">
<style type="text/css">
	.st0{display:none;}
	.st1{display:inline;}
</style> 


		<path d="M92.6,26.2v6.6H8.1v-6.6h38.1V5.8l8.9,0.6c-0.1,0.7-0.6,1.2-2,1.4v18.4H92.6z M28,38.3c5.2,13.5,8.8,30.7,9.4,42.2
			c-0.7,0-1.4,0.1-6.9,1.5c-0.4-11.3-4-28.7-8.9-42.1L28,38.3z M80.8,39.6c-0.3,0.7-1.2,1.3-2.5,1.4c-3,13.2-8.6,32.7-13.3,43.7
			L59,83c4.4-11.4,9.5-31.5,12.1-45.5L80.8,39.6z"/>

		<path d="M81.2,51.7l-1.4-0.4c1-3.8,1.8-7.6,2.5-11.5l1.5,0.3C83,44,82.2,47.9,81.2,51.7z"/>

		<path d="M79.2,55.8c-0.2-2.3-0.8-5.2-1.7-7.1l3.1,2.2l3.8-0.3C82.5,51.8,80.5,54,79.2,55.8z"/>
	
		<path d="M86.7,43.5v-1.1h-1.8v-0.3l1.7-2.5h0.6v2.4h0.5v0.4h-0.5v1.1H86.7z M86.7,42.1v-1.3c0-0.2,0-0.4,0-0.6h0
			c-0.1,0.2-0.2,0.4-0.3,0.6l-1,1.3v0H86.7z"/>


</svg>