<?xml version="1.0" encoding="utf-8"?>
<!-- Generator: Adobe Illustrator 26.2.1, SVG Export Plug-In . SVG Version: 6.00 Build 0)  -->
<svg version="1.1" xmlns="http://www.w3.org/2000/svg" xmlns:xlink="http://www.w3.org/1999/xlink" x="0px" y="0px"
	 viewBox="0 0 100 100" style="enable-background:new 0 0 100 100;" xml:space="preserve" width = "100px" height = "100px">
<style type="text/css">
	.st0{display:none;}
	.st1{display:inline;}
</style> 



		<path d="M4.6,87.5h90.7v6.7H4.6V87.5z M92.6,26.2v6.6H8.1v-6.6h38.1V5.8l8.9,0.6c-0.1,0.7-0.6,1.2-2,1.4v18.4H92.6z M28,38.3
			c5.2,13.5,8.8,30.7,9.4,42.2c-0.7,0-1.4,0.1-6.9,1.5c-0.4-11.3-4-28.7-8.9-42.1L28,38.3z M80.8,39.6c-0.3,0.7-1.2,1.3-2.5,1.4
			c-3,13.2-8.6,32.7-13.3,43.7L59,83c4.4-11.4,9.5-31.5,12.1-45.5L80.8,39.6z"/>


		<path d="M5.4,83.3c0,0,14.7,0.1,15.1,0"/>

			<path d="M16,84.1c-4.5,0-10.6,0-10.6,0l0-1.5c0,0,6.1,0,10.6,0L16,84.1z"/>

				<path d="M20.5,83.3c-2.1,0.8-4.8,2.2-6.4,3.6l1.3-3.6l-1.3-3.6C15.7,81.2,18.4,82.5,20.5,83.3z"/>


		<path d="M8,77.2H6.5l-0.1,1c0.1,0,0.2,0,0.3,0c0.3,0,0.6,0.1,0.8,0.2c0.3,0.2,0.6,0.5,0.6,1c0,0.8-0.6,1.3-1.5,1.3
			c-0.4,0-0.8-0.1-1-0.2l0.1-0.4c0.2,0.1,0.5,0.2,0.8,0.2c0.5,0,0.9-0.3,0.9-0.8c0-0.5-0.3-0.9-1.1-0.9c-0.2,0-0.4,0-0.5,0l0.3-1.9
			H8V77.2z"/>

</svg>