<?xml version="1.0" encoding="utf-8"?>
<!-- Generator: Adobe Illustrator 26.2.1, SVG Export Plug-In . SVG Version: 6.00 Build 0)  -->
<svg version="1.1" xmlns="http://www.w3.org/2000/svg" xmlns:xlink="http://www.w3.org/1999/xlink" x="0px" y="0px"
	 viewBox="0 0 100 100" style="enable-background:new 0 0 100 100;" xml:space="preserve" width = "100px" height = "100px">
<style type="text/css">
	.st0{display:none;}
	.st1{display:inline;}
</style>

		<path d="M52.8,55.1h42.4v5.1H4.7v-5.1h41.4v-6.5H11.7v-4.7h34.4v-6.1H14.8v-4.6h31.3v-6.5H5v-5.1h41.1v-6.3H15.9v-4.7h30.2V3.3
			l8.7,0.6c-0.1,0.7-0.6,1.1-2,1.3v5.4h28.9v11h13v5.1h-13v11.1H52.8v6.1h35.2v4.7H52.8V55.1z M76.1,70.2H24.4v26.5h-6.5V65.3h64.8
			v31.2h-6.7 M52.8,15.3v6.3h22.2v-6.3H52.8z M52.8,26.7v6.5h22.2v-6.5H52.8z"/>


		<line x1="26" y1="74.2" x2="39.8" y2="74.2"/>

			<rect x="26" y="73.4" width="9.2" height="1.5"/>
	
				<path d="M39.8,74.2c-2.1,0.8-4.8,2.1-6.4,3.6l1.3-3.6l-1.3-3.6C35,72,37.6,73.4,39.8,74.2z"/>

		<path d="M26.2,80c0-0.5,0.3-0.8,0.8-1l0,0c-0.4-0.2-0.6-0.5-0.6-0.9c0-0.6,0.5-1,1.2-1c0.8,0,1.1,0.5,1.1,1c0,0.3-0.2,0.7-0.6,0.9
			v0c0.5,0.2,0.8,0.5,0.8,1c0,0.7-0.6,1.1-1.3,1.1C26.7,81.1,26.2,80.6,26.2,80z M28.3,80c0-0.5-0.3-0.7-0.9-0.9
			c-0.5,0.1-0.7,0.4-0.7,0.8c0,0.4,0.3,0.7,0.8,0.7C28,80.7,28.3,80.4,28.3,80z M26.9,78c0,0.4,0.3,0.6,0.7,0.7
			c0.3-0.1,0.6-0.4,0.6-0.7c0-0.3-0.2-0.6-0.7-0.6C27.1,77.4,26.9,77.7,26.9,78z"/>


 </svg>