<?xml version="1.0" encoding="utf-8"?>
<!-- Generator: Adobe Illustrator 26.2.1, SVG Export Plug-In . SVG Version: 6.00 Build 0)  -->
<svg version="1.1" xmlns="http://www.w3.org/2000/svg" xmlns:xlink="http://www.w3.org/1999/xlink" x="0px" y="0px"
	 viewBox="0 0 100 100" style="enable-background:new 0 0 100 100;" xml:space="preserve" width = "100px" height = "100px">
<style type="text/css">
	.st0{display:none;}
	.st1{display:inline;}
</style>
		<path d="M52.8,55.1h42.4v5.1H4.7v-5.1h41.4v-6.5H11.7v-4.7h34.4v-6.1H14.8v-4.6h31.3v-6.5H5v-5.1h41.1v-6.3H15.9v-4.7h30.2V3.3
			l8.7,0.6c-0.1,0.7-0.6,1.1-2,1.3v5.4h28.9v11h13v5.1h-13v11.1H52.8v6.1h35.2v4.7H52.8V55.1z M52.8,15.3v6.3h22.2v-6.3H52.8z
			 M52.8,26.7v6.5h22.2v-6.5H52.8z"/>

		<line x1="60" y1="1.9" x2="60" y2="10.3"/>

			<rect x="59.2" y="1.9" width="1.5" height="3.8"/>
	
				<path d="M60,10.3c-0.8-2.1-2.1-4.8-3.6-6.4L60,5.2l3.6-1.3C62.1,5.5,60.8,8.1,60,10.3z"/>

		<path d="M67,2.6c-0.1,0-0.2,0-0.4,0c-0.8,0.1-1.3,0.7-1.4,1.4h0c0.2-0.2,0.5-0.4,0.9-0.4c0.7,0,1.2,0.5,1.2,1.3
			c0,0.7-0.5,1.4-1.3,1.4c-0.8,0-1.4-0.6-1.4-1.7c0-0.8,0.3-1.4,0.7-1.8c0.3-0.3,0.8-0.5,1.2-0.6c0.2,0,0.3,0,0.4,0V2.6z M66.9,4.8
			c0-0.6-0.3-0.9-0.8-0.9c-0.3,0-0.6,0.2-0.8,0.5c0,0.1-0.1,0.1-0.1,0.2c0,0.6,0.3,1.1,0.9,1.1C66.6,5.7,66.9,5.4,66.9,4.8z"/>

 </svg>