<?xml version="1.0" encoding="utf-8"?>
<!-- Generator: Adobe Illustrator 26.2.1, SVG Export Plug-In . SVG Version: 6.00 Build 0)  -->
<svg version="1.1" xmlns="http://www.w3.org/2000/svg" xmlns:xlink="http://www.w3.org/1999/xlink" x="0px" y="0px"
	 viewBox="0 0 100 100" style="enable-background:new 0 0 100 100;" xml:space="preserve" width = "100px" height = "100px">
<style type="text/css">
	.st0{display:none;}
	.st1{display:inline;}
</style> 

		<path d="M75.1,37.8v-4.6v-6.5H46.1H5v-5.1h41.1h6.7h22.2v-6.3H15.9v-4.7h30.2h6.7h28.9v11h13v5.1h-13v11.1"/>

	<path class="st1" d="M46.1,15.3"/>

		<path d="M5.8,31.1c2.9,0,12.5,0,12.5,0"/>

			<path class="st2" d="M5.8,31.1c1.6,0,5.1,0,8,0"/>

				<path d="M18.3,31.1c-2.1,0.8-4.8,2.1-6.4,3.6l1.3-3.6l-1.3-3.6C13.6,28.9,16.2,30.3,18.3,31.1z"/>


		<path d="M5.3,38v-0.3l0.4-0.4c1-0.9,1.4-1.5,1.5-2c0-0.4-0.2-0.8-0.8-0.8c-0.4,0-0.6,0.2-0.8,0.3l-0.2-0.4
			c0.3-0.2,0.7-0.4,1.1-0.4c0.8,0,1.2,0.6,1.2,1.1c0,0.7-0.5,1.3-1.3,2.1l-0.3,0.3v0h1.8V38H5.3z"/>


</svg>