<?xml version="1.0" encoding="utf-8"?>
<!-- Generator: Adobe Illustrator 26.2.1, SVG Export Plug-In . SVG Version: 6.00 Build 0)  -->
<svg version="1.1" xmlns="http://www.w3.org/2000/svg" xmlns:xlink="http://www.w3.org/1999/xlink" x="0px" y="0px"
	 viewBox="0 0 100 100" style="enable-background:new 0 0 100 100;" xml:space="preserve" width = "100px" height = "100px">
<style type="text/css">
	.st0{display:none;}
	.st1{display:inline;}
</style> 


		<path d="M14.8,37.8v-4.6h31.3h6.7h22.2v-6.5H5v-5.1h41.1h6.7h22.2v-6.3c0,0-57.7,0-59.1,0v-4.7h30.2h6.7h28.9v11h13v5.1h-13v11.1
			 M46.1,48.6H11.7v-4.7h34.4h6.7h35.2v4.7H52.8 M95.3,55.1v5.1H4.7v-5.1"/>


		<path d="M4.7,64.6c4.1,0,17.4,0,18.1,0"/>

			<path d="M18.3,65.3l-6.2,0c-3,0-5.8,0-7.3,0l0-1.5c1.5,0,4.3,0,7.3,0l6.2,0V65.3z"/>
		
				<path d="M22.8,64.6c-2.1,0.8-4.8,2.1-6.4,3.6l1.3-3.6L16.4,61C18,62.4,20.7,63.8,22.8,64.6z"/>

		<path d="M7.6,67.3H6.2l-0.1,1c0.1,0,0.2,0,0.3,0c0.3,0,0.6,0.1,0.8,0.2c0.3,0.2,0.6,0.5,0.6,1c0,0.8-0.6,1.3-1.5,1.3
			c-0.4,0-0.8-0.1-1-0.2l0.1-0.4c0.2,0.1,0.5,0.2,0.8,0.2c0.5,0,0.9-0.3,0.9-0.8c0-0.5-0.3-0.9-1.1-0.9c-0.2,0-0.4,0-0.5,0l0.3-1.9
			h1.9V67.3z"/>


</svg>