<?xml version="1.0" encoding="utf-8"?>
<!-- Generator: Adobe Illustrator 26.2.1, SVG Export Plug-In . SVG Version: 6.00 Build 0)  -->
<svg version="1.1" xmlns="http://www.w3.org/2000/svg" xmlns:xlink="http://www.w3.org/1999/xlink" x="0px" y="0px"
	 viewBox="0 0 100 100" style="enable-background:new 0 0 100 100;" xml:space="preserve">
<style type="text/css">
	.st0{display:none;}
	.st1{display:inline;}
	.st2{fill:none;stroke:#000000;stroke-width:1.5;stroke-miterlimit:10;}
</style>
<g id="Stroke9">
	<g>
		<path d="M52.8,55.1h42.4v5.1H4.7v-5.1h41.4v-6.5H11.7v-4.7h34.4v-6.1H14.8v-4.6h31.3v-6.5H5v-5.1h41.1v-6.3H15.9v-4.7h30.2V3.3
			l8.7,0.6c-0.1,0.7-0.6,1.1-2,1.3v5.4h28.9v11h13v5.1h-13v11.1H52.8v6.1h35.2v4.7H52.8V55.1z M17.9,96.7V65.3h64.8v31.2h-6.7v-3.3
			H24.4v3.5H17.9z M76.1,70.2H24.4v6.6h51.6V70.2z M24.4,88.3h51.6v-6.9H24.4V88.3z M52.8,15.3v6.3h22.2v-6.3H52.8z M52.8,26.7v6.5
			h22.2v-6.5H52.8z"/>
	</g>
	<g>
		<line x1="34.3" y1="96.7" x2="47.6" y2="96.7"/>
		<g>
			<rect x="34.3" y="96" width="8.8" height="1.5"/>
			<g>
				<path d="M47.6,96.7c-2.1,0.8-4.8,2.1-6.4,3.6l1.3-3.6l-1.3-3.6C42.8,94.6,45.4,95.9,47.6,96.7z"/>
			</g>
		</g>
	</g>
	<g>
		<path d="M27.9,94.8L27.9,94.8l-0.7,0.4l-0.1-0.4l0.9-0.5h0.4v3.9h-0.5V94.8z"/>
		<path d="M32.4,96.2c0,1.3-0.5,2.1-1.4,2.1c-0.8,0-1.3-0.7-1.3-2c0-1.3,0.6-2,1.4-2C32,94.3,32.4,95,32.4,96.2z M30.3,96.3
			c0,1,0.3,1.6,0.8,1.6c0.5,0,0.8-0.6,0.8-1.6c0-1-0.2-1.6-0.8-1.6C30.7,94.7,30.3,95.2,30.3,96.3z"/>
	</g>
</g>
<g id="Stroke8" class="st0">
	<g class="st1">
		<path d="M52.8,55.1h42.4v5.1H4.7v-5.1h41.4v-6.5H11.7v-4.7h34.4v-6.1H14.8v-4.6h31.3v-6.5H5v-5.1h41.1v-6.3H15.9v-4.7h30.2V3.3
			l8.7,0.6c-0.1,0.7-0.6,1.1-2,1.3v5.4h28.9v11h13v5.1h-13v11.1H52.8v6.1h35.2v4.7H52.8V55.1z M76.1,70.2H24.4v6.6h51.6V70.2z
			 M76.1,81.4H24.4v15.3h-6.5V65.3h64.8v31.2h-6.7 M52.8,15.3v6.3h22.2v-6.3H52.8z M52.8,26.7v6.5h22.2v-6.5H52.8z"/>
	</g>
	<g class="st1">
		<path d="M25.2,85.7c4,0,16.8,0,16.3,0"/>
		<g>
			<rect x="25.2" y="85" width="11.7" height="1.5"/>
			<g>
				<path d="M41.5,85.7c-2.1,0.8-4.8,2.1-6.4,3.6l1.3-3.6l-1.3-3.6C36.7,83.6,39.4,85,41.5,85.7z"/>
			</g>
		</g>
	</g>
	<g class="st1">
		<path d="M25.8,92.5c0.1,0,0.2,0,0.4,0c0.3,0,0.6-0.2,0.8-0.4c0.3-0.2,0.4-0.6,0.5-1h0c-0.2,0.3-0.5,0.4-0.9,0.4
			c-0.7,0-1.2-0.5-1.2-1.2c0-0.7,0.5-1.4,1.3-1.4s1.3,0.6,1.3,1.6c0,0.9-0.3,1.5-0.7,1.8c-0.3,0.3-0.7,0.5-1.1,0.5
			c-0.2,0-0.4,0-0.5,0V92.5z M26,90.2c0,0.5,0.3,0.8,0.7,0.8c0.4,0,0.6-0.2,0.8-0.4c0,0,0-0.1,0-0.2c0-0.7-0.2-1.2-0.8-1.2
			C26.3,89.3,26,89.7,26,90.2z"/>
	</g>
</g>
<g id="Stroke7" class="st0">
	<g class="st1">
		<path d="M52.8,55.1h42.4v5.1H4.7v-5.1h41.4v-6.5H11.7v-4.7h34.4v-6.1H14.8v-4.6h31.3v-6.5H5v-5.1h41.1v-6.3H15.9v-4.7h30.2V3.3
			l8.7,0.6c-0.1,0.7-0.6,1.1-2,1.3v5.4h28.9v11h13v5.1h-13v11.1H52.8v6.1h35.2v4.7H52.8V55.1z M76.1,70.2H24.4v26.5h-6.5V65.3h64.8
			v31.2h-6.7 M52.8,15.3v6.3h22.2v-6.3H52.8z M52.8,26.7v6.5h22.2v-6.5H52.8z"/>
	</g>
	<g class="st1">
		<line x1="26" y1="74.2" x2="39.8" y2="74.2"/>
		<g>
			<rect x="26" y="73.4" width="9.2" height="1.5"/>
			<g>
				<path d="M39.8,74.2c-2.1,0.8-4.8,2.1-6.4,3.6l1.3-3.6l-1.3-3.6C35,72,37.6,73.4,39.8,74.2z"/>
			</g>
		</g>
	</g>
	<g class="st1">
		<path d="M26.2,80c0-0.5,0.3-0.8,0.8-1l0,0c-0.4-0.2-0.6-0.5-0.6-0.9c0-0.6,0.5-1,1.2-1c0.8,0,1.1,0.5,1.1,1c0,0.3-0.2,0.7-0.6,0.9
			v0c0.5,0.2,0.8,0.5,0.8,1c0,0.7-0.6,1.1-1.3,1.1C26.7,81.1,26.2,80.6,26.2,80z M28.3,80c0-0.5-0.3-0.7-0.9-0.9
			c-0.5,0.1-0.7,0.4-0.7,0.8c0,0.4,0.3,0.7,0.8,0.7C28,80.7,28.3,80.4,28.3,80z M26.9,78c0,0.4,0.3,0.6,0.7,0.7
			c0.3-0.1,0.6-0.4,0.6-0.7c0-0.3-0.2-0.6-0.7-0.6C27.1,77.4,26.9,77.7,26.9,78z"/>
	</g>
</g>
<g id="Stroke6" class="st0">
	<g class="st1">
		<path d="M52.8,55.1h42.4v5.1H4.7v-5.1h41.4v-6.5H11.7v-4.7h34.4v-6.1H14.8v-4.6h31.3v-6.5H5v-5.1h41.1v-6.3H15.9v-4.7h30.2V3.3
			l8.7,0.6c-0.1,0.7-0.6,1.1-2,1.3v5.4h28.9v11h13v5.1h-13v11.1H52.8v6.1h35.2v4.7H52.8V55.1z M24.4,65.3v4.9v6.6v4.6v6.9v4.9v3.5
			h-6.5V65.3 M52.8,15.3v6.3h22.2v-6.3H52.8z M52.8,26.7v6.5h22.2v-6.5H52.8z"/>
	</g>
	<g class="st1">
		<rect x="27.4" y="66.1" width="1.5" height="7.3"/>
		<g>
			<path d="M28.1,77.9c-0.8-2.1-2.1-4.8-3.6-6.4l3.6,1.3l3.6-1.3C30.3,73.2,28.9,75.8,28.1,77.9z"/>
		</g>
	</g>
	<g class="st1">
		<path d="M33.4,65.4v0.3l-1.7,3.5h-0.5l1.7-3.4v0h-1.9v-0.4H33.4z"/>
	</g>
</g>
<g id="Stroke5" class="st0">
	<g class="st1">
		<path d="M52.8,55.1h42.4v5.1H4.7v-5.1h41.4v-6.5H11.7v-4.7h34.4v-6.1H14.8v-4.6h31.3v-6.5H5v-5.1h41.1v-6.3H15.9v-4.7h30.2V3.3
			l8.7,0.6c-0.1,0.7-0.6,1.1-2,1.3v5.4h28.9v11h13v5.1h-13v11.1H52.8v6.1h35.2v4.7H52.8V55.1z M52.8,15.3v6.3h22.2v-6.3H52.8z
			 M52.8,26.7v6.5h22.2v-6.5H52.8z"/>
	</g>
	<g class="st1">
		<line x1="60" y1="1.9" x2="60" y2="10.3"/>
		<g>
			<rect x="59.2" y="1.9" width="1.5" height="3.8"/>
			<g>
				<path d="M60,10.3c-0.8-2.1-2.1-4.8-3.6-6.4L60,5.2l3.6-1.3C62.1,5.5,60.8,8.1,60,10.3z"/>
			</g>
		</g>
	</g>
	<g class="st1">
		<path d="M67,2.6c-0.1,0-0.2,0-0.4,0c-0.8,0.1-1.3,0.7-1.4,1.4h0c0.2-0.2,0.5-0.4,0.9-0.4c0.7,0,1.2,0.5,1.2,1.3
			c0,0.7-0.5,1.4-1.3,1.4c-0.8,0-1.4-0.6-1.4-1.7c0-0.8,0.3-1.4,0.7-1.8c0.3-0.3,0.8-0.5,1.2-0.6c0.2,0,0.3,0,0.4,0V2.6z M66.9,4.8
			c0-0.6-0.3-0.9-0.8-0.9c-0.3,0-0.6,0.2-0.8,0.5c0,0.1-0.1,0.1-0.1,0.2c0,0.6,0.3,1.1,0.9,1.1C66.6,5.7,66.9,5.4,66.9,4.8z"/>
	</g>
</g>
<g id="Stroke4" class="st0">
	<g class="st1">
		<path d="M14.8,37.8v-4.6h31.3h6.7h22.2v-6.5H5v-5.1h41.1h6.7h22.2v-6.3c0,0-57.7,0-59.1,0v-4.7h30.2h6.7h28.9v11h13v5.1h-13v11.1
			 M46.1,48.6H11.7v-4.7h34.4h6.7h35.2v4.7H52.8 M95.3,55.1v5.1H4.7v-5.1"/>
	</g>
	<g class="st1">
		<path d="M4.7,64.6c4.1,0,17.4,0,18.1,0"/>
		<g>
			<path d="M18.3,65.3l-6.2,0c-3,0-5.8,0-7.3,0l0-1.5c1.5,0,4.3,0,7.3,0l6.2,0V65.3z"/>
			<g>
				<path d="M22.8,64.6c-2.1,0.8-4.8,2.1-6.4,3.6l1.3-3.6L16.4,61C18,62.4,20.7,63.8,22.8,64.6z"/>
			</g>
		</g>
	</g>
	<g class="st1">
		<path d="M7.6,67.3H6.2l-0.1,1c0.1,0,0.2,0,0.3,0c0.3,0,0.6,0.1,0.8,0.2c0.3,0.2,0.6,0.5,0.6,1c0,0.8-0.6,1.3-1.5,1.3
			c-0.4,0-0.8-0.1-1-0.2l0.1-0.4c0.2,0.1,0.5,0.2,0.8,0.2c0.5,0,0.9-0.3,0.9-0.8c0-0.5-0.3-0.9-1.1-0.9c-0.2,0-0.4,0-0.5,0l0.3-1.9
			h1.9V67.3z"/>
	</g>
</g>
<g id="Stroke3" class="st0">
	<g class="st1">
		<path d="M46.1,37.8H14.8v-4.6h31.3h6.7h22.2v-6.5H5v-5.1h41.1h6.7h22.2v-6.3H15.9v-4.7h30.2h6.7h28.9v11h13v5.1h-13v11.1H52.8
			 M46.1,48.6H11.7v-4.7c1.1-0.1,76.3,0,76.3,0v4.7H52.8"/>
	</g>
	<g class="st1">
		<path d="M12.1,53c2.8,0,17.7,0,17.3,0"/>
		<g>
			<path d="M24.9,53.8l-6.6,0c-2.7,0-5.2,0-6.2,0l0-1.5c1,0,3.4,0,6.2,0l6.6,0V53.8z"/>
			<g>
				<path d="M29.5,53c-2.1,0.8-4.8,2.1-6.4,3.6l1.3-3.6L23,49.4C24.7,50.9,27.3,52.2,29.5,53z"/>
			</g>
		</g>
	</g>
	<g class="st1">
		<path d="M14,59.5v-1.1h-1.8v-0.3l1.7-2.5h0.6V58h0.5v0.4h-0.5v1.1H14z M14,58v-1.3c0-0.2,0-0.4,0-0.6h0c-0.1,0.2-0.2,0.4-0.3,0.6
			l-1,1.3v0H14z"/>
	</g>
</g>
<g id="Stroke2" class="st0">
	<g class="st1">
		<path d="M46.1,26.7H5v-5.1h41.1h6.7h22.2v-6.3H15.9v-4.7h30.2h6.7h28.9v11h13v5.1h-13v11.1H52.8h-6.7H14.8v-4.6h60.2v-6.5H52.8"/>
	</g>
	<g class="st1">
		<line x1="14.9" y1="41.7" x2="29.2" y2="41.7"/>
		<g>
			<rect x="14.9" y="40.9" width="9.7" height="1.5"/>
			<g>
				<path d="M29.2,41.7c-2.1,0.8-4.8,2.1-6.4,3.6l1.3-3.6l-1.3-3.6C24.4,39.5,27,40.9,29.2,41.7z"/>
			</g>
		</g>
	</g>
	<g class="st1">
		<path d="M14.3,48c0.1,0.1,0.5,0.2,0.9,0.2c0.7,0,0.9-0.4,0.9-0.8c0-0.5-0.5-0.8-1-0.8h-0.3v-0.4h0.3c0.4,0,0.9-0.2,0.9-0.7
			c0-0.3-0.2-0.6-0.7-0.6c-0.3,0-0.6,0.1-0.8,0.3l-0.1-0.4c0.2-0.1,0.6-0.3,1-0.3c0.8,0,1.1,0.5,1.1,0.9c0,0.4-0.2,0.7-0.7,0.9v0
			c0.5,0.1,0.9,0.5,0.9,1c0,0.6-0.5,1.2-1.4,1.2c-0.4,0-0.8-0.1-1-0.3L14.3,48z"/>
	</g>
</g>
<g id="Stroke1" class="st0">
	<g class="st1">
		<path d="M75.1,37.8v-4.6v-6.5H46.1H5v-5.1h41.1h6.7h22.2v-6.3H15.9v-4.7h30.2h6.7h28.9v11h13v5.1h-13v11.1"/>
	</g>
	<path class="st1" d="M46.1,15.3"/>
	<g class="st1">
		<path d="M5.8,31.1c2.9,0,12.5,0,12.5,0"/>
		<g>
			<path class="st2" d="M5.8,31.1c1.6,0,5.1,0,8,0"/>
			<g>
				<path d="M18.3,31.1c-2.1,0.8-4.8,2.1-6.4,3.6l1.3-3.6l-1.3-3.6C13.6,28.9,16.2,30.3,18.3,31.1z"/>
			</g>
		</g>
	</g>
	<g class="st1">
		<path d="M5.3,38v-0.3l0.4-0.4c1-0.9,1.4-1.5,1.5-2c0-0.4-0.2-0.8-0.8-0.8c-0.4,0-0.6,0.2-0.8,0.3l-0.2-0.4
			c0.3-0.2,0.7-0.4,1.1-0.4c0.8,0,1.2,0.6,1.2,1.1c0,0.7-0.5,1.3-1.3,2.1l-0.3,0.3v0h1.8V38H5.3z"/>
	</g>
</g>
<g id="Stroke0" class="st0">
	<g class="st1">
		<path d="M75.2,37.8l-0.1-4.6v-6.5c0,0-0.1-4.2,0-5.1v-6.3H52.8c0,0-5.8-0.3-6.7,0H15.9v-4.7h30.2h6.7h28.9v11v5.1v11.1"/>
	</g>
	<g class="st1">
		<line x1="15.9" y1="19.6" x2="28" y2="19.6"/>
		<g>
			<rect x="15.9" y="18.9" width="7.5" height="1.5"/>
			<g>
				<path d="M28,19.6c-2.1,0.8-4.8,2.1-6.4,3.6l1.3-3.6L21.6,16C23.2,17.5,25.8,18.8,28,19.6z"/>
			</g>
		</g>
	</g>
	<g class="st1">
		<path d="M16.8,23.2L16.8,23.2l-0.7,0.4L16,23.1l0.9-0.5h0.4v3.9h-0.5V23.2z"/>
	</g>
</g>
<g id="Kanji" class="st0">
	<g class="st1">
		<path d="M52.8,55.1h42.4v5.1H4.7v-5.1h41.4v-6.5H11.7v-4.7h34.4v-6.1H14.8v-4.6h31.3v-6.5H5v-5.1h41.1v-6.3H15.9v-4.7h30.2V3.3
			l8.7,0.6c-0.1,0.7-0.6,1.1-2,1.3v5.4h28.9v11h13v5.1h-13v11.1H52.8v6.1h35.2v4.7H52.8V55.1z M17.9,96.7V65.3h64.8v31.2h-6.7v-3.3
			H24.4v3.5H17.9z M76.1,70.2H24.4v6.6h51.6V70.2z M24.4,88.3h51.6v-6.9H24.4V88.3z M52.8,15.3v6.3h22.2v-6.3H52.8z M52.8,26.7v6.5
			h22.2v-6.5H52.8z"/>
	</g>
</g>
</svg>
