<?xml version="1.0" encoding="utf-8"?>
<!-- Generator: Adobe Illustrator 26.2.1, SVG Export Plug-In . SVG Version: 6.00 Build 0)  -->
<svg version="1.1" xmlns="http://www.w3.org/2000/svg" xmlns:xlink="http://www.w3.org/1999/xlink" x="0px" y="0px"
	 viewBox="0 0 100 100" style="enable-background:new 0 0 100 100;" xml:space="preserve" width = "100px" height = "100px">
<style type="text/css">
	.st0{display:none;}
	.st1{display:inline;}
</style> 


	<path class="st1" d="M53,47.8"/>

		<path d="M10.5,12.2H87V19H10.5V12.2z M17,45.5h62.2v6.8H17V45.5z"/>

		<line x1="19.7" y1="59.7" x2="80.4" y2="60"/>

			<path d="M75.8,60.7C75.8,60.7,75.8,60.7,75.8,60.7l-56.1-0.3c-0.4,0-0.7-0.3-0.7-0.8c0-0.4,0.3-0.7,0.8-0.7c0,0,0,0,0,0l56.1,0.3
				c0.4,0,0.7,0.3,0.7,0.8C76.6,60.4,76.3,60.7,75.8,60.7z"/>

				<path d="M80.4,60c-2.1,0.8-4.8,2.1-6.4,3.5l1.3-3.6L74,56.4C75.6,57.8,78.2,59.2,80.4,60z"/>

		<path d="M21.1,68.5h-3.2v-0.3l0.5-0.5c1.3-1.1,2-1.7,2-2.5c0-0.5-0.3-0.9-1-0.9c-0.4,0-0.8,0.2-1.1,0.4L18,64.4
			c0.3-0.2,0.8-0.4,1.4-0.4c1.1,0,1.5,0.7,1.5,1.3c0,0.8-0.7,1.6-1.9,2.5l-0.4,0.4v0h2.4V68.5z"/>

</svg>