<?xml version="1.0" encoding="utf-8"?>
<!-- Generator: Adobe Illustrator 26.2.1, SVG Export Plug-In . SVG Version: 6.00 Build 0)  -->
<svg version="1.1" xmlns="http://www.w3.org/2000/svg" xmlns:xlink="http://www.w3.org/1999/xlink" x="0px" y="0px"
	 viewBox="0 0 100 100" style="enable-background:new 0 0 100 100;" xml:space="preserve" width = "100px" height = "100px">
<style type="text/css">
	.st0{display:none;}
	.st1{display:inline;}
</style> 

	<path class="st1" d="M53,47.8"/>

		<path d="M10.5,12.2H87V19H10.5V12.2z"/>

		<line x1="11.9" y1="25.9" x2="80.5" y2="25.9"/>

			<path d="M76,26.6H11.9c-0.4,0-0.8-0.3-0.8-0.8s0.3-0.8,0.8-0.8H76c0.4,0,0.8,0.3,0.8,0.8S76.4,26.6,76,26.6z"/>
	
				<path d="M80.5,25.9c-2.1,0.8-4.8,2.1-6.4,3.6l1.3-3.6l-1.3-3.6C75.8,23.7,78.4,25.1,80.5,25.9z"/>


		<path d="M13.2,33.2v-4h0l-0.9,0.4l-0.1-0.4l1.1-0.5h0.5v4.5H13.2z"/>


</svg>