<?xml version="1.0" encoding="utf-8"?>
<!-- Generator: Adobe Illustrator 26.2.1, SVG Export Plug-In . SVG Version: 6.00 Build 0)  -->
<svg version="1.1" xmlns="http://www.w3.org/2000/svg" xmlns:xlink="http://www.w3.org/1999/xlink" x="0px" y="0px"
	 viewBox="0 0 100 100" style="enable-background:new 0 0 100 100;" xml:space="preserve">
<style type="text/css">
	.st0{display:none;}
	.st1{display:inline;}
</style>
<g id="Stroke2">
	<path d="M53,47.8"/>
	<g>
		<path d="M4.7,81h87.9v6.8H4.7V81z M10.5,12.2H87V19H10.5V12.2z M17,45.5h62.2v6.8H17V45.5z"/>
	</g>
	<path d="M107.6,64.1"/>
	<g>
		<line x1="9.8" y1="93.2" x2="66.7" y2="93.2"/>
		<g>
			<rect x="9.8" y="92.5" width="52.4" height="1.5"/>
			<g>
				<path d="M66.7,93.2c-2.1,0.8-4.8,2.1-6.4,3.6l1.3-3.6l-1.3-3.6C61.9,91.1,64.6,92.4,66.7,93.2z"/>
			</g>
		</g>
	</g>
	<g>
		<path d="M10.4,98.5c0.1,0.1,0.5,0.2,0.9,0.2c0.7,0,0.9-0.4,0.9-0.8c0-0.5-0.5-0.8-1-0.8h-0.3v-0.4h0.3c0.4,0,0.9-0.2,0.9-0.7
			c0-0.3-0.2-0.6-0.7-0.6c-0.3,0-0.6,0.1-0.8,0.3l-0.1-0.4c0.2-0.1,0.6-0.3,1-0.3c0.8,0,1.1,0.5,1.1,0.9c0,0.4-0.2,0.7-0.7,0.9v0
			c0.5,0.1,0.9,0.5,0.9,1c0,0.6-0.5,1.2-1.4,1.2c-0.4,0-0.8-0.1-1-0.3L10.4,98.5z"/>
	</g>
</g>
<g id="Kanji" class="st0">
	<path class="st1" d="M53,47.8"/>
	<g class="st1">
		<path d="M4.7,81h87.9v6.8H4.7V81z M10.5,12.2H87V19H10.5V12.2z M17,45.5h62.2v6.8H17V45.5z"/>
	</g>
</g>
<g id="Stroke1" class="st0">
	<path class="st1" d="M53,47.8"/>
	<g class="st1">
		<path d="M10.5,12.2H87V19H10.5V12.2z M17,45.5h62.2v6.8H17V45.5z"/>
	</g>
	<g class="st1">
		<line x1="19.7" y1="59.7" x2="80.4" y2="60"/>
		<g>
			<path d="M75.8,60.7C75.8,60.7,75.8,60.7,75.8,60.7l-56.1-0.3c-0.4,0-0.7-0.3-0.7-0.8c0-0.4,0.3-0.7,0.8-0.7c0,0,0,0,0,0l56.1,0.3
				c0.4,0,0.7,0.3,0.7,0.8C76.6,60.4,76.3,60.7,75.8,60.7z"/>
			<g>
				<path d="M80.4,60c-2.1,0.8-4.8,2.1-6.4,3.5l1.3-3.6L74,56.4C75.6,57.8,78.2,59.2,80.4,60z"/>
			</g>
		</g>
	</g>
	<g class="st1">
		<path d="M21.1,68.5h-3.2v-0.3l0.5-0.5c1.3-1.1,2-1.7,2-2.5c0-0.5-0.3-0.9-1-0.9c-0.4,0-0.8,0.2-1.1,0.4L18,64.4
			c0.3-0.2,0.8-0.4,1.4-0.4c1.1,0,1.5,0.7,1.5,1.3c0,0.8-0.7,1.6-1.9,2.5l-0.4,0.4v0h2.4V68.5z"/>
	</g>
</g>
<g id="Stroke0" class="st0">
	<path class="st1" d="M53,47.8"/>
	<g class="st1">
		<path d="M10.5,12.2H87V19H10.5V12.2z"/>
	</g>
	<g class="st1">
		<line x1="11.9" y1="25.9" x2="80.5" y2="25.9"/>
		<g>
			<path d="M76,26.6H11.9c-0.4,0-0.8-0.3-0.8-0.8s0.3-0.8,0.8-0.8H76c0.4,0,0.8,0.3,0.8,0.8S76.4,26.6,76,26.6z"/>
			<g>
				<path d="M80.5,25.9c-2.1,0.8-4.8,2.1-6.4,3.6l1.3-3.6l-1.3-3.6C75.8,23.7,78.4,25.1,80.5,25.9z"/>
			</g>
		</g>
	</g>
	<g class="st1">
		<path d="M13.2,33.2v-4h0l-0.9,0.4l-0.1-0.4l1.1-0.5h0.5v4.5H13.2z"/>
	</g>
</g>
</svg>
