<?xml version="1.0" encoding="utf-8"?>
<!-- Generator: Adobe Illustrator 26.2.1, SVG Export Plug-In . SVG Version: 6.00 Build 0)  -->
<svg version="1.1" xmlns="http://www.w3.org/2000/svg" xmlns:xlink="http://www.w3.org/1999/xlink" x="0px" y="0px"
	 viewBox="0 0 100 100" style="enable-background:new 0 0 100 100;" xml:space="preserve">
<style type="text/css">
	.st0{display:none;}
	.st1{display:inline;}
</style>
<g id="Stroke9">
	<g>
		<path d="M26.2,39.8c3.1,3.8,11.5,15.8,13.4,18.7l-3.9,5.3c-1.7-3.5-6.1-10.6-9.5-16v48.3h-6.3V46.7C16.3,58.5,11.4,70,6.3,77
			c-0.7-1.8-2.4-4.4-3.6-5.9C9.2,62.4,15.9,46,19.1,31.6H4.6v-6.3h15.3v-22l8.3,0.6c-0.1,0.6-0.7,1.1-2,1.3v20.1h12.7v6.3H26.2V39.8
			z M56,46.7c2.7,7.6,6.6,14.8,11.3,21.1C72,61.3,75.4,54,77.5,46.2l8.3,1.9c-0.3,0.7-1,1.2-2.2,1.2C81,57.7,77,65.8,71.5,72.9
			c7.1,7.9,15.8,14.2,25.8,17.8c-1.5,1.4-3.7,4-4.7,5.9c-9.8-4.1-18.3-10.5-25.4-18.5C60,85.8,50.9,92.2,39.4,96.7
			c-0.7-1.5-2.5-4-3.6-5.3c11.3-4.3,20.3-10.6,27.2-18.3c-5.4-7.3-9.8-15.6-13-24.7L56,46.7z M61,31.2c-0.3,0.5-0.9,0.8-1.9,0.8
			c-3.6,7-9.9,15.7-16.7,21.7c-1.1-1.2-3.2-3-4.7-4.1c6.5-5.5,12.6-14,15.9-21.4L61,31.2z M95.8,18.5v6.2h-56v-6.2h24.3V3.3l8.6,0.6
			c-0.1,0.7-0.6,1.2-2,1.4v13.2H95.8z M91.5,53.1c-3-6.1-10.2-15.4-16.8-22.1l5.3-3c6.6,6.6,14,15.6,17.1,21.7L91.5,53.1z"/>
	</g>
	<g>
		<path d="M50.5,61.7l-0.1-0.2c-1.2-2.4-2.2-4.9-3.1-7.5l1.4-0.5c0.9,2.5,1.9,5,3,7.3l0.1,0.2l-0.6,0.4L50.5,61.7z"/>
		<g>
			<path d="M53.2,65.4c-1.7-1.5-4.1-3.2-6.1-4l3.8-0.5l2.6-2.8C52.9,60.2,53,63.1,53.2,65.4z"/>
		</g>
	</g>
	<g>
		<path d="M42.4,55.6L42.4,55.6l-0.7,0.4l-0.1-0.4l0.9-0.5h0.4V59h-0.5V55.6z"/>
		<path d="M46.9,57c0,1.3-0.5,2.1-1.4,2.1c-0.8,0-1.3-0.7-1.3-2c0-1.3,0.6-2,1.4-2C46.5,55,46.9,55.7,46.9,57z M44.8,57
			c0,1,0.3,1.6,0.8,1.6c0.5,0,0.8-0.6,0.8-1.6c0-1-0.2-1.6-0.8-1.6C45.2,55.4,44.8,56,44.8,57z"/>
	</g>
</g>
<g id="Stroke8" class="st0">
	<g class="st1">
		<path d="M26.2,39.8c3.1,3.8,11.5,15.8,13.4,18.7l-3.9,5.3c-1.7-3.5-6.1-10.6-9.5-16v48.3h-6.3V46.7C16.3,58.5,11.4,70,6.3,77
			c-0.7-1.8-2.4-4.4-3.6-5.9C9.2,62.4,15.9,46,19.1,31.6H4.6v-6.3h15.3v-22l8.3,0.6c-0.1,0.6-0.7,1.1-2,1.3v20.1h12.7v6.3H26.2V39.8
			z M67.3,67.8C72,61.3,75.4,54,77.5,46.2l8.3,1.9c-0.3,0.7-1,1.2-2.2,1.2C81,57.7,77,65.8,71.5,72.9l-4.3,5.2
			C60,85.8,50.9,92.2,39.4,96.7c-0.7-1.5-2.5-4-3.6-5.3c11.3-4.3,20.3-10.6,27.2-18.3 M61,31.2c-0.3,0.5-0.9,0.8-1.9,0.8
			c-3.6,7-9.9,15.7-16.7,21.7c-1.1-1.2-3.2-3-4.7-4.1c6.5-5.5,12.6-14,15.9-21.4L61,31.2z M95.8,18.5v6.2h-56v-6.2h24.3V3.3l8.6,0.6
			c-0.1,0.7-0.6,1.2-2,1.4v13.2H95.8z M91.5,53.1c-3-6.1-10.2-15.4-16.8-22.1l5.3-3c6.6,6.6,14,15.6,17.1,21.7L91.5,53.1z"/>
	</g>
	<g class="st1">
		<path d="M84.5,61.4l-1.4-0.6c1.1-2.8,2-5.8,2.6-8.8l1.5,0.3C86.6,55.4,85.7,58.5,84.5,61.4z"/>
		<g>
			<path d="M81.9,65.2c0.2-2.3,0-5.2-0.6-7.3l2.7,2.6l3.8,0.3C85.8,61.7,83.5,63.6,81.9,65.2z"/>
		</g>
	</g>
	<g class="st1">
		<path d="M88.1,57.4c0.1,0,0.2,0,0.4,0c0.3,0,0.6-0.2,0.8-0.4c0.3-0.2,0.4-0.6,0.5-1h0c-0.2,0.3-0.5,0.4-0.9,0.4
			c-0.7,0-1.2-0.5-1.2-1.2c0-0.7,0.5-1.4,1.3-1.4s1.3,0.6,1.3,1.6c0,0.9-0.3,1.5-0.7,1.8c-0.3,0.3-0.7,0.5-1.1,0.5
			c-0.2,0-0.4,0-0.5,0V57.4z M88.2,55.2c0,0.5,0.3,0.8,0.8,0.8c0.4,0,0.6-0.2,0.8-0.4c0,0,0-0.1,0-0.2c0-0.7-0.2-1.2-0.8-1.2
			C88.6,54.3,88.2,54.6,88.2,55.2z"/>
	</g>
</g>
<g id="Stroke7" class="st0">
	<g class="st1">
		<path d="M26.2,39.8c3.1,3.8,11.5,15.8,13.4,18.7l-3.9,5.3c-1.7-3.5-6.1-10.6-9.5-16v48.3h-6.3V46.7C16.3,58.5,11.4,70,6.3,77
			c-0.7-1.8-2.4-4.4-3.6-5.9C9.2,62.4,15.9,46,19.1,31.6H4.6v-6.3h15.3v-22l8.3,0.6c-0.1,0.6-0.7,1.1-2,1.3v20.1h12.7v6.3H26.2V39.8
			z M61,31.2c-0.3,0.5-0.9,0.8-1.9,0.8c-3.6,7-9.9,15.7-16.7,21.7c-1.1-1.2-3.2-3-4.7-4.1c6.5-5.5,12.6-14,15.9-21.4L61,31.2z
			 M95.8,18.5v6.2h-56v-6.2h24.3V3.3l8.6,0.6c-0.1,0.7-0.6,1.2-2,1.4v13.2H95.8z M91.5,53.1c-3-6.1-10.2-15.4-16.8-22.1l5.3-3
			c6.6,6.6,14,15.6,17.1,21.7L91.5,53.1z"/>
	</g>
	<g class="st1">
		<path d="M72.9,34.6c0.5,0.7,7.4,9.4,7.4,9.4"/>
		<g>
			<path d="M76.9,41c-2.9-3.7-4.4-5.6-4.7-5.9l1.2-0.9c0.2,0.3,1.8,2.3,4.6,5.9L76.9,41z"/>
			<g>
				<path d="M80.3,44.1c-1.9-1.2-4.6-2.4-6.8-2.8l3.6-1.2l2-3.2C79,39,79.6,41.9,80.3,44.1z"/>
			</g>
		</g>
	</g>
	<g class="st1">
		<path d="M68.5,39.5c0-0.5,0.3-0.8,0.8-1l0,0c-0.4-0.2-0.6-0.5-0.6-0.9c0-0.6,0.5-1,1.2-1c0.8,0,1.1,0.5,1.1,1
			c0,0.3-0.2,0.7-0.6,0.9v0c0.5,0.2,0.8,0.5,0.8,1c0,0.7-0.6,1.1-1.3,1.1C69,40.6,68.5,40.1,68.5,39.5z M70.6,39.5
			c0-0.5-0.3-0.7-0.9-0.9c-0.5,0.1-0.7,0.4-0.7,0.8c0,0.4,0.3,0.7,0.8,0.7C70.3,40.2,70.6,39.9,70.6,39.5z M69.1,37.5
			c0,0.4,0.3,0.6,0.7,0.7c0.3-0.1,0.6-0.4,0.6-0.7c0-0.3-0.2-0.6-0.7-0.6C69.4,36.9,69.1,37.2,69.1,37.5z"/>
	</g>
</g>
<g id="Stroke6" class="st0">
	<g class="st1">
		<path d="M26.2,39.8c3.1,3.8,11.5,15.8,13.4,18.7l-3.9,5.3c-1.7-3.5-6.1-10.6-9.5-16v48.3h-6.3V46.7C16.3,58.5,11.4,70,6.3,77
			c-0.7-1.8-2.4-4.4-3.6-5.9C9.2,62.4,15.9,46,19.1,31.6H4.6v-6.3h15.3v-22l8.3,0.6c-0.1,0.6-0.7,1.1-2,1.3v20.1h12.7v6.3H26.2V39.8
			z M67.3,67.8 M61,31.2c-0.3,0.5-0.9,0.8-1.9,0.8c-3.6,7-9.9,15.7-16.7,21.7c-1.1-1.2-3.2-3-4.7-4.1c6.5-5.5,12.6-14,15.9-21.4
			L61,31.2z M95.8,18.5v6.2h-56v-6.2h24.3V3.3l8.6,0.6c-0.1,0.7-0.6,1.2-2,1.4v13.2H95.8z"/>
	</g>
	<g class="st1">
		<line x1="63.5" y1="34" x2="57.7" y2="43.7"/>
		<g>
			<rect x="58.3" y="36.1" transform="matrix(0.5111 -0.8595 0.8595 0.5111 -1.5254 71.0773)" width="6.8" height="1.5"/>
			<g>
				<path d="M57.7,43.7c0.4-2.2,0.6-5.2,0.2-7.3l2.4,2.9L64,40C62,40.7,59.4,42.3,57.7,43.7z"/>
			</g>
		</g>
	</g>
	<g class="st1">
		<path d="M68,32.3v0.3l-1.7,3.6h-0.5l1.7-3.4v0h-1.9v-0.4H68z"/>
	</g>
</g>
<g id="Stroke5" class="st0">
	<g class="st1">
		<path d="M26.2,39.8c3.1,3.8,11.5,15.8,13.4,18.7l-3.9,5.3c-1.7-3.5-6.1-10.6-9.5-16v48.3h-6.3V46.7C16.3,58.5,11.4,70,6.3,77
			c-0.7-1.8-2.4-4.4-3.6-5.9C9.2,62.4,15.9,46,19.1,31.6H4.6v-6.3h15.3v-22l8.3,0.6c-0.1,0.6-0.7,1.1-2,1.3v20.1h12.7v6.3H26.2V39.8
			z M95.8,18.5v6.2h-56v-6.2h24.3V3.3l8.6,0.6c-0.1,0.7-0.6,1.2-2,1.4v13.2H95.8z"/>
	</g>
	<g class="st1">
		<line x1="41.7" y1="29.6" x2="56.6" y2="29.6"/>
		<g>
			<rect x="41.7" y="28.8" width="10.4" height="1.5"/>
			<g>
				<path d="M56.6,29.6c-2.1,0.8-4.8,2.1-6.4,3.6l1.3-3.6L50.2,26C51.8,27.4,54.5,28.8,56.6,29.6z"/>
			</g>
		</g>
	</g>
	<g class="st1">
		<path d="M43.3,32.1c-0.1,0-0.2,0-0.4,0c-0.8,0.1-1.3,0.7-1.4,1.4h0c0.2-0.2,0.5-0.4,0.9-0.4c0.7,0,1.2,0.5,1.2,1.3
			c0,0.7-0.5,1.4-1.3,1.4c-0.8,0-1.4-0.6-1.4-1.7c0-0.8,0.3-1.4,0.7-1.8c0.3-0.3,0.8-0.5,1.2-0.6c0.2,0,0.3,0,0.4,0V32.1z
			 M43.2,34.4c0-0.6-0.3-0.9-0.8-0.9c-0.3,0-0.6,0.2-0.8,0.5c0,0.1-0.1,0.1-0.1,0.2c0,0.6,0.3,1.1,0.9,1.1
			C42.9,35.3,43.2,34.9,43.2,34.4z"/>
	</g>
</g>
<g id="Stroke4" class="st0">
	<g class="st1">
		<path d="M26.2,39.8c3.1,3.8,11.5,15.8,13.4,18.7l-3.9,5.3c-1.7-3.5-6.1-10.6-9.5-16v48.3h-6.3V46.7C16.3,58.5,11.4,70,6.3,77
			c-0.7-1.8-2.4-4.4-3.6-5.9C9.2,62.4,15.9,46,19.1,31.6H4.6v-6.3h15.3v-22l8.3,0.6c-0.1,0.6-0.7,1.1-2,1.3v20.1h12.7v6.3H26.2V39.8
			z M64.1,18.5V3.3l8.6,0.6c-0.1,0.7-0.6,1.2-2,1.4v13.2"/>
	</g>
	<g class="st1">
		<line x1="74.7" y1="4.2" x2="74.7" y2="14.2"/>
		<g>
			<rect x="73.9" y="4.2" width="1.5" height="5.5"/>
			<g>
				<path d="M74.7,14.2c-0.8-2.1-2.1-4.8-3.6-6.4l3.6,1.3l3.6-1.3C76.8,9.5,75.5,12.1,74.7,14.2z"/>
			</g>
		</g>
	</g>
	<g class="st1">
		<path d="M80.7,3.2h-1.5l-0.2,1c0.1,0,0.2,0,0.3,0c0.3,0,0.6,0.1,0.8,0.2c0.3,0.2,0.6,0.5,0.6,1c0,0.8-0.6,1.3-1.5,1.3
			c-0.4,0-0.8-0.1-1-0.2l0.1-0.4c0.2,0.1,0.5,0.2,0.8,0.2c0.5,0,0.9-0.3,0.9-0.8c0-0.5-0.3-0.9-1.1-0.9c-0.2,0-0.4,0-0.5,0l0.3-1.9
			h1.9V3.2z"/>
	</g>
</g>
<g id="Stroke3" class="st0">
	<g class="st1">
		<path d="M26.2,39.8c3.1,3.8,11.5,15.8,13.4,18.7l-3.9,5.3c-1.7-3.5-6.1-10.6-9.5-16v48.3h-6.3V46.7C16.3,58.5,11.4,70,6.3,77
			c-0.7-1.8-2.4-4.4-3.6-5.9C9.2,62.4,15.9,46,19.1,31.6H4.6v-6.3h15.3v-22l8.3,0.6c-0.1,0.6-0.7,1.1-2,1.3v20.1h12.7v6.3H26.2V39.8
			z"/>
	</g>
	<g class="st1">
		<path d="M36.2,47.9c-3.9-4.7-6.3-7.6-6.6-7.9l1.1-1c0.4,0.4,3.8,4.6,6.7,8L36.2,47.9z"/>
		<g>
			<path d="M39.6,50.9c-2-1.1-4.7-2.3-6.8-2.6l3.6-1.3l1.9-3.3C38.2,45.9,38.9,48.8,39.6,50.9z"/>
		</g>
	</g>
	<g class="st1">
		<path d="M32.7,38.4v-1.1h-1.8V37l1.7-2.5h0.6v2.4h0.5v0.4h-0.5v1.1H32.7z M32.7,36.9v-1.3c0-0.2,0-0.4,0-0.6h0
			c-0.1,0.2-0.2,0.4-0.3,0.6l-1,1.3v0H32.7z"/>
	</g>
</g>
<g id="Stroke2" class="st0">
	<g class="st1">
		<path d="M26.2,47.8v48.3h-6.3V46.7C16.3,58.5,11.4,70,6.3,77c-0.7-1.8-2.4-4.4-3.6-5.9C9.2,62.4,15.9,46,19.1,31.6H4.6v-6.3h15.3
			v-22l8.3,0.6c-0.1,0.6-0.7,1.1-2,1.3v20.1h12.7v6.3H26.2v8.2"/>
	</g>
	<g class="st1">
		<line x1="14.7" y1="35.4" x2="10" y2="47"/>
		<g>
			<rect x="9.2" y="38.3" transform="matrix(0.3763 -0.9265 0.9265 0.3763 -27.9686 36.5997)" width="8" height="1.5"/>
			<g>
				<path d="M10,47c0.1-2.3-0.2-5.2-0.9-7.3l2.8,2.5l3.8,0.1C13.8,43.3,11.5,45.3,10,47z"/>
			</g>
		</g>
	</g>
	<g class="st1">
		<path d="M9.1,36.4c0.1,0.1,0.5,0.2,0.9,0.2c0.7,0,0.9-0.4,0.9-0.8c0-0.5-0.5-0.8-1-0.8H9.5v-0.4h0.3c0.4,0,0.9-0.2,0.9-0.7
			c0-0.3-0.2-0.6-0.7-0.6c-0.3,0-0.6,0.1-0.8,0.3l-0.1-0.4c0.2-0.1,0.6-0.3,1-0.3c0.8,0,1.1,0.5,1.1,0.9c0,0.4-0.2,0.7-0.7,0.9v0
			c0.5,0.1,0.9,0.5,0.9,1c0,0.6-0.5,1.2-1.4,1.2c-0.4,0-0.8-0.1-1-0.3L9.1,36.4z"/>
	</g>
</g>
<g id="Stroke1" class="st0">
	<g class="st1">
		<path d="M20.3,31.9L4.6,31.6v-6.3h15.3v-22l8.3,0.6c-0.1,0.6-0.7,1.1-2,1.3v20.1h12.7v6.3H26.2v8.2v8v48.3h-6.3V46.7 M67.3,67.8"
			/>
	</g>
	<g class="st1">
		<path d="M31.3,4.3c0,0.3,0,14,0,14"/>
		<g>
			<rect x="30.5" y="4.3" width="1.5" height="9.4"/>
			<g>
				<path d="M31.3,18.3c-0.8-2.1-2.1-4.8-3.6-6.4l3.6,1.3l3.6-1.3C33.4,13.5,32.1,16.1,31.3,18.3z"/>
			</g>
		</g>
	</g>
	<g class="st1">
		<path d="M34.2,7.5V7.2l0.4-0.4c1-0.9,1.4-1.5,1.5-2c0-0.4-0.2-0.8-0.8-0.8c-0.4,0-0.6,0.2-0.8,0.3l-0.2-0.4
			c0.3-0.2,0.7-0.4,1.1-0.4c0.8,0,1.2,0.6,1.2,1.1c0,0.7-0.5,1.3-1.3,2.1L35,7v0h1.8v0.4H34.2z"/>
	</g>
</g>
<g id="Stroke0" class="st0">
	<g class="st1">
		<path d="M19.1,31.6H4.6v-6.3h15.3h6.3h12.7v6.3H26.2"/>
	</g>
	<g class="st1">
		<line x1="4.6" y1="36.4" x2="16" y2="36.4"/>
		<g>
			<rect x="4.6" y="35.6" width="6.8" height="1.5"/>
			<g>
				<path d="M16,36.4c-2.1,0.8-4.8,2.1-6.4,3.6l1.3-3.6l-1.3-3.6C11.2,34.2,13.9,35.6,16,36.4z"/>
			</g>
		</g>
	</g>
	<g class="st1">
		<path d="M5.2,40.1L5.2,40.1l-0.7,0.4l-0.1-0.4l0.9-0.5h0.4v3.9H5.2V40.1z"/>
	</g>
</g>
<g id="Kanji" class="st0">
	<g class="st1">
		<path d="M26.2,39.8c3.1,3.8,11.5,15.8,13.4,18.7l-3.9,5.3c-1.7-3.5-6.1-10.6-9.5-16v48.3h-6.3V46.7C16.3,58.5,11.4,70,6.3,77
			c-0.7-1.8-2.4-4.4-3.6-5.9C9.2,62.4,15.9,46,19.1,31.6H4.6v-6.3h15.3v-22l8.3,0.6c-0.1,0.6-0.7,1.1-2,1.3v20.1h12.7v6.3H26.2V39.8
			z M56,46.7c2.7,7.6,6.6,14.8,11.3,21.1C72,61.3,75.4,54,77.5,46.2l8.3,1.9c-0.3,0.7-1,1.2-2.2,1.2C81,57.7,77,65.8,71.5,72.9
			c7.1,7.9,15.8,14.2,25.8,17.8c-1.5,1.4-3.7,4-4.7,5.9c-9.8-4.1-18.3-10.5-25.4-18.5C60,85.8,50.9,92.2,39.4,96.7
			c-0.7-1.5-2.5-4-3.6-5.3c11.3-4.3,20.3-10.6,27.2-18.3c-5.4-7.3-9.8-15.6-13-24.7L56,46.7z M61,31.2c-0.3,0.5-0.9,0.8-1.9,0.8
			c-3.6,7-9.9,15.7-16.7,21.7c-1.1-1.2-3.2-3-4.7-4.1c6.5-5.5,12.6-14,15.9-21.4L61,31.2z M95.8,18.5v6.2h-56v-6.2h24.3V3.3l8.6,0.6
			c-0.1,0.7-0.6,1.2-2,1.4v13.2H95.8z M91.5,53.1c-3-6.1-10.2-15.4-16.8-22.1l5.3-3c6.6,6.6,14,15.6,17.1,21.7L91.5,53.1z"/>
	</g>
</g>
</svg>
