<?xml version="1.0" encoding="utf-8"?>
<!-- Generator: Adobe Illustrator 26.2.1, SVG Export Plug-In . SVG Version: 6.00 Build 0)  -->
<svg version="1.1" xmlns="http://www.w3.org/2000/svg" xmlns:xlink="http://www.w3.org/1999/xlink" x="0px" y="0px"
	 viewBox="0 0 100 100" style="enable-background:new 0 0 100 100;" xml:space="preserve" width = "100px" height = "100px">
<style type="text/css">
	.st0{display:none;}
	.st1{display:inline;}
</style>


		<path d="M26.2,39.8c3.1,3.8,11.5,15.8,13.4,18.7l-3.9,5.3c-1.7-3.5-6.1-10.6-9.5-16v48.3h-6.3V46.7C16.3,58.5,11.4,70,6.3,77
			c-0.7-1.8-2.4-4.4-3.6-5.9C9.2,62.4,15.9,46,19.1,31.6H4.6v-6.3h15.3v-22l8.3,0.6c-0.1,0.6-0.7,1.1-2,1.3v20.1h12.7v6.3H26.2V39.8
			z M67.3,67.8C72,61.3,75.4,54,77.5,46.2l8.3,1.9c-0.3,0.7-1,1.2-2.2,1.2C81,57.7,77,65.8,71.5,72.9l-4.3,5.2
			C60,85.8,50.9,92.2,39.4,96.7c-0.7-1.5-2.5-4-3.6-5.3c11.3-4.3,20.3-10.6,27.2-18.3 M61,31.2c-0.3,0.5-0.9,0.8-1.9,0.8
			c-3.6,7-9.9,15.7-16.7,21.7c-1.1-1.2-3.2-3-4.7-4.1c6.5-5.5,12.6-14,15.9-21.4L61,31.2z M95.8,18.5v6.2h-56v-6.2h24.3V3.3l8.6,0.6
			c-0.1,0.7-0.6,1.2-2,1.4v13.2H95.8z M91.5,53.1c-3-6.1-10.2-15.4-16.8-22.1l5.3-3c6.6,6.6,14,15.6,17.1,21.7L91.5,53.1z"/>

		<path d="M84.5,61.4l-1.4-0.6c1.1-2.8,2-5.8,2.6-8.8l1.5,0.3C86.6,55.4,85.7,58.5,84.5,61.4z"/>
		
			<path d="M81.9,65.2c0.2-2.3,0-5.2-0.6-7.3l2.7,2.6l3.8,0.3C85.8,61.7,83.5,63.6,81.9,65.2z"/>

		<path d="M88.1,57.4c0.1,0,0.2,0,0.4,0c0.3,0,0.6-0.2,0.8-0.4c0.3-0.2,0.4-0.6,0.5-1h0c-0.2,0.3-0.5,0.4-0.9,0.4
			c-0.7,0-1.2-0.5-1.2-1.2c0-0.7,0.5-1.4,1.3-1.4s1.3,0.6,1.3,1.6c0,0.9-0.3,1.5-0.7,1.8c-0.3,0.3-0.7,0.5-1.1,0.5
			c-0.2,0-0.4,0-0.5,0V57.4z M88.2,55.2c0,0.5,0.3,0.8,0.8,0.8c0.4,0,0.6-0.2,0.8-0.4c0,0,0-0.1,0-0.2c0-0.7-0.2-1.2-0.8-1.2
			C88.6,54.3,88.2,54.6,88.2,55.2z"/>


 </svg>