<?xml version="1.0" encoding="utf-8"?>
<!-- Generator: Adobe Illustrator 26.2.1, SVG Export Plug-In . SVG Version: 6.00 Build 0)  -->
<svg version="1.1" xmlns="http://www.w3.org/2000/svg" xmlns:xlink="http://www.w3.org/1999/xlink" x="0px" y="0px"
	 viewBox="0 0 100 100" style="enable-background:new 0 0 100 100;" xml:space="preserve" width = "100px" height = "100px">
<style type="text/css">
	.st0{display:none;}
	.st1{display:inline;}
</style> 


		<path d="M20.3,31.9L4.6,31.6v-6.3h15.3v-22l8.3,0.6c-0.1,0.6-0.7,1.1-2,1.3v20.1h12.7v6.3H26.2v8.2v8v48.3h-6.3V46.7 M67.3,67.8"
			/>

		<path d="M31.3,4.3c0,0.3,0,14,0,14"/>

			<rect x="30.5" y="4.3" width="1.5" height="9.4"/>

				<path d="M31.3,18.3c-0.8-2.1-2.1-4.8-3.6-6.4l3.6,1.3l3.6-1.3C33.4,13.5,32.1,16.1,31.3,18.3z"/>

		<path d="M34.2,7.5V7.2l0.4-0.4c1-0.9,1.4-1.5,1.5-2c0-0.4-0.2-0.8-0.8-0.8c-0.4,0-0.6,0.2-0.8,0.3l-0.2-0.4
			c0.3-0.2,0.7-0.4,1.1-0.4c0.8,0,1.2,0.6,1.2,1.1c0,0.7-0.5,1.3-1.3,2.1L35,7v0h1.8v0.4H34.2z"/>


</svg>