<?xml version="1.0" encoding="utf-8"?>
<!-- Generator: Adobe Illustrator 26.2.1, SVG Export Plug-In . SVG Version: 6.00 Build 0)  -->
<svg version="1.1" xmlns="http://www.w3.org/2000/svg" xmlns:xlink="http://www.w3.org/1999/xlink" x="0px" y="0px"
	 viewBox="0 0 100 100" style="enable-background:new 0 0 100 100;" xml:space="preserve" width = "100px" height = "100px">
<style type="text/css">
	.st0{display:none;}
	.st1{display:inline;}
</style> 


		<path d="M26.2,39.8c3.1,3.8,11.5,15.8,13.4,18.7l-3.9,5.3c-1.7-3.5-6.1-10.6-9.5-16v48.3h-6.3V46.7C16.3,58.5,11.4,70,6.3,77
			c-0.7-1.8-2.4-4.4-3.6-5.9C9.2,62.4,15.9,46,19.1,31.6H4.6v-6.3h15.3v-22l8.3,0.6c-0.1,0.6-0.7,1.1-2,1.3v20.1h12.7v6.3H26.2V39.8
			z M56,46.7c2.7,7.6,6.6,14.8,11.3,21.1C72,61.3,75.4,54,77.5,46.2l8.3,1.9c-0.3,0.7-1,1.2-2.2,1.2C81,57.7,77,65.8,71.5,72.9
			c7.1,7.9,15.8,14.2,25.8,17.8c-1.5,1.4-3.7,4-4.7,5.9c-9.8-4.1-18.3-10.5-25.4-18.5C60,85.8,50.9,92.2,39.4,96.7
			c-0.7-1.5-2.5-4-3.6-5.3c11.3-4.3,20.3-10.6,27.2-18.3c-5.4-7.3-9.8-15.6-13-24.7L56,46.7z M61,31.2c-0.3,0.5-0.9,0.8-1.9,0.8
			c-3.6,7-9.9,15.7-16.7,21.7c-1.1-1.2-3.2-3-4.7-4.1c6.5-5.5,12.6-14,15.9-21.4L61,31.2z M95.8,18.5v6.2h-56v-6.2h24.3V3.3l8.6,0.6
			c-0.1,0.7-0.6,1.2-2,1.4v13.2H95.8z M91.5,53.1c-3-6.1-10.2-15.4-16.8-22.1l5.3-3c6.6,6.6,14,15.6,17.1,21.7L91.5,53.1z"/>

		<path d="M50.5,61.7l-0.1-0.2c-1.2-2.4-2.2-4.9-3.1-7.5l1.4-0.5c0.9,2.5,1.9,5,3,7.3l0.1,0.2l-0.6,0.4L50.5,61.7z"/>
	
			<path d="M53.2,65.4c-1.7-1.5-4.1-3.2-6.1-4l3.8-0.5l2.6-2.8C52.9,60.2,53,63.1,53.2,65.4z"/>

		<path d="M42.4,55.6L42.4,55.6l-0.7,0.4l-0.1-0.4l0.9-0.5h0.4V59h-0.5V55.6z"/>
		<path d="M46.9,57c0,1.3-0.5,2.1-1.4,2.1c-0.8,0-1.3-0.7-1.3-2c0-1.3,0.6-2,1.4-2C46.5,55,46.9,55.7,46.9,57z M44.8,57
			c0,1,0.3,1.6,0.8,1.6c0.5,0,0.8-0.6,0.8-1.6c0-1-0.2-1.6-0.8-1.6C45.2,55.4,44.8,56,44.8,57z"/>


</svg>