<?xml version="1.0" encoding="utf-8"?>
<!-- Generator: Adobe Illustrator 26.2.1, SVG Export Plug-In . SVG Version: 6.00 Build 0)  -->
<svg version="1.1" xmlns="http://www.w3.org/2000/svg" xmlns:xlink="http://www.w3.org/1999/xlink" x="0px" y="0px"
	 viewBox="0 0 100 100" style="enable-background:new 0 0 100 100;" xml:space="preserve" width = "100px" height = "100px">
<style type="text/css">
	.st0{display:none;}
	.st1{display:inline;}
</style> 

		<path d="M26.2,39.8c3.1,3.8,11.5,15.8,13.4,18.7l-3.9,5.3c-1.7-3.5-6.1-10.6-9.5-16v48.3h-6.3V46.7C16.3,58.5,11.4,70,6.3,77
			c-0.7-1.8-2.4-4.4-3.6-5.9C9.2,62.4,15.9,46,19.1,31.6H4.6v-6.3h15.3v-22l8.3,0.6c-0.1,0.6-0.7,1.1-2,1.3v20.1h12.7v6.3H26.2V39.8
			z M64.1,18.5V3.3l8.6,0.6c-0.1,0.7-0.6,1.2-2,1.4v13.2"/>

		<line x1="74.7" y1="4.2" x2="74.7" y2="14.2"/>

			<rect x="73.9" y="4.2" width="1.5" height="5.5"/>
		
				<path d="M74.7,14.2c-0.8-2.1-2.1-4.8-3.6-6.4l3.6,1.3l3.6-1.3C76.8,9.5,75.5,12.1,74.7,14.2z"/>

		<path d="M80.7,3.2h-1.5l-0.2,1c0.1,0,0.2,0,0.3,0c0.3,0,0.6,0.1,0.8,0.2c0.3,0.2,0.6,0.5,0.6,1c0,0.8-0.6,1.3-1.5,1.3
			c-0.4,0-0.8-0.1-1-0.2l0.1-0.4c0.2,0.1,0.5,0.2,0.8,0.2c0.5,0,0.9-0.3,0.9-0.8c0-0.5-0.3-0.9-1.1-0.9c-0.2,0-0.4,0-0.5,0l0.3-1.9
			h1.9V3.2z"/>

</svg>