<?xml version="1.0" encoding="utf-8"?>
<!-- Generator: Adobe Illustrator 26.2.1, SVG Export Plug-In . SVG Version: 6.00 Build 0)  -->
<svg version="1.1" xmlns="http://www.w3.org/2000/svg" xmlns:xlink="http://www.w3.org/1999/xlink" x="0px" y="0px"
	 viewBox="0 0 100 100" style="enable-background:new 0 0 100 100;" xml:space="preserve" width = "100px" height = "100px">
<style type="text/css">
	.st0{display:none;}
	.st1{display:inline;}
</style>

		<path d="M26.2,39.8c3.1,3.8,11.5,15.8,13.4,18.7l-3.9,5.3c-1.7-3.5-6.1-10.6-9.5-16v48.3h-6.3V46.7C16.3,58.5,11.4,70,6.3,77
			c-0.7-1.8-2.4-4.4-3.6-5.9C9.2,62.4,15.9,46,19.1,31.6H4.6v-6.3h15.3v-22l8.3,0.6c-0.1,0.6-0.7,1.1-2,1.3v20.1h12.7v6.3H26.2V39.8
			z M61,31.2c-0.3,0.5-0.9,0.8-1.9,0.8c-3.6,7-9.9,15.7-16.7,21.7c-1.1-1.2-3.2-3-4.7-4.1c6.5-5.5,12.6-14,15.9-21.4L61,31.2z
			 M95.8,18.5v6.2h-56v-6.2h24.3V3.3l8.6,0.6c-0.1,0.7-0.6,1.2-2,1.4v13.2H95.8z M91.5,53.1c-3-6.1-10.2-15.4-16.8-22.1l5.3-3
			c6.6,6.6,14,15.6,17.1,21.7L91.5,53.1z"/>

		<path d="M72.9,34.6c0.5,0.7,7.4,9.4,7.4,9.4"/>

			<path d="M76.9,41c-2.9-3.7-4.4-5.6-4.7-5.9l1.2-0.9c0.2,0.3,1.8,2.3,4.6,5.9L76.9,41z"/>

				<path d="M80.3,44.1c-1.9-1.2-4.6-2.4-6.8-2.8l3.6-1.2l2-3.2C79,39,79.6,41.9,80.3,44.1z"/>

		<path d="M68.5,39.5c0-0.5,0.3-0.8,0.8-1l0,0c-0.4-0.2-0.6-0.5-0.6-0.9c0-0.6,0.5-1,1.2-1c0.8,0,1.1,0.5,1.1,1
			c0,0.3-0.2,0.7-0.6,0.9v0c0.5,0.2,0.8,0.5,0.8,1c0,0.7-0.6,1.1-1.3,1.1C69,40.6,68.5,40.1,68.5,39.5z M70.6,39.5
			c0-0.5-0.3-0.7-0.9-0.9c-0.5,0.1-0.7,0.4-0.7,0.8c0,0.4,0.3,0.7,0.8,0.7C70.3,40.2,70.6,39.9,70.6,39.5z M69.1,37.5
			c0,0.4,0.3,0.6,0.7,0.7c0.3-0.1,0.6-0.4,0.6-0.7c0-0.3-0.2-0.6-0.7-0.6C69.4,36.9,69.1,37.2,69.1,37.5z"/>


 </svg>