<?xml version="1.0" encoding="utf-8"?>
<!-- Generator: Adobe Illustrator 26.2.1, SVG Export Plug-In . SVG Version: 6.00 Build 0)  -->
<svg version="1.1" xmlns="http://www.w3.org/2000/svg" xmlns:xlink="http://www.w3.org/1999/xlink" x="0px" y="0px"
	 viewBox="0 0 100 100" style="enable-background:new 0 0 100 100;" xml:space="preserve" width = "100px" height = "100px">
<style type="text/css">
	.st0{display:none;}
	.st1{display:inline;}
</style>

		<path d="M26.2,39.8c3.1,3.8,11.5,15.8,13.4,18.7l-3.9,5.3c-1.7-3.5-6.1-10.6-9.5-16v48.3h-6.3V46.7C16.3,58.5,11.4,70,6.3,77
			c-0.7-1.8-2.4-4.4-3.6-5.9C9.2,62.4,15.9,46,19.1,31.6H4.6v-6.3h15.3v-22l8.3,0.6c-0.1,0.6-0.7,1.1-2,1.3v20.1h12.7v6.3H26.2V39.8
			z M95.8,18.5v6.2h-56v-6.2h24.3V3.3l8.6,0.6c-0.1,0.7-0.6,1.2-2,1.4v13.2H95.8z"/>

		<line x1="41.7" y1="29.6" x2="56.6" y2="29.6"/>

			<rect x="41.7" y="28.8" width="10.4" height="1.5"/>
		
				<path d="M56.6,29.6c-2.1,0.8-4.8,2.1-6.4,3.6l1.3-3.6L50.2,26C51.8,27.4,54.5,28.8,56.6,29.6z"/>

		<path d="M43.3,32.1c-0.1,0-0.2,0-0.4,0c-0.8,0.1-1.3,0.7-1.4,1.4h0c0.2-0.2,0.5-0.4,0.9-0.4c0.7,0,1.2,0.5,1.2,1.3
			c0,0.7-0.5,1.4-1.3,1.4c-0.8,0-1.4-0.6-1.4-1.7c0-0.8,0.3-1.4,0.7-1.8c0.3-0.3,0.8-0.5,1.2-0.6c0.2,0,0.3,0,0.4,0V32.1z
			 M43.2,34.4c0-0.6-0.3-0.9-0.8-0.9c-0.3,0-0.6,0.2-0.8,0.5c0,0.1-0.1,0.1-0.1,0.2c0,0.6,0.3,1.1,0.9,1.1
			C42.9,35.3,43.2,34.9,43.2,34.4z"/>

 </svg>