<?xml version="1.0" encoding="utf-8"?>
<!-- Generator: Adobe Illustrator 26.2.1, SVG Export Plug-In . SVG Version: 6.00 Build 0)  -->
<svg version="1.1" xmlns="http://www.w3.org/2000/svg" xmlns:xlink="http://www.w3.org/1999/xlink" x="0px" y="0px"
	 viewBox="0 0 100 100" style="enable-background:new 0 0 100 100;" xml:space="preserve" width = "100px" height = "100px">
<style type="text/css">
	.st0{display:none;}
	.st1{display:inline;}
</style> 


		<path d="M26.2,39.8c3.1,3.8,11.5,15.8,13.4,18.7l-3.9,5.3c-1.7-3.5-6.1-10.6-9.5-16v48.3h-6.3V46.7C16.3,58.5,11.4,70,6.3,77
			c-0.7-1.8-2.4-4.4-3.6-5.9C9.2,62.4,15.9,46,19.1,31.6H4.6v-6.3h15.3v-22l8.3,0.6c-0.1,0.6-0.7,1.1-2,1.3v20.1h12.7v6.3H26.2V39.8
			z M67.3,67.8 M61,31.2c-0.3,0.5-0.9,0.8-1.9,0.8c-3.6,7-9.9,15.7-16.7,21.7c-1.1-1.2-3.2-3-4.7-4.1c6.5-5.5,12.6-14,15.9-21.4
			L61,31.2z M95.8,18.5v6.2h-56v-6.2h24.3V3.3l8.6,0.6c-0.1,0.7-0.6,1.2-2,1.4v13.2H95.8z"/>

		<line x1="63.5" y1="34" x2="57.7" y2="43.7"/>
	
			<rect x="58.3" y="36.1" transform="matrix(0.5111 -0.8595 0.8595 0.5111 -1.5254 71.0773)" width="6.8" height="1.5"/>
		
				<path d="M57.7,43.7c0.4-2.2,0.6-5.2,0.2-7.3l2.4,2.9L64,40C62,40.7,59.4,42.3,57.7,43.7z"/>

		<path d="M68,32.3v0.3l-1.7,3.6h-0.5l1.7-3.4v0h-1.9v-0.4H68z"/>

</svg>