<?xml version="1.0" encoding="utf-8"?>
<!-- Generator: Adobe Illustrator 26.2.1, SVG Export Plug-In . SVG Version: 6.00 Build 0)  -->
<svg version="1.1" xmlns="http://www.w3.org/2000/svg" xmlns:xlink="http://www.w3.org/1999/xlink" x="0px" y="0px"
	 viewBox="0 0 100 100" style="enable-background:new 0 0 100 100;" xml:space="preserve" width = "100px" height = "100px">
<style type="text/css">
	.st0{display:none;}
	.st1{display:inline;}
</style> 



		<path d="M26.2,39.8c3.1,3.8,11.5,15.8,13.4,18.7l-3.9,5.3c-1.7-3.5-6.1-10.6-9.5-16v48.3h-6.3V46.7C16.3,58.5,11.4,70,6.3,77
			c-0.7-1.8-2.4-4.4-3.6-5.9C9.2,62.4,15.9,46,19.1,31.6H4.6v-6.3h15.3v-22l8.3,0.6c-0.1,0.6-0.7,1.1-2,1.3v20.1h12.7v6.3H26.2V39.8
			z"/>

		<path d="M36.2,47.9c-3.9-4.7-6.3-7.6-6.6-7.9l1.1-1c0.4,0.4,3.8,4.6,6.7,8L36.2,47.9z"/>

			<path d="M39.6,50.9c-2-1.1-4.7-2.3-6.8-2.6l3.6-1.3l1.9-3.3C38.2,45.9,38.9,48.8,39.6,50.9z"/>

		<path d="M32.7,38.4v-1.1h-1.8V37l1.7-2.5h0.6v2.4h0.5v0.4h-0.5v1.1H32.7z M32.7,36.9v-1.3c0-0.2,0-0.4,0-0.6h0
			c-0.1,0.2-0.2,0.4-0.3,0.6l-1,1.3v0H32.7z"/>



</svg>