<?xml version="1.0" encoding="utf-8"?>
<!-- Generator: Adobe Illustrator 26.2.1, SVG Export Plug-In . SVG Version: 6.00 Build 0)  -->
<svg version="1.1" xmlns="http://www.w3.org/2000/svg" xmlns:xlink="http://www.w3.org/1999/xlink" x="0px" y="0px"
	 viewBox="0 0 100 100" style="enable-background:new 0 0 100 100;" xml:space="preserve" width = "100px" height = "100px">
<style type="text/css">
	.st0{display:none;}
	.st1{display:inline;}
</style> 


	<path class="st2" d="M56.9,88.2"/>

		<path d="M84.9,13.6H15.1V93H8.4V7h83.2v76.6c0,8.7-3.8,9.2-22.4,9.2c-0.4-1.9-1.6-4.9-2.6-6.8c3.6,0.1,7,0.2,9.8,0.2
			c7.9,0,8.5,0,8.5-2.6 M15.1,13.6 M84.9,13.6"/>

		<path d="M80.5,37.4H79V27.3c0-2.5-1-5-2.7-6.8c-1.9-2-4.5-3.1-7.2-3.1H25.8v-1.5h43.3c3.1,0,6.1,1.3,8.2,3.5
			c2,2.1,3.1,4.9,3.1,7.8V37.4z"/>

			<path d="M79.8,41.9c-0.8-2.1-2.1-4.8-3.6-6.4l3.6,1.3l3.6-1.3C81.9,37.1,80.6,39.8,79.8,41.9z"/>

		<path d="M27,24.2v-0.3l0.4-0.4c1-0.9,1.4-1.5,1.5-2c0-0.4-0.2-0.8-0.8-0.8c-0.4,0-0.6,0.2-0.8,0.3L27,20.6
			c0.3-0.2,0.7-0.4,1.1-0.4c0.8,0,1.2,0.6,1.2,1.1c0,0.7-0.5,1.3-1.3,2.1l-0.3,0.3v0h1.8v0.4H27z"/>

</svg>