<?xml version="1.0" encoding="utf-8"?>
<!-- Generator: Adobe Illustrator 26.2.1, SVG Export Plug-In . SVG Version: 6.00 Build 0)  -->
<svg version="1.1" xmlns="http://www.w3.org/2000/svg" xmlns:xlink="http://www.w3.org/1999/xlink" x="0px" y="0px"
	 viewBox="0 0 100 100" style="enable-background:new 0 0 100 100;" xml:space="preserve">
<style type="text/css">
	.st0{fill:#FFFFFF;}
	.st1{display:none;}
	.st2{display:inline;fill:#FFFFFF;}
	.st3{display:inline;}
</style>
<g id="Stroke3">
	<path class="st0" d="M56.9,88.2"/>
	<g>
		<path d="M91.6,7v76.6c0,8.7-3.8,9.2-22.4,9.2c-0.4-1.9-1.6-4.9-2.6-6.8c3.6,0.1,7,0.2,9.8,0.2c7.9,0,8.5,0,8.5-2.6V51H15.1v42H8.4
			V7H91.6z M15.1,13.6v30.7h31V13.6H15.1z M52.8,44.3h32.1V13.6H52.8V44.3z"/>
	</g>
	<g>
		<line x1="18.6" y1="56.2" x2="54.6" y2="56.2"/>
		<g>
			<rect x="18.6" y="55.4" width="31.4" height="1.5"/>
			<g>
				<path d="M54.6,56.2c-2.1,0.8-4.8,2.1-6.4,3.6l1.3-3.6l-1.3-3.6C49.8,54.1,52.4,55.4,54.6,56.2z"/>
			</g>
		</g>
	</g>
	<g>
		<path d="M21.2,62.8v-1.1h-1.8v-0.3l1.7-2.5h0.6v2.4h0.5v0.4h-0.5v1.1H21.2z M21.2,61.3V60c0-0.2,0-0.4,0-0.6h0
			c-0.1,0.2-0.2,0.4-0.3,0.6l-1,1.3v0H21.2z"/>
	</g>
</g>
<g id="Stroke2" class="st1">
	<path class="st2" d="M56.9,88.2"/>
	<g class="st3">
		<path d="M15.1,44.3V93H8.4V7h83.2v76.6c0,8.7-3.8,9.2-22.4,9.2c-0.4-1.9-1.6-4.9-2.6-6.8c3.6,0.1,7,0.2,9.8,0.2
			c7.9,0,8.5,0,8.5-2.6V44.3 M15.1,13.6v30.7h31V13.6H15.1z M52.8,44.3h32.1V13.6H52.8V44.3z"/>
	</g>
	<g class="st3">
		<line x1="58" y1="15.3" x2="58" y2="37.8"/>
		<g>
			<rect x="57.2" y="15.3" width="1.5" height="17.9"/>
			<g>
				<path d="M58,37.8c-0.8-2.1-2.1-4.8-3.6-6.4l3.6,1.3l3.6-1.3C60.1,33,58.7,35.6,58,37.8z"/>
			</g>
		</g>
	</g>
	<g class="st3">
		<path d="M61.9,19.1c0.2,0.1,0.5,0.2,0.9,0.2c0.7,0,0.9-0.4,0.9-0.8c0-0.5-0.5-0.8-1-0.8h-0.3v-0.4h0.3c0.4,0,0.9-0.2,0.9-0.7
			c0-0.3-0.2-0.6-0.7-0.6c-0.3,0-0.6,0.1-0.8,0.3L62,16.1c0.2-0.1,0.6-0.3,1-0.3c0.8,0,1.1,0.5,1.1,0.9c0,0.4-0.2,0.7-0.7,0.9v0
			c0.5,0.1,0.9,0.5,0.9,1c0,0.6-0.5,1.2-1.4,1.2c-0.4,0-0.8-0.1-1-0.3L61.9,19.1z"/>
	</g>
</g>
<g id="Stroke1" class="st1">
	<path class="st2" d="M56.9,88.2"/>
	<g class="st3">
		<path d="M84.9,13.6H15.1V93H8.4V7h83.2v76.6c0,8.7-3.8,9.2-22.4,9.2c-0.4-1.9-1.6-4.9-2.6-6.8c3.6,0.1,7,0.2,9.8,0.2
			c7.9,0,8.5,0,8.5-2.6 M15.1,13.6 M84.9,13.6"/>
	</g>
	<g class="st3">
		<path d="M80.5,37.4H79V27.3c0-2.5-1-5-2.7-6.8c-1.9-2-4.5-3.1-7.2-3.1H25.8v-1.5h43.3c3.1,0,6.1,1.3,8.2,3.5
			c2,2.1,3.1,4.9,3.1,7.8V37.4z"/>
		<g>
			<path d="M79.8,41.9c-0.8-2.1-2.1-4.8-3.6-6.4l3.6,1.3l3.6-1.3C81.9,37.1,80.6,39.8,79.8,41.9z"/>
		</g>
	</g>
	<g class="st3">
		<path d="M27,24.2v-0.3l0.4-0.4c1-0.9,1.4-1.5,1.5-2c0-0.4-0.2-0.8-0.8-0.8c-0.4,0-0.6,0.2-0.8,0.3L27,20.6
			c0.3-0.2,0.7-0.4,1.1-0.4c0.8,0,1.2,0.6,1.2,1.1c0,0.7-0.5,1.3-1.3,2.1l-0.3,0.3v0h1.8v0.4H27z"/>
	</g>
</g>
<g id="Stroke0" class="st1">
	<path class="st2" d="M56.9,88.2"/>
	<g class="st3">
		<path d="M91.6,7 M15.1,7v44v42H8.4V7"/>
	</g>
	<g class="st3">
		<line x1="21.4" y1="8.8" x2="21.4" y2="47.6"/>
		<g>
			<rect x="20.6" y="8.8" width="1.5" height="34.3"/>
			<g>
				<path d="M21.4,47.6c-0.8-2.1-2.1-4.8-3.6-6.4l3.6,1.3l3.6-1.3C23.5,42.9,22.2,45.5,21.4,47.6z"/>
			</g>
		</g>
	</g>
	<g class="st3">
		<path d="M25.8,10L25.8,10l-0.7,0.4l-0.1-0.4l0.9-0.5h0.4v3.9h-0.5V10z"/>
	</g>
</g>
<g id="Kanji" class="st1">
	<path class="st2" d="M56.9,88.2"/>
	<g class="st3">
		<path d="M91.6,7v76.6c0,8.7-3.8,9.2-22.4,9.2c-0.4-1.9-1.6-4.9-2.6-6.8c3.6,0.1,7,0.2,9.8,0.2c7.9,0,8.5,0,8.5-2.6V51H15.1v42H8.4
			V7H91.6z M15.1,13.6v30.7h31V13.6H15.1z M52.8,44.3h32.1V13.6H52.8V44.3z"/>
	</g>
</g>
</svg>
