<?xml version="1.0" encoding="utf-8"?>
<!-- Generator: Adobe Illustrator 26.2.1, SVG Export Plug-In . SVG Version: 6.00 Build 0)  -->
<svg version="1.1" xmlns="http://www.w3.org/2000/svg" xmlns:xlink="http://www.w3.org/1999/xlink" x="0px" y="0px"
	 viewBox="0 0 100 100" style="enable-background:new 0 0 100 100;" xml:space="preserve">
<style type="text/css">
	.st0{display:none;}
	.st1{display:inline;}
	.st2{font-family:'MyriadPro-Regular';}
	.st3{font-size:6px;}
</style>
<g id="Stroke10">
	<g>
		<path d="M24,75.4c-3.2,8.1-8.5,16.5-14.8,21.4l-5.9-3.5c5.9-4.2,11.4-12,14.4-19.7L24,75.4z M16.1,69.4V33.9
			c-2.3,1.9-4.8,3.9-7.4,5.7c-1.1-1.6-3.4-3.8-5-5c13.9-9,24-21.5,29.4-31.4l8.8,1.5c-0.2,0.9-0.8,1.4-2.2,1.4l-2.6,4.1h24.1
			l1.1-0.3l5.3,3.3c-0.2,0.4-0.8,0.8-1.3,0.9c-2.1,3.8-5.4,8.7-8.8,12.8h27.1v42.5H16.1z M46.2,32.7H22.6v12.6h23.6V32.7z
			 M22.6,50.8v12.8h23.6V50.8H22.6z M49.4,26.9c2.8-3.1,5.7-7.2,7.9-11H33c-2.7,3.6-5.9,7.3-9.4,11H49.4z M36.5,95.4
			c0-4.8-0.9-13-2.1-19.2l6.4-0.5c1.4,6.2,2.5,14.1,2.6,18.8L36.5,95.4z M78,45.3V32.7H52.9v12.6H78z M78,63.6V50.8H52.9v12.8H78z
			 M61.9,95.4c-1.1-4.9-4-13-7-19.1l6.2-1.3c3,5.9,6.1,13.9,7.3,18.8L61.9,95.4z M90.3,96.6c-2.7-5.8-9.4-14.7-15.4-21.1l6-2.6
			c6,6.1,12.9,14.7,15.8,20.6L90.3,96.6z"/>
	</g>
	<g>
		<line x1="72.7" y1="78.2" x2="80" y2="88"/>
		<g>
			<rect x="74.3" y="77.4" transform="matrix(0.8047 -0.5936 0.5936 0.8047 -33.5982 60.4089)" width="1.5" height="7.8"/>
			<g>
				<path d="M80,88c-1.9-1.2-4.6-2.6-6.7-3l3.6-1.1l2.1-3.2C78.9,82.9,79.4,85.9,80,88z"/>
			</g>
		</g>
	</g>
	<g>
		<path d="M68.8,73.8L68.8,73.8l-0.7,0.4L68,73.8l0.9-0.5h0.4v3.9h-0.5V73.8z"/>
		<path d="M71.9,73.8L71.9,73.8l-0.7,0.4l-0.1-0.4l0.9-0.5h0.4v3.9h-0.5V73.8z"/>
	</g>
</g>
<g id="Stroke9" class="st0">
	<g class="st1">
		<path d="M24,75.4c-3.2,8.1-8.5,16.5-14.8,21.4l-5.9-3.5c5.9-4.2,11.4-12,14.4-19.7L24,75.4z M16.1,69.4V33.9
			c-2.3,1.9-4.8,3.9-7.4,5.7c-1.1-1.6-3.4-3.8-5-5c13.9-9,24-21.5,29.4-31.4l8.8,1.5c-0.2,0.9-0.8,1.4-2.2,1.4l-2.6,4.1h24.1
			l1.1-0.3l5.3,3.3c-0.2,0.4-0.8,0.8-1.3,0.9c-2.1,3.8-5.4,8.7-8.8,12.8h27.1v42.5H16.1z M46.2,32.7H22.6v12.6h23.6V32.7z
			 M22.6,50.8v12.8h23.6V50.8H22.6z M49.4,26.9c2.8-3.1,5.7-7.2,7.9-11H33c-2.7,3.6-5.9,7.3-9.4,11H49.4z M36.5,95.4
			c0-4.8-0.9-13-2.1-19.2l6.4-0.5c1.4,6.2,2.5,14.1,2.6,18.8L36.5,95.4z M78,45.3V32.7H52.9v12.6H78z M78,63.6V50.8H52.9v12.8H78z
			 M61.9,95.4c-1.1-4.9-4-13-7-19.1l6.2-1.3c3,5.9,6.1,13.9,7.3,18.8L61.9,95.4z"/>
	</g>
	<g class="st1">
		<line x1="64.8" y1="74.1" x2="68.9" y2="82.4"/>
		<g>
			<rect x="65.1" y="73.9" transform="matrix(0.8978 -0.4405 0.4405 0.8978 -26.8455 36.8196)" width="1.5" height="4.7"/>
			<g>
				<path d="M68.9,82.4c-1.6-1.6-4-3.3-6-4.2l3.8-0.4l2.6-2.7C68.7,77.2,68.7,80.2,68.9,82.4z"/>
			</g>
		</g>
	</g>
	<g class="st1">
		<path d="M67.8,71.6L67.8,71.6L67.1,72L67,71.6l0.9-0.5h0.4V75h-0.5V71.6z"/>
		<path d="M72.3,73c0,1.3-0.5,2.1-1.4,2.1c-0.8,0-1.3-0.7-1.3-2c0-1.3,0.6-2,1.4-2C71.9,71,72.3,71.8,72.3,73z M70.2,73.1
			c0,1,0.3,1.6,0.8,1.6c0.5,0,0.8-0.6,0.8-1.6c0-1-0.2-1.6-0.8-1.6C70.5,71.4,70.2,72,70.2,73.1z"/>
	</g>
</g>
<g id="Stroke8" class="st0">
	<g class="st1">
		<path d="M24,75.4c-3.2,8.1-8.5,16.5-14.8,21.4l-5.9-3.5c5.9-4.2,11.4-12,14.4-19.7L24,75.4z M16.1,69.4V33.9
			c-2.3,1.9-4.8,3.9-7.4,5.7c-1.1-1.6-3.4-3.8-5-5c13.9-9,24-21.5,29.4-31.4l8.8,1.5c-0.2,0.9-0.8,1.4-2.2,1.4l-2.6,4.1h24.1
			l1.1-0.3l5.3,3.3c-0.2,0.4-0.8,0.8-1.3,0.9c-2.1,3.8-5.4,8.7-8.8,12.8h27.1v42.5H16.1z M46.2,32.7H22.6v12.6h23.6V32.7z
			 M22.6,50.8v12.8h23.6V50.8H22.6z M49.4,26.9c2.8-3.1,5.7-7.2,7.9-11H33c-2.7,3.6-5.9,7.3-9.4,11H49.4z M36.5,95.4
			c0-4.8-0.9-13-2.1-19.2l6.4-0.5c1.4,6.2,2.5,14.1,2.6,18.8L36.5,95.4z M78,45.3V32.7H52.9v12.6H78z M78,63.6V50.8H52.9v12.8H78z"
			/>
	</g>
	<g class="st1">
		<path d="M45.4,81.3c-0.4-2.4-0.8-5-0.8-5l1.5-0.2c0,0,0.4,2.5,0.8,5L45.4,81.3z"/>
		<g>
			<path d="M47.2,85.6c-1.2-1.9-3.1-4.2-4.9-5.5l3.8,0.5l3.2-2C48.2,80.4,47.5,83.3,47.2,85.6z"/>
		</g>
	</g>
	<g class="st1">
		<path d="M47.7,76.7c0.1,0,0.2,0,0.4,0c0.3,0,0.6-0.2,0.8-0.4c0.3-0.2,0.4-0.6,0.5-1h0c-0.2,0.3-0.5,0.4-0.9,0.4
			c-0.7,0-1.2-0.5-1.2-1.2c0-0.7,0.5-1.4,1.3-1.4c0.8,0,1.3,0.6,1.3,1.6c0,0.9-0.3,1.5-0.7,1.8c-0.3,0.3-0.7,0.5-1.1,0.5
			c-0.2,0-0.4,0-0.5,0V76.7z M47.9,74.5c0,0.5,0.3,0.8,0.7,0.8c0.4,0,0.6-0.2,0.8-0.4c0,0,0-0.1,0-0.2c0-0.7-0.2-1.2-0.8-1.2
			C48.3,73.5,47.9,73.9,47.9,74.5z"/>
	</g>
</g>
<g id="Stroke7" class="st0">
	<g class="st1">
		<path d="M24,75.4c-3.2,8.1-8.5,16.5-14.8,21.4l-5.9-3.5c5.9-4.2,11.4-12,14.4-19.7L24,75.4z M16.1,69.4V33.9
			c-2.3,1.9-4.8,3.9-7.4,5.7c-1.1-1.6-3.4-3.8-5-5c13.9-9,24-21.5,29.4-31.4l8.8,1.5c-0.2,0.9-0.8,1.4-2.2,1.4l-2.6,4.1h24.1
			l1.1-0.3l5.3,3.3c-0.2,0.4-0.8,0.8-1.3,0.9c-2.1,3.8-5.4,8.7-8.8,12.8h27.1v42.5H16.1z M46.2,32.7H22.6v12.6h23.6V32.7z
			 M22.6,50.8v12.8h23.6V50.8H22.6z M49.4,26.9c2.8-3.1,5.7-7.2,7.9-11H33c-2.7,3.6-5.9,7.3-9.4,11H49.4z M78,45.3V32.7H52.9v12.6
			H78z M78,63.6V50.8H52.9v12.8H78z"/>
	</g>
	<g class="st1">
		<path d="M26.4,81.7L25,81c0.8-1.6,1.4-3.2,1.9-4.9l1.5,0.4C27.9,78.3,27.2,80,26.4,81.7z"/>
		<g>
			<path d="M23.3,85.2c0.4-2.2,0.7-5.2,0.3-7.3l2.4,3l3.7,0.8C27.6,82.3,25.1,83.8,23.3,85.2z"/>
		</g>
	</g>
	<g class="st1">
		<path d="M29.5,77.1c0-0.5,0.3-0.8,0.8-1l0,0c-0.4-0.2-0.6-0.5-0.6-0.9c0-0.6,0.5-1,1.2-1c0.8,0,1.1,0.5,1.1,1
			c0,0.3-0.2,0.7-0.6,0.9v0c0.5,0.2,0.8,0.5,0.8,1c0,0.7-0.6,1.1-1.3,1.1C30,78.2,29.5,77.7,29.5,77.1z M31.6,77.1
			c0-0.5-0.3-0.7-0.9-0.9C30.3,76.4,30,76.7,30,77c0,0.4,0.3,0.7,0.8,0.7C31.3,77.8,31.6,77.5,31.6,77.1z M30.1,75.1
			c0,0.4,0.3,0.6,0.7,0.7c0.3-0.1,0.6-0.4,0.6-0.7c0-0.3-0.2-0.6-0.7-0.6C30.4,74.5,30.1,74.8,30.1,75.1z"/>
	</g>
</g>
<g id="Stroke6" class="st0">
	<g class="st1">
		<path d="M16.1,69.4V33.9c-2.3,1.9-4.8,3.9-7.4,5.7c-1.1-1.6-3.4-3.8-5-5c13.9-9,24-21.5,29.4-31.4l8.8,1.5
			c-0.2,0.9-0.8,1.4-2.2,1.4l-2.6,4.1h24.1l1.1-0.3l5.3,3.3c-0.2,0.4-0.8,0.8-1.3,0.9c-2.1,3.8-5.4,8.7-8.8,12.8h27.1v42.5H16.1z
			 M46.2,32.7H22.6v12.6h23.6V32.7z M22.6,50.8v12.8h23.6V50.8H22.6z M49.4,26.9c2.8-3.1,5.7-7.2,7.9-11H33c-2.7,3.6-5.9,7.3-9.4,11
			H49.4z M78,45.3V32.7H52.9v12.6H78z M78,63.6V50.8H52.9v12.8H78z"/>
	</g>
	<g class="st1">
		<path d="M15.8,73.4c1,0.1,13.6,0,13.6,0"/>
		<g>
			<path d="M19.9,74.2c-2.4,0-3.8,0-4.1,0l0.1-1.5c0.3,0,1.8,0.1,9,0l0,1.5C22.9,74.2,21.2,74.2,19.9,74.2z"/>
			<g>
				<path d="M29.5,73.4c-2.1,0.8-4.8,2.1-6.4,3.6l1.3-3.6l-1.3-3.6C24.7,71.3,27.3,72.6,29.5,73.4z"/>
			</g>
		</g>
	</g>
	<g class="st1">
		<path d="M18.6,75.8v0.3l-1.7,3.5h-0.5l1.7-3.4v0h-1.9v-0.4H18.6z"/>
	</g>
</g>
<g id="Stroke5" class="st0">
	<g class="st1">
		<path d="M16.1,69.4V33.9c-2.3,1.9-4.8,3.9-7.4,5.7c-1.1-1.6-3.4-3.8-5-5c13.9-9,24-21.5,29.4-31.4l8.8,1.5
			c-0.2,0.9-0.8,1.4-2.2,1.4l-2.6,4.1h24.1l1.1-0.3l5.3,3.3c-0.2,0.4-0.8,0.8-1.3,0.9c-2.1,3.8-5.4,8.7-8.8,12.8h27.1v42.5H16.1z
			 M46.2,32.7H22.6v12.6h23.6V32.7z M22.6,50.8v18.6h23.6V50.8H22.6z M49.4,26.9c2.8-3.1,5.7-7.2,7.9-11H33c-2.7,3.6-5.9,7.3-9.4,11
			H49.4z M78,45.3V32.7H52.9v12.6H78z M78,69.4V50.8H52.9l-0.4,18.6H78z"/>
	</g>
	<g class="st1">
		<path d="M23.6,54.7c2.3,0,10.7,0,10.8,0"/>
		<g>
			<rect x="23.6" y="54" width="6.3" height="1.5"/>
			<g>
				<path d="M34.4,54.7c-2.1,0.8-4.8,2.1-6.4,3.6l1.3-3.6L28,51.1C29.7,52.6,32.3,53.9,34.4,54.7z"/>
			</g>
		</g>
	</g>
	<g class="st1">
		<path d="M26.1,57.1c-0.1,0-0.2,0-0.4,0c-0.8,0.1-1.3,0.7-1.4,1.4h0c0.2-0.2,0.5-0.4,0.9-0.4c0.7,0,1.2,0.5,1.2,1.3
			c0,0.7-0.5,1.4-1.3,1.4c-0.8,0-1.4-0.6-1.4-1.7c0-0.8,0.3-1.4,0.7-1.8c0.3-0.3,0.8-0.5,1.2-0.6c0.2,0,0.3,0,0.4,0V57.1z M26,59.3
			c0-0.6-0.3-0.9-0.8-0.9c-0.3,0-0.6,0.2-0.8,0.5c0,0.1-0.1,0.1-0.1,0.2c0,0.6,0.3,1.1,0.9,1.1C25.7,60.3,26,59.9,26,59.3z"/>
	</g>
</g>
<g id="Stroke4" class="st0">
	<g class="st1">
		<path d="M22.6,63.6h-7.1c0,0,0.7-28.7,0.6-29.7c-2.3,1.9-4.8,3.9-7.4,5.7c-1.1-1.6-3.4-3.8-5-5c13.9-9,24-21.5,29.4-31.4l8.8,1.5
			c-0.2,0.9-0.8,1.4-2.2,1.4l-2.6,4.1h24.1l1.1-0.3l5.3,3.3c-0.2,0.4-0.8,0.8-1.3,0.9c-2.1,3.8-5.4,8.7-8.8,12.8h27.1v36.7
			 M22.6,50.8v12.8h23.6V45.3v-9v-3.6H22.6v12.6 M49.4,26.9c2.8-3.1,5.7-7.2,7.9-11H33c-2.7,3.6-5.9,7.3-9.4,11H49.4z M78,45.3V32.7
			H52.9v30.9H78V50.8"/>
	</g>
	<line class="st1" x1="46.2" y1="63.6" x2="52.9" y2="63.6"/>
	<g class="st1">
		<path d="M41.7,34.1c0,3.4,0,11.9,0,11.4"/>
		<g>
			<path d="M42.4,41l-1.5,0l0-1.2c0-2.1,0-4.3,0-5.7l1.5,0c0,1.4,0,3.6,0,5.7L42.4,41z"/>
			<g>
				<path d="M41.7,45.5c-0.8-2.1-2.1-4.8-3.6-6.4l3.6,1.3l3.6-1.3C43.8,40.7,42.5,43.4,41.7,45.5z"/>
			</g>
		</g>
	</g>
	<g class="st1">
		<path d="M38.8,34.6h-1.5l-0.1,1c0.1,0,0.2,0,0.3,0c0.3,0,0.6,0.1,0.8,0.2c0.3,0.2,0.6,0.5,0.6,1c0,0.8-0.6,1.3-1.5,1.3
			c-0.4,0-0.8-0.1-1-0.2l0.1-0.4c0.2,0.1,0.5,0.2,0.8,0.2c0.5,0,0.9-0.3,0.9-0.8c0-0.5-0.3-0.9-1.1-0.9c-0.2,0-0.4,0-0.5,0l0.3-1.9
			h1.9V34.6z"/>
	</g>
</g>
<g id="Stroke3" class="st0">
	<g class="st1">
		<path d="M16.1,69.4V33.9c-2.3,1.9-4.8,3.9-7.4,5.7c-1.1-1.6-3.4-3.8-5-5c13.9-9,24-21.5,29.4-31.4l8.8,1.5
			c-0.2,0.9-0.8,1.4-2.2,1.4l-2.6,4.1h24.1l1.1-0.3l5.3,3.3c-0.2,0.4-0.8,0.8-1.3,0.9c-2.1,3.8-5.4,8.7-8.8,12.8h27.1v42.5H16.1z
			 M84.7,69.4H78v-5.8V50.8v-5.5V32.7H52.9h-6.6H22.6v12.6v5.5v12.8c0.1,0.7,0,5.8,0,5.8 M49.4,26.9c2.8-3.1,5.7-7.2,7.9-11H33
			c-2.7,3.6-5.9,7.3-9.4,11H49.4z"/>
	</g>
	<g class="st1">
		<path d="M24,37.5c1.2,0,12.6,0,12.6,0"/>
		<g>
			<rect x="24" y="36.7" width="8.1" height="1.6"/>
			<g>
				<path d="M36.6,37.5c-2.1,0.8-4.8,2.3-6.4,3.8l1.3-3.8l-1.3-3.8C31.9,35.3,34.5,36.7,36.6,37.5z"/>
			</g>
		</g>
	</g>
	<g class="st1">
		<path d="M25.9,42.8v-1.1h-1.8v-0.3l1.7-2.5h0.6v2.4h0.5v0.4h-0.5v1.1H25.9z M25.9,41.3V40c0-0.2,0-0.4,0-0.6h0
			c-0.1,0.2-0.2,0.4-0.3,0.6l-1,1.3v0H25.9z"/>
	</g>
</g>
<g id="Stroke2" class="st0">
	<g class="st1">
		<path d="M22.6,27.8l0,4.9v12.6v5.5v12.8v5.8h-6.5V33.9c-2.3,1.9-4.8,3.9-7.4,5.7c-1.1-1.6-3.4-3.8-5-5c13.9-9,24-21.5,29.4-31.4
			l8.8,1.5c-0.2,0.9-0.8,1.4-2.2,1.4l-2.6,4.1h24.1l1.1-0.3l5.3,3.3c-0.2,0.4-0.8,0.8-1.3,0.9c-2.1,3.8-5.4,8.7-8.8,12.8h-6.8
			l6.5-11H33c-2.7,3.6-5.9,7.3-9.4,11"/>
	</g>
	<g class="st1">
		<rect x="26.1" y="28.3" width="1.5" height="9.9"/>
		<g>
			<path d="M26.8,42.7c-0.8-2.1-2.1-4.8-3.6-6.4l3.6,1.3l3.6-1.3C29,37.9,27.6,40.5,26.8,42.7z"/>
		</g>
	</g>
	<text transform="matrix(1 0 0 1 29.0802 31.6197)" class="st1 st2 st3">3</text>
</g>
<g id="Stroke1" class="st0">
	<g class="st1">
		<path d="M23.6,26.9l-7.5,7c-2.3,1.9-4.8,3.9-7.4,5.7c-1.1-1.6-3.4-3.8-5-5c13.9-9,24-21.5,29.4-31.4l8.8,1.5
			c-0.2,0.9-0.8,1.4-2.2,1.4l-2.6,4.1h24.1l1.1-0.3l5.3,3.3c-0.2,0.4-0.8,0.8-1.3,0.9c-2.1,3.8-5.4,8.7-8.8,12.8 M49.4,26.9
			c2.8-3.1,5.7-7.2,7.9-11H33c-2.7,3.6-5.9,7.3-9.4,11H49.4z"/>
	</g>
	<g class="st1">
		<path d="M48.6,23.2l-1.3-0.7l1.4-2.8c0.2-0.3,0.1-0.6,0-0.9c-0.2-0.3-0.5-0.5-0.8-0.5H34.2v-1.5h13.6c0.9,0,1.6,0.4,2.1,1.2
			c0.5,0.7,0.5,1.6,0.1,2.4L48.6,23.2z"/>
		<g>
			<path d="M45.9,26.9c0.2-2.3,0.2-5.2-0.3-7.3l2.6,2.7l3.8,0.4C50,23.6,47.6,25.3,45.9,26.9z"/>
		</g>
	</g>
	<g class="st1">
		<path d="M33.9,23.4v-0.3l0.4-0.4c1-0.9,1.4-1.5,1.5-2c0-0.4-0.2-0.8-0.8-0.8c-0.4,0-0.6,0.2-0.8,0.3L34,19.9
			c0.3-0.2,0.7-0.4,1.1-0.4c0.8,0,1.2,0.6,1.2,1.1c0,0.7-0.5,1.3-1.3,2.1L34.6,23v0h1.8v0.4H33.9z"/>
	</g>
</g>
<g id="Stroke0" class="st0">
	<g class="st1">
		<path d="M33,15.9c-2.7,3.6-5.9,7.3-9.4,11l-7.5,7c-2.3,1.9-4.8,3.9-7.4,5.7c-1.1-1.6-3.4-3.8-5-5c13.9-9,24-21.5,29.4-31.4
			l8.8,1.5c-0.2,0.9-0.8,1.4-2.2,1.4l-2.6,4.1"/>
	</g>
	<path class="st1" d="M16.1,33.2"/>
	<g class="st1">
		<path d="M42.6,13.1l-1.3-0.8c0.9-1.5,1.8-3.1,2.5-4.6l1.4,0.6C44.4,9.9,43.5,11.6,42.6,13.1z"/>
		<g>
			<path d="M39.5,16.3c0.5-2.1,0.9-4.9,0.6-7l2.1,2.9l3.5,0.9C43.7,13.6,41.2,15,39.5,16.3z"/>
		</g>
	</g>
	<g class="st1">
		<path d="M47.2,6.5L47.2,6.5l-0.7,0.4l-0.1-0.4L47.2,6h0.4v3.9h-0.5V6.5z"/>
	</g>
</g>
<g id="Kanji" class="st0">
	<g class="st1">
		<path d="M24,75.4c-3.2,8.1-8.5,16.5-14.8,21.4l-5.9-3.5c5.9-4.2,11.4-12,14.4-19.7L24,75.4z M16.1,69.4V33.9
			c-2.3,1.9-4.8,3.9-7.4,5.7c-1.1-1.6-3.4-3.8-5-5c13.9-9,24-21.5,29.4-31.4l8.8,1.5c-0.2,0.9-0.8,1.4-2.2,1.4l-2.6,4.1h24.1
			l1.1-0.3l5.3,3.3c-0.2,0.4-0.8,0.8-1.3,0.9c-2.1,3.8-5.4,8.7-8.8,12.8h27.1v42.5H16.1z M46.2,32.7H22.6v12.6h23.6V32.7z
			 M22.6,50.8v12.8h23.6V50.8H22.6z M49.4,26.9c2.8-3.1,5.7-7.2,7.9-11H33c-2.7,3.6-5.9,7.3-9.4,11H49.4z M36.5,95.4
			c0-4.8-0.9-13-2.1-19.2l6.4-0.5c1.4,6.2,2.5,14.1,2.6,18.8L36.5,95.4z M78,45.3V32.7H52.9v12.6H78z M78,63.6V50.8H52.9v12.8H78z
			 M61.9,95.4c-1.1-4.9-4-13-7-19.1l6.2-1.3c3,5.9,6.1,13.9,7.3,18.8L61.9,95.4z M90.3,96.6c-2.7-5.8-9.4-14.7-15.4-21.1l6-2.6
			c6,6.1,12.9,14.7,15.8,20.6L90.3,96.6z"/>
	</g>
</g>
</svg>
