<?xml version="1.0" encoding="utf-8"?>
<!-- Generator: Adobe Illustrator 26.2.1, SVG Export Plug-In . SVG Version: 6.00 Build 0)  -->
<svg version="1.1" xmlns="http://www.w3.org/2000/svg" xmlns:xlink="http://www.w3.org/1999/xlink" x="0px" y="0px"
	 viewBox="0 0 100 100" style="enable-background:new 0 0 100 100;" xml:space="preserve" width = "100px" height = "100px">
<style type="text/css">
	.st0{display:none;}
	.st1{display:inline;}
</style> 


		<path d="M22.6,63.6h-7.1c0,0,0.7-28.7,0.6-29.7c-2.3,1.9-4.8,3.9-7.4,5.7c-1.1-1.6-3.4-3.8-5-5c13.9-9,24-21.5,29.4-31.4l8.8,1.5
			c-0.2,0.9-0.8,1.4-2.2,1.4l-2.6,4.1h24.1l1.1-0.3l5.3,3.3c-0.2,0.4-0.8,0.8-1.3,0.9c-2.1,3.8-5.4,8.7-8.8,12.8h27.1v36.7
			 M22.6,50.8v12.8h23.6V45.3v-9v-3.6H22.6v12.6 M49.4,26.9c2.8-3.1,5.7-7.2,7.9-11H33c-2.7,3.6-5.9,7.3-9.4,11H49.4z M78,45.3V32.7
			H52.9v30.9H78V50.8"/>

	<line class="st1" x1="46.2" y1="63.6" x2="52.9" y2="63.6"/>

		<path d="M41.7,34.1c0,3.4,0,11.9,0,11.4"/>

			<path d="M42.4,41l-1.5,0l0-1.2c0-2.1,0-4.3,0-5.7l1.5,0c0,1.4,0,3.6,0,5.7L42.4,41z"/>

				<path d="M41.7,45.5c-0.8-2.1-2.1-4.8-3.6-6.4l3.6,1.3l3.6-1.3C43.8,40.7,42.5,43.4,41.7,45.5z"/>


		<path d="M38.8,34.6h-1.5l-0.1,1c0.1,0,0.2,0,0.3,0c0.3,0,0.6,0.1,0.8,0.2c0.3,0.2,0.6,0.5,0.6,1c0,0.8-0.6,1.3-1.5,1.3
			c-0.4,0-0.8-0.1-1-0.2l0.1-0.4c0.2,0.1,0.5,0.2,0.8,0.2c0.5,0,0.9-0.3,0.9-0.8c0-0.5-0.3-0.9-1.1-0.9c-0.2,0-0.4,0-0.5,0l0.3-1.9
			h1.9V34.6z"/>

</svg>