<?xml version="1.0" encoding="utf-8"?>
<!-- Generator: Adobe Illustrator 26.2.1, SVG Export Plug-In . SVG Version: 6.00 Build 0)  -->
<svg version="1.1" xmlns="http://www.w3.org/2000/svg" xmlns:xlink="http://www.w3.org/1999/xlink" x="0px" y="0px"
	 viewBox="0 0 100 100" style="enable-background:new 0 0 100 100;" xml:space="preserve" width = "100px" height = "100px">
<style type="text/css">
	.st0{display:none;}
	.st1{display:inline;}
</style>

		<path d="M24,75.4c-3.2,8.1-8.5,16.5-14.8,21.4l-5.9-3.5c5.9-4.2,11.4-12,14.4-19.7L24,75.4z M16.1,69.4V33.9
			c-2.3,1.9-4.8,3.9-7.4,5.7c-1.1-1.6-3.4-3.8-5-5c13.9-9,24-21.5,29.4-31.4l8.8,1.5c-0.2,0.9-0.8,1.4-2.2,1.4l-2.6,4.1h24.1
			l1.1-0.3l5.3,3.3c-0.2,0.4-0.8,0.8-1.3,0.9c-2.1,3.8-5.4,8.7-8.8,12.8h27.1v42.5H16.1z M46.2,32.7H22.6v12.6h23.6V32.7z
			 M22.6,50.8v12.8h23.6V50.8H22.6z M49.4,26.9c2.8-3.1,5.7-7.2,7.9-11H33c-2.7,3.6-5.9,7.3-9.4,11H49.4z M36.5,95.4
			c0-4.8-0.9-13-2.1-19.2l6.4-0.5c1.4,6.2,2.5,14.1,2.6,18.8L36.5,95.4z M78,45.3V32.7H52.9v12.6H78z M78,63.6V50.8H52.9v12.8H78z
			 M61.9,95.4c-1.1-4.9-4-13-7-19.1l6.2-1.3c3,5.9,6.1,13.9,7.3,18.8L61.9,95.4z M90.3,96.6c-2.7-5.8-9.4-14.7-15.4-21.1l6-2.6
			c6,6.1,12.9,14.7,15.8,20.6L90.3,96.6z"/>

		<line x1="72.7" y1="78.2" x2="80" y2="88"/>
	
			<rect x="74.3" y="77.4" transform="matrix(0.8047 -0.5936 0.5936 0.8047 -33.5982 60.4089)" width="1.5" height="7.8"/>
		
				<path d="M80,88c-1.9-1.2-4.6-2.6-6.7-3l3.6-1.1l2.1-3.2C78.9,82.9,79.4,85.9,80,88z"/>
	

		<path d="M68.8,73.8L68.8,73.8l-0.7,0.4L68,73.8l0.9-0.5h0.4v3.9h-0.5V73.8z"/>
		<path d="M71.9,73.8L71.9,73.8l-0.7,0.4l-0.1-0.4l0.9-0.5h0.4v3.9h-0.5V73.8z"/>


 </svg>