<?xml version="1.0" encoding="utf-8"?>
<!-- Generator: Adobe Illustrator 26.2.1, SVG Export Plug-In . SVG Version: 6.00 Build 0)  -->
<svg version="1.1" xmlns="http://www.w3.org/2000/svg" xmlns:xlink="http://www.w3.org/1999/xlink" x="0px" y="0px"
	 viewBox="0 0 100 100" style="enable-background:new 0 0 100 100;" xml:space="preserve" width = "100px" height = "100px">
<style type="text/css">
	.st0{display:none;}
	.st1{display:inline;}
</style> 

		<path d="M16.1,69.4V33.9c-2.3,1.9-4.8,3.9-7.4,5.7c-1.1-1.6-3.4-3.8-5-5c13.9-9,24-21.5,29.4-31.4l8.8,1.5
			c-0.2,0.9-0.8,1.4-2.2,1.4l-2.6,4.1h24.1l1.1-0.3l5.3,3.3c-0.2,0.4-0.8,0.8-1.3,0.9c-2.1,3.8-5.4,8.7-8.8,12.8h27.1v42.5H16.1z
			 M46.2,32.7H22.6v12.6h23.6V32.7z M22.6,50.8v12.8h23.6V50.8H22.6z M49.4,26.9c2.8-3.1,5.7-7.2,7.9-11H33c-2.7,3.6-5.9,7.3-9.4,11
			H49.4z M78,45.3V32.7H52.9v12.6H78z M78,63.6V50.8H52.9v12.8H78z"/>


		<path d="M15.8,73.4c1,0.1,13.6,0,13.6,0"/>

			<path d="M19.9,74.2c-2.4,0-3.8,0-4.1,0l0.1-1.5c0.3,0,1.8,0.1,9,0l0,1.5C22.9,74.2,21.2,74.2,19.9,74.2z"/>
	
				<path d="M29.5,73.4c-2.1,0.8-4.8,2.1-6.4,3.6l1.3-3.6l-1.3-3.6C24.7,71.3,27.3,72.6,29.5,73.4z"/>


		<path d="M18.6,75.8v0.3l-1.7,3.5h-0.5l1.7-3.4v0h-1.9v-0.4H18.6z"/>

</svg>