<?xml version="1.0" encoding="utf-8"?>
<!-- Generator: Adobe Illustrator 26.2.1, SVG Export Plug-In . SVG Version: 6.00 Build 0)  -->
<svg version="1.1" xmlns="http://www.w3.org/2000/svg" xmlns:xlink="http://www.w3.org/1999/xlink" x="0px" y="0px"
	 viewBox="0 0 100 100" style="enable-background:new 0 0 100 100;" xml:space="preserve" width = "100px" height = "100px">
<style type="text/css">
	.st0{display:none;}
	.st1{display:inline;}
</style> 

	<path d="M33,15.9c-2.7,3.6-5.9,7.3-9.4,11l-7.5,7c-2.3,1.9-4.8,3.9-7.4,5.7c-1.1-1.6-3.4-3.8-5-5c13.9-9,24-21.5,29.4-31.4
			l8.8,1.5c-0.2,0.9-0.8,1.4-2.2,1.4l-2.6,4.1"/>

	<path class="st1" d="M16.1,33.2"/>

	<path d="M42.6,13.1l-1.3-0.8c0.9-1.5,1.8-3.1,2.5-4.6l1.4,0.6C44.4,9.9,43.5,11.6,42.6,13.1z"/>

	<path d="M39.5,16.3c0.5-2.1,0.9-4.9,0.6-7l2.1,2.9l3.5,0.9C43.7,13.6,41.2,15,39.5,16.3z"/>

	<path d="M47.2,6.5L47.2,6.5l-0.7,0.4l-0.1-0.4L47.2,6h0.4v3.9h-0.5V6.5z"/>

</svg>