<?xml version="1.0" encoding="utf-8"?>
<!-- Generator: Adobe Illustrator 26.2.1, SVG Export Plug-In . SVG Version: 6.00 Build 0)  -->
<svg version="1.1" xmlns="http://www.w3.org/2000/svg" xmlns:xlink="http://www.w3.org/1999/xlink" x="0px" y="0px"
	 viewBox="0 0 100 100" style="enable-background:new 0 0 100 100;" xml:space="preserve" width = "100px" height = "100px">
<style type="text/css">
	.st0{display:none;}
	.st1{display:inline;}
</style>


		<path d="M16.1,69.4V33.9c-2.3,1.9-4.8,3.9-7.4,5.7c-1.1-1.6-3.4-3.8-5-5c13.9-9,24-21.5,29.4-31.4l8.8,1.5
			c-0.2,0.9-0.8,1.4-2.2,1.4l-2.6,4.1h24.1l1.1-0.3l5.3,3.3c-0.2,0.4-0.8,0.8-1.3,0.9c-2.1,3.8-5.4,8.7-8.8,12.8h27.1v42.5H16.1z
			 M46.2,32.7H22.6v12.6h23.6V32.7z M22.6,50.8v18.6h23.6V50.8H22.6z M49.4,26.9c2.8-3.1,5.7-7.2,7.9-11H33c-2.7,3.6-5.9,7.3-9.4,11
			H49.4z M78,45.3V32.7H52.9v12.6H78z M78,69.4V50.8H52.9l-0.4,18.6H78z"/>

		<path d="M23.6,54.7c2.3,0,10.7,0,10.8,0"/>
	
			<rect x="23.6" y="54" width="6.3" height="1.5"/>
		
				<path d="M34.4,54.7c-2.1,0.8-4.8,2.1-6.4,3.6l1.3-3.6L28,51.1C29.7,52.6,32.3,53.9,34.4,54.7z"/>

		<path d="M26.1,57.1c-0.1,0-0.2,0-0.4,0c-0.8,0.1-1.3,0.7-1.4,1.4h0c0.2-0.2,0.5-0.4,0.9-0.4c0.7,0,1.2,0.5,1.2,1.3
			c0,0.7-0.5,1.4-1.3,1.4c-0.8,0-1.4-0.6-1.4-1.7c0-0.8,0.3-1.4,0.7-1.8c0.3-0.3,0.8-0.5,1.2-0.6c0.2,0,0.3,0,0.4,0V57.1z M26,59.3
			c0-0.6-0.3-0.9-0.8-0.9c-0.3,0-0.6,0.2-0.8,0.5c0,0.1-0.1,0.1-0.1,0.2c0,0.6,0.3,1.1,0.9,1.1C25.7,60.3,26,59.9,26,59.3z"/>



 </svg>