<?xml version="1.0" encoding="utf-8"?>
<!-- Generator: Adobe Illustrator 26.2.1, SVG Export Plug-In . SVG Version: 6.00 Build 0)  -->
<svg version="1.1" xmlns="http://www.w3.org/2000/svg" xmlns:xlink="http://www.w3.org/1999/xlink" x="0px" y="0px"
	 viewBox="0 0 100 100" style="enable-background:new 0 0 100 100;" xml:space="preserve" width = "100px" height = "100px">
<style type="text/css">
	.st0{display:none;}
	.st1{display:inline;}
</style>

		<path d="M24,75.4c-3.2,8.1-8.5,16.5-14.8,21.4l-5.9-3.5c5.9-4.2,11.4-12,14.4-19.7L24,75.4z M16.1,69.4V33.9
			c-2.3,1.9-4.8,3.9-7.4,5.7c-1.1-1.6-3.4-3.8-5-5c13.9-9,24-21.5,29.4-31.4l8.8,1.5c-0.2,0.9-0.8,1.4-2.2,1.4l-2.6,4.1h24.1
			l1.1-0.3l5.3,3.3c-0.2,0.4-0.8,0.8-1.3,0.9c-2.1,3.8-5.4,8.7-8.8,12.8h27.1v42.5H16.1z M46.2,32.7H22.6v12.6h23.6V32.7z
			 M22.6,50.8v12.8h23.6V50.8H22.6z M49.4,26.9c2.8-3.1,5.7-7.2,7.9-11H33c-2.7,3.6-5.9,7.3-9.4,11H49.4z M36.5,95.4
			c0-4.8-0.9-13-2.1-19.2l6.4-0.5c1.4,6.2,2.5,14.1,2.6,18.8L36.5,95.4z M78,45.3V32.7H52.9v12.6H78z M78,63.6V50.8H52.9v12.8H78z
			 M61.9,95.4c-1.1-4.9-4-13-7-19.1l6.2-1.3c3,5.9,6.1,13.9,7.3,18.8L61.9,95.4z"/>


		<line x1="64.8" y1="74.1" x2="68.9" y2="82.4"/>
	
			<rect x="65.1" y="73.9" transform="matrix(0.8978 -0.4405 0.4405 0.8978 -26.8455 36.8196)" width="1.5" height="4.7"/>
		
				<path d="M68.9,82.4c-1.6-1.6-4-3.3-6-4.2l3.8-0.4l2.6-2.7C68.7,77.2,68.7,80.2,68.9,82.4z"/>


		<path d="M67.8,71.6L67.8,71.6L67.1,72L67,71.6l0.9-0.5h0.4V75h-0.5V71.6z"/>
		<path d="M72.3,73c0,1.3-0.5,2.1-1.4,2.1c-0.8,0-1.3-0.7-1.3-2c0-1.3,0.6-2,1.4-2C71.9,71,72.3,71.8,72.3,73z M70.2,73.1
			c0,1,0.3,1.6,0.8,1.6c0.5,0,0.8-0.6,0.8-1.6c0-1-0.2-1.6-0.8-1.6C70.5,71.4,70.2,72,70.2,73.1z"/>
</svg>