<?xml version="1.0" encoding="utf-8"?>
<!-- Generator: Adobe Illustrator 26.2.1, SVG Export Plug-In . SVG Version: 6.00 Build 0)  -->
<svg version="1.1" xmlns="http://www.w3.org/2000/svg" xmlns:xlink="http://www.w3.org/1999/xlink" x="0px" y="0px"
	 viewBox="0 0 100 100" style="enable-background:new 0 0 100 100;" xml:space="preserve" width = "100px" height = "100px">
<style type="text/css">
	.st0{display:none;}
	.st1{display:inline;}
</style>

		<path d="M24,75.4c-3.2,8.1-8.5,16.5-14.8,21.4l-5.9-3.5c5.9-4.2,11.4-12,14.4-19.7L24,75.4z M16.1,69.4V33.9
			c-2.3,1.9-4.8,3.9-7.4,5.7c-1.1-1.6-3.4-3.8-5-5c13.9-9,24-21.5,29.4-31.4l8.8,1.5c-0.2,0.9-0.8,1.4-2.2,1.4l-2.6,4.1h24.1
			l1.1-0.3l5.3,3.3c-0.2,0.4-0.8,0.8-1.3,0.9c-2.1,3.8-5.4,8.7-8.8,12.8h27.1v42.5H16.1z M46.2,32.7H22.6v12.6h23.6V32.7z
			 M22.6,50.8v12.8h23.6V50.8H22.6z M49.4,26.9c2.8-3.1,5.7-7.2,7.9-11H33c-2.7,3.6-5.9,7.3-9.4,11H49.4z M78,45.3V32.7H52.9v12.6
			H78z M78,63.6V50.8H52.9v12.8H78z"/>

		<path d="M26.4,81.7L25,81c0.8-1.6,1.4-3.2,1.9-4.9l1.5,0.4C27.9,78.3,27.2,80,26.4,81.7z"/>

			<path d="M23.3,85.2c0.4-2.2,0.7-5.2,0.3-7.3l2.4,3l3.7,0.8C27.6,82.3,25.1,83.8,23.3,85.2z"/>
	
		<path d="M29.5,77.1c0-0.5,0.3-0.8,0.8-1l0,0c-0.4-0.2-0.6-0.5-0.6-0.9c0-0.6,0.5-1,1.2-1c0.8,0,1.1,0.5,1.1,1
			c0,0.3-0.2,0.7-0.6,0.9v0c0.5,0.2,0.8,0.5,0.8,1c0,0.7-0.6,1.1-1.3,1.1C30,78.2,29.5,77.7,29.5,77.1z M31.6,77.1
			c0-0.5-0.3-0.7-0.9-0.9C30.3,76.4,30,76.7,30,77c0,0.4,0.3,0.7,0.8,0.7C31.3,77.8,31.6,77.5,31.6,77.1z M30.1,75.1
			c0,0.4,0.3,0.6,0.7,0.7c0.3-0.1,0.6-0.4,0.6-0.7c0-0.3-0.2-0.6-0.7-0.6C30.4,74.5,30.1,74.8,30.1,75.1z"/>




 </svg>