<?xml version="1.0" encoding="utf-8"?>
<!-- Generator: Adobe Illustrator 26.2.1, SVG Export Plug-In . SVG Version: 6.00 Build 0)  -->
<svg version="1.1" xmlns="http://www.w3.org/2000/svg" xmlns:xlink="http://www.w3.org/1999/xlink" x="0px" y="0px"
	 viewBox="0 0 100 100" style="enable-background:new 0 0 100 100;" xml:space="preserve" width = "100px" height = "100px">
<style type="text/css">
	.st0{display:none;}
	.st1{display:inline;}
</style> 


		<path d="M16.1,69.4V33.9c-2.3,1.9-4.8,3.9-7.4,5.7c-1.1-1.6-3.4-3.8-5-5c13.9-9,24-21.5,29.4-31.4l8.8,1.5
			c-0.2,0.9-0.8,1.4-2.2,1.4l-2.6,4.1h24.1l1.1-0.3l5.3,3.3c-0.2,0.4-0.8,0.8-1.3,0.9c-2.1,3.8-5.4,8.7-8.8,12.8h27.1v42.5H16.1z
			 M84.7,69.4H78v-5.8V50.8v-5.5V32.7H52.9h-6.6H22.6v12.6v5.5v12.8c0.1,0.7,0,5.8,0,5.8 M49.4,26.9c2.8-3.1,5.7-7.2,7.9-11H33
			c-2.7,3.6-5.9,7.3-9.4,11H49.4z"/>

		<path d="M24,37.5c1.2,0,12.6,0,12.6,0"/>

			<rect x="24" y="36.7" width="8.1" height="1.6"/>
	
				<path d="M36.6,37.5c-2.1,0.8-4.8,2.3-6.4,3.8l1.3-3.8l-1.3-3.8C31.9,35.3,34.5,36.7,36.6,37.5z"/>

		<path d="M25.9,42.8v-1.1h-1.8v-0.3l1.7-2.5h0.6v2.4h0.5v0.4h-0.5v1.1H25.9z M25.9,41.3V40c0-0.2,0-0.4,0-0.6h0
			c-0.1,0.2-0.2,0.4-0.3,0.6l-1,1.3v0H25.9z"/>


</svg>