<?xml version="1.0" encoding="utf-8"?>
<!-- Generator: Adobe Illustrator 26.2.1, SVG Export Plug-In . SVG Version: 6.00 Build 0)  -->
<svg version="1.1" xmlns="http://www.w3.org/2000/svg" xmlns:xlink="http://www.w3.org/1999/xlink" x="0px" y="0px"
	 viewBox="0 0 100 100" style="enable-background:new 0 0 100 100;" xml:space="preserve" width = "100px" height = "100px">
<style type="text/css">
	.st0{display:none;}
	.st1{display:inline;}
</style> 

	<rect x="17.2" y="27.6" class="st2" width="12.6" height="0"/>

		<path d="M53.4,28.7v6.7v61h-7V42.6C36.6,60.3,22.2,76.4,7.7,85.3c-1.2-1.7-3.4-4.3-5-5.6c15.6-8.6,31.4-26.3,40.5-44.3h-37v-6.7
			h40.2V3.6l9.1,0.5c-0.1,0.8-0.7,1.3-2.1,1.4V28.7H94v6.7H56.7L53.4,28.7z"/>

	<polyline class="st3" points="53.4,28.7 53.4,35.4 56.7,35.4 	"/>

		<path d="M24.9,77.9l-1-1.1c7.6-7,14-15.6,18.9-25.6l1.3,0.7C39.2,62.1,32.7,70.9,24.9,77.9z"/>

			<path d="M21,80.3c1.1-2,2.2-4.8,2.5-6.9l1.4,3.5l3.3,1.8C26,78.8,23.1,79.5,21,80.3z"/>

		<path d="M41.9,62.7c0.1,0.1,0.5,0.2,0.9,0.2c0.7,0,0.9-0.4,0.9-0.8c0-0.5-0.5-0.8-1-0.8h-0.3V61h0.3c0.4,0,0.9-0.2,0.9-0.7
			c0-0.3-0.2-0.6-0.7-0.6c-0.3,0-0.6,0.1-0.8,0.3l-0.1-0.4c0.2-0.1,0.6-0.3,1-0.3c0.8,0,1.1,0.5,1.1,0.9c0,0.4-0.2,0.7-0.7,0.9v0
			c0.5,0.1,0.9,0.5,0.9,1c0,0.6-0.5,1.2-1.4,1.2c-0.4,0-0.8-0.1-1-0.3L41.9,62.7z"/>

</svg>