<?xml version="1.0" encoding="utf-8"?>
<!-- Generator: Adobe Illustrator 26.2.1, SVG Export Plug-In . SVG Version: 6.00 Build 0)  -->
<svg version="1.1" xmlns="http://www.w3.org/2000/svg" xmlns:xlink="http://www.w3.org/1999/xlink" x="0px" y="0px"
	 viewBox="0 0 100 100" style="enable-background:new 0 0 100 100;" xml:space="preserve" width = "100px" height = "100px">
<style type="text/css">
	.st0{display:none;}
	.st1{display:inline;}
</style> 

	<rect x="17.2" y="27.6" class="st0" width="12.6" height="0"/>

		<path d="M94,35.4H56.7C66,52.9,82.1,70.6,97.3,79.1c-1.7,1.4-4,4-5.2,5.8C78,76,63.5,59.6,53.4,42.3v54.1h-7V42.6
			C36.6,60.3,22.2,76.4,7.7,85.3c-1.2-1.7-3.4-4.3-5-5.6c15.6-8.6,31.4-26.3,40.5-44.3h-37v-6.7h40.2V3.6l9.1,0.5
			c-0.1,0.8-0.7,1.3-2.1,1.4v23.2H94V35.4z"/>

		<path d="M83.4,84.5c-11.5-7.4-21.3-17.8-29.2-30.9l1.3-0.8C63.3,65.7,73,75.9,84.2,83.2L83.4,84.5z"/>

			<path d="M87.7,86.2c-2.2-0.4-5.2-0.7-7.3-0.3l3-2.4l0.8-3.7C84.7,81.9,86.3,84.4,87.7,86.2z"/>

		<path d="M56,63V62h-1.8v-0.3l1.7-2.5h0.6v2.4h0.5V62h-0.5V63H56z M56,61.5v-1.3c0-0.2,0-0.4,0-0.6h0c-0.1,0.2-0.2,0.4-0.3,0.6
			l-1,1.3v0H56z"/>

</svg>