<?xml version="1.0" encoding="utf-8"?>
<!-- Generator: Adobe Illustrator 26.2.1, SVG Export Plug-In . SVG Version: 6.00 Build 0)  -->
<svg version="1.1" xmlns="http://www.w3.org/2000/svg" xmlns:xlink="http://www.w3.org/1999/xlink" x="0px" y="0px"
	 viewBox="0 0 100 100" style="enable-background:new 0 0 100 100;" xml:space="preserve" width = "100px" height = "100px">
<style type="text/css">
	.st0{display:none;}
	.st1{display:inline;}
</style> 

	<rect x="17.2" y="27.6" class="st2" width="12.6" height="0"/>

		<path d="M53.4,42.3 M43.3,35.4h-37v-6.7h40.2h7H94v6.7H56.7"/>

		<path d="M10.1,40c2.5,0,48.2,0,48.2,0"/>

			<rect x="10.1" y="39.3" width="43.6" height="1.5"/>

				<path d="M58.3,40c-2.1,0.8-4.8,2.1-6.4,3.6l1.3-3.6l-1.3-3.6C53.5,37.9,56.2,39.2,58.3,40z"/>

		<path d="M11.6,45.3L11.6,45.3l-0.7,0.4l-0.1-0.4l0.9-0.5h0.4v3.9h-0.5V45.3z"/>

</svg>