<?xml version="1.0" encoding="utf-8"?>
<!-- Generator: Adobe Illustrator 26.2.1, SVG Export Plug-In . SVG Version: 6.00 Build 0)  -->
<svg version="1.1" xmlns="http://www.w3.org/2000/svg" xmlns:xlink="http://www.w3.org/1999/xlink" x="0px" y="0px"
	 viewBox="0 0 100 100" style="enable-background:new 0 0 100 100;" xml:space="preserve" width = "100px" height = "100px">
<style type="text/css">
	.st0{display:none;}
	.st1{display:inline;}
</style> 

	<rect x="17.2" y="27.6" class="st2" width="12.6" height="0"/>

		<path d="M53.4,28.7v13.6v54.1h-7V42.6V28.7 M43.3,35.4h-37v-6.7h40.2V3.6l9.1,0.5c-0.1,0.8-0.7,1.3-2.1,1.4v23.2H94v6.7H56.7"/>

		<line x1="57.8" y1="6.9" x2="57.8" y2="22.8"/>

			<rect x="57" y="6.9" width="1.5" height="11.4"/>

				<path d="M57.8,22.8c-0.8-2.1-2.1-4.8-3.6-6.4l3.6,1.3l3.6-1.3C59.9,18,58.6,20.6,57.8,22.8z"/>

		<path d="M62.4,12.2v-0.3l0.4-0.4c1-0.9,1.4-1.5,1.5-2c0-0.4-0.2-0.8-0.8-0.8c-0.4,0-0.6,0.2-0.8,0.3l-0.2-0.4
			c0.3-0.2,0.7-0.4,1.1-0.4c0.8,0,1.2,0.6,1.2,1.1c0,0.7-0.5,1.3-1.3,2.1l-0.3,0.3v0h1.8v0.4H62.4z"/>

</svg>