<?xml version="1.0" encoding="utf-8"?>
<!-- Generator: Adobe Illustrator 26.2.1, SVG Export Plug-In . SVG Version: 6.00 Build 0)  -->
<svg version="1.1" xmlns="http://www.w3.org/2000/svg" xmlns:xlink="http://www.w3.org/1999/xlink" x="0px" y="0px"
	 viewBox="0 0 100 100" style="enable-background:new 0 0 100 100;" xml:space="preserve">
<style type="text/css">
	.st0{fill:none;}
	.st1{display:none;}
	.st2{display:inline;fill:none;}
	.st3{display:inline;}
</style>
<g id="Stroke3">
	<rect x="17.2" y="27.6" class="st0" width="12.6" height="0"/>
	<g>
		<path d="M94,35.4H56.7C66,52.9,82.1,70.6,97.3,79.1c-1.7,1.4-4,4-5.2,5.8C78,76,63.5,59.6,53.4,42.3v54.1h-7V42.6
			C36.6,60.3,22.2,76.4,7.7,85.3c-1.2-1.7-3.4-4.3-5-5.6c15.6-8.6,31.4-26.3,40.5-44.3h-37v-6.7h40.2V3.6l9.1,0.5
			c-0.1,0.8-0.7,1.3-2.1,1.4v23.2H94V35.4z"/>
	</g>
	<g>
		<path d="M83.4,84.5c-11.5-7.4-21.3-17.8-29.2-30.9l1.3-0.8C63.3,65.7,73,75.9,84.2,83.2L83.4,84.5z"/>
		<g>
			<path d="M87.7,86.2c-2.2-0.4-5.2-0.7-7.3-0.3l3-2.4l0.8-3.7C84.7,81.9,86.3,84.4,87.7,86.2z"/>
		</g>
	</g>
	<g>
		<path d="M56,63V62h-1.8v-0.3l1.7-2.5h0.6v2.4h0.5V62h-0.5V63H56z M56,61.5v-1.3c0-0.2,0-0.4,0-0.6h0c-0.1,0.2-0.2,0.4-0.3,0.6
			l-1,1.3v0H56z"/>
	</g>
</g>
<g id="Stroke2" class="st1">
	<rect x="17.2" y="27.6" class="st2" width="12.6" height="0"/>
	<g class="st3">
		<path d="M53.4,28.7v6.7v61h-7V42.6C36.6,60.3,22.2,76.4,7.7,85.3c-1.2-1.7-3.4-4.3-5-5.6c15.6-8.6,31.4-26.3,40.5-44.3h-37v-6.7
			h40.2V3.6l9.1,0.5c-0.1,0.8-0.7,1.3-2.1,1.4V28.7H94v6.7H56.7L53.4,28.7z"/>
	</g>
	<polyline class="st3" points="53.4,28.7 53.4,35.4 56.7,35.4 	"/>
	<g class="st3">
		<path d="M24.9,77.9l-1-1.1c7.6-7,14-15.6,18.9-25.6l1.3,0.7C39.2,62.1,32.7,70.9,24.9,77.9z"/>
		<g>
			<path d="M21,80.3c1.1-2,2.2-4.8,2.5-6.9l1.4,3.5l3.3,1.8C26,78.8,23.1,79.5,21,80.3z"/>
		</g>
	</g>
	<g class="st3">
		<path d="M41.9,62.7c0.1,0.1,0.5,0.2,0.9,0.2c0.7,0,0.9-0.4,0.9-0.8c0-0.5-0.5-0.8-1-0.8h-0.3V61h0.3c0.4,0,0.9-0.2,0.9-0.7
			c0-0.3-0.2-0.6-0.7-0.6c-0.3,0-0.6,0.1-0.8,0.3l-0.1-0.4c0.2-0.1,0.6-0.3,1-0.3c0.8,0,1.1,0.5,1.1,0.9c0,0.4-0.2,0.7-0.7,0.9v0
			c0.5,0.1,0.9,0.5,0.9,1c0,0.6-0.5,1.2-1.4,1.2c-0.4,0-0.8-0.1-1-0.3L41.9,62.7z"/>
	</g>
</g>
<g id="Stroke1" class="st1">
	<rect x="17.2" y="27.6" class="st2" width="12.6" height="0"/>
	<g class="st3">
		<path d="M53.4,28.7v13.6v54.1h-7V42.6V28.7 M43.3,35.4h-37v-6.7h40.2V3.6l9.1,0.5c-0.1,0.8-0.7,1.3-2.1,1.4v23.2H94v6.7H56.7"/>
	</g>
	<g class="st3">
		<line x1="57.8" y1="6.9" x2="57.8" y2="22.8"/>
		<g>
			<rect x="57" y="6.9" width="1.5" height="11.4"/>
			<g>
				<path d="M57.8,22.8c-0.8-2.1-2.1-4.8-3.6-6.4l3.6,1.3l3.6-1.3C59.9,18,58.6,20.6,57.8,22.8z"/>
			</g>
		</g>
	</g>
	<g class="st3">
		<path d="M62.4,12.2v-0.3l0.4-0.4c1-0.9,1.4-1.5,1.5-2c0-0.4-0.2-0.8-0.8-0.8c-0.4,0-0.6,0.2-0.8,0.3l-0.2-0.4
			c0.3-0.2,0.7-0.4,1.1-0.4c0.8,0,1.2,0.6,1.2,1.1c0,0.7-0.5,1.3-1.3,2.1l-0.3,0.3v0h1.8v0.4H62.4z"/>
	</g>
</g>
<g id="Stroke0" class="st1">
	<rect x="17.2" y="27.6" class="st2" width="12.6" height="0"/>
	<g class="st3">
		<path d="M53.4,42.3 M43.3,35.4h-37v-6.7h40.2h7H94v6.7H56.7"/>
	</g>
	<g class="st3">
		<path d="M10.1,40c2.5,0,48.2,0,48.2,0"/>
		<g>
			<rect x="10.1" y="39.3" width="43.6" height="1.5"/>
			<g>
				<path d="M58.3,40c-2.1,0.8-4.8,2.1-6.4,3.6l1.3-3.6l-1.3-3.6C53.5,37.9,56.2,39.2,58.3,40z"/>
			</g>
		</g>
	</g>
	<g class="st3">
		<path d="M11.6,45.3L11.6,45.3l-0.7,0.4l-0.1-0.4l0.9-0.5h0.4v3.9h-0.5V45.3z"/>
	</g>
</g>
<g id="Kanji" class="st1">
	<rect x="17.2" y="27.6" class="st2" width="12.6" height="0"/>
	<g class="st3">
		<path d="M94,35.4H56.7C66,52.9,82.1,70.6,97.3,79.1c-1.7,1.4-4,4-5.2,5.8C78,76,63.5,59.6,53.4,42.3v54.1h-7V42.6
			C36.6,60.3,22.2,76.4,7.7,85.3c-1.2-1.7-3.4-4.3-5-5.6c15.6-8.6,31.4-26.3,40.5-44.3h-37v-6.7h40.2V3.6l9.1,0.5
			c-0.1,0.8-0.7,1.3-2.1,1.4v23.2H94V35.4z"/>
	</g>
</g>
</svg>
