<?xml version="1.0" encoding="utf-8"?>
<!-- Generator: Adobe Illustrator 26.2.1, SVG Export Plug-In . SVG Version: 6.00 Build 0)  -->
<svg version="1.1" xmlns="http://www.w3.org/2000/svg" xmlns:xlink="http://www.w3.org/1999/xlink" x="0px" y="0px"
	 viewBox="0 0 100 100" style="enable-background:new 0 0 100 100;" xml:space="preserve" width = "100px" height = "100px">
<style type="text/css">
	.st0{display:none;}
	.st1{display:inline;}
</style>


		<path d="M41.6,26.6c-0.2,0.7-0.9,1.2-2.1,1.3c-2.7,14.5-8.2,25.2-30.8,30.7C8,57,6.3,54.4,5,53.1c20.6-4.5,25.9-13.5,27.8-27.3
			L41.6,26.6z M53.4,67.8v20.9h41.5V95H5.6v-6.3h40.9V67.8H16.4v-6.2h68.3v6.2H53.4z M14.6,23.4v13.7H7.9V17.2h38.6V5l8.9,0.6
			c-0.1,0.7-0.7,1.2-2,1.4v10.2h39v19.9h-6.9V23.4H14.6z M58.1,24.9l8.6,0.5c-0.1,0.7-0.6,1.2-2,1.4v18.3c0,2.4,0.7,2.9,5.1,2.9
			h15.1c3.2,0,3.8-0.9,4.1-6.8c1.4,1,4.1,1.9,6,2.3c-0.8,8.3-2.8,10.4-9.3,10.4H69.2c-8.9,0-11.1-1.8-11.1-8.7V24.9z"/>

		<line x1="6" y1="84.6" x2="21.7" y2="84.6"/>

			<rect x="6" y="83.8" width="11.2" height="1.5"/>

				<path d="M21.7,84.6c-2.1,0.8-4.8,2.1-6.4,3.6l1.3-3.6L15.3,81C16.9,82.5,19.5,83.8,21.7,84.6z"/>

		<path d="M6.2,80.9c0-0.5,0.3-0.8,0.8-1l0,0c-0.4-0.2-0.6-0.5-0.6-0.9c0-0.6,0.5-1,1.2-1c0.8,0,1.1,0.5,1.1,1
			c0,0.3-0.2,0.7-0.6,0.9v0c0.5,0.2,0.8,0.5,0.8,1c0,0.7-0.6,1.1-1.3,1.1C6.7,81.9,6.2,81.4,6.2,80.9z M8.3,80.9
			c0-0.5-0.3-0.7-0.9-0.9c-0.5,0.1-0.7,0.4-0.7,0.8c0,0.4,0.3,0.7,0.8,0.7C8,81.5,8.3,81.3,8.3,80.9z M6.9,78.9
			c0,0.4,0.3,0.6,0.7,0.7c0.3-0.1,0.6-0.4,0.6-0.7c0-0.3-0.2-0.6-0.7-0.6C7.1,78.3,6.9,78.6,6.9,78.9z"/>



 </svg>