<?xml version="1.0" encoding="utf-8"?>
<!-- Generator: Adobe Illustrator 26.2.1, SVG Export Plug-In . SVG Version: 6.00 Build 0)  -->
<svg version="1.1" xmlns="http://www.w3.org/2000/svg" xmlns:xlink="http://www.w3.org/1999/xlink" x="0px" y="0px"
	 viewBox="0 0 100 100" style="enable-background:new 0 0 100 100;" xml:space="preserve" width = "100px" height = "100px">
<style type="text/css">
	.st0{display:none;}
	.st1{display:inline;}
</style> 


		<path d="M16.4,61.6 M14.6,23.4v13.7H7.9V17.2h38.6V5l8.9,0.6c-0.1,0.7-0.7,1.2-2,1.4v10.2h39v19.9h-6.9V23.4H14.6z"/>

		<path d="M18.4,27.5c1.1,0,15.3,0,15.3,0"/>
		
			<path d="M18.4,28.3l0-1.5c0.6,0,4.3,0,11,0l0,1.5C22.6,28.3,19,28.3,18.4,28.3z"/>
		
				<path d="M33.7,27.5c-2,0.8-4.6,2.1-6.2,3.4l1.2-3.4l-1.2-3.4C29.1,25.5,31.7,26.8,33.7,27.5z"/>

		<path d="M18.2,33.4c0.1,0.1,0.5,0.2,0.9,0.2c0.7,0,0.9-0.4,0.9-0.8c0-0.5-0.5-0.8-1-0.8h-0.3v-0.4H19c0.4,0,0.9-0.2,0.9-0.7
			c0-0.3-0.2-0.6-0.7-0.6c-0.3,0-0.6,0.1-0.8,0.3l-0.1-0.4c0.2-0.1,0.6-0.3,1-0.3c0.8,0,1.1,0.5,1.1,0.9c0,0.4-0.2,0.7-0.7,0.9v0
			c0.5,0.1,0.9,0.5,0.9,1c0,0.6-0.5,1.2-1.4,1.2c-0.4,0-0.8-0.1-1-0.3L18.2,33.4z"/>



</svg>