<?xml version="1.0" encoding="utf-8"?>
<!-- Generator: Adobe Illustrator 26.2.1, SVG Export Plug-In . SVG Version: 6.00 Build 0)  -->
<svg version="1.1" xmlns="http://www.w3.org/2000/svg" xmlns:xlink="http://www.w3.org/1999/xlink" x="0px" y="0px"
	 viewBox="0 0 100 100" style="enable-background:new 0 0 100 100;" xml:space="preserve" width = "100px" height = "100px">
<style type="text/css">
	.st0{display:none;}
	.st1{display:inline;}
</style> 


		<path d="M41.6,26.6c-0.2,0.7-0.9,1.2-2.1,1.3c-2.7,14.5-8.2,25.2-30.8,30.7C8,57,6.3,54.4,5,53.1c20.6-4.5,25.9-13.5,27.8-27.3
			L41.6,26.6z M14.6,23.4v13.7H7.9V17.2h38.6V5l8.9,0.6c-0.1,0.7-0.7,1.2-2,1.4v10.2h39v19.9h-6.9V23.4H14.6z"/>

		<path d="M41.4,40.5L40,39.9c0.4-1,0.9-1.9,1.2-2.9c1-2.5,1.8-5.1,2.5-7.7l1.5,0.4c-0.7,2.7-1.5,5.3-2.5,7.9
			C42.3,38.5,41.9,39.5,41.4,40.5z"/>

			<path d="M38.7,44.3c0.2-2.3,0.2-5.2-0.4-7.3l2.6,2.7l3.8,0.4C42.7,40.9,40.4,42.7,38.7,44.3z"/>

		<path d="M49.3,32.6v-1.1h-1.8v-0.3l1.7-2.5h0.6v2.4h0.5v0.4h-0.5v1.1H49.3z M49.3,31.1v-1.3c0-0.2,0-0.4,0-0.6h0
			c-0.1,0.2-0.2,0.4-0.3,0.6l-1,1.3v0H49.3z"/>


</svg>