<?xml version="1.0" encoding="utf-8"?>
<!-- Generator: Adobe Illustrator 26.2.1, SVG Export Plug-In . SVG Version: 6.00 Build 0)  -->
<svg version="1.1" xmlns="http://www.w3.org/2000/svg" xmlns:xlink="http://www.w3.org/1999/xlink" x="0px" y="0px"
	 viewBox="0 0 100 100" style="enable-background:new 0 0 100 100;" xml:space="preserve" width = "100px" height = "100px">
<style type="text/css">
	.st0{display:none;}
	.st1{display:inline;}
</style> 

		<path d="M41.6,26.6c-0.2,0.7-0.9,1.2-2.1,1.3c-2.7,14.5-8.2,25.2-30.8,30.7C8,57,6.3,54.4,5,53.1c20.6-4.5,25.9-13.5,27.8-27.3
			L41.6,26.6z M46.5,88.7 M14.6,23.4v13.7H7.9V17.2h38.6V5l8.9,0.6c-0.1,0.7-0.7,1.2-2,1.4v10.2h39v19.9h-6.9V23.4H14.6z M58.1,24.9
			l8.6,0.5c-0.1,0.7-0.6,1.2-2,1.4v18.3c0,2.4,0.7,2.9,5.1,2.9h15.1c3.2,0,3.8-0.9,4.1-6.8c1.4,1,4.1,1.9,6,2.3
			c-0.8,8.3-2.8,10.4-9.3,10.4H69.2c-8.9,0-11.1-1.8-11.1-8.7V24.9z"/>

		<line x1="53.5" y1="24.9" x2="53.5" y2="38.1"/>
		
			<rect x="52.8" y="24.9" width="1.5" height="8.6"/>
		
				<path d="M53.5,38.1c-0.8-2.1-2.1-4.8-3.6-6.4l3.6,1.3l3.6-1.3C55.7,33.3,54.3,36,53.5,38.1z"/>

		<path d="M50.6,25.6h-1.5l-0.1,1c0.1,0,0.2,0,0.3,0c0.3,0,0.6,0.1,0.8,0.2c0.3,0.2,0.6,0.5,0.6,1c0,0.8-0.6,1.3-1.5,1.3
			c-0.4,0-0.8-0.1-1-0.2l0.1-0.4c0.2,0.1,0.5,0.2,0.8,0.2c0.5,0,0.9-0.3,0.9-0.8c0-0.5-0.3-0.9-1.1-0.9c-0.2,0-0.4,0-0.5,0l0.3-1.9
			h1.9V25.6z"/>


</svg>