<?xml version="1.0" encoding="utf-8"?>
<!-- Generator: Adobe Illustrator 26.2.1, SVG Export Plug-In . SVG Version: 6.00 Build 0)  -->
<svg version="1.1" xmlns="http://www.w3.org/2000/svg" xmlns:xlink="http://www.w3.org/1999/xlink" x="0px" y="0px"
	 viewBox="0 0 100 100" style="enable-background:new 0 0 100 100;" xml:space="preserve">
<style type="text/css">
	.st0{fill:none;}
	.st1{display:none;}
	.st2{display:inline;fill:none;}
	.st3{display:inline;}
</style>
<g id="Stroke7">
	<rect x="17.2" y="27.6" class="st0" width="12.6" height="0"/>
	<g>
		<path d="M52.9,63.4V89h40.4v6H6.5v-6h39.4V63.4H11v-6h34.9v-14H24.4v-5.7c-5.4,4.2-11.2,8.1-17,11.4c-1-1.5-2.8-3.9-4.2-5.3
			C20.7,34.5,37.9,18.5,45.8,5l9.8,0.6c-0.2,0.8-1,1.3-2,1.5C63.3,20.5,81.3,35,96.8,42.5c-1.6,1.7-3.3,3.9-4.5,5.9
			C76.7,39.8,58.8,25.2,49.4,12c-5.3,8.1-14.2,17.2-24.5,25.3h50.3v6.1H52.9v14h35.7v6H52.9z M29.3,87.3c-1.3-5.1-5.3-13-9.4-18.9
			l5.5-2.1c4.2,5.6,8.4,13.4,9.8,18.5L29.3,87.3z M80.7,69.3c-0.3,0.6-1.1,0.9-2.2,0.8c-2.9,5.2-7.7,12.6-11.5,17.4L62,85
			c3.7-5,8.6-13.2,11.2-19L80.7,69.3z"/>
	</g>
	<g>
		<line x1="8.6" y1="97.2" x2="33" y2="97.2"/>
		<g>
			<rect x="8.6" y="96.7" width="21.4" height="1"/>
			<g>
				<path d="M33,97.2c-1.4,0.5-3.2,1.4-4.3,2.4l0.9-2.4l-0.9-2.4C29.8,95.7,31.6,96.6,33,97.2z"/>
			</g>
		</g>
	</g>
	<g>
		<path d="M2.5,97.8c0-0.5,0.3-0.8,0.8-1l0,0c-0.4-0.2-0.6-0.5-0.6-0.9c0-0.6,0.5-1,1.2-1c0.8,0,1.1,0.5,1.1,1
			c0,0.3-0.2,0.7-0.6,0.9v0c0.5,0.2,0.8,0.5,0.8,1c0,0.7-0.6,1.1-1.3,1.1C3,98.9,2.5,98.4,2.5,97.8z M4.6,97.8
			c0-0.5-0.3-0.7-0.9-0.9C3.3,97.1,3,97.4,3,97.8c0,0.4,0.3,0.7,0.8,0.7C4.3,98.5,4.6,98.2,4.6,97.8z M3.1,95.9
			c0,0.4,0.3,0.6,0.7,0.7c0.3-0.1,0.6-0.4,0.6-0.7c0-0.3-0.2-0.6-0.7-0.6C3.4,95.2,3.1,95.5,3.1,95.9z"/>
	</g>
</g>
<g id="Stroke6" class="st1">
	<rect x="17.2" y="27.6" class="st2" width="12.6" height="0"/>
	<g class="st3">
		<path d="M45.9,89V63.4H11v-6h34.9v-14H24.4v-5.7c-5.4,4.2-11.2,8.1-17,11.4c-1-1.5-2.8-3.9-4.2-5.3C20.7,34.5,37.9,18.5,45.8,5
			l9.8,0.6c-0.2,0.8-1,1.3-2,1.5C63.3,20.5,81.3,35,96.8,42.5c-1.6,1.7-3.3,3.9-4.5,5.9C76.7,39.8,58.8,25.2,49.4,12
			c-5.3,8.1-14.2,17.2-24.5,25.3h50.3v6.1H52.9v14h35.7v6H52.9V89 M29.3,87.3c-1.3-5.1-5.3-13-9.4-18.9l5.5-2.1
			c4.2,5.6,8.4,13.4,9.8,18.5L29.3,87.3z M80.7,69.3c-0.3,0.6-1.1,0.9-2.2,0.8c-2.9,5.2-7.7,12.6-11.5,17.4L62,85
			c3.7-5,8.6-13.2,11.2-19L80.7,69.3z"/>
	</g>
	<g class="st3">
		<path d="M75.5,83.6l-1.2-0.9c2.8-3.8,5.4-7.9,7.8-12l1.3,0.8C81,75.7,78.3,79.8,75.5,83.6z"/>
		<g>
			<path d="M72.2,86.8c0.6-2.2,1.1-5.1,0.9-7.3l2.1,3.1l3.6,1.1C76.7,84.2,74.1,85.6,72.2,86.8z"/>
		</g>
	</g>
	<g class="st3">
		<path d="M87.2,73.9v0.3l-1.7,3.5H85l1.7-3.4v0h-1.9v-0.4H87.2z"/>
	</g>
</g>
<g id="Stroke5" class="st1">
	<rect x="17.2" y="27.6" class="st2" width="12.6" height="0"/>
	<g class="st3">
		<path d="M45.9,89V63.4H11v-6h34.9v-14H24.4v-5.7c-5.4,4.2-11.2,8.1-17,11.4c-1-1.5-2.8-3.9-4.2-5.3C20.7,34.5,37.9,18.5,45.8,5
			l9.8,0.6c-0.2,0.8-1,1.3-2,1.5C63.3,20.5,81.3,35,96.8,42.5c-1.6,1.7-3.3,3.9-4.5,5.9C76.7,39.8,58.8,25.2,49.4,12
			c-5.3,8.1-14.2,17.2-24.5,25.3h50.3v6.1H52.9v14h35.7v6H52.9V89 M29.3,87.3c-1.3-5.1-5.3-13-9.4-18.9l5.5-2.1
			c4.2,5.6,8.4,13.4,9.8,18.5L29.3,87.3z"/>
	</g>
	<g class="st3">
		<path d="M22.7,83.8c-1.6-4-3.8-7.9-6.5-11.5l1.2-0.9c2.8,3.7,5,7.7,6.7,11.9L22.7,83.8z"/>
		<g>
			<path d="M24.9,87.9c-1.5-1.7-3.6-3.8-5.5-4.8l3.8,0l2.9-2.4C25.3,82.6,24.9,85.6,24.9,87.9z"/>
		</g>
	</g>
	<g class="st3">
		<path d="M15.1,75.5c-0.1,0-0.2,0-0.4,0c-0.8,0.1-1.3,0.7-1.4,1.4h0c0.2-0.2,0.5-0.4,0.9-0.4c0.7,0,1.2,0.5,1.2,1.3
			c0,0.7-0.5,1.4-1.3,1.4c-0.8,0-1.4-0.6-1.4-1.7c0-0.8,0.3-1.4,0.7-1.8c0.3-0.3,0.8-0.5,1.2-0.6c0.2,0,0.3,0,0.4,0V75.5z
			 M14.9,77.8c0-0.6-0.3-0.9-0.8-0.9c-0.3,0-0.6,0.2-0.8,0.5c0,0.1-0.1,0.1-0.1,0.2c0,0.6,0.3,1.1,0.9,1.1
			C14.6,78.7,14.9,78.3,14.9,77.8z"/>
	</g>
</g>
<g id="Stroke4" class="st1">
	<rect x="17.2" y="27.6" class="st2" width="12.6" height="0"/>
	<g class="st3">
		<path d="M45.9,89V63.4H11v-6h34.9v-14H24.4v-5.7c-5.4,4.2-11.2,8.1-17,11.4c-1-1.5-2.8-3.9-4.2-5.3C20.7,34.5,37.9,18.5,45.8,5
			l9.8,0.6c-0.2,0.8-1,1.3-2,1.5C63.3,20.5,81.3,35,96.8,42.5c-1.6,1.7-3.3,3.9-4.5,5.9C76.7,39.8,58.8,25.2,49.4,12
			c-5.3,8.1-14.2,17.2-24.5,25.3h50.3v6.1H52.9v14h35.7v6H52.9V89"/>
	</g>
	<g class="st3">
		<line x1="56.6" y1="44.6" x2="56.6" y2="55.4"/>
		<g>
			<rect x="55.9" y="44.6" width="1.5" height="6.3"/>
			<g>
				<path d="M56.6,55.4c-0.8-2.1-2.1-4.8-3.6-6.4l3.6,1.3l3.6-1.3C58.8,50.7,57.4,53.3,56.6,55.4z"/>
			</g>
		</g>
	</g>
	<g class="st3">
		<path d="M65.3,46h-1.5l-0.1,1c0.1,0,0.2,0,0.3,0c0.3,0,0.6,0.1,0.8,0.2c0.3,0.2,0.6,0.5,0.6,1c0,0.8-0.6,1.3-1.5,1.3
			c-0.4,0-0.8-0.1-1-0.2l0.1-0.4c0.2,0.1,0.5,0.2,0.8,0.2c0.5,0,0.9-0.3,0.9-0.8c0-0.5-0.3-0.9-1.1-0.9c-0.2,0-0.4,0-0.5,0l0.3-1.9
			h1.9V46z"/>
	</g>
</g>
<g id="Stroke3" class="st1">
	<rect x="17.2" y="27.6" class="st2" width="12.6" height="0"/>
	<g class="st3">
		<path d="M45.9,43.4H24.4v-5.7c-5.4,4.2-11.2,8.1-17,11.4c-1-1.5-2.8-3.9-4.2-5.3C20.7,34.5,37.9,18.5,45.8,5l9.8,0.6
			c-0.2,0.8-1,1.3-2,1.5C63.3,20.5,81.3,35,96.8,42.5c-1.6,1.7-3.3,3.9-4.5,5.9C76.7,39.8,58.8,25.2,49.4,12
			c-5.3,8.1-14.2,17.2-24.5,25.3h50.3v6.1H52.9 M45.9,63.4H11v-6h77.6v6H52.9"/>
	</g>
	<g class="st3">
		<path d="M12.8,67.9c2.3,0,26.7,0,26.7,0"/>
		<g>
			<rect x="12.8" y="67.2" width="22.2" height="1.5"/>
			<g>
				<path d="M39.5,67.9c-2.1,0.8-4.8,2.1-6.4,3.6l1.3-3.6l-1.3-3.6C34.7,65.8,37.4,67.1,39.5,67.9z"/>
			</g>
		</g>
	</g>
	<g class="st3">
		<path d="M15.5,74.5v-1.1h-1.8v-0.3l1.7-2.5H16V73h0.5v0.4H16v1.1H15.5z M15.5,73v-1.3c0-0.2,0-0.4,0-0.6h0
			c-0.1,0.2-0.2,0.4-0.3,0.6l-1,1.3v0H15.5z"/>
	</g>
</g>
<g id="Stroke2" class="st1">
	<rect x="17.2" y="27.6" class="st2" width="12.6" height="0"/>
	<g class="st3">
		<path d="M52.9,63.4 M45.9,43.4H24.4v-5.7c-5.4,4.2-11.2,8.1-17,11.4c-1-1.5-2.8-3.9-4.2-5.3C20.7,34.5,37.9,18.5,45.8,5l9.8,0.6
			c-0.2,0.8-1,1.3-2,1.5C63.3,20.5,81.3,35,96.8,42.5c-1.6,1.7-3.3,3.9-4.5,5.9C76.7,39.8,58.8,25.2,49.4,12
			c-5.3,8.1-14.2,17.2-24.5,25.3h50.3v6.1H52.9"/>
	</g>
	<g class="st3">
		<line x1="26.2" y1="48" x2="47.2" y2="48"/>
		<g>
			<rect x="26.2" y="47.3" width="16.5" height="1.5"/>
			<g>
				<path d="M47.2,48c-2.1,0.8-4.8,2.1-6.4,3.6l1.3-3.6l-1.3-3.6C42.5,45.9,45.1,47.2,47.2,48z"/>
			</g>
		</g>
	</g>
	<g class="st3">
		<path d="M26.7,54.6c0.1,0.1,0.5,0.2,0.9,0.2c0.7,0,0.9-0.4,0.9-0.8c0-0.5-0.5-0.8-1-0.8h-0.3v-0.4h0.3c0.4,0,0.9-0.2,0.9-0.7
			c0-0.3-0.2-0.6-0.7-0.6c-0.3,0-0.6,0.1-0.8,0.3l-0.1-0.4c0.2-0.1,0.6-0.3,1-0.3c0.8,0,1.1,0.5,1.1,0.9c0,0.4-0.2,0.7-0.7,0.9v0
			c0.5,0.1,0.9,0.5,0.9,1c0,0.6-0.5,1.2-1.4,1.2c-0.4,0-0.8-0.1-1-0.3L26.7,54.6z"/>
	</g>
</g>
<g id="Stroke1" class="st1">
	<rect x="17.2" y="27.6" class="st2" width="12.6" height="0"/>
	<g class="st3">
		<path d="M7.4,49.1c-1-1.5-2.8-3.9-4.2-5.3C20.7,34.5,37.9,18.5,45.8,5l9.8,0.6c-0.2,0.8-1,1.3-2,1.5C63.3,20.5,81.3,35,96.8,42.5
			c-1.6,1.7-3.3,3.9-4.5,5.9C76.7,39.8,58.8,25.2,49.4,12c-5.3,8.1-14.2,17.2-24.5,25.3"/>
	</g>
	<g class="st3">
		<path d="M67.1,37.4c-6.9-4-13.3-9.3-19-15.8l1.1-0.8c5.6,6.4,11.8,11.6,18.6,15.5L67.1,37.4z"/>
		<g>
			<path d="M71.1,38.7c-2.1-0.3-4.8-0.5-6.8-0.1l2.7-2.1l0.6-3.2C68.2,35.1,69.7,37.3,71.1,38.7z"/>
		</g>
	</g>
	<g class="st3">
		<path d="M46.8,28.6v-0.3l0.4-0.4c1-0.9,1.4-1.5,1.5-2c0-0.4-0.2-0.8-0.8-0.8c-0.4,0-0.6,0.2-0.8,0.3L46.9,25
			c0.3-0.2,0.7-0.4,1.1-0.4c0.8,0,1.2,0.6,1.2,1.1c0,0.7-0.5,1.3-1.3,2.1l-0.3,0.3v0h1.8v0.4H46.8z"/>
	</g>
</g>
<g id="Stroke0" class="st1">
	<rect x="17.2" y="27.6" class="st2" width="12.6" height="0"/>
	<g class="st3">
		<path d="M24.4,37.7c-5.4,4.2-11.2,8.1-17,11.4c-1-1.5-2.8-3.9-4.2-5.3C20.7,34.5,37.9,18.5,45.8,5l9.8,0.6c-0.2,0.8-1,1.3-2,1.5
			L49.4,12c-5.3,8.1-14.2,17.2-24.5,25.3 M25.4,66.3"/>
	</g>
	<g class="st3">
		<path d="M35,35.8l-0.8-1.3c8.3-5.5,15.3-13.3,20.7-23.2l1.3,0.7C50.7,22.2,43.6,30.1,35,35.8z"/>
		<g>
			<path d="M30.7,37.5c1.4-1.8,2.9-4.3,3.6-6.4l0.8,3.7l3,2.3C35.9,36.8,33,37,30.7,37.5z"/>
		</g>
	</g>
	<g class="st3">
		<path d="M59.5,13.8L59.5,13.8l-0.7,0.4l-0.1-0.4l0.9-0.5H60v3.9h-0.5V13.8z"/>
	</g>
</g>
<g id="Kanji" class="st1">
	<rect x="17.2" y="27.6" class="st2" width="12.6" height="0"/>
	<g class="st3">
		<path d="M52.9,63.4V89h40.4v6H6.5v-6h39.4V63.4H11v-6h34.9v-14H24.4v-5.7c-5.4,4.2-11.2,8.1-17,11.4c-1-1.5-2.8-3.9-4.2-5.3
			C20.7,34.5,37.9,18.5,45.8,5l9.8,0.6c-0.2,0.8-1,1.3-2,1.5C63.3,20.5,81.3,35,96.8,42.5c-1.6,1.7-3.3,3.9-4.5,5.9
			C76.7,39.8,58.8,25.2,49.4,12c-5.3,8.1-14.2,17.2-24.5,25.3h50.3v6.1H52.9v14h35.7v6H52.9z M29.3,87.3c-1.3-5.1-5.3-13-9.4-18.9
			l5.5-2.1c4.2,5.6,8.4,13.4,9.8,18.5L29.3,87.3z M80.7,69.3c-0.3,0.6-1.1,0.9-2.2,0.8c-2.9,5.2-7.7,12.6-11.5,17.4L62,85
			c3.7-5,8.6-13.2,11.2-19L80.7,69.3z"/>
	</g>
</g>
</svg>
