<?xml version="1.0" encoding="utf-8"?>
<!-- Generator: Adobe Illustrator 26.2.1, SVG Export Plug-In . SVG Version: 6.00 Build 0)  -->
<svg version="1.1" xmlns="http://www.w3.org/2000/svg" xmlns:xlink="http://www.w3.org/1999/xlink" x="0px" y="0px"
	 viewBox="0 0 100 100" style="enable-background:new 0 0 100 100;" xml:space="preserve" width = "100px" height = "100px">
<style type="text/css">
	.st0{display:none;}
	.st1{display:inline;}
</style> 

	<rect x="17.2" y="27.6" class="st2" width="12.6" height="0"/>

		<path d="M24.4,37.7c-5.4,4.2-11.2,8.1-17,11.4c-1-1.5-2.8-3.9-4.2-5.3C20.7,34.5,37.9,18.5,45.8,5l9.8,0.6c-0.2,0.8-1,1.3-2,1.5
			L49.4,12c-5.3,8.1-14.2,17.2-24.5,25.3 M25.4,66.3"/>

		<path d="M35,35.8l-0.8-1.3c8.3-5.5,15.3-13.3,20.7-23.2l1.3,0.7C50.7,22.2,43.6,30.1,35,35.8z"/>
	
		<path d="M30.7,37.5c1.4-1.8,2.9-4.3,3.6-6.4l0.8,3.7l3,2.3C35.9,36.8,33,37,30.7,37.5z"/>

		<path d="M59.5,13.8L59.5,13.8l-0.7,0.4l-0.1-0.4l0.9-0.5H60v3.9h-0.5V13.8z"/>


</svg>