<?xml version="1.0" encoding="utf-8"?>
<!-- Generator: Adobe Illustrator 26.2.1, SVG Export Plug-In . SVG Version: 6.00 Build 0)  -->
<svg version="1.1" xmlns="http://www.w3.org/2000/svg" xmlns:xlink="http://www.w3.org/1999/xlink" x="0px" y="0px"
	 viewBox="0 0 100 100" style="enable-background:new 0 0 100 100;" xml:space="preserve" width = "100px" height = "100px">
<style type="text/css">
	.st0{display:none;}
	.st1{display:inline;}
</style>


	<rect x="17.2" y="27.6" class="st2" width="12.6" height="0"/>

		<path d="M45.9,89V63.4H11v-6h34.9v-14H24.4v-5.7c-5.4,4.2-11.2,8.1-17,11.4c-1-1.5-2.8-3.9-4.2-5.3C20.7,34.5,37.9,18.5,45.8,5
			l9.8,0.6c-0.2,0.8-1,1.3-2,1.5C63.3,20.5,81.3,35,96.8,42.5c-1.6,1.7-3.3,3.9-4.5,5.9C76.7,39.8,58.8,25.2,49.4,12
			c-5.3,8.1-14.2,17.2-24.5,25.3h50.3v6.1H52.9v14h35.7v6H52.9V89 M29.3,87.3c-1.3-5.1-5.3-13-9.4-18.9l5.5-2.1
			c4.2,5.6,8.4,13.4,9.8,18.5L29.3,87.3z"/>

		<path d="M22.7,83.8c-1.6-4-3.8-7.9-6.5-11.5l1.2-0.9c2.8,3.7,5,7.7,6.7,11.9L22.7,83.8z"/>
	
			<path d="M24.9,87.9c-1.5-1.7-3.6-3.8-5.5-4.8l3.8,0l2.9-2.4C25.3,82.6,24.9,85.6,24.9,87.9z"/>

		<path d="M15.1,75.5c-0.1,0-0.2,0-0.4,0c-0.8,0.1-1.3,0.7-1.4,1.4h0c0.2-0.2,0.5-0.4,0.9-0.4c0.7,0,1.2,0.5,1.2,1.3
			c0,0.7-0.5,1.4-1.3,1.4c-0.8,0-1.4-0.6-1.4-1.7c0-0.8,0.3-1.4,0.7-1.8c0.3-0.3,0.8-0.5,1.2-0.6c0.2,0,0.3,0,0.4,0V75.5z
			 M14.9,77.8c0-0.6-0.3-0.9-0.8-0.9c-0.3,0-0.6,0.2-0.8,0.5c0,0.1-0.1,0.1-0.1,0.2c0,0.6,0.3,1.1,0.9,1.1
			C14.6,78.7,14.9,78.3,14.9,77.8z"/>



 </svg>