<?xml version="1.0" encoding="utf-8"?>
<!-- Generator: Adobe Illustrator 26.2.1, SVG Export Plug-In . SVG Version: 6.00 Build 0)  -->
<svg version="1.1" xmlns="http://www.w3.org/2000/svg" xmlns:xlink="http://www.w3.org/1999/xlink" x="0px" y="0px"
	 viewBox="0 0 100 100" style="enable-background:new 0 0 100 100;" xml:space="preserve" width = "100px" height = "100px">
<style type="text/css">
	.st0{display:none;}
	.st1{display:inline;}
</style>


	<rect x="17.2" y="27.6" class="st2" width="12.6" height="0"/>

		<path d="M45.9,89V63.4H11v-6h34.9v-14H24.4v-5.7c-5.4,4.2-11.2,8.1-17,11.4c-1-1.5-2.8-3.9-4.2-5.3C20.7,34.5,37.9,18.5,45.8,5
			l9.8,0.6c-0.2,0.8-1,1.3-2,1.5C63.3,20.5,81.3,35,96.8,42.5c-1.6,1.7-3.3,3.9-4.5,5.9C76.7,39.8,58.8,25.2,49.4,12
			c-5.3,8.1-14.2,17.2-24.5,25.3h50.3v6.1H52.9v14h35.7v6H52.9V89 M29.3,87.3c-1.3-5.1-5.3-13-9.4-18.9l5.5-2.1
			c4.2,5.6,8.4,13.4,9.8,18.5L29.3,87.3z M80.7,69.3c-0.3,0.6-1.1,0.9-2.2,0.8c-2.9,5.2-7.7,12.6-11.5,17.4L62,85
			c3.7-5,8.6-13.2,11.2-19L80.7,69.3z"/>

		<path d="M75.5,83.6l-1.2-0.9c2.8-3.8,5.4-7.9,7.8-12l1.3,0.8C81,75.7,78.3,79.8,75.5,83.6z"/>

			<path d="M72.2,86.8c0.6-2.2,1.1-5.1,0.9-7.3l2.1,3.1l3.6,1.1C76.7,84.2,74.1,85.6,72.2,86.8z"/>

		<path d="M87.2,73.9v0.3l-1.7,3.5H85l1.7-3.4v0h-1.9v-0.4H87.2z"/>

 </svg>