<?xml version="1.0" encoding="utf-8"?>
<!-- Generator: Adobe Illustrator 26.2.1, SVG Export Plug-In . SVG Version: 6.00 Build 0)  -->
<svg version="1.1" xmlns="http://www.w3.org/2000/svg" xmlns:xlink="http://www.w3.org/1999/xlink" x="0px" y="0px"
	 viewBox="0 0 100 100" style="enable-background:new 0 0 100 100;" xml:space="preserve" width = "100px" height = "100px">
<style type="text/css">
	.st0{display:none;}
	.st1{display:inline;}
</style> 


	<rect x="17.2" y="27.6" class="st2" width="12.6" height="0"/>

		<path d="M45.9,43.4H24.4v-5.7c-5.4,4.2-11.2,8.1-17,11.4c-1-1.5-2.8-3.9-4.2-5.3C20.7,34.5,37.9,18.5,45.8,5l9.8,0.6
			c-0.2,0.8-1,1.3-2,1.5C63.3,20.5,81.3,35,96.8,42.5c-1.6,1.7-3.3,3.9-4.5,5.9C76.7,39.8,58.8,25.2,49.4,12
			c-5.3,8.1-14.2,17.2-24.5,25.3h50.3v6.1H52.9 M45.9,63.4H11v-6h77.6v6H52.9"/>


		<path d="M12.8,67.9c2.3,0,26.7,0,26.7,0"/>
	
			<rect x="12.8" y="67.2" width="22.2" height="1.5"/>
		
				<path d="M39.5,67.9c-2.1,0.8-4.8,2.1-6.4,3.6l1.3-3.6l-1.3-3.6C34.7,65.8,37.4,67.1,39.5,67.9z"/>
	
		<path d="M15.5,74.5v-1.1h-1.8v-0.3l1.7-2.5H16V73h0.5v0.4H16v1.1H15.5z M15.5,73v-1.3c0-0.2,0-0.4,0-0.6h0
			c-0.1,0.2-0.2,0.4-0.3,0.6l-1,1.3v0H15.5z"/>

</svg>