<?xml version="1.0" encoding="utf-8"?>
<!-- Generator: Adobe Illustrator 26.2.1, SVG Export Plug-In . SVG Version: 6.00 Build 0)  -->
<svg version="1.1" xmlns="http://www.w3.org/2000/svg" xmlns:xlink="http://www.w3.org/1999/xlink" x="0px" y="0px"
	 viewBox="0 0 100 100" style="enable-background:new 0 0 100 100;" xml:space="preserve" width = "100px" height = "100px">
<style type="text/css">
	.st0{display:none;}
	.st1{display:inline;}
</style> 


		<path d="M4.9,20.1h90.7V26H4.9V20.1z M78.1,6.4V12h-56V6.4H78.1z"/>


		<path d="M6.1,30.1c0.7,0,13.4-0.1,13.7,0"/>

			<path d="M6.1,30.8v-1.5l1.3,0c1.8,0,5.1,0,7.9,0l0,1.5c-2.8,0-6.1,0-7.9,0L6.1,30.8z"/>

				<path d="M19.7,30.1c-2.1,0.8-4.8,2.1-6.4,3.5l1.3-3.6l-1.3-3.6C15,27.9,17.6,29.3,19.7,30.1z"/>
		
		<path d="M6.4,36.9v-0.3l0.4-0.4c1-0.9,1.4-1.5,1.5-2c0-0.4-0.2-0.8-0.8-0.8c-0.4,0-0.6,0.2-0.8,0.3l-0.2-0.4
			C6.7,33.1,7.1,33,7.5,33c0.8,0,1.2,0.6,1.2,1.1c0,0.7-0.5,1.3-1.3,2.1l-0.3,0.3v0h1.8v0.4H6.4z"/>

</svg>