<?xml version="1.0" encoding="utf-8"?>
<!-- Generator: Adobe Illustrator 26.2.1, SVG Export Plug-In . SVG Version: 6.00 Build 0)  -->
<svg version="1.1" xmlns="http://www.w3.org/2000/svg" xmlns:xlink="http://www.w3.org/1999/xlink" x="0px" y="0px"
	 viewBox="0 0 100 100" style="enable-background:new 0 0 100 100;" xml:space="preserve" width = "100px" height = "100px">
<style type="text/css">
	.st0{display:none;}
	.st1{display:inline;}
</style>

		<path d="M4.9,20.1h90.7V26H4.9V20.1z M19.5,93.6V61.8h61.2v31.4h-6.8v-4.1H26.1v4.5H19.5z M79.4,34.1v5.7H20.6v-5.7H79.4z
			 M20.6,53.5v-5.7h58.8v5.7H20.6z M78.1,6.4V12h-56V6.4H78.1z M73.9,67.7H26.1v15.5h47.8V67.7z"/>

		<line x1="27.8" y1="78.8" x2="38.4" y2="78.8"/>

			<rect x="27.8" y="78.1" width="6.1" height="1.5"/>
	
				<path d="M38.4,78.8c-2.1,0.8-4.8,2.1-6.4,3.6l1.3-3.6L32,75.3C33.6,76.7,36.3,78,38.4,78.8z"/>

		<path d="M30.6,72.6V73l-1.7,3.5h-0.5l1.7-3.4v0h-1.9v-0.4H30.6z"/>



 </svg>