<?xml version="1.0" encoding="utf-8"?>
<!-- Generator: Adobe Illustrator 26.2.1, SVG Export Plug-In . SVG Version: 6.00 Build 0)  -->
<svg version="1.1" xmlns="http://www.w3.org/2000/svg" xmlns:xlink="http://www.w3.org/1999/xlink" x="0px" y="0px"
	 viewBox="0 0 100 100" style="enable-background:new 0 0 100 100;" xml:space="preserve">
<style type="text/css">
	.st0{fill:none;}
	.st1{display:none;}
	.st2{display:inline;fill:none;}
	.st3{display:inline;}
</style>
<g id="Stroke3">
	<rect x="17.2" y="27.6" class="st0" width="12.6" height="0"/>
	<g>
		<path d="M32.3,32.7C36.4,44.2,42.4,54.4,50.2,63c7.6-8.4,13.5-18.7,17.7-31l8.7,2.9c-0.3,0.7-1.1,1.1-2.4,1
			c-4.7,12.8-11,23.4-19.1,32.1C66,78.1,79.9,85.5,96.7,89.4C95,90.9,93,94,91.8,96c-17-4.4-30.9-12.1-41.9-22.8
			C38.8,83.4,24.8,90.7,7.8,95.9c-0.9-1.6-3-4.4-4.5-6C20.2,85.2,34.1,78.1,45,68.1c-8.2-9.3-14.6-20.5-19.3-33.3L32.3,32.7z
			 M40,7.7c-0.3,0.6-0.9,1-2.3,0.8C30.4,20,19.3,31.9,9.1,39.7c-1.2-1.5-3.7-3.9-5.3-5.2c9.9-6.9,21.1-18.7,27.7-30.2L40,7.7z
			 M66.5,4C77.1,12.8,90,25.3,96.1,33.8l-6.2,4.6C84.1,30,71.5,17,60.8,8L66.5,4z"/>
	</g>
	<g>
		<path d="M41.5,44.8c-0.5-0.9-1-1.9-1.5-2.9c-1.2-2.4-2.2-4.8-3.2-7.3l1.4-0.6c1,2.4,2,4.8,3.2,7.2c0.5,1,1,1.9,1.4,2.9L41.5,44.8z
			"/>
		<g>
			<path d="M44.4,48.4c-1.7-1.5-4.1-3.2-6.2-4l3.8-0.5l2.5-2.8C44,43.2,44.1,46.2,44.4,48.4z"/>
		</g>
	</g>
	<g>
		<path d="M44.3,37.9v-1.1h-1.8v-0.3l1.7-2.5h0.6v2.4h0.5v0.4h-0.5v1.1H44.3z M44.3,36.5v-1.3c0-0.2,0-0.4,0-0.6h0
			c-0.1,0.2-0.2,0.4-0.3,0.6l-1,1.3v0H44.3z"/>
	</g>
</g>
<g id="Stroke2" class="st1">
	<rect x="17.2" y="27.6" class="st2" width="12.6" height="0"/>
	<g class="st3">
		<path d="M50.2,63c7.6-8.4,13.5-18.7,17.7-31l8.7,2.9c-0.3,0.7-1.1,1.1-2.4,1c-4.7,12.8-11,23.4-19.1,32.1l-5.2,5.2
			C38.8,83.4,24.8,90.7,7.8,95.9c-0.9-1.6-3-4.4-4.5-6C20.2,85.2,34.1,78.1,45,68.1 M40,7.7c-0.3,0.6-0.9,1-2.3,0.8
			C30.4,20,19.3,31.9,9.1,39.7c-1.2-1.5-3.7-3.9-5.3-5.2c9.9-6.9,21.1-18.7,27.7-30.2L40,7.7z M66.5,4C77.1,12.8,90,25.3,96.1,33.8
			l-6.2,4.6C84.1,30,71.5,17,60.8,8L66.5,4z"/>
	</g>
	<g class="st3">
		<path d="M68.8,60.4l-1.3-0.8c0.7-1.2,1.4-2.5,2.1-3.8c2.6-5.1,4.6-10.6,5.9-16.2L77,40c-1.3,5.8-3.4,11.3-6,16.5
			C70.2,57.9,69.5,59.2,68.8,60.4z"/>
		<g>
			<path d="M65.5,64.1c0.5-2.4,0.8-5.5,0.4-7.8l2.5,3.2l3.9,0.9C70.2,61,67.5,62.6,65.5,64.1z"/>
		</g>
	</g>
	<g class="st3">
		<path d="M78.8,44.4c0.2,0.1,0.5,0.2,0.9,0.2c0.7,0,0.9-0.4,0.9-0.8c0-0.5-0.5-0.8-1-0.8h-0.3v-0.4h0.3c0.4,0,0.9-0.2,0.9-0.7
			c0-0.3-0.2-0.6-0.7-0.6c-0.3,0-0.6,0.1-0.8,0.3l-0.1-0.4c0.2-0.1,0.6-0.3,1-0.3c0.8,0,1.1,0.5,1.1,0.9c0,0.4-0.2,0.7-0.7,0.9v0
			c0.5,0.1,0.9,0.5,0.9,1c0,0.6-0.5,1.2-1.4,1.2c-0.4,0-0.8-0.1-1-0.3L78.8,44.4z"/>
	</g>
</g>
<g id="Stroke1" class="st1">
	<rect x="17.2" y="27.6" class="st2" width="12.6" height="0"/>
	<g class="st3">
		<path d="M40,7.7c-0.3,0.6-0.9,1-2.3,0.8C30.4,20,19.3,31.9,9.1,39.7c-1.2-1.5-3.7-3.9-5.3-5.2c9.9-6.9,21.1-18.7,27.7-30.2L40,7.7
			z M66.5,4C77.1,12.8,90,25.3,96.1,33.8l-6.2,4.6C84.1,30,71.5,17,60.8,8L66.5,4z"/>
	</g>
	<g class="st3">
		<path d="M84.1,14.8c-1.6-1.6-3.3-3.2-5.1-4.6c-2.4-1.9-4.9-3.6-7.6-5.1l0.7-1.3C74.9,5.2,77.5,7,80,8.9c1.8,1.5,3.6,3.1,5.2,4.8
			L84.1,14.8z"/>
		<g>
			<path d="M87.7,17.6c-2-1-4.8-2.1-6.9-2.4l3.5-1.4l1.8-3.4C86.1,12.6,86.8,15.5,87.7,17.6z"/>
		</g>
	</g>
	<g class="st3">
		<path d="M80,6.7V6.4L80.4,6c1-0.9,1.4-1.5,1.5-2c0-0.4-0.2-0.8-0.8-0.8c-0.4,0-0.6,0.2-0.8,0.3l-0.2-0.4c0.3-0.2,0.7-0.4,1.1-0.4
			c0.8,0,1.2,0.6,1.2,1.1c0,0.7-0.5,1.3-1.3,2.1l-0.3,0.3v0h1.8v0.4H80z"/>
	</g>
</g>
<g id="Stroke0" class="st1">
	<rect x="17.2" y="27.6" class="st2" width="12.6" height="0"/>
	<g class="st3">
		<path d="M40,7.7c-0.3,0.6-0.9,1-2.3,0.8C30.4,20,19.3,31.9,9.1,39.7c-1.2-1.5-3.7-3.9-5.3-5.2c9.9-6.9,21.1-18.7,27.7-30.2L40,7.7
			z"/>
	</g>
	<g class="st3">
		<path d="M31.6,26.5l-1.1-1c0.6-0.6,1.1-1.2,1.7-1.8c3.1-3.6,5.6-7.6,7.4-12l1.4,0.6c-1.9,4.6-4.4,8.8-7.6,12.4
			C32.7,25.3,32.2,25.9,31.6,26.5z"/>
		<g>
			<path d="M27.7,29.1c1-2,2-4.8,2.2-7l1.5,3.5l3.4,1.7C32.6,27.3,29.8,28.2,27.7,29.1z"/>
		</g>
	</g>
	<g class="st3">
		<path d="M43.4,14L43.4,14l-0.7,0.4L42.6,14l0.9-0.5h0.4v3.9h-0.5V14z"/>
	</g>
</g>
<g id="Kanji" class="st1">
	<rect x="17.2" y="27.6" class="st2" width="12.6" height="0"/>
	<g class="st3">
		<path d="M32.3,32.7C36.4,44.2,42.4,54.4,50.2,63c7.6-8.4,13.5-18.7,17.7-31l8.7,2.9c-0.3,0.7-1.1,1.1-2.4,1
			c-4.7,12.8-11,23.4-19.1,32.1C66,78.1,79.9,85.5,96.7,89.4C95,90.9,93,94,91.8,96c-17-4.4-30.9-12.1-41.9-22.8
			C38.8,83.4,24.8,90.7,7.8,95.9c-0.9-1.6-3-4.4-4.5-6C20.2,85.2,34.1,78.1,45,68.1c-8.2-9.3-14.6-20.5-19.3-33.3L32.3,32.7z
			 M40,7.7c-0.3,0.6-0.9,1-2.3,0.8C30.4,20,19.3,31.9,9.1,39.7c-1.2-1.5-3.7-3.9-5.3-5.2c9.9-6.9,21.1-18.7,27.7-30.2L40,7.7z
			 M66.5,4C77.1,12.8,90,25.3,96.1,33.8l-6.2,4.6C84.1,30,71.5,17,60.8,8L66.5,4z"/>
	</g>
</g>
</svg>
