<?xml version="1.0" encoding="utf-8"?>
<!-- Generator: Adobe Illustrator 26.2.1, SVG Export Plug-In . SVG Version: 6.00 Build 0)  -->
<svg version="1.1" xmlns="http://www.w3.org/2000/svg" xmlns:xlink="http://www.w3.org/1999/xlink" x="0px" y="0px"
	 viewBox="0 0 100 100" style="enable-background:new 0 0 100 100;" xml:space="preserve" width = "100px" height = "100px">
<style type="text/css">
	.st0{display:none;}
	.st1{display:inline;}
</style> 

	<rect x="17.2" y="27.6" class="st0" width="12.6" height="0"/>

		<path d="M32.3,32.7C36.4,44.2,42.4,54.4,50.2,63c7.6-8.4,13.5-18.7,17.7-31l8.7,2.9c-0.3,0.7-1.1,1.1-2.4,1
			c-4.7,12.8-11,23.4-19.1,32.1C66,78.1,79.9,85.5,96.7,89.4C95,90.9,93,94,91.8,96c-17-4.4-30.9-12.1-41.9-22.8
			C38.8,83.4,24.8,90.7,7.8,95.9c-0.9-1.6-3-4.4-4.5-6C20.2,85.2,34.1,78.1,45,68.1c-8.2-9.3-14.6-20.5-19.3-33.3L32.3,32.7z
			 M40,7.7c-0.3,0.6-0.9,1-2.3,0.8C30.4,20,19.3,31.9,9.1,39.7c-1.2-1.5-3.7-3.9-5.3-5.2c9.9-6.9,21.1-18.7,27.7-30.2L40,7.7z
			 M66.5,4C77.1,12.8,90,25.3,96.1,33.8l-6.2,4.6C84.1,30,71.5,17,60.8,8L66.5,4z"/>

		<path d="M41.5,44.8c-0.5-0.9-1-1.9-1.5-2.9c-1.2-2.4-2.2-4.8-3.2-7.3l1.4-0.6c1,2.4,2,4.8,3.2,7.2c0.5,1,1,1.9,1.4,2.9L41.5,44.8z
			"/>
	
			<path d="M44.4,48.4c-1.7-1.5-4.1-3.2-6.2-4l3.8-0.5l2.5-2.8C44,43.2,44.1,46.2,44.4,48.4z"/>

		<path d="M44.3,37.9v-1.1h-1.8v-0.3l1.7-2.5h0.6v2.4h0.5v0.4h-0.5v1.1H44.3z M44.3,36.5v-1.3c0-0.2,0-0.4,0-0.6h0
			c-0.1,0.2-0.2,0.4-0.3,0.6l-1,1.3v0H44.3z"/>


</svg>