<?xml version="1.0" encoding="utf-8"?>
<!-- Generator: Adobe Illustrator 26.2.1, SVG Export Plug-In . SVG Version: 6.00 Build 0)  -->
<svg version="1.1" xmlns="http://www.w3.org/2000/svg" xmlns:xlink="http://www.w3.org/1999/xlink" x="0px" y="0px"
	 viewBox="0 0 100 100" style="enable-background:new 0 0 100 100;" xml:space="preserve" width = "100px" height = "100px">
<style type="text/css">
	.st0{display:none;}
	.st1{display:inline;}
</style>


	<rect x="17.2" y="27.6" class="st2" width="12.6" height="0"/>

		<path d="M40,7.7c-0.3,0.6-0.9,1-2.3,0.8C30.4,20,19.3,31.9,9.1,39.7c-1.2-1.5-3.7-3.9-5.3-5.2c9.9-6.9,21.1-18.7,27.7-30.2L40,7.7
			z M66.5,4C77.1,12.8,90,25.3,96.1,33.8l-6.2,4.6C84.1,30,71.5,17,60.8,8L66.5,4z"/>

		<path d="M84.1,14.8c-1.6-1.6-3.3-3.2-5.1-4.6c-2.4-1.9-4.9-3.6-7.6-5.1l0.7-1.3C74.9,5.2,77.5,7,80,8.9c1.8,1.5,3.6,3.1,5.2,4.8
			L84.1,14.8z"/>
	
			<path d="M87.7,17.6c-2-1-4.8-2.1-6.9-2.4l3.5-1.4l1.8-3.4C86.1,12.6,86.8,15.5,87.7,17.6z"/>
	

		<path d="M80,6.7V6.4L80.4,6c1-0.9,1.4-1.5,1.5-2c0-0.4-0.2-0.8-0.8-0.8c-0.4,0-0.6,0.2-0.8,0.3l-0.2-0.4c0.3-0.2,0.7-0.4,1.1-0.4
			c0.8,0,1.2,0.6,1.2,1.1c0,0.7-0.5,1.3-1.3,2.1l-0.3,0.3v0h1.8v0.4H80z"/>



 </svg>