<?xml version="1.0" encoding="utf-8"?>
<!-- Generator: Adobe Illustrator 26.2.1, SVG Export Plug-In . SVG Version: 6.00 Build 0)  -->
<svg version="1.1" xmlns="http://www.w3.org/2000/svg" xmlns:xlink="http://www.w3.org/1999/xlink" x="0px" y="0px"
	 viewBox="0 0 100 100" style="enable-background:new 0 0 100 100;" xml:space="preserve" width = "100px" height = "100px">
<style type="text/css">
	.st0{display:none;}
	.st1{display:inline;}
</style> 


	<rect x="17.2" y="27.6" class="st2" width="12.6" height="0"/>

		<path d="M40,7.7c-0.3,0.6-0.9,1-2.3,0.8C30.4,20,19.3,31.9,9.1,39.7c-1.2-1.5-3.7-3.9-5.3-5.2c9.9-6.9,21.1-18.7,27.7-30.2L40,7.7
			z"/>


		<path d="M31.6,26.5l-1.1-1c0.6-0.6,1.1-1.2,1.7-1.8c3.1-3.6,5.6-7.6,7.4-12l1.4,0.6c-1.9,4.6-4.4,8.8-7.6,12.4
			C32.7,25.3,32.2,25.9,31.6,26.5z"/>

			<path d="M27.7,29.1c1-2,2-4.8,2.2-7l1.5,3.5l3.4,1.7C32.6,27.3,29.8,28.2,27.7,29.1z"/>

		<path d="M43.4,14L43.4,14l-0.7,0.4L42.6,14l0.9-0.5h0.4v3.9h-0.5V14z"/>


</svg>