<?xml version="1.0" encoding="utf-8"?>
<!-- Generator: Adobe Illustrator 26.2.1, SVG Export Plug-In . SVG Version: 6.00 Build 0)  -->
<svg version="1.1" xmlns="http://www.w3.org/2000/svg" xmlns:xlink="http://www.w3.org/1999/xlink" x="0px" y="0px"
	 viewBox="0 0 100 100" style="enable-background:new 0 0 100 100;" xml:space="preserve" width = "100px" height = "100px">
<style type="text/css">
	.st0{display:none;}
	.st1{display:inline;}
</style> 


	<rect x="17.2" y="27.6" class="st2" width="12.6" height="0"/>

		<path d="M50.2,63c7.6-8.4,13.5-18.7,17.7-31l8.7,2.9c-0.3,0.7-1.1,1.1-2.4,1c-4.7,12.8-11,23.4-19.1,32.1l-5.2,5.2
			C38.8,83.4,24.8,90.7,7.8,95.9c-0.9-1.6-3-4.4-4.5-6C20.2,85.2,34.1,78.1,45,68.1 M40,7.7c-0.3,0.6-0.9,1-2.3,0.8
			C30.4,20,19.3,31.9,9.1,39.7c-1.2-1.5-3.7-3.9-5.3-5.2c9.9-6.9,21.1-18.7,27.7-30.2L40,7.7z M66.5,4C77.1,12.8,90,25.3,96.1,33.8
			l-6.2,4.6C84.1,30,71.5,17,60.8,8L66.5,4z"/>

		<path d="M68.8,60.4l-1.3-0.8c0.7-1.2,1.4-2.5,2.1-3.8c2.6-5.1,4.6-10.6,5.9-16.2L77,40c-1.3,5.8-3.4,11.3-6,16.5
			C70.2,57.9,69.5,59.2,68.8,60.4z"/>

		<path d="M65.5,64.1c0.5-2.4,0.8-5.5,0.4-7.8l2.5,3.2l3.9,0.9C70.2,61,67.5,62.6,65.5,64.1z"/>

		<path d="M78.8,44.4c0.2,0.1,0.5,0.2,0.9,0.2c0.7,0,0.9-0.4,0.9-0.8c0-0.5-0.5-0.8-1-0.8h-0.3v-0.4h0.3c0.4,0,0.9-0.2,0.9-0.7
			c0-0.3-0.2-0.6-0.7-0.6c-0.3,0-0.6,0.1-0.8,0.3l-0.1-0.4c0.2-0.1,0.6-0.3,1-0.3c0.8,0,1.1,0.5,1.1,0.9c0,0.4-0.2,0.7-0.7,0.9v0
			c0.5,0.1,0.9,0.5,0.9,1c0,0.6-0.5,1.2-1.4,1.2c-0.4,0-0.8-0.1-1-0.3L78.8,44.4z"/>

</svg>