<?xml version="1.0" encoding="utf-8"?>
<!-- Generator: Adobe Illustrator 26.2.1, SVG Export Plug-In . SVG Version: 6.00 Build 0)  -->
<svg version="1.1" id="Layer_1" xmlns="http://www.w3.org/2000/svg" xmlns:xlink="http://www.w3.org/1999/xlink" x="0px" y="0px"
	 viewBox="0 0 100 100" style="enable-background:new 0 0 100 100;" xml:space="preserve">
<g>
	<path d="M3.7,47h92.6V53H3.7V47z"/>
</g>
<path d="M53,47.8"/>
<g>
	<line x1="11.2" y1="58.6" x2="92" y2="58.6"/>
	<g>
		<path d="M87.5,59.4H11.2c-0.4,0-0.8-0.3-0.8-0.8s0.3-0.8,0.8-0.8h76.3c0.4,0,0.8,0.3,0.8,0.8S87.9,59.4,87.5,59.4z"/>
		<g>
			<path d="M92,58.6c-2.1,0.8-4.8,2.1-6.4,3.6l1.3-3.6L85.6,55C87.3,56.5,89.9,57.8,92,58.6z"/>
		</g>
	</g>
</g>
<g>
	<path d="M11.4,65.7v-4h0l-0.9,0.4l-0.1-0.4l1.1-0.5H12v4.5H11.4z"/>
</g>
</svg>
