<?xml version="1.0" encoding="utf-8"?>
<!-- Generator: Adobe Illustrator 26.2.1, SVG Export Plug-In . SVG Version: 6.00 Build 0)  -->
<svg version="1.1" xmlns="http://www.w3.org/2000/svg" xmlns:xlink="http://www.w3.org/1999/xlink" x="0px" y="0px"
	 viewBox="0 0 100 100" style="enable-background:new 0 0 100 100;" xml:space="preserve">
<style type="text/css">
	.st0{display:none;}
	.st1{display:inline;}
</style>
<g id="Stroke4">
	<g>
		<path d="M95.9,29.3h-53c-2.7,7-5.9,13.9-9.8,20.3h55.3v46.4h-7v-5.3H34.8v5.8h-6.7V57.1c-5.4,7.3-11.8,14-19.4,19.4
			c-1-1.6-3.2-4.1-4.6-5.4C18.8,61,28.7,45.8,35.3,29.3H7.4v-6.6h30.3c2.2-6.4,3.9-12.9,5.3-19.3l9,2c-0.3,0.8-1,1.2-2.3,1.2
			c-1.3,5.3-2.8,10.7-4.5,16.1h50.6V29.3z M81.4,56.3H34.8v28h46.5V56.3z"/>
	</g>
	<g>
		<line x1="36.6" y1="80" x2="54.4" y2="80"/>
		<g>
			<rect x="36.6" y="79.2" width="13.3" height="1.5"/>
			<g>
				<path d="M54.4,80c-2.1,0.8-4.8,2.1-6.4,3.6l1.3-3.6L48,76.4C49.6,77.8,52.2,79.2,54.4,80z"/>
			</g>
		</g>
	</g>
	<g>
		<path d="M39.6,73.3h-1.5l-0.1,1c0.1,0,0.2,0,0.3,0c0.3,0,0.6,0.1,0.8,0.2c0.3,0.2,0.6,0.5,0.6,1c0,0.8-0.6,1.3-1.5,1.3
			c-0.4,0-0.8-0.1-1-0.2l0.1-0.4c0.2,0.1,0.5,0.2,0.8,0.2c0.5,0,0.9-0.3,0.9-0.8c0-0.5-0.3-0.9-1.1-0.9c-0.2,0-0.4,0-0.5,0l0.3-1.9
			h1.9V73.3z"/>
	</g>
</g>
<g id="Stroke3" class="st0">
	<g class="st1">
		<path d="M81.4,56.3H34.8v40.3h-6.7V57.1c-5.4,7.3-11.8,14-19.4,19.4c-1-1.6-3.2-4.1-4.6-5.4C18.8,61,28.7,45.8,35.3,29.3H7.4v-6.6
			h30.3c2.2-6.4,3.9-12.9,5.3-19.3l9,2c-0.3,0.8-1,1.2-2.3,1.2c-1.3,5.3-2.8,10.7-4.5,16.1h50.6v6.6h-53c-2.7,7-5.9,13.9-9.8,20.3
			h55.3v46.4h-7"/>
	</g>
	<g class="st1">
		<line x1="36.8" y1="60.3" x2="59.4" y2="60.3"/>
		<g>
			<rect x="36.8" y="59.6" width="18" height="1.5"/>
			<g>
				<path d="M59.4,60.3c-2.1,0.8-4.8,2.1-6.4,3.6l1.3-3.6L53,56.8C54.6,58.2,57.2,59.5,59.4,60.3z"/>
			</g>
		</g>
	</g>
	<g class="st1">
		<path d="M38.7,67.1V66h-1.8v-0.3l1.7-2.5h0.6v2.4h0.5V66h-0.5v1.1H38.7z M38.7,65.6v-1.3c0-0.2,0-0.4,0-0.6h0
			c-0.1,0.2-0.2,0.4-0.3,0.6l-1,1.3v0H38.7z"/>
	</g>
</g>
<g id="Stroke2" class="st0">
	<g class="st1">
		<path d="M35.1,45.7l-0.3,10.5v28v6.5v5.8h-6.7V57.1c-5.4,7.3-11.8,14-19.4,19.4c-1-1.6-3.2-4.1-4.6-5.4
			C18.8,61,28.7,45.8,35.3,29.3H7.4v-6.6h30.3c2.2-6.4,3.9-12.9,5.3-19.3l9,2c-0.3,0.8-1,1.2-2.3,1.2c-1.3,5.3-2.8,10.7-4.5,16.1
			h50.6v6.6h-53C41.3,33.4,37.5,41,35.1,45.7"/>
	</g>
	<g class="st1">
		<line x1="38.9" y1="49" x2="38.9" y2="65.4"/>
		<g>
			<rect x="38.1" y="49" width="1.5" height="11.9"/>
			<g>
				<path d="M38.9,65.4c-0.8-2.1-2.1-4.8-3.6-6.4l3.6,1.3l3.6-1.3C41,60.7,39.7,63.3,38.9,65.4z"/>
			</g>
		</g>
	</g>
	<g class="st1">
		<path d="M42,52.2c0.1,0.1,0.5,0.2,0.9,0.2c0.7,0,0.9-0.4,0.9-0.8c0-0.5-0.5-0.8-1-0.8h-0.3v-0.4h0.3c0.4,0,0.9-0.2,0.9-0.7
			c0-0.3-0.2-0.6-0.7-0.6c-0.3,0-0.6,0.1-0.8,0.3L42,49.1c0.2-0.1,0.6-0.3,1-0.3c0.8,0,1.1,0.5,1.1,0.9c0,0.4-0.2,0.7-0.7,0.9v0
			c0.5,0.1,0.9,0.5,0.9,1c0,0.6-0.5,1.2-1.4,1.2c-0.4,0-0.8-0.1-1-0.3L42,52.2z"/>
	</g>
</g>
<g id="Stroke1" class="st0">
	<g class="st1">
		<path d="M28.1,57.1c-5.4,7.3-11.8,14-19.4,19.4c-1-1.6-3.2-4.1-4.6-5.4C18.8,61,28.7,45.8,35.3,29.3H7.4v-6.6h30.3
			c2.2-6.4,3.9-12.9,5.3-19.3l9,2c-0.3,0.8-1,1.2-2.3,1.2c-1.3,5.3-2.8,10.7-4.5,16.1h50.6v6.6h-53c-2.7,7-5.9,13.9-9.8,20.3"/>
	</g>
	<g class="st1">
		<path d="M52.3,16.1L51,15.5c1.5-3.1,2.9-6.3,4.1-9.5l1.4,0.5C55.2,9.8,53.9,13,52.3,16.1z"/>
		<g>
			<path d="M49.6,19.8c0.3-2.3,0.2-5.2-0.3-7.3l2.6,2.8l3.8,0.5C53.6,16.5,51.2,18.3,49.6,19.8z"/>
		</g>
	</g>
	<g class="st1">
		<path d="M57.7,11.5v-0.3l0.4-0.4c1-0.9,1.4-1.5,1.5-2c0-0.4-0.2-0.8-0.8-0.8c-0.4,0-0.6,0.2-0.8,0.3l-0.2-0.4
			c0.3-0.2,0.7-0.4,1.1-0.4c0.8,0,1.2,0.6,1.2,1.1c0,0.7-0.5,1.3-1.3,2.1l-0.3,0.3v0h1.8v0.4H57.7z"/>
	</g>
</g>
<g id="Stroke0" class="st0">
	<g class="st1">
		<path d="M35.3,29.3H7.4v-6.6h30.3h7.5h50.6v6.6h-53"/>
	</g>
	<g class="st1">
		<line x1="7.4" y1="33.5" x2="24.6" y2="33.5"/>
		<g>
			<rect x="7.4" y="32.7" width="12.7" height="1.5"/>
			<g>
				<path d="M24.6,33.5c-2.1,0.8-4.8,2.1-6.4,3.6l1.3-3.6l-1.3-3.6C19.9,31.3,22.5,32.7,24.6,33.5z"/>
			</g>
		</g>
	</g>
	<g class="st1">
		<path d="M8.9,37.2L8.9,37.2l-0.7,0.4l-0.1-0.4l0.9-0.5h0.5v3.9H8.9V37.2z"/>
	</g>
</g>
<g id="Kanji" class="st0">
	<g class="st1">
		<path d="M95.9,29.3h-53c-2.7,7-5.9,13.9-9.8,20.3h55.3v46.4h-7v-5.3H34.8v5.8h-6.7V57.1c-5.4,7.3-11.8,14-19.4,19.4
			c-1-1.6-3.2-4.1-4.6-5.4C18.8,61,28.7,45.8,35.3,29.3H7.4v-6.6h30.3c2.2-6.4,3.9-12.9,5.3-19.3l9,2c-0.3,0.8-1,1.2-2.3,1.2
			c-1.3,5.3-2.8,10.7-4.5,16.1h50.6V29.3z M81.4,56.3H34.8v28h46.5V56.3z"/>
	</g>
</g>
</svg>
