<?xml version="1.0" encoding="utf-8"?>
<!-- Generator: Adobe Illustrator 26.2.1, SVG Export Plug-In . SVG Version: 6.00 Build 0)  -->
<svg version="1.1" xmlns="http://www.w3.org/2000/svg" xmlns:xlink="http://www.w3.org/1999/xlink" x="0px" y="0px"
	 viewBox="0 0 100 100" style="enable-background:new 0 0 100 100;" xml:space="preserve" width = "100px" height = "100px">
<style type="text/css">
	.st0{display:none;}
	.st1{display:inline;}
</style> 

		<path d="M35.1,45.7l-0.3,10.5v28v6.5v5.8h-6.7V57.1c-5.4,7.3-11.8,14-19.4,19.4c-1-1.6-3.2-4.1-4.6-5.4
			C18.8,61,28.7,45.8,35.3,29.3H7.4v-6.6h30.3c2.2-6.4,3.9-12.9,5.3-19.3l9,2c-0.3,0.8-1,1.2-2.3,1.2c-1.3,5.3-2.8,10.7-4.5,16.1
			h50.6v6.6h-53C41.3,33.4,37.5,41,35.1,45.7"/>


		<line x1="38.9" y1="49" x2="38.9" y2="65.4"/>

		<rect x="38.1" y="49" width="1.5" height="11.9"/>

		<path d="M38.9,65.4c-0.8-2.1-2.1-4.8-3.6-6.4l3.6,1.3l3.6-1.3C41,60.7,39.7,63.3,38.9,65.4z"/>

		<path d="M42,52.2c0.1,0.1,0.5,0.2,0.9,0.2c0.7,0,0.9-0.4,0.9-0.8c0-0.5-0.5-0.8-1-0.8h-0.3v-0.4h0.3c0.4,0,0.9-0.2,0.9-0.7
			c0-0.3-0.2-0.6-0.7-0.6c-0.3,0-0.6,0.1-0.8,0.3L42,49.1c0.2-0.1,0.6-0.3,1-0.3c0.8,0,1.1,0.5,1.1,0.9c0,0.4-0.2,0.7-0.7,0.9v0
			c0.5,0.1,0.9,0.5,0.9,1c0,0.6-0.5,1.2-1.4,1.2c-0.4,0-0.8-0.1-1-0.3L42,52.2z"/>



</svg>