<?xml version="1.0" encoding="utf-8"?>
<!-- Generator: Adobe Illustrator 26.2.1, SVG Export Plug-In . SVG Version: 6.00 Build 0)  -->
<svg version="1.1" xmlns="http://www.w3.org/2000/svg" xmlns:xlink="http://www.w3.org/1999/xlink" x="0px" y="0px"
	 viewBox="0 0 100 100" style="enable-background:new 0 0 100 100;" xml:space="preserve" width = "100px" height = "100px">
<style type="text/css">
	.st0{display:none;}
	.st1{display:inline;}
</style> 


	<rect x="17.2" y="27.6" class="st2" width="12.6" height="0"/>

		<path d="M49.6,74.5c-8.2-3.8-16.7-7.3-24.7-10.2l-2.4,5.1l-6.7-2.5c4.2-8.4,9.4-20.2,14.5-32.4l2.7-6.7c3.5-8.6,6.9-17.1,9.6-24.5
			L51.6,5c-0.2,0.7-0.9,1.1-2.3,1.1c-2.5,6.5-5.5,14-8.6,21.7l-2.8,6.7c-3.5,8.3-7,16.5-10.2,23.8c8.9,3.1,18.5,7,27.7,11.2l7,3.2
			c12.2,5.9,23.3,12.2,30.8,17.8l-5,6.2C80.8,90.9,69.5,84.2,57,78"/>

		<linearGradient id="SVGID_1_" gradientUnits="userSpaceOnUse" x1="47.7696" y1="14.7643" x2="54.0263" y2="14.7643">
			<stop  offset="0" style="stop-color:#FFFFFF"/>
			<stop  offset="1" style="stop-color:#000000"/>
		</linearGradient>
		<path class="st4" d="M54,7.4c-0.2,0.5-6.3,14.7-6.3,14.7"/>

			<path d="M50.2,18.3l-1.4-0.6c2.7-6.4,4.4-10.3,4.5-10.5l1.4,0.6C54.6,8,51.5,15.2,50.2,18.3z"/>

				<path d="M47.8,22.1c0.1-2.3-0.1-5.2-0.8-7.3l2.8,2.6l3.8,0.2C51.6,18.6,49.3,20.5,47.8,22.1z"/>

		<path d="M55.9,10L55.9,10l-0.7,0.4l-0.1-0.4L56,9.5h0.4v3.9h-0.5V10z"/>

</svg>