<?xml version="1.0" encoding="utf-8"?>
<!-- Generator: Adobe Illustrator 26.2.1, SVG Export Plug-In . SVG Version: 6.00 Build 0)  -->
<svg version="1.1" xmlns="http://www.w3.org/2000/svg" xmlns:xlink="http://www.w3.org/1999/xlink" x="0px" y="0px"
	 viewBox="0 0 100 100" style="enable-background:new 0 0 100 100;" xml:space="preserve" width = "100px" height = "100px">
<style type="text/css">
	.st0{display:none;}
	.st1{display:inline;}
</style> 

	<rect x="17.2" y="27.6" class="st0" width="12.6" height="0"/>

		<path d="M95.7,34.5H79.6C76.2,50.6,71,63.1,62.4,72.7c12.2,5.9,23.3,12.2,30.8,17.8l-5,6.2C80.8,90.9,69.5,84.2,57,78
			C46.1,87.3,30.6,93.1,8.6,96.4c-0.6-2-2.2-4.7-3.5-6.4c20-2.7,34.3-7.6,44.5-15.5c-8.2-3.8-16.7-7.3-24.7-10.2l-2.4,5.1l-6.7-2.5
			c4.2-8.4,9.4-20.2,14.5-32.4h-26v-6.7H33c3.5-8.6,6.9-17.1,9.6-24.5L51.6,5c-0.2,0.7-0.9,1.1-2.3,1.1c-2.5,6.5-5.5,14-8.6,21.7h55
			V34.5z M37.8,34.5c-3.5,8.3-7,16.5-10.2,23.8c8.9,3.1,18.5,7,27.7,11.2c8.4-8.7,13.4-20.1,16.7-35H37.8z"/>

		<line x1="5" y1="39" x2="21.9" y2="39"/>

			<rect x="5" y="38.2" width="12.4" height="1.5"/>

				<path d="M21.9,39c-2.1,0.8-4.8,2.1-6.4,3.6l1.3-3.6l-1.3-3.6C17.2,36.8,19.8,38.2,21.9,39z"/>

		<path d="M5.4,45.2c0.1,0.1,0.5,0.2,0.9,0.2c0.7,0,0.9-0.4,0.9-0.8c0-0.5-0.5-0.8-1-0.8H5.8v-0.4h0.3c0.4,0,0.9-0.2,0.9-0.7
			c0-0.3-0.2-0.6-0.7-0.6c-0.3,0-0.6,0.1-0.8,0.3l-0.1-0.4c0.2-0.1,0.6-0.3,1-0.3c0.8,0,1.1,0.5,1.1,0.9c0,0.4-0.2,0.7-0.7,0.9v0
			c0.5,0.1,0.9,0.5,0.9,1c0,0.6-0.5,1.2-1.4,1.2c-0.4,0-0.8-0.1-1-0.3L5.4,45.2z"/>

</svg>