<?xml version="1.0" encoding="utf-8"?>
<!-- Generator: Adobe Illustrator 26.2.1, SVG Export Plug-In . SVG Version: 6.00 Build 0)  -->
<svg version="1.1" xmlns="http://www.w3.org/2000/svg" xmlns:xlink="http://www.w3.org/1999/xlink" x="0px" y="0px"
	 viewBox="0 0 100 100" style="enable-background:new 0 0 100 100;" xml:space="preserve" width = "100px" height = "100px">
<style type="text/css">
	.st0{display:none;}
	.st1{display:inline;}
</style> 

	<rect x="17.2" y="27.6" class="st2" width="12.6" height="0"/>

		<path d="M79.6,34.5C76.2,50.6,71,63.1,62.4,72.7c12.2,5.9,23.3,12.2,30.8,17.8l-5,6.2C80.8,90.9,69.5,84.2,57,78
			C46.1,87.3,30.6,93.1,8.6,96.4c-0.6-2-2.2-4.7-3.5-6.4c20-2.7,34.3-7.6,44.5-15.5c-8.2-3.8-16.7-7.3-24.7-10.2l-2.4,5.1l-6.7-2.5
			c4.2-8.4,9.4-20.2,14.5-32.4l2.7-6.7c3.5-8.6,6.9-17.1,9.6-24.5L51.6,5c-0.2,0.7-0.9,1.1-2.3,1.1c-2.5,6.5-5.5,14-8.6,21.7
			l-2.8,6.7 M37.8,34.5c-3.5,8.3-7,16.5-10.2,23.8c8.9,3.1,18.5,7,27.7,11.2c8.4-8.7,13.4-20.1,16.7-35H37.8z"/>


		<path d="M77,60.7l-1.4-0.5c0.2-0.5,0.4-1,0.6-1.5c2.6-7.3,4.6-15,5.9-22.7l1.5,0.2c-1.3,7.9-3.3,15.6-6,23
			C77.4,59.7,77.2,60.2,77,60.7z"/>

			<path d="M74.7,64.7c0-2.3-0.3-5.2-1-7.3l2.9,2.5l3.8,0.1C78.4,61,76.2,63,74.7,64.7z"/>

		<path d="M85.4,41.3V41l0.4-0.4c1-0.9,1.4-1.5,1.5-2c0-0.4-0.2-0.8-0.8-0.8c-0.4,0-0.6,0.2-0.8,0.3l-0.2-0.4
			c0.3-0.2,0.7-0.4,1.1-0.4c0.8,0,1.2,0.6,1.2,1.1c0,0.7-0.5,1.3-1.3,2.1l-0.3,0.3v0h1.8v0.4H85.4z"/>


</svg>