<?xml version="1.0" encoding="utf-8"?>
<!-- Generator: Adobe Illustrator 26.2.1, SVG Export Plug-In . SVG Version: 6.00 Build 0)  -->
<svg version="1.1" xmlns="http://www.w3.org/2000/svg" xmlns:xlink="http://www.w3.org/1999/xlink" x="0px" y="0px"
	 viewBox="0 0 100 100" style="enable-background:new 0 0 100 100;" xml:space="preserve">
<style type="text/css">
	.st0{display:none;}
	.st1{display:inline;}
</style>
<g id="Stroke7">
	<g>
		<path d="M86.1,65.7H59c9.3,9.8,24.3,19,37.5,23.4c-1.6,1.4-3.6,4-4.7,5.8C78.3,89.6,63,79.3,53.1,68v28.4h-6.9v-28
			c-9.8,11-24.8,21-37.9,26.3c-1.1-1.7-3.1-4.3-4.7-5.6C16.4,84.5,31,75.5,40.3,65.7H14.8V28.8h31.3v-9.1H5.9v-6.4h40.2V3.6l8.9,0.5
			c-0.1,0.7-0.6,1.2-2,1.4v7.8h41.3v6.4H53.1v9.1h33V65.7z M21.4,34.3v10.3h24.7V34.3H21.4z M21.4,49.8v10.5h24.7V49.8H21.4z
			 M79.3,34.3H53.1v10.3h26.2V34.3z M79.3,60.3V49.8H53.1v10.5H79.3z"/>
	</g>
	<g>
		<path d="M63.4,83.6l-0.3-0.2c-2.2-1.8-4.2-3.9-5.8-6.2l1.2-0.9c1.6,2.2,3.4,4.2,5.5,5.9l0.3,0.2L63.4,83.6z"/>
		<g>
			<path d="M67.6,85.6c-2.2-0.6-5.1-1-7.3-0.7l3.1-2.2l1-3.7C64.9,81.1,66.3,83.7,67.6,85.6z"/>
		</g>
	</g>
	<g>
		<path d="M54,75.3c0-0.5,0.3-0.8,0.8-1l0,0c-0.4-0.2-0.6-0.5-0.6-0.9c0-0.6,0.5-1,1.2-1c0.8,0,1.1,0.5,1.1,1c0,0.3-0.2,0.7-0.6,0.9
			v0c0.5,0.2,0.8,0.5,0.8,1c0,0.7-0.6,1.1-1.3,1.1C54.5,76.3,54,75.8,54,75.3z M56.1,75.2c0-0.5-0.3-0.7-0.9-0.9
			c-0.5,0.1-0.7,0.4-0.7,0.8c0,0.4,0.3,0.7,0.8,0.7C55.8,75.9,56.1,75.6,56.1,75.2z M54.7,73.3c0,0.4,0.3,0.6,0.7,0.7
			c0.3-0.1,0.6-0.4,0.6-0.7c0-0.3-0.2-0.6-0.7-0.6C54.9,72.7,54.7,73,54.7,73.3z"/>
	</g>
</g>
<g id="Stroke6" class="st0">
	<g class="st1">
		<path d="M53.1,65.7v30.7h-6.9v-28c-9.8,11-24.8,21-37.9,26.3c-1.1-1.7-3.1-4.3-4.7-5.6C16.4,84.5,31,75.5,40.3,65.7H14.8V28.8
			h31.3v-9.1H5.9v-6.4h40.2V3.6l8.9,0.5c-0.1,0.7-0.6,1.2-2,1.4v7.8h41.3v6.4H53.1v9.1h33v36.9 M21.4,34.3v10.3h24.7V34.3H21.4z
			 M21.4,49.8v10.5h24.7V49.8H21.4z M79.3,34.3H53.1v10.3h26.2V34.3z M79.3,60.3V49.8H53.1v10.5H79.3z"/>
	</g>
	<g class="st1">
		<path d="M35.9,84L35,82.8c0.3-0.2,0.6-0.5,0.9-0.7c2.1-1.7,4.2-3.6,6.1-5.6l1.1,1c-1.9,2-4,4-6.2,5.7C36.5,83.5,36.2,83.8,35.9,84
			z"/>
		<g>
			<path d="M31.8,86c1.3-1.9,2.6-4.5,3.1-6.7l1.1,3.6l3.1,2.1C36.9,85,33.9,85.4,31.8,86z"/>
		</g>
	</g>
	<g class="st1">
		<path d="M44.6,79.9v0.3l-1.7,3.5h-0.5l1.7-3.4v0h-1.9v-0.4H44.6z"/>
	</g>
</g>
<g id="Stroke5" class="st0">
	<g class="st1">
		<path d="M53.1,65.7V68v28.4h-6.9v-28v-3.1 M40.3,65.7H14.8V28.8h31.3v-9.1H5.9v-6.4h40.2V3.6l8.9,0.5c-0.1,0.7-0.6,1.2-2,1.4v7.8
			h41.3v6.4H53.1v9.1h33v36.9H59 M21.4,34.3v10.3h24.7V34.3H21.4z M21.4,49.8v10.5h24.7V49.8H21.4z M79.3,34.3H53.1v10.3h26.2V34.3z
			 M79.3,60.3V49.8H53.1v10.5H79.3z"/>
	</g>
	<g class="st1">
		<path d="M57.6,4.2c0,1.6,0,8.7,0,8.7"/>
		<g>
			<rect x="56.8" y="4.2" width="1.5" height="4.1"/>
			<g>
				<path d="M57.6,12.9c-0.8-2.1-2.1-4.8-3.6-6.4l3.6,1.3l3.6-1.3C59.7,8.1,58.3,10.8,57.6,12.9z"/>
			</g>
		</g>
	</g>
	<g class="st1">
		<path d="M64.1,3.9c-0.1,0-0.2,0-0.4,0c-0.8,0.1-1.3,0.7-1.4,1.4h0c0.2-0.2,0.5-0.4,0.9-0.4c0.7,0,1.2,0.5,1.2,1.3
			c0,0.7-0.5,1.4-1.3,1.4c-0.8,0-1.4-0.6-1.4-1.7c0-0.8,0.3-1.4,0.7-1.8c0.3-0.3,0.8-0.5,1.2-0.6c0.2,0,0.3,0,0.4,0V3.9z M63.9,6.2
			c0-0.6-0.3-0.9-0.8-0.9c-0.3,0-0.6,0.2-0.8,0.5c0,0.1-0.1,0.1-0.1,0.2c0,0.6,0.3,1.1,0.9,1.1C63.6,7.1,63.9,6.7,63.9,6.2z"/>
	</g>
</g>
<g id="Stroke4" class="st0">
	<g class="st1">
		<path d="M46.2,68.4 M53.1,68 M53.1,13.3h41.3v6.4H5.9v-6.4h40.2 M40.3,65.7H14.8V28.8h31.3h6.9h33v36.9H59 M79.3,60.3V49.8H21.4
			v10.5 M79.3,44.6V34.3H21.4v10.3"/>
	</g>
	<g class="st1">
		<line x1="15.7" y1="70.1" x2="32.8" y2="70.1"/>
		<g>
			<rect x="15.7" y="69.4" width="12.6" height="1.5"/>
			<g>
				<path d="M32.8,70.1c-2.1,0.8-4.8,2.1-6.4,3.6l1.3-3.6l-1.3-3.6C28,68,30.7,69.3,32.8,70.1z"/>
			</g>
		</g>
	</g>
	<g class="st1">
		<path d="M15.6,72.1h-1.5l-0.1,1c0.1,0,0.2,0,0.3,0c0.3,0,0.6,0.1,0.8,0.2c0.3,0.2,0.6,0.5,0.6,1c0,0.8-0.6,1.3-1.5,1.3
			c-0.4,0-0.8-0.1-1-0.2l0.1-0.4c0.2,0.1,0.5,0.2,0.8,0.2c0.5,0,0.9-0.3,0.9-0.8c0-0.5-0.3-0.9-1.1-0.9c-0.2,0-0.4,0-0.5,0l0.3-1.9
			h1.9V72.1z"/>
	</g>
</g>
<g id="Stroke3" class="st0">
	<g class="st1">
		<path d="M5.9,19.7v-6.4h40.2h6.9h41.3v6.4 M40.3,65.7H14.8V28.8h31.3h6.9h33v36.9H59 M79.3,44.6V34.3H21.4v10.3 M79.3,65.7V49.8
			H21.4v15.9"/>
	</g>
	<g class="st1">
		<path d="M26.9,53.8c1.9-0.1,19.4,0,19.4,0"/>
		<g>
			<path d="M26.9,54.6l-0.1-1.5c1.3-0.1,9.9,0,15,0l0,1.5C36.8,54.5,28.2,54.5,26.9,54.6z"/>
			<g>
				<path d="M46.3,53.8c-2.1,0.8-4.8,2.1-6.4,3.6l1.3-3.6l-1.3-3.6C41.5,51.7,44.2,53,46.3,53.8z"/>
			</g>
		</g>
	</g>
	<g class="st1">
		<path d="M24.2,55.5v-1.1h-1.8v-0.3l1.7-2.5h0.6v2.4h0.5v0.4h-0.5v1.1H24.2z M24.2,54.1v-1.3c0-0.2,0-0.4,0-0.6h0
			c-0.1,0.2-0.2,0.4-0.3,0.6l-1,1.3v0H24.2z"/>
	</g>
</g>
<g id="Stroke2" class="st0">
	<g class="st1">
		<path d="M53.1,13.3h41.3v6.4H5.9v-6.4h40.2 M79.3,65.7l-0.1-5.4V49.8v-5.2V34.3H21.4v10.3v5.2v10.5v5.4h-6.6V28.8h31.3h6.9h33
			v36.9"/>
	</g>
	<g class="st1">
		<line x1="23.3" y1="38.1" x2="38.5" y2="38.1"/>
		<g>
			<rect x="23.3" y="37.4" width="10.7" height="1.5"/>
			<g>
				<path d="M38.5,38.1c-2.1,0.8-4.8,2.1-6.4,3.6l1.3-3.6l-1.3-3.6C33.7,36,36.4,37.3,38.5,38.1z"/>
			</g>
		</g>
	</g>
	<g class="st1">
		<path d="M23.7,43.7c0.1,0.1,0.5,0.2,0.9,0.2c0.7,0,0.9-0.4,0.9-0.8c0-0.5-0.5-0.8-1-0.8h-0.3V42h0.3c0.4,0,0.9-0.2,0.9-0.7
			c0-0.3-0.2-0.6-0.7-0.6c-0.3,0-0.6,0.1-0.8,0.3l-0.1-0.4c0.2-0.1,0.6-0.3,1-0.3c0.8,0,1.1,0.5,1.1,0.9c0,0.4-0.2,0.7-0.7,0.9v0
			c0.5,0.1,0.9,0.5,0.9,1c0,0.6-0.5,1.2-1.4,1.2c-0.4,0-0.8-0.1-1-0.3L23.7,43.7z"/>
	</g>
</g>
<g id="Stroke1" class="st0">
	<g class="st1">
		<path d="M53.1,13.3h41.3v6.4H46.2H5.9v-6.4h40.2 M21.4,28.8v5.5v10.3v5.2v10.5v5.4h-6.6V28.8"/>
	</g>
	<g class="st1">
		<line x1="26.1" y1="29.5" x2="26.1" y2="40.9"/>
		<g>
			<rect x="25.3" y="29.5" width="1.5" height="6.8"/>
			<g>
				<path d="M26.1,40.9c-0.8-2.1-2.1-4.8-3.6-6.4l3.6,1.3l3.6-1.3C28.2,36.1,26.9,38.8,26.1,40.9z"/>
			</g>
		</g>
	</g>
	<g class="st1">
		<path d="M29.3,31.7v-0.3l0.4-0.4c1-0.9,1.4-1.5,1.5-2c0-0.4-0.2-0.8-0.8-0.8c-0.4,0-0.6,0.2-0.8,0.3l-0.2-0.4
			c0.3-0.2,0.7-0.4,1.1-0.4c0.8,0,1.2,0.6,1.2,1.1c0,0.7-0.5,1.3-1.3,2.1l-0.3,0.3v0h1.8v0.4H29.3z"/>
	</g>
</g>
<g id="Stroke0" class="st0">
	<g class="st1">
		<path d="M46.2,19.7H5.9v-6.4h40.2h6.9h41.3v6.4H53.1"/>
	</g>
	<g class="st1">
		<line x1="6.9" y1="24" x2="21.6" y2="24"/>
		<g>
			<rect x="6.9" y="23.2" width="10.1" height="1.5"/>
			<g>
				<path d="M21.6,24c-2.1,0.8-4.8,2.1-6.4,3.6l1.3-3.6l-1.3-3.6C16.8,21.9,19.4,23.2,21.6,24z"/>
			</g>
		</g>
	</g>
	<g class="st1">
		<path d="M8.4,26.3L8.4,26.3l-0.7,0.4l-0.1-0.4l0.9-0.5h0.4v3.9H8.4V26.3z"/>
	</g>
</g>
<g id="Kanji" class="st0">
	<g class="st1">
		<path d="M86.1,65.7H59c9.3,9.8,24.3,19,37.5,23.4c-1.6,1.4-3.6,4-4.7,5.8C78.3,89.6,63,79.3,53.1,68v28.4h-6.9v-28
			c-9.8,11-24.8,21-37.9,26.3c-1.1-1.7-3.1-4.3-4.7-5.6C16.4,84.5,31,75.5,40.3,65.7H14.8V28.8h31.3v-9.1H5.9v-6.4h40.2V3.6l8.9,0.5
			c-0.1,0.7-0.6,1.2-2,1.4v7.8h41.3v6.4H53.1v9.1h33V65.7z M21.4,34.3v10.3h24.7V34.3H21.4z M21.4,49.8v10.5h24.7V49.8H21.4z
			 M79.3,34.3H53.1v10.3h26.2V34.3z M79.3,60.3V49.8H53.1v10.5H79.3z"/>
	</g>
</g>
</svg>
