<?xml version="1.0" encoding="utf-8"?>
<!-- Generator: Adobe Illustrator 26.2.1, SVG Export Plug-In . SVG Version: 6.00 Build 0)  -->
<svg version="1.1" xmlns="http://www.w3.org/2000/svg" xmlns:xlink="http://www.w3.org/1999/xlink" x="0px" y="0px"
	 viewBox="0 0 100 100" style="enable-background:new 0 0 100 100;" xml:space="preserve" width = "100px" height = "100px">
<style type="text/css">
	.st0{display:none;}
	.st1{display:inline;}
</style>


		<path d="M53.1,13.3h41.3v6.4H46.2H5.9v-6.4h40.2 M21.4,28.8v5.5v10.3v5.2v10.5v5.4h-6.6V28.8"/>

		<line x1="26.1" y1="29.5" x2="26.1" y2="40.9"/>

			<rect x="25.3" y="29.5" width="1.5" height="6.8"/>

				<path d="M26.1,40.9c-0.8-2.1-2.1-4.8-3.6-6.4l3.6,1.3l3.6-1.3C28.2,36.1,26.9,38.8,26.1,40.9z"/>
	
		<path d="M29.3,31.7v-0.3l0.4-0.4c1-0.9,1.4-1.5,1.5-2c0-0.4-0.2-0.8-0.8-0.8c-0.4,0-0.6,0.2-0.8,0.3l-0.2-0.4
			c0.3-0.2,0.7-0.4,1.1-0.4c0.8,0,1.2,0.6,1.2,1.1c0,0.7-0.5,1.3-1.3,2.1l-0.3,0.3v0h1.8v0.4H29.3z"/>

 </svg>