<?xml version="1.0" encoding="utf-8"?>
<!-- Generator: Adobe Illustrator 26.2.1, SVG Export Plug-In . SVG Version: 6.00 Build 0)  -->
<svg version="1.1" xmlns="http://www.w3.org/2000/svg" xmlns:xlink="http://www.w3.org/1999/xlink" x="0px" y="0px"
	 viewBox="0 0 100 100" style="enable-background:new 0 0 100 100;" xml:space="preserve" width = "100px" height = "100px">
<style type="text/css">
	.st0{display:none;}
	.st1{display:inline;}
</style>



		<path d="M86.1,65.7H59c9.3,9.8,24.3,19,37.5,23.4c-1.6,1.4-3.6,4-4.7,5.8C78.3,89.6,63,79.3,53.1,68v28.4h-6.9v-28
			c-9.8,11-24.8,21-37.9,26.3c-1.1-1.7-3.1-4.3-4.7-5.6C16.4,84.5,31,75.5,40.3,65.7H14.8V28.8h31.3v-9.1H5.9v-6.4h40.2V3.6l8.9,0.5
			c-0.1,0.7-0.6,1.2-2,1.4v7.8h41.3v6.4H53.1v9.1h33V65.7z M21.4,34.3v10.3h24.7V34.3H21.4z M21.4,49.8v10.5h24.7V49.8H21.4z
			 M79.3,34.3H53.1v10.3h26.2V34.3z M79.3,60.3V49.8H53.1v10.5H79.3z"/>

		<path d="M63.4,83.6l-0.3-0.2c-2.2-1.8-4.2-3.9-5.8-6.2l1.2-0.9c1.6,2.2,3.4,4.2,5.5,5.9l0.3,0.2L63.4,83.6z"/>
	
			<path d="M67.6,85.6c-2.2-0.6-5.1-1-7.3-0.7l3.1-2.2l1-3.7C64.9,81.1,66.3,83.7,67.6,85.6z"/>

		<path d="M54,75.3c0-0.5,0.3-0.8,0.8-1l0,0c-0.4-0.2-0.6-0.5-0.6-0.9c0-0.6,0.5-1,1.2-1c0.8,0,1.1,0.5,1.1,1c0,0.3-0.2,0.7-0.6,0.9
			v0c0.5,0.2,0.8,0.5,0.8,1c0,0.7-0.6,1.1-1.3,1.1C54.5,76.3,54,75.8,54,75.3z M56.1,75.2c0-0.5-0.3-0.7-0.9-0.9
			c-0.5,0.1-0.7,0.4-0.7,0.8c0,0.4,0.3,0.7,0.8,0.7C55.8,75.9,56.1,75.6,56.1,75.2z M54.7,73.3c0,0.4,0.3,0.6,0.7,0.7
			c0.3-0.1,0.6-0.4,0.6-0.7c0-0.3-0.2-0.6-0.7-0.6C54.9,72.7,54.7,73,54.7,73.3z"/>



 </svg>