<?xml version="1.0" encoding="utf-8"?>
<!-- Generator: Adobe Illustrator 26.2.1, SVG Export Plug-In . SVG Version: 6.00 Build 0)  -->
<svg version="1.1" xmlns="http://www.w3.org/2000/svg" xmlns:xlink="http://www.w3.org/1999/xlink" x="0px" y="0px"
	 viewBox="0 0 100 100" style="enable-background:new 0 0 100 100;" xml:space="preserve" width = "100px" height = "100px">
<style type="text/css">
	.st0{display:none;}
	.st1{display:inline;}
</style> 

		<path d="M5.9,19.7v-6.4h40.2h6.9h41.3v6.4 M40.3,65.7H14.8V28.8h31.3h6.9h33v36.9H59 M79.3,44.6V34.3H21.4v10.3 M79.3,65.7V49.8
			H21.4v15.9"/>


		<path d="M26.9,53.8c1.9-0.1,19.4,0,19.4,0"/>

			<path d="M26.9,54.6l-0.1-1.5c1.3-0.1,9.9,0,15,0l0,1.5C36.8,54.5,28.2,54.5,26.9,54.6z"/>
		
				<path d="M46.3,53.8c-2.1,0.8-4.8,2.1-6.4,3.6l1.3-3.6l-1.3-3.6C41.5,51.7,44.2,53,46.3,53.8z"/>

		<path d="M24.2,55.5v-1.1h-1.8v-0.3l1.7-2.5h0.6v2.4h0.5v0.4h-0.5v1.1H24.2z M24.2,54.1v-1.3c0-0.2,0-0.4,0-0.6h0
			c-0.1,0.2-0.2,0.4-0.3,0.6l-1,1.3v0H24.2z"/>



</svg>