<?xml version="1.0" encoding="utf-8"?>
<!-- Generator: Adobe Illustrator 26.2.1, SVG Export Plug-In . SVG Version: 6.00 Build 0)  -->
<svg version="1.1" xmlns="http://www.w3.org/2000/svg" xmlns:xlink="http://www.w3.org/1999/xlink" x="0px" y="0px"
	 viewBox="0 0 100 100" style="enable-background:new 0 0 100 100;" xml:space="preserve" width = "100px" height = "100px">
<style type="text/css">
	.st0{display:none;}
	.st1{display:inline;}
</style>

		<path d="M53.1,65.7V68v28.4h-6.9v-28v-3.1 M40.3,65.7H14.8V28.8h31.3v-9.1H5.9v-6.4h40.2V3.6l8.9,0.5c-0.1,0.7-0.6,1.2-2,1.4v7.8
			h41.3v6.4H53.1v9.1h33v36.9H59 M21.4,34.3v10.3h24.7V34.3H21.4z M21.4,49.8v10.5h24.7V49.8H21.4z M79.3,34.3H53.1v10.3h26.2V34.3z
			 M79.3,60.3V49.8H53.1v10.5H79.3z"/>


		<path d="M57.6,4.2c0,1.6,0,8.7,0,8.7"/>

			<rect x="56.8" y="4.2" width="1.5" height="4.1"/>

				<path d="M57.6,12.9c-0.8-2.1-2.1-4.8-3.6-6.4l3.6,1.3l3.6-1.3C59.7,8.1,58.3,10.8,57.6,12.9z"/>


		<path d="M64.1,3.9c-0.1,0-0.2,0-0.4,0c-0.8,0.1-1.3,0.7-1.4,1.4h0c0.2-0.2,0.5-0.4,0.9-0.4c0.7,0,1.2,0.5,1.2,1.3
			c0,0.7-0.5,1.4-1.3,1.4c-0.8,0-1.4-0.6-1.4-1.7c0-0.8,0.3-1.4,0.7-1.8c0.3-0.3,0.8-0.5,1.2-0.6c0.2,0,0.3,0,0.4,0V3.9z M63.9,6.2
			c0-0.6-0.3-0.9-0.8-0.9c-0.3,0-0.6,0.2-0.8,0.5c0,0.1-0.1,0.1-0.1,0.2c0,0.6,0.3,1.1,0.9,1.1C63.6,7.1,63.9,6.7,63.9,6.2z"/>




 </svg>