<?xml version="1.0" encoding="utf-8"?>
<!-- Generator: Adobe Illustrator 26.2.1, SVG Export Plug-In . SVG Version: 6.00 Build 0)  -->
<svg version="1.1" xmlns="http://www.w3.org/2000/svg" xmlns:xlink="http://www.w3.org/1999/xlink" x="0px" y="0px"
	 viewBox="0 0 100 100" style="enable-background:new 0 0 100 100;" xml:space="preserve" width = "100px" height = "100px">
<style type="text/css">
	.st0{display:none;}
	.st1{display:inline;}
</style> 

		<path d="M53.1,65.7v30.7h-6.9v-28c-9.8,11-24.8,21-37.9,26.3c-1.1-1.7-3.1-4.3-4.7-5.6C16.4,84.5,31,75.5,40.3,65.7H14.8V28.8
			h31.3v-9.1H5.9v-6.4h40.2V3.6l8.9,0.5c-0.1,0.7-0.6,1.2-2,1.4v7.8h41.3v6.4H53.1v9.1h33v36.9 M21.4,34.3v10.3h24.7V34.3H21.4z
			 M21.4,49.8v10.5h24.7V49.8H21.4z M79.3,34.3H53.1v10.3h26.2V34.3z M79.3,60.3V49.8H53.1v10.5H79.3z"/>


		<path d="M35.9,84L35,82.8c0.3-0.2,0.6-0.5,0.9-0.7c2.1-1.7,4.2-3.6,6.1-5.6l1.1,1c-1.9,2-4,4-6.2,5.7C36.5,83.5,36.2,83.8,35.9,84
			z"/>

			<path d="M31.8,86c1.3-1.9,2.6-4.5,3.1-6.7l1.1,3.6l3.1,2.1C36.9,85,33.9,85.4,31.8,86z"/>



		<path d="M44.6,79.9v0.3l-1.7,3.5h-0.5l1.7-3.4v0h-1.9v-0.4H44.6z"/>



</svg>