<?xml version="1.0" encoding="utf-8"?>
<!-- Generator: Adobe Illustrator 26.2.1, SVG Export Plug-In . SVG Version: 6.00 Build 0)  -->
<svg version="1.1" xmlns="http://www.w3.org/2000/svg" xmlns:xlink="http://www.w3.org/1999/xlink" x="0px" y="0px"
	 viewBox="0 0 100 100" style="enable-background:new 0 0 100 100;" xml:space="preserve" width = "100px" height = "100px">
<style type="text/css">
	.st0{display:none;}
	.st1{display:inline;}
</style> 

		<path d="M23.4,20.6c-1.9-3.9-5.6-9.2-8.9-13.1l5.6-2.7c4,4.4,8.3,10.3,10.1,14.3l-2.9,1.5"/>

		<line x1="12.9" y1="11" x2="17.7" y2="20.2"/>

		<rect x="13.5" y="10.7" transform="matrix(0.8849 -0.4657 0.4657 0.8849 -4.6982 8.1851)" width="1.5" height="5.8"/>
			
		<path d="M17.7,20.2c-1.7-1.5-4.1-3.2-6.1-4l3.8-0.5l2.6-2.8C17.3,15,17.4,17.9,17.7,20.2z"/>
		
		<path d="M9.3,10.6L9.3,10.6L8.6,11l-0.1-0.4l0.9-0.5h0.4V14H9.3V10.6z"/>


</svg>