<?xml version="1.0" encoding="utf-8"?>
<!-- Generator: Adobe Illustrator 26.2.1, SVG Export Plug-In . SVG Version: 6.00 Build 0)  -->
<svg version="1.1" xmlns="http://www.w3.org/2000/svg" xmlns:xlink="http://www.w3.org/1999/xlink" x="0px" y="0px"
	 viewBox="0 0 100 100" style="enable-background:new 0 0 100 100;" xml:space="preserve" width = "100px" height = "100px">
<style type="text/css">
	.st0{display:none;}
	.st1{display:inline;}
</style>


		<path d="M53.2,69v19.4c0,8.4-4.8,8.5-23.3,8.5c-0.5-1.9-1.8-4.7-2.9-6.6c5.1,0.2,9.6,0.3,12.8,0.3c5.8,0,6.5,0,6.5-2.2V69v-6.3
			v-8.7l4.7,0.3c5.1-2.6,10.4-6.1,14.5-9.5H22v-6h50.6l1.2-0.4l5.2,3.3c-0.3,0.5-0.9,0.8-1.5,0.9c-5.9,5.6-15.4,12.1-24.3,16.5v3.6
			 M14.2,26.7v16.1H7.8V20.6h15.6c-1.9-3.9-5.6-9.2-8.9-13.1l5.6-2.7c4,4.4,8.3,10.3,10.1,14.3l-2.9,1.5h21.2
			C47,16.1,43.7,9.9,40.6,5.3l5.8-2.2c3.6,5,7.2,11.7,8.5,16l-3.5,1.5h17.5C72.8,16,77.7,9,80.4,4.2c6.3,2.3,7.1,2.8,7.9,3.3
			c-0.3,0.6-1.1,0.9-2.1,0.8c-2.5,3.6-6.1,8.3-9.6,12.3h16.3v22.2h-6.6V26.7H14.2z"/>

		<line x1="42.5" y1="55.9" x2="42.5" y2="66.3"/>
	
			<rect x="41.8" y="55.9" width="1.5" height="5.9"/>
		
				<path d="M42.5,66.3c-0.8-2.1-2.1-4.8-3.6-6.4l3.6,1.3l3.6-1.3C44.7,61.5,43.3,64.2,42.5,66.3z"/>

		<path d="M41.1,51.9v0.3l-1.7,3.5h-0.5l1.7-3.4v0h-1.9v-0.4H41.1z"/>


 </svg>