<?xml version="1.0" encoding="utf-8"?>
<!-- Generator: Adobe Illustrator 26.2.1, SVG Export Plug-In . SVG Version: 6.00 Build 0)  -->
<svg version="1.1" xmlns="http://www.w3.org/2000/svg" xmlns:xlink="http://www.w3.org/1999/xlink" x="0px" y="0px"
	 viewBox="0 0 100 100" style="enable-background:new 0 0 100 100;" xml:space="preserve" width = "100px" height = "100px">
<style type="text/css">
	.st0{display:none;}
	.st1{display:inline;}
</style> 


		<path d="M48.5,20.6C47,16.1,43.7,9.9,40.6,5.3l5.8-2.2c3.6,5,7.2,11.7,8.5,16l-3.5,1.5h17.5C72.8,16,77.7,9,80.4,4.2
			c6.3,2.3,7.1,2.8,7.9,3.3c-0.3,0.6-1.1,0.9-2.1,0.8c-2.5,3.6-6.1,8.3-9.6,12.3 M13.9,20.6H7.8v22.2h6.4V26.7L13.9,20.6z M24,20.6
			H27l3.2-1.5c-1.8-4-6.1-9.9-10.1-14.3l-5.6,2.7"/>

		<path d="M18.7,22.9c0,0.5,0,10.8,0,10.8"/>

			<rect x="17.9" y="22.9" width="1.5" height="6.3"/>
		
				<path d="M18.7,33.7c-0.8-2.1-2.1-4.8-3.6-6.4l3.6,1.3l3.6-1.3C20.8,28.9,19.5,31.5,18.7,33.7z"/>

		<path d="M22.7,25.9v-1.1h-1.8v-0.3l1.7-2.5h0.6v2.4h0.5v0.4h-0.5v1.1H22.7z M22.7,24.4v-1.3c0-0.2,0-0.4,0-0.6h0
			c-0.1,0.2-0.2,0.4-0.3,0.6l-1,1.3v0H22.7z"/>

</svg>