<?xml version="1.0" encoding="utf-8"?>
<!-- Generator: Adobe Illustrator 26.2.1, SVG Export Plug-In . SVG Version: 6.00 Build 0)  -->
<svg version="1.1" xmlns="http://www.w3.org/2000/svg" xmlns:xlink="http://www.w3.org/1999/xlink" x="0px" y="0px"
	 viewBox="0 0 100 100" style="enable-background:new 0 0 100 100;" xml:space="preserve" width = "100px" height = "100px">
<style type="text/css">
	.st0{display:none;}
	.st1{display:inline;}
</style>

		<path d="M94.7,62.7V69H53.2v19.4c0,8.4-4.8,8.5-23.3,8.5c-0.5-1.9-1.8-4.7-2.9-6.6c5.1,0.2,9.6,0.3,12.8,0.3c5.8,0,6.5,0,6.5-2.2
			V69h-41v-6.3h41v-8.7l4.7,0.3c5.1-2.6,10.4-6.1,14.5-9.5H22v-6h50.6l1.2-0.4l5.2,3.3c-0.3,0.5-0.9,0.8-1.5,0.9
			c-5.9,5.6-15.4,12.1-24.3,16.5v3.6H94.7z M14.2,26.7v16.1H7.8V20.6h15.6c-1.9-3.9-5.6-9.2-8.9-13.1l5.6-2.7
			c4,4.4,8.3,10.3,10.1,14.3l-2.9,1.5h21.2C47,16.1,43.7,9.9,40.6,5.3l5.8-2.2c3.6,5,7.2,11.7,8.5,16l-3.5,1.5h17.5
			C72.8,16,77.7,9,80.4,4.2c6.3,2.3,7.1,2.8,7.9,3.3c-0.3,0.6-1.1,0.9-2.1,0.8c-2.5,3.6-6.1,8.3-9.6,12.3h16.3v22.2h-6.6V26.7H14.2z
			"/>

		<path d="M5.3,73.4c0.6,0,17.2,0,17.2,0"/>
	
		<rect x="5.3" y="72.7" width="12.7" height="1.5"/>

		<path d="M22.5,73.4c-2.1,0.8-4.8,2.1-6.4,3.6l1.3-3.6l-1.3-3.6C17.7,71.3,20.4,72.6,22.5,73.4z"/>

		<path d="M5.1,78.8c0-0.5,0.3-0.8,0.8-1l0,0c-0.4-0.2-0.6-0.5-0.6-0.9c0-0.6,0.5-1,1.2-1c0.8,0,1.1,0.5,1.1,1
			c0,0.3-0.2,0.7-0.6,0.9v0c0.5,0.2,0.8,0.5,0.8,1c0,0.7-0.6,1.1-1.3,1.1C5.6,79.9,5.1,79.4,5.1,78.8z M7.2,78.8
			c0-0.5-0.3-0.7-0.9-0.9c-0.5,0.1-0.7,0.4-0.7,0.8c0,0.4,0.3,0.7,0.8,0.7C6.9,79.5,7.2,79.2,7.2,78.8z M5.7,76.9
			c0,0.4,0.3,0.6,0.7,0.7c0.3-0.1,0.6-0.4,0.6-0.7c0-0.3-0.2-0.6-0.7-0.6C6,76.2,5.7,76.5,5.7,76.9z"/>


 </svg>