<?xml version="1.0" encoding="utf-8"?>
<!-- Generator: Adobe Illustrator 26.2.1, SVG Export Plug-In . SVG Version: 6.00 Build 0)  -->
<svg version="1.1" xmlns="http://www.w3.org/2000/svg" xmlns:xlink="http://www.w3.org/1999/xlink" x="0px" y="0px"
	 viewBox="0 0 100 100" style="enable-background:new 0 0 100 100;" xml:space="preserve" width = "100px" height = "100px">
<style type="text/css">
	.st0{display:none;}
	.st1{display:inline;}
</style>


		<path d="M51,54.3c5.1-2.6,10.4-6.1,14.5-9.5H22v-6h50.6l1.2-0.4l5.2,3.3c-0.3,0.5-0.9,0.8-1.5,0.9c-5.9,5.6-15.4,12.1-24.3,16.5
			 M14.2,26.7v16.1H7.8V20.6h15.6c-1.9-3.9-5.6-9.2-8.9-13.1l5.6-2.7c4,4.4,8.3,10.3,10.1,14.3l-2.9,1.5h21.2
			C47,16.1,43.7,9.9,40.6,5.3l5.8-2.2c3.6,5,7.2,11.7,8.5,16l-3.5,1.5h17.5C72.8,16,77.7,9,80.4,4.2c6.3,2.3,7.1,2.8,7.9,3.3
			c-0.3,0.6-1.1,0.9-2.1,0.8c-2.5,3.6-6.1,8.3-9.6,12.3h16.3v22.2h-6.6V26.7H14.2z"/>

		<path d="M22.8,48.7c0.3,0,13.2,0,13.2,0"/>

			<rect x="22.8" y="47.9" width="8.7" height="1.5"/>

				<path d="M36,48.7c-2.1,0.8-4.8,2.1-6.4,3.6l1.3-3.6l-1.3-3.6C31.2,46.6,33.9,47.9,36,48.7z"/>

		<path d="M25.3,52.4c-0.1,0-0.2,0-0.4,0c-0.8,0.1-1.3,0.7-1.4,1.4h0c0.2-0.2,0.5-0.4,0.9-0.4c0.7,0,1.2,0.5,1.2,1.3
			c0,0.7-0.5,1.4-1.3,1.4c-0.8,0-1.4-0.6-1.4-1.7c0-0.8,0.3-1.4,0.7-1.8c0.3-0.3,0.8-0.5,1.2-0.6c0.2,0,0.3,0,0.4,0V52.4z
			 M25.1,54.7c0-0.6-0.3-0.9-0.8-0.9c-0.3,0-0.6,0.2-0.8,0.5c0,0.1-0.1,0.1-0.1,0.2c0,0.6,0.3,1.1,0.9,1.1
			C24.8,55.6,25.1,55.2,25.1,54.7z"/>



 </svg>