<?xml version="1.0" encoding="utf-8"?>
<!-- Generator: Adobe Illustrator 26.2.1, SVG Export Plug-In . SVG Version: 6.00 Build 0)  -->
<svg version="1.1" xmlns="http://www.w3.org/2000/svg" xmlns:xlink="http://www.w3.org/1999/xlink" x="0px" y="0px"
	 viewBox="0 0 100 100" style="enable-background:new 0 0 100 100;" xml:space="preserve" width = "100px" height = "100px">
<style type="text/css">
	.st0{display:none;}
	.st1{display:inline;}
</style> 


		<path d="M23.4,20.6c-1.9-3.9-5.6-9.2-8.9-13.1l5.6-2.7c4,4.4,8.3,10.3,10.1,14.3l-2.9,1.5h21.2C47,16.1,43.7,9.9,40.6,5.3l5.8-2.2
			c3.6,5,7.2,11.7,8.5,16l-3.5,1.5"/>

		<line x1="37.1" y1="8.4" x2="44" y2="18.2"/>

			<rect x="38.5" y="7.7" transform="matrix(0.8207 -0.5713 0.5713 0.8207 0.5176 24.4795)" width="1.5" height="7.4"/>
		
				<path d="M44,18.2c-1.9-1.3-4.5-2.7-6.6-3.2l3.7-1l2.2-3.1C43,13,43.4,16,44,18.2z"/>

		<path d="M33.4,13.7v-0.3l0.4-0.4c1-0.9,1.4-1.5,1.5-2c0-0.4-0.2-0.8-0.8-0.8c-0.4,0-0.6,0.2-0.8,0.3l-0.2-0.4
			c0.3-0.2,0.7-0.4,1.1-0.4c0.8,0,1.2,0.6,1.2,1.1c0,0.7-0.5,1.3-1.3,2.1l-0.3,0.3v0h1.8v0.4H33.4z"/>

</svg>