<?xml version="1.0" encoding="utf-8"?>
<!-- Generator: Adobe Illustrator 26.2.1, SVG Export Plug-In . SVG Version: 6.00 Build 0)  -->
<svg version="1.1" xmlns="http://www.w3.org/2000/svg" xmlns:xlink="http://www.w3.org/1999/xlink" x="0px" y="0px"
	 viewBox="0 0 100 100" style="enable-background:new 0 0 100 100;" xml:space="preserve">
<style type="text/css">
	.st0{display:none;}
	.st1{display:inline;}
</style>
<g id="Stroke7">
	<g>
		<path d="M94.7,62.7V69H53.2v19.4c0,8.4-4.8,8.5-23.3,8.5c-0.5-1.9-1.8-4.7-2.9-6.6c5.1,0.2,9.6,0.3,12.8,0.3c5.8,0,6.5,0,6.5-2.2
			V69h-41v-6.3h41v-8.7l4.7,0.3c5.1-2.6,10.4-6.1,14.5-9.5H22v-6h50.6l1.2-0.4l5.2,3.3c-0.3,0.5-0.9,0.8-1.5,0.9
			c-5.9,5.6-15.4,12.1-24.3,16.5v3.6H94.7z M14.2,26.7v16.1H7.8V20.6h15.6c-1.9-3.9-5.6-9.2-8.9-13.1l5.6-2.7
			c4,4.4,8.3,10.3,10.1,14.3l-2.9,1.5h21.2C47,16.1,43.7,9.9,40.6,5.3l5.8-2.2c3.6,5,7.2,11.7,8.5,16l-3.5,1.5h17.5
			C72.8,16,77.7,9,80.4,4.2c6.3,2.3,7.1,2.8,7.9,3.3c-0.3,0.6-1.1,0.9-2.1,0.8c-2.5,3.6-6.1,8.3-9.6,12.3h16.3v22.2h-6.6V26.7H14.2z
			"/>
	</g>
	<g>
		<path d="M5.3,73.4c0.6,0,17.2,0,17.2,0"/>
		<g>
			<rect x="5.3" y="72.7" width="12.7" height="1.5"/>
			<g>
				<path d="M22.5,73.4c-2.1,0.8-4.8,2.1-6.4,3.6l1.3-3.6l-1.3-3.6C17.7,71.3,20.4,72.6,22.5,73.4z"/>
			</g>
		</g>
	</g>
	<g>
		<path d="M5.1,78.8c0-0.5,0.3-0.8,0.8-1l0,0c-0.4-0.2-0.6-0.5-0.6-0.9c0-0.6,0.5-1,1.2-1c0.8,0,1.1,0.5,1.1,1
			c0,0.3-0.2,0.7-0.6,0.9v0c0.5,0.2,0.8,0.5,0.8,1c0,0.7-0.6,1.1-1.3,1.1C5.6,79.9,5.1,79.4,5.1,78.8z M7.2,78.8
			c0-0.5-0.3-0.7-0.9-0.9c-0.5,0.1-0.7,0.4-0.7,0.8c0,0.4,0.3,0.7,0.8,0.7C6.9,79.5,7.2,79.2,7.2,78.8z M5.7,76.9
			c0,0.4,0.3,0.6,0.7,0.7c0.3-0.1,0.6-0.4,0.6-0.7c0-0.3-0.2-0.6-0.7-0.6C6,76.2,5.7,76.5,5.7,76.9z"/>
	</g>
</g>
<g id="Stroke6" class="st0">
	<g class="st1">
		<path d="M53.2,69v19.4c0,8.4-4.8,8.5-23.3,8.5c-0.5-1.9-1.8-4.7-2.9-6.6c5.1,0.2,9.6,0.3,12.8,0.3c5.8,0,6.5,0,6.5-2.2V69v-6.3
			v-8.7l4.7,0.3c5.1-2.6,10.4-6.1,14.5-9.5H22v-6h50.6l1.2-0.4l5.2,3.3c-0.3,0.5-0.9,0.8-1.5,0.9c-5.9,5.6-15.4,12.1-24.3,16.5v3.6
			 M14.2,26.7v16.1H7.8V20.6h15.6c-1.9-3.9-5.6-9.2-8.9-13.1l5.6-2.7c4,4.4,8.3,10.3,10.1,14.3l-2.9,1.5h21.2
			C47,16.1,43.7,9.9,40.6,5.3l5.8-2.2c3.6,5,7.2,11.7,8.5,16l-3.5,1.5h17.5C72.8,16,77.7,9,80.4,4.2c6.3,2.3,7.1,2.8,7.9,3.3
			c-0.3,0.6-1.1,0.9-2.1,0.8c-2.5,3.6-6.1,8.3-9.6,12.3h16.3v22.2h-6.6V26.7H14.2z"/>
	</g>
	<g class="st1">
		<line x1="42.5" y1="55.9" x2="42.5" y2="66.3"/>
		<g>
			<rect x="41.8" y="55.9" width="1.5" height="5.9"/>
			<g>
				<path d="M42.5,66.3c-0.8-2.1-2.1-4.8-3.6-6.4l3.6,1.3l3.6-1.3C44.7,61.5,43.3,64.2,42.5,66.3z"/>
			</g>
		</g>
	</g>
	<g class="st1">
		<path d="M41.1,51.9v0.3l-1.7,3.5h-0.5l1.7-3.4v0h-1.9v-0.4H41.1z"/>
	</g>
</g>
<g id="Stroke5" class="st0">
	<g class="st1">
		<path d="M51,54.3c5.1-2.6,10.4-6.1,14.5-9.5H22v-6h50.6l1.2-0.4l5.2,3.3c-0.3,0.5-0.9,0.8-1.5,0.9c-5.9,5.6-15.4,12.1-24.3,16.5
			 M14.2,26.7v16.1H7.8V20.6h15.6c-1.9-3.9-5.6-9.2-8.9-13.1l5.6-2.7c4,4.4,8.3,10.3,10.1,14.3l-2.9,1.5h21.2
			C47,16.1,43.7,9.9,40.6,5.3l5.8-2.2c3.6,5,7.2,11.7,8.5,16l-3.5,1.5h17.5C72.8,16,77.7,9,80.4,4.2c6.3,2.3,7.1,2.8,7.9,3.3
			c-0.3,0.6-1.1,0.9-2.1,0.8c-2.5,3.6-6.1,8.3-9.6,12.3h16.3v22.2h-6.6V26.7H14.2z"/>
	</g>
	<g class="st1">
		<path d="M22.8,48.7c0.3,0,13.2,0,13.2,0"/>
		<g>
			<rect x="22.8" y="47.9" width="8.7" height="1.5"/>
			<g>
				<path d="M36,48.7c-2.1,0.8-4.8,2.1-6.4,3.6l1.3-3.6l-1.3-3.6C31.2,46.6,33.9,47.9,36,48.7z"/>
			</g>
		</g>
	</g>
	<g class="st1">
		<path d="M25.3,52.4c-0.1,0-0.2,0-0.4,0c-0.8,0.1-1.3,0.7-1.4,1.4h0c0.2-0.2,0.5-0.4,0.9-0.4c0.7,0,1.2,0.5,1.2,1.3
			c0,0.7-0.5,1.4-1.3,1.4c-0.8,0-1.4-0.6-1.4-1.7c0-0.8,0.3-1.4,0.7-1.8c0.3-0.3,0.8-0.5,1.2-0.6c0.2,0,0.3,0,0.4,0V52.4z
			 M25.1,54.7c0-0.6-0.3-0.9-0.8-0.9c-0.3,0-0.6,0.2-0.8,0.5c0,0.1-0.1,0.1-0.1,0.2c0,0.6,0.3,1.1,0.9,1.1
			C24.8,55.6,25.1,55.2,25.1,54.7z"/>
	</g>
</g>
<g id="Stroke4" class="st0">
	<g class="st1">
		<path d="M14.2,26.7v16.1H7.8V20.6h15.6c-1.9-3.9-5.6-9.2-8.9-13.1l5.6-2.7c4,4.4,8.3,10.3,10.1,14.3l-2.9,1.5h21.2
			C47,16.1,43.7,9.9,40.6,5.3l5.8-2.2c3.6,5,7.2,11.7,8.5,16l-3.5,1.5h17.5C72.8,16,77.7,9,80.4,4.2c6.3,2.3,7.1,2.8,7.9,3.3
			c-0.3,0.6-1.1,0.9-2.1,0.8c-2.5,3.6-6.1,8.3-9.6,12.3h16.3v22.2h-6.6V26.7H14.2z"/>
	</g>
	<g class="st1">
		<line x1="17.4" y1="30.9" x2="31.5" y2="30.9"/>
		<g>
			<rect x="17.4" y="30.1" width="9.5" height="1.5"/>
			<g>
				<path d="M31.5,30.9c-2.1,0.8-4.8,2.1-6.4,3.6l1.3-3.6l-1.3-3.6C26.7,28.7,29.3,30.1,31.5,30.9z"/>
			</g>
		</g>
	</g>
	<g class="st1">
		<path d="M19,33.7h-1.5l-0.1,1c0.1,0,0.2,0,0.3,0c0.3,0,0.6,0.1,0.8,0.2c0.3,0.2,0.6,0.5,0.6,1c0,0.8-0.6,1.3-1.5,1.3
			c-0.4,0-0.8-0.1-1-0.2l0.1-0.4c0.2,0.1,0.5,0.2,0.8,0.2c0.5,0,0.9-0.3,0.9-0.8c0-0.5-0.3-0.9-1.1-0.9c-0.2,0-0.4,0-0.5,0l0.3-1.9
			H19V33.7z"/>
	</g>
</g>
<g id="Stroke3" class="st0">
	<g class="st1">
		<path d="M48.5,20.6C47,16.1,43.7,9.9,40.6,5.3l5.8-2.2c3.6,5,7.2,11.7,8.5,16l-3.5,1.5h17.5C72.8,16,77.7,9,80.4,4.2
			c6.3,2.3,7.1,2.8,7.9,3.3c-0.3,0.6-1.1,0.9-2.1,0.8c-2.5,3.6-6.1,8.3-9.6,12.3 M13.9,20.6H7.8v22.2h6.4V26.7L13.9,20.6z M24,20.6
			H27l3.2-1.5c-1.8-4-6.1-9.9-10.1-14.3l-5.6,2.7"/>
	</g>
	<g class="st1">
		<path d="M18.7,22.9c0,0.5,0,10.8,0,10.8"/>
		<g>
			<rect x="17.9" y="22.9" width="1.5" height="6.3"/>
			<g>
				<path d="M18.7,33.7c-0.8-2.1-2.1-4.8-3.6-6.4l3.6,1.3l3.6-1.3C20.8,28.9,19.5,31.5,18.7,33.7z"/>
			</g>
		</g>
	</g>
	<g class="st1">
		<path d="M22.7,25.9v-1.1h-1.8v-0.3l1.7-2.5h0.6v2.4h0.5v0.4h-0.5v1.1H22.7z M22.7,24.4v-1.3c0-0.2,0-0.4,0-0.6h0
			c-0.1,0.2-0.2,0.4-0.3,0.6l-1,1.3v0H22.7z"/>
	</g>
</g>
<g id="Stroke2" class="st0">
	<g class="st1">
		<path d="M23.4,20.6c-1.9-3.9-5.6-9.2-8.9-13.1l5.6-2.7c4,4.4,8.3,10.3,10.1,14.3l-2.9,1.5h21.2C47,16.1,43.7,9.9,40.6,5.3l5.8-2.2
			c3.6,5,7.2,11.7,8.5,16l-3.5,1.5h17.5C72.8,16,77.7,9,80.4,4.2c6.3,2.3,7.1,2.8,7.9,3.3c-0.3,0.6-1.1,0.9-2.1,0.8
			c-2.5,3.6-6.1,8.3-9.6,12.3"/>
	</g>
	<g class="st1">
		<line x1="90.1" y1="10.3" x2="83.4" y2="18.8"/>
		<g>
			<rect x="85" y="12" transform="matrix(0.6174 -0.7867 0.7867 0.6174 23.6866 74.2411)" width="6.2" height="1.5"/>
			<g>
				<path d="M83.4,18.8c0.7-2.2,1.3-5.1,1.1-7.2l2,3.2l3.6,1.2C88.1,16.4,85.4,17.6,83.4,18.8z"/>
			</g>
		</g>
	</g>
	<g class="st1">
		<path d="M92.3,12.3c0.2,0.1,0.5,0.2,0.9,0.2c0.7,0,0.9-0.4,0.9-0.8c0-0.5-0.5-0.8-1-0.8h-0.3v-0.4H93c0.4,0,0.9-0.2,0.9-0.7
			c0-0.3-0.2-0.6-0.7-0.6c-0.3,0-0.6,0.1-0.8,0.3l-0.1-0.4c0.2-0.1,0.6-0.3,1-0.3c0.8,0,1.1,0.5,1.1,0.9c0,0.4-0.2,0.7-0.7,0.9v0
			c0.5,0.1,0.9,0.5,0.9,1c0,0.6-0.5,1.2-1.4,1.2c-0.4,0-0.8-0.1-1-0.3L92.3,12.3z"/>
	</g>
</g>
<g id="Stroke1" class="st0">
	<g class="st1">
		<path d="M23.4,20.6c-1.9-3.9-5.6-9.2-8.9-13.1l5.6-2.7c4,4.4,8.3,10.3,10.1,14.3l-2.9,1.5h21.2C47,16.1,43.7,9.9,40.6,5.3l5.8-2.2
			c3.6,5,7.2,11.7,8.5,16l-3.5,1.5"/>
	</g>
	<g class="st1">
		<line x1="37.1" y1="8.4" x2="44" y2="18.2"/>
		<g>
			<rect x="38.5" y="7.7" transform="matrix(0.8207 -0.5713 0.5713 0.8207 0.5176 24.4795)" width="1.5" height="7.4"/>
			<g>
				<path d="M44,18.2c-1.9-1.3-4.5-2.7-6.6-3.2l3.7-1l2.2-3.1C43,13,43.4,16,44,18.2z"/>
			</g>
		</g>
	</g>
	<g class="st1">
		<path d="M33.4,13.7v-0.3l0.4-0.4c1-0.9,1.4-1.5,1.5-2c0-0.4-0.2-0.8-0.8-0.8c-0.4,0-0.6,0.2-0.8,0.3l-0.2-0.4
			c0.3-0.2,0.7-0.4,1.1-0.4c0.8,0,1.2,0.6,1.2,1.1c0,0.7-0.5,1.3-1.3,2.1l-0.3,0.3v0h1.8v0.4H33.4z"/>
	</g>
</g>
<g id="Stroke0" class="st0">
	<g class="st1">
		<path d="M23.4,20.6c-1.9-3.9-5.6-9.2-8.9-13.1l5.6-2.7c4,4.4,8.3,10.3,10.1,14.3l-2.9,1.5"/>
	</g>
	<g class="st1">
		<line x1="12.9" y1="11" x2="17.7" y2="20.2"/>
		<g>
			<rect x="13.5" y="10.7" transform="matrix(0.8849 -0.4657 0.4657 0.8849 -4.6982 8.1851)" width="1.5" height="5.8"/>
			<g>
				<path d="M17.7,20.2c-1.7-1.5-4.1-3.2-6.1-4l3.8-0.5l2.6-2.8C17.3,15,17.4,17.9,17.7,20.2z"/>
			</g>
		</g>
	</g>
	<g class="st1">
		<path d="M9.3,10.6L9.3,10.6L8.6,11l-0.1-0.4l0.9-0.5h0.4V14H9.3V10.6z"/>
	</g>
</g>
<g id="Kanji" class="st0">
	<g class="st1">
		<path d="M94.7,62.7V69H53.2v19.4c0,8.4-4.8,8.5-23.3,8.5c-0.5-1.9-1.8-4.7-2.9-6.6c5.1,0.2,9.6,0.3,12.8,0.3c5.8,0,6.5,0,6.5-2.2
			V69h-41v-6.3h41v-8.7l4.7,0.3c5.1-2.6,10.4-6.1,14.5-9.5H22v-6h50.6l1.2-0.4l5.2,3.3c-0.3,0.5-0.9,0.8-1.5,0.9
			c-5.9,5.6-15.4,12.1-24.3,16.5v3.6H94.7z M14.2,26.7v16.1H7.8V20.6h15.6c-1.9-3.9-5.6-9.2-8.9-13.1l5.6-2.7
			c4,4.4,8.3,10.3,10.1,14.3l-2.9,1.5h21.2C47,16.1,43.7,9.9,40.6,5.3l5.8-2.2c3.6,5,7.2,11.7,8.5,16l-3.5,1.5h17.5
			C72.8,16,77.7,9,80.4,4.2c6.3,2.3,7.1,2.8,7.9,3.3c-0.3,0.6-1.1,0.9-2.1,0.8c-2.5,3.6-6.1,8.3-9.6,12.3h16.3v22.2h-6.6V26.7H14.2z
			"/>
	</g>
</g>
</svg>
