<?xml version="1.0" encoding="utf-8"?>
<!-- Generator: Adobe Illustrator 26.2.1, SVG Export Plug-In . SVG Version: 6.00 Build 0)  -->
<svg version="1.1" xmlns="http://www.w3.org/2000/svg" xmlns:xlink="http://www.w3.org/1999/xlink" x="0px" y="0px"
	 viewBox="0 0 100 100" style="enable-background:new 0 0 100 100;" xml:space="preserve" width = "100px" height = "100px">
<style type="text/css">
	.st0{display:none;}
	.st1{display:inline;}
</style>

		<path d="M94.9,55.1H58.5c9.4,12.7,24.8,25.1,38.7,31.2c-1.6,1.3-3.8,4-4.9,5.9c-13.9-6.9-29-19.9-39-33.7v37.9h-7V59.1
			C36.2,72.7,21.4,85,7.7,91.8c-1.1-1.7-3.2-4.3-4.9-5.7c13.9-6,29.1-18.3,38.5-31H4.9v-6.4h41.3V22.5H9.8V16h36.4V3.6l9,0.6
			c-0.1,0.7-0.6,1.2-2,1.4V16h37.3v6.5H53.2v26.2h41.6V55.1z M27.7,47.4c-1.4-5.3-5.4-13.6-9.4-19.7l5.9-2.2c4.1,6,8.4,14,9.9,19.3
			L27.7,47.4z M84.6,27.9c-0.4,0.6-1.1,0.9-2.3,0.9c-2.7,5.6-7.3,13.7-11,19c0-0.1-5.7-2.5-5.7-2.5c3.6-5.4,8.2-14.3,10.7-20.5
			L84.6,27.9z"/>

		<path d="M61.9,75.8c-0.7-0.8-1.4-1.5-2.1-2.3c-1.2-1.4-2.3-2.7-3.5-4.1l1.1-1c1.1,1.3,2.3,2.7,3.5,4c0.7,0.8,1.4,1.6,2.1,2.3
			L61.9,75.8z"/>
	
			<path d="M65.6,78.6c-2-1.1-4.8-2.1-6.9-2.4l3.5-1.4l1.8-3.3C64,73.6,64.7,76.5,65.6,78.6z"/>

		<path d="M56.7,64.1v0.3L55,68h-0.5l1.7-3.4v0h-1.9v-0.4H56.7z"/>


 </svg>