<?xml version="1.0" encoding="utf-8"?>
<!-- Generator: Adobe Illustrator 26.2.1, SVG Export Plug-In . SVG Version: 6.00 Build 0)  -->
<svg version="1.1" xmlns="http://www.w3.org/2000/svg" xmlns:xlink="http://www.w3.org/1999/xlink" x="0px" y="0px"
	 viewBox="0 0 100 100" style="enable-background:new 0 0 100 100;" xml:space="preserve" width = "100px" height = "100px">
<style type="text/css">
	.st0{display:none;}
	.st1{display:inline;}
</style> 

		<path d="M41.3,55.1H4.9v-6.4h41.3V22.5H9.8V16h36.4V3.6l9,0.6c-0.1,0.7-0.6,1.2-2,1.4V16h37.3v6.5H53.2v26.2h41.6v6.4H58.5
			 M53.2,55.1v3.4v37.9h-7V59.1v-4 M27.7,47.4c-1.4-5.3-5.4-13.6-9.4-19.7l5.9-2.2c4.1,6,8.4,14,9.9,19.3L27.7,47.4z M84.6,27.9
			c-0.4,0.6-1.1,0.9-2.3,0.9c-2.7,5.6-7.3,13.7-11,19c0-0.1-5.7-2.5-5.7-2.5c3.6-5.4,8.2-14.3,10.7-20.5L84.6,27.9z"/>

		<path d="M57.4,4c0,1.4,0,10.1,0,10.1"/>

			<rect x="56.7" y="4" width="1.5" height="5.6"/>
		
				<path d="M57.4,14.1c-0.8-2.1-2.1-4.8-3.6-6.4L57.4,9L61,7.7C59.6,9.4,58.2,12,57.4,14.1z"/>
	

		<path d="M62.4,3.1h-1.5l-0.1,1c0.1,0,0.2,0,0.3,0c0.3,0,0.6,0.1,0.8,0.2c0.3,0.2,0.6,0.5,0.6,1c0,0.8-0.6,1.3-1.5,1.3
			c-0.4,0-0.8-0.1-1-0.2L60.2,6c0.2,0.1,0.5,0.2,0.8,0.2c0.5,0,0.9-0.3,0.9-0.8c0-0.5-0.3-0.9-1.1-0.9c-0.2,0-0.4,0-0.5,0l0.3-1.9
			h1.9V3.1z"/>

</svg>