<?xml version="1.0" encoding="utf-8"?>
<!-- Generator: Adobe Illustrator 26.2.1, SVG Export Plug-In . SVG Version: 6.00 Build 0)  -->
<svg version="1.1" xmlns="http://www.w3.org/2000/svg" xmlns:xlink="http://www.w3.org/1999/xlink" x="0px" y="0px"
	 viewBox="0 0 100 100" style="enable-background:new 0 0 100 100;" xml:space="preserve" width = "100px" height = "100px">
<style type="text/css">
	.st0{display:none;}
	.st1{display:inline;}
</style> 

		<path d="M46.2,22.5H9.8V16h36.4h7h37.3v6.5H53.2 M27.7,47.4c-1.4-5.3-5.4-13.6-9.4-19.7l5.9-2.2c4.1,6,8.4,14,9.9,19.3L27.7,47.4z
			"/>

		<path d="M18.4,37.8c-0.2-0.4-0.4-0.7-0.6-1.1c-0.9-1.6-1.9-3.2-2.9-4.8l1.3-0.8c1,1.6,2,3.2,2.9,4.8c0.2,0.4,0.4,0.8,0.6,1.1
			L18.4,37.8z"/>
	
			<path d="M21.2,41.4c-1.7-1.5-4.2-3.2-6.2-3.9l3.7-0.6l2.5-2.8C20.8,36.2,20.9,39.2,21.2,41.4z"/>
	
		<path d="M10.9,34.8v-0.3l0.4-0.4c1-0.9,1.4-1.5,1.5-2c0-0.4-0.2-0.8-0.8-0.8c-0.4,0-0.6,0.2-0.8,0.3L11,31.3
			c0.3-0.2,0.7-0.4,1.1-0.4c0.8,0,1.2,0.6,1.2,1.1c0,0.7-0.5,1.3-1.3,2.1l-0.3,0.3v0h1.8v0.4H10.9z"/>

</svg>