<?xml version="1.0" encoding="utf-8"?>
<!-- Generator: Adobe Illustrator 26.2.1, SVG Export Plug-In . SVG Version: 6.00 Build 0)  -->
<svg version="1.1" xmlns="http://www.w3.org/2000/svg" xmlns:xlink="http://www.w3.org/1999/xlink" x="0px" y="0px"
	 viewBox="0 0 100 100" style="enable-background:new 0 0 100 100;" xml:space="preserve" width = "100px" height = "100px">
<style type="text/css">
	.st0{display:none;}
	.st1{display:inline;}
</style> 


		<path d="M46.2,22.5H9.8V16h36.4h7h37.3v6.5H53.2 M27.7,47.4c-1.4-5.3-5.4-13.6-9.4-19.7l5.9-2.2c4.1,6,8.4,14,9.9,19.3L27.7,47.4z
			 M84.6,27.9c-0.4,0.6-1.1,0.9-2.3,0.9c-2.7,5.6-7.3,13.7-11,19c0-0.1-5.7-2.5-5.7-2.5c3.6-5.4,8.2-14.3,10.7-20.5L84.6,27.9z"/>

		<line x1="86.5" y1="28.7" x2="80.4" y2="40.9"/>
	
			<rect x="79.9" y="32" transform="matrix(0.4446 -0.8957 0.8957 0.4446 17.5708 93.8764)" width="9.1" height="1.5"/>
		
				<path d="M80.4,40.9c0.2-2.3,0.2-5.2-0.3-7.3l2.6,2.7l3.8,0.4C84.5,37.6,82.1,39.4,80.4,40.9z"/>
	
		<path d="M88.9,31.5c0.2,0.1,0.5,0.2,0.9,0.2c0.7,0,0.9-0.4,0.9-0.8c0-0.5-0.5-0.8-1-0.8h-0.3v-0.4h0.3c0.4,0,0.9-0.2,0.9-0.7
			c0-0.3-0.2-0.6-0.7-0.6c-0.3,0-0.6,0.1-0.8,0.3l-0.1-0.4c0.2-0.1,0.6-0.3,1-0.3c0.8,0,1.1,0.5,1.1,0.9c0,0.4-0.2,0.7-0.7,0.9v0
			c0.5,0.1,0.9,0.5,0.9,1c0,0.6-0.5,1.2-1.4,1.2c-0.4,0-0.8-0.1-1-0.3L88.9,31.5z"/>


</svg>