<?xml version="1.0" encoding="utf-8"?>
<!-- Generator: Adobe Illustrator 26.2.1, SVG Export Plug-In . SVG Version: 6.00 Build 0)  -->
<svg version="1.1" xmlns="http://www.w3.org/2000/svg" xmlns:xlink="http://www.w3.org/1999/xlink" x="0px" y="0px"
	 viewBox="0 0 100 100" style="enable-background:new 0 0 100 100;" xml:space="preserve">
<style type="text/css">
	.st0{display:none;}
	.st1{display:inline;}
	.st2{fill:none;stroke:#000000;stroke-width:1.5;stroke-miterlimit:10;}
	.st3{font-family:'MyriadPro-Regular';}
	.st4{font-size:6px;}
</style>
<g id="Stroke6">
	<g>
		<path d="M94.9,55.1H58.5c9.4,12.7,24.8,25.1,38.7,31.2c-1.6,1.3-3.8,4-4.9,5.9c-13.9-6.9-29-19.9-39-33.7v37.9h-7V59.1
			C36.2,72.7,21.4,85,7.7,91.8c-1.1-1.7-3.2-4.3-4.9-5.7c13.9-6,29.1-18.3,38.5-31H4.9v-6.4h41.3V22.5H9.8V16h36.4V3.6l9,0.6
			c-0.1,0.7-0.6,1.2-2,1.4V16h37.3v6.5H53.2v26.2h41.6V55.1z M27.7,47.4c-1.4-5.3-5.4-13.6-9.4-19.7l5.9-2.2c4.1,6,8.4,14,9.9,19.3
			L27.7,47.4z M84.6,27.9c-0.4,0.6-1.1,0.9-2.3,0.9c-2.7,5.6-7.3,13.7-11,19c0-0.1-5.7-2.5-5.7-2.5c3.6-5.4,8.2-14.3,10.7-20.5
			L84.6,27.9z"/>
	</g>
	<g>
		<path d="M61.9,75.8c-0.7-0.8-1.4-1.5-2.1-2.3c-1.2-1.4-2.3-2.7-3.5-4.1l1.1-1c1.1,1.3,2.3,2.7,3.5,4c0.7,0.8,1.4,1.6,2.1,2.3
			L61.9,75.8z"/>
		<g>
			<path d="M65.6,78.6c-2-1.1-4.8-2.1-6.9-2.4l3.5-1.4l1.8-3.3C64,73.6,64.7,76.5,65.6,78.6z"/>
		</g>
	</g>
	<g>
		<path d="M56.7,64.1v0.3L55,68h-0.5l1.7-3.4v0h-1.9v-0.4H56.7z"/>
	</g>
</g>
<g id="Stroke5" class="st0">
	<g class="st1">
		<path d="M53.1,55.2l0.1,41.2h-7V59.1C36.2,72.7,21.4,85,7.7,91.8c-1.1-1.7-3.2-4.3-4.9-5.7c13.9-6,29.1-18.3,38.5-31H4.9v-6.4
			h41.3V22.5H9.8V16h36.4V3.6l9,0.6c-0.1,0.7-0.6,1.2-2,1.4V16h37.3v6.5H53.2v26.2h41.6v6.4H58.5 M27.7,47.4
			c-1.4-5.3-5.4-13.6-9.4-19.7l5.9-2.2c4.1,6,8.4,14,9.9,19.3L27.7,47.4z M84.6,27.9c-0.4,0.6-1.1,0.9-2.3,0.9
			c-2.7,5.6-7.3,13.7-11,19c0-0.1-5.7-2.5-5.7-2.5c3.6-5.4,8.2-14.3,10.7-20.5L84.6,27.9z"/>
	</g>
	<g class="st1">
		<g>
			<path class="st2" d="M32.4,60.1c-1.2,1.5-2.6,3.2-4.4,4.8"/>
			<g>
				<path d="M24.6,67.9c1.1-2,2.2-4.8,2.5-6.9l1.4,3.5l3.3,1.8C29.6,66.3,26.7,67.1,24.6,67.9z"/>
			</g>
		</g>
	</g>
	<text transform="matrix(0.9976 -6.971432e-02 6.971432e-02 0.9976 28.5184 59.738)" class="st1 st3 st4">6</text>
</g>
<g id="Stroke4" class="st0">
	<g class="st1">
		<path d="M41.3,55.1H4.9v-6.4h41.3V22.5H9.8V16h36.4V3.6l9,0.6c-0.1,0.7-0.6,1.2-2,1.4V16h37.3v6.5H53.2v26.2h41.6v6.4H58.5
			 M53.2,55.1v3.4v37.9h-7V59.1v-4 M27.7,47.4c-1.4-5.3-5.4-13.6-9.4-19.7l5.9-2.2c4.1,6,8.4,14,9.9,19.3L27.7,47.4z M84.6,27.9
			c-0.4,0.6-1.1,0.9-2.3,0.9c-2.7,5.6-7.3,13.7-11,19c0-0.1-5.7-2.5-5.7-2.5c3.6-5.4,8.2-14.3,10.7-20.5L84.6,27.9z"/>
	</g>
	<g class="st1">
		<path d="M57.4,4c0,1.4,0,10.1,0,10.1"/>
		<g>
			<rect x="56.7" y="4" width="1.5" height="5.6"/>
			<g>
				<path d="M57.4,14.1c-0.8-2.1-2.1-4.8-3.6-6.4L57.4,9L61,7.7C59.6,9.4,58.2,12,57.4,14.1z"/>
			</g>
		</g>
	</g>
	<g class="st1">
		<path d="M62.4,3.1h-1.5l-0.1,1c0.1,0,0.2,0,0.3,0c0.3,0,0.6,0.1,0.8,0.2c0.3,0.2,0.6,0.5,0.6,1c0,0.8-0.6,1.3-1.5,1.3
			c-0.4,0-0.8-0.1-1-0.2L60.2,6c0.2,0.1,0.5,0.2,0.8,0.2c0.5,0,0.9-0.3,0.9-0.8c0-0.5-0.3-0.9-1.1-0.9c-0.2,0-0.4,0-0.5,0l0.3-1.9
			h1.9V3.1z"/>
	</g>
</g>
<g id="Stroke3" class="st0">
	<g class="st1">
		<path d="M53.2,16h37.3v6.5H53.2h-7H9.8V16h36.4 M41.3,55.1H4.9v-6.4c1-0.5,89.9,0,89.9,0v6.4H58.5 M27.7,47.4
			c-1.4-5.3-5.4-13.6-9.4-19.7l5.9-2.2c4.1,6,8.4,14,9.9,19.3L27.7,47.4z M84.6,27.9c-0.4,0.6-1.1,0.9-2.3,0.9
			c-2.7,5.6-7.3,13.7-11,19c0-0.1-5.7-2.5-5.7-2.5c3.6-5.4,8.2-14.3,10.7-20.5L84.6,27.9z"/>
	</g>
	<g class="st1">
		<path d="M4.9,59.7c1.9,0,13.3,0,13.3,0"/>
		<g>
			<rect x="4.9" y="58.9" width="8.8" height="1.5"/>
			<g>
				<path d="M18.2,59.7c-2.1,0.8-4.8,2.1-6.4,3.6l1.3-3.6l-1.3-3.6C13.5,57.5,16.1,58.9,18.2,59.7z"/>
			</g>
		</g>
	</g>
	<g class="st1">
		<path d="M6.8,66.1v-1.1H5v-0.3l1.7-2.5h0.6v2.4h0.5v0.4H7.3v1.1H6.8z M6.8,64.6v-1.3c0-0.2,0-0.4,0-0.6h0
			c-0.1,0.2-0.2,0.4-0.3,0.6l-1,1.3v0H6.8z"/>
	</g>
</g>
<g id="Stroke2" class="st0">
	<g class="st1">
		<path d="M46.2,22.5H9.8V16h36.4h7h37.3v6.5H53.2 M27.7,47.4c-1.4-5.3-5.4-13.6-9.4-19.7l5.9-2.2c4.1,6,8.4,14,9.9,19.3L27.7,47.4z
			 M84.6,27.9c-0.4,0.6-1.1,0.9-2.3,0.9c-2.7,5.6-7.3,13.7-11,19c0-0.1-5.7-2.5-5.7-2.5c3.6-5.4,8.2-14.3,10.7-20.5L84.6,27.9z"/>
	</g>
	<g class="st1">
		<line x1="86.5" y1="28.7" x2="80.4" y2="40.9"/>
		<g>
			<rect x="79.9" y="32" transform="matrix(0.4446 -0.8957 0.8957 0.4446 17.5708 93.8764)" width="9.1" height="1.5"/>
			<g>
				<path d="M80.4,40.9c0.2-2.3,0.2-5.2-0.3-7.3l2.6,2.7l3.8,0.4C84.5,37.6,82.1,39.4,80.4,40.9z"/>
			</g>
		</g>
	</g>
	<g class="st1">
		<path d="M88.9,31.5c0.2,0.1,0.5,0.2,0.9,0.2c0.7,0,0.9-0.4,0.9-0.8c0-0.5-0.5-0.8-1-0.8h-0.3v-0.4h0.3c0.4,0,0.9-0.2,0.9-0.7
			c0-0.3-0.2-0.6-0.7-0.6c-0.3,0-0.6,0.1-0.8,0.3l-0.1-0.4c0.2-0.1,0.6-0.3,1-0.3c0.8,0,1.1,0.5,1.1,0.9c0,0.4-0.2,0.7-0.7,0.9v0
			c0.5,0.1,0.9,0.5,0.9,1c0,0.6-0.5,1.2-1.4,1.2c-0.4,0-0.8-0.1-1-0.3L88.9,31.5z"/>
	</g>
</g>
<g id="Stroke1" class="st0">
	<g class="st1">
		<path d="M46.2,22.5H9.8V16h36.4h7h37.3v6.5H53.2 M27.7,47.4c-1.4-5.3-5.4-13.6-9.4-19.7l5.9-2.2c4.1,6,8.4,14,9.9,19.3L27.7,47.4z
			"/>
	</g>
	<g class="st1">
		<path d="M18.4,37.8c-0.2-0.4-0.4-0.7-0.6-1.1c-0.9-1.6-1.9-3.2-2.9-4.8l1.3-0.8c1,1.6,2,3.2,2.9,4.8c0.2,0.4,0.4,0.8,0.6,1.1
			L18.4,37.8z"/>
		<g>
			<path d="M21.2,41.4c-1.7-1.5-4.2-3.2-6.2-3.9l3.7-0.6l2.5-2.8C20.8,36.2,20.9,39.2,21.2,41.4z"/>
		</g>
	</g>
	<g class="st1">
		<path d="M10.9,34.8v-0.3l0.4-0.4c1-0.9,1.4-1.5,1.5-2c0-0.4-0.2-0.8-0.8-0.8c-0.4,0-0.6,0.2-0.8,0.3L11,31.3
			c0.3-0.2,0.7-0.4,1.1-0.4c0.8,0,1.2,0.6,1.2,1.1c0,0.7-0.5,1.3-1.3,2.1l-0.3,0.3v0h1.8v0.4H10.9z"/>
	</g>
</g>
<g id="Stroke0" class="st0">
	<g class="st1">
		<path d="M46.2,22.5H9.8V16h36.4h7h37.3v6.5H53.2"/>
	</g>
	<g class="st1">
		<line x1="9.8" y1="26.4" x2="22.7" y2="26.4"/>
		<g>
			<rect x="9.8" y="25.6" width="8.3" height="1.5"/>
			<g>
				<path d="M22.7,26.4c-2.1,0.8-4.8,2.1-6.4,3.6l1.3-3.6l-1.3-3.6C17.9,24.2,20.6,25.6,22.7,26.4z"/>
			</g>
		</g>
	</g>
	<g class="st1">
		<path d="M11,29.5L11,29.5l-0.7,0.4l-0.1-0.4l0.9-0.5h0.4v3.9H11V29.5z"/>
	</g>
</g>
<g id="Kanji" class="st0">
	<g class="st1">
		<path d="M94.9,55.1H58.5c9.4,12.7,24.8,25.1,38.7,31.2c-1.6,1.3-3.8,4-4.9,5.9c-13.9-6.9-29-19.9-39-33.7v37.9h-7V59.1
			C36.2,72.7,21.4,85,7.7,91.8c-1.1-1.7-3.2-4.3-4.9-5.7c13.9-6,29.1-18.3,38.5-31H4.9v-6.4h41.3V22.5H9.8V16h36.4V3.6l9,0.6
			c-0.1,0.7-0.6,1.2-2,1.4V16h37.3v6.5H53.2v26.2h41.6V55.1z M27.7,47.4c-1.4-5.3-5.4-13.6-9.4-19.7l5.9-2.2c4.1,6,8.4,14,9.9,19.3
			L27.7,47.4z M84.6,27.9c-0.4,0.6-1.1,0.9-2.3,0.9c-2.7,5.6-7.3,13.7-11,19c0-0.1-5.7-2.5-5.7-2.5c3.6-5.4,8.2-14.3,10.7-20.5
			L84.6,27.9z"/>
	</g>
</g>
</svg>
