<?xml version="1.0" encoding="utf-8"?>
<!-- Generator: Adobe Illustrator 26.2.1, SVG Export Plug-In . SVG Version: 6.00 Build 0)  -->
<svg version="1.1" xmlns="http://www.w3.org/2000/svg" xmlns:xlink="http://www.w3.org/1999/xlink" x="0px" y="0px"
	 viewBox="0 0 100 100" style="enable-background:new 0 0 100 100;" xml:space="preserve" width = "100px" height = "100px">
<style type="text/css">
	.st0{display:none;}
	.st1{display:inline;}
</style> 

	<rect x="17.2" y="27.6" class="st5" width="12.6" height="0"/>

		<path d="M71.9,82.6 M91.2,19.9H26.9c-4,6.1-9.1,12.4-15.3,17.9c-1.3-1.4-3.7-3.2-5.5-4.1c10.8-8.9,18.1-20.9,22-30.3
			c6.7,0.9,7.7,1.1,8.6,1.2c-0.1,0.8-0.8,1.2-2,1.3c-1.1,2.5-2.5,5.1-4,7.8h60.5V19.9z"/>

		<line x1="29.3" y1="24.6" x2="56.1" y2="24.6"/>

			<rect x="29.3" y="23.8" width="22.3" height="1.5"/>

				<path d="M56.1,24.6c-2.1,0.8-4.8,2.1-6.4,3.6l1.3-3.6L49.7,21C51.3,22.5,54,23.8,56.1,24.6z"/>

		<path d="M29.5,30.8v-0.3l0.4-0.4c1-0.9,1.4-1.5,1.5-2c0-0.4-0.2-0.8-0.8-0.8c-0.4,0-0.6,0.2-0.8,0.3l-0.2-0.4
			c0.3-0.2,0.7-0.4,1.1-0.4c0.8,0,1.2,0.6,1.2,1.1c0,0.7-0.5,1.3-1.3,2.1l-0.3,0.3v0H32v0.4H29.5z"/>


</svg>