<?xml version="1.0" encoding="utf-8"?>
<!-- Generator: Adobe Illustrator 26.2.1, SVG Export Plug-In . SVG Version: 6.00 Build 0)  -->
<svg version="1.1" xmlns="http://www.w3.org/2000/svg" xmlns:xlink="http://www.w3.org/1999/xlink" x="0px" y="0px"
	 viewBox="0 0 100 100" style="enable-background:new 0 0 100 100;" xml:space="preserve" width = "100px" height = "100px">
<style type="text/css">
	.st0{display:none;}
	.st1{display:inline;}
</style> 

	<rect x="17.2" y="27.6" class="st5" width="12.6" height="0"/>

		<path d="M26.9,19.9c-4,6.1-9.1,12.4-15.3,17.9c-1.3-1.4-3.7-3.2-5.5-4.1c10.8-8.9,18.1-20.9,22-30.3c6.7,0.9,7.7,1.1,8.6,1.2
			c-0.1,0.8-0.8,1.2-2,1.3c-1.1,2.5-2.5,5.1-4,7.8"/>

		<path d="M30.9,22.6l-1.2-0.9l0.3-0.4c2.8-3.8,5.3-7.8,7.6-11.9l1.3,0.7c-2.3,4.2-4.9,8.3-7.7,12.1L30.9,22.6z"/>

			<path d="M27.5,25.7c0.7-2.2,1.2-5.1,1.1-7.3l2.1,3.2l3.6,1.1C32.1,23.3,29.4,24.5,27.5,25.7z"/>

		<path d="M41.2,11.5L41.2,11.5l-0.7,0.4l-0.1-0.4l0.9-0.5h0.4v3.9h-0.5V11.5z"/>

</svg>