<?xml version="1.0" encoding="utf-8"?>
<!-- Generator: Adobe Illustrator 26.2.1, SVG Export Plug-In . SVG Version: 6.00 Build 0)  -->
<svg version="1.1" xmlns="http://www.w3.org/2000/svg" xmlns:xlink="http://www.w3.org/1999/xlink" x="0px" y="0px"
	 viewBox="0 0 100 100" style="enable-background:new 0 0 100 100;" xml:space="preserve" width = "100px" height = "100px">
<style type="text/css">
	.st0{display:none;}
	.st1{display:inline;}
</style> 


	<rect x="17.2" y="27.6" class="st5" width="12.6" height="0"/>

		<path d="M81.5,58.7C81,66,80.4,71.9,79.7,76.6h13.9v6H78.8c-2.7,13.3-6.9,14-15.2,14c-3,0-6.7-0.1-10.4-0.4
			c-0.1-1.6-0.7-3.9-1.7-5.5c5.9,0.6,11.1,0.7,13.3,0.7c3.6,0,5.4-1.4,7.1-8.8H21.8c-0.5,2.3-0.9,4.5-1.3,6.4l-6.7-0.4
			c1.7-7.8,3.7-18.7,5.5-29.9l1-6.2c1.2-8,2.4-15.9,3.2-22.8h54.6l1.6-0.2l3.7,0.5c-0.1,0.6-0.1,1.4-0.3,2.1
			c-0.4,7.7-0.8,14.5-1.2,20.4 M91.2,19.9H26.9c-4,6.1-9.1,12.4-15.3,17.9c-1.3-1.4-3.7-3.2-5.5-4.1c10.8-8.9,18.1-20.9,22-30.3
			c6.7,0.9,7.7,1.1,8.6,1.2c-0.1,0.8-0.8,1.2-2,1.3c-1.1,2.5-2.5,5.1-4,7.8h60.5V19.9z M47.4,52.5c0.6-5.8,1.2-11.6,1.6-16.8H29.4
			c-0.8,5.3-1.7,11.1-2.5,16.8l-1,6.2c-1,6.2-2,12.4-3,17.9h21.3c0.8-5.2,1.7-11.4,2.4-17.9 M52.8,58.7c-0.8,6.5-1.6,12.8-2.3,17.9
			H73c0.7-4.6,1.4-10.4,1.9-17.9l0.5-6.2c0.3-5,0.7-10.6,1-16.8h-21c-0.5,5.3-1.2,11-1.8,16.8"/>

		<path d="M57.8,57.8l-1.5-0.2c0.2-1.2,0.4-2.5,0.6-3.8c0.7-5,1-10.2,1-15.3l1.5,0c0,5.2-0.4,10.4-1.1,15.5
			C58.1,55.3,58,56.5,57.8,57.8z"/>

			<path d="M56.2,62.1c-0.4-2.2-1.3-5.1-2.5-6.9l3.3,1.9l3.7-0.7C59.1,57.7,57.3,60.1,56.2,62.1z"/>

		<path d="M63.3,40.2h-1.5l-0.2,1c0.1,0,0.2,0,0.3,0c0.3,0,0.6,0.1,0.8,0.2c0.3,0.2,0.6,0.5,0.6,1c0,0.8-0.6,1.3-1.5,1.3
			c-0.4,0-0.8-0.1-1-0.2l0.1-0.4c0.2,0.1,0.5,0.2,0.8,0.2c0.5,0,0.9-0.3,0.9-0.8c0-0.5-0.3-0.9-1.1-0.9c-0.2,0-0.4,0-0.5,0l0.3-1.9
			h1.9V40.2z"/>

</svg>