<?xml version="1.0" encoding="utf-8"?>
<!-- Generator: Adobe Illustrator 26.2.1, SVG Export Plug-In . SVG Version: 6.00 Build 0)  -->
<svg version="1.1" xmlns="http://www.w3.org/2000/svg" xmlns:xlink="http://www.w3.org/1999/xlink" x="0px" y="0px"
	 viewBox="0 0 100 100" style="enable-background:new 0 0 100 100;" xml:space="preserve" width = "100px" height = "100px">
<style type="text/css">
	.st0{display:none;}
	.st1{display:inline;}
</style> 

	<rect x="17.2" y="27.6" class="st5" width="12.6" height="0"/>

		<path d="M22.7,76.6h57h13.9v6H78.8h-57c-0.5,2.3-0.9,4.5-1.3,6.4l-6.7-0.4c1.7-7.8,3.7-18.7,5.5-29.9l1-6.2
			c1.2-8,2.4-15.9,3.2-22.8h6.9l-1,6c-0.8,5.3-1.7,11.1-2.5,16.8c0,0-2,12.4-1,6.2 M91.2,19.9H26.9c-4,6.1-9.1,12.4-15.3,17.9
			c-1.3-1.4-3.7-3.2-5.5-4.1c10.8-8.9,18.1-20.9,22-30.3c6.7,0.9,7.7,1.1,8.6,1.2c-0.1,0.8-0.8,1.2-2,1.3c-1.1,2.5-2.5,5.1-4,7.8
			h60.5V19.9z"/>


			<path class="st1" d="M33.1,32.9l-5.9,32.7c-0.6,3.4,1.9,6.5,5.3,6.6l20.9,0.8"/>
	
				<path d="M58,73.1c-2.2,0.7-4.8,2-6.5,3.3l1.4-3.5l-1.2-3.6C53.3,70.8,55.9,72.2,58,73.1z"/>

	<text transform="matrix(1 0 0 1 34.7512 37.3388)" class="st6 st2 st3">3</text>

</svg>