<?xml version="1.0" encoding="utf-8"?>
<!-- Generator: Adobe Illustrator 26.2.1, SVG Export Plug-In . SVG Version: 6.00 Build 0)  -->
<svg version="1.1" xmlns="http://www.w3.org/2000/svg" xmlns:xlink="http://www.w3.org/1999/xlink" x="0px" y="0px"
	 viewBox="0 0 100 100" style="enable-background:new 0 0 100 100;" xml:space="preserve" width = "100px" height = "100px">
<style type="text/css">
	.st0{display:none;}
	.st1{display:inline;}
</style>


	<rect x="17.2" y="27.6" class="st0" width="12.6" height="0"/>

		<path d="M96.3,58.7H81.5C81,66,80.4,71.9,79.7,76.6h13.9v6H78.8c-2.7,13.3-6.9,14-15.2,14c-3,0-6.7-0.1-10.4-0.4
			c-0.1-1.6-0.7-3.9-1.7-5.5c5.9,0.6,11.1,0.7,13.3,0.7c3.6,0,5.4-1.4,7.1-8.8H21.8c-0.5,2.3-0.9,4.5-1.3,6.4l-6.7-0.4
			c1.7-7.8,3.7-18.7,5.5-29.9H3.7v-6.2h16.6c1.2-8,2.4-15.9,3.2-22.8h54.6l1.6-0.2l3.7,0.5c-0.1,0.6-0.1,1.4-0.3,2.1
			c-0.4,7.7-0.8,14.5-1.2,20.4h14.4V58.7z M91.2,19.9H26.9c-4,6.1-9.1,12.4-15.3,17.9c-1.3-1.4-3.7-3.2-5.5-4.1
			c10.8-8.9,18.1-20.9,22-30.3c6.7,0.9,7.7,1.1,8.6,1.2c-0.1,0.8-0.8,1.2-2,1.3c-1.1,2.5-2.5,5.1-4,7.8h60.5V19.9z M44.2,76.6
			c0.8-5.2,1.7-11.4,2.4-17.9H25.9c-1,6.2-2,12.4-3,17.9H44.2z M47.4,52.5c0.6-5.8,1.2-11.6,1.6-16.8H29.4
			c-0.8,5.3-1.7,11.1-2.5,16.8H47.4z M52.8,58.7c-0.8,6.5-1.6,12.8-2.3,17.9H73c0.7-4.6,1.4-10.4,1.9-17.9H52.8z M55.4,35.6
			c-0.5,5.3-1.2,11-1.8,16.8h21.8c0.3-5,0.7-10.6,1-16.8H55.4z"/>

		<line x1="4.2" y1="63" x2="17.2" y2="63"/>
	
			<line class="st1" x1="4.2" y1="63" x2="12.7" y2="63"/>
	
				<path d="M17.2,63c-2.1,0.8-4.8,2.1-6.4,3.6l1.3-3.6l-1.3-3.6C12.4,60.9,15.1,62.2,17.2,63z"/>

	<text transform="matrix(1 0 0 1 3.6968 69.3778)" class="st2 st3">6</text>

 </svg>