<?xml version="1.0" encoding="utf-8"?>
<!-- Generator: Adobe Illustrator 26.2.1, SVG Export Plug-In . SVG Version: 6.00 Build 0)  -->
<svg version="1.1" xmlns="http://www.w3.org/2000/svg" xmlns:xlink="http://www.w3.org/1999/xlink" x="0px" y="0px"
	 viewBox="0 0 100 100" style="enable-background:new 0 0 100 100;" xml:space="preserve">
<style type="text/css">
	.st0{fill:none;}
	.st1{fill:none;stroke:#000000;stroke-width:1.5;stroke-miterlimit:10;}
	.st2{font-family:'MyriadPro-Regular';}
	.st3{font-size:6px;}
	.st4{display:none;}
	.st5{display:inline;fill:none;}
	.st6{display:inline;}
</style>
<g id="Stroke5">
	<rect x="17.2" y="27.6" class="st0" width="12.6" height="0"/>
	<g>
		<path d="M96.3,58.7H81.5C81,66,80.4,71.9,79.7,76.6h13.9v6H78.8c-2.7,13.3-6.9,14-15.2,14c-3,0-6.7-0.1-10.4-0.4
			c-0.1-1.6-0.7-3.9-1.7-5.5c5.9,0.6,11.1,0.7,13.3,0.7c3.6,0,5.4-1.4,7.1-8.8H21.8c-0.5,2.3-0.9,4.5-1.3,6.4l-6.7-0.4
			c1.7-7.8,3.7-18.7,5.5-29.9H3.7v-6.2h16.6c1.2-8,2.4-15.9,3.2-22.8h54.6l1.6-0.2l3.7,0.5c-0.1,0.6-0.1,1.4-0.3,2.1
			c-0.4,7.7-0.8,14.5-1.2,20.4h14.4V58.7z M91.2,19.9H26.9c-4,6.1-9.1,12.4-15.3,17.9c-1.3-1.4-3.7-3.2-5.5-4.1
			c10.8-8.9,18.1-20.9,22-30.3c6.7,0.9,7.7,1.1,8.6,1.2c-0.1,0.8-0.8,1.2-2,1.3c-1.1,2.5-2.5,5.1-4,7.8h60.5V19.9z M44.2,76.6
			c0.8-5.2,1.7-11.4,2.4-17.9H25.9c-1,6.2-2,12.4-3,17.9H44.2z M47.4,52.5c0.6-5.8,1.2-11.6,1.6-16.8H29.4
			c-0.8,5.3-1.7,11.1-2.5,16.8H47.4z M52.8,58.7c-0.8,6.5-1.6,12.8-2.3,17.9H73c0.7-4.6,1.4-10.4,1.9-17.9H52.8z M55.4,35.6
			c-0.5,5.3-1.2,11-1.8,16.8h21.8c0.3-5,0.7-10.6,1-16.8H55.4z"/>
	</g>
	<g>
		<line x1="4.2" y1="63" x2="17.2" y2="63"/>
		<g>
			<line class="st1" x1="4.2" y1="63" x2="12.7" y2="63"/>
			<g>
				<path d="M17.2,63c-2.1,0.8-4.8,2.1-6.4,3.6l1.3-3.6l-1.3-3.6C12.4,60.9,15.1,62.2,17.2,63z"/>
			</g>
		</g>
	</g>
	<text transform="matrix(1 0 0 1 3.6968 69.3778)" class="st2 st3">6</text>
</g>
<g id="Stroke4" class="st4">
	<rect x="17.2" y="27.6" class="st5" width="12.6" height="0"/>
	<g class="st6">
		<path d="M81.5,58.7C81,66,80.4,71.9,79.7,76.6h13.9v6H78.8c-2.7,13.3-6.9,14-15.2,14c-3,0-6.7-0.1-10.4-0.4
			c-0.1-1.6-0.7-3.9-1.7-5.5c5.9,0.6,11.1,0.7,13.3,0.7c3.6,0,5.4-1.4,7.1-8.8H21.8c-0.5,2.3-0.9,4.5-1.3,6.4l-6.7-0.4
			c1.7-7.8,3.7-18.7,5.5-29.9l1-6.2c1.2-8,2.4-15.9,3.2-22.8h54.6l1.6-0.2l3.7,0.5c-0.1,0.6-0.1,1.4-0.3,2.1
			c-0.4,7.7-0.8,14.5-1.2,20.4 M91.2,19.9H26.9c-4,6.1-9.1,12.4-15.3,17.9c-1.3-1.4-3.7-3.2-5.5-4.1c10.8-8.9,18.1-20.9,22-30.3
			c6.7,0.9,7.7,1.1,8.6,1.2c-0.1,0.8-0.8,1.2-2,1.3c-1.1,2.5-2.5,5.1-4,7.8h60.5V19.9z M47.4,52.5c0.6-5.8,1.2-11.6,1.6-16.8H29.4
			c-0.8,5.3-1.7,11.1-2.5,16.8l-1,6.2c-1,6.2-2,12.4-3,17.9h21.3c0.8-5.2,1.7-11.4,2.4-17.9 M52.8,58.7c-0.8,6.5-1.6,12.8-2.3,17.9
			H73c0.7-4.6,1.4-10.4,1.9-17.9l0.5-6.2c0.3-5,0.7-10.6,1-16.8h-21c-0.5,5.3-1.2,11-1.8,16.8"/>
	</g>
	<g class="st6">
		<path d="M57.8,57.8l-1.5-0.2c0.2-1.2,0.4-2.5,0.6-3.8c0.7-5,1-10.2,1-15.3l1.5,0c0,5.2-0.4,10.4-1.1,15.5
			C58.1,55.3,58,56.5,57.8,57.8z"/>
		<g>
			<path d="M56.2,62.1c-0.4-2.2-1.3-5.1-2.5-6.9l3.3,1.9l3.7-0.7C59.1,57.7,57.3,60.1,56.2,62.1z"/>
		</g>
	</g>
	<g class="st6">
		<path d="M63.3,40.2h-1.5l-0.2,1c0.1,0,0.2,0,0.3,0c0.3,0,0.6,0.1,0.8,0.2c0.3,0.2,0.6,0.5,0.6,1c0,0.8-0.6,1.3-1.5,1.3
			c-0.4,0-0.8-0.1-1-0.2l0.1-0.4c0.2,0.1,0.5,0.2,0.8,0.2c0.5,0,0.9-0.3,0.9-0.8c0-0.5-0.3-0.9-1.1-0.9c-0.2,0-0.4,0-0.5,0l0.3-1.9
			h1.9V40.2z"/>
	</g>
</g>
<g id="Stroke3" class="st4">
	<rect x="17.2" y="27.6" class="st5" width="12.6" height="0"/>
	<g class="st6">
		<path d="M81.5,58.7C81,66,80.4,71.9,79.7,76.6h13.9v6H78.8c-2.7,13.3-6.9,14-15.2,14c-3,0-6.7-0.1-10.4-0.4
			c-0.1-1.6-0.7-3.9-1.7-5.5c5.9,0.6,11.1,0.7,13.3,0.7c3.6,0,5.4-1.4,7.1-8.8H21.8c-0.5,2.3-0.9,4.5-1.3,6.4l-6.7-0.4
			c1.7-7.8,3.7-18.7,5.5-29.9l1-6.2c1.2-8,2.4-15.9,3.2-22.8h54.6l1.6-0.2l3.7,0.5c-0.1,0.6-0.1,1.4-0.3,2.1
			c-0.4,7.7-0.8,14.5-1.2,20.4 M91.2,19.9H26.9c-4,6.1-9.1,12.4-15.3,17.9c-1.3-1.4-3.7-3.2-5.5-4.1c10.8-8.9,18.1-20.9,22-30.3
			c6.7,0.9,7.7,1.1,8.6,1.2c-0.1,0.8-0.8,1.2-2,1.3c-1.1,2.5-2.5,5.1-4,7.8h60.5V19.9z M75.4,52.5c0.3-5,0.7-10.6,1-16.8h-47
			c-0.8,5.3-1.7,11.1-2.5,16.8l-1,6.2c-1,6.2-2,12.4-3,17.9c1,0,50.1,0,50.1,0c0.7-4.6,1.4-10.4,1.9-17.9"/>
	</g>
	<g class="st6">
		<g>
			<path class="st1" d="M36.8,37.8c0.5-0.1,21.2-0.1,30.9,0c2.6,0,4.6,2.3,4.4,4.8l-0.4,4.3"/>
			<g>
				<path d="M71.2,51.5c-0.6-2.2-1.7-5-2.9-6.7l3.4,1.6l3.7-0.9C73.8,46.9,72.2,49.4,71.2,51.5z"/>
			</g>
		</g>
	</g>
	<text transform="matrix(1 0 0 1 36.3436 44.155)" class="st6 st2 st3">4</text>
</g>
<g id="Stroke2" class="st4">
	<rect x="17.2" y="27.6" class="st5" width="12.6" height="0"/>
	<g class="st6">
		<path d="M22.7,76.6h57h13.9v6H78.8h-57c-0.5,2.3-0.9,4.5-1.3,6.4l-6.7-0.4c1.7-7.8,3.7-18.7,5.5-29.9l1-6.2
			c1.2-8,2.4-15.9,3.2-22.8h6.9l-1,6c-0.8,5.3-1.7,11.1-2.5,16.8c0,0-2,12.4-1,6.2 M91.2,19.9H26.9c-4,6.1-9.1,12.4-15.3,17.9
			c-1.3-1.4-3.7-3.2-5.5-4.1c10.8-8.9,18.1-20.9,22-30.3c6.7,0.9,7.7,1.1,8.6,1.2c-0.1,0.8-0.8,1.2-2,1.3c-1.1,2.5-2.5,5.1-4,7.8
			h60.5V19.9z"/>
	</g>
	<g class="st6">
		<g>
			<path class="st1" d="M33.1,32.9l-5.9,32.7c-0.6,3.4,1.9,6.5,5.3,6.6l20.9,0.8"/>
			<g>
				<path d="M58,73.1c-2.2,0.7-4.8,2-6.5,3.3l1.4-3.5l-1.2-3.6C53.3,70.8,55.9,72.2,58,73.1z"/>
			</g>
		</g>
	</g>
	<text transform="matrix(1 0 0 1 34.7512 37.3388)" class="st6 st2 st3">3</text>
</g>
<g id="Stroke1" class="st4">
	<rect x="17.2" y="27.6" class="st5" width="12.6" height="0"/>
	<g class="st6">
		<path d="M71.9,82.6 M91.2,19.9H26.9c-4,6.1-9.1,12.4-15.3,17.9c-1.3-1.4-3.7-3.2-5.5-4.1c10.8-8.9,18.1-20.9,22-30.3
			c6.7,0.9,7.7,1.1,8.6,1.2c-0.1,0.8-0.8,1.2-2,1.3c-1.1,2.5-2.5,5.1-4,7.8h60.5V19.9z"/>
	</g>
	<g class="st6">
		<line x1="29.3" y1="24.6" x2="56.1" y2="24.6"/>
		<g>
			<rect x="29.3" y="23.8" width="22.3" height="1.5"/>
			<g>
				<path d="M56.1,24.6c-2.1,0.8-4.8,2.1-6.4,3.6l1.3-3.6L49.7,21C51.3,22.5,54,23.8,56.1,24.6z"/>
			</g>
		</g>
	</g>
	<g class="st6">
		<path d="M29.5,30.8v-0.3l0.4-0.4c1-0.9,1.4-1.5,1.5-2c0-0.4-0.2-0.8-0.8-0.8c-0.4,0-0.6,0.2-0.8,0.3l-0.2-0.4
			c0.3-0.2,0.7-0.4,1.1-0.4c0.8,0,1.2,0.6,1.2,1.1c0,0.7-0.5,1.3-1.3,2.1l-0.3,0.3v0H32v0.4H29.5z"/>
	</g>
</g>
<g id="Stroke0" class="st4">
	<rect x="17.2" y="27.6" class="st5" width="12.6" height="0"/>
	<g class="st6">
		<path d="M26.9,19.9c-4,6.1-9.1,12.4-15.3,17.9c-1.3-1.4-3.7-3.2-5.5-4.1c10.8-8.9,18.1-20.9,22-30.3c6.7,0.9,7.7,1.1,8.6,1.2
			c-0.1,0.8-0.8,1.2-2,1.3c-1.1,2.5-2.5,5.1-4,7.8"/>
	</g>
	<g class="st6">
		<path d="M30.9,22.6l-1.2-0.9l0.3-0.4c2.8-3.8,5.3-7.8,7.6-11.9l1.3,0.7c-2.3,4.2-4.9,8.3-7.7,12.1L30.9,22.6z"/>
		<g>
			<path d="M27.5,25.7c0.7-2.2,1.2-5.1,1.1-7.3l2.1,3.2l3.6,1.1C32.1,23.3,29.4,24.5,27.5,25.7z"/>
		</g>
	</g>
	<g class="st6">
		<path d="M41.2,11.5L41.2,11.5l-0.7,0.4l-0.1-0.4l0.9-0.5h0.4v3.9h-0.5V11.5z"/>
	</g>
</g>
<g id="Kanji" class="st4">
	<rect x="17.2" y="27.6" class="st5" width="12.6" height="0"/>
	<g class="st6">
		<path d="M96.3,58.7H81.5C81,66,80.4,71.9,79.7,76.6h13.9v6H78.8c-2.7,13.3-6.9,14-15.2,14c-3,0-6.7-0.1-10.4-0.4
			c-0.1-1.6-0.7-3.9-1.7-5.5c5.9,0.6,11.1,0.7,13.3,0.7c3.6,0,5.4-1.4,7.1-8.8H21.8c-0.5,2.3-0.9,4.5-1.3,6.4l-6.7-0.4
			c1.7-7.8,3.7-18.7,5.5-29.9H3.7v-6.2h16.6c1.2-8,2.4-15.9,3.2-22.8h54.6l1.6-0.2l3.7,0.5c-0.1,0.6-0.1,1.4-0.3,2.1
			c-0.4,7.7-0.8,14.5-1.2,20.4h14.4V58.7z M91.2,19.9H26.9c-4,6.1-9.1,12.4-15.3,17.9c-1.3-1.4-3.7-3.2-5.5-4.1
			c10.8-8.9,18.1-20.9,22-30.3c6.7,0.9,7.7,1.1,8.6,1.2c-0.1,0.8-0.8,1.2-2,1.3c-1.1,2.5-2.5,5.1-4,7.8h60.5V19.9z M44.2,76.6
			c0.8-5.2,1.7-11.4,2.4-17.9H25.9c-1,6.2-2,12.4-3,17.9H44.2z M47.4,52.5c0.6-5.8,1.2-11.6,1.6-16.8H29.4
			c-0.8,5.3-1.7,11.1-2.5,16.8H47.4z M52.8,58.7c-0.8,6.5-1.6,12.8-2.3,17.9H73c0.7-4.6,1.4-10.4,1.9-17.9H52.8z M55.4,35.6
			c-0.5,5.3-1.2,11-1.8,16.8h21.8c0.3-5,0.7-10.6,1-16.8H55.4z"/>
	</g>
</g>
</svg>
