<?xml version="1.0" encoding="utf-8"?>
<!-- Generator: Adobe Illustrator 26.2.1, SVG Export Plug-In . SVG Version: 6.00 Build 0)  -->
<svg version="1.1" xmlns="http://www.w3.org/2000/svg" xmlns:xlink="http://www.w3.org/1999/xlink" x="0px" y="0px"
	 viewBox="0 0 100 100" style="enable-background:new 0 0 100 100;" xml:space="preserve">
<style type="text/css">
	.st0{display:none;}
	.st1{display:inline;}
	.st2{fill:none;stroke:#000000;stroke-width:1.5;stroke-miterlimit:10;}
</style>
<g id="Stroke7">
	<g>
		<path d="M50.8,56.3c2.8,5.8,6.5,10.9,11,15.4c7.6-4,16.8-9.8,22.4-14.2l6.4,4.6c-0.4,0.5-1.3,0.6-2.2,0.5
			c-5.8,3.9-14.8,9-22.3,12.9c7.9,6.3,18,10.8,29.9,13.1c-1.4,1.4-3.2,4.1-4.2,6C68.5,89.2,52.5,76.2,44,56.3H28.9v27.9
			c8.6-1.4,18.1-3,27.3-4.6l0.3,5.6c-15.9,3-32.9,6.1-43.4,7.9c-0.1,0.8-0.7,1.3-1.3,1.5l-3-7.3c3.8-0.6,8.2-1.2,13.2-2v-29H4v-6.2
			h18V5.4h62.8v5.8H28.9v9.1h52.8v5.6H28.9V35h52.8v5.6H28.9v9.4h65.6v6.2H50.8z"/>
	</g>
	<g>
		<path d="M74.1,75.5c1.4-0.8,11.1-6,11.1-6"/>
		<g>
			<path d="M74.5,76.2l-0.7-1.3c0.6-0.4,2.9-1.6,7.1-3.8l0.7,1.3C77.4,74.6,75.1,75.8,74.5,76.2z"/>
			<g>
				<path d="M85.2,69.6c-1.5,1.7-3.2,4.1-4,6.2L80.7,72l-2.8-2.5C80,69.9,82.9,69.9,85.2,69.6z"/>
			</g>
		</g>
	</g>
	<g>
		<path d="M70.5,76.8c0-0.5,0.3-0.8,0.8-1l0,0c-0.4-0.2-0.6-0.5-0.6-0.9c0-0.6,0.5-1,1.2-1c0.8,0,1.1,0.5,1.1,1
			c0,0.3-0.2,0.7-0.6,0.9v0c0.5,0.2,0.8,0.5,0.8,1c0,0.7-0.6,1.1-1.3,1.1C71,77.8,70.5,77.3,70.5,76.8z M72.6,76.8
			c0-0.5-0.3-0.7-0.9-0.9c-0.5,0.1-0.7,0.4-0.7,0.8c0,0.4,0.3,0.7,0.8,0.7C72.3,77.4,72.6,77.2,72.6,76.8z M71.2,74.8
			c0,0.4,0.3,0.6,0.7,0.7c0.3-0.1,0.6-0.4,0.6-0.7c0-0.3-0.2-0.6-0.7-0.6C71.4,74.2,71.2,74.5,71.2,74.8z"/>
	</g>
</g>
<g id="Stroke6" class="st0">
	<g class="st1">
		<path d="M66.1,75.5c7.9,6.3,18,10.8,29.9,13.1c-1.4,1.4-3.2,4.1-4.2,6C68.5,89.2,52.5,76.2,44,56.3H28.9v27.9
			c8.6-1.4,18.1-3,27.3-4.6l0.3,5.6c-15.9,3-32.9,6.1-43.4,7.9c-0.1,0.8-0.7,1.3-1.3,1.5l-3-7.3c3.8-0.6,8.2-1.2,13.2-2v-29H4v-6.2
			h18V5.4h62.8v5.8H28.9v9.1h52.8v5.6H28.9V35h52.8v5.6H28.9v9.4h65.6v6.2H50.8c2.8,5.8,6.5,10.9,11,15.4"/>
	</g>
	<g class="st1">
		<g>
			<path class="st2" d="M57.5,60.1c1.7,2.6,4.1,5.5,7.2,8.4c0.5,0.4,0.9,0.9,1.4,1.3"/>
			<g>
				<path d="M69.6,72.7c-2.1-0.8-5-1.4-7.2-1.4l3.3-1.9l1.3-3.6C67.3,68,68.5,70.7,69.6,72.7z"/>
			</g>
		</g>
	</g>
	<g class="st1">
		<path d="M56.4,57v0.3l-1.7,3.5h-0.5l1.7-3.4v0H54V57H56.4z"/>
	</g>
</g>
<g id="Stroke5" class="st0">
	<g class="st1">
		<path d="M44,56.3H28.9v27.9c8.6-1.4,18.1-3,27.3-4.6l0.3,5.6c-15.9,3-32.9,6.1-43.4,7.9c-0.1,0.8-0.7,1.3-1.3,1.5l-3-7.3
			c3.8-0.6,8.2-1.2,13.2-2v-29H4v-6.2h18V5.4h62.8v5.8H28.9v9.1h52.8v5.6H28.9V35h52.8v5.6H28.9v9.4h65.6v6.2H50.8 M66.1,75.5"/>
	</g>
	<g class="st1">
		<path d="M34.4,79.4c-0.9,0-1.8-0.3-2.5-0.9c-0.8-0.7-1.2-1.6-1.2-2.6V58.2h1.5v17.7c0,0.6,0.2,1.1,0.7,1.5
			c0.5,0.4,1.1,0.6,1.8,0.5l9.1-1.2l0.2,1.5l-9.1,1.2C34.8,79.4,34.6,79.4,34.4,79.4z"/>
		<g>
			<path d="M48.6,76.9c-2.1,1.1-4.5,2.8-6,4.5l0.8-3.8l-1.8-3.4C43.4,75.3,46.3,76.3,48.6,76.9z"/>
		</g>
	</g>
	<g class="st1">
		<path d="M36.1,58.6c-0.1,0-0.2,0-0.4,0c-0.8,0.1-1.3,0.7-1.4,1.4h0c0.2-0.2,0.5-0.4,0.9-0.4c0.7,0,1.2,0.5,1.2,1.3
			c0,0.7-0.5,1.4-1.3,1.4c-0.8,0-1.4-0.6-1.4-1.7c0-0.8,0.3-1.4,0.7-1.8c0.3-0.3,0.8-0.5,1.2-0.6c0.2,0,0.3,0,0.4,0V58.6z
			 M35.9,60.9c0-0.6-0.3-0.9-0.8-0.9c-0.3,0-0.6,0.2-0.8,0.5c0,0.1-0.1,0.1-0.1,0.2c0,0.6,0.3,1.1,0.9,1.1
			C35.6,61.8,35.9,61.4,35.9,60.9z"/>
	</g>
</g>
<g id="Stroke4" class="st0">
	<g class="st1">
		<path d="M22,56.3H4v-6.2h18V5.4h62.8v5.8H28.9v9.1h52.8v5.6H28.9V35h52.8v5.6H28.9v9.4h65.6v6.2H50.8H44H28.9"/>
	</g>
	<g class="st1">
		<line x1="5" y1="60.4" x2="17.8" y2="60.4"/>
		<g>
			<rect x="5" y="59.7" width="8.3" height="1.5"/>
			<g>
				<path d="M17.8,60.4c-2.1,0.8-4.8,2.1-6.4,3.6l1.3-3.6l-1.3-3.6C13,58.3,15.7,59.6,17.8,60.4z"/>
			</g>
		</g>
	</g>
	<g class="st1">
		<path d="M7.6,62.8H6.1l-0.1,1c0.1,0,0.2,0,0.3,0c0.3,0,0.6,0.1,0.8,0.2c0.3,0.2,0.6,0.5,0.6,1c0,0.8-0.6,1.3-1.5,1.3
			c-0.4,0-0.8-0.1-1-0.2l0.1-0.4c0.2,0.1,0.5,0.2,0.8,0.2c0.5,0,0.9-0.3,0.9-0.8c0-0.5-0.3-0.9-1.1-0.9c-0.2,0-0.4,0-0.5,0l0.3-1.9
			h1.9V62.8z"/>
	</g>
</g>
<g id="Stroke3" class="st0">
	<g class="st1">
		<path d="M22,50.1V5.4h62.8v5.8H28.9v9.1h52.8v5.6H28.9V35h52.8v5.6H28.9v9.4"/>
	</g>
	<g class="st1">
		<line x1="30.5" y1="44.4" x2="44.3" y2="44.4"/>
		<g>
			<rect x="30.5" y="43.6" width="9.2" height="1.5"/>
			<g>
				<path d="M44.3,44.4c-2.1,0.8-4.8,2.1-6.4,3.6l1.3-3.6l-1.3-3.6C39.5,42.2,42.1,43.6,44.3,44.4z"/>
			</g>
		</g>
	</g>
	<g class="st1">
		<path d="M32.6,49.6v-1.1h-1.8v-0.3l1.7-2.5h0.6v2.4h0.5v0.4h-0.5v1.1H32.6z M32.6,48.1v-1.3c0-0.2,0-0.4,0-0.6h0
			c-0.1,0.2-0.2,0.4-0.3,0.6l-1,1.3v0H32.6z"/>
	</g>
</g>
<g id="Stroke2" class="st0">
	<g class="st1">
		<path d="M22,50.1V5.4h62.8v5.8H28.9v9.1h52.8v5.6H28.9V35v5.6v9.4"/>
	</g>
	<g class="st1">
		<path d="M30.1,30c3.4,0,15.9-0.1,16.2,0"/>
		<g>
			<path d="M30.1,30.7v-1.5c1,0,2.7,0,4.7,0c2.3,0,4.9,0,7,0l0,1.5c-2.1,0-4.7,0-7,0C32.8,30.7,31,30.7,30.1,30.7z"/>
			<g>
				<path d="M46.3,30c-2.1,0.8-4.8,2.1-6.4,3.5l1.3-3.6l-1.3-3.6C41.5,27.8,44.1,29.2,46.3,30z"/>
			</g>
		</g>
	</g>
	<g class="st1">
		<path d="M30.5,35.8c0.1,0.1,0.5,0.2,0.9,0.2c0.7,0,0.9-0.4,0.9-0.8c0-0.5-0.5-0.8-1-0.8h-0.3v-0.4h0.3c0.4,0,0.9-0.2,0.9-0.7
			c0-0.3-0.2-0.6-0.7-0.6c-0.3,0-0.6,0.1-0.8,0.3l-0.1-0.4c0.2-0.1,0.6-0.3,1-0.3c0.8,0,1.1,0.5,1.1,0.9c0,0.4-0.2,0.7-0.7,0.9v0
			c0.5,0.1,0.9,0.5,0.9,1c0,0.6-0.5,1.2-1.4,1.2c-0.4,0-0.8-0.1-1-0.3L30.5,35.8z"/>
	</g>
</g>
<g id="Stroke1" class="st0">
	<g class="st1">
		<path d="M22,50.1V5.4h62.8v5.8H28.9v9.1c0,1.6,0,5.6,0,5.6V35v5.6v9.4"/>
	</g>
	<g class="st1">
		<line x1="30.2" y1="14.8" x2="44.6" y2="14.8"/>
		<g>
			<rect x="30.2" y="14.1" width="9.9" height="1.5"/>
			<g>
				<path d="M44.6,14.8c-2.1,0.8-4.8,2.1-6.4,3.6l1.3-3.6l-1.3-3.6C39.8,12.7,42.5,14,44.6,14.8z"/>
			</g>
		</g>
	</g>
	<g class="st1">
		<path d="M30.5,21v-0.3l0.4-0.4c1-0.9,1.4-1.5,1.5-2c0-0.4-0.2-0.8-0.8-0.8c-0.4,0-0.6,0.2-0.8,0.3l-0.2-0.4
			c0.3-0.2,0.7-0.4,1.1-0.4c0.8,0,1.2,0.6,1.2,1.1c0,0.7-0.5,1.3-1.3,2.1l-0.3,0.3v0H33V21H30.5z"/>
	</g>
</g>
<g id="Stroke0" class="st0">
	<g class="st1">
		<path d="M28.9,5.4v5.8v9.1v5.6V35v5.6v9.4H22V5.4"/>
	</g>
	<g class="st1">
		<line x1="33.2" y1="5.4" x2="33.2" y2="17.6"/>
		<g>
			<rect x="32.5" y="5.4" width="1.5" height="7.7"/>
			<g>
				<path d="M33.2,17.6c-0.8-2.1-2.1-4.8-3.6-6.4l3.6,1.3l3.6-1.3C35.4,12.9,34,15.5,33.2,17.6z"/>
			</g>
		</g>
	</g>
	<g class="st1">
		<path d="M36.6,5.3L36.6,5.3l-0.7,0.4l-0.1-0.4l0.9-0.5h0.4v3.9h-0.5V5.3z"/>
	</g>
</g>
<g id="Kanji" class="st0">
	<g class="st1">
		<path d="M50.8,56.3c2.8,5.8,6.5,10.9,11,15.4c7.6-4,16.8-9.8,22.4-14.2l6.4,4.6c-0.4,0.5-1.3,0.6-2.2,0.5
			c-5.8,3.9-14.8,9-22.3,12.9c7.9,6.3,18,10.8,29.9,13.1c-1.4,1.4-3.2,4.1-4.2,6C68.5,89.2,52.5,76.2,44,56.3H28.9v27.9
			c8.6-1.4,18.1-3,27.3-4.6l0.3,5.6c-15.9,3-32.9,6.1-43.4,7.9c-0.1,0.8-0.7,1.3-1.3,1.5l-3-7.3c3.8-0.6,8.2-1.2,13.2-2v-29H4v-6.2
			h18V5.4h62.8v5.8H28.9v9.1h52.8v5.6H28.9V35h52.8v5.6H28.9v9.4h65.6v6.2H50.8z"/>
	</g>
</g>
</svg>
