<?xml version="1.0" encoding="utf-8"?>
<!-- Generator: Adobe Illustrator 26.2.1, SVG Export Plug-In . SVG Version: 6.00 Build 0)  -->
<svg version="1.1" xmlns="http://www.w3.org/2000/svg" xmlns:xlink="http://www.w3.org/1999/xlink" x="0px" y="0px"
	 viewBox="0 0 100 100" style="enable-background:new 0 0 100 100;" xml:space="preserve" width = "100px" height = "100px">
<style type="text/css">
	.st0{display:none;}
	.st1{display:inline;}
</style>


		<path d="M44,56.3H28.9v27.9c8.6-1.4,18.1-3,27.3-4.6l0.3,5.6c-15.9,3-32.9,6.1-43.4,7.9c-0.1,0.8-0.7,1.3-1.3,1.5l-3-7.3
			c3.8-0.6,8.2-1.2,13.2-2v-29H4v-6.2h18V5.4h62.8v5.8H28.9v9.1h52.8v5.6H28.9V35h52.8v5.6H28.9v9.4h65.6v6.2H50.8 M66.1,75.5"/>


		<path d="M34.4,79.4c-0.9,0-1.8-0.3-2.5-0.9c-0.8-0.7-1.2-1.6-1.2-2.6V58.2h1.5v17.7c0,0.6,0.2,1.1,0.7,1.5
			c0.5,0.4,1.1,0.6,1.8,0.5l9.1-1.2l0.2,1.5l-9.1,1.2C34.8,79.4,34.6,79.4,34.4,79.4z"/>

			<path d="M48.6,76.9c-2.1,1.1-4.5,2.8-6,4.5l0.8-3.8l-1.8-3.4C43.4,75.3,46.3,76.3,48.6,76.9z"/>

		<path d="M36.1,58.6c-0.1,0-0.2,0-0.4,0c-0.8,0.1-1.3,0.7-1.4,1.4h0c0.2-0.2,0.5-0.4,0.9-0.4c0.7,0,1.2,0.5,1.2,1.3
			c0,0.7-0.5,1.4-1.3,1.4c-0.8,0-1.4-0.6-1.4-1.7c0-0.8,0.3-1.4,0.7-1.8c0.3-0.3,0.8-0.5,1.2-0.6c0.2,0,0.3,0,0.4,0V58.6z
			 M35.9,60.9c0-0.6-0.3-0.9-0.8-0.9c-0.3,0-0.6,0.2-0.8,0.5c0,0.1-0.1,0.1-0.1,0.2c0,0.6,0.3,1.1,0.9,1.1
			C35.6,61.8,35.9,61.4,35.9,60.9z"/>



 </svg>