<?xml version="1.0" encoding="utf-8"?>
<!-- Generator: Adobe Illustrator 26.2.1, SVG Export Plug-In . SVG Version: 6.00 Build 0)  -->
<svg version="1.1" xmlns="http://www.w3.org/2000/svg" xmlns:xlink="http://www.w3.org/1999/xlink" x="0px" y="0px"
	 viewBox="0 0 100 100" style="enable-background:new 0 0 100 100;" xml:space="preserve" width = "100px" height = "100px">
<style type="text/css">
	.st0{display:none;}
	.st1{display:inline;}
</style>

		<path d="M50.8,56.3c2.8,5.8,6.5,10.9,11,15.4c7.6-4,16.8-9.8,22.4-14.2l6.4,4.6c-0.4,0.5-1.3,0.6-2.2,0.5
			c-5.8,3.9-14.8,9-22.3,12.9c7.9,6.3,18,10.8,29.9,13.1c-1.4,1.4-3.2,4.1-4.2,6C68.5,89.2,52.5,76.2,44,56.3H28.9v27.9
			c8.6-1.4,18.1-3,27.3-4.6l0.3,5.6c-15.9,3-32.9,6.1-43.4,7.9c-0.1,0.8-0.7,1.3-1.3,1.5l-3-7.3c3.8-0.6,8.2-1.2,13.2-2v-29H4v-6.2
			h18V5.4h62.8v5.8H28.9v9.1h52.8v5.6H28.9V35h52.8v5.6H28.9v9.4h65.6v6.2H50.8z"/>

		<path d="M74.1,75.5c1.4-0.8,11.1-6,11.1-6"/>

			<path d="M74.5,76.2l-0.7-1.3c0.6-0.4,2.9-1.6,7.1-3.8l0.7,1.3C77.4,74.6,75.1,75.8,74.5,76.2z"/>
		
				<path d="M85.2,69.6c-1.5,1.7-3.2,4.1-4,6.2L80.7,72l-2.8-2.5C80,69.9,82.9,69.9,85.2,69.6z"/>

		<path d="M70.5,76.8c0-0.5,0.3-0.8,0.8-1l0,0c-0.4-0.2-0.6-0.5-0.6-0.9c0-0.6,0.5-1,1.2-1c0.8,0,1.1,0.5,1.1,1
			c0,0.3-0.2,0.7-0.6,0.9v0c0.5,0.2,0.8,0.5,0.8,1c0,0.7-0.6,1.1-1.3,1.1C71,77.8,70.5,77.3,70.5,76.8z M72.6,76.8
			c0-0.5-0.3-0.7-0.9-0.9c-0.5,0.1-0.7,0.4-0.7,0.8c0,0.4,0.3,0.7,0.8,0.7C72.3,77.4,72.6,77.2,72.6,76.8z M71.2,74.8
			c0,0.4,0.3,0.6,0.7,0.7c0.3-0.1,0.6-0.4,0.6-0.7c0-0.3-0.2-0.6-0.7-0.6C71.4,74.2,71.2,74.5,71.2,74.8z"/>


 </svg>