<?xml version="1.0" encoding="utf-8"?>
<!-- Generator: Adobe Illustrator 26.2.1, SVG Export Plug-In . SVG Version: 6.00 Build 0)  -->
<svg version="1.1" xmlns="http://www.w3.org/2000/svg" xmlns:xlink="http://www.w3.org/1999/xlink" x="0px" y="0px"
	 viewBox="0 0 100 100" style="enable-background:new 0 0 100 100;" xml:space="preserve" width = "100px" height = "100px">
<style type="text/css">
	.st0{display:none;}
	.st1{display:inline;}
</style> 

		<path d="M22,50.1V5.4h62.8v5.8H28.9v9.1h52.8v5.6H28.9V35v5.6v9.4"/>

		<path d="M30.1,30c3.4,0,15.9-0.1,16.2,0"/>

			<path d="M30.1,30.7v-1.5c1,0,2.7,0,4.7,0c2.3,0,4.9,0,7,0l0,1.5c-2.1,0-4.7,0-7,0C32.8,30.7,31,30.7,30.1,30.7z"/>
		
				<path d="M46.3,30c-2.1,0.8-4.8,2.1-6.4,3.5l1.3-3.6l-1.3-3.6C41.5,27.8,44.1,29.2,46.3,30z"/>

		<path d="M30.5,35.8c0.1,0.1,0.5,0.2,0.9,0.2c0.7,0,0.9-0.4,0.9-0.8c0-0.5-0.5-0.8-1-0.8h-0.3v-0.4h0.3c0.4,0,0.9-0.2,0.9-0.7
			c0-0.3-0.2-0.6-0.7-0.6c-0.3,0-0.6,0.1-0.8,0.3l-0.1-0.4c0.2-0.1,0.6-0.3,1-0.3c0.8,0,1.1,0.5,1.1,0.9c0,0.4-0.2,0.7-0.7,0.9v0
			c0.5,0.1,0.9,0.5,0.9,1c0,0.6-0.5,1.2-1.4,1.2c-0.4,0-0.8-0.1-1-0.3L30.5,35.8z"/>

</svg>