<?xml version="1.0" encoding="utf-8"?>
<!-- Generator: Adobe Illustrator 26.2.1, SVG Export Plug-In . SVG Version: 6.00 Build 0)  -->
<svg version="1.1" xmlns="http://www.w3.org/2000/svg" xmlns:xlink="http://www.w3.org/1999/xlink" x="0px" y="0px"
	 viewBox="0 0 100 100" style="enable-background:new 0 0 100 100;" xml:space="preserve" width = "100px" height = "100px">
<style type="text/css">
	.st0{display:none;}
	.st1{display:inline;}
</style> 


		<path d="M22,50.1V5.4h62.8v5.8H28.9v9.1h52.8v5.6H28.9V35h52.8v5.6H28.9v9.4"/>

		<line x1="30.5" y1="44.4" x2="44.3" y2="44.4"/>

			<rect x="30.5" y="43.6" width="9.2" height="1.5"/>
		
				<path d="M44.3,44.4c-2.1,0.8-4.8,2.1-6.4,3.6l1.3-3.6l-1.3-3.6C39.5,42.2,42.1,43.6,44.3,44.4z"/>

		<path d="M32.6,49.6v-1.1h-1.8v-0.3l1.7-2.5h0.6v2.4h0.5v0.4h-0.5v1.1H32.6z M32.6,48.1v-1.3c0-0.2,0-0.4,0-0.6h0
			c-0.1,0.2-0.2,0.4-0.3,0.6l-1,1.3v0H32.6z"/>

</svg>