<?xml version="1.0" encoding="utf-8"?>
<!-- Generator: Adobe Illustrator 26.2.1, SVG Export Plug-In . SVG Version: 6.00 Build 0)  -->
<svg version="1.1" xmlns="http://www.w3.org/2000/svg" xmlns:xlink="http://www.w3.org/1999/xlink" x="0px" y="0px"
	 viewBox="0 0 100 100" style="enable-background:new 0 0 100 100;" xml:space="preserve">
<style type="text/css">
	.st0{display:none;}
	.st1{display:inline;}
	.st2{fill:none;stroke:#000000;stroke-width:1.5;stroke-miterlimit:10;}
</style>
<g id="Stroke2">
	<g>
		<path d="M10.6,8.3h78.8v82.8h-7.2v-8.6H17.5v9.1h-6.9V8.3z M17.5,75.8h64.7V15H17.5V75.8z"/>
	</g>
	<g>
		<path d="M20,86.9c1.9,0,23.7,0,23.7,0"/>
		<g>
			<rect x="20" y="86.1" width="19.2" height="1.5"/>
			<g>
				<path d="M43.7,86.9c-2.1,0.8-4.8,2.1-6.4,3.6l1.3-3.6l-1.3-3.6C38.9,84.7,41.6,86.1,43.7,86.9z"/>
			</g>
		</g>
	</g>
	<g>
		<path d="M20.8,92.4c0.1,0.1,0.5,0.2,0.9,0.2c0.7,0,0.9-0.4,0.9-0.8c0-0.5-0.5-0.8-1-0.8h-0.3v-0.4h0.3c0.4,0,0.9-0.2,0.9-0.7
			c0-0.3-0.2-0.6-0.7-0.6c-0.3,0-0.6,0.1-0.8,0.3l-0.1-0.4c0.2-0.1,0.6-0.3,1-0.3c0.8,0,1.1,0.5,1.1,0.9c0,0.4-0.2,0.7-0.7,0.9v0
			c0.5,0.1,0.9,0.5,0.9,1c0,0.6-0.5,1.2-1.4,1.2c-0.4,0-0.8-0.1-1-0.3L20.8,92.4z"/>
	</g>
</g>
<g id="Stroke1" class="st0">
	<g class="st1">
		<path d="M82.2,15H17.5v60.7v6.8v9.1h-6.9V8.3h78.8v82.8h-7.2"/>
	</g>
	<g class="st1">
		<path d="M20.7,19.9c1.3,0,21.9,0,21.9,0"/>
		<g>
			<rect x="20.7" y="19.1" width="17.4" height="1.5"/>
			<g>
				<path d="M42.6,19.9c-2.1,0.8-4.8,2.1-6.4,3.6l1.3-3.6l-1.3-3.6C37.9,17.8,40.5,19.1,42.6,19.9z"/>
			</g>
		</g>
	</g>
	<g class="st1">
		<path d="M20.4,26.7v-0.3l0.4-0.4c1-0.9,1.4-1.5,1.5-2c0-0.4-0.2-0.8-0.8-0.8c-0.4,0-0.6,0.2-0.8,0.3l-0.2-0.4
			c0.3-0.2,0.7-0.4,1.1-0.4c0.8,0,1.2,0.6,1.2,1.1c0,0.7-0.5,1.3-1.3,2.1l-0.3,0.3v0h1.8v0.4H20.4z"/>
	</g>
</g>
<g id="Stroke0" class="st0">
	<g class="st1">
		<path d="M17.5,8.3V15v60.7v6.8v9.1h-6.9V8.3"/>
	</g>
	<g class="st1">
		<path d="M21.6,9.1c0,1.3,0,14.4,0,14.4"/>
		<g>
			<path class="st2" d="M21.6,9.1c0,0.8,0,6,0,9.9"/>
			<g>
				<path d="M21.6,23.6c-0.8-2.1-2.1-4.8-3.6-6.4l3.6,1.3l3.6-1.3C23.7,18.8,22.3,21.4,21.6,23.6z"/>
			</g>
		</g>
	</g>
	<g class="st1">
		<path d="M26.4,9.6L26.4,9.6l-0.7,0.4l-0.1-0.4l0.9-0.5h0.4V13h-0.5V9.6z"/>
	</g>
</g>
<g id="Kanji" class="st0">
	<g class="st1">
		<path d="M10.6,8.3h78.8v82.8h-7.2v-8.6H17.5v9.1h-6.9V8.3z M17.5,75.8h64.7V15H17.5V75.8z"/>
	</g>
</g>
</svg>
