<?xml version="1.0" encoding="utf-8"?>
<!-- Generator: Adobe Illustrator 26.2.1, SVG Export Plug-In . SVG Version: 6.00 Build 0)  -->
<svg version="1.1" xmlns="http://www.w3.org/2000/svg" xmlns:xlink="http://www.w3.org/1999/xlink" x="0px" y="0px"
	 viewBox="0 0 100 100" style="enable-background:new 0 0 100 100;" xml:space="preserve" width = "100px" height = "100px">
<style type="text/css">
	.st0{display:none;}
	.st1{display:inline;}
</style> 

	<rect x="17.2" y="27.6" class="st2" width="12.6" height="0"/>

		<path d="M42.9,20.3v5.6h-40v-5.6H42.9z M39.1,7v5.5H8.2V7H39.1z"/>

		<path d="M4,30.6c1.8,0,23.2,0,23.2,0"/>

			<rect x="4" y="29.8" width="18.7" height="1.5"/>

				<path d="M27.2,30.6c-2.1,0.8-4.8,2.1-6.4,3.6l1.3-3.6L20.8,27C22.5,28.5,25.1,29.8,27.2,30.6z"/>

		<path d="M4.3,37.1v-0.3l0.4-0.4c1-0.9,1.4-1.5,1.5-2c0-0.4-0.2-0.8-0.8-0.8c-0.4,0-0.6,0.2-0.8,0.3l-0.2-0.4
			c0.3-0.2,0.7-0.4,1.1-0.4c0.8,0,1.2,0.6,1.2,1.1c0,0.7-0.5,1.3-1.3,2.1L5,36.7v0h1.8v0.4H4.3z"/>

</svg>