<?xml version="1.0" encoding="utf-8"?>
<!-- Generator: Adobe Illustrator 26.2.1, SVG Export Plug-In . SVG Version: 6.00 Build 0)  -->
<svg version="1.1" xmlns="http://www.w3.org/2000/svg" xmlns:xlink="http://www.w3.org/1999/xlink" x="0px" y="0px"
	 viewBox="0 0 100 100" style="enable-background:new 0 0 100 100;" xml:space="preserve" width = "100px" height = "100px">
<style type="text/css">
	.st0{display:none;}
	.st1{display:inline;}
</style>

	<rect x="17.2" y="27.6" class="st0" width="12.6" height="0"/>

		<path d="M42.9,20.3v5.6h-40v-5.6H42.9z M38.8,61.2v29.4H13.6v4.7h-6V61.2H38.8z M7.7,39.4v-5.5h31.4v5.5H7.7z M7.7,53v-5.5h31.4
			V53H7.7z M39.1,7v5.5H8.2V7H39.1z M32.7,66.9H13.6v18h19.1V66.9z M97.1,38.2v6.6H73.9v51.5h-6.8V44.8H42.9v-6.6h24.2V3.6l8.8,0.6
			c-0.1,0.7-0.6,1.2-2,1.4v32.6H97.1z"/>

		<line x1="78.8" y1="5.3" x2="78.8" y2="26.7"/>

			<rect x="78.1" y="5.3" width="1.5" height="16.8"/>
	
				<path d="M78.8,26.7c-0.8-2.1-2.1-4.8-3.6-6.4l3.6,1.3l3.6-1.3C81,21.9,79.6,24.5,78.8,26.7z"/>

		<path d="M81.4,9.4c0.1,0,0.2,0,0.4,0c0.3,0,0.6-0.2,0.8-0.4c0.3-0.2,0.4-0.6,0.5-1h0c-0.2,0.3-0.5,0.4-0.9,0.4
			c-0.7,0-1.2-0.5-1.2-1.2c0-0.7,0.5-1.4,1.3-1.4s1.3,0.6,1.3,1.6c0,0.9-0.3,1.5-0.7,1.8c-0.3,0.3-0.7,0.5-1.1,0.5
			c-0.2,0-0.4,0-0.5,0V9.4z M81.6,7.2c0,0.5,0.3,0.8,0.8,0.8c0.4,0,0.6-0.2,0.8-0.4c0,0,0-0.1,0-0.2c0-0.7-0.2-1.2-0.8-1.2
			C82,6.2,81.6,6.6,81.6,7.2z"/>


 </svg>