<?xml version="1.0" encoding="utf-8"?>
<!-- Generator: Adobe Illustrator 26.2.1, SVG Export Plug-In . SVG Version: 6.00 Build 0)  -->
<svg version="1.1" xmlns="http://www.w3.org/2000/svg" xmlns:xlink="http://www.w3.org/1999/xlink" x="0px" y="0px"
	 viewBox="0 0 100 100" style="enable-background:new 0 0 100 100;" xml:space="preserve">
<style type="text/css">
	.st0{fill:none;}
	.st1{display:none;}
	.st2{display:inline;fill:none;}
	.st3{display:inline;}
</style>
<g id="Stroke8">
	<rect x="17.2" y="27.6" class="st0" width="12.6" height="0"/>
	<g>
		<path d="M42.9,20.3v5.6h-40v-5.6H42.9z M38.8,61.2v29.4H13.6v4.7h-6V61.2H38.8z M7.7,39.4v-5.5h31.4v5.5H7.7z M7.7,53v-5.5h31.4
			V53H7.7z M39.1,7v5.5H8.2V7H39.1z M32.7,66.9H13.6v18h19.1V66.9z M97.1,38.2v6.6H73.9v51.5h-6.8V44.8H42.9v-6.6h24.2V3.6l8.8,0.6
			c-0.1,0.7-0.6,1.2-2,1.4v32.6H97.1z"/>
	</g>
	<g>
		<line x1="78.8" y1="5.3" x2="78.8" y2="26.7"/>
		<g>
			<rect x="78.1" y="5.3" width="1.5" height="16.8"/>
			<g>
				<path d="M78.8,26.7c-0.8-2.1-2.1-4.8-3.6-6.4l3.6,1.3l3.6-1.3C81,21.9,79.6,24.5,78.8,26.7z"/>
			</g>
		</g>
	</g>
	<g>
		<path d="M81.4,9.4c0.1,0,0.2,0,0.4,0c0.3,0,0.6-0.2,0.8-0.4c0.3-0.2,0.4-0.6,0.5-1h0c-0.2,0.3-0.5,0.4-0.9,0.4
			c-0.7,0-1.2-0.5-1.2-1.2c0-0.7,0.5-1.4,1.3-1.4s1.3,0.6,1.3,1.6c0,0.9-0.3,1.5-0.7,1.8c-0.3,0.3-0.7,0.5-1.1,0.5
			c-0.2,0-0.4,0-0.5,0V9.4z M81.6,7.2c0,0.5,0.3,0.8,0.8,0.8c0.4,0,0.6-0.2,0.8-0.4c0,0,0-0.1,0-0.2c0-0.7-0.2-1.2-0.8-1.2
			C82,6.2,81.6,6.6,81.6,7.2z"/>
	</g>
</g>
<g id="Stroke7" class="st1">
	<rect x="17.2" y="27.6" class="st2" width="12.6" height="0"/>
	<g class="st3">
		<path d="M42.9,20.3v5.6h-40v-5.6H42.9z M38.8,61.2v29.4H13.6v4.7h-6V61.2H38.8z M7.7,39.4v-5.5h31.4v5.5H7.7z M7.7,53v-5.5h31.4
			V53H7.7z M39.1,7v5.5H8.2V7H39.1z M32.7,66.9H13.6v18h19.1V66.9z M67.1,44.8H42.9v-6.6h24.2h6.8h23.2v6.6H73.9"/>
	</g>
	<g class="st3">
		<line x1="43.5" y1="49.1" x2="66.6" y2="49.1"/>
		<g>
			<rect x="43.5" y="48.3" width="18.6" height="1.5"/>
			<g>
				<path d="M66.6,49.1c-2.1,0.8-4.8,2.1-6.4,3.6l1.3-3.6l-1.3-3.6C61.8,46.9,64.5,48.3,66.6,49.1z"/>
			</g>
		</g>
	</g>
	<g class="st3">
		<path d="M43.7,55.1c0-0.5,0.3-0.8,0.8-1l0,0c-0.4-0.2-0.6-0.5-0.6-0.9c0-0.6,0.5-1,1.2-1c0.8,0,1.1,0.5,1.1,1
			c0,0.3-0.2,0.7-0.6,0.9v0c0.5,0.2,0.8,0.5,0.8,1c0,0.7-0.6,1.1-1.3,1.1C44.2,56.1,43.7,55.6,43.7,55.1z M45.8,55
			c0-0.5-0.3-0.7-0.9-0.9c-0.5,0.1-0.7,0.4-0.7,0.8c0,0.4,0.3,0.7,0.8,0.7C45.5,55.7,45.8,55.4,45.8,55z M44.4,53.1
			c0,0.4,0.3,0.6,0.7,0.7c0.3-0.1,0.6-0.4,0.6-0.7c0-0.3-0.2-0.6-0.7-0.6C44.6,52.5,44.4,52.7,44.4,53.1z"/>
	</g>
</g>
<g id="Stroke6" class="st1">
	<rect x="17.2" y="27.6" class="st2" width="12.6" height="0"/>
	<g class="st3">
		<path d="M42.9,20.3v5.6h-40v-5.6H42.9z M38.8,61.2v29.4H13.6v4.7h-6V61.2H38.8z M7.7,39.4v-5.5h31.4v5.5H7.7z M7.7,53v-5.5h31.4
			V53H7.7z M39.1,7v5.5H8.2V7H39.1z M32.7,66.9H13.6v18h19.1V66.9z"/>
	</g>
	<g class="st3">
		<path d="M15,94.2c1.7,0,15.9,0,15.9,0"/>
		<g>
			<rect x="15" y="93.5" width="11.4" height="1.5"/>
			<g>
				<path d="M30.8,94.2c-2.1,0.8-4.8,2.1-6.4,3.6l1.3-3.6l-1.3-3.6C26.1,92.1,28.7,93.4,30.8,94.2z"/>
			</g>
		</g>
	</g>
	<g class="st3">
		<path d="M17.1,95.5v0.3l-1.7,3.5h-0.5l1.7-3.4v0h-1.9v-0.4H17.1z"/>
	</g>
</g>
<g id="Stroke5" class="st1">
	<rect x="17.2" y="27.6" class="st2" width="12.6" height="0"/>
	<g class="st3">
		<path d="M42.9,20.3v5.6h-40v-5.6H42.9z M32.7,84.9v-18H13.6v28.4h-6V61.2h31.2v29.4h-6.2 M7.7,39.4v-5.5h31.4v5.5H7.7z M7.7,53
			v-5.5h31.4V53H7.7z M39.1,7v5.5H8.2V7H39.1z M97.1,38.2v6.6H73.9v51.5h-6.8V44.8H42.9v-6.6h24.2V3.6l8.8,0.6
			c-0.1,0.7-0.6,1.2-2,1.4v32.6H97.1z"/>
	</g>
	<g class="st3">
		<polygon points="29.2,76.7 27.7,76.7 27.7,69.9 15.4,69.9 15.4,68.4 29.2,68.4 		"/>
		<g>
			<path d="M28.5,81.2c-0.8-2.1-2.1-4.8-3.6-6.4l3.6,1.3l3.6-1.3C30.6,76.5,29.3,79.1,28.5,81.2z"/>
		</g>
	</g>
	<g class="st3">
		<path d="M18.4,72.1c-0.1,0-0.2,0-0.4,0c-0.8,0.1-1.3,0.7-1.4,1.4h0c0.2-0.2,0.5-0.4,0.9-0.4c0.7,0,1.2,0.5,1.2,1.3
			c0,0.7-0.5,1.4-1.3,1.4c-0.8,0-1.4-0.6-1.4-1.7c0-0.8,0.3-1.4,0.7-1.8c0.3-0.3,0.8-0.5,1.2-0.6c0.2,0,0.3,0,0.4,0V72.1z
			 M18.2,74.3c0-0.6-0.3-0.9-0.8-0.9c-0.3,0-0.6,0.2-0.8,0.5c0,0.1-0.1,0.1-0.1,0.2c0,0.6,0.3,1.1,0.9,1.1
			C17.9,75.3,18.2,74.9,18.2,74.3z"/>
	</g>
</g>
<g id="Stroke4" class="st1">
	<rect x="17.2" y="27.6" class="st2" width="12.6" height="0"/>
	<g class="st3">
		<path d="M42.9,20.3v5.6h-40v-5.6H42.9z M13.6,61.2c0,0,0.2,28.5,0,29.4v4.7h-6V61.2 M7.7,39.4v-5.5h31.4v5.5H7.7z M7.7,53v-5.5
			h31.4V53H7.7z M39.1,7v5.5H8.2V7H39.1z M97.1,38.2v6.6H73.9v51.5h-6.8V44.8H42.9v-6.6h24.2V3.6l8.8,0.6c-0.1,0.7-0.6,1.2-2,1.4
			v32.6H97.1z"/>
	</g>
	<g class="st3">
		<line x1="17.2" y1="62" x2="17.2" y2="78.8"/>
		<g>
			<rect x="16.4" y="62" width="1.5" height="12.3"/>
			<g>
				<path d="M17.2,78.8c-0.8-2.1-2.1-4.8-3.6-6.4l3.6,1.3l3.6-1.3C19.3,74.1,18,76.7,17.2,78.8z"/>
			</g>
		</g>
	</g>
	<g class="st3">
		<path d="M23.3,62.9h-1.5l-0.1,1c0.1,0,0.2,0,0.3,0c0.3,0,0.6,0.1,0.8,0.2c0.3,0.2,0.6,0.5,0.6,1c0,0.8-0.6,1.3-1.5,1.3
			c-0.4,0-0.8-0.1-1-0.2l0.1-0.4c0.2,0.1,0.5,0.2,0.8,0.2c0.5,0,0.9-0.3,0.9-0.8c0-0.5-0.3-0.9-1.1-0.9c-0.2,0-0.4,0-0.5,0l0.3-1.9
			h1.9V62.9z"/>
	</g>
</g>
<g id="Stroke3" class="st1">
	<rect x="17.2" y="27.6" class="st2" width="12.6" height="0"/>
	<g class="st3">
		<path d="M42.9,20.3v5.6h-40v-5.6H42.9z M7.7,39.4v-5.5h31.4v5.5H7.7z M7.7,53v-5.5h31.4V53H7.7z M39.1,7v5.5H8.2V7H39.1z"/>
	</g>
	<g class="st3">
		<line x1="8.2" y1="56.9" x2="29.8" y2="56.9"/>
		<g>
			<rect x="8.2" y="56.1" width="17" height="1.5"/>
			<g>
				<path d="M29.8,56.9c-2.1,0.8-4.8,2.1-6.4,3.6l1.3-3.6l-1.3-3.6C25,54.7,27.6,56.1,29.8,56.9z"/>
			</g>
		</g>
	</g>
	<g class="st3">
		<path d="M10.1,63.5v-1.1H8.3v-0.3l1.7-2.5h0.6V62h0.5v0.4h-0.5v1.1H10.1z M10.1,62v-1.3c0-0.2,0-0.4,0-0.6h0
			c-0.1,0.2-0.2,0.4-0.3,0.6l-1,1.3v0H10.1z"/>
	</g>
</g>
<g id="Stroke2" class="st1">
	<rect x="17.2" y="27.6" class="st2" width="12.6" height="0"/>
	<g class="st3">
		<path d="M42.9,20.3v5.6h-40v-5.6H42.9z M13.6,95.3h-6 M7.7,39.4v-5.5h31.4v5.5H7.7z M39.1,7v5.5H8.2V7H39.1z"/>
	</g>
	<g class="st3">
		<line x1="8.2" y1="43.9" x2="35.7" y2="43.9"/>
		<g>
			<rect x="8.2" y="43.1" width="23" height="1.5"/>
			<g>
				<path d="M35.7,43.9c-2.1,0.8-4.8,2.1-6.4,3.6l1.3-3.6l-1.3-3.6C30.9,41.7,33.6,43.1,35.7,43.9z"/>
			</g>
		</g>
	</g>
	<g class="st3">
		<path d="M8.6,50c0.1,0.1,0.5,0.2,0.9,0.2c0.7,0,0.9-0.4,0.9-0.8c0-0.5-0.5-0.8-1-0.8H9v-0.4h0.3c0.4,0,0.9-0.2,0.9-0.7
			c0-0.3-0.2-0.6-0.7-0.6c-0.3,0-0.6,0.1-0.8,0.3l-0.1-0.4c0.2-0.1,0.6-0.3,1-0.3c0.8,0,1.1,0.5,1.1,0.9c0,0.4-0.2,0.7-0.7,0.9v0
			c0.5,0.1,0.9,0.5,0.9,1c0,0.6-0.5,1.2-1.4,1.2c-0.4,0-0.8-0.1-1-0.3L8.6,50z"/>
	</g>
</g>
<g id="Stroke1" class="st1">
	<rect x="17.2" y="27.6" class="st2" width="12.6" height="0"/>
	<g class="st3">
		<path d="M42.9,20.3v5.6h-40v-5.6H42.9z M39.1,7v5.5H8.2V7H39.1z"/>
	</g>
	<g class="st3">
		<path d="M4,30.6c1.8,0,23.2,0,23.2,0"/>
		<g>
			<rect x="4" y="29.8" width="18.7" height="1.5"/>
			<g>
				<path d="M27.2,30.6c-2.1,0.8-4.8,2.1-6.4,3.6l1.3-3.6L20.8,27C22.5,28.5,25.1,29.8,27.2,30.6z"/>
			</g>
		</g>
	</g>
	<g class="st3">
		<path d="M4.3,37.1v-0.3l0.4-0.4c1-0.9,1.4-1.5,1.5-2c0-0.4-0.2-0.8-0.8-0.8c-0.4,0-0.6,0.2-0.8,0.3l-0.2-0.4
			c0.3-0.2,0.7-0.4,1.1-0.4c0.8,0,1.2,0.6,1.2,1.1c0,0.7-0.5,1.3-1.3,2.1L5,36.7v0h1.8v0.4H4.3z"/>
	</g>
</g>
<g id="Stroke0" class="st1">
	<g class="st3">
		<path d="M39.1,7v5.5H8.2V7H39.1z"/>
	</g>
	<g class="st3">
		<line x1="8.7" y1="16.4" x2="29.5" y2="16.4"/>
		<g>
			<rect x="8.7" y="15.6" width="16.4" height="1.5"/>
			<g>
				<path d="M29.5,16.4c-2.1,0.8-4.8,2.1-6.4,3.6l1.3-3.6l-1.3-3.6C24.8,14.2,27.4,15.6,29.5,16.4z"/>
			</g>
		</g>
	</g>
	<g class="st3">
		<path d="M9.8,20.4L9.8,20.4l-0.7,0.4L9,20.4l0.9-0.5h0.4v3.9H9.8V20.4z"/>
	</g>
</g>
<g id="Kanji" class="st1">
	<rect x="17.2" y="27.6" class="st2" width="12.6" height="0"/>
	<g class="st3">
		<path d="M42.9,20.3v5.6h-40v-5.6H42.9z M38.8,61.2v29.4H13.6v4.7h-6V61.2H38.8z M7.7,39.4v-5.5h31.4v5.5H7.7z M7.7,53v-5.5h31.4
			V53H7.7z M39.1,7v5.5H8.2V7H39.1z M32.7,66.9H13.6v18h19.1V66.9z M97.1,38.2v6.6H73.9v51.5h-6.8V44.8H42.9v-6.6h24.2V3.6l8.8,0.6
			c-0.1,0.7-0.6,1.2-2,1.4v32.6H97.1z"/>
	</g>
</g>
</svg>
