<?xml version="1.0" encoding="utf-8"?>
<!-- Generator: Adobe Illustrator 26.2.1, SVG Export Plug-In . SVG Version: 6.00 Build 0)  -->
<svg version="1.1" xmlns="http://www.w3.org/2000/svg" xmlns:xlink="http://www.w3.org/1999/xlink" x="0px" y="0px"
	 viewBox="0 0 100 100" style="enable-background:new 0 0 100 100;" xml:space="preserve">
<style type="text/css">
	.st0{fill:none;}
	.st1{display:none;}
	.st2{display:inline;fill:none;}
	.st3{display:inline;}
	.st4{fill:none;stroke:#000000;stroke-width:1.5;stroke-miterlimit:10;}
	.st5{font-family:'MyriadPro-Regular';}
	.st6{font-size:6px;}
</style>
<g id="Stroke6">
	<rect x="17.2" y="27.6" class="st0" width="12.6" height="0"/>
	<g>
		<path d="M84.6,57l4,0.8c-0.1,0.6-0.3,1.4-0.5,2c-1.9,20-3.9,28-7.2,31.2c-2.7,2.5-5.6,2.7-10.3,2.7c-3.5,0-8.3-0.1-13.3-0.4
			c-0.1-1.9-0.9-4.5-2.2-6.2c6.8,0.6,13.5,0.7,15.8,0.7s3.4-0.1,4.5-1c2.3-2,4-8.5,5.6-23.5H48C43.1,77.1,33.1,88,7.6,93.8
			C7,92.1,5.3,89.3,4,87.9c22.2-4.6,31.9-13.2,36.7-24.6H6.6v-6.2h36.1c0.9-3.3,1.5-6.8,2-10.4H15.2V6.2h69.7v40.5H53.7
			c-0.3,0.5-1,0.8-2,1c-0.5,3.2-1.1,6.4-1.9,9.4H83L84.6,57z M21.9,12.1v11.5h24.4V12.1H21.9z M21.9,29.1v11.7h24.4V29.1H21.9z
			 M77.9,23.6V12.1H53v11.5H77.9z M77.9,40.8V29.1H53v11.7H77.9z"/>
	</g>
	<g>
		<path d="M55,51.6L53.6,51c0.4-1,0.7-2,1-3.1l1.5,0.4C55.8,49.4,55.4,50.5,55,51.6z"/>
		<g>
			<path d="M52.3,55.3c0.2-2.3,0.2-5.2-0.3-7.3l2.6,2.7l3.8,0.4C56.3,52,53.9,53.8,52.3,55.3z"/>
		</g>
	</g>
	<g>
		<path d="M62.1,49.6V50l-1.7,3.5h-0.5l1.7-3.4v0h-1.9v-0.4H62.1z"/>
	</g>
</g>
<g id="Stroke5" class="st1">
	<rect x="17.2" y="27.6" class="st2" width="12.6" height="0"/>
	<g class="st3">
		<path d="M15.2,46.7V6.2h69.7v40.5 M40.7,63.3H6.6v-6.2h36.1h7.1H83l1.6-0.1l4,0.8c-0.1,0.6-0.3,1.4-0.5,2c-1.9,20-3.9,28-7.2,31.2
			c-2.7,2.5-5.6,2.7-10.3,2.7c-3.5,0-8.3-0.1-13.3-0.4c-0.1-1.9-0.9-4.5-2.2-6.2c6.8,0.6,13.5,0.7,15.8,0.7s3.4-0.1,4.5-1
			c2.3-2,4-8.5,5.6-23.5H48 M21.9,12.1v11.5h24.4V12.1H21.9z M21.9,29.1v11.7h24.4V29.1H21.9z M77.9,23.6V12.1H53v11.5H77.9z
			 M77.9,40.8V29.1H53v11.7H77.9z"/>
	</g>
	<g class="st3">
		<path d="M8.7,67.9c1.2,0,16.4,0,16.4,0"/>
		<g>
			<path d="M8.7,68.6l0-1.5c0.8,0,7.8,0,11.9,0l0,1.5C17.3,68.6,9.5,68.6,8.7,68.6z"/>
			<g>
				<path d="M25.1,67.9c-2.1,0.8-4.8,2.1-6.4,3.6l1.3-3.6l-1.3-3.6C20.3,65.7,23,67.1,25.1,67.9z"/>
			</g>
		</g>
	</g>
	<g class="st3">
		<path d="M11.2,71.4c-0.1,0-0.2,0-0.4,0c-0.8,0.1-1.3,0.7-1.4,1.4h0c0.2-0.2,0.5-0.4,0.9-0.4c0.7,0,1.2,0.5,1.2,1.3
			c0,0.7-0.5,1.4-1.3,1.4c-0.8,0-1.4-0.6-1.4-1.7c0-0.8,0.3-1.4,0.7-1.8c0.3-0.3,0.8-0.5,1.2-0.6c0.2,0,0.3,0,0.4,0V71.4z M11,73.6
			c0-0.6-0.3-0.9-0.8-0.9c-0.3,0-0.6,0.2-0.8,0.5c0,0.1-0.1,0.1-0.1,0.2c0,0.6,0.3,1.1,0.9,1.1C10.7,74.5,11,74.2,11,73.6z"/>
	</g>
</g>
<g id="Stroke4" class="st1">
	<rect x="17.2" y="27.6" class="st2" width="12.6" height="0"/>
	<g class="st3">
		<path d="M44.7,46.7H15.2V6.2h69.7v40.5H53.7 M21.9,12.1v11.5h24.4V12.1H21.9z M21.9,29.1v11.7h24.4V29.1H21.9z M77.9,23.6V12.1H53
			v11.5H77.9z M77.9,40.8V29.1H53v11.7H77.9z"/>
	</g>
	<g class="st3">
		<line x1="15.5" y1="50.8" x2="41.4" y2="50.8"/>
		<g>
			<rect x="15.5" y="50.1" width="21.4" height="1.5"/>
			<g>
				<path d="M41.4,50.8c-2.1,0.8-4.8,2.1-6.4,3.6l1.3-3.6L35,47.2C36.6,48.7,39.3,50,41.4,50.8z"/>
			</g>
		</g>
	</g>
	<g class="st3">
		<path d="M18.9,53.4h-1.5l-0.1,1c0.1,0,0.2,0,0.3,0c0.3,0,0.6,0.1,0.8,0.2c0.3,0.2,0.6,0.5,0.6,1c0,0.8-0.6,1.3-1.5,1.3
			c-0.4,0-0.8-0.1-1-0.2l0.1-0.4c0.2,0.1,0.5,0.2,0.8,0.2c0.5,0,0.9-0.3,0.9-0.8c0-0.5-0.3-0.9-1.1-0.9c-0.2,0-0.4,0-0.5,0L17,53
			h1.9V53.4z"/>
	</g>
</g>
<g id="Stroke3" class="st1">
	<rect x="17.2" y="27.6" class="st2" width="12.6" height="0"/>
	<g class="st3">
		<path d="M44.7,46.7H15.2V6.2h69.7v40.5 M21.9,12.1v11.5h24.4V12.1H21.9z M46.3,46.7V29.1H21.9v17.6 M77.9,23.6V12.1H53v11.5H77.9z
			 M77.9,46.7v-5.9V29.1H53v17.6"/>
	</g>
	<g class="st3">
		<line x1="57.1" y1="13" x2="57.1" y2="21.6"/>
		<g>
			<line class="st4" x1="57.1" y1="13" x2="57.1" y2="17"/>
			<g>
				<path d="M57.1,21.6c-0.8-2.1-2.1-4.8-3.6-6.4l3.6,1.3l3.6-1.3C59.2,16.8,57.9,19.4,57.1,21.6z"/>
			</g>
		</g>
	</g>
	<text transform="matrix(1 0 0 1 62.0279 17.8481)" class="st3 st5 st6">4</text>
</g>
<g id="Stroke2" class="st1">
	<rect x="17.2" y="27.6" class="st2" width="12.6" height="0"/>
	<g class="st3">
		<path d="M44.7,46.7H15.2V6.2h69.7v40.5H53.7 M77.9,23.6V12.1c0,0-55.2-0.4-56,0v11.5 M77.9,46.7V29.1H53h-6.7H21.9v17.6"/>
	</g>
	<g class="st3">
		<path d="M24.3,33.2c1.8,0,22.5,0,22.5,0"/>
		<g>
			<rect x="24.3" y="32.4" width="18" height="1.5"/>
			<g>
				<path d="M46.9,33.2c-2.1,0.8-4.8,2.1-6.4,3.6l1.3-3.6l-1.3-3.6C42.1,31.1,44.7,32.4,46.9,33.2z"/>
			</g>
		</g>
	</g>
	<g class="st3">
		<path d="M24.7,39.1c0.1,0.1,0.5,0.2,0.9,0.2c0.7,0,0.9-0.4,0.9-0.8c0-0.5-0.5-0.8-1-0.8h-0.3v-0.4h0.3c0.4,0,0.9-0.2,0.9-0.7
			c0-0.3-0.2-0.6-0.7-0.6c-0.3,0-0.6,0.1-0.8,0.3L24.7,36c0.2-0.1,0.6-0.3,1-0.3c0.8,0,1.1,0.5,1.1,0.9c0,0.4-0.2,0.7-0.7,0.9v0
			c0.5,0.1,0.9,0.5,0.9,1c0,0.6-0.5,1.2-1.4,1.2c-0.4,0-0.8-0.1-1-0.3L24.7,39.1z"/>
	</g>
</g>
<g id="Stroke1" class="st1">
	<rect x="17.2" y="27.6" class="st2" width="12.6" height="0"/>
	<g class="st3">
		<path d="M44.7,46.7H15.2V6.2h69.7v40.5H53.7 M77.9,46.7v-5.9V29.1v-5.5V12.1h-56v11.5v5.5v11.7v5.9"/>
	</g>
	<g class="st3">
		<path d="M73.1,24.9h-1.5v-5.2c0-2.4-1.9-4.3-4.3-4.3H27.5v-1.5h39.8c3.2,0,5.8,2.6,5.8,5.8V24.9z"/>
		<g>
			<path d="M72.3,29.4c-0.8-2.1-2.1-4.8-3.6-6.4l3.6,1.3l3.6-1.3C74.5,24.6,73.1,27.3,72.3,29.4z"/>
		</g>
	</g>
	<g class="st3">
		<path d="M27.7,22v-0.3l0.4-0.4c1-0.9,1.4-1.5,1.5-2c0-0.4-0.2-0.8-0.8-0.8c-0.4,0-0.6,0.2-0.8,0.3l-0.2-0.4
			c0.3-0.2,0.7-0.4,1.1-0.4c0.8,0,1.2,0.6,1.2,1.1c0,0.7-0.5,1.3-1.3,2.1l-0.3,0.3v0h1.8V22H27.7z"/>
	</g>
</g>
<g id="Stroke0" class="st1">
	<rect x="17.2" y="27.6" class="st2" width="12.6" height="0"/>
	<g class="st3">
		<path d="M21.9,6.2v5.9v11.5v5.5v11.7v5.9h-6.7V6.2"/>
	</g>
	<g class="st3">
		<rect x="25.3" y="7.3" width="1.5" height="10.7"/>
		<g>
			<path d="M26.1,22.5c-0.8-2.1-2.1-4.8-3.6-6.4l3.6,1.3l3.6-1.3C28.2,17.7,26.9,20.4,26.1,22.5z"/>
		</g>
	</g>
	<g class="st3">
		<path d="M31.7,8.6L31.7,8.6L31,8.9l-0.1-0.4l0.9-0.5h0.4V12h-0.5V8.6z"/>
	</g>
</g>
<g id="Kanji" class="st1">
	<rect x="17.2" y="27.6" class="st2" width="12.6" height="0"/>
	<g class="st3">
		<path d="M84.6,57l4,0.8c-0.1,0.6-0.3,1.4-0.5,2c-1.9,20-3.9,28-7.2,31.2c-2.7,2.5-5.6,2.7-10.3,2.7c-3.5,0-8.3-0.1-13.3-0.4
			c-0.1-1.9-0.9-4.5-2.2-6.2c6.8,0.6,13.5,0.7,15.8,0.7s3.4-0.1,4.5-1c2.3-2,4-8.5,5.6-23.5H48C43.1,77.1,33.1,88,7.6,93.8
			C7,92.1,5.3,89.3,4,87.9c22.2-4.6,31.9-13.2,36.7-24.6H6.6v-6.2h36.1c0.9-3.3,1.5-6.8,2-10.4H15.2V6.2h69.7v40.5H53.7
			c-0.3,0.5-1,0.8-2,1c-0.5,3.2-1.1,6.4-1.9,9.4H83L84.6,57z M21.9,12.1v11.5h24.4V12.1H21.9z M21.9,29.1v11.7h24.4V29.1H21.9z
			 M77.9,23.6V12.1H53v11.5H77.9z M77.9,40.8V29.1H53v11.7H77.9z"/>
	</g>
</g>
</svg>
