<?xml version="1.0" encoding="utf-8"?>
<!-- Generator: Adobe Illustrator 26.2.1, SVG Export Plug-In . SVG Version: 6.00 Build 0)  -->
<svg version="1.1" xmlns="http://www.w3.org/2000/svg" xmlns:xlink="http://www.w3.org/1999/xlink" x="0px" y="0px"
	 viewBox="0 0 100 100" style="enable-background:new 0 0 100 100;" xml:space="preserve" width = "100px" height = "100px">
<style type="text/css">
	.st0{display:none;}
	.st1{display:inline;}
</style>



	<rect x="17.2" y="27.6" class="st2" width="12.6" height="0"/>
	
		<path d="M15.2,46.7V6.2h69.7v40.5 M40.7,63.3H6.6v-6.2h36.1h7.1H83l1.6-0.1l4,0.8c-0.1,0.6-0.3,1.4-0.5,2c-1.9,20-3.9,28-7.2,31.2
			c-2.7,2.5-5.6,2.7-10.3,2.7c-3.5,0-8.3-0.1-13.3-0.4c-0.1-1.9-0.9-4.5-2.2-6.2c6.8,0.6,13.5,0.7,15.8,0.7s3.4-0.1,4.5-1
			c2.3-2,4-8.5,5.6-23.5H48 M21.9,12.1v11.5h24.4V12.1H21.9z M21.9,29.1v11.7h24.4V29.1H21.9z M77.9,23.6V12.1H53v11.5H77.9z
			 M77.9,40.8V29.1H53v11.7H77.9z"/>
	

		<path d="M8.7,67.9c1.2,0,16.4,0,16.4,0"/>

			<path d="M8.7,68.6l0-1.5c0.8,0,7.8,0,11.9,0l0,1.5C17.3,68.6,9.5,68.6,8.7,68.6z"/>

				<path d="M25.1,67.9c-2.1,0.8-4.8,2.1-6.4,3.6l1.3-3.6l-1.3-3.6C20.3,65.7,23,67.1,25.1,67.9z"/>
	
		<path d="M11.2,71.4c-0.1,0-0.2,0-0.4,0c-0.8,0.1-1.3,0.7-1.4,1.4h0c0.2-0.2,0.5-0.4,0.9-0.4c0.7,0,1.2,0.5,1.2,1.3
			c0,0.7-0.5,1.4-1.3,1.4c-0.8,0-1.4-0.6-1.4-1.7c0-0.8,0.3-1.4,0.7-1.8c0.3-0.3,0.8-0.5,1.2-0.6c0.2,0,0.3,0,0.4,0V71.4z M11,73.6
			c0-0.6-0.3-0.9-0.8-0.9c-0.3,0-0.6,0.2-0.8,0.5c0,0.1-0.1,0.1-0.1,0.2c0,0.6,0.3,1.1,0.9,1.1C10.7,74.5,11,74.2,11,73.6z"/>



 </svg>