<?xml version="1.0" encoding="utf-8"?>
<!-- Generator: Adobe Illustrator 26.2.1, SVG Export Plug-In . SVG Version: 6.00 Build 0)  -->
<svg version="1.1" xmlns="http://www.w3.org/2000/svg" xmlns:xlink="http://www.w3.org/1999/xlink" x="0px" y="0px"
	 viewBox="0 0 100 100" style="enable-background:new 0 0 100 100;" xml:space="preserve" width = "100px" height = "100px">
<style type="text/css">
	.st0{display:none;}
	.st1{display:inline;}
</style> 


	<rect x="17.2" y="27.6" class="st2" width="12.6" height="0"/>

		<path d="M44.7,46.7H15.2V6.2h69.7v40.5 M21.9,12.1v11.5h24.4V12.1H21.9z M46.3,46.7V29.1H21.9v17.6 M77.9,23.6V12.1H53v11.5H77.9z
			 M77.9,46.7v-5.9V29.1H53v17.6"/>


		<line x1="57.1" y1="13" x2="57.1" y2="21.6"/>
				<line class="st4" x1="57.1" y1="13" x2="57.1" y2="17"/>
		
				<path d="M57.1,21.6c-0.8-2.1-2.1-4.8-3.6-6.4l3.6,1.3l3.6-1.3C59.2,16.8,57.9,19.4,57.1,21.6z"/>

	<text transform="matrix(1 0 0 1 62.0279 17.8481)" class="st3 st5 st6">4</text>

</svg>