<?xml version="1.0" encoding="utf-8"?>
<!-- Generator: Adobe Illustrator 26.2.1, SVG Export Plug-In . SVG Version: 6.00 Build 0)  -->
<svg version="1.1" xmlns="http://www.w3.org/2000/svg" xmlns:xlink="http://www.w3.org/1999/xlink" x="0px" y="0px"
	 viewBox="0 0 100 100" style="enable-background:new 0 0 100 100;" xml:space="preserve" width = "100px" height = "100px">
<style type="text/css">
	.st0{display:none;}
	.st1{display:inline;}
</style> 


	<rect x="17.2" y="27.6" class="st2" width="12.6" height="0"/>

		<path d="M44.7,46.7H15.2V6.2h69.7v40.5H53.7 M21.9,12.1v11.5h24.4V12.1H21.9z M21.9,29.1v11.7h24.4V29.1H21.9z M77.9,23.6V12.1H53
			v11.5H77.9z M77.9,40.8V29.1H53v11.7H77.9z"/>

		<line x1="15.5" y1="50.8" x2="41.4" y2="50.8"/>

			<rect x="15.5" y="50.1" width="21.4" height="1.5"/>
	
				<path d="M41.4,50.8c-2.1,0.8-4.8,2.1-6.4,3.6l1.3-3.6L35,47.2C36.6,48.7,39.3,50,41.4,50.8z"/>
	
		<path d="M18.9,53.4h-1.5l-0.1,1c0.1,0,0.2,0,0.3,0c0.3,0,0.6,0.1,0.8,0.2c0.3,0.2,0.6,0.5,0.6,1c0,0.8-0.6,1.3-1.5,1.3
			c-0.4,0-0.8-0.1-1-0.2l0.1-0.4c0.2,0.1,0.5,0.2,0.8,0.2c0.5,0,0.9-0.3,0.9-0.8c0-0.5-0.3-0.9-1.1-0.9c-0.2,0-0.4,0-0.5,0L17,53
			h1.9V53.4z"/>

</svg>