<?xml version="1.0" encoding="utf-8"?>
<!-- Generator: Adobe Illustrator 26.2.1, SVG Export Plug-In . SVG Version: 6.00 Build 0)  -->
<svg version="1.1" xmlns="http://www.w3.org/2000/svg" xmlns:xlink="http://www.w3.org/1999/xlink" x="0px" y="0px"
	 viewBox="0 0 100 100" style="enable-background:new 0 0 100 100;" xml:space="preserve" width = "100px" height = "100px">
<style type="text/css">
	.st0{display:none;}
	.st1{display:inline;}
</style> 

	<rect x="17.2" y="27.6" class="st1" width="12.6" height="0"/>

		<path d="M24.5,30.8 M17.9,39C14.1,45,10,50.5,5.8,55.1c-0.6-1.6-2.4-4.7-3.5-6.3c9.8-10.4,19.6-27.7,25.6-45l7.9,2.7
			c-0.3,0.7-1,1-2.3,0.9c-2.7,7.3-6,14.5-9.6,21.4 M64.8,95.8"/>

		<path d="M25.7,37.3l-1.3-0.8l0.2-0.3c4.9-7.9,8.5-16.6,10.7-26l1.5,0.3c-2.2,9.6-5.9,18.5-10.9,26.5L25.7,37.3z"/>

			<path d="M22.6,40.6c0.5-2.2,0.9-5.2,0.6-7.3l2.3,3.1l3.7,0.9C27,37.8,24.4,39.3,22.6,40.6z"/>

		<path d="M40.4,12.8L40.4,12.8l-0.7,0.4l-0.1-0.4l0.9-0.5h0.4v3.9h-0.5V12.8z"/>

</svg>