<?xml version="1.0" encoding="utf-8"?>
<!-- Generator: Adobe Illustrator 26.2.1, SVG Export Plug-In . SVG Version: 6.00 Build 0)  -->
<svg version="1.1" xmlns="http://www.w3.org/2000/svg" xmlns:xlink="http://www.w3.org/1999/xlink" x="0px" y="0px"
	 viewBox="0 0 100 100" style="enable-background:new 0 0 100 100;" xml:space="preserve" width = "100px" height = "100px">
<style type="text/css">
	.st0{display:none;}
	.st1{display:inline;}
</style>

	<rect x="17.2" y="27.6" class="st1" width="12.6" height="0"/>

		<path d="M17.9,39C14.1,45,10,50.5,5.8,55.1c-0.6-1.6-2.4-4.7-3.5-6.3c9.8-10.4,19.6-27.7,25.6-45l7.9,2.7c-0.3,0.7-1,1-2.3,0.9
			c-2.7,7.3-6,14.5-9.6,21.4l2.5,0.7c-0.1,0.7-0.6,1.1-1.9,1.3v65.4h-6.6V39z M97.7,13.1v6.5H90v66.6c0,5.1-1.3,7.2-4.9,8.3
			c-3.6,1.2-10.2,1.3-20.3,1.3c-0.3-2-1.4-4.9-2.5-7c4.6,0.2,9,0.2,12.4,0.2c8.3,0,8.7,0,8.7-2.8V19.6H34.5v-6.5H97.7z M69.2,69.3
			H44v7.2h-6.2V34.6h31.4V69.3z M63,40.6H44v22.7h19V40.6z"/>

		<line x1="46.7" y1="73.7" x2="62.6" y2="73.7"/>

			<rect x="46.7" y="73" width="11.4" height="1.5"/>

				<path d="M62.6,73.7c-2.1,0.8-4.8,2.1-6.4,3.6l1.3-3.6l-1.3-3.6C57.8,71.6,60.5,72.9,62.6,73.7z"/>

		<path d="M49.1,76.6V77l-1.7,3.5h-0.5l1.7-3.4v0h-1.9v-0.4H49.1z"/>

 </svg>