<?xml version="1.0" encoding="utf-8"?>
<!-- Generator: Adobe Illustrator 26.2.1, SVG Export Plug-In . SVG Version: 6.00 Build 0)  -->
<svg version="1.1" xmlns="http://www.w3.org/2000/svg" xmlns:xlink="http://www.w3.org/1999/xlink" x="0px" y="0px"
	 viewBox="0 0 100 100" style="enable-background:new 0 0 100 100;" xml:space="preserve" width = "100px" height = "100px">
<style type="text/css">
	.st0{display:none;}
	.st1{display:inline;}
</style> 


	<rect x="17.2" y="27.6" class="st1" width="12.6" height="0"/>

		<path d="M17.9,39C14.1,45,10,50.5,5.8,55.1c-0.6-1.6-2.4-4.7-3.5-6.3c9.8-10.4,19.6-27.7,25.6-45l7.9,2.7c-0.3,0.7-1,1-2.3,0.9
			c-2.7,7.3-6,14.5-9.6,21.4l2.5,0.7c-0.1,0.7-0.6,1.1-1.9,1.3v65.4h-6.6V39z M83.4,19.6H34.5v-6.5h63.2v6.5H90"/>

		<line x1="35.8" y1="24.1" x2="57.5" y2="24.1"/>

			<rect x="35.8" y="23.4" width="17.1" height="1.5"/>
			
				<path d="M57.5,24.1c-2.1,0.8-4.8,2.1-6.4,3.6l1.3-3.6l-1.3-3.6C52.7,22,55.3,23.3,57.5,24.1z"/>
	
		<path d="M36.2,31.1c0.2,0.1,0.5,0.2,0.9,0.2c0.7,0,0.9-0.4,0.9-0.8c0-0.5-0.5-0.8-1-0.8h-0.3v-0.4h0.3c0.4,0,0.9-0.2,0.9-0.7
			c0-0.3-0.2-0.6-0.7-0.6c-0.3,0-0.6,0.1-0.8,0.3l-0.1-0.4c0.2-0.1,0.6-0.3,1-0.3c0.8,0,1.1,0.5,1.1,0.9c0,0.4-0.2,0.7-0.7,0.9v0
			c0.5,0.1,0.9,0.5,0.9,1c0,0.6-0.5,1.2-1.4,1.2c-0.4,0-0.8-0.1-1-0.3L36.2,31.1z"/>


</svg>