<?xml version="1.0" encoding="utf-8"?>
<!-- Generator: Adobe Illustrator 26.2.1, SVG Export Plug-In . SVG Version: 6.00 Build 0)  -->
<svg version="1.1" xmlns="http://www.w3.org/2000/svg" xmlns:xlink="http://www.w3.org/1999/xlink" x="0px" y="0px"
	 viewBox="0 0 100 100" style="enable-background:new 0 0 100 100;" xml:space="preserve" width = "100px" height = "100px">
<style type="text/css">
	.st0{display:none;}
	.st1{display:inline;}
</style> 

	<rect x="17.2" y="27.6" class="st1" width="12.6" height="0"/>

		<path d="M17.9,39C14.1,45,10,50.5,5.8,55.1c-0.6-1.6-2.4-4.7-3.5-6.3c9.8-10.4,19.6-27.7,25.6-45l7.9,2.7c-0.3,0.7-1,1-2.3,0.9
			c-2.7,7.3-6,14.5-9.6,21.4l2.5,0.7c-0.1,0.7-0.6,1.1-1.9,1.3v65.4h-6.6V39z M97.7,13.1v6.5H90v66.6c0,5.1-1.3,7.2-4.9,8.3
			c-3.6,1.2-10.2,1.3-20.3,1.3c-0.3-2-1.4-4.9-2.5-7c4.6,0.2,9,0.2,12.4,0.2c8.3,0,8.7,0,8.7-2.8V19.6H34.5v-6.5H97.7z"/>

		<path d="M79,24c0,0.4,0,25.3,0,25.3"/>

			<rect x="78.2" y="24" width="1.5" height="20.8"/>
	
				<path d="M79,49.3c-0.8-2.1-2.1-4.8-3.6-6.4l3.6,1.3l3.6-1.3C81.1,44.5,79.8,47.2,79,49.3z"/>

		<path d="M75.5,29V28h-1.8v-0.3l1.7-2.5H76v2.4h0.5V28H76V29H75.5z M75.5,27.6v-1.3c0-0.2,0-0.4,0-0.6h0c-0.1,0.2-0.2,0.4-0.3,0.6
			l-1,1.3v0H75.5z"/>

</svg>