<?xml version="1.0" encoding="utf-8"?>
<!-- Generator: Adobe Illustrator 26.2.1, SVG Export Plug-In . SVG Version: 6.00 Build 0)  -->
<svg version="1.1" xmlns="http://www.w3.org/2000/svg" xmlns:xlink="http://www.w3.org/1999/xlink" x="0px" y="0px"
	 viewBox="0 0 100 100" style="enable-background:new 0 0 100 100;" xml:space="preserve" width = "100px" height = "100px">
<style type="text/css">
	.st0{display:none;}
	.st1{display:inline;}
</style>

	<rect x="17.2" y="27.6" class="st3" width="12.6" height="0"/>

		<path d="M17.9,39C14.1,45,10,50.5,5.8,55.1c-0.6-1.6-2.4-4.7-3.5-6.3c9.8-10.4,19.6-27.7,25.6-45l7.9,2.7c-0.3,0.7-1,1-2.3,0.9
			c-2.7,7.3-6,14.5-9.6,21.4l2.5,0.7c-0.1,0.7-0.6,1.1-1.9,1.3v65.4h-6.6V39z M97.7,13.1v6.5H90v66.6c0,5.1-1.3,7.2-4.9,8.3
			c-3.6,1.2-10.2,1.3-20.3,1.3c-0.3-2-1.4-4.9-2.5-7c4.6,0.2,9,0.2,12.4,0.2c8.3,0,8.7,0,8.7-2.8V19.6H34.5v-6.5H97.7z M63,63.3
			V40.6H44v35.9h-6.2V34.6h31.4v34.7h-6.5"/>

		<polygon points="59.2,53.3 57.7,53.3 57.7,43.9 46,43.9 46,42.4 59.2,42.4 		"/>

			<path d="M58.4,57.9c-0.8-2.1-2.1-4.8-3.6-6.4l3.6,1.3l3.6-1.3C60.5,53.1,59.2,55.7,58.4,57.9z"/>

		<path d="M49.3,47.3c-0.1,0-0.2,0-0.4,0c-0.8,0.1-1.3,0.7-1.4,1.4h0c0.2-0.2,0.5-0.4,0.9-0.4c0.7,0,1.2,0.5,1.2,1.3
			c0,0.7-0.5,1.4-1.3,1.4c-0.8,0-1.4-0.6-1.4-1.7c0-0.8,0.3-1.4,0.7-1.8c0.3-0.3,0.8-0.5,1.2-0.6c0.2,0,0.3,0,0.4,0V47.3z
			 M49.1,49.5c0-0.6-0.3-0.9-0.8-0.9c-0.3,0-0.6,0.2-0.8,0.5c0,0.1-0.1,0.1-0.1,0.2c0,0.6,0.3,1.1,0.9,1.1
			C48.8,50.5,49.1,50.1,49.1,49.5z"/>

 </svg>