<?xml version="1.0" encoding="utf-8"?>
<!-- Generator: Adobe Illustrator 26.2.1, SVG Export Plug-In . SVG Version: 6.00 Build 0)  -->
<svg version="1.1" xmlns="http://www.w3.org/2000/svg" xmlns:xlink="http://www.w3.org/1999/xlink" x="0px" y="0px"
	 viewBox="0 0 100 100" style="enable-background:new 0 0 100 100;" xml:space="preserve">
<style type="text/css">
	.st0{display:none;}
	.st1{display:inline;fill:none;}
	.st2{display:inline;}
	.st3{fill:none;}
</style>
<g id="Stroke6" class="st0">
	<rect x="17.2" y="27.6" class="st1" width="12.6" height="0"/>
	<g class="st2">
		<path d="M17.9,39C14.1,45,10,50.5,5.8,55.1c-0.6-1.6-2.4-4.7-3.5-6.3c9.8-10.4,19.6-27.7,25.6-45l7.9,2.7c-0.3,0.7-1,1-2.3,0.9
			c-2.7,7.3-6,14.5-9.6,21.4l2.5,0.7c-0.1,0.7-0.6,1.1-1.9,1.3v65.4h-6.6V39z M97.7,13.1v6.5H90v66.6c0,5.1-1.3,7.2-4.9,8.3
			c-3.6,1.2-10.2,1.3-20.3,1.3c-0.3-2-1.4-4.9-2.5-7c4.6,0.2,9,0.2,12.4,0.2c8.3,0,8.7,0,8.7-2.8V19.6H34.5v-6.5H97.7z M69.2,69.3
			H44v7.2h-6.2V34.6h31.4V69.3z M63,40.6H44v22.7h19V40.6z"/>
	</g>
	<g class="st2">
		<line x1="46.7" y1="73.7" x2="62.6" y2="73.7"/>
		<g>
			<rect x="46.7" y="73" width="11.4" height="1.5"/>
			<g>
				<path d="M62.6,73.7c-2.1,0.8-4.8,2.1-6.4,3.6l1.3-3.6l-1.3-3.6C57.8,71.6,60.5,72.9,62.6,73.7z"/>
			</g>
		</g>
	</g>
	<g class="st2">
		<path d="M49.1,76.6V77l-1.7,3.5h-0.5l1.7-3.4v0h-1.9v-0.4H49.1z"/>
	</g>
</g>
<g id="Stroke5">
	<rect x="17.2" y="27.6" class="st3" width="12.6" height="0"/>
	<g>
		<path d="M17.9,39C14.1,45,10,50.5,5.8,55.1c-0.6-1.6-2.4-4.7-3.5-6.3c9.8-10.4,19.6-27.7,25.6-45l7.9,2.7c-0.3,0.7-1,1-2.3,0.9
			c-2.7,7.3-6,14.5-9.6,21.4l2.5,0.7c-0.1,0.7-0.6,1.1-1.9,1.3v65.4h-6.6V39z M97.7,13.1v6.5H90v66.6c0,5.1-1.3,7.2-4.9,8.3
			c-3.6,1.2-10.2,1.3-20.3,1.3c-0.3-2-1.4-4.9-2.5-7c4.6,0.2,9,0.2,12.4,0.2c8.3,0,8.7,0,8.7-2.8V19.6H34.5v-6.5H97.7z M63,63.3
			V40.6H44v35.9h-6.2V34.6h31.4v34.7h-6.5"/>
	</g>
	<g>
		<polygon points="59.2,53.3 57.7,53.3 57.7,43.9 46,43.9 46,42.4 59.2,42.4 		"/>
		<g>
			<path d="M58.4,57.9c-0.8-2.1-2.1-4.8-3.6-6.4l3.6,1.3l3.6-1.3C60.5,53.1,59.2,55.7,58.4,57.9z"/>
		</g>
	</g>
	<g>
		<path d="M49.3,47.3c-0.1,0-0.2,0-0.4,0c-0.8,0.1-1.3,0.7-1.4,1.4h0c0.2-0.2,0.5-0.4,0.9-0.4c0.7,0,1.2,0.5,1.2,1.3
			c0,0.7-0.5,1.4-1.3,1.4c-0.8,0-1.4-0.6-1.4-1.7c0-0.8,0.3-1.4,0.7-1.8c0.3-0.3,0.8-0.5,1.2-0.6c0.2,0,0.3,0,0.4,0V47.3z
			 M49.1,49.5c0-0.6-0.3-0.9-0.8-0.9c-0.3,0-0.6,0.2-0.8,0.5c0,0.1-0.1,0.1-0.1,0.2c0,0.6,0.3,1.1,0.9,1.1
			C48.8,50.5,49.1,50.1,49.1,49.5z"/>
	</g>
</g>
<g id="Stroke4" class="st0">
	<rect x="17.2" y="27.6" class="st1" width="12.6" height="0"/>
	<g class="st2">
		<path d="M17.9,39C14.1,45,10,50.5,5.8,55.1c-0.6-1.6-2.4-4.7-3.5-6.3c9.8-10.4,19.6-27.7,25.6-45l7.9,2.7c-0.3,0.7-1,1-2.3,0.9
			c-2.7,7.3-6,14.5-9.6,21.4l2.5,0.7c-0.1,0.7-0.6,1.1-1.9,1.3v65.4h-6.6V39z M97.7,13.1v6.5H90v66.6c0,5.1-1.3,7.2-4.9,8.3
			c-3.6,1.2-10.2,1.3-20.3,1.3c-0.3-2-1.4-4.9-2.5-7c4.6,0.2,9,0.2,12.4,0.2c8.3,0,8.7,0,8.7-2.8V19.6H34.5v-6.5H97.7z M44,34.6
			v34.7v7.2h-6.2V34.6H44z"/>
	</g>
	<g class="st2">
		<line x1="48.8" y1="35.7" x2="48.8" y2="51"/>
		<g>
			<rect x="48" y="35.7" width="1.5" height="10.7"/>
			<g>
				<path d="M48.8,51c-0.8-2.1-2.1-4.8-3.6-6.4l3.6,1.3l3.6-1.3C50.9,46.2,49.6,48.8,48.8,51z"/>
			</g>
		</g>
	</g>
	<g class="st2">
		<path d="M55.7,36.5h-1.5l-0.2,1c0.1,0,0.2,0,0.3,0c0.3,0,0.6,0.1,0.8,0.2c0.3,0.2,0.6,0.5,0.6,1c0,0.8-0.6,1.3-1.5,1.3
			c-0.4,0-0.8-0.1-1-0.2l0.1-0.4c0.2,0.1,0.5,0.2,0.8,0.2c0.5,0,0.9-0.3,0.9-0.8c0-0.5-0.3-0.9-1.1-0.9c-0.2,0-0.4,0-0.5,0l0.3-1.9
			h1.9V36.5z"/>
	</g>
</g>
<g id="Stroke3" class="st0">
	<rect x="17.2" y="27.6" class="st1" width="12.6" height="0"/>
	<g class="st2">
		<path d="M17.9,39C14.1,45,10,50.5,5.8,55.1c-0.6-1.6-2.4-4.7-3.5-6.3c9.8-10.4,19.6-27.7,25.6-45l7.9,2.7c-0.3,0.7-1,1-2.3,0.9
			c-2.7,7.3-6,14.5-9.6,21.4l2.5,0.7c-0.1,0.7-0.6,1.1-1.9,1.3v65.4h-6.6V39z M97.7,13.1v6.5H90v66.6c0,5.1-1.3,7.2-4.9,8.3
			c-3.6,1.2-10.2,1.3-20.3,1.3c-0.3-2-1.4-4.9-2.5-7c4.6,0.2,9,0.2,12.4,0.2c8.3,0,8.7,0,8.7-2.8V19.6H34.5v-6.5H97.7z"/>
	</g>
	<g class="st2">
		<path d="M79,24c0,0.4,0,25.3,0,25.3"/>
		<g>
			<rect x="78.2" y="24" width="1.5" height="20.8"/>
			<g>
				<path d="M79,49.3c-0.8-2.1-2.1-4.8-3.6-6.4l3.6,1.3l3.6-1.3C81.1,44.5,79.8,47.2,79,49.3z"/>
			</g>
		</g>
	</g>
	<g class="st2">
		<path d="M75.5,29V28h-1.8v-0.3l1.7-2.5H76v2.4h0.5V28H76V29H75.5z M75.5,27.6v-1.3c0-0.2,0-0.4,0-0.6h0c-0.1,0.2-0.2,0.4-0.3,0.6
			l-1,1.3v0H75.5z"/>
	</g>
</g>
<g id="Stroke2" class="st0">
	<rect x="17.2" y="27.6" class="st1" width="12.6" height="0"/>
	<g class="st2">
		<path d="M17.9,39C14.1,45,10,50.5,5.8,55.1c-0.6-1.6-2.4-4.7-3.5-6.3c9.8-10.4,19.6-27.7,25.6-45l7.9,2.7c-0.3,0.7-1,1-2.3,0.9
			c-2.7,7.3-6,14.5-9.6,21.4l2.5,0.7c-0.1,0.7-0.6,1.1-1.9,1.3v65.4h-6.6V39z M83.4,19.6H34.5v-6.5h63.2v6.5H90"/>
	</g>
	<g class="st2">
		<line x1="35.8" y1="24.1" x2="57.5" y2="24.1"/>
		<g>
			<rect x="35.8" y="23.4" width="17.1" height="1.5"/>
			<g>
				<path d="M57.5,24.1c-2.1,0.8-4.8,2.1-6.4,3.6l1.3-3.6l-1.3-3.6C52.7,22,55.3,23.3,57.5,24.1z"/>
			</g>
		</g>
	</g>
	<g class="st2">
		<path d="M36.2,31.1c0.2,0.1,0.5,0.2,0.9,0.2c0.7,0,0.9-0.4,0.9-0.8c0-0.5-0.5-0.8-1-0.8h-0.3v-0.4h0.3c0.4,0,0.9-0.2,0.9-0.7
			c0-0.3-0.2-0.6-0.7-0.6c-0.3,0-0.6,0.1-0.8,0.3l-0.1-0.4c0.2-0.1,0.6-0.3,1-0.3c0.8,0,1.1,0.5,1.1,0.9c0,0.4-0.2,0.7-0.7,0.9v0
			c0.5,0.1,0.9,0.5,0.9,1c0,0.6-0.5,1.2-1.4,1.2c-0.4,0-0.8-0.1-1-0.3L36.2,31.1z"/>
	</g>
</g>
<g id="Stroke1" class="st0">
	<rect x="17.2" y="27.6" class="st1" width="12.6" height="0"/>
	<g class="st2">
		<path d="M17.9,39C14.1,45,10,50.5,5.8,55.1c-0.6-1.6-2.4-4.7-3.5-6.3c9.8-10.4,19.6-27.7,25.6-45l7.9,2.7c-0.3,0.7-1,1-2.3,0.9
			c-2.7,7.3-6,14.5-9.6,21.4l2.5,0.7c-0.1,0.7-0.6,1.1-1.9,1.3v65.4h-6.6V39z M90,86.2"/>
	</g>
	<g class="st2">
		<line x1="29" y1="35.8" x2="29" y2="59.9"/>
		<g>
			<rect x="28.3" y="35.8" width="1.5" height="19.6"/>
			<g>
				<path d="M29,59.9c-0.8-2.1-2.1-4.8-3.6-6.4l3.6,1.3l3.6-1.3C31.2,55.2,29.8,57.8,29,59.9z"/>
			</g>
		</g>
	</g>
	<g class="st2">
		<path d="M32.5,41.3V41l0.4-0.4c1-0.9,1.4-1.5,1.5-2c0-0.4-0.2-0.8-0.8-0.8c-0.4,0-0.6,0.2-0.8,0.3l-0.2-0.4
			c0.3-0.2,0.7-0.4,1.1-0.4c0.8,0,1.2,0.6,1.2,1.1c0,0.7-0.5,1.3-1.3,2.1l-0.3,0.3v0H35v0.4H32.5z"/>
	</g>
</g>
<g id="Stroke0" class="st0">
	<rect x="17.2" y="27.6" class="st1" width="12.6" height="0"/>
	<g class="st2">
		<path d="M24.5,30.8 M17.9,39C14.1,45,10,50.5,5.8,55.1c-0.6-1.6-2.4-4.7-3.5-6.3c9.8-10.4,19.6-27.7,25.6-45l7.9,2.7
			c-0.3,0.7-1,1-2.3,0.9c-2.7,7.3-6,14.5-9.6,21.4 M64.8,95.8"/>
	</g>
	<g class="st2">
		<path d="M25.7,37.3l-1.3-0.8l0.2-0.3c4.9-7.9,8.5-16.6,10.7-26l1.5,0.3c-2.2,9.6-5.9,18.5-10.9,26.5L25.7,37.3z"/>
		<g>
			<path d="M22.6,40.6c0.5-2.2,0.9-5.2,0.6-7.3l2.3,3.1l3.7,0.9C27,37.8,24.4,39.3,22.6,40.6z"/>
		</g>
	</g>
	<g class="st2">
		<path d="M40.4,12.8L40.4,12.8l-0.7,0.4l-0.1-0.4l0.9-0.5h0.4v3.9h-0.5V12.8z"/>
	</g>
</g>
<g id="Kanji" class="st0">
	<rect x="17.2" y="27.6" class="st1" width="12.6" height="0"/>
	<g class="st2">
		<path d="M17.9,39C14.1,45,10,50.5,5.8,55.1c-0.6-1.6-2.4-4.7-3.5-6.3c9.8-10.4,19.6-27.7,25.6-45l7.9,2.7c-0.3,0.7-1,1-2.3,0.9
			c-2.7,7.3-6,14.5-9.6,21.4l2.5,0.7c-0.1,0.7-0.6,1.1-1.9,1.3v65.4h-6.6V39z M97.7,13.1v6.5H90v66.6c0,5.1-1.3,7.2-4.9,8.3
			c-3.6,1.2-10.2,1.3-20.3,1.3c-0.3-2-1.4-4.9-2.5-7c4.6,0.2,9,0.2,12.4,0.2c8.3,0,8.7,0,8.7-2.8V19.6H34.5v-6.5H97.7z M69.2,69.3
			H44v7.2h-6.2V34.6h31.4V69.3z M63,40.6H44v22.7h19V40.6z"/>
	</g>
</g>
</svg>
