<?xml version="1.0" encoding="utf-8"?>
<!-- Generator: Adobe Illustrator 26.2.1, SVG Export Plug-In . SVG Version: 6.00 Build 0)  -->
<svg version="1.1" xmlns="http://www.w3.org/2000/svg" xmlns:xlink="http://www.w3.org/1999/xlink" x="0px" y="0px"
	 viewBox="0 0 100 100" style="enable-background:new 0 0 100 100;" xml:space="preserve" width = "100px" height = "100px">
<style type="text/css">
	.st0{display:none;}
	.st1{display:inline;}
</style>

		<path d="M55.7,3.7c-0.2,0.7-1,1.2-2,1.4c9.9,11.6,28,23.7,43.3,29.8c-1.5,1.6-3.1,4-4.2,5.9c-15.5-7-33.5-19.5-43.4-31.1
			C40.8,20.6,24,33.3,6.9,41.5C6,40,4.3,37.5,3,36.1C20.4,28.3,37.7,15,45.9,3.2L55.7,3.7z M28.8,47.3h41.9v-8.8H22.2
			c-0.1,0.1,0-5.5,0-5.5H46V20.8l8.8,0.5c-0.1,0.7-0.6,1.2-2,1.4V33h24.6v34.2H51.6h-6.9H28.8v-5.5h41.9v-9.2
			C70,52,28.8,52.3,28.8,52.3V47.3h41.9"/>

		<path d="M28.6,71.8c0.6,0,13,0,13,0"/>
		
			<rect x="28.6" y="71" width="8.4" height="1.5"/>
		
				<path d="M41.6,71.8c-2.1,0.8-4.8,2.1-6.4,3.6l1.3-3.6l-1.3-3.6C36.8,69.6,39.5,71,41.6,71.8z"/>

		<path d="M31.1,74.3c-0.1,0-0.2,0-0.4,0c-0.8,0.1-1.3,0.7-1.4,1.4h0c0.2-0.2,0.5-0.4,0.9-0.4c0.7,0,1.2,0.5,1.2,1.3
			c0,0.7-0.5,1.4-1.3,1.4c-0.8,0-1.4-0.6-1.4-1.7c0-0.8,0.3-1.4,0.7-1.8c0.3-0.3,0.8-0.5,1.2-0.6c0.2,0,0.3,0,0.4,0V74.3z M31,76.6
			c0-0.6-0.3-0.9-0.8-0.9c-0.3,0-0.6,0.2-0.8,0.5c0,0.1-0.1,0.1-0.1,0.2c0,0.6,0.3,1.1,0.9,1.1C30.7,77.5,31,77.1,31,76.6z"/>


 </svg>