<?xml version="1.0" encoding="utf-8"?>
<!-- Generator: Adobe Illustrator 26.2.1, SVG Export Plug-In . SVG Version: 6.00 Build 0)  -->
<svg version="1.1" xmlns="http://www.w3.org/2000/svg" xmlns:xlink="http://www.w3.org/1999/xlink" x="0px" y="0px"
	 viewBox="0 0 100 100" style="enable-background:new 0 0 100 100;" xml:space="preserve" width = "100px" height = "100px">
<style type="text/css">
	.st0{display:none;}
	.st1{display:inline;}
</style> 

		<path d="M55.7,3.7c-0.2,0.7-1,1.2-2,1.4c9.9,11.6,28,23.7,43.3,29.8c-1.5,1.6-3.1,4-4.2,5.9c-15.5-7-33.5-19.5-43.4-31.1
			C40.8,20.6,24,33.3,6.9,41.5C6,40,4.3,37.5,3,36.1C20.4,28.3,37.7,15,45.9,3.2L55.7,3.7z M51.6,67.2c2.5,3.9,5.7,7.3,9.5,10.3
			c7.8-4.2,17.6-10.3,23.4-15l6.2,4.7c-0.5,0.5-1.3,0.7-2.2,0.5c-5.8,4.1-14.7,9.3-22.4,13.2c8.1,4.9,18.1,8.1,29.6,9.8
			c-1.5,1.4-3.3,4.1-4.2,5.9c-21.6-3.9-38.1-13.4-46.8-29.4H28.8v20.6c8.2-0.7,17.3-1.6,26.2-2.4v5.7c-15.3,1.7-31.7,3.4-41.6,4.3
			c-0.2,0.8-0.7,1.3-1.5,1.4l-2.5-7.4l12.8-1.1V33H46V20.8l8.8,0.5c-0.1,0.7-0.6,1.2-2,1.4V33h24.6v34.2H51.6z M70.7,38.5H28.8v8.8
			h41.9V38.5z M28.8,52.5v9.2h41.9v-9.2H28.8z"/>

		<line x1="75.6" y1="79.8" x2="86.1" y2="74.2"/>
		
			<rect x="75.2" y="77.3" transform="matrix(0.8827 -0.47 0.47 0.8827 -27.4504 46.222)" width="7.3" height="1.5"/>
	
				<path d="M86.1,74.2c-1.5,1.7-3.2,4.1-4,6.2l-0.5-3.8l-2.8-2.5C80.9,74.6,83.8,74.5,86.1,74.2z"/>

		<path d="M71.8,82.7c0.1,0,0.2,0,0.4,0c0.3,0,0.6-0.2,0.8-0.4c0.3-0.2,0.4-0.6,0.5-1h0c-0.2,0.3-0.5,0.4-0.9,0.4
			c-0.7,0-1.2-0.5-1.2-1.2c0-0.7,0.5-1.4,1.3-1.4s1.3,0.6,1.3,1.6c0,0.9-0.3,1.5-0.7,1.8c-0.3,0.3-0.7,0.5-1.1,0.5
			c-0.2,0-0.4,0-0.5,0V82.7z M72,80.5c0,0.5,0.3,0.8,0.8,0.8c0.4,0,0.6-0.2,0.8-0.4c0,0,0-0.1,0-0.2c0-0.7-0.2-1.2-0.8-1.2
			C72.3,79.6,72,80,72,80.5z"/>
</svg>