<?xml version="1.0" encoding="utf-8"?>
<!-- Generator: Adobe Illustrator 26.2.1, SVG Export Plug-In . SVG Version: 6.00 Build 0)  -->
<svg version="1.1" xmlns="http://www.w3.org/2000/svg" xmlns:xlink="http://www.w3.org/1999/xlink" x="0px" y="0px"
	 viewBox="0 0 100 100" style="enable-background:new 0 0 100 100;" xml:space="preserve" width = "100px" height = "100px">
<style type="text/css">
	.st0{display:none;}
	.st1{display:inline;}
</style>

		<path d="M55.7,3.7c-0.2,0.7-1,1.2-2,1.4c9.9,11.6,28,23.7,43.3,29.8c-1.5,1.6-3.1,4-4.2,5.9c-15.5-7-33.5-19.5-43.4-31.1
			C40.8,20.6,24,33.3,6.9,41.5C6,40,4.3,37.5,3,36.1C20.4,28.3,37.7,15,45.9,3.2L55.7,3.7z M44.7,67.2H28.8v20.6
			c8.2-0.7,17.3-1.6,26.2-2.4v5.7c-15.3,1.7-31.7,3.4-41.6,4.3c-0.2,0.8-0.7,1.3-1.5,1.4l-2.5-7.4l12.8-1.1V33H46V20.8l8.8,0.5
			c-0.1,0.7-0.6,1.2-2,1.4V33h24.6v34.2H51.6 M66.1,80.9 M70.7,38.5H28.8v8.8h41.9V38.5z M28.8,52.5v9.2h41.9v-9.2H28.8z"/>

		<path d="M34.4,84c-1.2,0-2.3-0.4-3-1.1c-0.6-0.6-1-1.4-1-2.2V68h1.5v12.7c0,0.5,0.3,0.9,0.5,1.1c0.5,0.5,1.3,0.8,2.2,0.7l5.4-0.3
			l0.1,1.5L34.6,84C34.5,84,34.5,84,34.4,84z"/>

			<path d="M44.5,82.8c-2.1,0.9-4.7,2.4-6.2,3.9l1.1-3.6l-1.5-3.5C39.6,80.9,42.4,82.1,44.5,82.8z"/>

		<path d="M36,68.3v0.3l-1.7,3.5h-0.5l1.7-3.4v0h-1.9v-0.4H36z"/>

 </svg>