<?xml version="1.0" encoding="utf-8"?>
<!-- Generator: Adobe Illustrator 26.2.1, SVG Export Plug-In . SVG Version: 6.00 Build 0)  -->
<svg version="1.1" xmlns="http://www.w3.org/2000/svg" xmlns:xlink="http://www.w3.org/1999/xlink" x="0px" y="0px"
	 viewBox="0 0 100 100" style="enable-background:new 0 0 100 100;" xml:space="preserve" width = "100px" height = "100px">
<style type="text/css">
	.st0{display:none;}
	.st1{display:inline;}
</style>

		<path d="M55.7,3.7c-0.2,0.7-1,1.2-2,1.4c9.9,11.6,28,23.7,43.3,29.8c-1.5,1.6-3.1,4-4.2,5.9c-15.5-7-33.5-19.5-43.4-31.1
			C40.8,20.6,24,33.3,6.9,41.5C6,40,4.3,37.5,3,36.1C20.4,28.3,37.7,15,45.9,3.2L55.7,3.7z M66.1,80.9c8.1,4.9,18.1,8.1,29.6,9.8
			c-1.5,1.4-3.3,4.1-4.2,5.9c-21.6-3.9-38.1-13.4-46.8-29.4H28.8v20.6c8.2-0.7,17.3-1.6,26.2-2.4v5.7c-15.3,1.7-31.7,3.4-41.6,4.3
			c-0.2,0.8-0.7,1.3-1.5,1.4l-2.5-7.4l12.8-1.1V33H46V20.8l8.8,0.5c-0.1,0.7-0.6,1.2-2,1.4V33h24.6v34.2H51.6
			c2.5,3.9,5.7,7.3,9.5,10.3 M70.7,38.5H28.8v8.8h41.9V38.5z M28.8,52.5v9.2h41.9v-9.2H28.8z"/>

		<path d="M46.1,77.6l-0.3-0.3c-1.9-2.3-3.6-4.9-5.1-7.8l1.3-0.7c1.5,2.8,3.2,5.3,5,7.5l0.3,0.3L46.1,77.6z"/>

			<path d="M49.8,80.5c-2-1-4.8-2.1-7-2.3l3.5-1.4l1.8-3.4C48.1,75.5,48.9,78.4,49.8,80.5z"/>

		<path d="M37,71.2c0-0.5,0.3-0.8,0.8-1l0,0c-0.4-0.2-0.6-0.5-0.6-0.9c0-0.6,0.5-1,1.2-1c0.8,0,1.1,0.5,1.1,1c0,0.3-0.2,0.7-0.6,0.9
			v0c0.5,0.2,0.8,0.5,0.8,1c0,0.7-0.6,1.1-1.3,1.1C37.5,72.2,37,71.7,37,71.2z M39.1,71.1c0-0.5-0.3-0.7-0.9-0.9
			c-0.5,0.1-0.7,0.4-0.7,0.8c0,0.4,0.3,0.7,0.8,0.7C38.8,71.8,39.1,71.5,39.1,71.1z M37.6,69.2c0,0.4,0.3,0.6,0.7,0.7
			c0.3-0.1,0.6-0.4,0.6-0.7c0-0.3-0.2-0.6-0.7-0.6C37.9,68.6,37.6,68.9,37.6,69.2z"/>

 </svg>