<?xml version="1.0" encoding="utf-8"?>
<!-- Generator: Adobe Illustrator 26.2.1, SVG Export Plug-In . SVG Version: 6.00 Build 0)  -->
<svg version="1.1" xmlns="http://www.w3.org/2000/svg" xmlns:xlink="http://www.w3.org/1999/xlink" x="0px" y="0px"
	 viewBox="0 0 100 100" style="enable-background:new 0 0 100 100;" xml:space="preserve">
<style type="text/css">
	.st0{display:none;}
	.st1{display:inline;}
</style>
<g id="Stroke8">
	<g>
		<path d="M55.7,3.7c-0.2,0.7-1,1.2-2,1.4c9.9,11.6,28,23.7,43.3,29.8c-1.5,1.6-3.1,4-4.2,5.9c-15.5-7-33.5-19.5-43.4-31.1
			C40.8,20.6,24,33.3,6.9,41.5C6,40,4.3,37.5,3,36.1C20.4,28.3,37.7,15,45.9,3.2L55.7,3.7z M51.6,67.2c2.5,3.9,5.7,7.3,9.5,10.3
			c7.8-4.2,17.6-10.3,23.4-15l6.2,4.7c-0.5,0.5-1.3,0.7-2.2,0.5c-5.8,4.1-14.7,9.3-22.4,13.2c8.1,4.9,18.1,8.1,29.6,9.8
			c-1.5,1.4-3.3,4.1-4.2,5.9c-21.6-3.9-38.1-13.4-46.8-29.4H28.8v20.6c8.2-0.7,17.3-1.6,26.2-2.4v5.7c-15.3,1.7-31.7,3.4-41.6,4.3
			c-0.2,0.8-0.7,1.3-1.5,1.4l-2.5-7.4l12.8-1.1V33H46V20.8l8.8,0.5c-0.1,0.7-0.6,1.2-2,1.4V33h24.6v34.2H51.6z M70.7,38.5H28.8v8.8
			h41.9V38.5z M28.8,52.5v9.2h41.9v-9.2H28.8z"/>
	</g>
	<g>
		<line x1="75.6" y1="79.8" x2="86.1" y2="74.2"/>
		<g>
			<rect x="75.2" y="77.3" transform="matrix(0.8827 -0.47 0.47 0.8827 -27.4504 46.222)" width="7.3" height="1.5"/>
			<g>
				<path d="M86.1,74.2c-1.5,1.7-3.2,4.1-4,6.2l-0.5-3.8l-2.8-2.5C80.9,74.6,83.8,74.5,86.1,74.2z"/>
			</g>
		</g>
	</g>
	<g>
		<path d="M71.8,82.7c0.1,0,0.2,0,0.4,0c0.3,0,0.6-0.2,0.8-0.4c0.3-0.2,0.4-0.6,0.5-1h0c-0.2,0.3-0.5,0.4-0.9,0.4
			c-0.7,0-1.2-0.5-1.2-1.2c0-0.7,0.5-1.4,1.3-1.4s1.3,0.6,1.3,1.6c0,0.9-0.3,1.5-0.7,1.8c-0.3,0.3-0.7,0.5-1.1,0.5
			c-0.2,0-0.4,0-0.5,0V82.7z M72,80.5c0,0.5,0.3,0.8,0.8,0.8c0.4,0,0.6-0.2,0.8-0.4c0,0,0-0.1,0-0.2c0-0.7-0.2-1.2-0.8-1.2
			C72.3,79.6,72,80,72,80.5z"/>
	</g>
</g>
<g id="Stroke7" class="st0">
	<g class="st1">
		<path d="M55.7,3.7c-0.2,0.7-1,1.2-2,1.4c9.9,11.6,28,23.7,43.3,29.8c-1.5,1.6-3.1,4-4.2,5.9c-15.5-7-33.5-19.5-43.4-31.1
			C40.8,20.6,24,33.3,6.9,41.5C6,40,4.3,37.5,3,36.1C20.4,28.3,37.7,15,45.9,3.2L55.7,3.7z M66.1,80.9c8.1,4.9,18.1,8.1,29.6,9.8
			c-1.5,1.4-3.3,4.1-4.2,5.9c-21.6-3.9-38.1-13.4-46.8-29.4H28.8v20.6c8.2-0.7,17.3-1.6,26.2-2.4v5.7c-15.3,1.7-31.7,3.4-41.6,4.3
			c-0.2,0.8-0.7,1.3-1.5,1.4l-2.5-7.4l12.8-1.1V33H46V20.8l8.8,0.5c-0.1,0.7-0.6,1.2-2,1.4V33h24.6v34.2H51.6
			c2.5,3.9,5.7,7.3,9.5,10.3 M70.7,38.5H28.8v8.8h41.9V38.5z M28.8,52.5v9.2h41.9v-9.2H28.8z"/>
	</g>
	<g class="st1">
		<path d="M46.1,77.6l-0.3-0.3c-1.9-2.3-3.6-4.9-5.1-7.8l1.3-0.7c1.5,2.8,3.2,5.3,5,7.5l0.3,0.3L46.1,77.6z"/>
		<g>
			<path d="M49.8,80.5c-2-1-4.8-2.1-7-2.3l3.5-1.4l1.8-3.4C48.1,75.5,48.9,78.4,49.8,80.5z"/>
		</g>
	</g>
	<g class="st1">
		<path d="M37,71.2c0-0.5,0.3-0.8,0.8-1l0,0c-0.4-0.2-0.6-0.5-0.6-0.9c0-0.6,0.5-1,1.2-1c0.8,0,1.1,0.5,1.1,1c0,0.3-0.2,0.7-0.6,0.9
			v0c0.5,0.2,0.8,0.5,0.8,1c0,0.7-0.6,1.1-1.3,1.1C37.5,72.2,37,71.7,37,71.2z M39.1,71.1c0-0.5-0.3-0.7-0.9-0.9
			c-0.5,0.1-0.7,0.4-0.7,0.8c0,0.4,0.3,0.7,0.8,0.7C38.8,71.8,39.1,71.5,39.1,71.1z M37.6,69.2c0,0.4,0.3,0.6,0.7,0.7
			c0.3-0.1,0.6-0.4,0.6-0.7c0-0.3-0.2-0.6-0.7-0.6C37.9,68.6,37.6,68.9,37.6,69.2z"/>
	</g>
</g>
<g id="Stroke6" class="st0">
	<g class="st1">
		<path d="M55.7,3.7c-0.2,0.7-1,1.2-2,1.4c9.9,11.6,28,23.7,43.3,29.8c-1.5,1.6-3.1,4-4.2,5.9c-15.5-7-33.5-19.5-43.4-31.1
			C40.8,20.6,24,33.3,6.9,41.5C6,40,4.3,37.5,3,36.1C20.4,28.3,37.7,15,45.9,3.2L55.7,3.7z M44.7,67.2H28.8v20.6
			c8.2-0.7,17.3-1.6,26.2-2.4v5.7c-15.3,1.7-31.7,3.4-41.6,4.3c-0.2,0.8-0.7,1.3-1.5,1.4l-2.5-7.4l12.8-1.1V33H46V20.8l8.8,0.5
			c-0.1,0.7-0.6,1.2-2,1.4V33h24.6v34.2H51.6 M66.1,80.9 M70.7,38.5H28.8v8.8h41.9V38.5z M28.8,52.5v9.2h41.9v-9.2H28.8z"/>
	</g>
	<g class="st1">
		<path d="M34.4,84c-1.2,0-2.3-0.4-3-1.1c-0.6-0.6-1-1.4-1-2.2V68h1.5v12.7c0,0.5,0.3,0.9,0.5,1.1c0.5,0.5,1.3,0.8,2.2,0.7l5.4-0.3
			l0.1,1.5L34.6,84C34.5,84,34.5,84,34.4,84z"/>
		<g>
			<path d="M44.5,82.8c-2.1,0.9-4.7,2.4-6.2,3.9l1.1-3.6l-1.5-3.5C39.6,80.9,42.4,82.1,44.5,82.8z"/>
		</g>
	</g>
	<g class="st1">
		<path d="M36,68.3v0.3l-1.7,3.5h-0.5l1.7-3.4v0h-1.9v-0.4H36z"/>
	</g>
</g>
<g id="Stroke5" class="st0">
	<g class="st1">
		<path d="M55.7,3.7c-0.2,0.7-1,1.2-2,1.4c9.9,11.6,28,23.7,43.3,29.8c-1.5,1.6-3.1,4-4.2,5.9c-15.5-7-33.5-19.5-43.4-31.1
			C40.8,20.6,24,33.3,6.9,41.5C6,40,4.3,37.5,3,36.1C20.4,28.3,37.7,15,45.9,3.2L55.7,3.7z M28.8,47.3h41.9v-8.8H22.2
			c-0.1,0.1,0-5.5,0-5.5H46V20.8l8.8,0.5c-0.1,0.7-0.6,1.2-2,1.4V33h24.6v34.2H51.6h-6.9H28.8v-5.5h41.9v-9.2
			C70,52,28.8,52.3,28.8,52.3V47.3h41.9"/>
	</g>
	<g class="st1">
		<path d="M28.6,71.8c0.6,0,13,0,13,0"/>
		<g>
			<rect x="28.6" y="71" width="8.4" height="1.5"/>
			<g>
				<path d="M41.6,71.8c-2.1,0.8-4.8,2.1-6.4,3.6l1.3-3.6l-1.3-3.6C36.8,69.6,39.5,71,41.6,71.8z"/>
			</g>
		</g>
	</g>
	<g class="st1">
		<path d="M31.1,74.3c-0.1,0-0.2,0-0.4,0c-0.8,0.1-1.3,0.7-1.4,1.4h0c0.2-0.2,0.5-0.4,0.9-0.4c0.7,0,1.2,0.5,1.2,1.3
			c0,0.7-0.5,1.4-1.3,1.4c-0.8,0-1.4-0.6-1.4-1.7c0-0.8,0.3-1.4,0.7-1.8c0.3-0.3,0.8-0.5,1.2-0.6c0.2,0,0.3,0,0.4,0V74.3z M31,76.6
			c0-0.6-0.3-0.9-0.8-0.9c-0.3,0-0.6,0.2-0.8,0.5c0,0.1-0.1,0.1-0.1,0.2c0,0.6,0.3,1.1,0.9,1.1C30.7,77.5,31,77.1,31,76.6z"/>
	</g>
</g>
<g id="Stroke4" class="st0">
	<g class="st1">
		<path d="M55.7,3.7c-0.2,0.7-1,1.2-2,1.4c9.9,11.6,28,23.7,43.3,29.8c-1.5,1.6-3.1,4-4.2,5.9c-15.5-7-33.5-19.5-43.4-31.1
			C40.8,20.6,24,33.3,6.9,41.5C6,40,4.3,37.5,3,36.1C20.4,28.3,37.7,15,45.9,3.2L55.7,3.7z M28.8,47.3h41.9v-8.8H28.8h-6.6V33H46
			V20.8l8.8,0.5c-0.1,0.7-0.6,1.2-2,1.4V33h24.6v34.2h-6.7v-5.5v-9.2H28.8V47.3c1,0,15,0,15,0"/>
	</g>
	<g class="st1">
		<path d="M28.7,56.6c0.8,0,12.6,0,12.6,0"/>
		<g>
			<rect x="28.7" y="55.9" width="8" height="1.5"/>
			<g>
				<path d="M41.3,56.6c-2.1,0.8-4.8,2.1-6.4,3.6l1.3-3.6l-1.3-3.6C36.5,54.5,39.2,55.8,41.3,56.6z"/>
			</g>
		</g>
	</g>
	<g class="st1">
		<path d="M31.3,59.4h-1.5l-0.1,1c0.1,0,0.2,0,0.3,0c0.3,0,0.6,0.1,0.8,0.2c0.3,0.2,0.6,0.5,0.6,1c0,0.8-0.6,1.3-1.5,1.3
			c-0.4,0-0.8-0.1-1-0.2l0.1-0.4c0.2,0.1,0.5,0.2,0.8,0.2c0.5,0,0.9-0.3,0.9-0.8c0-0.5-0.3-0.9-1.1-0.9c-0.2,0-0.4,0-0.5,0l0.3-1.9
			h1.9V59.4z"/>
	</g>
</g>
<g id="Stroke3" class="st0">
	<g class="st1">
		<path d="M55.7,3.7c-0.2,0.7-1,1.2-2,1.4c9.9,11.6,28,23.7,43.3,29.8c-1.5,1.6-3.1,4-4.2,5.9c-15.5-7-33.5-19.5-43.4-31.1
			C40.8,20.6,24,33.3,6.9,41.5C6,40,4.3,37.5,3,36.1C20.4,28.3,37.7,15,45.9,3.2L55.7,3.7z M70.7,61.7v-9.2v-5.2v-8.8H28.8h-6.6V33
			H46V20.8l8.8,0.5c-0.1,0.7-0.6,1.2-2,1.4V33h24.6v34.2h-6.8"/>
	</g>
	<g class="st1">
		<path d="M22.6,42.3c0.3,0,12.3,0,12.3,0"/>
		<g>
			<rect x="22.6" y="41.6" width="7.8" height="1.5"/>
			<g>
				<path d="M34.9,42.3c-2.1,0.8-4.8,2.1-6.4,3.6l1.3-3.6l-1.3-3.6C30.1,40.2,32.7,41.5,34.9,42.3z"/>
			</g>
		</g>
	</g>
	<g class="st1">
		<path d="M24.2,48.7v-1.1h-1.8v-0.3l1.7-2.5h0.6v2.4h0.5v0.4h-0.5v1.1H24.2z M24.2,47.2v-1.3c0-0.2,0-0.4,0-0.6h0
			c-0.1,0.2-0.2,0.4-0.3,0.6l-1,1.3v0H24.2z"/>
	</g>
</g>
<g id="Stroke2" class="st0">
	<g class="st1">
		<path d="M55.7,3.7c-0.2,0.7-1,1.2-2,1.4c9.9,11.6,28,23.7,43.3,29.8c-1.5,1.6-3.1,4-4.2,5.9c-15.5-7-33.5-19.5-43.4-31.1
			C40.8,20.6,24,33.3,6.9,41.5C6,40,4.3,37.5,3,36.1C20.4,28.3,37.7,15,45.9,3.2L55.7,3.7z M22.2,33H46V20.8l8.8,0.5
			c-0.1,0.7-0.6,1.2-2,1.4V33 M51.6,67.2"/>
	</g>
	<g class="st1">
		<line x1="42.4" y1="23.7" x2="42.4" y2="33.4"/>
		<g>
			<rect x="41.6" y="23.7" width="1.5" height="5.2"/>
			<g>
				<path d="M42.4,33.4c-0.8-2.1-2.1-4.8-3.6-6.4l3.6,1.3l3.6-1.3C44.5,28.7,43.2,31.3,42.4,33.4z"/>
			</g>
		</g>
	</g>
	<g class="st1">
		<path d="M38.3,25.4c0.1,0.1,0.5,0.2,0.9,0.2c0.7,0,0.9-0.4,0.9-0.8c0-0.5-0.5-0.8-1-0.8h-0.3v-0.4H39c0.4,0,0.9-0.2,0.9-0.7
			c0-0.3-0.2-0.6-0.7-0.6c-0.3,0-0.6,0.1-0.8,0.3l-0.1-0.4c0.2-0.1,0.6-0.3,1-0.3c0.8,0,1.1,0.5,1.1,0.9c0,0.4-0.2,0.7-0.7,0.9v0
			c0.5,0.1,0.9,0.5,0.9,1c0,0.6-0.5,1.2-1.4,1.2c-0.4,0-0.8-0.1-1-0.3L38.3,25.4z"/>
	</g>
</g>
<g id="Stroke1" class="st0">
	<g class="st1">
		<path d="M55.7,3.7c-0.2,0.7-1,1.2-2,1.4c9.9,11.6,28,23.7,43.3,29.8c-1.5,1.6-3.1,4-4.2,5.9c-15.5-7-33.5-19.5-43.4-31.1
			C40.8,20.6,24,33.3,6.9,41.5C6,40,4.3,37.5,3,36.1C20.4,28.3,37.7,15,45.9,3.2L55.7,3.7z"/>
	</g>
	<g class="st1">
		<path d="M54.1,21c-1.9-1.5-3.6-3.2-5.2-5.1l1.1-1c1.5,1.8,3.2,3.4,5.1,4.9L54.1,21z"/>
		<g>
			<path d="M58.2,23.1c-2.2-0.6-5.1-1.1-7.3-0.9l3.2-2.1l1.1-3.6C55.7,18.6,57,21.2,58.2,23.1z"/>
		</g>
	</g>
	<g class="st1">
		<path d="M45.2,20.4V20l0.4-0.4c1-0.9,1.4-1.5,1.5-2c0-0.4-0.2-0.8-0.8-0.8c-0.4,0-0.6,0.2-0.8,0.3l-0.2-0.4
			c0.3-0.2,0.7-0.4,1.1-0.4c0.8,0,1.2,0.6,1.2,1.1c0,0.7-0.5,1.3-1.3,2.1L46,19.9v0h1.8v0.4H45.2z"/>
	</g>
</g>
<g id="Stroke0" class="st0">
	<g class="st1">
		<path d="M49.4,9.7C40.8,20.6,24,33.3,6.9,41.5C6,40,4.3,37.5,3,36.1C20.4,28.3,37.7,15,45.9,3.2l9.8,0.5c-0.2,0.7-1,1.2-2,1.4"/>
	</g>
	<g class="st1">
		<path d="M51.1,15.1l-1.1-1l0.3-0.3c2-2.3,4-4.6,5.9-7l1.2,0.9c-1.9,2.4-3.9,4.7-5.9,7L51.1,15.1z"/>
		<g>
			<path d="M47.5,18c0.8-2.1,1.6-5,1.7-7.1l1.8,3.4l3.5,1.4C52.3,15.9,49.5,16.9,47.5,18z"/>
		</g>
	</g>
	<g class="st1">
		<path d="M58.9,6.3L58.9,6.3l-0.7,0.4l-0.1-0.4L59,5.8h0.4v3.9h-0.5V6.3z"/>
	</g>
</g>
<g id="Kanji" class="st0">
	<g class="st1">
		<path d="M55.7,3.7c-0.2,0.7-1,1.2-2,1.4c9.9,11.6,28,23.7,43.3,29.8c-1.5,1.6-3.1,4-4.2,5.9c-15.5-7-33.5-19.5-43.4-31.1
			C40.8,20.6,24,33.3,6.9,41.5C6,40,4.3,37.5,3,36.1C20.4,28.3,37.7,15,45.9,3.2L55.7,3.7z M51.6,67.2c2.5,3.9,5.7,7.3,9.5,10.3
			c7.8-4.2,17.6-10.3,23.4-15l6.2,4.7c-0.5,0.5-1.3,0.7-2.2,0.5c-5.8,4.1-14.7,9.3-22.4,13.2c8.1,4.9,18.1,8.1,29.6,9.8
			c-1.5,1.4-3.3,4.1-4.2,5.9c-21.6-3.9-38.1-13.4-46.8-29.4H28.8v20.6c8.2-0.7,17.3-1.6,26.2-2.4v5.7c-15.3,1.7-31.7,3.4-41.6,4.3
			c-0.2,0.8-0.7,1.3-1.5,1.4l-2.5-7.4l12.8-1.1V33H46V20.8l8.8,0.5c-0.1,0.7-0.6,1.2-2,1.4V33h24.6v34.2H51.6z M70.7,38.5H28.8v8.8
			h41.9V38.5z M28.8,52.5v9.2h41.9v-9.2H28.8z"/>
	</g>
</g>
</svg>
