<?xml version="1.0" encoding="utf-8"?>
<!-- Generator: Adobe Illustrator 26.2.1, SVG Export Plug-In . SVG Version: 6.00 Build 0)  -->
<svg version="1.1" xmlns="http://www.w3.org/2000/svg" xmlns:xlink="http://www.w3.org/1999/xlink" x="0px" y="0px"
	 viewBox="0 0 100 100" style="enable-background:new 0 0 100 100;" xml:space="preserve">
<style type="text/css">
	.st0{display:none;}
	.st1{display:inline;}
</style>
<g id="Stroke5">
	<g>
		<path d="M41.3,56.2c-0.1,0.7-0.8,1.2-2.1,1.3c-2.6,17.6-7.5,31.5-30.9,38.9c-0.8-1.7-2.6-4.3-4.1-5.7C26,84.6,30.8,72.2,32.5,55.2
			L41.3,56.2z M66.3,84.9c0,3,0.7,3.5,4.7,3.5h13.6c3.9,0,4.6-2.1,5-15.5c1.4,1.2,4.3,2.3,6.2,2.8C95,91,93.1,94.8,85.2,94.8H70.3
			c-8.6,0-10.8-2.1-10.8-10V54H5.4v-6.6h41V26.2H24.7C22.1,32,19.1,37.6,15.6,42c-1.5-1-4.1-2.5-5.8-3.2C16.8,30.2,22,16.6,24.5,6
			L33,8c-0.3,0.7-0.9,1-2.2,1c-0.9,3.2-2,6.9-3.5,10.7h19.1V3.5L55.2,4c-0.1,0.8-0.7,1.3-2,1.4v14.3h33.9v6.5H53.2v21.2h41.1V54h-28
			V84.9z"/>
	</g>
	<g>
		<line x1="55" y1="57" x2="55" y2="69.6"/>
		<g>
			<rect x="54.3" y="57" width="1.5" height="8.1"/>
			<g>
				<path d="M55,69.6c-0.8-2.1-2.1-4.8-3.6-6.4l3.6,1.3l3.6-1.3C57.2,64.8,55.8,67.5,55,69.6z"/>
			</g>
		</g>
	</g>
	<g>
		<path d="M52.5,56.6c-0.1,0-0.2,0-0.4,0c-0.8,0.1-1.3,0.7-1.4,1.4h0c0.2-0.2,0.5-0.4,0.9-0.4c0.7,0,1.2,0.5,1.2,1.3
			c0,0.7-0.5,1.4-1.3,1.4c-0.8,0-1.4-0.6-1.4-1.7c0-0.8,0.3-1.4,0.7-1.8c0.3-0.3,0.8-0.5,1.2-0.6c0.2,0,0.3,0,0.4,0V56.6z
			 M52.3,58.9c0-0.6-0.3-0.9-0.8-0.9c-0.3,0-0.6,0.2-0.8,0.5c0,0.1-0.1,0.1-0.1,0.2c0,0.6,0.3,1.1,0.9,1.1
			C52,59.8,52.3,59.5,52.3,58.9z"/>
	</g>
</g>
<g id="Stroke4" class="st0">
	<g class="st1">
		<path d="M41.3,56.2c-0.1,0.7-0.8,1.2-2.1,1.3c-2.6,17.6-7.5,31.5-30.9,38.9c-0.8-1.7-2.6-4.3-4.1-5.7C26,84.6,30.8,72.2,32.5,55.2
			L41.3,56.2z M59.5,54H5.4v-6.6h41V26.2H24.7C22.1,32,19.1,37.6,15.6,42c-1.5-1-4.1-2.5-5.8-3.2C16.8,30.2,22,16.6,24.5,6L33,8
			c-0.3,0.7-0.9,1-2.2,1c-0.9,3.2-2,6.9-3.5,10.7h19.1V3.5L55.2,4c-0.1,0.8-0.7,1.3-2,1.4v14.3h33.9v6.5H53.2v21.2h41.1V54h-28"/>
	</g>
	<g class="st1">
		<path d="M41.8,70.2l-1.4-0.5c0.3-1,0.6-2,0.9-3.1c0.7-2.7,1.1-5.6,1.2-8.4l1.5,0.1c-0.1,2.9-0.6,5.9-1.3,8.7
			C42.4,68.1,42.1,69.2,41.8,70.2z"/>
		<g>
			<path d="M39.4,74.2c0-2.3-0.3-5.2-1-7.3l2.9,2.5l3.8,0.1C43.1,70.5,40.9,72.5,39.4,74.2z"/>
		</g>
	</g>
	<g class="st1">
		<path d="M48.2,58.5h-1.5l-0.1,1c0.1,0,0.2,0,0.3,0c0.3,0,0.6,0.1,0.8,0.2c0.3,0.2,0.6,0.5,0.6,1c0,0.8-0.6,1.3-1.5,1.3
			c-0.4,0-0.8-0.1-1-0.2l0.1-0.4c0.2,0.1,0.5,0.2,0.8,0.2c0.5,0,0.9-0.3,0.9-0.8c0-0.5-0.3-0.9-1.1-0.9c-0.2,0-0.4,0-0.5,0l0.3-1.9
			h1.9V58.5z"/>
	</g>
</g>
<g id="Stroke3" class="st0">
	<g class="st1">
		<path d="M59.5,54H5.4v-6.6h41V26.2H24.7C22.1,32,19.1,37.6,15.6,42c-1.5-1-4.1-2.5-5.8-3.2C16.8,30.2,22,16.6,24.5,6L33,8
			c-0.3,0.7-0.9,1-2.2,1c-0.9,3.2-2,6.9-3.5,10.7h19.1V3.5L55.2,4c-0.1,0.8-0.7,1.3-2,1.4v14.3h33.9v6.5H53.2v21.2h41.1V54h-28"/>
	</g>
	<g class="st1">
		<line x1="5.4" y1="57.9" x2="23.5" y2="57.9"/>
		<g>
			<rect x="5.4" y="57.2" width="13.6" height="1.5"/>
			<g>
				<path d="M23.5,57.9c-2.1,0.8-4.8,2.1-6.4,3.6l1.3-3.6l-1.3-3.6C18.7,55.8,21.4,57.1,23.5,57.9z"/>
			</g>
		</g>
	</g>
	<g class="st1">
		<path d="M7.3,64.7v-1.1H5.5v-0.3l1.7-2.5h0.6v2.4h0.5v0.4H7.8v1.1H7.3z M7.3,63.2v-1.3c0-0.2,0-0.4,0-0.6h0
			c-0.1,0.2-0.2,0.4-0.3,0.6l-1,1.3v0H7.3z"/>
	</g>
</g>
<g id="Stroke2" class="st0">
	<g class="st1">
		<path d="M46.4,47.4V26.2H24.7C22.1,32,19.1,37.6,15.6,42c-1.5-1-4.1-2.5-5.8-3.2C16.8,30.2,22,16.6,24.5,6L33,8
			c-0.3,0.7-0.9,1-2.2,1c-0.9,3.2-2,6.9-3.5,10.7h19.1V3.5L55.2,4c-0.1,0.8-0.7,1.3-2,1.4v14.3h33.9v6.5H53.2v21.2"/>
	</g>
	<g class="st1">
		<line x1="57.8" y1="4.3" x2="57.8" y2="16.2"/>
		<g>
			<rect x="57.1" y="4.3" width="1.5" height="7.3"/>
			<g>
				<path d="M57.8,16.2c-0.8-2.1-2.1-4.8-3.6-6.4l3.6,1.3l3.6-1.3C60,11.4,58.6,14,57.8,16.2z"/>
			</g>
		</g>
	</g>
	<g class="st1">
		<path d="M60.8,7.2c0.2,0.1,0.5,0.2,0.9,0.2c0.7,0,0.9-0.4,0.9-0.8c0-0.5-0.5-0.8-1-0.8h-0.3V5.5h0.3c0.4,0,0.9-0.2,0.9-0.7
			c0-0.3-0.2-0.6-0.7-0.6c-0.3,0-0.6,0.1-0.8,0.3l-0.1-0.4c0.2-0.1,0.6-0.3,1-0.3c0.8,0,1.1,0.5,1.1,0.9c0,0.4-0.2,0.7-0.7,0.9v0
			c0.5,0.1,0.9,0.5,0.9,1c0,0.6-0.5,1.2-1.4,1.2c-0.4,0-0.8-0.1-1-0.3L60.8,7.2z"/>
	</g>
</g>
<g id="Stroke1" class="st0">
	<g class="st1">
		<path d="M46.4,26.2H24.7C22.1,32,19.1,37.6,15.6,42c-1.5-1-4.1-2.5-5.8-3.2C16.8,30.2,22,16.6,24.5,6L33,8c-0.3,0.7-0.9,1-2.2,1
			c-0.9,3.2-2,6.9-3.5,10.7h19.1h6.8h33.9v6.5H53.2"/>
	</g>
	<g class="st1">
		<line x1="26.5" y1="30.1" x2="39.4" y2="30.1"/>
		<g>
			<rect x="26.5" y="29.4" width="8.4" height="1.5"/>
			<g>
				<path d="M39.4,30.1c-2.1,0.8-4.8,2.1-6.4,3.6l1.3-3.6l-1.3-3.6C34.6,28,37.2,29.3,39.4,30.1z"/>
			</g>
		</g>
	</g>
	<g class="st1">
		<path d="M24.6,36.4V36l0.4-0.4c1-0.9,1.4-1.5,1.5-2c0-0.4-0.2-0.8-0.8-0.8c-0.4,0-0.6,0.2-0.8,0.3l-0.2-0.4
			c0.3-0.2,0.7-0.4,1.1-0.4c0.8,0,1.2,0.6,1.2,1.1c0,0.7-0.5,1.3-1.3,2.1l-0.3,0.3v0h1.8v0.4H24.6z"/>
	</g>
</g>
<g id="Stroke0" class="st0">
	<g class="st1">
		<path d="M24.7,26.2C22.1,32,19.1,37.6,15.6,42c-1.5-1-4.1-2.5-5.8-3.2C16.8,30.2,22,16.6,24.5,6L33,8c-0.3,0.7-0.9,1-2.2,1
			c-0.9,3.2-2,6.9-3.5,10.7"/>
	</g>
	<g class="st1">
		<path d="M31.7,22.2l-1.4-0.5c0.4-0.9,0.7-1.9,1-2.8c0.8-2.5,1.3-5.1,1.6-7.8l1.5,0.2c-0.3,2.7-0.9,5.4-1.7,8
			C32.4,20.3,32.1,21.3,31.7,22.2z"/>
		<g>
			<path d="M29.2,26.1c0.1-2.3-0.1-5.2-0.8-7.3l2.8,2.6l3.8,0.2C33,22.5,30.8,24.5,29.2,26.1z"/>
		</g>
	</g>
	<g class="st1">
		<path d="M36.2,10.2L36.2,10.2l-0.7,0.4l-0.1-0.4l0.9-0.5h0.4v3.9h-0.5V10.2z"/>
	</g>
</g>
<g id="Kanji" class="st0">
	<g class="st1">
		<path d="M41.3,56.2c-0.1,0.7-0.8,1.2-2.1,1.3c-2.6,17.6-7.5,31.5-30.9,38.9c-0.8-1.7-2.6-4.3-4.1-5.7C26,84.6,30.8,72.2,32.5,55.2
			L41.3,56.2z M66.3,84.9c0,3,0.7,3.5,4.7,3.5h13.6c3.9,0,4.6-2.1,5-15.5c1.4,1.2,4.3,2.3,6.2,2.8C95,91,93.1,94.8,85.2,94.8H70.3
			c-8.6,0-10.8-2.1-10.8-10V54H5.4v-6.6h41V26.2H24.7C22.1,32,19.1,37.6,15.6,42c-1.5-1-4.1-2.5-5.8-3.2C16.8,30.2,22,16.6,24.5,6
			L33,8c-0.3,0.7-0.9,1-2.2,1c-0.9,3.2-2,6.9-3.5,10.7h19.1V3.5L55.2,4c-0.1,0.8-0.7,1.3-2,1.4v14.3h33.9v6.5H53.2v21.2h41.1V54h-28
			V84.9z"/>
	</g>
</g>
</svg>
