<?xml version="1.0" encoding="utf-8"?>
<!-- Generator: Adobe Illustrator 26.2.1, SVG Export Plug-In . SVG Version: 6.00 Build 0)  -->
<svg version="1.1" xmlns="http://www.w3.org/2000/svg" xmlns:xlink="http://www.w3.org/1999/xlink" x="0px" y="0px"
	 viewBox="0 0 100 100" style="enable-background:new 0 0 100 100;" xml:space="preserve" width = "100px" height = "100px">
<style type="text/css">
	.st0{display:none;}
	.st1{display:inline;}
</style> 
		<path d="M46.4,26.2H24.7C22.1,32,19.1,37.6,15.6,42c-1.5-1-4.1-2.5-5.8-3.2C16.8,30.2,22,16.6,24.5,6L33,8c-0.3,0.7-0.9,1-2.2,1
			c-0.9,3.2-2,6.9-3.5,10.7h19.1h6.8h33.9v6.5H53.2"/>


		<line x1="26.5" y1="30.1" x2="39.4" y2="30.1"/>

			<rect x="26.5" y="29.4" width="8.4" height="1.5"/>

				<path d="M39.4,30.1c-2.1,0.8-4.8,2.1-6.4,3.6l1.3-3.6l-1.3-3.6C34.6,28,37.2,29.3,39.4,30.1z"/>


		<path d="M24.6,36.4V36l0.4-0.4c1-0.9,1.4-1.5,1.5-2c0-0.4-0.2-0.8-0.8-0.8c-0.4,0-0.6,0.2-0.8,0.3l-0.2-0.4
			c0.3-0.2,0.7-0.4,1.1-0.4c0.8,0,1.2,0.6,1.2,1.1c0,0.7-0.5,1.3-1.3,2.1l-0.3,0.3v0h1.8v0.4H24.6z"/>
</svg>