<?xml version="1.0" encoding="utf-8"?>
<!-- Generator: Adobe Illustrator 26.2.1, SVG Export Plug-In . SVG Version: 6.00 Build 0)  -->
<svg version="1.1" xmlns="http://www.w3.org/2000/svg" xmlns:xlink="http://www.w3.org/1999/xlink" x="0px" y="0px"
	 viewBox="0 0 100 100" style="enable-background:new 0 0 100 100;" xml:space="preserve" width = "100px" height = "100px">
<style type="text/css">
	.st0{display:none;}
	.st1{display:inline;}
</style> 
		<path d="M41.3,56.2c-0.1,0.7-0.8,1.2-2.1,1.3c-2.6,17.6-7.5,31.5-30.9,38.9c-0.8-1.7-2.6-4.3-4.1-5.7C26,84.6,30.8,72.2,32.5,55.2
			L41.3,56.2z M66.3,84.9c0,3,0.7,3.5,4.7,3.5h13.6c3.9,0,4.6-2.1,5-15.5c1.4,1.2,4.3,2.3,6.2,2.8C95,91,93.1,94.8,85.2,94.8H70.3
			c-8.6,0-10.8-2.1-10.8-10V54H5.4v-6.6h41V26.2H24.7C22.1,32,19.1,37.6,15.6,42c-1.5-1-4.1-2.5-5.8-3.2C16.8,30.2,22,16.6,24.5,6
			L33,8c-0.3,0.7-0.9,1-2.2,1c-0.9,3.2-2,6.9-3.5,10.7h19.1V3.5L55.2,4c-0.1,0.8-0.7,1.3-2,1.4v14.3h33.9v6.5H53.2v21.2h41.1V54h-28
			V84.9z"/>

		<line x1="55" y1="57" x2="55" y2="69.6"/>

			<rect x="54.3" y="57" width="1.5" height="8.1"/>

				<path d="M55,69.6c-0.8-2.1-2.1-4.8-3.6-6.4l3.6,1.3l3.6-1.3C57.2,64.8,55.8,67.5,55,69.6z"/>

		<path d="M52.5,56.6c-0.1,0-0.2,0-0.4,0c-0.8,0.1-1.3,0.7-1.4,1.4h0c0.2-0.2,0.5-0.4,0.9-0.4c0.7,0,1.2,0.5,1.2,1.3
			c0,0.7-0.5,1.4-1.3,1.4c-0.8,0-1.4-0.6-1.4-1.7c0-0.8,0.3-1.4,0.7-1.8c0.3-0.3,0.8-0.5,1.2-0.6c0.2,0,0.3,0,0.4,0V56.6z
			 M52.3,58.9c0-0.6-0.3-0.9-0.8-0.9c-0.3,0-0.6,0.2-0.8,0.5c0,0.1-0.1,0.1-0.1,0.2c0,0.6,0.3,1.1,0.9,1.1
			C52,59.8,52.3,59.5,52.3,58.9z"/>
</svg>