<?xml version="1.0" encoding="utf-8"?>
<!-- Generator: Adobe Illustrator 26.2.1, SVG Export Plug-In . SVG Version: 6.00 Build 0)  -->
<svg version="1.1" xmlns="http://www.w3.org/2000/svg" xmlns:xlink="http://www.w3.org/1999/xlink" x="0px" y="0px"
	 viewBox="0 0 100 100" style="enable-background:new 0 0 100 100;" xml:space="preserve" width = "100px" height = "100px">
<style type="text/css">
	.st0{display:none;}
	.st1{display:inline;}
</style> 
		<path d="M24.7,26.2C22.1,32,19.1,37.6,15.6,42c-1.5-1-4.1-2.5-5.8-3.2C16.8,30.2,22,16.6,24.5,6L33,8c-0.3,0.7-0.9,1-2.2,1
			c-0.9,3.2-2,6.9-3.5,10.7"/>
		<path d="M31.7,22.2l-1.4-0.5c0.4-0.9,0.7-1.9,1-2.8c0.8-2.5,1.3-5.1,1.6-7.8l1.5,0.2c-0.3,2.7-0.9,5.4-1.7,8
			C32.4,20.3,32.1,21.3,31.7,22.2z"/>
		<path d="M29.2,26.1c0.1-2.3-0.1-5.2-0.8-7.3l2.8,2.6l3.8,0.2C33,22.5,30.8,24.5,29.2,26.1z"/>
		<path d="M36.2,10.2L36.2,10.2l-0.7,0.4l-0.1-0.4l0.9-0.5h0.4v3.9h-0.5V10.2z"/>
		<path d="M41.3,56.2c-0.1,0.7-0.8,1.2-2.1,1.3c-2.6,17.6-7.5,31.5-30.9,38.9c-0.8-1.7-2.6-4.3-4.1-5.7C26,84.6,30.8,72.2,32.5,55.2
			L41.3,56.2z M66.3,84.9c0,3,0.7,3.5,4.7,3.5h13.6c3.9,0,4.6-2.1,5-15.5c1.4,1.2,4.3,2.3,6.2,2.8C95,91,93.1,94.8,85.2,94.8H70.3
			c-8.6,0-10.8-2.1-10.8-10V54H5.4v-6.6h41V26.2H24.7C22.1,32,19.1,37.6,15.6,42c-1.5-1-4.1-2.5-5.8-3.2C16.8,30.2,22,16.6,24.5,6
			L33,8c-0.3,0.7-0.9,1-2.2,1c-0.9,3.2-2,6.9-3.5,10.7h19.1V3.5L55.2,4c-0.1,0.8-0.7,1.3-2,1.4v14.3h33.9v6.5H53.2v21.2h41.1V54h-28
			V84.9z"/>
			</svg>