<?xml version="1.0" encoding="utf-8"?>
<!-- Generator: Adobe Illustrator 26.2.1, SVG Export Plug-In . SVG Version: 6.00 Build 0)  -->
<svg version="1.1" xmlns="http://www.w3.org/2000/svg" xmlns:xlink="http://www.w3.org/1999/xlink" x="0px" y="0px"
	 viewBox="0 0 100 100" style="enable-background:new 0 0 100 100;" xml:space="preserve" width = "100px" height = "100px">
<style type="text/css">
	.st0{display:none;}
	.st1{display:inline;}
</style>

		<path d="M46.4,47.4V26.2H24.7C22.1,32,19.1,37.6,15.6,42c-1.5-1-4.1-2.5-5.8-3.2C16.8,30.2,22,16.6,24.5,6L33,8
			c-0.3,0.7-0.9,1-2.2,1c-0.9,3.2-2,6.9-3.5,10.7h19.1V3.5L55.2,4c-0.1,0.8-0.7,1.3-2,1.4v14.3h33.9v6.5H53.2v21.2"/>

		<line x1="57.8" y1="4.3" x2="57.8" y2="16.2"/>

			<rect x="57.1" y="4.3" width="1.5" height="7.3"/>
		
				<path d="M57.8,16.2c-0.8-2.1-2.1-4.8-3.6-6.4l3.6,1.3l3.6-1.3C60,11.4,58.6,14,57.8,16.2z"/>


		<path d="M60.8,7.2c0.2,0.1,0.5,0.2,0.9,0.2c0.7,0,0.9-0.4,0.9-0.8c0-0.5-0.5-0.8-1-0.8h-0.3V5.5h0.3c0.4,0,0.9-0.2,0.9-0.7
			c0-0.3-0.2-0.6-0.7-0.6c-0.3,0-0.6,0.1-0.8,0.3l-0.1-0.4c0.2-0.1,0.6-0.3,1-0.3c0.8,0,1.1,0.5,1.1,0.9c0,0.4-0.2,0.7-0.7,0.9v0
			c0.5,0.1,0.9,0.5,0.9,1c0,0.6-0.5,1.2-1.4,1.2c-0.4,0-0.8-0.1-1-0.3L60.8,7.2z"/>


 </svg>