<?xml version="1.0" encoding="utf-8"?>
<!-- Generator: Adobe Illustrator 26.2.1, SVG Export Plug-In . SVG Version: 6.00 Build 0)  -->
<svg version="1.1" xmlns="http://www.w3.org/2000/svg" xmlns:xlink="http://www.w3.org/1999/xlink" x="0px" y="0px"
	 viewBox="0 0 100 100" style="enable-background:new 0 0 100 100;" xml:space="preserve">
<style type="text/css">
	.st0{display:none;}
	.st1{display:inline;}
</style>
<g id="Stroke8">
	<g>
		<path d="M81.7,6.4c-0.4,0.6-1.1,0.9-2.3,0.8c-2.8,3.9-7.4,9.5-11.2,13.2h27v6.2H4.8v-6.2h27.4c-2.4-4-7.3-9.9-11.7-14.1l5.9-2.7
			c4.6,4.1,9.8,10,12.2,14.1l-5.9,2.7h34.8L62.1,18c3.8-4,8.6-10.3,11.3-14.8L81.7,6.4z M43.1,36L43.1,36l3.4,0.1v52.6
			c0,7.1-3.3,7.7-17.5,7.7c-0.4-1.8-1.4-4.3-2.3-6c2.2,0.1,4.4,0.1,6.2,0.1c7.1,0,7.1,0,7.1-1.9V74.5H18.1v22.3h-6.4V36H43.1z
			 M40,41.9H18.1v10.7H40V41.9z M18.1,69.1H40v-11H18.1V69.1z M57.9,37l8.4,0.6c-0.1,0.6-0.7,1.1-2,1.3v39.7h-6.4V37z M87.6,88.4
			c0,7.8-3.1,8.4-19.9,8.4c-0.3-1.9-1.5-4.7-2.5-6.5c3.7,0.1,7.2,0.2,9.7,0.2c5.5,0,6.1,0,6.1-2.1V33.9l8.6,0.4
			c-0.2,0.7-0.7,1.3-2,1.4V88.4z"/>
	</g>
	<g>
		<line x1="91.7" y1="36" x2="91.7" y2="49.1"/>
		<g>
			<rect x="91" y="36" width="1.5" height="8.5"/>
			<g>
				<path d="M91.7,49.1c-0.8-2.1-2.1-4.8-3.6-6.4l3.6,1.3l3.6-1.3C93.9,44.4,92.5,47,91.7,49.1z"/>
			</g>
		</g>
	</g>
	<g>
		<path d="M94.9,39.9c0.1,0,0.2,0,0.4,0c0.3,0,0.6-0.2,0.8-0.4c0.3-0.2,0.4-0.6,0.5-1h0c-0.2,0.3-0.5,0.4-0.9,0.4
			c-0.7,0-1.2-0.5-1.2-1.2c0-0.7,0.5-1.4,1.3-1.4s1.3,0.6,1.3,1.6c0,0.9-0.3,1.5-0.7,1.8c-0.3,0.3-0.7,0.5-1.1,0.5
			c-0.2,0-0.4,0-0.5,0V39.9z M95.1,37.6c0,0.5,0.3,0.8,0.8,0.8c0.4,0,0.6-0.2,0.8-0.4c0,0,0-0.1,0-0.2c0-0.7-0.2-1.2-0.8-1.2
			C95.4,36.7,95.1,37.1,95.1,37.6z"/>
	</g>
</g>
<g id="Stroke7" class="st0">
	<g class="st1">
		<path d="M81.7,6.4c-0.4,0.6-1.1,0.9-2.3,0.8c-2.8,3.9-7.4,9.5-11.2,13.2h27v6.2H4.8v-6.2h27.4c-2.4-4-7.3-9.9-11.7-14.1l5.9-2.7
			c4.6,4.1,9.8,10,12.2,14.1l-5.9,2.7h34.8L62.1,18c3.8-4,8.6-10.3,11.3-14.8L81.7,6.4z M43.1,36L43.1,36l3.4,0.1v52.6
			c0,7.1-3.3,7.7-17.5,7.7c-0.4-1.8-1.4-4.3-2.3-6c2.2,0.1,4.4,0.1,6.2,0.1c7.1,0,7.1,0,7.1-1.9V74.5H18.1v22.3h-6.4V36H43.1z
			 M40,41.9H18.1v10.7H40V41.9z M18.1,69.1H40v-11H18.1V69.1z M57.9,37l8.4,0.6c-0.1,0.6-0.7,1.1-2,1.3v39.7h-6.4V37z"/>
	</g>
	<g class="st1">
		<line x1="69" y1="38.9" x2="69" y2="52.7"/>
		<g>
			<rect x="68.3" y="38.9" width="1.5" height="9.2"/>
			<g>
				<path d="M69,52.7c-0.8-2.1-2.1-4.8-3.6-6.4l3.6,1.3l3.6-1.3C71.2,47.9,69.8,50.5,69,52.7z"/>
			</g>
		</g>
	</g>
	<g class="st1">
		<path d="M71.9,42c0-0.5,0.3-0.8,0.8-1l0,0c-0.4-0.2-0.6-0.5-0.6-0.9c0-0.6,0.5-1,1.2-1c0.8,0,1.1,0.5,1.1,1c0,0.3-0.2,0.7-0.6,0.9
			v0c0.5,0.2,0.8,0.5,0.8,1c0,0.7-0.6,1.1-1.3,1.1C72.4,43.1,71.9,42.6,71.9,42z M74,42c0-0.5-0.3-0.7-0.9-0.9
			c-0.5,0.1-0.7,0.4-0.7,0.8c0,0.4,0.3,0.7,0.8,0.7C73.7,42.7,74,42.4,74,42z M72.6,40c0,0.4,0.3,0.6,0.7,0.7
			c0.3-0.1,0.6-0.4,0.6-0.7c0-0.3-0.2-0.6-0.7-0.6C72.8,39.4,72.6,39.7,72.6,40z"/>
	</g>
</g>
<g id="Stroke6" class="st0">
	<g class="st1">
		<path d="M81.7,6.4c-0.4,0.6-1.1,0.9-2.3,0.8c-2.8,3.9-7.4,9.5-11.2,13.2h27v6.2H4.8v-6.2h27.4c-2.4-4-7.3-9.9-11.7-14.1l5.9-2.7
			c4.6,4.1,9.8,10,12.2,14.1l-5.9,2.7h34.8L62.1,18c3.8-4,8.6-10.3,11.3-14.8L81.7,6.4z M43.1,36L43.1,36l3.4,0.1v52.6
			c0,7.1-3.3,7.7-17.5,7.7c-0.4-1.8-1.4-4.3-2.3-6c2.2,0.1,4.4,0.1,6.2,0.1c7.1,0,7.1,0,7.1-1.9V74.5H18.1v22.3h-6.4V36H43.1z
			 M40,41.9H18.1v10.7H40V41.9z M18.1,69.1H40v-11H18.1V69.1z"/>
	</g>
	<g class="st1">
		<line x1="19.3" y1="78.6" x2="34.8" y2="78.6"/>
		<g>
			<rect x="19.3" y="77.8" width="11" height="1.5"/>
			<g>
				<path d="M34.8,78.6c-2.1,0.8-4.8,2.1-6.4,3.6l1.3-3.6L28.4,75C30,76.4,32.6,77.8,34.8,78.6z"/>
			</g>
		</g>
	</g>
	<g class="st1">
		<path d="M22.4,81.1v0.3L20.7,85h-0.5l1.7-3.4v0h-1.9v-0.4H22.4z"/>
	</g>
</g>
<g id="Stroke5" class="st0">
	<g class="st1">
		<path d="M81.7,6.4c-0.4,0.6-1.1,0.9-2.3,0.8c-2.8,3.9-7.4,9.5-11.2,13.2h27v6.2H4.8v-6.2h27.4c-2.4-4-7.3-9.9-11.7-14.1l5.9-2.7
			c4.6,4.1,9.8,10,12.2,14.1l-5.9,2.7h34.8L62.1,18c3.8-4,8.6-10.3,11.3-14.8L81.7,6.4z M40,41.9H18.1v10.7H40V41.9z M40,58.1H18.1
			v38.7h-6.4V36h31.4v0.1h3.4v52.6c0,7.1-3.3,7.7-17.5,7.7c-0.4-1.8-1.4-4.3-2.3-6c2.2,0.1,4.4,0.1,6.2,0.1c7.1,0,7.1,0,7.1-1.9"/>
	</g>
	<g class="st1">
		<path d="M19.2,62.1c2.5,0,14.3,0,14.3,0"/>
		<g>
			<rect x="19.2" y="61.4" width="9.8" height="1.5"/>
			<g>
				<path d="M33.5,62.1c-2.1,0.8-4.8,2.1-6.4,3.6l1.3-3.6l-1.3-3.6C28.7,60,31.4,61.3,33.5,62.1z"/>
			</g>
		</g>
	</g>
	<g class="st1">
		<path d="M22,65.5c-0.1,0-0.2,0-0.4,0c-0.8,0.1-1.3,0.7-1.4,1.4h0c0.2-0.2,0.5-0.4,0.9-0.4c0.7,0,1.2,0.5,1.2,1.3
			c0,0.7-0.5,1.4-1.3,1.4c-0.8,0-1.4-0.6-1.4-1.7c0-0.8,0.3-1.4,0.7-1.8c0.3-0.3,0.8-0.5,1.2-0.6c0.2,0,0.3,0,0.4,0V65.5z
			 M21.8,67.8c0-0.6-0.3-0.9-0.8-0.9c-0.3,0-0.6,0.2-0.8,0.5c0,0.1-0.1,0.1-0.1,0.2c0,0.6,0.3,1.1,0.9,1.1
			C21.5,68.7,21.8,68.3,21.8,67.8z"/>
	</g>
</g>
<g id="Stroke4" class="st0">
	<g class="st1">
		<path d="M81.7,6.4c-0.4,0.6-1.1,0.9-2.3,0.8c-2.8,3.9-7.4,9.5-11.2,13.2h27v6.2H4.8v-6.2h27.4c-2.4-4-7.3-9.9-11.7-14.1l5.9-2.7
			c4.6,4.1,9.8,10,12.2,14.1l-5.9,2.7h34.8L62.1,18c3.8-4,8.6-10.3,11.3-14.8L81.7,6.4z M40,41.9H18.1v54.8h-6.4V36h31.4v0.1h3.4
			v52.6c0,7.1-3.3,7.7-17.5,7.7c-0.4-1.8-1.4-4.3-2.3-6c2.2,0.1,4.4,0.1,6.2,0.1c7.1,0,7.1,0,7.1-1.9 M81,33.9"/>
	</g>
	<g class="st1">
		<line x1="20.4" y1="45.8" x2="33" y2="45.8"/>
		<g>
			<rect x="20.4" y="45" width="8.1" height="1.5"/>
			<g>
				<path d="M33,45.8c-2.1,0.8-4.8,2.1-6.4,3.6l1.3-3.6l-1.3-3.6C28.3,43.6,30.9,45,33,45.8z"/>
			</g>
		</g>
	</g>
	<g class="st1">
		<path d="M23,49h-1.5l-0.1,1c0.1,0,0.2,0,0.3,0c0.3,0,0.6,0.1,0.8,0.2c0.3,0.2,0.6,0.5,0.6,1c0,0.8-0.6,1.3-1.5,1.3
			c-0.4,0-0.8-0.1-1-0.2l0.1-0.4c0.2,0.1,0.5,0.2,0.8,0.2c0.5,0,0.9-0.3,0.9-0.8c0-0.5-0.3-0.9-1.1-0.9c-0.2,0-0.4,0-0.5,0l0.3-1.9
			H23V49z"/>
	</g>
</g>
<g id="Stroke3" class="st0">
	<g class="st1">
		<path d="M81.7,6.4c-0.4,0.6-1.1,0.9-2.3,0.8c-2.8,3.9-7.4,9.5-11.2,13.2h27v6.2H4.8v-6.2h27.4c-2.4-4-7.3-9.9-11.7-14.1l5.9-2.7
			c4.6,4.1,9.8,10,12.2,14.1l-5.9,2.7h34.8L62.1,18c3.8-4,8.6-10.3,11.3-14.8L81.7,6.4z M18.1,36v5.9v10.7v5.4v11v5.4v22.3h-6.4V36"
			/>
	</g>
	<g class="st1">
		<line x1="22" y1="36" x2="22" y2="49.5"/>
		<g>
			<rect x="21.2" y="36" width="1.5" height="8.9"/>
			<g>
				<path d="M22,49.5c-0.8-2.1-2.1-4.8-3.6-6.4l3.6,1.3l3.6-1.3C24.1,44.7,22.8,47.4,22,49.5z"/>
			</g>
		</g>
	</g>
	<g class="st1">
		<path d="M27.2,40.9v-1.1h-1.8v-0.3l1.7-2.5h0.6v2.4h0.5v0.4h-0.5v1.1H27.2z M27.2,39.4v-1.3c0-0.2,0-0.4,0-0.6h0
			c-0.1,0.2-0.2,0.4-0.3,0.6l-1,1.3v0H27.2z"/>
	</g>
</g>
<g id="Stroke2" class="st0">
	<g class="st1">
		<path d="M81.7,6.4c-0.4,0.6-1.1,0.9-2.3,0.8c-2.8,3.9-7.4,9.5-11.2,13.2h27v6.2H4.8v-6.2h27.4c-2.4-4-7.3-9.9-11.7-14.1l5.9-2.7
			c4.6,4.1,9.8,10,12.2,14.1l-5.9,2.7h34.8L62.1,18c3.8-4,8.6-10.3,11.3-14.8L81.7,6.4z"/>
	</g>
	<g class="st1">
		<line x1="4.8" y1="30.5" x2="24.1" y2="30.5"/>
		<g>
			<rect x="4.8" y="29.8" width="14.8" height="1.5"/>
			<g>
				<path d="M24.1,30.5c-2.1,0.8-4.8,2.1-6.4,3.6l1.3-3.6L17.7,27C19.3,28.4,22,29.8,24.1,30.5z"/>
			</g>
		</g>
	</g>
	<g class="st1">
		<path d="M5.2,36.3c0.1,0.1,0.5,0.2,0.9,0.2c0.7,0,0.9-0.4,0.9-0.8c0-0.5-0.5-0.8-1-0.8H5.6v-0.4h0.3c0.4,0,0.9-0.2,0.9-0.7
			c0-0.3-0.2-0.6-0.7-0.6c-0.3,0-0.6,0.1-0.8,0.3l-0.1-0.4c0.2-0.1,0.6-0.3,1-0.3c0.8,0,1.1,0.5,1.1,0.9c0,0.4-0.2,0.7-0.7,0.9v0
			c0.5,0.1,0.9,0.5,0.9,1C7.5,36.5,7,37,6.1,37c-0.4,0-0.8-0.1-1-0.3L5.2,36.3z"/>
	</g>
</g>
<g id="Stroke1" class="st0">
	<g class="st1">
		<path d="M32.2,20.4c-2.4-4-7.3-9.9-11.7-14.1l5.9-2.7c4.6,4.1,9.8,10,12.2,14.1l-5.9,2.7h34.8L62.1,18c3.8-4,8.6-10.3,11.3-14.8
			l8.3,3.2c-0.4,0.6-1.1,0.9-2.3,0.8c-2.8,3.9-7.4,9.5-11.2,13.2"/>
	</g>
	<g class="st1">
		<path d="M83.8,9.4c-2.5,2.7-4.9,5.5-7.4,8.3c-0.7,0.8-1.4,1.5-2,2.3"/>
		<g>
			<path d="M77.9,17l-1.1-1c2.1-2.4,4.3-4.8,6.5-7.2l1.1,1C82.1,12.2,80,14.7,77.9,17z"/>
			<g>
				<path d="M74.3,19.9c0.8-2.1,1.6-5,1.6-7.2l1.8,3.3l3.5,1.4C79.1,17.8,76.3,18.9,74.3,19.9z"/>
			</g>
		</g>
	</g>
	<g class="st1">
		<path d="M84.7,14.7v-0.3l0.4-0.4c1-0.9,1.4-1.5,1.5-2c0-0.4-0.2-0.8-0.8-0.8c-0.4,0-0.6,0.2-0.8,0.3l-0.2-0.4
			c0.3-0.2,0.7-0.4,1.1-0.4c0.8,0,1.2,0.6,1.2,1.1c0,0.7-0.5,1.3-1.3,2.1l-0.3,0.3v0h1.8v0.4H84.7z"/>
	</g>
</g>
<g id="Stroke0" class="st0">
	<g class="st1">
		<path d="M32.2,20.4c-2.4-4-7.3-9.9-11.7-14.1l5.9-2.7c4.6,4.1,9.8,10,12.2,14.1l-5.9,2.7"/>
	</g>
	<g class="st1">
		<path d="M24,17.8c-0.4-0.5-0.8-1.1-1.3-1.6c-1.5-1.8-3.1-3.5-4.8-5.1l1-1.1c1.8,1.6,3.4,3.4,5,5.3c0.5,0.6,0.9,1.1,1.3,1.6
			L24,17.8z"/>
		<g>
			<path d="M27.3,21c-1.9-1.3-4.5-2.6-6.7-3.1l3.6-1.1l2.1-3.1C26.2,15.9,26.6,18.9,27.3,21z"/>
		</g>
	</g>
	<g class="st1">
		<path d="M17.9,14.3L17.9,14.3l-0.7,0.4l-0.1-0.4l0.9-0.5h0.4v3.9h-0.5V14.3z"/>
	</g>
</g>
<g id="Kanji" class="st0">
	<g class="st1">
		<path d="M81.7,6.4c-0.4,0.6-1.1,0.9-2.3,0.8c-2.8,3.9-7.4,9.5-11.2,13.2h27v6.2H4.8v-6.2h27.4c-2.4-4-7.3-9.9-11.7-14.1l5.9-2.7
			c4.6,4.1,9.8,10,12.2,14.1l-5.9,2.7h34.8L62.1,18c3.8-4,8.6-10.3,11.3-14.8L81.7,6.4z M43.1,36L43.1,36l3.4,0.1v52.6
			c0,7.1-3.3,7.7-17.5,7.7c-0.4-1.8-1.4-4.3-2.3-6c2.2,0.1,4.4,0.1,6.2,0.1c7.1,0,7.1,0,7.1-1.9V74.5H18.1v22.3h-6.4V36H43.1z
			 M40,41.9H18.1v10.7H40V41.9z M18.1,69.1H40v-11H18.1V69.1z M57.9,37l8.4,0.6c-0.1,0.6-0.7,1.1-2,1.3v39.7h-6.4V37z M87.6,88.4
			c0,7.8-3.1,8.4-19.9,8.4c-0.3-1.9-1.5-4.7-2.5-6.5c3.7,0.1,7.2,0.2,9.7,0.2c5.5,0,6.1,0,6.1-2.1V33.9l8.6,0.4
			c-0.2,0.7-0.7,1.3-2,1.4V88.4z"/>
	</g>
</g>
</svg>
