<?xml version="1.0" encoding="utf-8"?>
<!-- Generator: Adobe Illustrator 26.2.1, SVG Export Plug-In . SVG Version: 6.00 Build 0)  -->
<svg version="1.1" xmlns="http://www.w3.org/2000/svg" xmlns:xlink="http://www.w3.org/1999/xlink" x="0px" y="0px"
	 viewBox="0 0 100 100" style="enable-background:new 0 0 100 100;" xml:space="preserve" width = "100px" height = "100px">
<style type="text/css">
	.st0{display:none;}
	.st1{display:inline;}
</style>


		<path d="M81.7,6.4c-0.4,0.6-1.1,0.9-2.3,0.8c-2.8,3.9-7.4,9.5-11.2,13.2h27v6.2H4.8v-6.2h27.4c-2.4-4-7.3-9.9-11.7-14.1l5.9-2.7
			c4.6,4.1,9.8,10,12.2,14.1l-5.9,2.7h34.8L62.1,18c3.8-4,8.6-10.3,11.3-14.8L81.7,6.4z M43.1,36L43.1,36l3.4,0.1v52.6
			c0,7.1-3.3,7.7-17.5,7.7c-0.4-1.8-1.4-4.3-2.3-6c2.2,0.1,4.4,0.1,6.2,0.1c7.1,0,7.1,0,7.1-1.9V74.5H18.1v22.3h-6.4V36H43.1z
			 M40,41.9H18.1v10.7H40V41.9z M18.1,69.1H40v-11H18.1V69.1z M57.9,37l8.4,0.6c-0.1,0.6-0.7,1.1-2,1.3v39.7h-6.4V37z"/>


		<line x1="69" y1="38.9" x2="69" y2="52.7"/>

			<rect x="68.3" y="38.9" width="1.5" height="9.2"/>

				<path d="M69,52.7c-0.8-2.1-2.1-4.8-3.6-6.4l3.6,1.3l3.6-1.3C71.2,47.9,69.8,50.5,69,52.7z"/>

		<path d="M71.9,42c0-0.5,0.3-0.8,0.8-1l0,0c-0.4-0.2-0.6-0.5-0.6-0.9c0-0.6,0.5-1,1.2-1c0.8,0,1.1,0.5,1.1,1c0,0.3-0.2,0.7-0.6,0.9
			v0c0.5,0.2,0.8,0.5,0.8,1c0,0.7-0.6,1.1-1.3,1.1C72.4,43.1,71.9,42.6,71.9,42z M74,42c0-0.5-0.3-0.7-0.9-0.9
			c-0.5,0.1-0.7,0.4-0.7,0.8c0,0.4,0.3,0.7,0.8,0.7C73.7,42.7,74,42.4,74,42z M72.6,40c0,0.4,0.3,0.6,0.7,0.7
			c0.3-0.1,0.6-0.4,0.6-0.7c0-0.3-0.2-0.6-0.7-0.6C72.8,39.4,72.6,39.7,72.6,40z"/>


 </svg>