<?xml version="1.0" encoding="utf-8"?>
<!-- Generator: Adobe Illustrator 26.2.1, SVG Export Plug-In . SVG Version: 6.00 Build 0)  -->
<svg version="1.1" xmlns="http://www.w3.org/2000/svg" xmlns:xlink="http://www.w3.org/1999/xlink" x="0px" y="0px"
	 viewBox="0 0 100 100" style="enable-background:new 0 0 100 100;" xml:space="preserve" width = "100px" height = "100px">
<style type="text/css">
	.st0{display:none;}
	.st1{display:inline;}
</style> 

		<path d="M81.7,6.4c-0.4,0.6-1.1,0.9-2.3,0.8c-2.8,3.9-7.4,9.5-11.2,13.2h27v6.2H4.8v-6.2h27.4c-2.4-4-7.3-9.9-11.7-14.1l5.9-2.7
			c4.6,4.1,9.8,10,12.2,14.1l-5.9,2.7h34.8L62.1,18c3.8-4,8.6-10.3,11.3-14.8L81.7,6.4z M40,41.9H18.1v54.8h-6.4V36h31.4v0.1h3.4
			v52.6c0,7.1-3.3,7.7-17.5,7.7c-0.4-1.8-1.4-4.3-2.3-6c2.2,0.1,4.4,0.1,6.2,0.1c7.1,0,7.1,0,7.1-1.9 M81,33.9"/>


		<line x1="20.4" y1="45.8" x2="33" y2="45.8"/>

			<rect x="20.4" y="45" width="8.1" height="1.5"/>
	
				<path d="M33,45.8c-2.1,0.8-4.8,2.1-6.4,3.6l1.3-3.6l-1.3-3.6C28.3,43.6,30.9,45,33,45.8z"/>

		<path d="M23,49h-1.5l-0.1,1c0.1,0,0.2,0,0.3,0c0.3,0,0.6,0.1,0.8,0.2c0.3,0.2,0.6,0.5,0.6,1c0,0.8-0.6,1.3-1.5,1.3
			c-0.4,0-0.8-0.1-1-0.2l0.1-0.4c0.2,0.1,0.5,0.2,0.8,0.2c0.5,0,0.9-0.3,0.9-0.8c0-0.5-0.3-0.9-1.1-0.9c-0.2,0-0.4,0-0.5,0l0.3-1.9
			H23V49z"/>



</svg>