<?xml version="1.0" encoding="utf-8"?>
<!-- Generator: Adobe Illustrator 26.2.1, SVG Export Plug-In . SVG Version: 6.00 Build 0)  -->
<svg version="1.1" xmlns="http://www.w3.org/2000/svg" xmlns:xlink="http://www.w3.org/1999/xlink" x="0px" y="0px"
	 viewBox="0 0 100 100" style="enable-background:new 0 0 100 100;" xml:space="preserve" width = "100px" height = "100px">
<style type="text/css">
	.st0{display:none;}
	.st1{display:inline;}
</style> 

		<path d="M81.7,6.4c-0.4,0.6-1.1,0.9-2.3,0.8c-2.8,3.9-7.4,9.5-11.2,13.2h27v6.2H4.8v-6.2h27.4c-2.4-4-7.3-9.9-11.7-14.1l5.9-2.7
			c4.6,4.1,9.8,10,12.2,14.1l-5.9,2.7h34.8L62.1,18c3.8-4,8.6-10.3,11.3-14.8L81.7,6.4z"/>

		<line x1="4.8" y1="30.5" x2="24.1" y2="30.5"/>

			<rect x="4.8" y="29.8" width="14.8" height="1.5"/>
			
				<path d="M24.1,30.5c-2.1,0.8-4.8,2.1-6.4,3.6l1.3-3.6L17.7,27C19.3,28.4,22,29.8,24.1,30.5z"/>

		<path d="M5.2,36.3c0.1,0.1,0.5,0.2,0.9,0.2c0.7,0,0.9-0.4,0.9-0.8c0-0.5-0.5-0.8-1-0.8H5.6v-0.4h0.3c0.4,0,0.9-0.2,0.9-0.7
			c0-0.3-0.2-0.6-0.7-0.6c-0.3,0-0.6,0.1-0.8,0.3l-0.1-0.4c0.2-0.1,0.6-0.3,1-0.3c0.8,0,1.1,0.5,1.1,0.9c0,0.4-0.2,0.7-0.7,0.9v0
			c0.5,0.1,0.9,0.5,0.9,1C7.5,36.5,7,37,6.1,37c-0.4,0-0.8-0.1-1-0.3L5.2,36.3z"/>



</svg>