<?xml version="1.0" encoding="utf-8"?>
<!-- Generator: Adobe Illustrator 26.2.1, SVG Export Plug-In . SVG Version: 6.00 Build 0)  -->
<svg version="1.1" xmlns="http://www.w3.org/2000/svg" xmlns:xlink="http://www.w3.org/1999/xlink" x="0px" y="0px"
	 viewBox="0 0 100 100" style="enable-background:new 0 0 100 100;" xml:space="preserve" width = "100px" height = "100px">
<style type="text/css">
	.st0{display:none;}
	.st1{display:inline;}
</style> 

		<path d="M32.2,20.4c-2.4-4-7.3-9.9-11.7-14.1l5.9-2.7c4.6,4.1,9.8,10,12.2,14.1l-5.9,2.7"/>


		<path d="M24,17.8c-0.4-0.5-0.8-1.1-1.3-1.6c-1.5-1.8-3.1-3.5-4.8-5.1l1-1.1c1.8,1.6,3.4,3.4,5,5.3c0.5,0.6,0.9,1.1,1.3,1.6
			L24,17.8z"/>
	
			<path d="M27.3,21c-1.9-1.3-4.5-2.6-6.7-3.1l3.6-1.1l2.1-3.1C26.2,15.9,26.6,18.9,27.3,21z"/>
	
		<path d="M17.9,14.3L17.9,14.3l-0.7,0.4l-0.1-0.4l0.9-0.5h0.4v3.9h-0.5V14.3z"/>



</svg>