<?xml version="1.0" encoding="utf-8"?>
<!-- Generator: Adobe Illustrator 26.2.1, SVG Export Plug-In . SVG Version: 6.00 Build 0)  -->
<svg version="1.1" xmlns="http://www.w3.org/2000/svg" xmlns:xlink="http://www.w3.org/1999/xlink" x="0px" y="0px"
	 viewBox="0 0 100 100" style="enable-background:new 0 0 100 100;" xml:space="preserve" width = "100px" height = "100px">
<style type="text/css">
	.st0{display:none;}
	.st1{display:inline;}
</style> 

		<path d="M81.7,6.4c-0.4,0.6-1.1,0.9-2.3,0.8c-2.8,3.9-7.4,9.5-11.2,13.2h27v6.2H4.8v-6.2h27.4c-2.4-4-7.3-9.9-11.7-14.1l5.9-2.7
			c4.6,4.1,9.8,10,12.2,14.1l-5.9,2.7h34.8L62.1,18c3.8-4,8.6-10.3,11.3-14.8L81.7,6.4z M18.1,36v5.9v10.7v5.4v11v5.4v22.3h-6.4V36"
			/>


		<line x1="22" y1="36" x2="22" y2="49.5"/>

			<rect x="21.2" y="36" width="1.5" height="8.9"/>

				<path d="M22,49.5c-0.8-2.1-2.1-4.8-3.6-6.4l3.6,1.3l3.6-1.3C24.1,44.7,22.8,47.4,22,49.5z"/>

		<path d="M27.2,40.9v-1.1h-1.8v-0.3l1.7-2.5h0.6v2.4h0.5v0.4h-0.5v1.1H27.2z M27.2,39.4v-1.3c0-0.2,0-0.4,0-0.6h0
			c-0.1,0.2-0.2,0.4-0.3,0.6l-1,1.3v0H27.2z"/>


</svg>