<?xml version="1.0" encoding="utf-8"?>
<!-- Generator: Adobe Illustrator 26.2.1, SVG Export Plug-In . SVG Version: 6.00 Build 0)  -->
<svg version="1.1" xmlns="http://www.w3.org/2000/svg" xmlns:xlink="http://www.w3.org/1999/xlink" x="0px" y="0px"
	 viewBox="0 0 100 100" style="enable-background:new 0 0 100 100;" xml:space="preserve">
<style type="text/css">
	.st0{display:none;}
	.st1{display:inline;}
</style>
<g id="Stroke12">
	<g>
		<path d="M30.9,63.2c3.7,2.6,14.2,11.1,16.7,13.3l-4,5.1c-2.3-2.6-8.2-8.1-12.7-12.1v26.9h-6.6V68.8c-4.8,7.9-11,15.3-16.6,19.7
			c-1.1-1.6-3.1-3.8-4.5-4.9c7.1-4.7,14.9-14.1,19.8-23.3H5.1v-5.9h19.2V43.8H3.8v-5.9h12.3c-0.5-4.3-2.2-10.6-4.3-15.4l5.4-1.5
			c2.3,5,4.2,11.5,4.7,15.8l-3.7,1.1H35c-1.3-0.5-2.7-1-2.8-1c2-4.4,4.4-11.4,5.6-16.2l7.6,2.4c-0.2,0.6-0.9,0.9-2,1
			c-1.4,3.9-3.8,9.7-5.8,13.8h14.6v5.9H31.9c-0.3,0.1-0.6,0.2-1,0.2v10.4h19.8v5.9H30.9V63.2z M50.1,14.6v5.8H5.8v-5.8h18.5V3.4
			l8.5,0.5c-0.1,0.7-0.6,1.2-1.9,1.4v9.3H50.1z M96.8,37.8v6.3H85v52.2h-6.6V44.1H62.6v3.7c0,15-1.9,34.8-16.3,48.7
			c-0.8-1.5-3.1-3.8-4.7-4.7C54.7,79.3,56.2,62,56.2,47.8V12.9l4.9,1.6c10.4-3,21.6-7.1,27.9-10.8l6.7,5.1c-0.3,0.3-1,0.5-2.1,0.3
			c-7.4,3.7-19.7,7.8-31,10.6v18.1H96.8z"/>
	</g>
	<g>
		<line x1="74.5" y1="46.6" x2="74.5" y2="59.8"/>
		<g>
			<rect x="73.7" y="46.6" width="1.5" height="8.7"/>
			<g>
				<path d="M74.5,59.8c-0.8-2.1-2.1-4.8-3.6-6.4l3.6,1.3l3.6-1.3C76.6,55,75.3,57.6,74.5,59.8z"/>
			</g>
		</g>
	</g>
	<g>
		<path d="M67.8,47.1L67.8,47.1l-0.7,0.4L67,47.1l0.9-0.5h0.4v3.9h-0.5V47.1z"/>
		<path d="M69.9,49.9c0.2,0.1,0.5,0.2,0.9,0.2c0.7,0,0.9-0.4,0.9-0.8c0-0.5-0.5-0.8-1-0.8h-0.3v-0.4h0.3c0.4,0,0.9-0.2,0.9-0.7
			c0-0.3-0.2-0.6-0.7-0.6c-0.3,0-0.6,0.1-0.8,0.3l-0.1-0.4c0.2-0.1,0.6-0.3,1-0.3c0.8,0,1.1,0.5,1.1,0.9c0,0.4-0.2,0.7-0.7,0.9v0
			c0.5,0.1,0.9,0.5,0.9,1c0,0.6-0.5,1.2-1.4,1.2c-0.4,0-0.8-0.1-1-0.3L69.9,49.9z"/>
	</g>
</g>
<g id="Stroke11" class="st0">
	<g class="st1">
		<path d="M30.9,63.2c3.7,2.6,14.2,11.1,16.7,13.3l-4,5.1c-2.3-2.6-8.2-8.1-12.7-12.1v26.9h-6.6V68.8c-4.8,7.9-11,15.3-16.6,19.7
			c-1.1-1.6-3.1-3.8-4.5-4.9c7.1-4.7,14.9-14.1,19.8-23.3H5.1v-5.9h19.2V43.8H3.8v-5.9h12.3c-0.5-4.3-2.2-10.6-4.3-15.4l5.4-1.5
			c2.3,5,4.2,11.5,4.7,15.8l-3.7,1.1H35c-1.3-0.5-2.7-1-2.8-1c2-4.4,4.4-11.4,5.6-16.2l7.6,2.4c-0.2,0.6-0.9,0.9-2,1
			c-1.4,3.9-3.8,9.7-5.8,13.8h14.6v5.9H31.9c-0.3,0.1-0.6,0.2-1,0.2v10.4h19.8v5.9H30.9V63.2z M50.1,14.6v5.8H5.8v-5.8h18.5V3.4
			l8.5,0.5c-0.1,0.7-0.6,1.2-1.9,1.4v9.3H50.1z M78.4,44.1H62.6v3.7c0,15-1.9,34.8-16.3,48.7c-0.8-1.5-3.1-3.8-4.7-4.7
			C54.7,79.3,56.2,62,56.2,47.8V12.9l4.9,1.6c10.4-3,21.6-7.1,27.9-10.8l6.7,5.1c-0.3,0.3-1,0.5-2.1,0.3c-7.4,3.7-19.7,7.8-31,10.6
			v18.1h34.2v6.3H85"/>
	</g>
	<g class="st1">
		<line x1="64.2" y1="48.1" x2="78.3" y2="48.1"/>
		<g>
			<rect x="64.2" y="47.4" width="9.6" height="1.5"/>
			<g>
				<path d="M78.3,48.1c-2.1,0.8-4.8,2.1-6.4,3.6l1.3-3.6l-1.3-3.6C73.6,46,76.2,47.3,78.3,48.1z"/>
			</g>
		</g>
	</g>
	<g class="st1">
		<path d="M65.2,51L65.2,51l-0.7,0.4l-0.1-0.4l0.9-0.5h0.4v3.9h-0.5V51z"/>
		<path d="M67.1,54.4V54l0.4-0.4c1-0.9,1.4-1.5,1.5-2c0-0.4-0.2-0.8-0.8-0.8c-0.4,0-0.6,0.2-0.8,0.3l-0.2-0.4
			c0.3-0.2,0.7-0.4,1.1-0.4c0.8,0,1.2,0.6,1.2,1.1c0,0.7-0.5,1.3-1.3,2.1l-0.3,0.3v0h1.8v0.4H67.1z"/>
	</g>
</g>
<g id="Stroke10" class="st0">
	<g class="st1">
		<path d="M30.9,63.2c3.7,2.6,14.2,11.1,16.7,13.3l-4,5.1c-2.3-2.6-8.2-8.1-12.7-12.1v26.9h-6.6V68.8c-4.8,7.9-11,15.3-16.6,19.7
			c-1.1-1.6-3.1-3.8-4.5-4.9c7.1-4.7,14.9-14.1,19.8-23.3H5.1v-5.9h19.2V43.8H3.8v-5.9h12.3c-0.5-4.3-2.2-10.6-4.3-15.4l5.4-1.5
			c2.3,5,4.2,11.5,4.7,15.8l-3.7,1.1H35c-1.3-0.5-2.7-1-2.8-1c2-4.4,4.4-11.4,5.6-16.2l7.6,2.4c-0.2,0.6-0.9,0.9-2,1
			c-1.4,3.9-3.8,9.7-5.8,13.8h14.6v5.9H31.9c-0.3,0.1-0.6,0.2-1,0.2v10.4h19.8v5.9H30.9V63.2z M50.1,14.6v5.8H5.8v-5.8h18.5V3.4
			l8.5,0.5c-0.1,0.7-0.6,1.2-1.9,1.4v9.3H50.1z M63.1,44v3.7c0,15-1.9,34.8-16.3,48.7c-0.8-1.5-3.1-3.8-4.7-4.7
			c13.1-12.6,14.6-29.9,14.6-44.1V12.8l4.9,1.6c10.4-3,21.6-7.1,27.9-10.8l6.7,5.1c-0.3,0.3-1,0.5-2.1,0.3
			c-7.4,3.7-19.7,7.8-31,10.6v18.1"/>
	</g>
	<g class="st1">
		<line x1="67.1" y1="21.4" x2="67.1" y2="32.1"/>
		<g>
			<rect x="66.3" y="21.4" width="1.5" height="6.1"/>
			<g>
				<path d="M67.1,32.1c-0.8-2.1-2.1-4.8-3.6-6.4l3.6,1.3l3.6-1.3C69.2,27.3,67.9,29.9,67.1,32.1z"/>
			</g>
		</g>
	</g>
	<g class="st1">
		<path d="M69.7,20L69.7,20L69,20.3l-0.1-0.4l0.9-0.5h0.4v3.9h-0.5V20z"/>
		<path d="M72.8,20L72.8,20l-0.7,0.4L72,19.9l0.9-0.5h0.4v3.9h-0.5V20z"/>
	</g>
</g>
<g id="Stroke9" class="st0">
	<g class="st1">
		<path d="M30.9,63.2c3.7,2.6,14.2,11.1,16.7,13.3l-4,5.1c-2.3-2.6-8.2-8.1-12.7-12.1v26.9h-6.6V68.8c-4.8,7.9-11,15.3-16.6,19.7
			c-1.1-1.6-3.1-3.8-4.5-4.9c7.1-4.7,14.9-14.1,19.8-23.3H5.1v-5.9h19.2V43.8H3.8v-5.9h12.3c-0.5-4.3-2.2-10.6-4.3-15.4l5.4-1.5
			c2.3,5,4.2,11.5,4.7,15.8l-3.7,1.1H35c-1.3-0.5-2.7-1-2.8-1c2-4.4,4.4-11.4,5.6-16.2l7.6,2.4c-0.2,0.6-0.9,0.9-2,1
			c-1.4,3.9-3.8,9.7-5.8,13.8h14.6v5.9H31.9c-0.3,0.1-0.6,0.2-1,0.2v10.4h19.8v5.9H30.9V63.2z M50.1,14.6v5.8H5.8v-5.8h18.5V3.4
			l8.5,0.5c-0.1,0.7-0.6,1.2-1.9,1.4v9.3H50.1z M61.1,14.5c10.4-3,21.6-7.1,27.9-10.8l6.7,5.1c-0.3,0.3-1,0.5-2.1,0.3
			c-7.4,3.7-19.7,7.8-31,10.6"/>
	</g>
	<g class="st1">
		<path d="M80.8,19.6l-0.5-1.4c3.6-1.4,7.2-3,10.7-4.6l0.6,1.4C88.1,16.5,84.5,18.1,80.8,19.6z"/>
		<g>
			<path d="M76.3,20.4C78,19,80,16.8,81,14.8l0.1,3.8l2.5,2.9C81.5,20.7,78.6,20.4,76.3,20.4z"/>
		</g>
	</g>
	<g class="st1">
		<path d="M92.8,11.3L92.8,11.3l-0.7,0.4L92,11.3l0.9-0.5h0.4v3.9h-0.5V11.3z"/>
		<path d="M97.3,12.7c0,1.3-0.5,2.1-1.4,2.1c-0.8,0-1.3-0.7-1.3-2c0-1.3,0.6-2,1.4-2C96.8,10.8,97.3,11.5,97.3,12.7z M95.2,12.8
			c0,1,0.3,1.6,0.8,1.6c0.5,0,0.8-0.6,0.8-1.6c0-1-0.2-1.6-0.8-1.6C95.5,11.2,95.2,11.7,95.2,12.8z"/>
	</g>
</g>
<g id="Stroke8" class="st0">
	<g class="st1">
		<path d="M30.9,63.2c3.7,2.6,14.2,11.1,16.7,13.3l-4,5.1c-2.3-2.6-8.2-8.1-12.7-12.1v26.9h-6.6V68.8c-4.8,7.9-11,15.3-16.6,19.7
			c-1.1-1.6-3.1-3.8-4.5-4.9c7.1-4.7,14.9-14.1,19.8-23.3H5.1v-5.9h19.2V43.8H3.8v-5.9h12.3c-0.5-4.3-2.2-10.6-4.3-15.4l5.4-1.5
			c2.3,5,4.2,11.5,4.7,15.8l-3.7,1.1H35c-1.3-0.5-2.7-1-2.8-1c2-4.4,4.4-11.4,5.6-16.2l7.6,2.4c-0.2,0.6-0.9,0.9-2,1
			c-1.4,3.9-3.8,9.7-5.8,13.8h14.6v5.9H31.9c-0.3,0.1-0.6,0.2-1,0.2v10.4h19.8v5.9H30.9V63.2z M50.1,14.6v5.8H5.8v-5.8h18.5V3.4
			l8.5,0.5c-0.1,0.7-0.6,1.2-1.9,1.4v9.3H50.1z"/>
	</g>
	<g class="st1">
		<line x1="34.1" y1="76.6" x2="40.3" y2="83.1"/>
		<g>
			<rect x="34.9" y="76" transform="matrix(0.7197 -0.6943 0.6943 0.7197 -44.3276 46.6519)" width="1.5" height="4.4"/>
			<g>
				<path d="M40.3,83.1c-2-1-4.9-1.9-7-2.1l3.5-1.5l1.7-3.4C38.5,78.1,39.4,81,40.3,83.1z"/>
			</g>
		</g>
	</g>
	<g class="st1">
		<path d="M31.8,75.7c0.1,0,0.2,0,0.4,0c0.3,0,0.6-0.2,0.8-0.4c0.3-0.2,0.4-0.6,0.5-1h0c-0.2,0.3-0.5,0.4-0.9,0.4
			c-0.7,0-1.2-0.5-1.2-1.2c0-0.7,0.5-1.4,1.3-1.4s1.3,0.6,1.3,1.6c0,0.9-0.3,1.5-0.7,1.8c-0.3,0.3-0.7,0.5-1.1,0.5
			c-0.2,0-0.4,0-0.5,0V75.7z M32,73.5c0,0.5,0.3,0.8,0.7,0.8c0.4,0,0.6-0.2,0.8-0.4c0,0,0-0.1,0-0.2c0-0.7-0.2-1.2-0.8-1.2
			C32.3,72.5,32,72.9,32,73.5z"/>
	</g>
</g>
<g id="Stroke7" class="st0">
	<g class="st1">
		<path d="M30.9,69.5v26.9h-6.6V68.8c-4.8,7.9-11,15.3-16.6,19.7c-1.1-1.6-3.1-3.8-4.5-4.9c7.1-4.7,14.9-14.1,19.8-23.3H5.1v-5.9
			h19.2V43.8H3.8v-5.9h12.3c-0.5-4.3-2.2-10.6-4.3-15.4l5.4-1.5c2.3,5,4.2,11.5,4.7,15.8l-3.7,1.1H35c-1.3-0.5-2.7-1-2.8-1
			c2-4.4,4.4-11.4,5.6-16.2l7.6,2.4c-0.2,0.6-0.9,0.9-2,1c-1.4,3.9-3.8,9.7-5.8,13.8h14.6v5.9H31.9c-0.3,0.1-0.6,0.2-1,0.2v10.4
			h19.8v5.9H30.9v2.9 M50.1,14.6v5.8H5.8v-5.8h18.5V3.4l8.5,0.5c-0.1,0.7-0.6,1.2-1.9,1.4v9.3H50.1z"/>
	</g>
	<g class="st1">
		<path d="M12.3,71.4l-1.2-0.9l0.5-0.7c1.9-2.4,3.7-5,5.4-7.5l1.2,0.9c-1.8,2.6-3.6,5.1-5.5,7.6L12.3,71.4z"/>
		<g>
			<path d="M8.9,74.5c0.7-2.2,1.3-5.1,1.1-7.2l2,3.2l3.6,1.2C13.5,72,10.8,73.3,8.9,74.5z"/>
		</g>
	</g>
	<g class="st1">
		<path d="M12.2,64.4c0-0.5,0.3-0.8,0.8-1l0,0c-0.4-0.2-0.6-0.5-0.6-0.9c0-0.6,0.5-1,1.2-1c0.8,0,1.1,0.5,1.1,1
			c0,0.3-0.2,0.7-0.6,0.9v0c0.5,0.2,0.8,0.5,0.8,1c0,0.7-0.6,1.1-1.3,1.1C12.7,65.5,12.2,65,12.2,64.4z M14.3,64.4
			c0-0.5-0.3-0.7-0.9-0.9c-0.5,0.1-0.7,0.4-0.7,0.8c0,0.4,0.3,0.7,0.8,0.7C14,65.1,14.3,64.8,14.3,64.4z M12.8,62.4
			c0,0.4,0.3,0.6,0.7,0.7c0.3-0.1,0.6-0.4,0.6-0.7c0-0.3-0.2-0.6-0.7-0.6C13.1,61.8,12.8,62.1,12.8,62.4z"/>
	</g>
</g>
<g id="Stroke6" class="st0">
	<g class="st1">
		<path d="M24.2,60L5.1,60.3v-5.9h19.2V43.8H3.8v-5.9h12.3c-0.5-4.3-2.2-10.6-4.3-15.4l5.4-1.5c2.3,5,4.2,11.5,4.7,15.8l-3.7,1.1H35
			c-1.3-0.5-2.7-1-2.8-1c2-4.4,4.4-11.4,5.6-16.2l7.6,2.4c-0.2,0.6-0.9,0.9-2,1c-1.4,3.9-3.8,9.7-5.8,13.8h14.6v5.9H31.9
			c-0.3,0.1-0.6,0.2-1,0.2v10.4h19.8v5.9H30.9v2.9v6.3v26.9h-6.6V68.8 M50.1,14.6v5.8H5.8v-5.8h18.5V3.4l8.5,0.5
			c-0.1,0.7-0.6,1.2-1.9,1.4v9.3H50.1z"/>
	</g>
	<g class="st1">
		<path d="M35.5,44.4c0,0.3,0,8.7,0,8.7"/>
		<g>
			<rect x="34.8" y="44.4" width="1.5" height="4.1"/>
			<g>
				<path d="M35.5,53c-0.8-2.1-2.1-4.8-3.6-6.4l3.6,1.3l3.6-1.3C37.6,48.3,36.3,50.9,35.5,53z"/>
			</g>
		</g>
	</g>
	<g class="st1">
		<path d="M42.3,44.8v0.3l-1.7,3.5H40l1.7-3.4v0h-1.9v-0.4H42.3z"/>
	</g>
</g>
<g id="Stroke5" class="st0">
	<g class="st1">
		<path d="M24.3,43.8H3.8v-5.9h12.3c-0.5-4.3-2.2-10.6-4.3-15.4l5.4-1.5c2.3,5,4.2,11.5,4.7,15.8l-3.7,1.1H35c-1.3-0.5-2.7-1-2.8-1
			c2-4.4,4.4-11.4,5.6-16.2l7.6,2.4c-0.2,0.6-0.9,0.9-2,1c-1.4,3.9-3.8,9.7-5.8,13.8h14.6v5.9H31.9 M23,60.3H5.1v-5.9h45.6v5.9H30.9
			 M3.2,83.6 M50.1,14.6v5.8H5.8v-5.8h18.5V3.4l8.5,0.5c-0.1,0.7-0.6,1.2-1.9,1.4v9.3H50.1z"/>
	</g>
	<g class="st1">
		<line x1="5.1" y1="64.7" x2="21.9" y2="64.7"/>
		<g>
			<rect x="5.1" y="64" width="12.3" height="1.5"/>
			<g>
				<path d="M21.9,64.7c-2.1,0.8-4.8,2.1-6.4,3.6l1.3-3.6l-1.3-3.6C17.2,62.6,19.8,63.9,21.9,64.7z"/>
			</g>
		</g>
	</g>
	<g class="st1">
		<path d="M7.6,66.8c-0.1,0-0.2,0-0.4,0C6.4,67,6,67.6,5.9,68.2h0c0.2-0.2,0.5-0.4,0.9-0.4c0.7,0,1.2,0.5,1.2,1.3
			c0,0.7-0.5,1.4-1.3,1.4c-0.8,0-1.4-0.6-1.4-1.7C5.4,68,5.6,67.4,6,67c0.3-0.3,0.8-0.5,1.2-0.6c0.2,0,0.3,0,0.4,0V66.8z M7.5,69.1
			c0-0.6-0.3-0.9-0.8-0.9c-0.3,0-0.6,0.2-0.8,0.5c0,0.1-0.1,0.1-0.1,0.2c0,0.6,0.3,1.1,0.9,1.1C7.2,70,7.5,69.6,7.5,69.1z"/>
	</g>
</g>
<g id="Stroke4" class="st0">
	<g class="st1">
		<path d="M24.3,43.8H3.8v-5.9h12.3c-0.5-4.3-2.2-10.6-4.3-15.4l5.4-1.5c2.3,5,4.2,11.5,4.7,15.8l-3.7,1.1H35c-1.3-0.5-2.7-1-2.8-1
			c2-4.4,4.4-11.4,5.6-16.2l7.6,2.4c-0.2,0.6-0.9,0.9-2,1c-1.4,3.9-3.8,9.7-5.8,13.8h14.6v5.9H31.9c-0.3,0.1-0.6,0.2-1,0.2
			 M50.1,14.6v5.8H5.8v-5.8h18.5V3.4l8.5,0.5c-0.1,0.7-0.6,1.2-1.9,1.4v9.3H50.1z"/>
	</g>
	<g class="st1">
		<path d="M3.8,48.1c0,0,11.4,0,12.4,0"/>
		<g>
			<rect x="3.8" y="47.3" width="7.9" height="1.5"/>
			<g>
				<path d="M16.3,48.1c-2.1,0.8-4.8,2.1-6.4,3.6l1.3-3.6l-1.3-3.6C11.5,45.9,14.1,47.3,16.3,48.1z"/>
			</g>
		</g>
	</g>
	<g class="st1">
		<path d="M6.4,50.4H5l-0.1,1c0.1,0,0.2,0,0.3,0c0.3,0,0.6,0.1,0.8,0.2c0.3,0.2,0.6,0.5,0.6,1c0,0.8-0.6,1.3-1.5,1.3
			c-0.4,0-0.8-0.1-1-0.2l0.1-0.4c0.2,0.1,0.5,0.2,0.8,0.2c0.5,0,0.9-0.3,0.9-0.8c0-0.5-0.3-0.9-1.1-0.9c-0.2,0-0.4,0-0.5,0l0.3-1.9
			h1.9V50.4z"/>
	</g>
</g>
<g id="Stroke3" class="st0">
	<g class="st1">
		<path d="M16.1,37.8c-0.5-4.3-2.2-10.6-4.3-15.4l5.4-1.5c2.3,5,4.2,11.5,4.7,15.8l-3.7,1.1H35c-1.3-0.5-2.7-1-2.8-1
			c2-4.4,4.4-11.4,5.6-16.2l7.6,2.4c-0.2,0.6-0.9,0.9-2,1c-1.4,3.9-3.8,9.7-5.8,13.8 M50.1,14.6v5.8H5.8v-5.8h18.5V3.4l8.5,0.5
			c-0.1,0.7-0.6,1.2-1.9,1.4v9.3H50.1z"/>
	</g>
	<g class="st1">
		<line x1="47.7" y1="24.7" x2="43.6" y2="35.6"/>
		<g>
			<rect x="42.9" y="27.3" transform="matrix(0.3529 -0.9357 0.9357 0.3529 3.8316 61.6144)" width="7.2" height="1.5"/>
			<g>
				<path d="M43.6,35.6c0-2.3-0.3-5.2-1.1-7.3l2.9,2.5l3.8,0.1C47.3,31.9,45.1,33.9,43.6,35.6z"/>
			</g>
		</g>
	</g>
	<g class="st1">
		<path d="M51.5,26.6v-1.1h-1.8v-0.3l1.7-2.5H52v2.4h0.5v0.4H52v1.1H51.5z M51.5,25.1v-1.3c0-0.2,0-0.4,0-0.6h0
			c-0.1,0.2-0.2,0.4-0.3,0.6l-1,1.3v0H51.5z"/>
	</g>
</g>
<g id="Stroke2" class="st0">
	<g class="st1">
		<path d="M37.8,20.6 M16.1,37.8c-0.5-4.3-2.2-10.6-4.3-15.4l5.4-1.5c2.3,5,4.2,11.5,4.7,15.8l-3.7,1.1 M50.1,14.6v5.8H5.8v-5.8
			h18.5V3.4l8.5,0.5c-0.1,0.7-0.6,1.2-1.9,1.4v9.3H50.1z"/>
	</g>
	<g class="st1">
		<line x1="8.4" y1="24.8" x2="10.4" y2="34"/>
		<g>
			<rect x="8.1" y="24.7" transform="matrix(0.9769 -0.2137 0.2137 0.9769 -5.605 2.5281)" width="1.5" height="4.9"/>
			<g>
				<path d="M10.4,34c-1.2-1.9-3.1-4.2-4.9-5.5L9.3,29l3.2-2C11.5,28.9,10.7,31.8,10.4,34z"/>
			</g>
		</g>
	</g>
	<g class="st1">
		<path d="M3.7,26.1c0.1,0.1,0.5,0.2,0.9,0.2c0.7,0,0.9-0.4,0.9-0.8c0-0.5-0.5-0.8-1-0.8H4.1v-0.4h0.3c0.4,0,0.9-0.2,0.9-0.7
			c0-0.3-0.2-0.6-0.7-0.6c-0.3,0-0.6,0.1-0.8,0.3L3.7,23c0.2-0.1,0.6-0.3,1-0.3c0.8,0,1.1,0.5,1.1,0.9c0,0.4-0.2,0.7-0.7,0.9v0
			c0.5,0.1,0.9,0.5,0.9,1c0,0.6-0.5,1.2-1.4,1.2c-0.4,0-0.8-0.1-1-0.3L3.7,26.1z"/>
	</g>
</g>
<g id="Stroke1" class="st0">
	<g class="st1">
		<path d="M37.8,20.6 M50.1,14.6v5.8H5.8v-5.8h18.5V3.4l8.5,0.5c-0.1,0.7-0.6,1.2-1.9,1.4v9.3H50.1z"/>
	</g>
	<g class="st1">
		<path d="M6.1,30.4V30l0.4-0.4c1-0.9,1.4-1.5,1.5-2c0-0.4-0.2-0.8-0.8-0.8c-0.4,0-0.6,0.2-0.8,0.3l-0.2-0.4
			c0.3-0.2,0.7-0.4,1.1-0.4c0.8,0,1.2,0.6,1.2,1.1c0,0.7-0.5,1.3-1.3,2.1l-0.3,0.3v0h1.8v0.4H6.1z"/>
	</g>
	<g class="st1">
		<line x1="5.8" y1="24.2" x2="19.3" y2="24.2"/>
		<g>
			<rect x="5.8" y="23.5" width="9" height="1.5"/>
			<g>
				<path d="M19.3,24.2c-2.1,0.8-4.8,2.1-6.4,3.6l1.3-3.6l-1.3-3.6C14.6,22.1,17.2,23.5,19.3,24.2z"/>
			</g>
		</g>
	</g>
</g>
<g id="Stroke0" class="st0">
	<g class="st1">
		<path d="M24.3,14.6V3.4l8.5,0.5c-0.1,0.7-0.6,1.2-1.9,1.4v9.3"/>
	</g>
	<g class="st1">
		<line x1="35.8" y1="3.4" x2="35.8" y2="14.6"/>
		<g>
			<rect x="35.1" y="3.4" width="1.5" height="6.7"/>
			<g>
				<path d="M35.8,14.6c-0.8-2.1-2.1-4.8-3.6-6.4l3.6,1.3l3.6-1.3C38,9.9,36.6,12.5,35.8,14.6z"/>
			</g>
		</g>
	</g>
	<g class="st1">
		<path d="M39,2.7L39,2.7l-0.7,0.4l-0.1-0.4L39,2.3h0.4v3.9H39V2.7z"/>
	</g>
</g>
<g id="Kanji" class="st0">
	<g class="st1">
		<path d="M30.9,63.2c3.7,2.6,14.2,11.1,16.7,13.3l-4,5.1c-2.3-2.6-8.2-8.1-12.7-12.1v26.9h-6.6V68.8c-4.8,7.9-11,15.3-16.6,19.7
			c-1.1-1.6-3.1-3.8-4.5-4.9c7.1-4.7,14.9-14.1,19.8-23.3H5.1v-5.9h19.2V43.8H3.8v-5.9h12.3c-0.5-4.3-2.2-10.6-4.3-15.4l5.4-1.5
			c2.3,5,4.2,11.5,4.7,15.8l-3.7,1.1H35c-1.3-0.5-2.7-1-2.8-1c2-4.4,4.4-11.4,5.6-16.2l7.6,2.4c-0.2,0.6-0.9,0.9-2,1
			c-1.4,3.9-3.8,9.7-5.8,13.8h14.6v5.9H31.9c-0.3,0.1-0.6,0.2-1,0.2v10.4h19.8v5.9H30.9V63.2z M50.1,14.6v5.8H5.8v-5.8h18.5V3.4
			l8.5,0.5c-0.1,0.7-0.6,1.2-1.9,1.4v9.3H50.1z M96.8,37.8v6.3H85v52.2h-6.6V44.1H62.6v3.7c0,15-1.9,34.8-16.3,48.7
			c-0.8-1.5-3.1-3.8-4.7-4.7C54.7,79.3,56.2,62,56.2,47.8V12.9l4.9,1.6c10.4-3,21.6-7.1,27.9-10.8l6.7,5.1c-0.3,0.3-1,0.5-2.1,0.3
			c-7.4,3.7-19.7,7.8-31,10.6v18.1H96.8z"/>
	</g>
</g>
</svg>
