<?xml version="1.0" encoding="utf-8"?>
<!-- Generator: Adobe Illustrator 26.2.1, SVG Export Plug-In . SVG Version: 6.00 Build 0)  -->
<svg version="1.1" xmlns="http://www.w3.org/2000/svg" xmlns:xlink="http://www.w3.org/1999/xlink" x="0px" y="0px"
	 viewBox="0 0 100 100" style="enable-background:new 0 0 100 100;" xml:space="preserve" width = "100px" height = "100px">
<style type="text/css">
	.st0{display:none;}
	.st1{display:inline;}
</style>

		<path d="M30.9,63.2c3.7,2.6,14.2,11.1,16.7,13.3l-4,5.1c-2.3-2.6-8.2-8.1-12.7-12.1v26.9h-6.6V68.8c-4.8,7.9-11,15.3-16.6,19.7
			c-1.1-1.6-3.1-3.8-4.5-4.9c7.1-4.7,14.9-14.1,19.8-23.3H5.1v-5.9h19.2V43.8H3.8v-5.9h12.3c-0.5-4.3-2.2-10.6-4.3-15.4l5.4-1.5
			c2.3,5,4.2,11.5,4.7,15.8l-3.7,1.1H35c-1.3-0.5-2.7-1-2.8-1c2-4.4,4.4-11.4,5.6-16.2l7.6,2.4c-0.2,0.6-0.9,0.9-2,1
			c-1.4,3.9-3.8,9.7-5.8,13.8h14.6v5.9H31.9c-0.3,0.1-0.6,0.2-1,0.2v10.4h19.8v5.9H30.9V63.2z M50.1,14.6v5.8H5.8v-5.8h18.5V3.4
			l8.5,0.5c-0.1,0.7-0.6,1.2-1.9,1.4v9.3H50.1z"/>


		<line x1="34.1" y1="76.6" x2="40.3" y2="83.1"/>

			<rect x="34.9" y="76" transform="matrix(0.7197 -0.6943 0.6943 0.7197 -44.3276 46.6519)" width="1.5" height="4.4"/>
			
				<path d="M40.3,83.1c-2-1-4.9-1.9-7-2.1l3.5-1.5l1.7-3.4C38.5,78.1,39.4,81,40.3,83.1z"/>

		<path d="M31.8,75.7c0.1,0,0.2,0,0.4,0c0.3,0,0.6-0.2,0.8-0.4c0.3-0.2,0.4-0.6,0.5-1h0c-0.2,0.3-0.5,0.4-0.9,0.4
			c-0.7,0-1.2-0.5-1.2-1.2c0-0.7,0.5-1.4,1.3-1.4s1.3,0.6,1.3,1.6c0,0.9-0.3,1.5-0.7,1.8c-0.3,0.3-0.7,0.5-1.1,0.5
			c-0.2,0-0.4,0-0.5,0V75.7z M32,73.5c0,0.5,0.3,0.8,0.7,0.8c0.4,0,0.6-0.2,0.8-0.4c0,0,0-0.1,0-0.2c0-0.7-0.2-1.2-0.8-1.2
			C32.3,72.5,32,72.9,32,73.5z"/>

 </svg>