<?xml version="1.0" encoding="utf-8"?>
<!-- Generator: Adobe Illustrator 26.2.1, SVG Export Plug-In . SVG Version: 6.00 Build 0)  -->
<svg version="1.1" xmlns="http://www.w3.org/2000/svg" xmlns:xlink="http://www.w3.org/1999/xlink" x="0px" y="0px"
	 viewBox="0 0 100 100" style="enable-background:new 0 0 100 100;" xml:space="preserve" width = "100px" height = "100px">
<style type="text/css">
	.st0{display:none;}
	.st1{display:inline;}
</style> 


		<path d="M24.2,60L5.1,60.3v-5.9h19.2V43.8H3.8v-5.9h12.3c-0.5-4.3-2.2-10.6-4.3-15.4l5.4-1.5c2.3,5,4.2,11.5,4.7,15.8l-3.7,1.1H35
			c-1.3-0.5-2.7-1-2.8-1c2-4.4,4.4-11.4,5.6-16.2l7.6,2.4c-0.2,0.6-0.9,0.9-2,1c-1.4,3.9-3.8,9.7-5.8,13.8h14.6v5.9H31.9
			c-0.3,0.1-0.6,0.2-1,0.2v10.4h19.8v5.9H30.9v2.9v6.3v26.9h-6.6V68.8 M50.1,14.6v5.8H5.8v-5.8h18.5V3.4l8.5,0.5
			c-0.1,0.7-0.6,1.2-1.9,1.4v9.3H50.1z"/>

		<path d="M35.5,44.4c0,0.3,0,8.7,0,8.7"/>

			<rect x="34.8" y="44.4" width="1.5" height="4.1"/>

				<path d="M35.5,53c-0.8-2.1-2.1-4.8-3.6-6.4l3.6,1.3l3.6-1.3C37.6,48.3,36.3,50.9,35.5,53z"/>

		<path d="M42.3,44.8v0.3l-1.7,3.5H40l1.7-3.4v0h-1.9v-0.4H42.3z"/>



</svg>