<?xml version="1.0" encoding="utf-8"?>
<!-- Generator: Adobe Illustrator 26.2.1, SVG Export Plug-In . SVG Version: 6.00 Build 0)  -->
<svg version="1.1" xmlns="http://www.w3.org/2000/svg" xmlns:xlink="http://www.w3.org/1999/xlink" x="0px" y="0px"
	 viewBox="0 0 100 100" style="enable-background:new 0 0 100 100;" xml:space="preserve" width = "100px" height = "100px">
<style type="text/css">
	.st0{display:none;}
	.st1{display:inline;}
</style>


		<path d="M30.9,69.5v26.9h-6.6V68.8c-4.8,7.9-11,15.3-16.6,19.7c-1.1-1.6-3.1-3.8-4.5-4.9c7.1-4.7,14.9-14.1,19.8-23.3H5.1v-5.9
			h19.2V43.8H3.8v-5.9h12.3c-0.5-4.3-2.2-10.6-4.3-15.4l5.4-1.5c2.3,5,4.2,11.5,4.7,15.8l-3.7,1.1H35c-1.3-0.5-2.7-1-2.8-1
			c2-4.4,4.4-11.4,5.6-16.2l7.6,2.4c-0.2,0.6-0.9,0.9-2,1c-1.4,3.9-3.8,9.7-5.8,13.8h14.6v5.9H31.9c-0.3,0.1-0.6,0.2-1,0.2v10.4
			h19.8v5.9H30.9v2.9 M50.1,14.6v5.8H5.8v-5.8h18.5V3.4l8.5,0.5c-0.1,0.7-0.6,1.2-1.9,1.4v9.3H50.1z"/>

		<path d="M12.3,71.4l-1.2-0.9l0.5-0.7c1.9-2.4,3.7-5,5.4-7.5l1.2,0.9c-1.8,2.6-3.6,5.1-5.5,7.6L12.3,71.4z"/>

			<path d="M8.9,74.5c0.7-2.2,1.3-5.1,1.1-7.2l2,3.2l3.6,1.2C13.5,72,10.8,73.3,8.9,74.5z"/>

		<path d="M12.2,64.4c0-0.5,0.3-0.8,0.8-1l0,0c-0.4-0.2-0.6-0.5-0.6-0.9c0-0.6,0.5-1,1.2-1c0.8,0,1.1,0.5,1.1,1
			c0,0.3-0.2,0.7-0.6,0.9v0c0.5,0.2,0.8,0.5,0.8,1c0,0.7-0.6,1.1-1.3,1.1C12.7,65.5,12.2,65,12.2,64.4z M14.3,64.4
			c0-0.5-0.3-0.7-0.9-0.9c-0.5,0.1-0.7,0.4-0.7,0.8c0,0.4,0.3,0.7,0.8,0.7C14,65.1,14.3,64.8,14.3,64.4z M12.8,62.4
			c0,0.4,0.3,0.6,0.7,0.7c0.3-0.1,0.6-0.4,0.6-0.7c0-0.3-0.2-0.6-0.7-0.6C13.1,61.8,12.8,62.1,12.8,62.4z"/>


 </svg>