<?xml version="1.0" encoding="utf-8"?>
<!-- Generator: Adobe Illustrator 26.2.1, SVG Export Plug-In . SVG Version: 6.00 Build 0)  -->
<svg version="1.1" xmlns="http://www.w3.org/2000/svg" xmlns:xlink="http://www.w3.org/1999/xlink" x="0px" y="0px"
	 viewBox="0 0 100 100" style="enable-background:new 0 0 100 100;" xml:space="preserve" width = "100px" height = "100px">
<style type="text/css">
	.st0{display:none;}
	.st1{display:inline;}
</style> 


		<path d="M37.8,20.6 M16.1,37.8c-0.5-4.3-2.2-10.6-4.3-15.4l5.4-1.5c2.3,5,4.2,11.5,4.7,15.8l-3.7,1.1 M50.1,14.6v5.8H5.8v-5.8
			h18.5V3.4l8.5,0.5c-0.1,0.7-0.6,1.2-1.9,1.4v9.3H50.1z"/>

		<line x1="8.4" y1="24.8" x2="10.4" y2="34"/>

			<rect x="8.1" y="24.7" transform="matrix(0.9769 -0.2137 0.2137 0.9769 -5.605 2.5281)" width="1.5" height="4.9"/>
	
				<path d="M10.4,34c-1.2-1.9-3.1-4.2-4.9-5.5L9.3,29l3.2-2C11.5,28.9,10.7,31.8,10.4,34z"/>

		<path d="M3.7,26.1c0.1,0.1,0.5,0.2,0.9,0.2c0.7,0,0.9-0.4,0.9-0.8c0-0.5-0.5-0.8-1-0.8H4.1v-0.4h0.3c0.4,0,0.9-0.2,0.9-0.7
			c0-0.3-0.2-0.6-0.7-0.6c-0.3,0-0.6,0.1-0.8,0.3L3.7,23c0.2-0.1,0.6-0.3,1-0.3c0.8,0,1.1,0.5,1.1,0.9c0,0.4-0.2,0.7-0.7,0.9v0
			c0.5,0.1,0.9,0.5,0.9,1c0,0.6-0.5,1.2-1.4,1.2c-0.4,0-0.8-0.1-1-0.3L3.7,26.1z"/>

</svg>