<?xml version="1.0" encoding="utf-8"?>
<!-- Generator: Adobe Illustrator 26.2.1, SVG Export Plug-In . SVG Version: 6.00 Build 0)  -->
<svg version="1.1" xmlns="http://www.w3.org/2000/svg" xmlns:xlink="http://www.w3.org/1999/xlink" x="0px" y="0px"
	 viewBox="0 0 100 100" style="enable-background:new 0 0 100 100;" xml:space="preserve" width = "100px" height = "100px">
<style type="text/css">
	.st0{display:none;}
	.st1{display:inline;}
</style>


		<path d="M30.9,63.2c3.7,2.6,14.2,11.1,16.7,13.3l-4,5.1c-2.3-2.6-8.2-8.1-12.7-12.1v26.9h-6.6V68.8c-4.8,7.9-11,15.3-16.6,19.7
			c-1.1-1.6-3.1-3.8-4.5-4.9c7.1-4.7,14.9-14.1,19.8-23.3H5.1v-5.9h19.2V43.8H3.8v-5.9h12.3c-0.5-4.3-2.2-10.6-4.3-15.4l5.4-1.5
			c2.3,5,4.2,11.5,4.7,15.8l-3.7,1.1H35c-1.3-0.5-2.7-1-2.8-1c2-4.4,4.4-11.4,5.6-16.2l7.6,2.4c-0.2,0.6-0.9,0.9-2,1
			c-1.4,3.9-3.8,9.7-5.8,13.8h14.6v5.9H31.9c-0.3,0.1-0.6,0.2-1,0.2v10.4h19.8v5.9H30.9V63.2z M50.1,14.6v5.8H5.8v-5.8h18.5V3.4
			l8.5,0.5c-0.1,0.7-0.6,1.2-1.9,1.4v9.3H50.1z M96.8,37.8v6.3H85v52.2h-6.6V44.1H62.6v3.7c0,15-1.9,34.8-16.3,48.7
			c-0.8-1.5-3.1-3.8-4.7-4.7C54.7,79.3,56.2,62,56.2,47.8V12.9l4.9,1.6c10.4-3,21.6-7.1,27.9-10.8l6.7,5.1c-0.3,0.3-1,0.5-2.1,0.3
			c-7.4,3.7-19.7,7.8-31,10.6v18.1H96.8z"/>

		<line x1="74.5" y1="46.6" x2="74.5" y2="59.8"/>

			<rect x="73.7" y="46.6" width="1.5" height="8.7"/>
	
				<path d="M74.5,59.8c-0.8-2.1-2.1-4.8-3.6-6.4l3.6,1.3l3.6-1.3C76.6,55,75.3,57.6,74.5,59.8z"/>

	
		<path d="M67.8,47.1L67.8,47.1l-0.7,0.4L67,47.1l0.9-0.5h0.4v3.9h-0.5V47.1z"/>
		<path d="M69.9,49.9c0.2,0.1,0.5,0.2,0.9,0.2c0.7,0,0.9-0.4,0.9-0.8c0-0.5-0.5-0.8-1-0.8h-0.3v-0.4h0.3c0.4,0,0.9-0.2,0.9-0.7
			c0-0.3-0.2-0.6-0.7-0.6c-0.3,0-0.6,0.1-0.8,0.3l-0.1-0.4c0.2-0.1,0.6-0.3,1-0.3c0.8,0,1.1,0.5,1.1,0.9c0,0.4-0.2,0.7-0.7,0.9v0
			c0.5,0.1,0.9,0.5,0.9,1c0,0.6-0.5,1.2-1.4,1.2c-0.4,0-0.8-0.1-1-0.3L69.9,49.9z"/>




 </svg>