<?xml version="1.0" encoding="utf-8"?>
<!-- Generator: Adobe Illustrator 26.2.1, SVG Export Plug-In . SVG Version: 6.00 Build 0)  -->
<svg version="1.1" xmlns="http://www.w3.org/2000/svg" xmlns:xlink="http://www.w3.org/1999/xlink" x="0px" y="0px"
	 viewBox="0 0 100 100" style="enable-background:new 0 0 100 100;" xml:space="preserve" width = "100px" height = "100px">
<style type="text/css">
	.st0{display:none;}
	.st1{display:inline;}
</style> 

		<path d="M16.1,37.8c-0.5-4.3-2.2-10.6-4.3-15.4l5.4-1.5c2.3,5,4.2,11.5,4.7,15.8l-3.7,1.1H35c-1.3-0.5-2.7-1-2.8-1
			c2-4.4,4.4-11.4,5.6-16.2l7.6,2.4c-0.2,0.6-0.9,0.9-2,1c-1.4,3.9-3.8,9.7-5.8,13.8 M50.1,14.6v5.8H5.8v-5.8h18.5V3.4l8.5,0.5
			c-0.1,0.7-0.6,1.2-1.9,1.4v9.3H50.1z"/>
	
		<line x1="47.7" y1="24.7" x2="43.6" y2="35.6"/>
		
			<rect x="42.9" y="27.3" transform="matrix(0.3529 -0.9357 0.9357 0.3529 3.8316 61.6144)" width="7.2" height="1.5"/>
		
				<path d="M43.6,35.6c0-2.3-0.3-5.2-1.1-7.3l2.9,2.5l3.8,0.1C47.3,31.9,45.1,33.9,43.6,35.6z"/>
	
		<path d="M51.5,26.6v-1.1h-1.8v-0.3l1.7-2.5H52v2.4h0.5v0.4H52v1.1H51.5z M51.5,25.1v-1.3c0-0.2,0-0.4,0-0.6h0
			c-0.1,0.2-0.2,0.4-0.3,0.6l-1,1.3v0H51.5z"/>


</svg>