<?xml version="1.0" encoding="utf-8"?>
<!-- Generator: Adobe Illustrator 26.2.1, SVG Export Plug-In . SVG Version: 6.00 Build 0)  -->
<svg version="1.1" xmlns="http://www.w3.org/2000/svg" xmlns:xlink="http://www.w3.org/1999/xlink" x="0px" y="0px"
	 viewBox="0 0 100 100" style="enable-background:new 0 0 100 100;" xml:space="preserve" width = "100px" height = "100px">
<style type="text/css">
	.st0{display:none;}
	.st1{display:inline;}
</style>

		<path d="M24.3,43.8H3.8v-5.9h12.3c-0.5-4.3-2.2-10.6-4.3-15.4l5.4-1.5c2.3,5,4.2,11.5,4.7,15.8l-3.7,1.1H35c-1.3-0.5-2.7-1-2.8-1
			c2-4.4,4.4-11.4,5.6-16.2l7.6,2.4c-0.2,0.6-0.9,0.9-2,1c-1.4,3.9-3.8,9.7-5.8,13.8h14.6v5.9H31.9 M23,60.3H5.1v-5.9h45.6v5.9H30.9
			 M3.2,83.6 M50.1,14.6v5.8H5.8v-5.8h18.5V3.4l8.5,0.5c-0.1,0.7-0.6,1.2-1.9,1.4v9.3H50.1z"/>


		<line x1="5.1" y1="64.7" x2="21.9" y2="64.7"/>

			<rect x="5.1" y="64" width="12.3" height="1.5"/>

				<path d="M21.9,64.7c-2.1,0.8-4.8,2.1-6.4,3.6l1.3-3.6l-1.3-3.6C17.2,62.6,19.8,63.9,21.9,64.7z"/>

		<path d="M7.6,66.8c-0.1,0-0.2,0-0.4,0C6.4,67,6,67.6,5.9,68.2h0c0.2-0.2,0.5-0.4,0.9-0.4c0.7,0,1.2,0.5,1.2,1.3
			c0,0.7-0.5,1.4-1.3,1.4c-0.8,0-1.4-0.6-1.4-1.7C5.4,68,5.6,67.4,6,67c0.3-0.3,0.8-0.5,1.2-0.6c0.2,0,0.3,0,0.4,0V66.8z M7.5,69.1
			c0-0.6-0.3-0.9-0.8-0.9c-0.3,0-0.6,0.2-0.8,0.5c0,0.1-0.1,0.1-0.1,0.2c0,0.6,0.3,1.1,0.9,1.1C7.2,70,7.5,69.6,7.5,69.1z"/>


 </svg>