<?xml version="1.0" encoding="utf-8"?>
<!-- Generator: Adobe Illustrator 26.2.1, SVG Export Plug-In . SVG Version: 6.00 Build 0)  -->
<svg version="1.1" xmlns="http://www.w3.org/2000/svg" xmlns:xlink="http://www.w3.org/1999/xlink" x="0px" y="0px"
	 viewBox="0 0 100 100" style="enable-background:new 0 0 100 100;" xml:space="preserve" width = "100px" height = "100px">
<style type="text/css">
	.st0{display:none;}
	.st1{display:inline;}
</style> 


		<path d="M30.9,63.2c3.7,2.6,14.2,11.1,16.7,13.3l-4,5.1c-2.3-2.6-8.2-8.1-12.7-12.1v26.9h-6.6V68.8c-4.8,7.9-11,15.3-16.6,19.7
			c-1.1-1.6-3.1-3.8-4.5-4.9c7.1-4.7,14.9-14.1,19.8-23.3H5.1v-5.9h19.2V43.8H3.8v-5.9h12.3c-0.5-4.3-2.2-10.6-4.3-15.4l5.4-1.5
			c2.3,5,4.2,11.5,4.7,15.8l-3.7,1.1H35c-1.3-0.5-2.7-1-2.8-1c2-4.4,4.4-11.4,5.6-16.2l7.6,2.4c-0.2,0.6-0.9,0.9-2,1
			c-1.4,3.9-3.8,9.7-5.8,13.8h14.6v5.9H31.9c-0.3,0.1-0.6,0.2-1,0.2v10.4h19.8v5.9H30.9V63.2z M50.1,14.6v5.8H5.8v-5.8h18.5V3.4
			l8.5,0.5c-0.1,0.7-0.6,1.2-1.9,1.4v9.3H50.1z M78.4,44.1H62.6v3.7c0,15-1.9,34.8-16.3,48.7c-0.8-1.5-3.1-3.8-4.7-4.7
			C54.7,79.3,56.2,62,56.2,47.8V12.9l4.9,1.6c10.4-3,21.6-7.1,27.9-10.8l6.7,5.1c-0.3,0.3-1,0.5-2.1,0.3c-7.4,3.7-19.7,7.8-31,10.6
			v18.1h34.2v6.3H85"/>

		<line x1="64.2" y1="48.1" x2="78.3" y2="48.1"/>

			<rect x="64.2" y="47.4" width="9.6" height="1.5"/>
			
				<path d="M78.3,48.1c-2.1,0.8-4.8,2.1-6.4,3.6l1.3-3.6l-1.3-3.6C73.6,46,76.2,47.3,78.3,48.1z"/>
		
		<path d="M65.2,51L65.2,51l-0.7,0.4l-0.1-0.4l0.9-0.5h0.4v3.9h-0.5V51z"/>
		<path d="M67.1,54.4V54l0.4-0.4c1-0.9,1.4-1.5,1.5-2c0-0.4-0.2-0.8-0.8-0.8c-0.4,0-0.6,0.2-0.8,0.3l-0.2-0.4
			c0.3-0.2,0.7-0.4,1.1-0.4c0.8,0,1.2,0.6,1.2,1.1c0,0.7-0.5,1.3-1.3,2.1l-0.3,0.3v0h1.8v0.4H67.1z"/>


</svg>