<?xml version="1.0" encoding="utf-8"?>
<!-- Generator: Adobe Illustrator 26.2.1, SVG Export Plug-In . SVG Version: 6.00 Build 0)  -->
<svg version="1.1" xmlns="http://www.w3.org/2000/svg" xmlns:xlink="http://www.w3.org/1999/xlink" x="0px" y="0px"
	 viewBox="0 0 100 100" style="enable-background:new 0 0 100 100;" xml:space="preserve">
<style type="text/css">
	.st0{fill:none;}
	.st1{display:none;}
	.st2{display:inline;fill:none;}
	.st3{display:inline;}
</style>
<g id="Stroke3">
	<rect x="17.2" y="27.6" class="st0" width="12.6" height="0"/>
	<g>
		<path d="M55.5,3.7c-0.2,0.8-1,1.2-2,1.4c9.8,13.4,28.1,29.2,43.6,37.7c-1.7,1.6-3.3,3.8-4.5,5.8c-15.8-9.5-33.9-25.4-43.2-38.5
			C41.2,22.6,24.4,38.6,7.1,49.4c-0.9-1.5-2.8-3.8-4.2-5.2C20.4,33.8,37.9,16.7,45.8,3L55.5,3.7z M77.1,55.6l1.3-0.3l4.8,1.9
			c-0.2,0.6-0.5,1-0.9,1.5C78.1,67.9,70.2,84.5,63.7,97l-6.9-1.9C62.2,84.9,68.7,71.4,73,62H14.6v-6.4H77.1z M27.5,35.8h44.7v6.3
			H27.5V35.8z"/>
	</g>
	<g>
		<path d="M61,78.8l-1.4-0.4l2.5-8.6c0.3-0.8,0.5-1.9-0.1-2.7c-0.7-1-2.5-1.6-5-1.5H19.4V64H57c3.1-0.1,5.2,0.7,6.2,2.1
			c0.8,1.1,0.9,2.5,0.3,4.1L61,78.8z"/>
		<g>
			<path d="M59.1,83c-0.2-2.3-0.7-5.2-1.6-7.2l3.1,2.2l3.8-0.2C62.4,79,60.4,81.1,59.1,83z"/>
		</g>
	</g>
	<g>
		<path d="M21.3,72.1V71h-1.8v-0.3l1.7-2.5h0.6v2.4h0.5V71h-0.5v1.1H21.3z M21.3,70.6v-1.3c0-0.2,0-0.4,0-0.6h0
			c-0.1,0.2-0.2,0.4-0.3,0.6l-1,1.3v0H21.3z"/>
	</g>
</g>
<g id="Stroke2" class="st1">
	<rect x="17.2" y="27.6" class="st2" width="12.6" height="0"/>
	<g class="st3">
		<path d="M55.5,3.7c-0.2,0.8-1,1.2-2,1.4c9.8,13.4,28.1,29.2,43.6,37.7c-1.7,1.6-3.3,3.8-4.5,5.8c-15.8-9.5-33.9-25.4-43.2-38.5
			C41.2,22.6,24.4,38.6,7.1,49.4c-0.9-1.5-2.8-3.8-4.2-5.2C20.4,33.8,37.9,16.7,45.8,3L55.5,3.7z M27.5,35.8h44.7v6.3H27.5V35.8z"/>
	</g>
	<g class="st3">
		<path d="M28.2,46.5c0.4,0,30,0,30,0"/>
		<g>
			<rect x="28.2" y="45.7" width="25.5" height="1.5"/>
			<g>
				<path d="M58.2,46.5c-2.1,0.8-4.8,2.1-6.4,3.6l1.3-3.6l-1.3-3.6C53.4,44.4,56,45.7,58.2,46.5z"/>
			</g>
		</g>
	</g>
	<g class="st3">
		<path d="M28.6,53.1c0.1,0.1,0.5,0.2,0.9,0.2c0.7,0,0.9-0.4,0.9-0.8c0-0.5-0.5-0.8-1-0.8H29v-0.4h0.3c0.4,0,0.9-0.2,0.9-0.7
			c0-0.3-0.2-0.6-0.7-0.6c-0.3,0-0.6,0.1-0.8,0.3l-0.1-0.4c0.2-0.1,0.6-0.3,1-0.3c0.8,0,1.1,0.5,1.1,0.9c0,0.4-0.2,0.7-0.7,0.9v0
			c0.5,0.1,0.9,0.5,0.9,1c0,0.6-0.5,1.2-1.4,1.2c-0.4,0-0.8-0.1-1-0.3L28.6,53.1z"/>
	</g>
</g>
<g id="Stroke1" class="st1">
	<rect x="17.2" y="27.6" class="st2" width="12.6" height="0"/>
	<g class="st3">
		<path d="M55.5,3.7c-0.2,0.8-1,1.2-2,1.4c9.8,13.4,28.1,29.2,43.6,37.7c-1.7,1.6-3.3,3.8-4.5,5.8c-15.8-9.5-33.9-25.4-43.2-38.5
			C41.2,22.6,24.4,38.6,7.1,49.4c-0.9-1.5-2.8-3.8-4.2-5.2C20.4,33.8,37.9,16.7,45.8,3L55.5,3.7z M63.7,97 M27.5,35.8"/>
	</g>
	<g class="st3">
		<path d="M59.4,28.9c-1.3-1-2.5-2.1-3.7-3.3c-2.8-2.9-4.9-6.2-6.2-9.8l1.4-0.5c1.3,3.4,3.2,6.6,5.9,9.3c1.1,1.1,2.2,2.1,3.5,3.1
			L59.4,28.9z"/>
		<g>
			<path d="M63.7,30.8c-2.2-0.5-5.2-0.9-7.3-0.6l3.1-2.2l0.9-3.7C60.9,26.4,62.3,29,63.7,30.8z"/>
		</g>
	</g>
	<g class="st3">
		<path d="M47.9,24.6v-0.3l0.4-0.4c1-0.9,1.4-1.5,1.5-2c0-0.4-0.2-0.8-0.8-0.8c-0.4,0-0.6,0.2-0.8,0.3L48,21
			c0.3-0.2,0.7-0.4,1.1-0.4c0.8,0,1.2,0.6,1.2,1.1c0,0.7-0.5,1.3-1.3,2.1l-0.3,0.3v0h1.8v0.4H47.9z"/>
	</g>
</g>
<g id="Stroke0" class="st1">
	<rect x="17.2" y="27.6" class="st2" width="12.6" height="0"/>
	<g class="st3">
		<path d="M49.3,10.1C41.2,22.6,24.4,38.6,7.1,49.4c-0.9-1.5-2.8-3.8-4.2-5.2C20.4,33.8,37.9,16.7,45.8,3l9.6,0.7
			c-0.2,0.8-1,1.2-2,1.4"/>
	</g>
	<g class="st3">
		<path d="M43.7,26.4l-1-1.1c0.8-0.7,1.4-1.3,1.8-1.8c4.9-5.7,7-10.4,8.6-14.2c0.2-0.5,0.4-1,0.7-1.5l1.4,0.6
			c-0.2,0.5-0.4,1-0.7,1.5c-1.7,3.9-3.8,8.7-8.9,14.6C45.2,24.9,44.5,25.6,43.7,26.4z"/>
		<g>
			<path d="M39.8,28.7c1.1-2,2.2-4.7,2.5-6.9l1.4,3.5l3.3,1.8C44.8,27.2,41.9,27.9,39.8,28.7z"/>
		</g>
	</g>
	<g class="st3">
		<path d="M57.7,10.7L57.7,10.7L57,11.1l-0.1-0.4l0.9-0.5h0.4v3.9h-0.5V10.7z"/>
	</g>
</g>
<g id="Kanji" class="st1">
	<rect x="17.2" y="27.6" class="st2" width="12.6" height="0"/>
	<g class="st3">
		<path d="M55.5,3.7c-0.2,0.8-1,1.2-2,1.4c9.8,13.4,28.1,29.2,43.6,37.7c-1.7,1.6-3.3,3.8-4.5,5.8c-15.8-9.5-33.9-25.4-43.2-38.5
			C41.2,22.6,24.4,38.6,7.1,49.4c-0.9-1.5-2.8-3.8-4.2-5.2C20.4,33.8,37.9,16.7,45.8,3L55.5,3.7z M77.1,55.6l1.3-0.3l4.8,1.9
			c-0.2,0.6-0.5,1-0.9,1.5C78.1,67.9,70.2,84.5,63.7,97l-6.9-1.9C62.2,84.9,68.7,71.4,73,62H14.6v-6.4H77.1z M27.5,35.8h44.7v6.3
			H27.5V35.8z"/>
	</g>
</g>
</svg>
