<?xml version="1.0" encoding="utf-8"?>
<!-- Generator: Adobe Illustrator 26.2.1, SVG Export Plug-In . SVG Version: 6.00 Build 0)  -->
<svg version="1.1" xmlns="http://www.w3.org/2000/svg" xmlns:xlink="http://www.w3.org/1999/xlink" x="0px" y="0px"
	 viewBox="0 0 100 100" style="enable-background:new 0 0 100 100;" xml:space="preserve" width = "100px" height = "100px">
<style type="text/css">
	.st0{display:none;}
	.st1{display:inline;}
</style> 

	<rect x="17.2" y="27.6" class="st2" width="12.6" height="0"/>

		<path d="M55.5,3.7c-0.2,0.8-1,1.2-2,1.4c9.8,13.4,28.1,29.2,43.6,37.7c-1.7,1.6-3.3,3.8-4.5,5.8c-15.8-9.5-33.9-25.4-43.2-38.5
			C41.2,22.6,24.4,38.6,7.1,49.4c-0.9-1.5-2.8-3.8-4.2-5.2C20.4,33.8,37.9,16.7,45.8,3L55.5,3.7z M63.7,97 M27.5,35.8"/>

		<path d="M59.4,28.9c-1.3-1-2.5-2.1-3.7-3.3c-2.8-2.9-4.9-6.2-6.2-9.8l1.4-0.5c1.3,3.4,3.2,6.6,5.9,9.3c1.1,1.1,2.2,2.1,3.5,3.1
			L59.4,28.9z"/>

			<path d="M63.7,30.8c-2.2-0.5-5.2-0.9-7.3-0.6l3.1-2.2l0.9-3.7C60.9,26.4,62.3,29,63.7,30.8z"/>
	

		<path d="M47.9,24.6v-0.3l0.4-0.4c1-0.9,1.4-1.5,1.5-2c0-0.4-0.2-0.8-0.8-0.8c-0.4,0-0.6,0.2-0.8,0.3L48,21
			c0.3-0.2,0.7-0.4,1.1-0.4c0.8,0,1.2,0.6,1.2,1.1c0,0.7-0.5,1.3-1.3,2.1l-0.3,0.3v0h1.8v0.4H47.9z"/>


</svg>