<?xml version="1.0" encoding="utf-8"?>
<!-- Generator: Adobe Illustrator 26.2.1, SVG Export Plug-In . SVG Version: 6.00 Build 0)  -->
<svg version="1.1" xmlns="http://www.w3.org/2000/svg" xmlns:xlink="http://www.w3.org/1999/xlink" x="0px" y="0px"
	 viewBox="0 0 100 100" style="enable-background:new 0 0 100 100;" xml:space="preserve" width = "100px" height = "100px">
<style type="text/css">
	.st0{display:none;}
	.st1{display:inline;}
</style> 

	<rect x="17.2" y="27.6" class="st2" width="12.6" height="0"/>

		<path d="M55.5,3.7c-0.2,0.8-1,1.2-2,1.4c9.8,13.4,28.1,29.2,43.6,37.7c-1.7,1.6-3.3,3.8-4.5,5.8c-15.8-9.5-33.9-25.4-43.2-38.5
			C41.2,22.6,24.4,38.6,7.1,49.4c-0.9-1.5-2.8-3.8-4.2-5.2C20.4,33.8,37.9,16.7,45.8,3L55.5,3.7z M27.5,35.8h44.7v6.3H27.5V35.8z"/>

		<path d="M28.2,46.5c0.4,0,30,0,30,0"/>
		
			<rect x="28.2" y="45.7" width="25.5" height="1.5"/>
			
				<path d="M58.2,46.5c-2.1,0.8-4.8,2.1-6.4,3.6l1.3-3.6l-1.3-3.6C53.4,44.4,56,45.7,58.2,46.5z"/>
		
	
		<path d="M28.6,53.1c0.1,0.1,0.5,0.2,0.9,0.2c0.7,0,0.9-0.4,0.9-0.8c0-0.5-0.5-0.8-1-0.8H29v-0.4h0.3c0.4,0,0.9-0.2,0.9-0.7
			c0-0.3-0.2-0.6-0.7-0.6c-0.3,0-0.6,0.1-0.8,0.3l-0.1-0.4c0.2-0.1,0.6-0.3,1-0.3c0.8,0,1.1,0.5,1.1,0.9c0,0.4-0.2,0.7-0.7,0.9v0
			c0.5,0.1,0.9,0.5,0.9,1c0,0.6-0.5,1.2-1.4,1.2c-0.4,0-0.8-0.1-1-0.3L28.6,53.1z"/>


</svg>