<?xml version="1.0" encoding="utf-8"?>
<!-- Generator: Adobe Illustrator 26.2.1, SVG Export Plug-In . SVG Version: 6.00 Build 0)  -->
<svg version="1.1" xmlns="http://www.w3.org/2000/svg" xmlns:xlink="http://www.w3.org/1999/xlink" x="0px" y="0px"
	 viewBox="0 0 100 100" style="enable-background:new 0 0 100 100;" xml:space="preserve">
<style type="text/css">
	.st0{fill:none;}
	.st1{display:none;}
	.st2{display:inline;fill:none;}
	.st3{display:inline;}
	.st4{fill:none;stroke:#000000;stroke-width:1.5;stroke-miterlimit:10;}
</style>
<g id="Stroke11">
	<rect x="17.2" y="27.6" class="st0" width="12.6" height="0"/>
	<g>
		<path d="M44.8,40.2H15v54.1H8.4V5.7h36.4V40.2z M38.4,11H15v9.2h23.4V11z M15,34.9h23.4v-9.6H15V34.9z M68.4,84.7H36.9V90h-6.2
			V48.1h37.7V84.7z M62,53.5H36.9v10H62V53.5z M36.9,79.3H62V68.8H36.9V79.3z M91.6,5.7v79.2c0,8.9-3.9,9.3-21.2,9.3
			c-0.2-1.9-1.3-5.1-2.3-7c3.2,0.1,6.4,0.2,8.9,0.2c7.3,0,7.9,0,7.9-2.5V40.3H54.3V5.7H91.6z M84.9,11H60.8v9.2h24.1V11z M60.8,35
			h24.1v-9.7H60.8V35z"/>
	</g>
	<g>
		<line x1="38.2" y1="88.9" x2="61.8" y2="88.9"/>
		<g>
			<rect x="38.2" y="88.2" width="19.1" height="1.5"/>
			<g>
				<path d="M61.8,88.9c-2.1,0.8-4.8,2.1-6.4,3.6l1.3-3.6l-1.3-3.6C57,86.8,59.7,88.1,61.8,88.9z"/>
			</g>
		</g>
	</g>
	<g>
		<path d="M38.9,91.6L38.9,91.6L38.3,92l-0.1-0.4l0.9-0.5h0.4V95h-0.5V91.6z"/>
		<path d="M40.9,95v-0.3l0.4-0.4c1-0.9,1.4-1.5,1.5-2c0-0.4-0.2-0.8-0.8-0.8c-0.4,0-0.6,0.2-0.8,0.3L41,91.4
			c0.3-0.2,0.7-0.4,1.1-0.4c0.8,0,1.2,0.6,1.2,1.1c0,0.7-0.5,1.3-1.3,2.1l-0.3,0.3v0h1.8V95H40.9z"/>
	</g>
</g>
<g id="Kanji" class="st1">
	<rect x="17.2" y="27.6" class="st2" width="12.6" height="0"/>
	<g class="st3">
		<path d="M44.8,40.2H15v54.1H8.4V5.7h36.4V40.2z M38.4,11H15v9.2h23.4V11z M15,34.9h23.4v-9.6H15V34.9z M68.4,84.7H36.9V90h-6.2
			V48.1h37.7V84.7z M62,53.5H36.9v10H62V53.5z M36.9,79.3H62V68.8H36.9V79.3z M91.6,5.7v79.2c0,8.9-3.9,9.3-21.2,9.3
			c-0.2-1.9-1.3-5.1-2.3-7c3.2,0.1,6.4,0.2,8.9,0.2c7.3,0,7.9,0,7.9-2.5V40.3H54.3V5.7H91.6z M84.9,11H60.8v9.2h24.1V11z M60.8,35
			h24.1v-9.7H60.8V35z"/>
	</g>
</g>
<g id="Stroke10" class="st1">
	<rect x="17.2" y="27.6" class="st2" width="12.6" height="0"/>
	<g class="st3">
		<path d="M44.8,40.2H15v54.1H8.4V5.7h36.4V40.2z M38.4,11H15v9.2h23.4V11z M15,34.9h23.4v-9.6H15V34.9z M62,68.8H36.9V90h-6.2V48.1
			h37.7v36.6L62,84.8 M62,53.5H36.9v10H62V53.5z M91.6,5.7v79.2c0,8.9-3.9,9.3-21.2,9.3c-0.2-1.9-1.3-5.1-2.3-7
			c3.2,0.1,6.4,0.2,8.9,0.2c7.3,0,7.9,0,7.9-2.5V40.3H54.3V5.7H91.6z M84.9,11H60.8v9.2h24.1V11z M60.8,35h24.1v-9.7H60.8V35z"/>
	</g>
	<g class="st3">
		<line x1="38.4" y1="72.9" x2="57.6" y2="72.9"/>
		<g>
			<rect x="38.4" y="72.1" width="14.6" height="1.5"/>
			<g>
				<path d="M57.6,72.9c-2.1,0.8-4.8,2.1-6.4,3.6l1.3-3.6l-1.3-3.6C52.8,70.7,55.4,72.1,57.6,72.9z"/>
			</g>
		</g>
	</g>
	<g class="st3">
		<path d="M39.8,76.1L39.8,76.1l-0.7,0.4L39,76.1l0.9-0.5h0.4v3.9h-0.5V76.1z"/>
		<path d="M42.9,76.1L42.9,76.1l-0.7,0.4l-0.1-0.4l0.9-0.5h0.4v3.9h-0.5V76.1z"/>
	</g>
</g>
<g id="Stroke9" class="st1">
	<rect x="17.2" y="27.6" class="st2" width="12.6" height="0"/>
	<g class="st3">
		<path d="M44.8,40.2H15v54.1H8.4V5.7h36.4V40.2z M38.4,11H15v9.2h23.4V11z M15,34.9h23.4v-9.6H15V34.9z M61.9,84.6l0.1-5.3V68.8
			V53.5H36.9V90h-6.2V48.1h37.7v36.6 M91.6,5.7v79.2c0,8.9-3.9,9.3-21.2,9.3c-0.2-1.9-1.3-5.1-2.3-7c3.2,0.1,6.4,0.2,8.9,0.2
			c7.3,0,7.9,0,7.9-2.5V40.3H54.3V5.7H91.6z M84.9,11H60.8v9.2h24.1V11z M60.8,35h24.1v-9.7H60.8V35z"/>
	</g>
	<g class="st3">
		<g>
			<path class="st4" d="M38.4,56.3c2.3-0.1,19.6,0,19.6,0v8.2"/>
			<g>
				<path d="M58,69.1c-0.8-2.1-2.1-4.8-3.6-6.4l3.6,1.3l3.6-1.3C60.2,64.3,58.8,66.9,58,69.1z"/>
			</g>
		</g>
	</g>
	<g class="st3">
		<path d="M41.1,59.8L41.1,59.8l-0.7,0.4l-0.1-0.4l0.9-0.5h0.4v3.9h-0.5V59.8z"/>
		<path d="M45.6,61.2c0,1.3-0.5,2.1-1.4,2.1c-0.8,0-1.3-0.7-1.3-2c0-1.3,0.6-2,1.4-2C45.1,59.3,45.6,60,45.6,61.2z M43.5,61.3
			c0,1,0.3,1.6,0.8,1.6c0.5,0,0.8-0.6,0.8-1.6c0-1-0.2-1.6-0.8-1.6C43.8,59.7,43.5,60.2,43.5,61.3z"/>
	</g>
</g>
<g id="Stroke8" class="st1">
	<rect x="17.2" y="27.6" class="st2" width="12.6" height="0"/>
	<g class="st3">
		<path d="M44.8,40.2H15v54.1H8.4V5.7h36.4V40.2z M38.4,11H15v9.2h23.4V11z M15,34.9h23.4v-9.6H15V34.9z M36.9,48.1v5.4v10v5.3v10.5
			v5.4V90h-6.2V48.1 M91.6,5.7v79.2c0,8.9-3.9,9.3-21.2,9.3c-0.2-1.9-1.3-5.1-2.3-7c3.2,0.1,6.4,0.2,8.9,0.2c7.3,0,7.9,0,7.9-2.5
			V40.3H54.3V5.7H91.6z M84.9,11H60.8v9.2h24.1V11z M60.8,35h24.1v-9.7H60.8V35z"/>
	</g>
	<g class="st3">
		<line x1="41.5" y1="48.5" x2="41.5" y2="65.6"/>
		<g>
			<rect x="40.7" y="48.5" width="1.5" height="12.6"/>
			<g>
				<path d="M41.5,65.6c-0.8-2.1-2.1-4.8-3.6-6.4l3.6,1.3l3.6-1.3C43.6,60.9,42.3,63.5,41.5,65.6z"/>
			</g>
		</g>
	</g>
	<g class="st3">
		<path d="M45.4,52.6c0.1,0,0.2,0,0.4,0c0.3,0,0.6-0.2,0.8-0.4c0.3-0.2,0.4-0.6,0.5-1h0c-0.2,0.3-0.5,0.4-0.9,0.4
			c-0.7,0-1.2-0.5-1.2-1.2c0-0.7,0.5-1.4,1.3-1.4s1.3,0.6,1.3,1.6c0,0.9-0.3,1.5-0.7,1.8c-0.3,0.3-0.7,0.5-1.1,0.5
			c-0.2,0-0.4,0-0.5,0V52.6z M45.6,50.4c0,0.5,0.3,0.8,0.7,0.8c0.4,0,0.6-0.2,0.8-0.4c0,0,0-0.1,0-0.2c0-0.7-0.2-1.2-0.8-1.2
			C45.9,49.4,45.6,49.8,45.6,50.4z"/>
	</g>
</g>
<g id="Stroke7" class="st1">
	<rect x="17.2" y="27.6" class="st2" width="12.6" height="0"/>
	<g class="st3">
		<path d="M44.8,40.2H15v54.1H8.4V5.7h36.4V40.2z M38.4,11H15v9.2h23.4V11z M15,34.9h23.4v-9.6H15V34.9z M91.6,5.7v79.2
			c0,8.9-3.9,9.3-21.2,9.3c-0.2-1.9-1.3-5.1-2.3-7c3.2,0.1,6.4,0.2,8.9,0.2c7.3,0,7.9,0,7.9-2.5V40.3H54.3V5.7H91.6z M84.9,11H60.8
			v9.2h24.1V11z M60.8,35h24.1v-9.7H60.8V35z"/>
	</g>
	<g class="st3">
		<line x1="55.9" y1="44.6" x2="78.4" y2="44.6"/>
		<g>
			<rect x="55.9" y="43.8" width="18" height="1.5"/>
			<g>
				<path d="M78.4,44.6c-2.1,0.8-4.8,2.1-6.4,3.6l1.3-3.6L72,41C73.7,42.4,76.3,43.8,78.4,44.6z"/>
			</g>
		</g>
	</g>
	<g class="st3">
		<path d="M56.1,50c0-0.5,0.3-0.8,0.8-1l0,0c-0.4-0.2-0.6-0.5-0.6-0.9c0-0.6,0.5-1,1.2-1c0.8,0,1.1,0.5,1.1,1c0,0.3-0.2,0.7-0.6,0.9
			v0c0.5,0.2,0.8,0.5,0.8,1c0,0.7-0.6,1.1-1.3,1.1C56.6,51,56.1,50.5,56.1,50z M58.2,49.9c0-0.5-0.3-0.7-0.9-0.9
			c-0.5,0.1-0.7,0.4-0.7,0.8c0,0.4,0.3,0.7,0.8,0.7C57.9,50.6,58.2,50.3,58.2,49.9z M56.8,48c0,0.4,0.3,0.6,0.7,0.7
			c0.3-0.1,0.6-0.4,0.6-0.7c0-0.3-0.2-0.6-0.7-0.6C57,47.4,56.8,47.6,56.8,48z"/>
	</g>
</g>
<g id="Stroke6" class="st1">
	<rect x="17.2" y="27.6" class="st2" width="12.6" height="0"/>
	<g class="st3">
		<path d="M44.8,40.2H15v54.1H8.4V5.7h36.4V40.2z M38.4,11H15v9.2h23.4V11z M15,34.9h23.4v-9.6H15V34.9z M91.6,5.7v79.2
			c0,8.9-3.9,9.3-21.2,9.3c-0.2-1.9-1.3-5.1-2.3-7c3.2,0.1,6.4,0.2,8.9,0.2c7.3,0,7.9,0,7.9-2.5V40.3H54.3V5.7H91.6z M84.9,11H60.8
			v9.2h24.1V11z M84.9,40.3v-15H60.8v15"/>
	</g>
	<g class="st3">
		<path d="M62.2,29.3c0.4,0,17.2,0,17.2,0"/>
		<g>
			<rect x="62.2" y="28.5" width="12.7" height="1.5"/>
			<g>
				<path d="M79.4,29.3c-2.1,0.8-4.8,2.1-6.4,3.6l1.3-3.6L73,25.7C74.6,27.1,77.3,28.5,79.4,29.3z"/>
			</g>
		</g>
	</g>
	<g class="st3">
		<path d="M65.6,31.9v0.3l-1.7,3.6h-0.5l1.7-3.4v0h-1.9v-0.4H65.6z"/>
	</g>
</g>
<g id="Stroke5" class="st1">
	<rect x="17.2" y="27.6" class="st2" width="12.6" height="0"/>
	<g class="st3">
		<path d="M44.8,40.2H15v54.1H8.4V5.7h36.4V40.2z M38.4,11H15v9.2h23.4V11z M15,34.9h23.4v-9.6H15V34.9z M91.6,5.7v79.2
			c0,8.9-3.9,9.3-21.2,9.3c-0.2-1.9-1.3-5.1-2.3-7c3.2,0.1,6.4,0.2,8.9,0.2c7.3,0,7.9,0,7.9-2.5V40.3H54.3V5.7H91.6z M84.9,40.3V11
			H60.8v29.3"/>
	</g>
	<g class="st3">
		<polygon points="81.4,22.3 79.9,22.3 79.9,13.6 62.3,13.6 62.3,12.1 81.4,12.1 		"/>
		<g>
			<path d="M80.7,26.8c-0.8-2.1-2.1-4.8-3.6-6.4l3.6,1.3l3.6-1.3C82.8,22.1,81.4,24.7,80.7,26.8z"/>
		</g>
	</g>
	<g class="st3">
		<path d="M64.8,16.7c-0.1,0-0.2,0-0.4,0c-0.8,0.1-1.3,0.7-1.4,1.4h0c0.2-0.2,0.5-0.4,0.9-0.4c0.7,0,1.2,0.5,1.2,1.3
			c0,0.7-0.5,1.4-1.3,1.4c-0.8,0-1.4-0.6-1.4-1.7c0-0.8,0.3-1.4,0.7-1.8c0.3-0.3,0.8-0.5,1.2-0.6c0.2,0,0.3,0,0.4,0V16.7z
			 M64.6,18.9c0-0.6-0.3-0.9-0.8-0.9c-0.3,0-0.6,0.2-0.8,0.5c0,0.1-0.1,0.1-0.1,0.2c0,0.6,0.3,1.1,0.9,1.1
			C64.3,19.9,64.6,19.5,64.6,18.9z"/>
	</g>
</g>
<g id="Stroke4" class="st1">
	<rect x="17.2" y="27.6" class="st2" width="12.6" height="0"/>
	<g class="st3">
		<path d="M44.8,40.2H15v54.1H8.4V5.7h36.4V40.2z M38.4,11H15v9.2h23.4V11z M15,34.9h23.4v-9.6H15V34.9z M60.8,5.7V11v9.2v5.1V35
			v5.3h-6.5V5.7"/>
	</g>
	<g class="st3">
		<line x1="65.3" y1="6.7" x2="65.3" y2="22.5"/>
		<g>
			<rect x="64.5" y="6.7" width="1.5" height="11.3"/>
			<g>
				<path d="M65.3,22.5c-0.8-2.1-2.1-4.8-3.6-6.4l3.6,1.3l3.6-1.3C67.4,17.7,66,20.4,65.3,22.5z"/>
			</g>
		</g>
	</g>
	<g class="st3">
		<path d="M71.6,7.5h-1.5l-0.1,1c0.1,0,0.2,0,0.3,0c0.3,0,0.6,0.1,0.8,0.2c0.3,0.2,0.6,0.5,0.6,1c0,0.8-0.6,1.3-1.5,1.3
			c-0.4,0-0.8-0.1-1-0.2l0.1-0.4c0.2,0.1,0.5,0.2,0.8,0.2c0.5,0,0.9-0.3,0.9-0.8c0-0.5-0.3-0.9-1.1-0.9c-0.2,0-0.4,0-0.5,0l0.3-1.9
			h1.9V7.5z"/>
	</g>
</g>
<g id="Stroke3" class="st1">
	<rect x="17.2" y="27.6" class="st2" width="12.6" height="0"/>
	<g class="st3">
		<path d="M44.8,40.2H15v54.1H8.4V5.7h36.4V40.2z M38.4,11H15v9.2h23.4V11z M15,34.9h23.4v-9.6H15V34.9z"/>
	</g>
	<g class="st3">
		<line x1="17.2" y1="44.6" x2="40.2" y2="44.6"/>
		<g>
			<rect x="17.2" y="43.8" width="18.5" height="1.5"/>
			<g>
				<path d="M40.2,44.6c-2.1,0.8-4.8,2.1-6.4,3.6l1.3-3.6L33.8,41C35.5,42.4,38.1,43.8,40.2,44.6z"/>
			</g>
		</g>
	</g>
	<g class="st3">
		<path d="M19.1,51.3v-1.1h-1.8v-0.3l1.7-2.5h0.6v2.4h0.5v0.4h-0.5v1.1H19.1z M19.1,49.8v-1.3c0-0.2,0-0.4,0-0.6h0
			c-0.1,0.2-0.2,0.4-0.3,0.6l-1,1.3v0H19.1z"/>
	</g>
</g>
<g id="Stroke2" class="st1">
	<rect x="17.2" y="27.6" class="st2" width="12.6" height="0"/>
	<g class="st3">
		<path d="M38.4,40.1V25.3H15v69H8.4V5.7h36.4v34.5 M38.4,11H15v9.2h23.4V11z"/>
	</g>
	<g class="st3">
		<line x1="17.2" y1="29.2" x2="31.6" y2="29.2"/>
		<g>
			<rect x="17.2" y="28.4" width="9.8" height="1.5"/>
			<g>
				<path d="M31.6,29.2c-2.1,0.8-4.8,2.1-6.4,3.6l1.3-3.6l-1.3-3.6C26.8,27,29.4,28.4,31.6,29.2z"/>
			</g>
		</g>
	</g>
	<g class="st3">
		<path d="M18,35c0.1,0.1,0.5,0.2,0.9,0.2c0.7,0,0.9-0.4,0.9-0.8c0-0.5-0.5-0.8-1-0.8h-0.3v-0.4h0.3c0.4,0,0.9-0.2,0.9-0.7
			c0-0.3-0.2-0.6-0.7-0.6c-0.3,0-0.6,0.1-0.8,0.3L18,31.9c0.2-0.1,0.6-0.3,1-0.3c0.8,0,1.1,0.5,1.1,0.9c0,0.4-0.2,0.7-0.7,0.9v0
			c0.5,0.1,0.9,0.5,0.9,1c0,0.6-0.5,1.2-1.4,1.2c-0.4,0-0.8-0.1-1-0.3L18,35z"/>
	</g>
</g>
<g id="Stroke1" class="st1">
	<rect x="17.2" y="27.6" class="st2" width="12.6" height="0"/>
	<g class="st3">
		<path d="M38.4,40.5V11H15v83.3H8.4V5.7h36.4v34.5 M38.4,34.9v-9.6"/>
	</g>
	<g class="st3">
		<path d="M35,23.1h-1.5v-9.2c-4.7,0-14.7-0.1-15.7,0l-0.2-1.5c1.4-0.1,16,0,16.6,0l0.7,0V23.1z"/>
		<g>
			<path d="M34.3,27.6c-0.8-2.1-2.1-4.8-3.6-6.4l3.6,1.3l3.6-1.3C36.4,22.9,35,25.5,34.3,27.6z"/>
		</g>
	</g>
	<g class="st3">
		<path d="M18,19.6v-0.3l0.4-0.4c1-0.9,1.4-1.5,1.5-2c0-0.4-0.2-0.8-0.8-0.8c-0.4,0-0.6,0.2-0.8,0.3l-0.2-0.4
			c0.3-0.2,0.7-0.4,1.1-0.4c0.8,0,1.2,0.6,1.2,1.1c0,0.7-0.5,1.3-1.3,2.1l-0.3,0.3v0h1.8v0.4H18z"/>
	</g>
</g>
<g id="Stroke0" class="st1">
	<g class="st3">
		<path d="M15,5.7v34.5v54.1H8.4V5.7"/>
	</g>
	<g class="st3">
		<line x1="20" y1="6.8" x2="20" y2="27"/>
		<g>
			<rect x="19.3" y="6.8" width="1.5" height="15.7"/>
			<g>
				<path d="M20,27c-0.8-2.1-2.1-4.8-3.6-6.4l3.6,1.3l3.6-1.3C22.1,22.3,20.8,24.9,20,27z"/>
			</g>
		</g>
	</g>
	<g class="st3">
		<path d="M24,7.8L24,7.8l-0.7,0.4l-0.1-0.4l0.9-0.5h0.4v3.9H24V7.8z"/>
	</g>
</g>
</svg>
