<?xml version="1.0" encoding="utf-8"?>
<!-- Generator: Adobe Illustrator 26.2.1, SVG Export Plug-In . SVG Version: 6.00 Build 0)  -->
<svg version="1.1" xmlns="http://www.w3.org/2000/svg" xmlns:xlink="http://www.w3.org/1999/xlink" x="0px" y="0px"
	 viewBox="0 0 100 100" style="enable-background:new 0 0 100 100;" xml:space="preserve" width = "100px" height = "100px">
<style type="text/css">
	.st0{display:none;}
	.st1{display:inline;}
</style>

	<rect x="17.2" y="27.6" class="st0" width="12.6" height="0"/>

		<path d="M44.8,40.2H15v54.1H8.4V5.7h36.4V40.2z M38.4,11H15v9.2h23.4V11z M15,34.9h23.4v-9.6H15V34.9z M68.4,84.7H36.9V90h-6.2
			V48.1h37.7V84.7z M62,53.5H36.9v10H62V53.5z M36.9,79.3H62V68.8H36.9V79.3z M91.6,5.7v79.2c0,8.9-3.9,9.3-21.2,9.3
			c-0.2-1.9-1.3-5.1-2.3-7c3.2,0.1,6.4,0.2,8.9,0.2c7.3,0,7.9,0,7.9-2.5V40.3H54.3V5.7H91.6z M84.9,11H60.8v9.2h24.1V11z M60.8,35
			h24.1v-9.7H60.8V35z"/>

		<line x1="38.2" y1="88.9" x2="61.8" y2="88.9"/>
	
			<rect x="38.2" y="88.2" width="19.1" height="1.5"/>
	
			<path d="M61.8,88.9c-2.1,0.8-4.8,2.1-6.4,3.6l1.3-3.6l-1.3-3.6C57,86.8,59.7,88.1,61.8,88.9z"/>


		<path d="M38.9,91.6L38.9,91.6L38.3,92l-0.1-0.4l0.9-0.5h0.4V95h-0.5V91.6z"/>
		<path d="M40.9,95v-0.3l0.4-0.4c1-0.9,1.4-1.5,1.5-2c0-0.4-0.2-0.8-0.8-0.8c-0.4,0-0.6,0.2-0.8,0.3L41,91.4
			c0.3-0.2,0.7-0.4,1.1-0.4c0.8,0,1.2,0.6,1.2,1.1c0,0.7-0.5,1.3-1.3,2.1l-0.3,0.3v0h1.8V95H40.9z"/>
	<rect x="17.2" y="27.6" class="st2" width="12.6" height="0"/>
	<path d="M44.8,40.2H15v54.1H8.4V5.7h36.4V40.2z M38.4,11H15v9.2h23.4V11z M15,34.9h23.4v-9.6H15V34.9z M68.4,84.7H36.9V90h-6.2
			V48.1h37.7V84.7z M62,53.5H36.9v10H62V53.5z M36.9,79.3H62V68.8H36.9V79.3z M91.6,5.7v79.2c0,8.9-3.9,9.3-21.2,9.3
			c-0.2-1.9-1.3-5.1-2.3-7c3.2,0.1,6.4,0.2,8.9,0.2c7.3,0,7.9,0,7.9-2.5V40.3H54.3V5.7H91.6z M84.9,11H60.8v9.2h24.1V11z M60.8,35
			h24.1v-9.7H60.8V35z"/>



 </svg>