<?xml version="1.0" encoding="utf-8"?>
<!-- Generator: Adobe Illustrator 26.2.1, SVG Export Plug-In . SVG Version: 6.00 Build 0)  -->
<svg version="1.1" xmlns="http://www.w3.org/2000/svg" xmlns:xlink="http://www.w3.org/1999/xlink" x="0px" y="0px"
	 viewBox="0 0 100 100" style="enable-background:new 0 0 100 100;" xml:space="preserve" width = "100px" height = "100px">
<style type="text/css">
	.st0{display:none;}
	.st1{display:inline;}
</style> 


	<rect x="17.2" y="27.6" class="st2" width="12.6" height="0"/>
	
		<path d="M44.8,40.2H15v54.1H8.4V5.7h36.4V40.2z M38.4,11H15v9.2h23.4V11z M15,34.9h23.4v-9.6H15V34.9z M36.9,48.1v5.4v10v5.3v10.5
			v5.4V90h-6.2V48.1 M91.6,5.7v79.2c0,8.9-3.9,9.3-21.2,9.3c-0.2-1.9-1.3-5.1-2.3-7c3.2,0.1,6.4,0.2,8.9,0.2c7.3,0,7.9,0,7.9-2.5
			V40.3H54.3V5.7H91.6z M84.9,11H60.8v9.2h24.1V11z M60.8,35h24.1v-9.7H60.8V35z"/>

		<line x1="41.5" y1="48.5" x2="41.5" y2="65.6"/>

			<rect x="40.7" y="48.5" width="1.5" height="12.6"/>
		
				<path d="M41.5,65.6c-0.8-2.1-2.1-4.8-3.6-6.4l3.6,1.3l3.6-1.3C43.6,60.9,42.3,63.5,41.5,65.6z"/>
	
		<path d="M45.4,52.6c0.1,0,0.2,0,0.4,0c0.3,0,0.6-0.2,0.8-0.4c0.3-0.2,0.4-0.6,0.5-1h0c-0.2,0.3-0.5,0.4-0.9,0.4
			c-0.7,0-1.2-0.5-1.2-1.2c0-0.7,0.5-1.4,1.3-1.4s1.3,0.6,1.3,1.6c0,0.9-0.3,1.5-0.7,1.8c-0.3,0.3-0.7,0.5-1.1,0.5
			c-0.2,0-0.4,0-0.5,0V52.6z M45.6,50.4c0,0.5,0.3,0.8,0.7,0.8c0.4,0,0.6-0.2,0.8-0.4c0,0,0-0.1,0-0.2c0-0.7-0.2-1.2-0.8-1.2
			C45.9,49.4,45.6,49.8,45.6,50.4z"/>


</svg>