<?xml version="1.0" encoding="utf-8"?>
<!-- Generator: Adobe Illustrator 26.2.1, SVG Export Plug-In . SVG Version: 6.00 Build 0)  -->
<svg version="1.1" xmlns="http://www.w3.org/2000/svg" xmlns:xlink="http://www.w3.org/1999/xlink" x="0px" y="0px"
	 viewBox="0 0 100 100" style="enable-background:new 0 0 100 100;" xml:space="preserve" width = "100px" height = "100px">
<style type="text/css">
	.st0{display:none;}
	.st1{display:inline;}
</style> 

	<rect x="17.2" y="27.6" class="st2" width="12.6" height="0"/>

		<path d="M44.8,40.2H15v54.1H8.4V5.7h36.4V40.2z M38.4,11H15v9.2h23.4V11z M15,34.9h23.4v-9.6H15V34.9z M60.8,5.7V11v9.2v5.1V35
			v5.3h-6.5V5.7"/>

		<line x1="65.3" y1="6.7" x2="65.3" y2="22.5"/>
	
			<rect x="64.5" y="6.7" width="1.5" height="11.3"/>
	
				<path d="M65.3,22.5c-0.8-2.1-2.1-4.8-3.6-6.4l3.6,1.3l3.6-1.3C67.4,17.7,66,20.4,65.3,22.5z"/>

		<path d="M71.6,7.5h-1.5l-0.1,1c0.1,0,0.2,0,0.3,0c0.3,0,0.6,0.1,0.8,0.2c0.3,0.2,0.6,0.5,0.6,1c0,0.8-0.6,1.3-1.5,1.3
			c-0.4,0-0.8-0.1-1-0.2l0.1-0.4c0.2,0.1,0.5,0.2,0.8,0.2c0.5,0,0.9-0.3,0.9-0.8c0-0.5-0.3-0.9-1.1-0.9c-0.2,0-0.4,0-0.5,0l0.3-1.9
			h1.9V7.5z"/>


</svg>