<?xml version="1.0" encoding="utf-8"?>
<!-- Generator: Adobe Illustrator 26.2.1, SVG Export Plug-In . SVG Version: 6.00 Build 0)  -->
<svg version="1.1" xmlns="http://www.w3.org/2000/svg" xmlns:xlink="http://www.w3.org/1999/xlink" x="0px" y="0px"
	 viewBox="0 0 100 100" style="enable-background:new 0 0 100 100;" xml:space="preserve" width = "100px" height = "100px">
<style type="text/css">
	.st0{display:none;}
	.st1{display:inline;}
</style>


	<rect x="17.2" y="27.6" class="st2" width="12.6" height="0"/>
	
		<path d="M44.8,40.2H15v54.1H8.4V5.7h36.4V40.2z M38.4,11H15v9.2h23.4V11z M15,34.9h23.4v-9.6H15V34.9z M91.6,5.7v79.2
			c0,8.9-3.9,9.3-21.2,9.3c-0.2-1.9-1.3-5.1-2.3-7c3.2,0.1,6.4,0.2,8.9,0.2c7.3,0,7.9,0,7.9-2.5V40.3H54.3V5.7H91.6z M84.9,11H60.8
			v9.2h24.1V11z M84.9,40.3v-15H60.8v15"/>

		<path d="M62.2,29.3c0.4,0,17.2,0,17.2,0"/>
	
			<rect x="62.2" y="28.5" width="12.7" height="1.5"/>

				<path d="M79.4,29.3c-2.1,0.8-4.8,2.1-6.4,3.6l1.3-3.6L73,25.7C74.6,27.1,77.3,28.5,79.4,29.3z"/>

		<path d="M65.6,31.9v0.3l-1.7,3.6h-0.5l1.7-3.4v0h-1.9v-0.4H65.6z"/>


 </svg>