<?xml version="1.0" encoding="utf-8"?>
<!-- Generator: Adobe Illustrator 26.2.1, SVG Export Plug-In . SVG Version: 6.00 Build 0)  -->
<svg version="1.1" xmlns="http://www.w3.org/2000/svg" xmlns:xlink="http://www.w3.org/1999/xlink" x="0px" y="0px"
	 viewBox="0 0 100 100" style="enable-background:new 0 0 100 100;" xml:space="preserve" width = "100px" height = "100px">
<style type="text/css">
	.st0{display:none;}
	.st1{display:inline;}
</style>


	<rect x="17.2" y="27.6" class="st2" width="12.6" height="0"/>
	
		<path d="M44.8,40.2H15v54.1H8.4V5.7h36.4V40.2z M38.4,11H15v9.2h23.4V11z M15,34.9h23.4v-9.6H15V34.9z M61.9,84.6l0.1-5.3V68.8
			V53.5H36.9V90h-6.2V48.1h37.7v36.6 M91.6,5.7v79.2c0,8.9-3.9,9.3-21.2,9.3c-0.2-1.9-1.3-5.1-2.3-7c3.2,0.1,6.4,0.2,8.9,0.2
			c7.3,0,7.9,0,7.9-2.5V40.3H54.3V5.7H91.6z M84.9,11H60.8v9.2h24.1V11z M60.8,35h24.1v-9.7H60.8V35z"/>

			<path class="st4" d="M38.4,56.3c2.3-0.1,19.6,0,19.6,0v8.2"/>

				<path d="M58,69.1c-0.8-2.1-2.1-4.8-3.6-6.4l3.6,1.3l3.6-1.3C60.2,64.3,58.8,66.9,58,69.1z"/>

		<path d="M41.1,59.8L41.1,59.8l-0.7,0.4l-0.1-0.4l0.9-0.5h0.4v3.9h-0.5V59.8z"/>
		<path d="M45.6,61.2c0,1.3-0.5,2.1-1.4,2.1c-0.8,0-1.3-0.7-1.3-2c0-1.3,0.6-2,1.4-2C45.1,59.3,45.6,60,45.6,61.2z M43.5,61.3
			c0,1,0.3,1.6,0.8,1.6c0.5,0,0.8-0.6,0.8-1.6c0-1-0.2-1.6-0.8-1.6C43.8,59.7,43.5,60.2,43.5,61.3z"/>


 </svg>