<?xml version="1.0" encoding="utf-8"?>
<!-- Generator: Adobe Illustrator 26.2.1, SVG Export Plug-In . SVG Version: 6.00 Build 0)  -->
<svg version="1.1" xmlns="http://www.w3.org/2000/svg" xmlns:xlink="http://www.w3.org/1999/xlink" x="0px" y="0px"
	 viewBox="0 0 100 100" style="enable-background:new 0 0 100 100;" xml:space="preserve" width = "100px" height = "100px">
<style type="text/css">
	.st0{display:none;}
	.st1{display:inline;}
</style> 


	<rect x="17.2" y="27.6" class="st2" width="12.6" height="0"/>

		<path d="M38.4,40.5V11H15v83.3H8.4V5.7h36.4v34.5 M38.4,34.9v-9.6"/>

		<path d="M35,23.1h-1.5v-9.2c-4.7,0-14.7-0.1-15.7,0l-0.2-1.5c1.4-0.1,16,0,16.6,0l0.7,0V23.1z"/>

			<path d="M34.3,27.6c-0.8-2.1-2.1-4.8-3.6-6.4l3.6,1.3l3.6-1.3C36.4,22.9,35,25.5,34.3,27.6z"/>

		<path d="M18,19.6v-0.3l0.4-0.4c1-0.9,1.4-1.5,1.5-2c0-0.4-0.2-0.8-0.8-0.8c-0.4,0-0.6,0.2-0.8,0.3l-0.2-0.4
			c0.3-0.2,0.7-0.4,1.1-0.4c0.8,0,1.2,0.6,1.2,1.1c0,0.7-0.5,1.3-1.3,2.1l-0.3,0.3v0h1.8v0.4H18z"/>


</svg>