<?xml version="1.0" encoding="utf-8"?>
<!-- Generator: Adobe Illustrator 26.2.1, SVG Export Plug-In . SVG Version: 6.00 Build 0)  -->
<svg version="1.1" xmlns="http://www.w3.org/2000/svg" xmlns:xlink="http://www.w3.org/1999/xlink" x="0px" y="0px"
	 viewBox="0 0 100 100" style="enable-background:new 0 0 100 100;" xml:space="preserve">
<style type="text/css">
	.st0{display:none;}
	.st1{display:inline;}
</style>
<g id="Stroke6">
	<g>
		<path d="M37.4,30.2h-6.3l7.1,2.5c-0.2,0.7-1,1-2.2,1c-2.4,4.9-5.2,9.8-8.3,14.4l3,0.8c-0.2,0.6-0.8,1.1-2,1.2v46.3h-6.6V56.2
			C17.7,61.8,13,66.9,8.2,71c-1.2-1.2-3.5-3.4-5-4.5c10.3-8.3,20.8-22.3,27-36.5l0.5,0.2V21H6.1v-6.5h24.6v-11L39.3,4
			c-0.1,0.7-0.6,1.2-1.9,1.4v9.1h26.6v-11L72.8,4c-0.1,0.8-0.7,1.2-2,1.4v9.1h24.4V21H70.8v9.8h-6.7V21H37.4V30.2z M58.5,83.6
			c0,4.2,1,5.1,6.4,5.1h19.3c5,0,5.8-2.7,6.4-15.8c1.6,1.2,4.3,2.3,6.2,2.8c-0.9,15-2.9,19.4-12.2,19.4H64.5
			c-9.8,0-12.6-2.4-12.6-11.5v-52l8.6,0.5c-0.1,0.7-0.7,1.2-2,1.4v23.9c10.6-4.8,21.7-10.7,28.4-15.9l5.7,5.6
			c-0.2,0.3-0.6,0.4-1.1,0.4c-0.2,0-0.5,0-0.8-0.1c-7.8,5.3-20.5,11.3-32.2,16.1V83.6z"/>
	</g>
	<g>
		<line x1="47.2" y1="33.5" x2="47.2" y2="45.3"/>
		<g>
			<rect x="46.5" y="33.5" width="1.5" height="7.2"/>
			<g>
				<path d="M47.2,45.3c-0.8-2.1-2.1-4.8-3.6-6.4l3.6,1.3l3.6-1.3C49.4,40.5,48,43.2,47.2,45.3z"/>
			</g>
		</g>
	</g>
	<g>
		<path d="M45,31.9v0.3l-1.7,3.5h-0.5l1.7-3.4v0h-1.9v-0.4H45z"/>
	</g>
</g>
<g id="Stroke5" class="st0">
	<g class="st1">
		<path d="M37.4,30.2h-6.3l7.1,2.5c-0.2,0.7-1,1-2.2,1c-2.4,4.9-5.2,9.8-8.3,14.4l3,0.8c-0.2,0.6-0.8,1.1-2,1.2v46.3h-6.6V56.2
			C17.7,61.8,13,66.9,8.2,71c-1.2-1.2-3.5-3.4-5-4.5c10.3-8.3,20.8-22.3,27-36.5l0.5,0.2V21H6.1v-6.5h24.6v-11L39.3,4
			c-0.1,0.7-0.6,1.2-1.9,1.4v9.1h26.6v-11L72.8,4c-0.1,0.8-0.7,1.2-2,1.4v9.1h24.4V21H70.8v9.8h-6.7V21H37.4V30.2z M58.5,57.4
			c10.6-4.8,21.7-10.7,28.4-15.9l5.7,5.6c-0.2,0.3-0.6,0.4-1.1,0.4c-0.2,0-0.5,0-0.8-0.1c-7.8,5.3-20.5,11.3-32.2,16.1"/>
	</g>
	<g class="st1">
		<path d="M84.9,56.6l-0.8-1.3c2.5-1.6,4.8-3.4,7-5.4l1,1.1C89.9,53.1,87.4,54.9,84.9,56.6z"/>
		<g>
			<path d="M80.5,58.2c1.4-1.8,3-4.3,3.7-6.3l0.7,3.7l2.9,2.4C85.7,57.6,82.8,57.8,80.5,58.2z"/>
		</g>
	</g>
	<g class="st1">
		<path d="M96,48.8c-0.1,0-0.2,0-0.4,0c-0.8,0.1-1.3,0.7-1.4,1.4h0c0.2-0.2,0.5-0.4,0.9-0.4c0.7,0,1.2,0.5,1.2,1.3
			c0,0.7-0.5,1.4-1.3,1.4c-0.8,0-1.4-0.6-1.4-1.7c0-0.8,0.3-1.4,0.7-1.8c0.3-0.3,0.8-0.5,1.2-0.6c0.2,0,0.3,0,0.4,0V48.8z M95.9,51
			c0-0.6-0.3-0.9-0.8-0.9c-0.3,0-0.6,0.2-0.8,0.5c0,0.1-0.1,0.1-0.1,0.2c0,0.6,0.3,1.1,0.9,1.1C95.6,52,95.9,51.6,95.9,51z"/>
	</g>
</g>
<g id="Stroke4" class="st0">
	<g class="st1">
		<path d="M37.4,30.2h-6.3l7.1,2.5c-0.2,0.7-1,1-2.2,1c-2.4,4.9-5.2,9.8-8.3,14.4l3,0.8c-0.2,0.6-0.8,1.1-2,1.2v46.3h-6.6V56.2
			C17.7,61.8,13,66.9,8.2,71c-1.2-1.2-3.5-3.4-5-4.5c10.3-8.3,20.8-22.3,27-36.5l0.5,0.2V21H6.1v-6.5h24.6v-11L39.3,4
			c-0.1,0.7-0.6,1.2-1.9,1.4v9.1h26.6v-11L72.8,4c-0.1,0.8-0.7,1.2-2,1.4v9.1h24.4V21H70.8v9.8h-6.7V21H37.4V30.2z M58.5,57.4"/>
	</g>
	<g class="st1">
		<line x1="33.3" y1="51" x2="33.3" y2="61.8"/>
		<g>
			<rect x="32.6" y="51" width="1.5" height="6.3"/>
			<g>
				<path d="M33.3,61.8c-0.8-2.1-2.1-4.8-3.6-6.4l3.6,1.3l3.6-1.3C35.5,57,34.1,59.7,33.3,61.8z"/>
			</g>
		</g>
	</g>
	<g class="st1">
		<path d="M37.7,48.5h-1.5l-0.1,1c0.1,0,0.2,0,0.3,0c0.3,0,0.6,0.1,0.8,0.2c0.3,0.2,0.6,0.5,0.6,1c0,0.8-0.6,1.3-1.5,1.3
			c-0.4,0-0.8-0.1-1-0.2l0.1-0.4c0.2,0.1,0.5,0.2,0.8,0.2c0.5,0,0.9-0.3,0.9-0.8c0-0.5-0.3-0.9-1.1-0.9c-0.2,0-0.4,0-0.5,0l0.3-1.9
			h1.9V48.5z"/>
	</g>
</g>
<g id="Stroke3" class="st0">
	<g class="st1">
		<path d="M22.1,56.2C17.7,61.8,13,66.9,8.2,71c-1.2-1.2-3.5-3.4-5-4.5c10.3-8.3,20.8-22.3,27-36.5l0.5,0.2V21H6.1v-6.5h24.6v-11
			L39.3,4c-0.1,0.7-0.6,1.2-1.9,1.4v9.1h26.6v-11L72.8,4c-0.1,0.8-0.7,1.2-2,1.4v9.1h24.4V21H70.8v9.8h-6.7V21H37.4v9.2h-6.3
			l7.1,2.5c-0.2,0.7-1,1-2.2,1c-2.4,4.9-5.2,9.8-8.3,14.4"/>
	</g>
	<g class="st1">
		<path d="M35.7,44.5l-1.3-0.7c1.4-2.6,2.5-5.3,3.5-8l1.4,0.5C38.3,39.1,37.1,41.9,35.7,44.5z"/>
		<g>
			<path d="M32.8,48.1c0.4-2.2,0.5-5.2,0-7.3l2.5,2.9l3.7,0.6C37,45,34.5,46.6,32.8,48.1z"/>
		</g>
	</g>
	<g class="st1">
		<path d="M43.6,37.9v-1.1h-1.8v-0.3l1.7-2.5h0.6v2.4h0.5v0.4h-0.5v1.1H43.6z M43.6,36.4v-1.3c0-0.2,0-0.4,0-0.6h0
			c-0.1,0.2-0.2,0.4-0.3,0.6l-1,1.3v0H43.6z"/>
	</g>
</g>
<g id="Stroke2" class="st0">
	<g class="st1">
		<path d="M27.7,48.2 M30.7,30.1V21H6.1v-6.5h24.6v-11L39.3,4c-0.1,0.7-0.6,1.2-1.9,1.4v9.1h26.6v-11L72.8,4c-0.1,0.8-0.7,1.2-2,1.4
			v9.1h24.4V21H70.8v9.8h-6.7V21H37.4v9.2h-6.3"/>
	</g>
	<g class="st1">
		<line x1="75.9" y1="4.1" x2="75.9" y2="13.5"/>
		<g>
			<rect x="75.2" y="4.1" width="1.5" height="4.9"/>
			<g>
				<path d="M75.9,13.5c-0.8-2.1-2.1-4.8-3.6-6.4l3.6,1.3l3.6-1.3C78.1,8.7,76.7,11.4,75.9,13.5z"/>
			</g>
		</g>
	</g>
	<g class="st1">
		<path d="M80.2,5.6c0.2,0.1,0.5,0.2,0.9,0.2C81.8,5.8,82,5.4,82,5c0-0.5-0.5-0.8-1-0.8h-0.3V3.9H81c0.4,0,0.9-0.2,0.9-0.7
			c0-0.3-0.2-0.6-0.7-0.6c-0.3,0-0.6,0.1-0.8,0.3l-0.1-0.4c0.2-0.1,0.6-0.3,1-0.3c0.8,0,1.1,0.5,1.1,0.9c0,0.4-0.2,0.7-0.7,0.9v0
			c0.5,0.1,0.9,0.5,0.9,1c0,0.6-0.5,1.2-1.4,1.2c-0.4,0-0.8-0.1-1-0.3L80.2,5.6z"/>
	</g>
</g>
<g id="Stroke1" class="st0">
	<g class="st1">
		<path d="M30.6,30.1V21H6v-6.5h24.6v-11L39.2,4c-0.1,0.7-0.6,1.2-1.9,1.4v9.1h26.6h6.7H95V21H70.6h-6.7H37.3v9.2H31"/>
	</g>
	<g class="st1">
		<line x1="41.9" y1="5.1" x2="41.9" y2="12.7"/>
		<g>
			<rect x="41.2" y="5.1" width="1.5" height="3"/>
			<g>
				<path d="M41.9,12.7c-0.8-2.1-2.1-4.8-3.6-6.4l3.6,1.3l3.6-1.3C44.1,7.9,42.7,10.5,41.9,12.7z"/>
			</g>
		</g>
	</g>
	<g class="st1">
		<path d="M47.3,7.8V7.5l0.4-0.4c1-0.9,1.4-1.5,1.5-2c0-0.4-0.2-0.8-0.8-0.8c-0.4,0-0.6,0.2-0.8,0.3l-0.2-0.4
			c0.3-0.2,0.7-0.4,1.1-0.4c0.8,0,1.2,0.6,1.2,1.1c0,0.7-0.5,1.3-1.3,2.1l-0.3,0.3v0h1.8v0.4H47.3z"/>
	</g>
</g>
<g id="Stroke0" class="st0">
	<g class="st1">
		<path d="M28.7,96.5h-6.6 M30.7,21H6.1v-6.5h24.6h6.7h26.6h6.7h24.4V21H70.8h-6.7H37.4"/>
	</g>
	<g class="st1">
		<line x1="7.1" y1="25.9" x2="20.9" y2="25.9"/>
		<g>
			<rect x="7.1" y="25.2" width="9.3" height="1.5"/>
			<g>
				<path d="M20.9,25.9c-2.1,0.8-4.8,2.1-6.4,3.6l1.3-3.6l-1.3-3.6C16.1,23.8,18.8,25.1,20.9,25.9z"/>
			</g>
		</g>
	</g>
	<g class="st1">
		<path d="M5,28.4L5,28.4l-0.7,0.4l-0.1-0.4L5,27.9h0.4v3.9H5V28.4z"/>
	</g>
</g>
<g id="Kanji" class="st0">
	<g class="st1">
		<path d="M37.4,30.2h-6.3l7.1,2.5c-0.2,0.7-1,1-2.2,1c-2.4,4.9-5.2,9.8-8.3,14.4l3,0.8c-0.2,0.6-0.8,1.1-2,1.2v46.3h-6.6V56.2
			C17.7,61.8,13,66.9,8.2,71c-1.2-1.2-3.5-3.4-5-4.5c10.3-8.3,20.8-22.3,27-36.5l0.5,0.2V21H6.1v-6.5h24.6v-11L39.3,4
			c-0.1,0.7-0.6,1.2-1.9,1.4v9.1h26.6v-11L72.8,4c-0.1,0.8-0.7,1.2-2,1.4v9.1h24.4V21H70.8v9.8h-6.7V21H37.4V30.2z M58.5,83.6
			c0,4.2,1,5.1,6.4,5.1h19.3c5,0,5.8-2.7,6.4-15.8c1.6,1.2,4.3,2.3,6.2,2.8c-0.9,15-2.9,19.4-12.2,19.4H64.5
			c-9.8,0-12.6-2.4-12.6-11.5v-52l8.6,0.5c-0.1,0.7-0.7,1.2-2,1.4v23.9c10.6-4.8,21.7-10.7,28.4-15.9l5.7,5.6
			c-0.2,0.3-0.6,0.4-1.1,0.4c-0.2,0-0.5,0-0.8-0.1c-7.8,5.3-20.5,11.3-32.2,16.1V83.6z"/>
	</g>
</g>
</svg>
