<?xml version="1.0" encoding="utf-8"?>
<!-- Generator: Adobe Illustrator 26.2.1, SVG Export Plug-In . SVG Version: 6.00 Build 0)  -->
<svg version="1.1" xmlns="http://www.w3.org/2000/svg" xmlns:xlink="http://www.w3.org/1999/xlink" x="0px" y="0px"
	 viewBox="0 0 100 100" style="enable-background:new 0 0 100 100;" xml:space="preserve" width = "100px" height = "100px">
<style type="text/css">
	.st0{display:none;}
	.st1{display:inline;}
</style> 


		<path d="M22.1,56.2C17.7,61.8,13,66.9,8.2,71c-1.2-1.2-3.5-3.4-5-4.5c10.3-8.3,20.8-22.3,27-36.5l0.5,0.2V21H6.1v-6.5h24.6v-11
			L39.3,4c-0.1,0.7-0.6,1.2-1.9,1.4v9.1h26.6v-11L72.8,4c-0.1,0.8-0.7,1.2-2,1.4v9.1h24.4V21H70.8v9.8h-6.7V21H37.4v9.2h-6.3
			l7.1,2.5c-0.2,0.7-1,1-2.2,1c-2.4,4.9-5.2,9.8-8.3,14.4"/>


		<path d="M35.7,44.5l-1.3-0.7c1.4-2.6,2.5-5.3,3.5-8l1.4,0.5C38.3,39.1,37.1,41.9,35.7,44.5z"/>

			<path d="M32.8,48.1c0.4-2.2,0.5-5.2,0-7.3l2.5,2.9l3.7,0.6C37,45,34.5,46.6,32.8,48.1z"/>


		<path d="M43.6,37.9v-1.1h-1.8v-0.3l1.7-2.5h0.6v2.4h0.5v0.4h-0.5v1.1H43.6z M43.6,36.4v-1.3c0-0.2,0-0.4,0-0.6h0
			c-0.1,0.2-0.2,0.4-0.3,0.6l-1,1.3v0H43.6z"/>


</svg>