<?xml version="1.0" encoding="utf-8"?>
<!-- Generator: Adobe Illustrator 26.2.1, SVG Export Plug-In . SVG Version: 6.00 Build 0)  -->
<svg version="1.1" xmlns="http://www.w3.org/2000/svg" xmlns:xlink="http://www.w3.org/1999/xlink" x="0px" y="0px"
	 viewBox="0 0 100 100" style="enable-background:new 0 0 100 100;" xml:space="preserve" width = "100px" height = "100px">
<style type="text/css">
	.st0{display:none;}
	.st1{display:inline;}
</style> 

		<path d="M28.7,96.5h-6.6 M30.7,21H6.1v-6.5h24.6h6.7h26.6h6.7h24.4V21H70.8h-6.7H37.4"/>


		<line x1="7.1" y1="25.9" x2="20.9" y2="25.9"/>

		<rect x="7.1" y="25.2" width="9.3" height="1.5"/>

		<path d="M20.9,25.9c-2.1,0.8-4.8,2.1-6.4,3.6l1.3-3.6l-1.3-3.6C16.1,23.8,18.8,25.1,20.9,25.9z"/>


		<path d="M5,28.4L5,28.4l-0.7,0.4l-0.1-0.4L5,27.9h0.4v3.9H5V28.4z"/>

</svg>