<?xml version="1.0" encoding="utf-8"?>
<!-- Generator: Adobe Illustrator 26.2.1, SVG Export Plug-In . SVG Version: 6.00 Build 0)  -->
<svg version="1.1" xmlns="http://www.w3.org/2000/svg" xmlns:xlink="http://www.w3.org/1999/xlink" x="0px" y="0px"
	 viewBox="0 0 100 100" style="enable-background:new 0 0 100 100;" xml:space="preserve" width = "100px" height = "100px">
<style type="text/css">
	.st0{display:none;}
	.st1{display:inline;}
</style> 

		<path d="M27.7,48.2 M30.7,30.1V21H6.1v-6.5h24.6v-11L39.3,4c-0.1,0.7-0.6,1.2-1.9,1.4v9.1h26.6v-11L72.8,4c-0.1,0.8-0.7,1.2-2,1.4
			v9.1h24.4V21H70.8v9.8h-6.7V21H37.4v9.2h-6.3"/>


		<line x1="75.9" y1="4.1" x2="75.9" y2="13.5"/>
		
			<rect x="75.2" y="4.1" width="1.5" height="4.9"/>
			
				<path d="M75.9,13.5c-0.8-2.1-2.1-4.8-3.6-6.4l3.6,1.3l3.6-1.3C78.1,8.7,76.7,11.4,75.9,13.5z"/>

		<path d="M80.2,5.6c0.2,0.1,0.5,0.2,0.9,0.2C81.8,5.8,82,5.4,82,5c0-0.5-0.5-0.8-1-0.8h-0.3V3.9H81c0.4,0,0.9-0.2,0.9-0.7
			c0-0.3-0.2-0.6-0.7-0.6c-0.3,0-0.6,0.1-0.8,0.3l-0.1-0.4c0.2-0.1,0.6-0.3,1-0.3c0.8,0,1.1,0.5,1.1,0.9c0,0.4-0.2,0.7-0.7,0.9v0
			c0.5,0.1,0.9,0.5,0.9,1c0,0.6-0.5,1.2-1.4,1.2c-0.4,0-0.8-0.1-1-0.3L80.2,5.6z"/>


</svg>