<?xml version="1.0" encoding="utf-8"?>
<!-- Generator: Adobe Illustrator 26.2.1, SVG Export Plug-In . SVG Version: 6.00 Build 0)  -->
<svg version="1.1" xmlns="http://www.w3.org/2000/svg" xmlns:xlink="http://www.w3.org/1999/xlink" x="0px" y="0px"
	 viewBox="0 0 100 100" style="enable-background:new 0 0 100 100;" xml:space="preserve" width = "100px" height = "100px">
<style type="text/css">
	.st0{display:none;}
	.st1{display:inline;}
</style>
		<path d="M30.6,30.1V21H6v-6.5h24.6v-11L39.2,4c-0.1,0.7-0.6,1.2-1.9,1.4v9.1h26.6h6.7H95V21H70.6h-6.7H37.3v9.2H31"/>
		<line x1="41.9" y1="5.1" x2="41.9" y2="12.7"/>

			<rect x="41.2" y="5.1" width="1.5" height="3"/>
		
				<path d="M41.9,12.7c-0.8-2.1-2.1-4.8-3.6-6.4l3.6,1.3l3.6-1.3C44.1,7.9,42.7,10.5,41.9,12.7z"/>

		<path d="M47.3,7.8V7.5l0.4-0.4c1-0.9,1.4-1.5,1.5-2c0-0.4-0.2-0.8-0.8-0.8c-0.4,0-0.6,0.2-0.8,0.3l-0.2-0.4
			c0.3-0.2,0.7-0.4,1.1-0.4c0.8,0,1.2,0.6,1.2,1.1c0,0.7-0.5,1.3-1.3,2.1l-0.3,0.3v0h1.8v0.4H47.3z"/>
 </svg>