<?xml version="1.0" encoding="utf-8"?>
<!-- Generator: Adobe Illustrator 26.2.1, SVG Export Plug-In . SVG Version: 6.00 Build 0)  -->
<svg version="1.1" xmlns="http://www.w3.org/2000/svg" xmlns:xlink="http://www.w3.org/1999/xlink" x="0px" y="0px"
	 viewBox="0 0 100 100" style="enable-background:new 0 0 100 100;" xml:space="preserve" width = "100px" height = "100px">
<style type="text/css">
	.st0{display:none;}
	.st1{display:inline;}
</style>



		<path d="M37.4,30.2h-6.3l7.1,2.5c-0.2,0.7-1,1-2.2,1c-2.4,4.9-5.2,9.8-8.3,14.4l3,0.8c-0.2,0.6-0.8,1.1-2,1.2v46.3h-6.6V56.2
			C17.7,61.8,13,66.9,8.2,71c-1.2-1.2-3.5-3.4-5-4.5c10.3-8.3,20.8-22.3,27-36.5l0.5,0.2V21H6.1v-6.5h24.6v-11L39.3,4
			c-0.1,0.7-0.6,1.2-1.9,1.4v9.1h26.6v-11L72.8,4c-0.1,0.8-0.7,1.2-2,1.4v9.1h24.4V21H70.8v9.8h-6.7V21H37.4V30.2z M58.5,57.4
			c10.6-4.8,21.7-10.7,28.4-15.9l5.7,5.6c-0.2,0.3-0.6,0.4-1.1,0.4c-0.2,0-0.5,0-0.8-0.1c-7.8,5.3-20.5,11.3-32.2,16.1"/>


		<path d="M84.9,56.6l-0.8-1.3c2.5-1.6,4.8-3.4,7-5.4l1,1.1C89.9,53.1,87.4,54.9,84.9,56.6z"/>

			<path d="M80.5,58.2c1.4-1.8,3-4.3,3.7-6.3l0.7,3.7l2.9,2.4C85.7,57.6,82.8,57.8,80.5,58.2z"/>


		<path d="M96,48.8c-0.1,0-0.2,0-0.4,0c-0.8,0.1-1.3,0.7-1.4,1.4h0c0.2-0.2,0.5-0.4,0.9-0.4c0.7,0,1.2,0.5,1.2,1.3
			c0,0.7-0.5,1.4-1.3,1.4c-0.8,0-1.4-0.6-1.4-1.7c0-0.8,0.3-1.4,0.7-1.8c0.3-0.3,0.8-0.5,1.2-0.6c0.2,0,0.3,0,0.4,0V48.8z M95.9,51
			c0-0.6-0.3-0.9-0.8-0.9c-0.3,0-0.6,0.2-0.8,0.5c0,0.1-0.1,0.1-0.1,0.2c0,0.6,0.3,1.1,0.9,1.1C95.6,52,95.9,51.6,95.9,51z"/>



 </svg>