<?xml version="1.0" encoding="utf-8"?>
<!-- Generator: Adobe Illustrator 26.2.1, SVG Export Plug-In . SVG Version: 6.00 Build 0)  -->
<svg version="1.1" xmlns="http://www.w3.org/2000/svg" xmlns:xlink="http://www.w3.org/1999/xlink" x="0px" y="0px"
	 viewBox="0 0 100 100" style="enable-background:new 0 0 100 100;" xml:space="preserve" width = "100px" height = "100px">
<style type="text/css">
	.st0{display:none;}
	.st1{display:inline;}
</style> 


		<path d="M24.7,11.2H14.2v9.6h10.5V11.2z M24.7,51.5v-10c0,0,0.3-3.9,0-5.5v-9.7H14.2v33.4H8.4V5.4h37.3v5.8H30.5v9.6h13.1v5.5
			H30.5V36v5.5v10"/>


		<path d="M15.3,30.5c2.4,0,7.6,0,8.6,0"/>

			<path d="M15.3,31.2l0-1.5c1,0,2.6,0,4.1,0l0,1.5C17.8,31.2,16.3,31.2,15.3,31.2z"/>
	
				<path d="M23.8,30.5c-2.1,0.8-4.8,2.1-6.4,3.6l1.3-3.6l-1.3-3.6C19.1,28.3,21.7,29.7,23.8,30.5z"/>

		<path d="M16.7,38.3v-1.1h-1.8v-0.3l1.7-2.5h0.6v2.4h0.5v0.4h-0.5v1.1H16.7z M16.7,36.8v-1.3c0-0.2,0-0.4,0-0.6h0
			c-0.1,0.2-0.2,0.4-0.3,0.6l-1,1.3v0H16.7z"/>


</svg>