<?xml version="1.0" encoding="utf-8"?>
<!-- Generator: Adobe Illustrator 26.2.1, SVG Export Plug-In . SVG Version: 6.00 Build 0)  -->
<svg version="1.1" xmlns="http://www.w3.org/2000/svg" xmlns:xlink="http://www.w3.org/1999/xlink" x="0px" y="0px"
	 viewBox="0 0 100 100" style="enable-background:new 0 0 100 100;" xml:space="preserve" width = "100px" height = "100px">
<style type="text/css">
	.st0{display:none;}
	.st1{display:inline;}
</style> 

		<path d="M24.7,51.5V11.2H14.2v9.6v19.9v16.4v2.6H8.4V5.4h37.3v5.8H30.5v9.6c0,0.9,0,5.5,0,5.5V36v5.5v10"/>
	
		<path d="M35,12.1c0,2.8,0,2.3,0,12.9"/>

			<rect x="34.3" y="12.1" width="1.5" height="8.4"/>

				<path d="M35,25c-0.8-2.1-2.1-4.8-3.6-6.4l3.6,1.3l3.6-1.3C37.1,20.2,35.8,22.8,35,25z"/>

		<path d="M37.5,15.5c0.1,0.1,0.5,0.2,0.9,0.2c0.7,0,0.9-0.4,0.9-0.8c0-0.5-0.5-0.8-1-0.8h-0.3v-0.4h0.3c0.4,0,0.9-0.2,0.9-0.7
			c0-0.3-0.2-0.6-0.7-0.6c-0.3,0-0.6,0.1-0.8,0.3l-0.1-0.4c0.2-0.1,0.6-0.3,1-0.3c0.8,0,1.1,0.5,1.1,0.9c0,0.4-0.2,0.7-0.7,0.9v0
			c0.5,0.1,0.9,0.5,0.9,1c0,0.6-0.5,1.2-1.4,1.2c-0.4,0-0.8-0.1-1-0.3L37.5,15.5z"/>

</svg>