<?xml version="1.0" encoding="utf-8"?>
<!-- Generator: Adobe Illustrator 26.2.1, SVG Export Plug-In . SVG Version: 6.00 Build 0)  -->
<svg version="1.1" xmlns="http://www.w3.org/2000/svg" xmlns:xlink="http://www.w3.org/1999/xlink" x="0px" y="0px"
	 viewBox="0 0 100 100" style="enable-background:new 0 0 100 100;" xml:space="preserve" width = "100px" height = "100px">
<style type="text/css">
	.st0{display:none;}
	.st1{display:inline;}
</style> 

		<path d="M14.2,57.2v2.6H8.4V5.4h37.3v5.8H14.2v9.6 M14.2,26.3V36 M14.2,41.5v10"/>

		<line x1="15.3" y1="14.9" x2="28.4" y2="14.9"/>

			<line class="st2" x1="15.3" y1="14.9" x2="23.8" y2="14.9"/>
		
				<path d="M28.4,14.9c-2.1,0.8-4.8,2.1-6.4,3.6l1.3-3.6L22,11.3C23.6,12.7,26.2,14.1,28.4,14.9z"/>

		<path d="M16.2,21.5v-0.3l0.4-0.4c1-0.9,1.4-1.5,1.5-2c0-0.4-0.2-0.8-0.8-0.8c-0.4,0-0.6,0.2-0.8,0.3l-0.2-0.4
			c0.3-0.2,0.7-0.4,1.1-0.4c0.8,0,1.2,0.6,1.2,1.1c0,0.7-0.5,1.3-1.3,2.1L16.9,21v0h1.8v0.4H16.2z"/>


</svg>