<?xml version="1.0" encoding="utf-8"?>
<!-- Generator: Adobe Illustrator 26.2.1, SVG Export Plug-In . SVG Version: 6.00 Build 0)  -->
<svg version="1.1" xmlns="http://www.w3.org/2000/svg" xmlns:xlink="http://www.w3.org/1999/xlink" x="0px" y="0px"
	 viewBox="0 0 100 100" style="enable-background:new 0 0 100 100;" xml:space="preserve" width = "100px" height = "100px">
<style type="text/css">
	.st0{display:none;}
	.st1{display:inline;}
</style> 

		<path d="M14.2,5.4v5.8v9.6v5.5V36v5.5v10v5.6v2.6H8.4V5.4"/>

		<path d="M18.2,5.4c0,1.2,0,11.9,0,11.9"/>

			<rect x="17.4" y="5.4" width="1.5" height="7.4"/>
		
				<path d="M18.2,17.4c-0.8-2.1-2.1-4.8-3.6-6.4l3.6,1.3l3.6-1.3C20.3,12.6,19,15.2,18.2,17.4z"/>

		<path d="M22.5,6.5L22.5,6.5l-0.7,0.4l-0.1-0.4L22.5,6H23v3.9h-0.5V6.5z"/>

</svg>