<?xml version="1.0" encoding="utf-8"?>
<!-- Generator: Adobe Illustrator 26.2.1, SVG Export Plug-In . SVG Version: 6.00 Build 0)  -->
<svg version="1.1" xmlns="http://www.w3.org/2000/svg" xmlns:xlink="http://www.w3.org/1999/xlink" x="0px" y="0px"
	 viewBox="0 0 100 100" style="enable-background:new 0 0 100 100;" xml:space="preserve" width = "100px" height = "100px">
<style type="text/css">
	.st0{display:none;}
	.st1{display:inline;}
</style>

		<path d="M39.1,73.7h0.1c0.4-4.3,0.8-9.7,1.2-16.5H14.2v2.6H8.4V5.4h37.3v5.8H30.5v9.6h13.1v5.5H30.5V36h13.1v5.5H30.5v10h11.4
			l1.4-0.2l3.2,0.5l-0.1,2c-1.4,25.8-2.5,34.7-5.1,37.7c-1.9,2.2-3.9,2.7-8.4,2.7c-1.9,0-4.2-0.1-6.5-0.2c-0.2-1.7-0.7-4.1-1.6-5.6
			c3.8,0.3,7.2,0.4,8.6,0.4c2.9,0,4.4-0.4,5.8-14.6 M24.7,11.2H14.2v9.6h10.5V11.2z M24.7,36v-9.7H14.2V36H24.7z M14.2,41.5v10h10.5
			v-10H14.2z"/>

			<line x1="14.7" y1="61.5" x2="27.5" y2="61.5"/>
	
			<rect x="14.7" y="60.7" width="8.3" height="1.5"/>

				<path d="M27.5,61.5c-2.1,0.8-4.8,2.1-6.4,3.6l1.3-3.6l-1.3-3.6C22.7,59.3,25.4,60.7,27.5,61.5z"/>

		<path d="M17.5,64.4c-0.1,0-0.2,0-0.4,0c-0.8,0.1-1.3,0.7-1.4,1.4h0c0.2-0.2,0.5-0.4,0.9-0.4c0.7,0,1.2,0.5,1.2,1.3
			c0,0.7-0.5,1.4-1.3,1.4c-0.8,0-1.4-0.6-1.4-1.7c0-0.8,0.3-1.4,0.7-1.8c0.3-0.3,0.8-0.5,1.2-0.6c0.2,0,0.3,0,0.4,0V64.4z
			 M17.3,66.7c0-0.6-0.3-0.9-0.8-0.9c-0.3,0-0.6,0.2-0.8,0.5c0,0.1-0.1,0.1-0.1,0.2c0,0.6,0.3,1.1,0.9,1.1
			C17,67.6,17.3,67.2,17.3,66.7z"/>

 </svg>