<?xml version="1.0" encoding="utf-8"?>
<!-- Generator: Adobe Illustrator 26.2.1, SVG Export Plug-In . SVG Version: 6.00 Build 0)  -->
<svg version="1.1" xmlns="http://www.w3.org/2000/svg" xmlns:xlink="http://www.w3.org/1999/xlink" x="0px" y="0px"
	 viewBox="0 0 100 100" style="enable-background:new 0 0 100 100;" xml:space="preserve" width = "100px" height = "100px">
<style type="text/css">
	.st0{display:none;}
	.st1{display:inline;}
</style> 

		<path d="M24.7,11.2H14.2v9.6h10.5V11.2z M24.7,36v-9.7H14.2V36H24.7z M24.7,51.5v-10H14.2c0,2.3,0,18.2,0,18.2H8.4V5.4h37.3v5.8
			H30.5v9.6h13.1v5.5H30.5V36h13.1v5.5H30.5v10"/>

		<line x1="15" y1="45.5" x2="23.7" y2="45.5"/>
	
			<rect x="15" y="44.7" width="4.1" height="1.5"/>

				<path d="M23.7,45.5c-2.1,0.8-4.8,2.1-6.4,3.6l1.3-3.6l-1.3-3.6C18.9,43.3,21.5,44.7,23.7,45.5z"/>

		<path d="M16.8,49.6h-1.5l-0.2,1c0.1,0,0.2,0,0.3,0c0.3,0,0.6,0.1,0.8,0.2c0.3,0.2,0.6,0.5,0.6,1c0,0.8-0.6,1.3-1.5,1.3
			c-0.4,0-0.8-0.1-1-0.2l0.1-0.4c0.2,0.1,0.5,0.2,0.8,0.2c0.5,0,0.9-0.3,0.9-0.8c0-0.5-0.3-0.9-1.1-0.9c-0.2,0-0.4,0-0.5,0l0.3-1.9
			h1.9V49.6z"/>

</svg>