<?xml version="1.0" encoding="utf-8"?>
<!-- Generator: Adobe Illustrator 26.2.1, SVG Export Plug-In . SVG Version: 6.00 Build 0)  -->
<svg version="1.1" xmlns="http://www.w3.org/2000/svg" xmlns:xlink="http://www.w3.org/1999/xlink" x="0px" y="0px"
	 viewBox="0 0 100 100" style="enable-background:new 0 0 100 100;" xml:space="preserve" width = "100px" height = "100px">
<style type="text/css">
	.st0{display:none;}
	.st1{display:inline;}
</style>

		<path d="M12,64.1c-0.5,9.2-1.6,19.2-5.6,24.8l-3.9-2.3c3.6-5.3,4.8-14.4,5.2-23.3L12,64.1z M39.2,73.7c0.4-4.3,0.8-9.7,1.2-16.5
			H14.2v2.6H8.4V5.4h37.3v5.8H30.5v9.6h13.1v5.5H30.5V36h13.1v5.5H30.5v10h11.4l1.4-0.2l3.2,0.5l-0.1,2c-1.4,25.8-2.5,34.7-5.1,37.7
			c-1.9,2.2-3.9,2.7-8.4,2.7c-1.9,0-4.2-0.1-6.5-0.2c-0.2-1.7-0.7-4.1-1.6-5.6c3.8,0.3,7.2,0.4,8.6,0.4c2.9,0,4.4-0.4,5.8-14.6
			 M24.7,11.2H14.2v9.6h10.5V11.2z M24.7,36v-9.7H14.2V36H24.7z M14.2,41.5v10h10.5v-10H14.2z"/>

		<path d="M16.7,65.5c-0.3,2.1-0.7,4.3-1,6.4c-0.2,1.4-0.4,2.8-0.6,4.1"/>

			<path d="M16.6,71.7l-1.5-0.2c0.3-2.1,0.6-4.1,0.9-6.1l1.5,0.2C17.2,67.6,16.8,69.6,16.6,71.7z"/>

				<path d="M15.2,76.1c-0.5-2.2-1.5-5-2.6-6.8l3.4,1.8l3.7-0.8C18,71.6,16.3,74.1,15.2,76.1z"/>

		<path d="M21.8,64.6v0.3l-1.7,3.5h-0.5l1.7-3.4v0h-1.9v-0.4H21.8z"/>

 </svg>