<?xml version="1.0" encoding="utf-8"?>
<!-- Generator: Adobe Illustrator 26.2.1, SVG Export Plug-In . SVG Version: 6.00 Build 0)  -->
<svg version="1.1" xmlns="http://www.w3.org/2000/svg" xmlns:xlink="http://www.w3.org/1999/xlink" x="0px" y="0px"
	 viewBox="0 0 100 100" style="enable-background:new 0 0 100 100;" xml:space="preserve" width = "100px" height = "100px">
<style type="text/css">
	.st0{display:none;}
	.st1{display:inline;}
</style>

		<path d="M12,64.1c-0.5,9.2-1.6,19.2-5.6,24.8l-3.9-2.3c3.6-5.3,4.8-14.4,5.2-23.3L12,64.1z M39.2,73.7c0.4-4.3,0.8-9.7,1.2-16.5
			H14.2v2.6H8.4V5.4h37.3v5.8H30.5v9.6h13.1v5.5H30.5V36h13.1v5.5H30.5v10h11.4l1.4-0.2l3.2,0.5l-0.1,2c-1.4,25.8-2.5,34.7-5.1,37.7
			c-1.9,2.2-3.9,2.7-8.4,2.7c-1.9,0-4.2-0.1-6.5-0.2c-0.2-1.7-0.7-4.1-1.6-5.6c3.8,0.3,7.2,0.4,8.6,0.4c2.9,0,4.4-0.4,5.8-14.6
			 M24.7,11.2H14.2v9.6h10.5V11.2z M24.7,36v-9.7H14.2V36H24.7z M14.2,41.5v10h10.5v-10H14.2z M16.3,84c0.2-5.1-0.5-12.7-1.5-18.7
			l3.7-0.5c1.2,5.9,1.9,13.6,1.8,18.6L16.3,84z"/>

		<line x1="22.5" y1="64.8" x2="23.8" y2="74.4"/>

			<rect x="22.1" y="64.7" transform="matrix(0.991 -0.1335 0.1335 0.991 -8.7819 3.6492)" width="1.5" height="5.2"/>

				<path d="M23.8,74.4c-1.1-2-2.8-4.4-4.4-5.9l3.7,0.8l3.4-1.8C25.3,69.3,24.3,72.1,23.8,74.4z"/>

		<path d="M25,65.9c0-0.5,0.3-0.8,0.8-1l0,0c-0.4-0.2-0.6-0.5-0.6-0.9c0-0.6,0.5-1,1.2-1c0.8,0,1.1,0.5,1.1,1c0,0.3-0.2,0.7-0.6,0.9
			v0c0.5,0.2,0.8,0.5,0.8,1c0,0.7-0.6,1.1-1.3,1.1C25.5,66.9,25,66.5,25,65.9z M27.1,65.9c0-0.5-0.3-0.7-0.9-0.9
			c-0.5,0.1-0.7,0.4-0.7,0.8c0,0.4,0.3,0.7,0.8,0.7C26.8,66.6,27.1,66.3,27.1,65.9z M25.6,63.9c0,0.4,0.3,0.6,0.7,0.7
			c0.3-0.1,0.6-0.4,0.6-0.7c0-0.3-0.2-0.6-0.7-0.6C25.9,63.3,25.6,63.6,25.6,63.9z"/>

 </svg>