<?xml version="1.0" encoding="utf-8"?>
<!-- Generator: Adobe Illustrator 26.2.1, SVG Export Plug-In . SVG Version: 6.00 Build 0)  -->
<svg version="1.1" xmlns="http://www.w3.org/2000/svg" xmlns:xlink="http://www.w3.org/1999/xlink" x="0px" y="0px"
	 viewBox="0 0 100 100" style="enable-background:new 0 0 100 100;" xml:space="preserve" width = "100px" height = "100px">
<style type="text/css">
	.st0{display:none;}
	.st1{display:inline;}
</style>

		<path d="M12,64.1c-0.5,9.2-1.6,19.2-5.6,24.8l-3.9-2.3c3.6-5.3,4.8-14.4,5.2-23.3L12,64.1z M43.3,51.4l3.2,0.5l-0.1,2
			c-1.4,25.8-2.5,34.7-5.1,37.7c-1.9,2.2-3.9,2.7-8.4,2.7c-1.9,0-4.2-0.1-6.5-0.2c-0.2-1.7-0.7-4.1-1.6-5.6c3.8,0.3,7.2,0.4,8.6,0.4
			c2.9,0,4.4-0.4,5.8-14.6l-3.4,1.5c-1-3.7-3.6-9.3-6.1-13.4l3.4-1.3c2.5,3.9,4.8,9.1,6,12.6h0.1c0.4-4.3,0.8-9.7,1.2-16.5H14.2v2.6
			H8.4V5.4h37.3v5.8H30.5v9.6h13.1v5.5H30.5V36h13.1v5.5H30.5v10h11.4L43.3,51.4z M24.7,11.2H14.2v9.6h10.5V11.2z M24.7,36v-9.7
			H14.2V36H24.7z M14.2,41.5v10h10.5v-10H14.2z M16.3,84c0.2-5.1-0.5-12.7-1.5-18.7l3.7-0.5c1.2,5.9,1.9,13.6,1.8,18.6L16.3,84z
			 M25.9,63.4c2.2,5.1,4,11.8,4.5,16.2l-3.8,1c-0.4-4.4-2.2-11.2-4.2-16.4L25.9,63.4z M93,46.3H76.4c3.1,19.3,9.3,35.2,21.1,42.7
			c-1.5,1.2-3.6,3.7-4.6,5.5c-12.8-9.2-19.3-26.4-22.5-48.2H60.2C60,61.6,58.3,81.2,48.7,94.3c-1.1-1.1-3.9-2.8-5.4-3.5
			C52.9,77.6,53.9,58.7,53.9,44V5.4H93V46.3z M86.8,11.7H60.2V40h26.6V11.7z"/>

		<path d="M67.2,57.7l-0.1-0.5c-0.4-1.8-0.7-3.7-1-5.5l1.5-0.2c0.3,1.8,0.6,3.6,1,5.4l0.1,0.5L67.2,57.7z"/>
	
			<path d="M69,61.9c-1.3-1.9-3.2-4.2-4.9-5.4l3.8,0.4l3.2-2.1C70,56.8,69.3,59.7,69,61.9z"/>
	
		<path d="M63.2,47.5L63.2,47.5l-0.7,0.4l-0.1-0.4l0.9-0.5h0.4v3.9h-0.5V47.5z"/>
		<path d="M66.8,50.9v-1.1h-1.8v-0.3l1.7-2.5h0.6v2.4h0.5v0.4h-0.5v1.1H66.8z M66.8,49.4v-1.3c0-0.2,0-0.4,0-0.6h0
			c-0.1,0.2-0.2,0.4-0.3,0.6l-1,1.3v0H66.8z"/>

 </svg>