<?xml version="1.0" encoding="utf-8"?>
<!-- Generator: Adobe Illustrator 26.2.1, SVG Export Plug-In . SVG Version: 6.00 Build 0)  -->
<svg version="1.1" xmlns="http://www.w3.org/2000/svg" xmlns:xlink="http://www.w3.org/1999/xlink" x="0px" y="0px"
	 viewBox="0 0 100 100" style="enable-background:new 0 0 100 100;" xml:space="preserve">
<style type="text/css">
	.st0{display:none;}
	.st1{display:inline;}
	.st2{fill:none;stroke:#000000;stroke-width:1.5;stroke-miterlimit:10;}
</style>
<g id="Stroke13">
	<g>
		<path d="M12,64.1c-0.5,9.2-1.6,19.2-5.6,24.8l-3.9-2.3c3.6-5.3,4.8-14.4,5.2-23.3L12,64.1z M43.3,51.4l3.2,0.5l-0.1,2
			c-1.4,25.8-2.5,34.7-5.1,37.7c-1.9,2.2-3.9,2.7-8.4,2.7c-1.9,0-4.2-0.1-6.5-0.2c-0.2-1.7-0.7-4.1-1.6-5.6c3.8,0.3,7.2,0.4,8.6,0.4
			c2.9,0,4.4-0.4,5.8-14.6l-3.4,1.5c-1-3.7-3.6-9.3-6.1-13.4l3.4-1.3c2.5,3.9,4.8,9.1,6,12.6h0.1c0.4-4.3,0.8-9.7,1.2-16.5H14.2v2.6
			H8.4V5.4h37.3v5.8H30.5v9.6h13.1v5.5H30.5V36h13.1v5.5H30.5v10h11.4L43.3,51.4z M24.7,11.2H14.2v9.6h10.5V11.2z M24.7,36v-9.7
			H14.2V36H24.7z M14.2,41.5v10h10.5v-10H14.2z M16.3,84c0.2-5.1-0.5-12.7-1.5-18.7l3.7-0.5c1.2,5.9,1.9,13.6,1.8,18.6L16.3,84z
			 M25.9,63.4c2.2,5.1,4,11.8,4.5,16.2l-3.8,1c-0.4-4.4-2.2-11.2-4.2-16.4L25.9,63.4z M93,46.3H76.4c3.1,19.3,9.3,35.2,21.1,42.7
			c-1.5,1.2-3.6,3.7-4.6,5.5c-12.8-9.2-19.3-26.4-22.5-48.2H60.2C60,61.6,58.3,81.2,48.7,94.3c-1.1-1.1-3.9-2.8-5.4-3.5
			C52.9,77.6,53.9,58.7,53.9,44V5.4H93V46.3z M86.8,11.7H60.2V40h26.6V11.7z"/>
	</g>
	<g>
		<path d="M67.2,57.7l-0.1-0.5c-0.4-1.8-0.7-3.7-1-5.5l1.5-0.2c0.3,1.8,0.6,3.6,1,5.4l0.1,0.5L67.2,57.7z"/>
		<g>
			<path d="M69,61.9c-1.3-1.9-3.2-4.2-4.9-5.4l3.8,0.4l3.2-2.1C70,56.8,69.3,59.7,69,61.9z"/>
		</g>
	</g>
	<g>
		<path d="M63.2,47.5L63.2,47.5l-0.7,0.4l-0.1-0.4l0.9-0.5h0.4v3.9h-0.5V47.5z"/>
		<path d="M66.8,50.9v-1.1h-1.8v-0.3l1.7-2.5h0.6v2.4h0.5v0.4h-0.5v1.1H66.8z M66.8,49.4v-1.3c0-0.2,0-0.4,0-0.6h0
			c-0.1,0.2-0.2,0.4-0.3,0.6l-1,1.3v0H66.8z"/>
	</g>
</g>
<g id="Stroke12" class="st0">
	<g class="st1">
		<path d="M12,64.1c-0.5,9.2-1.6,19.2-5.6,24.8l-3.9-2.3c3.6-5.3,4.8-14.4,5.2-23.3L12,64.1z M43.3,51.4l3.2,0.5l-0.1,2
			c-1.4,25.8-2.5,34.7-5.1,37.7c-1.9,2.2-3.9,2.7-8.4,2.7c-1.9,0-4.2-0.1-6.5-0.2c-0.2-1.7-0.7-4.1-1.6-5.6c3.8,0.3,7.2,0.4,8.6,0.4
			c2.9,0,4.4-0.4,5.8-14.6l-3.4,1.5c-1-3.7-3.6-9.3-6.1-13.4l3.4-1.3c2.5,3.9,4.8,9.1,6,12.6h0.1c0.4-4.3,0.8-9.7,1.2-16.5H14.2v2.6
			H8.4V5.4h37.3v5.8H30.5v9.6h13.1v5.5H30.5V36h13.1v5.5H30.5v10h11.4L43.3,51.4z M24.7,11.2H14.2v9.6h10.5V11.2z M24.7,36v-9.7
			H14.2V36H24.7z M14.2,41.5v10h10.5v-10H14.2z M16.3,84c0.2-5.1-0.5-12.7-1.5-18.7l3.7-0.5c1.2,5.9,1.9,13.6,1.8,18.6L16.3,84z
			 M25.9,63.4c2.2,5.1,4,11.8,4.5,16.2l-3.8,1c-0.4-4.4-2.2-11.2-4.2-16.4L25.9,63.4z M70.4,46.3H60.2C60,61.6,58.3,81.2,48.7,94.3
			c-1.1-1.1-3.9-2.8-5.4-3.5C52.9,77.6,53.9,58.7,53.9,44V5.4H93v40.9H76.4 M86.8,11.7H60.2V40h26.6V11.7z"/>
	</g>
	<g class="st1">
		<line x1="50" y1="6.9" x2="50" y2="20.8"/>
		<g>
			<rect x="49.2" y="6.9" width="1.5" height="9.4"/>
			<g>
				<path d="M50,20.8c-0.8-2.1-2.1-4.8-3.6-6.4l3.6,1.3l3.6-1.3C52.1,16.1,50.8,18.7,50,20.8z"/>
			</g>
		</g>
	</g>
	<g class="st1">
		<path d="M48.4,2L48.4,2l-0.7,0.4L47.6,2l0.9-0.5h0.4v3.9h-0.5V2z"/>
		<path d="M50.5,4.8c0.1,0.1,0.5,0.2,0.9,0.2c0.7,0,0.9-0.4,0.9-0.8c0-0.5-0.5-0.8-1-0.8h-0.3V3.2h0.3c0.4,0,0.9-0.2,0.9-0.7
			c0-0.3-0.2-0.6-0.7-0.6c-0.3,0-0.6,0.1-0.8,0.3l-0.1-0.4c0.2-0.1,0.6-0.3,1-0.3c0.8,0,1.1,0.5,1.1,0.9c0,0.4-0.2,0.7-0.7,0.9v0
			c0.5,0.1,0.9,0.5,0.9,1c0,0.6-0.5,1.2-1.4,1.2c-0.4,0-0.8-0.1-1-0.3L50.5,4.8z"/>
	</g>
</g>
<g id="Stroke11" class="st0">
	<g class="st1">
		<path d="M12,64.1c-0.5,9.2-1.6,19.2-5.6,24.8l-3.9-2.3c3.6-5.3,4.8-14.4,5.2-23.3L12,64.1z M43.3,51.4l3.2,0.5l-0.1,2
			c-1.4,25.8-2.5,34.7-5.1,37.7c-1.9,2.2-3.9,2.7-8.4,2.7c-1.9,0-4.2-0.1-6.5-0.2c-0.2-1.7-0.7-4.1-1.6-5.6c3.8,0.3,7.2,0.4,8.6,0.4
			c2.9,0,4.4-0.4,5.8-14.6l-3.4,1.5c-1-3.7-3.6-9.3-6.1-13.4l3.4-1.3c2.5,3.9,4.8,9.1,6,12.6h0.1c0.4-4.3,0.8-9.7,1.2-16.5H14.2v2.6
			H8.4V5.4h37.3v5.8H30.5v9.6h13.1v5.5H30.5V36h13.1v5.5H30.5v10h11.4L43.3,51.4z M24.7,11.2H14.2v9.6h10.5V11.2z M24.7,36v-9.7
			H14.2V36H24.7z M14.2,41.5v10h10.5v-10H14.2z M16.3,84c0.2-5.1-0.5-12.7-1.5-18.7l3.7-0.5c1.2,5.9,1.9,13.6,1.8,18.6L16.3,84z
			 M25.9,63.4c2.2,5.1,4,11.8,4.5,16.2l-3.8,1c-0.4-4.4-2.2-11.2-4.2-16.4L25.9,63.4z M70.4,46.3H60.2h-6.3v-6L86.8,40V11.7H60.2
			h-6.3V5.4H93v40.9H76.4"/>
	</g>
	<g class="st1">
		<path d="M53.9,50.9c0.6,0,10.5,0,10.5,0"/>
		<g>
			<rect x="53.9" y="50.2" width="6" height="1.5"/>
			<g>
				<path d="M64.3,50.9c-2.1,0.8-4.8,2.1-6.4,3.6l1.3-3.6l-1.3-3.6C59.6,48.8,62.2,50.1,64.3,50.9z"/>
			</g>
		</g>
	</g>
	<g class="st1">
		<path d="M52,54.3L52,54.3l-0.7,0.4l-0.1-0.4l0.9-0.5h0.4v3.9H52V54.3z"/>
		<path d="M54,57.7v-0.3l0.4-0.4c1-0.9,1.4-1.5,1.5-2c0-0.4-0.2-0.8-0.8-0.8c-0.4,0-0.6,0.2-0.8,0.3L54,54.2
			c0.3-0.2,0.7-0.4,1.1-0.4c0.8,0,1.2,0.6,1.2,1.1c0,0.7-0.5,1.3-1.3,2.1l-0.3,0.3v0h1.8v0.4H54z"/>
	</g>
</g>
<g id="Stroke10" class="st0">
	<g class="st1">
		<path d="M12,64.1c-0.5,9.2-1.6,19.2-5.6,24.8l-3.9-2.3c3.6-5.3,4.8-14.4,5.2-23.3L12,64.1z M43.3,51.4l3.2,0.5l-0.1,2
			c-1.4,25.8-2.5,34.7-5.1,37.7c-1.9,2.2-3.9,2.7-8.4,2.7c-1.9,0-4.2-0.1-6.5-0.2c-0.2-1.7-0.7-4.1-1.6-5.6c3.8,0.3,7.2,0.4,8.6,0.4
			c2.9,0,4.4-0.4,5.8-14.6l-3.4,1.5c-1-3.7-3.6-9.3-6.1-13.4l3.4-1.3c2.5,3.9,4.8,9.1,6,12.6h0.1c0.4-4.3,0.8-9.7,1.2-16.5H14.2v2.6
			H8.4V5.4h37.3v5.8H30.5v9.6h13.1v5.5H30.5V36h13.1v5.5H30.5v10h11.4L43.3,51.4z M24.7,11.2H14.2v9.6h10.5V11.2z M24.7,36v-9.7
			H14.2V36H24.7z M14.2,41.5v10h10.5v-10H14.2z M16.3,84c0.2-5.1-0.5-12.7-1.5-18.7l3.7-0.5c1.2,5.9,1.9,13.6,1.8,18.6L16.3,84z
			 M25.9,63.4c2.2,5.1,4,11.8,4.5,16.2l-3.8,1c-0.4-4.4-2.2-11.2-4.2-16.4L25.9,63.4z M86.7,46.3l0.1-34.6H60.2h-6.3V5.4H93v40.9"/>
	</g>
	<g class="st1">
		<path d="M53.9,16c1.1,0,4.9,0,10.4,0"/>
		<g>
			<path d="M55.6,16.8c-0.9,0-1.5,0-1.8,0l0.1-1.5c0.6,0,2.2,0,4.3,0l1.5,0l0,1.5l-1.5,0C57.2,16.8,56.3,16.8,55.6,16.8z"/>
			<g>
				<path d="M64.2,16c-2.1,0.8-4.8,2.1-6.4,3.6l1.3-3.6l-1.3-3.6C59.5,13.9,62.1,15.3,64.2,16z"/>
			</g>
		</g>
	</g>
	<g class="st1">
		<path d="M52,19.1L52,19.1l-0.7,0.4l-0.1-0.4l0.9-0.5h0.4v3.9H52V19.1z"/>
		<path d="M55.1,19.1L55.1,19.1l-0.7,0.4l-0.1-0.4l0.9-0.5h0.4v3.9h-0.5V19.1z"/>
	</g>
</g>
<g id="Stroke9" class="st0">
	<g class="st1">
		<path d="M12,64.1c-0.5,9.2-1.6,19.2-5.6,24.8l-3.9-2.3c3.6-5.3,4.8-14.4,5.2-23.3L12,64.1z M43.3,51.4l3.2,0.5l-0.1,2
			c-1.4,25.8-2.5,34.7-5.1,37.7c-1.9,2.2-3.9,2.7-8.4,2.7c-1.9,0-4.2-0.1-6.5-0.2c-0.2-1.7-0.7-4.1-1.6-5.6c3.8,0.3,7.2,0.4,8.6,0.4
			c2.9,0,4.4-0.4,5.8-14.6l-3.4,1.5c-1-3.7-3.6-9.3-6.1-13.4l3.4-1.3c2.5,3.9,4.8,9.1,6,12.6h0.1c0.4-4.3,0.8-9.7,1.2-16.5H14.2v2.6
			H8.4V5.4h37.3v5.8H30.5v9.6h13.1v5.5H30.5V36h13.1v5.5H30.5v10h11.4L43.3,51.4z M24.7,11.2H14.2v9.6h10.5V11.2z M24.7,36v-9.7
			H14.2V36H24.7z M14.2,41.5v10h10.5v-10H14.2z M16.3,84c0.2-5.1-0.5-12.7-1.5-18.7l3.7-0.5c1.2,5.9,1.9,13.6,1.8,18.6L16.3,84z
			 M25.9,63.4c2.2,5.1,4,11.8,4.5,16.2l-3.8,1c-0.4-4.4-2.2-11.2-4.2-16.4L25.9,63.4z"/>
	</g>
	<g class="st1">
		<path d="M25.9,58.7L25.9,58.7L25.2,59l-0.1-0.4l0.9-0.5h0.5v3.9h-0.5V58.7z"/>
		<path d="M30.4,60.1c0,1.3-0.5,2.1-1.4,2.1c-0.8,0-1.3-0.7-1.3-2c0-1.3,0.6-2,1.4-2C29.9,58.1,30.4,58.9,30.4,60.1z M28.3,60.2
			c0,1,0.3,1.6,0.8,1.6c0.5,0,0.8-0.6,0.8-1.6c0-1-0.2-1.6-0.8-1.6C28.6,58.5,28.3,59.1,28.3,60.2z"/>
	</g>
	<g class="st1">
		<path d="M27.8,63.4c0,0,3.1,6.1,3.6,6.9"/>
		<g>
			<path d="M29.4,68.2c-1-2-2.3-4.5-2.3-4.5l1.3-0.7c0,0,1.3,2.5,2.3,4.5L29.4,68.2z"/>
			<g>
				<path d="M31.4,70.2c-1-0.9-2.5-1.9-3.7-2.4l2.3-0.3l1.5-1.7C31.2,67.1,31.2,68.9,31.4,70.2z"/>
			</g>
		</g>
	</g>
</g>
<g id="Stroke8" class="st0">
	<g class="st1">
		<path d="M12,64.1c-0.5,9.2-1.6,19.2-5.6,24.8l-3.9-2.3c3.6-5.3,4.8-14.4,5.2-23.3L12,64.1z M39.2,73.7c0.4-4.3,0.8-9.7,1.2-16.5
			H14.2v2.6H8.4V5.4h37.3v5.8H30.5v9.6h13.1v5.5H30.5V36h13.1v5.5H30.5v10h11.4l1.4-0.2l3.2,0.5l-0.1,2c-1.4,25.8-2.5,34.7-5.1,37.7
			c-1.9,2.2-3.9,2.7-8.4,2.7c-1.9,0-4.2-0.1-6.5-0.2c-0.2-1.7-0.7-4.1-1.6-5.6c3.8,0.3,7.2,0.4,8.6,0.4c2.9,0,4.4-0.4,5.8-14.6
			 M24.7,11.2H14.2v9.6h10.5V11.2z M24.7,36v-9.7H14.2V36H24.7z M14.2,41.5v10h10.5v-10H14.2z M16.3,84c0.2-5.1-0.5-12.7-1.5-18.7
			l3.7-0.5c1.2,5.9,1.9,13.6,1.8,18.6L16.3,84z M25.9,63.4c2.2,5.1,4,11.8,4.5,16.2l-3.8,1c-0.4-4.4-2.2-11.2-4.2-16.4L25.9,63.4z"
			/>
	</g>
	<g class="st1">
		<line x1="30.4" y1="63.4" x2="33.4" y2="73.1"/>
		<g>
			<rect x="30.5" y="63.2" transform="matrix(0.9566 -0.2913 0.2913 0.9566 -17.8919 11.9765)" width="1.5" height="5.7"/>
			<g>
				<path d="M33.4,73.1c-1.4-1.8-3.4-3.9-5.3-5.1l3.8,0.2l3-2.3C34.1,68,33.6,70.9,33.4,73.1z"/>
			</g>
		</g>
	</g>
	<g class="st1">
		<path d="M33.2,64.7c0.1,0,0.2,0,0.4,0c0.3,0,0.6-0.2,0.8-0.4c0.3-0.2,0.4-0.6,0.5-1h0c-0.2,0.3-0.5,0.4-0.9,0.4
			c-0.7,0-1.2-0.5-1.2-1.2c0-0.7,0.5-1.4,1.3-1.4s1.3,0.6,1.3,1.6c0,0.9-0.3,1.5-0.7,1.8c-0.3,0.3-0.7,0.5-1.1,0.5
			c-0.2,0-0.4,0-0.5,0V64.7z M33.4,62.5c0,0.5,0.3,0.8,0.7,0.8c0.4,0,0.6-0.2,0.8-0.4c0,0,0-0.1,0-0.2c0-0.7-0.2-1.2-0.8-1.2
			C33.7,61.6,33.4,62,33.4,62.5z"/>
	</g>
</g>
<g id="Stroke7" class="st0">
	<g class="st1">
		<path d="M12,64.1c-0.5,9.2-1.6,19.2-5.6,24.8l-3.9-2.3c3.6-5.3,4.8-14.4,5.2-23.3L12,64.1z M39.2,73.7c0.4-4.3,0.8-9.7,1.2-16.5
			H14.2v2.6H8.4V5.4h37.3v5.8H30.5v9.6h13.1v5.5H30.5V36h13.1v5.5H30.5v10h11.4l1.4-0.2l3.2,0.5l-0.1,2c-1.4,25.8-2.5,34.7-5.1,37.7
			c-1.9,2.2-3.9,2.7-8.4,2.7c-1.9,0-4.2-0.1-6.5-0.2c-0.2-1.7-0.7-4.1-1.6-5.6c3.8,0.3,7.2,0.4,8.6,0.4c2.9,0,4.4-0.4,5.8-14.6
			 M24.7,11.2H14.2v9.6h10.5V11.2z M24.7,36v-9.7H14.2V36H24.7z M14.2,41.5v10h10.5v-10H14.2z M16.3,84c0.2-5.1-0.5-12.7-1.5-18.7
			l3.7-0.5c1.2,5.9,1.9,13.6,1.8,18.6L16.3,84z"/>
	</g>
	<g class="st1">
		<line x1="22.5" y1="64.8" x2="23.8" y2="74.4"/>
		<g>
			<rect x="22.1" y="64.7" transform="matrix(0.991 -0.1335 0.1335 0.991 -8.7819 3.6492)" width="1.5" height="5.2"/>
			<g>
				<path d="M23.8,74.4c-1.1-2-2.8-4.4-4.4-5.9l3.7,0.8l3.4-1.8C25.3,69.3,24.3,72.1,23.8,74.4z"/>
			</g>
		</g>
	</g>
	<g class="st1">
		<path d="M25,65.9c0-0.5,0.3-0.8,0.8-1l0,0c-0.4-0.2-0.6-0.5-0.6-0.9c0-0.6,0.5-1,1.2-1c0.8,0,1.1,0.5,1.1,1c0,0.3-0.2,0.7-0.6,0.9
			v0c0.5,0.2,0.8,0.5,0.8,1c0,0.7-0.6,1.1-1.3,1.1C25.5,66.9,25,66.5,25,65.9z M27.1,65.9c0-0.5-0.3-0.7-0.9-0.9
			c-0.5,0.1-0.7,0.4-0.7,0.8c0,0.4,0.3,0.7,0.8,0.7C26.8,66.6,27.1,66.3,27.1,65.9z M25.6,63.9c0,0.4,0.3,0.6,0.7,0.7
			c0.3-0.1,0.6-0.4,0.6-0.7c0-0.3-0.2-0.6-0.7-0.6C25.9,63.3,25.6,63.6,25.6,63.9z"/>
	</g>
</g>
<g id="Stroke6" class="st0">
	<g class="st1">
		<path d="M12,64.1c-0.5,9.2-1.6,19.2-5.6,24.8l-3.9-2.3c3.6-5.3,4.8-14.4,5.2-23.3L12,64.1z M39.2,73.7c0.4-4.3,0.8-9.7,1.2-16.5
			H14.2v2.6H8.4V5.4h37.3v5.8H30.5v9.6h13.1v5.5H30.5V36h13.1v5.5H30.5v10h11.4l1.4-0.2l3.2,0.5l-0.1,2c-1.4,25.8-2.5,34.7-5.1,37.7
			c-1.9,2.2-3.9,2.7-8.4,2.7c-1.9,0-4.2-0.1-6.5-0.2c-0.2-1.7-0.7-4.1-1.6-5.6c3.8,0.3,7.2,0.4,8.6,0.4c2.9,0,4.4-0.4,5.8-14.6
			 M24.7,11.2H14.2v9.6h10.5V11.2z M24.7,36v-9.7H14.2V36H24.7z M14.2,41.5v10h10.5v-10H14.2z"/>
	</g>
	<g class="st1">
		<path d="M16.7,65.5c-0.3,2.1-0.7,4.3-1,6.4c-0.2,1.4-0.4,2.8-0.6,4.1"/>
		<g>
			<path d="M16.6,71.7l-1.5-0.2c0.3-2.1,0.6-4.1,0.9-6.1l1.5,0.2C17.2,67.6,16.8,69.6,16.6,71.7z"/>
			<g>
				<path d="M15.2,76.1c-0.5-2.2-1.5-5-2.6-6.8l3.4,1.8l3.7-0.8C18,71.6,16.3,74.1,15.2,76.1z"/>
			</g>
		</g>
	</g>
	<g class="st1">
		<path d="M21.8,64.6v0.3l-1.7,3.5h-0.5l1.7-3.4v0h-1.9v-0.4H21.8z"/>
	</g>
</g>
<g id="Stroke5" class="st0">
	<g class="st1">
		<path d="M39.1,73.7h0.1c0.4-4.3,0.8-9.7,1.2-16.5H14.2v2.6H8.4V5.4h37.3v5.8H30.5v9.6h13.1v5.5H30.5V36h13.1v5.5H30.5v10h11.4
			l1.4-0.2l3.2,0.5l-0.1,2c-1.4,25.8-2.5,34.7-5.1,37.7c-1.9,2.2-3.9,2.7-8.4,2.7c-1.9,0-4.2-0.1-6.5-0.2c-0.2-1.7-0.7-4.1-1.6-5.6
			c3.8,0.3,7.2,0.4,8.6,0.4c2.9,0,4.4-0.4,5.8-14.6 M24.7,11.2H14.2v9.6h10.5V11.2z M24.7,36v-9.7H14.2V36H24.7z M14.2,41.5v10h10.5
			v-10H14.2z"/>
	</g>
	<g class="st1">
		<line x1="14.7" y1="61.5" x2="27.5" y2="61.5"/>
		<g>
			<rect x="14.7" y="60.7" width="8.3" height="1.5"/>
			<g>
				<path d="M27.5,61.5c-2.1,0.8-4.8,2.1-6.4,3.6l1.3-3.6l-1.3-3.6C22.7,59.3,25.4,60.7,27.5,61.5z"/>
			</g>
		</g>
	</g>
	<g class="st1">
		<path d="M17.5,64.4c-0.1,0-0.2,0-0.4,0c-0.8,0.1-1.3,0.7-1.4,1.4h0c0.2-0.2,0.5-0.4,0.9-0.4c0.7,0,1.2,0.5,1.2,1.3
			c0,0.7-0.5,1.4-1.3,1.4c-0.8,0-1.4-0.6-1.4-1.7c0-0.8,0.3-1.4,0.7-1.8c0.3-0.3,0.8-0.5,1.2-0.6c0.2,0,0.3,0,0.4,0V64.4z
			 M17.3,66.7c0-0.6-0.3-0.9-0.8-0.9c-0.3,0-0.6,0.2-0.8,0.5c0,0.1-0.1,0.1-0.1,0.2c0,0.6,0.3,1.1,0.9,1.1
			C17,67.6,17.3,67.2,17.3,66.7z"/>
	</g>
</g>
<g id="Stroke4" class="st0">
	<g class="st1">
		<path d="M24.7,11.2H14.2v9.6h10.5V11.2z M24.7,36v-9.7H14.2V36H24.7z M24.7,51.5v-10H14.2c0,2.3,0,18.2,0,18.2H8.4V5.4h37.3v5.8
			H30.5v9.6h13.1v5.5H30.5V36h13.1v5.5H30.5v10"/>
	</g>
	<g class="st1">
		<line x1="15" y1="45.5" x2="23.7" y2="45.5"/>
		<g>
			<rect x="15" y="44.7" width="4.1" height="1.5"/>
			<g>
				<path d="M23.7,45.5c-2.1,0.8-4.8,2.1-6.4,3.6l1.3-3.6l-1.3-3.6C18.9,43.3,21.5,44.7,23.7,45.5z"/>
			</g>
		</g>
	</g>
	<g class="st1">
		<path d="M16.8,49.6h-1.5l-0.2,1c0.1,0,0.2,0,0.3,0c0.3,0,0.6,0.1,0.8,0.2c0.3,0.2,0.6,0.5,0.6,1c0,0.8-0.6,1.3-1.5,1.3
			c-0.4,0-0.8-0.1-1-0.2l0.1-0.4c0.2,0.1,0.5,0.2,0.8,0.2c0.5,0,0.9-0.3,0.9-0.8c0-0.5-0.3-0.9-1.1-0.9c-0.2,0-0.4,0-0.5,0l0.3-1.9
			h1.9V49.6z"/>
	</g>
</g>
<g id="Stroke3" class="st0">
	<g class="st1">
		<path d="M24.7,11.2H14.2v9.6h10.5V11.2z M24.7,51.5v-10c0,0,0.3-3.9,0-5.5v-9.7H14.2v33.4H8.4V5.4h37.3v5.8H30.5v9.6h13.1v5.5
			H30.5V36v5.5v10"/>
	</g>
	<g class="st1">
		<path d="M15.3,30.5c2.4,0,7.6,0,8.6,0"/>
		<g>
			<path d="M15.3,31.2l0-1.5c1,0,2.6,0,4.1,0l0,1.5C17.8,31.2,16.3,31.2,15.3,31.2z"/>
			<g>
				<path d="M23.8,30.5c-2.1,0.8-4.8,2.1-6.4,3.6l1.3-3.6l-1.3-3.6C19.1,28.3,21.7,29.7,23.8,30.5z"/>
			</g>
		</g>
	</g>
	<g class="st1">
		<path d="M16.7,38.3v-1.1h-1.8v-0.3l1.7-2.5h0.6v2.4h0.5v0.4h-0.5v1.1H16.7z M16.7,36.8v-1.3c0-0.2,0-0.4,0-0.6h0
			c-0.1,0.2-0.2,0.4-0.3,0.6l-1,1.3v0H16.7z"/>
	</g>
</g>
<g id="Stroke2" class="st0">
	<g class="st1">
		<path d="M24.7,51.5V11.2H14.2v9.6v19.9v16.4v2.6H8.4V5.4h37.3v5.8H30.5v9.6c0,0.9,0,5.5,0,5.5V36v5.5v10"/>
	</g>
	<g class="st1">
		<path d="M35,12.1c0,2.8,0,2.3,0,12.9"/>
		<g>
			<rect x="34.3" y="12.1" width="1.5" height="8.4"/>
			<g>
				<path d="M35,25c-0.8-2.1-2.1-4.8-3.6-6.4l3.6,1.3l3.6-1.3C37.1,20.2,35.8,22.8,35,25z"/>
			</g>
		</g>
	</g>
	<g class="st1">
		<path d="M37.5,15.5c0.1,0.1,0.5,0.2,0.9,0.2c0.7,0,0.9-0.4,0.9-0.8c0-0.5-0.5-0.8-1-0.8h-0.3v-0.4h0.3c0.4,0,0.9-0.2,0.9-0.7
			c0-0.3-0.2-0.6-0.7-0.6c-0.3,0-0.6,0.1-0.8,0.3l-0.1-0.4c0.2-0.1,0.6-0.3,1-0.3c0.8,0,1.1,0.5,1.1,0.9c0,0.4-0.2,0.7-0.7,0.9v0
			c0.5,0.1,0.9,0.5,0.9,1c0,0.6-0.5,1.2-1.4,1.2c-0.4,0-0.8-0.1-1-0.3L37.5,15.5z"/>
	</g>
</g>
<g id="Stroke1" class="st0">
	<g class="st1">
		<path d="M14.2,57.2v2.6H8.4V5.4h37.3v5.8H14.2v9.6 M14.2,26.3V36 M14.2,41.5v10"/>
	</g>
	<g class="st1">
		<line x1="15.3" y1="14.9" x2="28.4" y2="14.9"/>
		<g>
			<line class="st2" x1="15.3" y1="14.9" x2="23.8" y2="14.9"/>
			<g>
				<path d="M28.4,14.9c-2.1,0.8-4.8,2.1-6.4,3.6l1.3-3.6L22,11.3C23.6,12.7,26.2,14.1,28.4,14.9z"/>
			</g>
		</g>
	</g>
	<g class="st1">
		<path d="M16.2,21.5v-0.3l0.4-0.4c1-0.9,1.4-1.5,1.5-2c0-0.4-0.2-0.8-0.8-0.8c-0.4,0-0.6,0.2-0.8,0.3l-0.2-0.4
			c0.3-0.2,0.7-0.4,1.1-0.4c0.8,0,1.2,0.6,1.2,1.1c0,0.7-0.5,1.3-1.3,2.1L16.9,21v0h1.8v0.4H16.2z"/>
	</g>
</g>
<g id="Stroke0" class="st0">
	<g class="st1">
		<path d="M14.2,5.4v5.8v9.6v5.5V36v5.5v10v5.6v2.6H8.4V5.4"/>
	</g>
	<g class="st1">
		<path d="M18.2,5.4c0,1.2,0,11.9,0,11.9"/>
		<g>
			<rect x="17.4" y="5.4" width="1.5" height="7.4"/>
			<g>
				<path d="M18.2,17.4c-0.8-2.1-2.1-4.8-3.6-6.4l3.6,1.3l3.6-1.3C20.3,12.6,19,15.2,18.2,17.4z"/>
			</g>
		</g>
	</g>
	<g class="st1">
		<path d="M22.5,6.5L22.5,6.5l-0.7,0.4l-0.1-0.4L22.5,6H23v3.9h-0.5V6.5z"/>
	</g>
</g>
<g id="Kanji" class="st0">
	<g class="st1">
		<path d="M12,64.1c-0.5,9.2-1.6,19.2-5.6,24.8l-3.9-2.3c3.6-5.3,4.8-14.4,5.2-23.3L12,64.1z M43.3,51.4l3.2,0.5l-0.1,2
			c-1.4,25.8-2.5,34.7-5.1,37.7c-1.9,2.2-3.9,2.7-8.4,2.7c-1.9,0-4.2-0.1-6.5-0.2c-0.2-1.7-0.7-4.1-1.6-5.6c3.8,0.3,7.2,0.4,8.6,0.4
			c2.9,0,4.4-0.4,5.8-14.6l-3.4,1.5c-1-3.7-3.6-9.3-6.1-13.4l3.4-1.3c2.5,3.9,4.8,9.1,6,12.6h0.1c0.4-4.3,0.8-9.7,1.2-16.5H14.2v2.6
			H8.4V5.4h37.3v5.8H30.5v9.6h13.1v5.5H30.5V36h13.1v5.5H30.5v10h11.4L43.3,51.4z M24.7,11.2H14.2v9.6h10.5V11.2z M24.7,36v-9.7
			H14.2V36H24.7z M14.2,41.5v10h10.5v-10H14.2z M16.3,84c0.2-5.1-0.5-12.7-1.5-18.7l3.7-0.5c1.2,5.9,1.9,13.6,1.8,18.6L16.3,84z
			 M25.9,63.4c2.2,5.1,4,11.8,4.5,16.2l-3.8,1c-0.4-4.4-2.2-11.2-4.2-16.4L25.9,63.4z M93,46.3H76.4c3.1,19.3,9.3,35.2,21.1,42.7
			c-1.5,1.2-3.6,3.7-4.6,5.5c-12.8-9.2-19.3-26.4-22.5-48.2H60.2C60,61.6,58.3,81.2,48.7,94.3c-1.1-1.1-3.9-2.8-5.4-3.5
			C52.9,77.6,53.9,58.7,53.9,44V5.4H93V46.3z M86.8,11.7H60.2V40h26.6V11.7z"/>
	</g>
</g>
</svg>
