<?xml version="1.0" encoding="utf-8"?>
<!-- Generator: Adobe Illustrator 26.2.1, SVG Export Plug-In . SVG Version: 6.00 Build 0)  -->
<svg version="1.1" xmlns="http://www.w3.org/2000/svg" xmlns:xlink="http://www.w3.org/1999/xlink" x="0px" y="0px"
	 viewBox="0 0 100 100" style="enable-background:new 0 0 100 100;" xml:space="preserve">
<style type="text/css">
	.st0{fill:none;}
	.st1{display:none;}
	.st2{display:inline;fill:none;}
	.st3{display:inline;}
</style>
<g id="Stroke1">
	<rect x="17.2" y="27.6" class="st0" width="12.6" height="0"/>
	<g>
		<path d="M54.7,6.3c0,0.8-0.8,1.3-2.1,1.5l-0.2,2.9c1.1,14.1,7.1,60.8,45.2,78.1c-1.9,1.4-4,3.8-5.1,5.6
			c-27-12.8-38.2-40-42.9-60.7h-0.1C45.2,54,34.9,80,7.8,94.3c-1.2-1.6-3.3-3.7-5.4-5.1c41.7-20.9,42-70.1,42.7-83.6L54.7,6.3z"/>
	</g>
	<g>
		<path d="M56.5,65.7c-3.5-5.8-6.1-12.2-7.7-18.9l1.5-0.4c1.6,6.6,4.1,12.8,7.5,18.5l-0.6,0.4L56.5,65.7z"/>
		<g>
			<path d="M59.6,69.1c-1.8-1.4-4.4-2.9-6.5-3.5l3.7-0.8l2.3-3C58.8,63.9,59.1,66.9,59.6,69.1z"/>
		</g>
	</g>
	<g>
		<path d="M45.6,56.6v-0.3l0.4-0.4c1-0.9,1.4-1.5,1.5-2c0-0.4-0.2-0.8-0.8-0.8c-0.4,0-0.6,0.2-0.8,0.3L45.7,53
			c0.3-0.2,0.7-0.4,1.1-0.4c0.8,0,1.2,0.6,1.2,1.1c0,0.7-0.5,1.3-1.3,2.1l-0.3,0.3v0h1.8v0.4H45.6z"/>
	</g>
</g>
<g id="Kanji" class="st1">
	<rect x="17.2" y="27.6" class="st2" width="12.6" height="0"/>
	<g class="st3">
		<path d="M54.7,6.3c0,0.8-0.8,1.3-2.1,1.5l-0.2,2.9c1.1,14.1,7.1,60.8,45.2,78.1c-1.9,1.4-4,3.8-5.1,5.6
			c-27-12.8-38.2-40-42.9-60.7h-0.1C45.2,54,34.9,80,7.8,94.3c-1.2-1.6-3.3-3.7-5.4-5.1c41.7-20.9,42-70.1,42.7-83.6L54.7,6.3z"/>
	</g>
</g>
<g id="Stroke0" class="st1">
	<rect x="17.2" y="27.6" class="st2" width="12.6" height="0"/>
	<g class="st3">
		<path d="M49.5,33.7L49.5,33.7C45.2,54,34.9,80,7.8,94.3c-1.2-1.6-3.3-3.7-5.4-5.1c41.7-20.9,42-70.1,42.7-83.6l9.5,0.7
			c0,0.8-0.8,1.3-2.1,1.5l-0.2,2.9"/>
	</g>
	<g class="st3">
		<path d="M54.6,32.3l-1.5-0.2c0.4-2.2,0.7-4.3,1-6.5c0.7-5,1.1-10.2,1.4-15.3l1.5,0.1c-0.3,5.1-0.8,10.3-1.5,15.4
			C55.3,28,54.9,30.2,54.6,32.3z"/>
		<g>
			<path d="M53.1,36.7c-0.4-2.2-1.4-5-2.5-6.9l3.3,1.8l3.7-0.7C55.9,32.3,54.2,34.7,53.1,36.7z"/>
		</g>
	</g>
	<g class="st3">
		<path d="M60,11.4L60,11.4l-0.7,0.4l-0.1-0.4L60,11h0.4v3.9H60V11.4z"/>
	</g>
</g>
</svg>
