<?xml version="1.0" encoding="utf-8"?>
<!-- Generator: Adobe Illustrator 26.2.1, SVG Export Plug-In . SVG Version: 6.00 Build 0)  -->
<svg version="1.1" xmlns="http://www.w3.org/2000/svg" xmlns:xlink="http://www.w3.org/1999/xlink" x="0px" y="0px"
	 viewBox="0 0 100 100" style="enable-background:new 0 0 100 100;" xml:space="preserve" width = "100px" height = "100px">
<style type="text/css">
	.st0{display:none;}
	.st1{display:inline;}
</style> 



	<rect x="17.2" y="27.6" class="st2" width="12.6" height="0"/>

		<path d="M49.5,33.7L49.5,33.7C45.2,54,34.9,80,7.8,94.3c-1.2-1.6-3.3-3.7-5.4-5.1c41.7-20.9,42-70.1,42.7-83.6l9.5,0.7
			c0,0.8-0.8,1.3-2.1,1.5l-0.2,2.9"/>

		<path d="M54.6,32.3l-1.5-0.2c0.4-2.2,0.7-4.3,1-6.5c0.7-5,1.1-10.2,1.4-15.3l1.5,0.1c-0.3,5.1-0.8,10.3-1.5,15.4
			C55.3,28,54.9,30.2,54.6,32.3z"/>

			<path d="M53.1,36.7c-0.4-2.2-1.4-5-2.5-6.9l3.3,1.8l3.7-0.7C55.9,32.3,54.2,34.7,53.1,36.7z"/>

		<path d="M60,11.4L60,11.4l-0.7,0.4l-0.1-0.4L60,11h0.4v3.9H60V11.4z"/>



</svg>