<?xml version="1.0" encoding="utf-8"?>
<!-- Generator: Adobe Illustrator 26.2.1, SVG Export Plug-In . SVG Version: 6.00 Build 0)  -->
<svg version="1.1" xmlns="http://www.w3.org/2000/svg" xmlns:xlink="http://www.w3.org/1999/xlink" x="0px" y="0px"
	 viewBox="0 0 100 100" style="enable-background:new 0 0 100 100;" xml:space="preserve">
<style type="text/css">
	.st0{display:none;}
	.st1{display:inline;}
</style>
<g id="Stroke5">
	<g>
		<path d="M74.5,11.8l4.8,2.7c-0.3,0.5-0.7,0.7-1.2,0.9C65,38,35.1,52.5,8.9,58.3c-0.7-1.7-2.1-4.5-3.3-6c13-2.4,27.1-7.3,39.2-14.3
			c-3.8-3-9.6-6.6-14.5-9l4.5-3.9c5.3,2.5,11.7,6.3,15.7,9.4c7.3-4.7,13.5-10.3,18.1-16.5H38.5c-7.3,5.4-16.1,10.7-26.6,15.2
			c-1-1.6-3.1-3.9-4.6-5C24.7,21.4,38,11.7,45.2,3.3l8.8,1.8c-0.2,0.7-0.9,1.1-2.2,1.2c-1.8,1.9-3.9,3.9-6.1,5.9h27.6L74.5,11.8z
			 M88.5,47.4l1.2-0.4c3.8,1.9,4.3,2.2,4.7,2.5c-0.1,0.5-0.6,0.7-1.1,1C80.3,79,48.6,91.9,15.7,96.7c-0.5-1.9-1.8-4.7-2.9-6.2
			c15.9-2,31.9-6.2,45.2-13.2c-4.3-3.9-11-8.5-16.7-11.6l5-3.8c6,3.2,13.2,8,17.6,12c8.5-5.4,15.5-12.2,20.2-20.6H53.3
			c-8.7,6.1-19.6,12-32.5,16.9c-0.9-1.6-2.8-3.9-4.2-5.1C37.5,57.9,53.1,47.4,61.5,38l8.8,1.8c-0.3,0.7-1,1.1-2.3,1.2
			c-2.1,2.1-4.4,4.2-6.9,6.4H88.5z"/>
	</g>
	<g>
		<line x1="40" y1="68.9" x2="50.1" y2="76"/>
		<g>
			<rect x="42.5" y="67.3" transform="matrix(0.5798 -0.8148 0.8148 0.5798 -39.8189 65.1093)" width="1.5" height="7.8"/>
			<g>
				<path d="M50.1,76c-2.2-0.6-5.1-1-7.3-0.8l3.1-2.2l1-3.7C47.4,71.5,48.8,74.2,50.1,76z"/>
			</g>
		</g>
	</g>
	<g>
		<path d="M38.4,69.3c-0.1,0-0.2,0-0.4,0c-0.8,0.1-1.3,0.7-1.4,1.4h0c0.2-0.2,0.5-0.4,0.9-0.4c0.7,0,1.2,0.5,1.2,1.3
			c0,0.7-0.5,1.4-1.3,1.4c-0.8,0-1.4-0.6-1.4-1.7c0-0.8,0.3-1.4,0.7-1.8c0.3-0.3,0.8-0.5,1.2-0.6c0.2,0,0.3,0,0.4,0V69.3z
			 M38.2,71.5c0-0.6-0.3-0.9-0.8-0.9c-0.3,0-0.6,0.2-0.8,0.5c0,0.1-0.1,0.1-0.1,0.2c0,0.6,0.3,1.1,0.9,1.1
			C37.9,72.5,38.2,72.1,38.2,71.5z"/>
	</g>
</g>
<g id="Stroke4" class="st0">
	<g class="st1">
		<path d="M74.5,11.8l4.8,2.7c-0.3,0.5-0.7,0.7-1.2,0.9C65,38,35.1,52.5,8.9,58.3c-0.7-1.7-2.1-4.5-3.3-6c13-2.4,27.1-7.3,39.2-14.3
			c-3.8-3-9.6-6.6-14.5-9l4.5-3.9c5.3,2.5,11.7,6.3,15.7,9.4c7.3-4.7,13.5-10.3,18.1-16.5H38.5c-7.3,5.4-16.1,10.7-26.6,15.2
			c-1-1.6-3.1-3.9-4.6-5C24.7,21.4,38,11.7,45.2,3.3l8.8,1.8c-0.2,0.7-0.9,1.1-2.2,1.2c-1.8,1.9-3.9,3.9-6.1,5.9h27.6L74.5,11.8z
			 M64,73.9c8.5-5.4,15.5-12.2,20.2-20.6H53.3c-8.7,6.1-19.6,12-32.5,16.9c-0.9-1.6-2.8-3.9-4.2-5.1C37.5,57.9,53.1,47.4,61.5,38
			l8.8,1.8c-0.3,0.7-1,1.1-2.3,1.2c-2.1,2.1-4.4,4.2-6.9,6.4h27.4l1.2-0.4c3.8,1.9,4.3,2.2,4.7,2.5c-0.1,0.5-0.6,0.7-1.1,1
			C80.3,79,48.6,91.9,15.7,96.7c-0.5-1.9-1.8-4.7-2.9-6.2c15.9-2,31.9-6.2,45.2-13.2"/>
	</g>
	<g class="st1">
		<path d="M53.6,57.4c2.7,0,14.8,0,14.8,0"/>
		<g>
			<rect x="53.6" y="56.6" width="10.2" height="1.5"/>
			<g>
				<path d="M68.4,57.4c-2.1,0.8-4.8,2.1-6.4,3.6l1.3-3.6l-1.3-3.6C63.6,55.3,66.2,56.6,68.4,57.4z"/>
			</g>
		</g>
	</g>
	<g class="st1">
		<path d="M55.7,60.4h-1.5l-0.2,1c0.1,0,0.2,0,0.3,0c0.3,0,0.6,0.1,0.8,0.2c0.3,0.2,0.6,0.5,0.6,1c0,0.8-0.6,1.3-1.5,1.3
			c-0.4,0-0.8-0.1-1-0.2l0.1-0.4c0.2,0.1,0.5,0.2,0.8,0.2c0.5,0,0.9-0.3,0.9-0.8c0-0.5-0.3-0.9-1.1-0.9c-0.2,0-0.4,0-0.5,0l0.3-1.9
			h1.9V60.4z"/>
	</g>
</g>
<g id="Stroke3" class="st0">
	<g class="st1">
		<path d="M74.5,11.8l4.8,2.7c-0.3,0.5-0.7,0.7-1.2,0.9C65,38,35.1,52.5,8.9,58.3c-0.7-1.7-2.1-4.5-3.3-6c13-2.4,27.1-7.3,39.2-14.3
			c-3.8-3-9.6-6.6-14.5-9l4.5-3.9c5.3,2.5,11.7,6.3,15.7,9.4c7.3-4.7,13.5-10.3,18.1-16.5H38.5c-7.3,5.4-16.1,10.7-26.6,15.2
			c-1-1.6-3.1-3.9-4.6-5C24.7,21.4,38,11.7,45.2,3.3l8.8,1.8c-0.2,0.7-0.9,1.1-2.2,1.2c-1.8,1.9-3.9,3.9-6.1,5.9h27.6L74.5,11.8z
			 M53.3,53.3c-8.7,6.1-19.6,12-32.5,16.9c-0.9-1.6-2.8-3.9-4.2-5.1C37.5,57.9,53.1,47.4,61.5,38l8.8,1.8c-0.3,0.7-1,1.1-2.3,1.2
			c-2.1,2.1-4.4,4.2-6.9,6.4"/>
	</g>
	<g class="st1">
		<path d="M64.4,50.9l-1-1.1c2.6-2.3,5.1-4.8,7.5-7.4l1.1,1C69.6,46,67.1,48.5,64.4,50.9z"/>
		<g>
			<path d="M60.5,53.3c1.1-2,2.2-4.7,2.5-6.9l1.4,3.5l3.3,1.8C65.5,51.7,62.6,52.5,60.5,53.3z"/>
		</g>
	</g>
	<g class="st1">
		<path d="M75.2,45.1V44h-1.8v-0.3l1.7-2.5h0.6v2.4h0.5V44h-0.5v1.1H75.2z M75.2,43.6v-1.3c0-0.2,0-0.4,0-0.6h0
			c-0.1,0.2-0.2,0.4-0.3,0.6l-1,1.3v0H75.2z"/>
	</g>
</g>
<g id="Stroke2" class="st0">
	<g class="st1">
		<path d="M74.5,11.8l4.8,2.7c-0.3,0.5-0.7,0.7-1.2,0.9C65,38,35.1,52.5,8.9,58.3c-0.7-1.7-2.1-4.5-3.3-6c13-2.4,27.1-7.3,39.2-14.3
			c-3.8-3-9.6-6.6-14.5-9l4.5-3.9c5.3,2.5,11.7,6.3,15.7,9.4c7.3-4.7,13.5-10.3,18.1-16.5H38.5c-7.3,5.4-16.1,10.7-26.6,15.2
			c-1-1.6-3.1-3.9-4.6-5C24.7,21.4,38,11.7,45.2,3.3l8.8,1.8c-0.2,0.7-0.9,1.1-2.2,1.2c-1.8,1.9-3.9,3.9-6.1,5.9h27.6L74.5,11.8z"/>
	</g>
	<g class="st1">
		<path d="M34.4,36.9c-3-1.7-5-2.7-5.8-3.1l0.6-1.4c0.8,0.3,2.8,1.4,5.9,3.1L34.4,36.9z"/>
		<g>
			<path d="M38.7,38.4c-2.2-0.3-5.2-0.5-7.3,0l2.9-2.5l0.6-3.7C35.5,34.2,37.2,36.7,38.7,38.4z"/>
		</g>
	</g>
	<g class="st1">
		<path d="M25.4,36.9c0.1,0.1,0.5,0.2,0.9,0.2c0.7,0,0.9-0.4,0.9-0.8c0-0.5-0.5-0.8-1-0.8h-0.3v-0.4h0.3c0.4,0,0.9-0.2,0.9-0.7
			c0-0.3-0.2-0.6-0.7-0.6c-0.3,0-0.6,0.1-0.8,0.3l-0.1-0.4c0.2-0.1,0.6-0.3,1-0.3c0.8,0,1.1,0.5,1.1,0.9c0,0.4-0.2,0.7-0.7,0.9v0
			c0.5,0.1,0.9,0.5,0.9,1c0,0.6-0.5,1.2-1.4,1.2c-0.4,0-0.8-0.1-1-0.3L25.4,36.9z"/>
	</g>
</g>
<g id="Stroke1" class="st0">
	<g class="st1">
		<path d="M50.6,34.5c7.3-4.7,13.5-10.3,18.1-16.5H38.5c-7.3,5.4-16.1,10.7-26.6,15.2c-1-1.6-3.1-3.9-4.6-5
			C24.7,21.4,38,11.7,45.2,3.3l8.8,1.8c-0.2,0.7-0.9,1.1-2.2,1.2c-1.8,1.9-3.9,3.9-6.1,5.9h27.6l1.1-0.4l4.8,2.7
			c-0.3,0.5-0.7,0.7-1.2,0.9C65,38,35.1,52.5,8.9,58.3c-0.7-1.7-2.1-4.5-3.3-6c13-2.4,27.1-7.3,39.2-14.3"/>
	</g>
	<g class="st1">
		<line x1="38.4" y1="22" x2="52.6" y2="22"/>
		<g>
			<rect x="38.4" y="21.2" width="9.6" height="1.5"/>
			<g>
				<path d="M52.6,22c-2.1,0.8-4.8,2.1-6.4,3.6l1.3-3.6l-1.3-3.6C47.8,19.8,50.4,21.2,52.6,22z"/>
			</g>
		</g>
	</g>
	<g class="st1">
		<path d="M37.1,28.1v-0.3l0.4-0.4c1-0.9,1.4-1.5,1.5-2c0-0.4-0.2-0.8-0.8-0.8c-0.4,0-0.6,0.2-0.8,0.3l-0.2-0.4
			c0.3-0.2,0.7-0.4,1.1-0.4c0.8,0,1.2,0.6,1.2,1.1c0,0.7-0.5,1.3-1.3,2.1l-0.3,0.3v0h1.8v0.4H37.1z"/>
	</g>
</g>
<g id="Stroke0" class="st0">
	<g class="st1">
		<path d="M38.5,18c-7.3,5.4-16.1,10.7-26.6,15.2c-1-1.6-3.1-3.9-4.6-5C24.7,21.4,38,11.7,45.2,3.3l8.8,1.8
			c-0.2,0.7-0.9,1.1-2.2,1.2c-1.8,1.9-3.9,3.9-6.1,5.9"/>
	</g>
	<g class="st1">
		<path d="M47.2,17.2l-1.1-1.1c2.5-2.5,5-5.1,7.4-7.8l1.1,1C52.2,12,49.7,14.6,47.2,17.2z"/>
		<g>
			<path d="M43.4,19.8c1-2.1,1.9-4.9,2.1-7l1.6,3.5l3.4,1.7C48.3,18,45.4,18.8,43.4,19.8z"/>
		</g>
	</g>
	<g class="st1">
		<path d="M56.5,8L56.5,8l-0.7,0.4L55.7,8l0.9-0.5H57v3.9h-0.5V8z"/>
	</g>
</g>
<g id="Kanji" class="st0">
	<g class="st1">
		<path d="M74.5,11.8l4.8,2.7c-0.3,0.5-0.7,0.7-1.2,0.9C65,38,35.1,52.5,8.9,58.3c-0.7-1.7-2.1-4.5-3.3-6c13-2.4,27.1-7.3,39.2-14.3
			c-3.8-3-9.6-6.6-14.5-9l4.5-3.9c5.3,2.5,11.7,6.3,15.7,9.4c7.3-4.7,13.5-10.3,18.1-16.5H38.5c-7.3,5.4-16.1,10.7-26.6,15.2
			c-1-1.6-3.1-3.9-4.6-5C24.7,21.4,38,11.7,45.2,3.3l8.8,1.8c-0.2,0.7-0.9,1.1-2.2,1.2c-1.8,1.9-3.9,3.9-6.1,5.9h27.6L74.5,11.8z
			 M88.5,47.4l1.2-0.4c3.8,1.9,4.3,2.2,4.7,2.5c-0.1,0.5-0.6,0.7-1.1,1C80.3,79,48.6,91.9,15.7,96.7c-0.5-1.9-1.8-4.7-2.9-6.2
			c15.9-2,31.9-6.2,45.2-13.2c-4.3-3.9-11-8.5-16.7-11.6l5-3.8c6,3.2,13.2,8,17.6,12c8.5-5.4,15.5-12.2,20.2-20.6H53.3
			c-8.7,6.1-19.6,12-32.5,16.9c-0.9-1.6-2.8-3.9-4.2-5.1C37.5,57.9,53.1,47.4,61.5,38l8.8,1.8c-0.3,0.7-1,1.1-2.3,1.2
			c-2.1,2.1-4.4,4.2-6.9,6.4H88.5z"/>
	</g>
</g>
</svg>
