<?xml version="1.0" encoding="utf-8"?>
<!-- Generator: Adobe Illustrator 26.2.1, SVG Export Plug-In . SVG Version: 6.00 Build 0)  -->
<svg version="1.1" xmlns="http://www.w3.org/2000/svg" xmlns:xlink="http://www.w3.org/1999/xlink" x="0px" y="0px"
	 viewBox="0 0 100 100" style="enable-background:new 0 0 100 100;" xml:space="preserve" width = "100px" height = "100px">
<style type="text/css">
	.st0{display:none;}
	.st1{display:inline;}
</style> 

		<path d="M74.5,11.8l4.8,2.7c-0.3,0.5-0.7,0.7-1.2,0.9C65,38,35.1,52.5,8.9,58.3c-0.7-1.7-2.1-4.5-3.3-6c13-2.4,27.1-7.3,39.2-14.3
			c-3.8-3-9.6-6.6-14.5-9l4.5-3.9c5.3,2.5,11.7,6.3,15.7,9.4c7.3-4.7,13.5-10.3,18.1-16.5H38.5c-7.3,5.4-16.1,10.7-26.6,15.2
			c-1-1.6-3.1-3.9-4.6-5C24.7,21.4,38,11.7,45.2,3.3l8.8,1.8c-0.2,0.7-0.9,1.1-2.2,1.2c-1.8,1.9-3.9,3.9-6.1,5.9h27.6L74.5,11.8z"/>


		<path d="M34.4,36.9c-3-1.7-5-2.7-5.8-3.1l0.6-1.4c0.8,0.3,2.8,1.4,5.9,3.1L34.4,36.9z"/>

			<path d="M38.7,38.4c-2.2-0.3-5.2-0.5-7.3,0l2.9-2.5l0.6-3.7C35.5,34.2,37.2,36.7,38.7,38.4z"/>

		<path d="M25.4,36.9c0.1,0.1,0.5,0.2,0.9,0.2c0.7,0,0.9-0.4,0.9-0.8c0-0.5-0.5-0.8-1-0.8h-0.3v-0.4h0.3c0.4,0,0.9-0.2,0.9-0.7
			c0-0.3-0.2-0.6-0.7-0.6c-0.3,0-0.6,0.1-0.8,0.3l-0.1-0.4c0.2-0.1,0.6-0.3,1-0.3c0.8,0,1.1,0.5,1.1,0.9c0,0.4-0.2,0.7-0.7,0.9v0
			c0.5,0.1,0.9,0.5,0.9,1c0,0.6-0.5,1.2-1.4,1.2c-0.4,0-0.8-0.1-1-0.3L25.4,36.9z"/>


</svg>