<?xml version="1.0" encoding="utf-8"?>
<!-- Generator: Adobe Illustrator 26.2.1, SVG Export Plug-In . SVG Version: 6.00 Build 0)  -->
<svg version="1.1" xmlns="http://www.w3.org/2000/svg" xmlns:xlink="http://www.w3.org/1999/xlink" x="0px" y="0px"
	 viewBox="0 0 100 100" style="enable-background:new 0 0 100 100;" xml:space="preserve">
<style type="text/css">
	.st0{display:none;}
	.st1{display:inline;fill:#FFFFFF;}
	.st2{display:inline;}
	.st3{fill:#FFFFFF;}
</style>
<g id="Stroke5" class="st0">
	<path class="st1" d="M56.9,88.2"/>
	<g class="st2">
		<path d="M95.2,12.6H52.5c-0.9,4.7-2.4,10.9-3.8,16.1h34.9v65.1h-7v-6.7H24.5v6.7h-6.7V28.7h24c1.2-4.7,2.5-10.8,3.3-16.1H4.8V6.2
			h90.4V12.6z M76.6,54.5V35H24.5v19.5H76.6z M24.5,80.7h52.1v-20H24.5V80.7z"/>
	</g>
	<g class="st2">
		<line x1="35.5" y1="91.6" x2="70" y2="91.6"/>
		<g>
			<rect x="35.5" y="90.9" width="29.9" height="1.5"/>
			<g>
				<path d="M70,91.6c-2.1,0.8-4.8,2.1-6.4,3.6l1.3-3.6l-1.3-3.6C65.2,89.5,67.8,90.8,70,91.6z"/>
			</g>
		</g>
	</g>
	<g class="st2">
		<path d="M38,93.8c-0.1,0-0.2,0-0.4,0c-0.8,0.1-1.3,0.7-1.4,1.4h0c0.2-0.2,0.5-0.4,0.9-0.4c0.7,0,1.2,0.5,1.2,1.3
			c0,0.7-0.5,1.4-1.3,1.4c-0.8,0-1.4-0.6-1.4-1.7c0-0.8,0.3-1.4,0.7-1.8c0.3-0.3,0.8-0.5,1.2-0.6c0.2,0,0.3,0,0.4,0V93.8z
			 M37.9,96.1c0-0.6-0.3-0.9-0.8-0.9c-0.3,0-0.6,0.2-0.8,0.5c0,0.1-0.1,0.1-0.1,0.2c0,0.6,0.3,1.1,0.9,1.1
			C37.6,97,37.9,96.6,37.9,96.1z"/>
	</g>
</g>
<g id="Stroke4" class="st0">
	<path class="st1" d="M56.9,88.2"/>
	<g class="st2">
		<path d="M17.8,93.8V28.7h24c1.2-4.7,2.5-10.8,3.3-16.1H4.8V6.2h90.4v6.4H52.5c-0.9,4.7-2.4,10.9-3.8,16.1h34.9v65.1 M76.6,54.5V35
			H24.5v19.5H76.6z M76.6,93.8V60.7H24.5v33.1"/>
	</g>
	<g class="st2">
		<line x1="28.5" y1="65.4" x2="71.5" y2="65.4"/>
		<g>
			<rect x="28.5" y="64.6" width="38.6" height="1.5"/>
			<g>
				<path d="M71.5,65.4c-2.1,0.8-4.8,2.1-6.4,3.6l1.3-3.6l-1.3-3.6C66.8,63.2,69.4,64.6,71.5,65.4z"/>
			</g>
		</g>
	</g>
	<g class="st2">
		<path d="M32.3,69.6h-1.5l-0.1,1c0.1,0,0.2,0,0.3,0c0.3,0,0.6,0.1,0.8,0.2c0.3,0.2,0.6,0.5,0.6,1c0,0.8-0.6,1.3-1.5,1.3
			c-0.4,0-0.8-0.1-1-0.2l0.1-0.4c0.2,0.1,0.5,0.2,0.8,0.2c0.5,0,0.9-0.3,0.9-0.8c0-0.5-0.3-0.9-1.1-0.9c-0.2,0-0.4,0-0.5,0l0.3-1.9
			h1.9V69.6z"/>
	</g>
</g>
<g id="Kanji">
	<path class="st3" d="M56.9,88.2"/>
	<g>
		<path d="M95.2,12.6H52.5c-0.9,4.7-2.4,10.9-3.8,16.1h34.9v65.1h-7v-6.7H24.5v6.7h-6.7V28.7h24c1.2-4.7,2.5-10.8,3.3-16.1H4.8V6.2
			h90.4V12.6z M76.6,54.5V35H24.5v19.5H76.6z M24.5,80.7h52.1v-20H24.5V80.7z"/>
	</g>
</g>
<g id="Stroke3" class="st0">
	<path class="st1" d="M56.9,88.2"/>
	<g class="st2">
		<path d="M17.8,93.8V28.7h24c1.2-4.7,2.5-10.8,3.3-16.1H4.8V6.2h90.4v6.4H52.5c-0.9,4.7-2.4,10.9-3.8,16.1h34.9v65.1 M24.5,93.8
			h52.1V35H24.5"/>
	</g>
	<g class="st2">
		<path d="M71.5,85.2l-0.7-42c-0.5-3.1-2.7-4.1-4.6-4.4H28.5v-1.5l37.9,0c3.3,0.5,5.4,2.6,5.9,5.8L73,85.1L71.5,85.2z"/>
		<g>
			<path d="M72.3,89.7c-0.8-2.1-2.2-4.7-3.7-6.3l3.6,1.2l3.5-1.4C74.4,84.9,73.1,87.5,72.3,89.7z"/>
		</g>
	</g>
	<g class="st2">
		<path d="M32.1,45.4v-1.1h-1.8V44l1.7-2.5h0.6v2.4h0.5v0.4h-0.5v1.1H32.1z M32.1,43.9v-1.3c0-0.2,0-0.4,0-0.6h0
			c-0.1,0.2-0.2,0.4-0.3,0.6l-1,1.3v0H32.1z"/>
	</g>
</g>
<g id="Stroke2" class="st0">
	<path class="st1" d="M56.9,88.2"/>
	<g class="st2">
		<path d="M41.8,28.7c1.2-4.7,2.5-10.8,3.3-16.1H4.8V6.2h90.4v6.4H52.5c-0.9,4.7-2.4,10.9-3.8,16.1 M24.5,28.7l0.4,65.1h-7.1V28.7
			H24.5z M24.5,87.1"/>
	</g>
	<g class="st2">
		<line x1="29.7" y1="29.6" x2="29.7" y2="81.2"/>
		<g>
			<rect x="29" y="29.6" width="1.5" height="47"/>
			<g>
				<path d="M29.7,81.2c-0.8-2.1-2.1-4.8-3.6-6.4l3.6,1.3l3.6-1.3C31.9,76.4,30.5,79.1,29.7,81.2z"/>
			</g>
		</g>
	</g>
	<g class="st2">
		<path d="M33.6,35.5c0.1,0.1,0.5,0.2,0.9,0.2c0.7,0,0.9-0.4,0.9-0.8c0-0.5-0.5-0.8-1-0.8h-0.3v-0.4h0.3c0.4,0,0.9-0.2,0.9-0.7
			c0-0.3-0.2-0.6-0.7-0.6c-0.3,0-0.6,0.1-0.8,0.3l-0.1-0.4c0.2-0.1,0.6-0.3,1-0.3c0.8,0,1.1,0.5,1.1,0.9c0,0.4-0.2,0.7-0.7,0.9v0
			c0.5,0.1,0.9,0.5,0.9,1c0,0.6-0.5,1.2-1.4,1.2c-0.4,0-0.8-0.1-1-0.3L33.6,35.5z"/>
	</g>
</g>
<g id="Stroke1" class="st0">
	<g class="st2">
		<path d="M24.5,87.1 M41.8,28.7c1.2-4.7,2.5-10.8,3.3-16.1H4.8V6.2h90.4v6.4H52.5c-0.9,4.7-2.4,10.9-3.8,16.1"/>
	</g>
	<g class="st2">
		<line x1="58.2" y1="14.8" x2="54.7" y2="28.4"/>
		<g>
			<rect x="52.2" y="18.6" transform="matrix(0.2474 -0.9689 0.9689 0.2474 24.098 69.8155)" width="9.6" height="1.5"/>
			<g>
				<path d="M54.7,28.4c-0.2-2.3-0.9-5.2-1.9-7.1l3.1,2.1l3.8-0.4C57.9,24.3,56,26.5,54.7,28.4z"/>
			</g>
		</g>
	</g>
	<g class="st2">
		<path d="M63.4,20.6v-0.3l0.4-0.4c1-0.9,1.4-1.5,1.5-2c0-0.4-0.2-0.8-0.8-0.8c-0.4,0-0.6,0.2-0.8,0.3l-0.2-0.4
			c0.3-0.2,0.7-0.4,1.1-0.4c0.8,0,1.2,0.6,1.2,1.1c0,0.7-0.5,1.3-1.3,2.1l-0.3,0.3v0h1.8v0.4H63.4z"/>
	</g>
</g>
<g id="Stroke0" class="st0">
	<path class="st1" d="M56.9,88.2"/>
	<g class="st2">
		<path d="M83.6,93.8h-7 M83.6,28.7 M45.1,12.6H4.8V6.2h90.4v6.4H52.5"/>
	</g>
	<g class="st2">
		<line x1="5.8" y1="17.5" x2="57.6" y2="17.5"/>
		<g>
			<rect x="5.8" y="16.8" width="47.2" height="1.5"/>
			<g>
				<path d="M57.6,17.5c-2.1,0.8-4.8,2.1-6.4,3.6l1.3-3.6l-1.3-3.6C52.8,15.4,55.4,16.7,57.6,17.5z"/>
			</g>
		</g>
	</g>
	<g class="st2">
		<path d="M7.9,21.4L7.9,21.4l-0.7,0.4l-0.1-0.4l0.9-0.5h0.4v3.9H7.9V21.4z"/>
	</g>
</g>
</svg>
