<?xml version="1.0" encoding="utf-8"?>
<!-- Generator: Adobe Illustrator 26.2.1, SVG Export Plug-In . SVG Version: 6.00 Build 0)  -->
<svg version="1.1" xmlns="http://www.w3.org/2000/svg" xmlns:xlink="http://www.w3.org/1999/xlink" x="0px" y="0px"
	 viewBox="0 0 100 100" style="enable-background:new 0 0 100 100;" xml:space="preserve" width = "100px" height = "100px">
<style type="text/css">
	.st0{display:none;}
	.st1{display:inline;}
</style>


	<path class="st1" d="M56.9,88.2"/>

		<path d="M95.2,12.6H52.5c-0.9,4.7-2.4,10.9-3.8,16.1h34.9v65.1h-7v-6.7H24.5v6.7h-6.7V28.7h24c1.2-4.7,2.5-10.8,3.3-16.1H4.8V6.2
			h90.4V12.6z M76.6,54.5V35H24.5v19.5H76.6z M24.5,80.7h52.1v-20H24.5V80.7z"/>


		<line x1="35.5" y1="91.6" x2="70" y2="91.6"/>

			<rect x="35.5" y="90.9" width="29.9" height="1.5"/>
		
				<path d="M70,91.6c-2.1,0.8-4.8,2.1-6.4,3.6l1.3-3.6l-1.3-3.6C65.2,89.5,67.8,90.8,70,91.6z"/>

		<path d="M38,93.8c-0.1,0-0.2,0-0.4,0c-0.8,0.1-1.3,0.7-1.4,1.4h0c0.2-0.2,0.5-0.4,0.9-0.4c0.7,0,1.2,0.5,1.2,1.3
			c0,0.7-0.5,1.4-1.3,1.4c-0.8,0-1.4-0.6-1.4-1.7c0-0.8,0.3-1.4,0.7-1.8c0.3-0.3,0.8-0.5,1.2-0.6c0.2,0,0.3,0,0.4,0V93.8z
			 M37.9,96.1c0-0.6-0.3-0.9-0.8-0.9c-0.3,0-0.6,0.2-0.8,0.5c0,0.1-0.1,0.1-0.1,0.2c0,0.6,0.3,1.1,0.9,1.1
			C37.6,97,37.9,96.6,37.9,96.1z"/>




 </svg>