<?xml version="1.0" encoding="utf-8"?>
<!-- Generator: Adobe Illustrator 26.2.1, SVG Export Plug-In . SVG Version: 6.00 Build 0)  -->
<svg version="1.1" xmlns="http://www.w3.org/2000/svg" xmlns:xlink="http://www.w3.org/1999/xlink" x="0px" y="0px"
	 viewBox="0 0 100 100" style="enable-background:new 0 0 100 100;" xml:space="preserve" width = "100px" height = "100px">
<style type="text/css">
	.st0{display:none;}
	.st1{display:inline;}
</style> 


		<path d="M24.5,87.1 M41.8,28.7c1.2-4.7,2.5-10.8,3.3-16.1H4.8V6.2h90.4v6.4H52.5c-0.9,4.7-2.4,10.9-3.8,16.1"/>

		<line x1="58.2" y1="14.8" x2="54.7" y2="28.4"/>

			<rect x="52.2" y="18.6" transform="matrix(0.2474 -0.9689 0.9689 0.2474 24.098 69.8155)" width="9.6" height="1.5"/>

				<path d="M54.7,28.4c-0.2-2.3-0.9-5.2-1.9-7.1l3.1,2.1l3.8-0.4C57.9,24.3,56,26.5,54.7,28.4z"/>

		<path d="M63.4,20.6v-0.3l0.4-0.4c1-0.9,1.4-1.5,1.5-2c0-0.4-0.2-0.8-0.8-0.8c-0.4,0-0.6,0.2-0.8,0.3l-0.2-0.4
			c0.3-0.2,0.7-0.4,1.1-0.4c0.8,0,1.2,0.6,1.2,1.1c0,0.7-0.5,1.3-1.3,2.1l-0.3,0.3v0h1.8v0.4H63.4z"/>

</svg>