<?xml version="1.0" encoding="utf-8"?>
<!-- Generator: Adobe Illustrator 26.2.1, SVG Export Plug-In . SVG Version: 6.00 Build 0)  -->
<svg version="1.1" xmlns="http://www.w3.org/2000/svg" xmlns:xlink="http://www.w3.org/1999/xlink" x="0px" y="0px"
	 viewBox="0 0 100 100" style="enable-background:new 0 0 100 100;" xml:space="preserve" width = "100px" height = "100px">
<style type="text/css">
	.st0{display:none;}
	.st1{display:inline;}
</style> 

	<path class="st1" d="M56.9,88.2"/>

		<path d="M17.8,93.8V28.7h24c1.2-4.7,2.5-10.8,3.3-16.1H4.8V6.2h90.4v6.4H52.5c-0.9,4.7-2.4,10.9-3.8,16.1h34.9v65.1 M76.6,54.5V35
			H24.5v19.5H76.6z M76.6,93.8V60.7H24.5v33.1"/>

		<line x1="28.5" y1="65.4" x2="71.5" y2="65.4"/>

			<rect x="28.5" y="64.6" width="38.6" height="1.5"/>
		
				<path d="M71.5,65.4c-2.1,0.8-4.8,2.1-6.4,3.6l1.3-3.6l-1.3-3.6C66.8,63.2,69.4,64.6,71.5,65.4z"/>

		<path d="M32.3,69.6h-1.5l-0.1,1c0.1,0,0.2,0,0.3,0c0.3,0,0.6,0.1,0.8,0.2c0.3,0.2,0.6,0.5,0.6,1c0,0.8-0.6,1.3-1.5,1.3
			c-0.4,0-0.8-0.1-1-0.2l0.1-0.4c0.2,0.1,0.5,0.2,0.8,0.2c0.5,0,0.9-0.3,0.9-0.8c0-0.5-0.3-0.9-1.1-0.9c-0.2,0-0.4,0-0.5,0l0.3-1.9
			h1.9V69.6z"/>


</svg>