<?xml version="1.0" encoding="utf-8"?>
<!-- Generator: Adobe Illustrator 26.2.1, SVG Export Plug-In . SVG Version: 6.00 Build 0)  -->
<svg version="1.1" xmlns="http://www.w3.org/2000/svg" xmlns:xlink="http://www.w3.org/1999/xlink" x="0px" y="0px"
	 viewBox="0 0 100 100" style="enable-background:new 0 0 100 100;" xml:space="preserve" width = "100px" height = "100px">
<style type="text/css">
	.st0{display:none;}
	.st1{display:inline;}
</style> 

	<path class="st1" d="M56.9,88.2"/>

		<path d="M41.8,28.7c1.2-4.7,2.5-10.8,3.3-16.1H4.8V6.2h90.4v6.4H52.5c-0.9,4.7-2.4,10.9-3.8,16.1 M24.5,28.7l0.4,65.1h-7.1V28.7
			H24.5z M24.5,87.1"/>


		<line x1="29.7" y1="29.6" x2="29.7" y2="81.2"/>

			<rect x="29" y="29.6" width="1.5" height="47"/>

				<path d="M29.7,81.2c-0.8-2.1-2.1-4.8-3.6-6.4l3.6,1.3l3.6-1.3C31.9,76.4,30.5,79.1,29.7,81.2z"/>

		<path d="M33.6,35.5c0.1,0.1,0.5,0.2,0.9,0.2c0.7,0,0.9-0.4,0.9-0.8c0-0.5-0.5-0.8-1-0.8h-0.3v-0.4h0.3c0.4,0,0.9-0.2,0.9-0.7
			c0-0.3-0.2-0.6-0.7-0.6c-0.3,0-0.6,0.1-0.8,0.3l-0.1-0.4c0.2-0.1,0.6-0.3,1-0.3c0.8,0,1.1,0.5,1.1,0.9c0,0.4-0.2,0.7-0.7,0.9v0
			c0.5,0.1,0.9,0.5,0.9,1c0,0.6-0.5,1.2-1.4,1.2c-0.4,0-0.8-0.1-1-0.3L33.6,35.5z"/>

</svg>