<?xml version="1.0" encoding="utf-8"?>
<!-- Generator: Adobe Illustrator 26.2.1, SVG Export Plug-In . SVG Version: 6.00 Build 0)  -->
<svg version="1.1" xmlns="http://www.w3.org/2000/svg" xmlns:xlink="http://www.w3.org/1999/xlink" x="0px" y="0px"
	 viewBox="0 0 100 100" style="enable-background:new 0 0 100 100;" xml:space="preserve" width = "100px" height = "100px">
<style type="text/css">
	.st0{display:none;}
	.st1{display:inline;}
</style> 


		<path d="M29,29.8c-0.2,0.8-0.9,1.2-2.2,1.2c-2.9,13-8.9,31.3-18.1,42.6c-1.6-1.1-4.5-2.8-6.3-3.6c9.2-10.8,14.9-28.3,17.4-42
			L29,29.8z M46.5,4.2l9.2,0.5C55.6,5.5,55,6,53.6,6.1V86c0,5.2-1.4,7.3-4.8,8.5c-3.6,1.1-9.8,1.3-19.2,1.3c-0.5-2-1.7-5.2-2.9-7.1
			c4.5,0.1,8.8,0.2,12,0.2c7,0,7.8,0,7.8-2.8V4.2z M90.5,75.4c-2.5-12-10.7-31-19.6-45.5l6.4-2.5c9,14.3,17.7,32.9,20.3,45
			L90.5,75.4z"/>

		<path d="M71,40.6c-2.6-5.1-3.4-6.4-3.6-6.8l1.2-0.8c0.4,0.7,1.7,3,3.7,6.9L71,40.6z"/>

			<path d="M73.7,44.3c-1.7-1.5-4.1-3.3-6.1-4.1l3.8-0.5L74,37C73.5,39.1,73.5,42.1,73.7,44.3z"/>

		<path d="M63.5,36.5c0.2,0.1,0.5,0.2,0.9,0.2c0.7,0,0.9-0.4,0.9-0.8c0-0.5-0.5-0.8-1-0.8h-0.3v-0.4h0.3c0.4,0,0.9-0.2,0.9-0.7
			c0-0.3-0.2-0.6-0.7-0.6c-0.3,0-0.6,0.1-0.8,0.3l-0.1-0.4c0.2-0.1,0.6-0.3,1-0.3c0.8,0,1.1,0.5,1.1,0.9c0,0.4-0.2,0.7-0.7,0.9v0
			c0.5,0.1,0.9,0.5,0.9,1c0,0.6-0.5,1.2-1.4,1.2c-0.4,0-0.8-0.1-1-0.3L63.5,36.5z"/>


</svg>