<?xml version="1.0" encoding="utf-8"?>
<!-- Generator: Adobe Illustrator 26.2.1, SVG Export Plug-In . SVG Version: 6.00 Build 0)  -->
<svg version="1.1" xmlns="http://www.w3.org/2000/svg" xmlns:xlink="http://www.w3.org/1999/xlink" x="0px" y="0px"
	 viewBox="0 0 100 100" style="enable-background:new 0 0 100 100;" xml:space="preserve" width = "100px" height = "100px">
<style type="text/css">
	.st0{display:none;}
	.st1{display:inline;}
</style> 

		<path d="M46.5,4.2l9.2,0.5C55.6,5.5,55,6,53.6,6.1V86c0,5.2-1.4,7.3-4.8,8.5c-3.6,1.1-9.8,1.3-19.2,1.3c-0.5-2-1.7-5.2-2.9-7.1
			c4.5,0.1,8.8,0.2,12,0.2c7,0,7.8,0,7.8-2.8V4.2z"/>

		<path d="M42.8,5.1c0,1.7,0,16.3,0,16.3"/>

			<rect x="42.1" y="5.1" width="1.5" height="11.7"/>
	
				<path d="M42.8,21.4c-0.8-2.1-2.1-4.8-3.6-6.4l3.6,1.3l3.6-1.3C45,16.6,43.6,19.2,42.8,21.4z"/>

		<path d="M39.4,5.1L39.4,5.1l-0.7,0.4l-0.1-0.4l0.9-0.5h0.4v3.9h-0.5V5.1z"/>

</svg>