<?xml version="1.0" encoding="utf-8"?>
<!-- Generator: Adobe Illustrator 26.2.1, SVG Export Plug-In . SVG Version: 6.00 Build 0)  -->
<svg version="1.1" xmlns="http://www.w3.org/2000/svg" xmlns:xlink="http://www.w3.org/1999/xlink" x="0px" y="0px"
	 viewBox="0 0 100 100" style="enable-background:new 0 0 100 100;" xml:space="preserve" width = "100px" height = "100px">
<style type="text/css">
	.st0{display:none;}
	.st1{display:inline;}
</style> 

		<path d="M29,29.8c-0.2,0.8-0.9,1.2-2.2,1.2c-2.9,13-8.9,31.3-18.1,42.6c-1.6-1.1-4.5-2.8-6.3-3.6c9.2-10.8,14.9-28.3,17.4-42
			L29,29.8z M46.5,4.2l9.2,0.5C55.6,5.5,55,6,53.6,6.1V86c0,5.2-1.4,7.3-4.8,8.5c-3.6,1.1-9.8,1.3-19.2,1.3c-0.5-2-1.7-5.2-2.9-7.1
			c4.5,0.1,8.8,0.2,12,0.2c7,0,7.8,0,7.8-2.8V4.2z"/>
	

		<line x1="31.4" y1="30.7" x2="28.6" y2="41.2"/>
		
			<rect x="27.4" y="33" transform="matrix(0.2572 -0.9664 0.9664 0.2572 -9.8867 54.6448)" width="6.3" height="1.5"/>
			
				<path d="M28.6,41.2c-0.2-2.3-0.8-5.2-1.8-7.1l3.1,2.2l3.8-0.3C31.9,37.1,29.9,39.3,28.6,41.2z"/>

		<path d="M33.5,32.7v-0.3l0.4-0.4c1-0.9,1.4-1.5,1.5-2c0-0.4-0.2-0.8-0.8-0.8c-0.4,0-0.6,0.2-0.8,0.3l-0.2-0.4
			c0.3-0.2,0.7-0.4,1.1-0.4c0.8,0,1.2,0.6,1.2,1.1c0,0.7-0.5,1.3-1.3,2.1l-0.3,0.3v0H36v0.4H33.5z"/>

</svg>