<?xml version="1.0" encoding="utf-8"?>
<!-- Generator: Adobe Illustrator 26.2.1, SVG Export Plug-In . SVG Version: 6.00 Build 0)  -->
<svg version="1.1" xmlns="http://www.w3.org/2000/svg" xmlns:xlink="http://www.w3.org/1999/xlink" x="0px" y="0px"
	 viewBox="0 0 100 100" style="enable-background:new 0 0 100 100;" xml:space="preserve">
<style type="text/css">
	.st0{fill:none;}
	.st1{display:none;}
	.st2{display:inline;fill:none;}
	.st3{display:inline;}
</style>
<g id="Stroke2">
	<rect x="17.2" y="27.6" class="st0" width="12.6" height="0"/>
	<g>
		<path d="M95.9,45.6v6.7H53.6V84c0,4.8-1.3,6.8-4.9,8c-3.6,1.1-10.1,1.2-20,1.2c-0.5-2-1.7-5-2.9-7c5.3,0.2,10.3,0.3,13.8,0.3
			c6.3,0,7.1,0,7.1-2.6V52.3H4.1v-6.7h42.5V29.2l3.9,0.2c7.9-4.1,16.5-10,22.9-15.5H14.5V7.3H81l1.2-0.5l6,4
			c-0.3,0.5-1.1,0.7-1.7,0.9C78.3,19.5,65,28.9,53.6,34.8v10.8H95.9z"/>
	</g>
	<g>
		<line x1="5.4" y1="56.6" x2="28.9" y2="56.6"/>
		<g>
			<rect x="5.4" y="55.8" width="19" height="1.5"/>
			<g>
				<path d="M28.9,56.6c-2.1,0.8-4.8,2.1-6.4,3.6l1.3-3.6L22.5,53C24.1,54.4,26.7,55.8,28.9,56.6z"/>
			</g>
		</g>
	</g>
	<g>
		<path d="M5.8,62.4c0.1,0.1,0.5,0.2,0.9,0.2c0.7,0,0.9-0.4,0.9-0.8c0-0.5-0.5-0.8-1-0.8H6.2v-0.4h0.3c0.4,0,0.9-0.2,0.9-0.7
			c0-0.3-0.2-0.6-0.7-0.6c-0.3,0-0.6,0.1-0.8,0.3l-0.1-0.4C6,59.2,6.4,59,6.8,59c0.8,0,1.1,0.5,1.1,0.9c0,0.4-0.2,0.7-0.7,0.9v0
			c0.5,0.1,0.9,0.5,0.9,1c0,0.6-0.5,1.2-1.4,1.2c-0.4,0-0.8-0.1-1-0.3L5.8,62.4z"/>
	</g>
</g>
<g id="Stroke1" class="st1">
	<rect x="17.2" y="27.6" class="st2" width="12.6" height="0"/>
	<g class="st3">
		<path d="M53.6,52.3V84c0,4.8-1.3,6.8-4.9,8c-3.6,1.1-10.1,1.2-20,1.2c-0.5-2-1.7-5-2.9-7c5.3,0.2,10.3,0.3,13.8,0.3
			c6.3,0,7.1,0,7.1-2.6V52.3v-6.7V29.2l3.9,0.2c7.9-4.1,16.5-10,22.9-15.5H14.5V7.3H81l1.2-0.5l6,4c-0.3,0.5-1.1,0.7-1.7,0.9
			C78.3,19.5,65,28.9,53.6,34.8v10.8"/>
	</g>
	<g class="st3">
		<line x1="42.1" y1="33" x2="42.1" y2="51.2"/>
		<g>
			<rect x="41.4" y="33" width="1.5" height="13.7"/>
			<g>
				<path d="M42.1,51.2c-0.8-2.1-2.1-4.8-3.6-6.4l3.6,1.3l3.6-1.3C44.3,46.4,42.9,49.1,42.1,51.2z"/>
			</g>
		</g>
	</g>
	<g class="st3">
		<path d="M36.8,38.5v-0.3l0.4-0.4c1-0.9,1.4-1.5,1.5-2c0-0.4-0.2-0.8-0.8-0.8c-0.4,0-0.6,0.2-0.8,0.3l-0.2-0.4
			c0.3-0.2,0.7-0.4,1.1-0.4c0.8,0,1.2,0.6,1.2,1.1c0,0.7-0.5,1.3-1.3,2.1L37.6,38v0h1.8v0.4H36.8z"/>
	</g>
</g>
<g id="Stroke0" class="st1">
	<rect x="17.2" y="27.6" class="st2" width="12.6" height="0"/>
	<g class="st3">
		<path d="M50.5,29.4c7.9-4.1,16.5-10,22.9-15.5H14.5V7.3H81l1.2-0.5l6,4c-0.3,0.5-1.1,0.7-1.7,0.9C78.3,19.5,65,28.9,53.6,34.8"/>
	</g>
	<g class="st3">
		<path d="M15.9,18.2c1.2,0,29.1,0,29.1,0"/>
		<g>
			<path d="M15.9,19l-0.1-1.5c0.9,0,17.5,0,24.6,0l0,1.5C25.7,18.9,16.5,18.9,15.9,19z"/>
			<g>
				<path d="M44.9,18.2c-2.1,0.8-4.8,2.1-6.4,3.6l1.3-3.6l-1.3-3.6C40.2,16.1,42.8,17.4,44.9,18.2z"/>
			</g>
		</g>
	</g>
	<g class="st3">
		<path d="M17.3,21.6L17.3,21.6L16.6,22l-0.1-0.4l0.9-0.5h0.4V25h-0.5V21.6z"/>
	</g>
</g>
<g id="Kanji" class="st1">
	<rect x="17.2" y="27.6" class="st2" width="12.6" height="0"/>
	<g class="st3">
		<path d="M95.9,45.6v6.7H53.6V84c0,4.8-1.3,6.8-4.9,8c-3.6,1.1-10.1,1.2-20,1.2c-0.5-2-1.7-5-2.9-7c5.3,0.2,10.3,0.3,13.8,0.3
			c6.3,0,7.1,0,7.1-2.6V52.3H4.1v-6.7h42.5V29.2l3.9,0.2c7.9-4.1,16.5-10,22.9-15.5H14.5V7.3H81l1.2-0.5l6,4
			c-0.3,0.5-1.1,0.7-1.7,0.9C78.3,19.5,65,28.9,53.6,34.8v10.8H95.9z"/>
	</g>
</g>
</svg>
