<?xml version="1.0" encoding="utf-8"?>
<!-- Generator: Adobe Illustrator 26.2.1, SVG Export Plug-In . SVG Version: 6.00 Build 0)  -->
<svg version="1.1" xmlns="http://www.w3.org/2000/svg" xmlns:xlink="http://www.w3.org/1999/xlink" x="0px" y="0px"
	 viewBox="0 0 100 100" style="enable-background:new 0 0 100 100;" xml:space="preserve" width = "100px" height = "100px">
<style type="text/css">
	.st0{display:none;}
	.st1{display:inline;}
</style>

	<rect x="17.2" y="27.6" class="st0" width="12.6" height="0"/>

	<path d="M95.9,45.6v6.7H53.6V84c0,4.8-1.3,6.8-4.9,8c-3.6,1.1-10.1,1.2-20,1.2c-0.5-2-1.7-5-2.9-7c5.3,0.2,10.3,0.3,13.8,0.3
			c6.3,0,7.1,0,7.1-2.6V52.3H4.1v-6.7h42.5V29.2l3.9,0.2c7.9-4.1,16.5-10,22.9-15.5H14.5V7.3H81l1.2-0.5l6,4
			c-0.3,0.5-1.1,0.7-1.7,0.9C78.3,19.5,65,28.9,53.6,34.8v10.8H95.9z"/>

	<line x1="5.4" y1="56.6" x2="28.9" y2="56.6"/>
	
	<rect x="5.4" y="55.8" width="19" height="1.5"/>
			
	<path d="M28.9,56.6c-2.1,0.8-4.8,2.1-6.4,3.6l1.3-3.6L22.5,53C24.1,54.4,26.7,55.8,28.9,56.6z"/>

	<path d="M5.8,62.4c0.1,0.1,0.5,0.2,0.9,0.2c0.7,0,0.9-0.4,0.9-0.8c0-0.5-0.5-0.8-1-0.8H6.2v-0.4h0.3c0.4,0,0.9-0.2,0.9-0.7
			c0-0.3-0.2-0.6-0.7-0.6c-0.3,0-0.6,0.1-0.8,0.3l-0.1-0.4C6,59.2,6.4,59,6.8,59c0.8,0,1.1,0.5,1.1,0.9c0,0.4-0.2,0.7-0.7,0.9v0
			c0.5,0.1,0.9,0.5,0.9,1c0,0.6-0.5,1.2-1.4,1.2c-0.4,0-0.8-0.1-1-0.3L5.8,62.4z"/>


 </svg>