<?xml version="1.0" encoding="utf-8"?>
<!-- Generator: Adobe Illustrator 26.2.1, SVG Export Plug-In . SVG Version: 6.00 Build 0)  -->
<svg version="1.1" xmlns="http://www.w3.org/2000/svg" xmlns:xlink="http://www.w3.org/1999/xlink" x="0px" y="0px"
	 viewBox="0 0 100 100" style="enable-background:new 0 0 100 100;" xml:space="preserve" width = "100px" height = "100px">
<style type="text/css">
	.st0{display:none;}
	.st1{display:inline;}
</style> 

		<path d="M31.1,62.8v12.1h-5.7L24.9,14H11.3v69.1h-6V8h25.8V61"/>

		<path d="M21.3,27.5L21,18c0-0.6-0.5-1.1-1.2-1.1h-6.9v-1h6.9c1.2,0,2.1,0.9,2.2,2.1l0.3,9.5L21.3,27.5z"/>
	
			<path d="M21.9,30.5c-0.6-1.4-1.5-3.1-2.5-4.2l2.4,0.8l2.3-0.9C23.2,27.3,22.4,29.1,21.9,30.5z"/>

		<path d="M14.1,22.3V22l0.4-0.4c1-0.9,1.4-1.5,1.5-2c0-0.4-0.2-0.8-0.8-0.8c-0.4,0-0.6,0.2-0.8,0.3l-0.2-0.4
			c0.3-0.2,0.7-0.4,1.1-0.4c0.8,0,1.2,0.6,1.2,1.1c0,0.7-0.5,1.3-1.3,2.1l-0.3,0.3v0h1.8v0.4H14.1z"/>

</svg>