<?xml version="1.0" encoding="utf-8"?>
<!-- Generator: Adobe Illustrator 26.2.1, SVG Export Plug-In . SVG Version: 6.00 Build 0)  -->
<svg version="1.1" xmlns="http://www.w3.org/2000/svg" xmlns:xlink="http://www.w3.org/1999/xlink" x="0px" y="0px"
	 viewBox="0 0 100 100" style="enable-background:new 0 0 100 100;" xml:space="preserve" width = "100px" height = "100px">
<style type="text/css">
	.st0{display:none;}
	.st1{display:inline;}
</style> 

	<path class="st2" d="M56.9,88.2"/>

		<path d="M69.4,90.6h-22v4.1h-6.2V58.8c-2.2,2.8-4.5,5.3-6.8,7.5c-0.7-0.9-2-2.4-3.2-3.5v12.1H11.3v8.3h-6V8h25.8V61
			c6.8-6.7,13-16.3,16.4-24.7H35.4v-5.1H55v-8.2H37.4V18H55v-7.6H35.6V5.3h25.2v30.9h-8.1l3,0.9c-0.2,0.7-0.9,1.1-2,1
			c-1.1,2.5-2.5,5.1-4,7.9h14c1.5-3.1,3.1-6.9,4.1-9.8h-2.7v-5.1h20v-8.2H67.1V18h18.1v-7.6H65.4V5.3h25.9v30.9H70.2l5.6,1.6
			c-0.3,0.6-1,1-2.1,1c-1,2-2.3,4.7-3.7,7.2h22.1v5.4H69.4v7.7V90.6z M69.4,77v8.2 M69.4,64.1v8 M24.9,14H11.3v23.7h13.6V14z
			 M11.3,68.8h13.6v-25H11.3V68.8z M63.4,51.4h-16v39.1h16"/>

	<path class="st3" d="M94.7,90.6"/>

		<line x1="73.8" y1="54.9" x2="73.8" y2="85.6"/>
	
			<rect x="73" y="54.9" width="1.5" height="26.1"/>
		
				<path d="M73.8,85.6c-0.8-2.1-2.1-4.8-3.6-6.4l3.6,1.3l3.6-1.3C75.9,80.8,74.6,83.4,73.8,85.6z"/>

		<path d="M77.3,56.5L77.3,56.5l-0.7,0.4l-0.1-0.4l0.9-0.5h0.4v3.9h-0.5V56.5z"/>
		<path d="M81.6,56.5h-1.5l-0.1,1c0.1,0,0.2,0,0.3,0c0.3,0,0.6,0.1,0.8,0.2c0.3,0.2,0.6,0.5,0.6,1c0,0.8-0.6,1.3-1.5,1.3
			c-0.4,0-0.8-0.1-1-0.2l0.1-0.4c0.2,0.1,0.5,0.2,0.8,0.2c0.5,0,0.9-0.3,0.9-0.8c0-0.5-0.3-0.9-1.1-0.9c-0.2,0-0.4,0-0.5,0l0.3-1.9
			h1.9V56.5z"/>

</svg>