<?xml version="1.0" encoding="utf-8"?>
<!-- Generator: Adobe Illustrator 26.2.1, SVG Export Plug-In . SVG Version: 6.00 Build 0)  -->
<svg version="1.1" xmlns="http://www.w3.org/2000/svg" xmlns:xlink="http://www.w3.org/1999/xlink" x="0px" y="0px"
	 viewBox="0 0 100 100" style="enable-background:new 0 0 100 100;" xml:space="preserve" width = "100px" height = "100px">
<style type="text/css">
	.st0{display:none;}
	.st1{display:inline;}
</style>

		<path d="M49.1,51.4v39.1v4.1h-6.2V58.8c-2.2,2.8-4.5,5.3-6.8,7.5c-0.7-0.9-2-2.4-3.2-3.5v12.1H13v8.3H7V8h25.8V61
			c6.8-6.7,13-16.3,16.4-24.7H37.2v-5.1h19.5v-8.2H39.2V18h17.5v-7.6H37.3V5.3h25.2v30.9h-8.1l3,0.9c-0.2,0.7-0.9,1.1-2,1
			c-1.1,2.5-2.5,5.1-4,7.9h14c1.5-3.1,3.1-6.9,4.1-9.8h-2.7v-5.1h20v-8.2H68.8V18h18.1v-7.6H67.1V5.3H93v30.9H71.9l5.6,1.6
			c-0.3,0.6-1,1-2.1,1c-1,2-2.3,4.7-3.7,7.2h-6.2h-14L49.1,51.4 M26.6,14H13v23.7h13.6V14z M13,68.8h13.6v-25H13V68.8z M49.1,51.4"
			/>

		<path d="M80.6,39.7l-2.4,6.2"/>

			<rect x="78.2" y="40.6" transform="matrix(0.3631 -0.9318 0.9318 0.3631 12.4328 100.7954)" width="3.5" height="1.5"/>
				<path d="M78.2,45.8c0-1.5-0.2-3.6-0.7-4.9l1.9,1.7l2.6,0.1C80.7,43.3,79.2,44.7,78.2,45.8z"/>
	
		<path d="M84.2,40.3L84.2,40.3l-0.7,0.4l-0.1-0.4l0.9-0.5h0.4v3.9h-0.5V40.3z"/>
		<path d="M86.3,43.1c0.2,0.1,0.5,0.2,0.9,0.2c0.7,0,0.9-0.4,0.9-0.8c0-0.5-0.5-0.8-1-0.8h-0.3v-0.4H87c0.4,0,0.9-0.2,0.9-0.7
			c0-0.3-0.2-0.6-0.7-0.6c-0.3,0-0.6,0.1-0.8,0.3l-0.1-0.4c0.2-0.1,0.6-0.3,1-0.3c0.8,0,1.1,0.5,1.1,0.9c0,0.4-0.2,0.7-0.7,0.9v0
			c0.5,0.1,0.9,0.5,0.9,1c0,0.6-0.5,1.2-1.4,1.2c-0.4,0-0.8-0.1-1-0.3L86.3,43.1z"/>

 </svg>