<?xml version="1.0" encoding="utf-8"?>
<!-- Generator: Adobe Illustrator 26.2.1, SVG Export Plug-In . SVG Version: 6.00 Build 0)  -->
<svg version="1.1" xmlns="http://www.w3.org/2000/svg" xmlns:xlink="http://www.w3.org/1999/xlink" x="0px" y="0px"
	 viewBox="0 0 100 100" style="enable-background:new 0 0 100 100;" xml:space="preserve" width = "100px" height = "100px">
<style type="text/css">
	.st0{display:none;}
	.st1{display:inline;}
</style> 

	<path class="st2" d="M56.9,88.2"/>

		<path d="M35.4,31.1 M35.4,36.2 M31.1,62.8v12.1H11.3v8.3h-6V8h25.8V61 M41.2,58.8 M24.9,14H11.3v23.7h13.6V14z M11.3,68.8h13.6
			v-25H11.3V68.8z"/>

		<line x1="14.2" y1="79.9" x2="26.4" y2="79.9"/>
	
			<rect x="14.2" y="79.2" width="7.7" height="1.5"/>
		
				<path d="M26.4,79.9c-2.1,0.8-4.8,2.1-6.4,3.6l1.3-3.6L20,76.4C21.6,77.8,24.2,79.2,26.4,79.9z"/>

		<path d="M16.1,87.2v-1.1h-1.8v-0.3l1.7-2.5h0.6v2.4h0.5v0.4h-0.5v1.1H16.1z M16.1,85.7v-1.3c0-0.2,0-0.4,0-0.6h0
			c-0.1,0.2-0.2,0.4-0.3,0.6l-1,1.3v0H16.1z"/>

</svg>