<?xml version="1.0" encoding="utf-8"?>
<!-- Generator: Adobe Illustrator 26.2.1, SVG Export Plug-In . SVG Version: 6.00 Build 0)  -->
<svg version="1.1" xmlns="http://www.w3.org/2000/svg" xmlns:xlink="http://www.w3.org/1999/xlink" x="0px" y="0px"
	 viewBox="0 0 100 100" style="enable-background:new 0 0 100 100;" xml:space="preserve" width = "100px" height = "100px">
<style type="text/css">
	.st0{display:none;}
	.st1{display:inline;}
</style> 

	<path class="st2" d="M56.9,88.2"/>
	
		<path d="M85.2,36.2l0-5.1v-8.2H67.1V18h18.1v-7.6H65.4V5.3h25.9v30.9 M67.9,36.2 M35.4,36.2v-5.1H55v-8.2H37.4V18H55v-7.6H35.6
			V5.3h25.2v30.9 M31.1,62.8v12.1H11.3v8.3h-6V8h25.8V61 M24.9,14H11.3v23.7h13.6V14z M11.3,68.8h13.6v-25H11.3V68.8z"/>

		<line x1="68.2" y1="27.6" x2="81.6" y2="27.6"/>

			<rect x="68.2" y="26.8" width="8.9" height="1.5"/>

				<path d="M81.6,27.6c-2.1,0.8-4.8,2.1-6.4,3.6l1.3-3.6L75.2,24C76.9,25.5,79.5,26.8,81.6,27.6z"/>

		<path d="M68.8,33.5c0.1,0,0.2,0,0.4,0c0.3,0,0.6-0.2,0.8-0.4c0.3-0.2,0.4-0.6,0.5-1h0c-0.2,0.3-0.5,0.4-0.9,0.4
			c-0.7,0-1.2-0.5-1.2-1.2c0-0.7,0.5-1.4,1.3-1.4s1.3,0.6,1.3,1.6c0,0.9-0.3,1.5-0.7,1.8c-0.3,0.3-0.7,0.5-1.1,0.5
			c-0.2,0-0.4,0-0.5,0V33.5z M69,31.3c0,0.5,0.3,0.8,0.8,0.8c0.4,0,0.6-0.2,0.8-0.4c0,0,0-0.1,0-0.2c0-0.7-0.2-1.2-0.8-1.2
			C69.3,30.3,69,30.7,69,31.3z"/>

</svg>