<?xml version="1.0" encoding="utf-8"?>
<!-- Generator: Adobe Illustrator 26.2.1, SVG Export Plug-In . SVG Version: 6.00 Build 0)  -->
<svg version="1.1" xmlns="http://www.w3.org/2000/svg" xmlns:xlink="http://www.w3.org/1999/xlink" x="0px" y="0px"
	 viewBox="0 0 100 100" style="enable-background:new 0 0 100 100;" xml:space="preserve" width = "100px" height = "100px">
<style type="text/css">
	.st0{display:none;}
	.st1{display:inline;}
</style>

		<path d="M94.7,85.2 M69.4,85.2 M55,36.2v-5.1v-8.2H37.4V18H55v-7.6H35.6V5.3h25.2v30.9 M31.1,62.8v12.1H11.3v8.3h-6V8h25.8V61
			 M41.2,58.8 M24.9,14H11.3v23.7h13.6V14z M11.3,68.8h13.6v-25H11.3V68.8z M47.4,51.4 M47.4,77"/>

		<line x1="38.1" y1="27.3" x2="49.3" y2="27.3"/>

			<rect x="38.1" y="26.5" width="6.7" height="1.5"/>
		
				<path d="M49.3,27.3c-2.1,0.8-4.8,2.1-6.4,3.6l1.3-3.6l-1.3-3.6C44.5,25.1,47.2,26.5,49.3,27.3z"/>
	
		<path d="M40.6,30.5c-0.1,0-0.2,0-0.4,0c-0.8,0.1-1.3,0.7-1.4,1.4h0c0.2-0.2,0.5-0.4,0.9-0.4c0.7,0,1.2,0.5,1.2,1.3
			c0,0.7-0.5,1.4-1.3,1.4c-0.8,0-1.4-0.6-1.4-1.7c0-0.8,0.3-1.4,0.7-1.8c0.3-0.3,0.8-0.5,1.2-0.6c0.2,0,0.3,0,0.4,0V30.5z
			 M40.4,32.7c0-0.6-0.3-0.9-0.8-0.9c-0.3,0-0.6,0.2-0.8,0.5c0,0.1-0.1,0.1-0.1,0.2c0,0.6,0.3,1.1,0.9,1.1
			C40.1,33.7,40.4,33.3,40.4,32.7z"/>

 </svg>