<?xml version="1.0" encoding="utf-8"?>
<!-- Generator: Adobe Illustrator 26.2.1, SVG Export Plug-In . SVG Version: 6.00 Build 0)  -->
<svg version="1.1" xmlns="http://www.w3.org/2000/svg" xmlns:xlink="http://www.w3.org/1999/xlink" x="0px" y="0px"
	 viewBox="0 0 100 100" style="enable-background:new 0 0 100 100;" xml:space="preserve" width = "100px" height = "100px">
<style type="text/css">
	.st0{display:none;}
	.st1{display:inline;}
</style>

		<path d="M35.4,36.2v-5.1H55v-8.2H37.4V18H55v-7.6H35.6V5.3h25.2v30.9 M31.1,62.8v12.1H11.3v8.3h-6V8h25.8V61 M24.9,14H11.3v23.7
			h13.6V14z M11.3,68.8h13.6v-25H11.3V68.8z"/>

		<line x1="36.5" y1="41.1" x2="53.5" y2="41.1"/>

			<rect x="36.5" y="40.3" width="12.5" height="1.5"/>

				<path d="M53.5,41.1c-2.1,0.8-4.8,2.1-6.4,3.6l1.3-3.6l-1.3-3.6C48.7,39,51.4,40.3,53.5,41.1z"/>

		<path d="M39.3,44.9v0.3l-1.7,3.5H37l1.7-3.4v0h-1.9v-0.4H39.3z"/>

 </svg>