<?xml version="1.0" encoding="utf-8"?>
<!-- Generator: Adobe Illustrator 26.2.1, SVG Export Plug-In . SVG Version: 6.00 Build 0)  -->
<svg version="1.1" xmlns="http://www.w3.org/2000/svg" xmlns:xlink="http://www.w3.org/1999/xlink" x="0px" y="0px"
	 viewBox="0 0 100 100" style="enable-background:new 0 0 100 100;" xml:space="preserve" width = "100px" height = "100px">
<style type="text/css">
	.st0{display:none;}
	.st1{display:inline;}
</style>

	<path class="st2" d="M56.9,88.2"/>

		<path d="M67.9,36h-2.7v-5.1h20v-8.1H67.1v-4.9h18.1v-7.5H65.4V5.3h25.9V36H70.2 M35.4,36v-5.1H55v-8.1H37.4v-4.9H55v-7.5H35.6V5.3
			h25.2V36 M31.1,62.3v12H11.3v8.2h-6V8h25.8v52.5 M41.2,58.3 M24.9,14H11.3v23.5h13.6V14z M11.3,68.2h13.6V43.4H11.3V68.2z"/>

		<line x1="66.6" y1="40.7" x2="87.1" y2="40.7"/>
	
			<rect x="66.6" y="40" width="16" height="1.5"/>

				<path d="M87.1,40.7c-2.1,0.8-4.8,2.1-6.4,3.6l1.3-3.6l-1.3-3.6C82.3,38.6,84.9,39.9,87.1,40.7z"/>

		<path d="M68,44L68,44l-0.7,0.4L67.2,44l0.9-0.5h0.4v3.9H68V44z"/>
		<path d="M72.5,45.4c0,1.3-0.5,2.1-1.4,2.1c-0.8,0-1.3-0.7-1.3-2c0-1.3,0.6-2,1.4-2C72,43.5,72.5,44.2,72.5,45.4z M70.4,45.5
			c0,1,0.3,1.6,0.8,1.6c0.5,0,0.8-0.6,0.8-1.6c0-1-0.2-1.6-0.8-1.6C70.7,43.9,70.4,44.4,70.4,45.5z"/>

 </svg>