<?xml version="1.0" encoding="utf-8"?>
<!-- Generator: Adobe Illustrator 26.2.1, SVG Export Plug-In . SVG Version: 6.00 Build 0)  -->
<svg version="1.1" xmlns="http://www.w3.org/2000/svg" xmlns:xlink="http://www.w3.org/1999/xlink" x="0px" y="0px"
	 viewBox="0 0 100 100" style="enable-background:new 0 0 100 100;" xml:space="preserve" width = "100px" height = "100px">
<style type="text/css">
	.st0{display:none;}
	.st1{display:inline;}
</style>

	<path class="st2" d="M56.9,88.2"/>

		<path d="M65.2,36.2v-5.1h20v-8.2H67.1V18h18.1v-7.6H65.4V5.3h25.9v30.9 M41.2,58.8c-2.2,2.8-4.5,5.3-6.8,7.5
			c-0.7-0.9-2-2.4-3.2-3.5v12.1H11.3v8.3h-6V8h25.8V61c6.8-6.7,13-16.3,16.4-24.7H35.4v-5.1H55v-8.2H37.4V18H55v-7.6H35.6V5.3h25.2
			v30.9h-8.1l3,0.9c-0.2,0.7-0.9,1.1-2,1c-1.1,2.5-2.5,5.1-4,7.9 M24.9,14H11.3v23.7h13.6V14z M11.3,68.8h13.6v-25H11.3V68.8z"/>

		<line x1="58" y1="42.3" x2="39.3" y2="68.2"/>

			<rect x="36.3" y="52.6" transform="matrix(0.5844 -0.8115 0.8115 0.5844 -22.5584 62.7505)" width="27.4" height="1.5"/>

				<path d="M39.3,68.2c0.6-2.2,1.1-5.1,0.8-7.3l2.1,3.1l3.6,1C43.9,65.6,41.2,66.9,39.3,68.2z"/>

		<path d="M60.8,44L60.8,44l-0.7,0.4L60.1,44l0.9-0.5h0.4v3.9h-0.5V44z"/>
		<path d="M63.9,44L63.9,44l-0.7,0.4L63.1,44l0.9-0.5h0.4v3.9h-0.5V44z"/>


 </svg>