<?xml version="1.0" encoding="utf-8"?>
<!-- Generator: Adobe Illustrator 26.2.1, SVG Export Plug-In . SVG Version: 6.00 Build 0)  -->
<svg version="1.1" xmlns="http://www.w3.org/2000/svg" xmlns:xlink="http://www.w3.org/1999/xlink" x="0px" y="0px"
	 viewBox="0 0 100 100" style="enable-background:new 0 0 100 100;" xml:space="preserve">
<style type="text/css">
	.st0{fill:#FFFFFF;}
	.st1{display:none;}
	.st2{display:inline;fill:#FFFFFF;}
	.st3{display:inline;}
	.st4{display:inline;fill:url(#SVGID_1_);}
	.st5{fill:url(#SVGID_00000039843832206149399930000015554562997497256600_);}
</style>
<g id="Stroke17">
	<path class="st0" d="M56.9,88.2"/>
	<g>
		<path d="M94.7,85.2v5.4H47.4v4.1h-6.2V58.8c-2.2,2.8-4.5,5.3-6.8,7.5c-0.7-0.9-2-2.4-3.2-3.5v12.1H11.3v8.3h-6V8h25.8V61
			c6.8-6.7,13-16.3,16.4-24.7H35.4v-5.1H55v-8.2H37.4V18H55v-7.6H35.6V5.3h25.2v30.9h-8.1l3,0.9c-0.2,0.7-0.9,1.1-2,1
			c-1.1,2.5-2.5,5.1-4,7.9h14c1.5-3.1,3.1-6.9,4.1-9.8h-2.7v-5.1h20v-8.2H67.1V18h18.1v-7.6H65.4V5.3h25.9v30.9H70.2l5.6,1.6
			c-0.3,0.6-1,1-2.1,1c-1,2-2.3,4.7-3.7,7.2h22.1v5.4H69.4v7.7h20v4.9h-20v8h20V77h-20v8.2H94.7z M24.9,14H11.3v23.7h13.6V14z
			 M11.3,68.8h13.6v-25H11.3V68.8z M63.4,59.2v-7.7h-16v7.7H63.4z M63.4,72.1v-8h-16v8H63.4z M47.4,77v8.2h16V77H47.4z"/>
	</g>
	<g>
		<path d="M50,93.9c0.4,0,31.1,0,31.1,0"/>
		<g>
			<path d="M53.5,94.5c-2.4,0-3.4,0-3.5,0l0.1-1.3c0.3,0,5.4,0,10.8,0c5.7,0,12.4,0,16.5,0l0,1.3c-4.1,0-10.7,0-16.5,0
				C57.6,94.5,55.2,94.5,53.5,94.5z"/>
			<g>
				<path d="M81.1,93.9c-1.8,0.6-4,1.8-5.4,2.9l1.1-3l-1.1-3C77.2,92.1,79.4,93.2,81.1,93.9z"/>
			</g>
		</g>
	</g>
	<g>
		<path d="M51.1,95.9L51.1,95.9l-0.7,0.4l-0.1-0.4l0.9-0.5h0.4v3.9h-0.5V95.9z"/>
		<path d="M53,98.3c0-0.5,0.3-0.8,0.8-1l0,0c-0.4-0.2-0.6-0.5-0.6-0.9c0-0.6,0.5-1,1.2-1c0.8,0,1.1,0.5,1.1,1c0,0.3-0.2,0.7-0.6,0.9
			v0c0.5,0.2,0.8,0.5,0.8,1c0,0.7-0.6,1.1-1.3,1.1C53.5,99.3,53,98.8,53,98.3z M55.1,98.2c0-0.5-0.3-0.7-0.9-0.9
			c-0.5,0.1-0.7,0.4-0.7,0.8c0,0.4,0.3,0.7,0.8,0.7C54.8,98.9,55.1,98.6,55.1,98.2z M53.6,96.3c0,0.4,0.3,0.6,0.7,0.7
			c0.3-0.1,0.6-0.4,0.6-0.7c0-0.3-0.2-0.6-0.7-0.6C53.9,95.7,53.6,96,53.6,96.3z"/>
	</g>
</g>
<g id="Stroke16" class="st1">
	<path class="st2" d="M56.9,88.2"/>
	<g class="st3">
		<path d="M63.4,85v-8h-16v13.6v4.1h-6.2V58.8c-2.2,2.8-4.5,5.3-6.8,7.5c-0.7-0.9-2-2.4-3.2-3.5v12.1H11.3v8.3h-6V8h25.8V61
			c6.8-6.7,13-16.3,16.4-24.7H35.4v-5.1H55v-8.2H37.4V18H55v-7.6H35.6V5.3h25.2v30.9h-8.1l3,0.9c-0.2,0.7-0.9,1.1-2,1
			c-1.1,2.5-2.5,5.1-4,7.9h14c1.5-3.1,3.1-6.9,4.1-9.8h-2.7v-5.1h20v-8.2H67.1V18h18.1v-7.6H65.4V5.3h25.9v30.9H70.2l5.6,1.6
			c-0.3,0.6-1,1-2.1,1c-1,2-2.3,4.7-3.7,7.2h22.1v5.4H69.4v7.7h20v4.9h-20v8h20V77h-20v8.2 M24.9,14H11.3v23.7h13.6V14z M11.3,68.8
			h13.6v-25H11.3V68.8z M63.4,59.2v-7.7h-16v7.7H63.4z M63.4,72.1v-8h-16v8H63.4z"/>
	</g>
	<g class="st3">
		<line x1="48.9" y1="81.7" x2="60.6" y2="81.7"/>
		<g>
			<rect x="48.9" y="80.9" width="7.2" height="1.5"/>
			<g>
				<path d="M60.6,81.7c-2.1,0.8-4.8,2.1-6.4,3.6l1.3-3.6l-1.3-3.6C55.9,79.5,58.5,80.9,60.6,81.7z"/>
			</g>
		</g>
	</g>
	<g class="st3">
		<path d="M51.4,86.7L51.4,86.7l-0.7,0.4l-0.1-0.4l0.9-0.5h0.4v3.9h-0.5V86.7z"/>
		<path d="M55.9,86.2v0.3l-1.7,3.5h-0.5l1.7-3.4v0h-1.9v-0.4H55.9z"/>
	</g>
</g>
<g id="Stroke15" class="st1">
	<path class="st2" d="M56.9,88.2"/>
	<g class="st3">
		<path d="M24.9,14H11.3v23.7h13.6V14z M11.3,68.8h13.6v-25H11.3V68.8z M63.4,59.2v-7.7h-16v7.7H63.4z M69.4,77v8.2l-6,0V64.1h-16
			v30.6h-6.2V58.8c-2.2,2.8-4.5,5.3-6.8,7.5c-0.7-0.9-2-2.4-3.2-3.5v12.1H11.3v8.3h-6V8h25.8V61c6.8-6.7,13-16.3,16.4-24.7H35.4
			v-5.1H55v-8.2H37.4V18H55v-7.6H35.6V5.3h25.2v30.9h-8.1l3,0.9c-0.2,0.7-0.9,1.1-2,1c-1.1,2.5-2.5,5.1-4,7.9h14
			c1.5-3.1,3.1-6.9,4.1-9.8h-2.7v-5.1h20v-8.2H67.1V18h18.1v-7.6H65.4V5.3h25.9v30.9H70.2l5.6,1.6c-0.3,0.6-1,1-2.1,1
			c-1,2-2.3,4.7-3.7,7.2h22.1v5.4H69.4v7.7h20v4.9h-20v8"/>
	</g>
	<g class="st3">
		<line x1="48.7" y1="68.8" x2="59.6" y2="68.8"/>
		<g>
			<rect x="48.7" y="68" width="6.4" height="1.5"/>
			<g>
				<path d="M59.6,68.8c-2.1,0.8-4.8,2.1-6.4,3.6l1.3-3.6l-1.3-3.6C54.8,66.6,57.5,68,59.6,68.8z"/>
			</g>
		</g>
	</g>
	<g class="st3">
		<path d="M50.7,74.5L50.7,74.5L50,74.8l-0.1-0.4l0.9-0.5h0.4v3.9h-0.5V74.5z"/>
		<path d="M54.9,74.3c-0.1,0-0.2,0-0.4,0c-0.8,0.1-1.3,0.7-1.4,1.4h0c0.2-0.2,0.5-0.4,0.9-0.4c0.7,0,1.2,0.5,1.2,1.3
			c0,0.7-0.5,1.4-1.3,1.4c-0.8,0-1.4-0.6-1.4-1.7c0-0.8,0.3-1.4,0.7-1.8c0.3-0.3,0.8-0.5,1.2-0.6c0.2,0,0.3,0,0.4,0V74.3z
			 M54.7,76.6c0-0.6-0.3-0.9-0.8-0.9c-0.3,0-0.6,0.2-0.8,0.5c0,0.1-0.1,0.1-0.1,0.2c0,0.6,0.3,1.1,0.9,1.1
			C54.4,77.5,54.7,77.1,54.7,76.6z"/>
	</g>
</g>
<g id="Stroke14" class="st1">
	<path class="st2" d="M56.9,88.2"/>
	<g class="st3">
		<path d="M69.4,90.6h-22v4.1h-6.2V58.8c-2.2,2.8-4.5,5.3-6.8,7.5c-0.7-0.9-2-2.4-3.2-3.5v12.1H11.3v8.3h-6V8h25.8V61
			c6.8-6.7,13-16.3,16.4-24.7H35.4v-5.1H55v-8.2H37.4V18H55v-7.6H35.6V5.3h25.2v30.9h-8.1l3,0.9c-0.2,0.7-0.9,1.1-2,1
			c-1.1,2.5-2.5,5.1-4,7.9h14c1.5-3.1,3.1-6.9,4.1-9.8h-2.7v-5.1h20v-8.2H67.1V18h18.1v-7.6H65.4V5.3h25.9v30.9H70.2l5.6,1.6
			c-0.3,0.6-1,1-2.1,1c-1,2-2.3,4.7-3.7,7.2h22.1v5.4H69.4v7.7V90.6z M69.4,77v8.2 M69.4,64.1v8 M24.9,14H11.3v23.7h13.6V14z
			 M11.3,68.8h13.6v-25H11.3V68.8z M63.4,51.4h-16v39.1h16"/>
	</g>
	<path class="st3" d="M94.7,90.6"/>
	<g class="st3">
		<line x1="73.8" y1="54.9" x2="73.8" y2="85.6"/>
		<g>
			<rect x="73" y="54.9" width="1.5" height="26.1"/>
			<g>
				<path d="M73.8,85.6c-0.8-2.1-2.1-4.8-3.6-6.4l3.6,1.3l3.6-1.3C75.9,80.8,74.6,83.4,73.8,85.6z"/>
			</g>
		</g>
	</g>
	<g class="st3">
		<path d="M77.3,56.5L77.3,56.5l-0.7,0.4l-0.1-0.4l0.9-0.5h0.4v3.9h-0.5V56.5z"/>
		<path d="M81.6,56.5h-1.5l-0.1,1c0.1,0,0.2,0,0.3,0c0.3,0,0.6,0.1,0.8,0.2c0.3,0.2,0.6,0.5,0.6,1c0,0.8-0.6,1.3-1.5,1.3
			c-0.4,0-0.8-0.1-1-0.2l0.1-0.4c0.2,0.1,0.5,0.2,0.8,0.2c0.5,0,0.9-0.3,0.9-0.8c0-0.5-0.3-0.9-1.1-0.9c-0.2,0-0.4,0-0.5,0l0.3-1.9
			h1.9V56.5z"/>
	</g>
</g>
<g id="Stroke13" class="st1">
	<path class="st2" d="M56.9,88.2"/>
	<g class="st3">
		<path d="M47.4,90.6v4.1h-6.2V58.8c-2.2,2.8-4.5,5.3-6.8,7.5c-0.7-0.9-2-2.4-3.2-3.5v12.1H11.3v8.3h-6V8h25.8V61
			c6.8-6.7,13-16.3,16.4-24.7H35.4v-5.1H55v-8.2H37.4V18H55v-7.6H35.6V5.3h25.2v30.9h-8.1l3,0.9c-0.2,0.7-0.9,1.1-2,1
			c-1.1,2.5-2.5,5.1-4,7.9h14c1.5-3.1,3.1-6.9,4.1-9.8h-2.7v-5.1h20v-8.2H67.1V18h18.1v-7.6H65.4V5.3h25.9v30.9H70.2l5.6,1.6
			c-0.3,0.6-1,1-2.1,1c-1,2-2.3,4.7-3.7,7.2h22.1v5.4H47.4v7.7 M24.9,14H11.3v23.7h13.6V14z M11.3,68.8h13.6v-25H11.3V68.8z
			 M47.4,64.1v8 M47.4,77v8.2"/>
	</g>
	<g class="st3">
		<path d="M50.6,56.3c0.3,0,35.5,0,35.5,0"/>
		<g>
			<rect x="50.6" y="55.5" width="31" height="1.5"/>
			<g>
				<path d="M86.1,56.3c-2.1,0.8-4.8,2.1-6.4,3.6l1.3-3.6l-1.3-3.6C81.4,54.1,84,55.5,86.1,56.3z"/>
			</g>
		</g>
	</g>
	<g class="st3">
		<path d="M52.6,60.1L52.6,60.1L52,60.4L51.8,60l0.9-0.5h0.4v3.9h-0.5V60.1z"/>
		<path d="M56.2,63.5v-1.1h-1.8v-0.3l1.7-2.5h0.6V62h0.5v0.4h-0.5v1.1H56.2z M56.2,62v-1.3c0-0.2,0-0.4,0-0.6h0
			c-0.1,0.2-0.2,0.4-0.3,0.6l-1,1.3v0H56.2z"/>
	</g>
</g>
<g id="Stroke12" class="st1">
	<path class="st2" d="M56.9,88.2"/>
	<g class="st3">
		<path d="M49.1,51.4v39.1v4.1h-6.2V58.8c-2.2,2.8-4.5,5.3-6.8,7.5c-0.7-0.9-2-2.4-3.2-3.5v12.1H13v8.3H7V8h25.8V61
			c6.8-6.7,13-16.3,16.4-24.7H37.2v-5.1h19.5v-8.2H39.2V18h17.5v-7.6H37.3V5.3h25.2v30.9h-8.1l3,0.9c-0.2,0.7-0.9,1.1-2,1
			c-1.1,2.5-2.5,5.1-4,7.9h14c1.5-3.1,3.1-6.9,4.1-9.8h-2.7v-5.1h20v-8.2H68.8V18h18.1v-7.6H67.1V5.3H93v30.9H71.9l5.6,1.6
			c-0.3,0.6-1,1-2.1,1c-1,2-2.3,4.7-3.7,7.2h-6.2h-14L49.1,51.4 M26.6,14H13v23.7h13.6V14z M13,68.8h13.6v-25H13V68.8z M49.1,51.4"
			/>
	</g>
	<g class="st3">
		<path d="M80.6,39.7l-2.4,6.2"/>
		<g>
			<rect x="78.2" y="40.6" transform="matrix(0.3631 -0.9318 0.9318 0.3631 12.4328 100.7954)" width="3.5" height="1.5"/>
			<g>
				<path d="M78.2,45.8c0-1.5-0.2-3.6-0.7-4.9l1.9,1.7l2.6,0.1C80.7,43.3,79.2,44.7,78.2,45.8z"/>
			</g>
		</g>
	</g>
	<g class="st3">
		<path d="M84.2,40.3L84.2,40.3l-0.7,0.4l-0.1-0.4l0.9-0.5h0.4v3.9h-0.5V40.3z"/>
		<path d="M86.3,43.1c0.2,0.1,0.5,0.2,0.9,0.2c0.7,0,0.9-0.4,0.9-0.8c0-0.5-0.5-0.8-1-0.8h-0.3v-0.4H87c0.4,0,0.9-0.2,0.9-0.7
			c0-0.3-0.2-0.6-0.7-0.6c-0.3,0-0.6,0.1-0.8,0.3l-0.1-0.4c0.2-0.1,0.6-0.3,1-0.3c0.8,0,1.1,0.5,1.1,0.9c0,0.4-0.2,0.7-0.7,0.9v0
			c0.5,0.1,0.9,0.5,0.9,1c0,0.6-0.5,1.2-1.4,1.2c-0.4,0-0.8-0.1-1-0.3L86.3,43.1z"/>
	</g>
</g>
<g id="Stroke11" class="st1">
	<path class="st2" d="M56.9,88.2"/>
	<g class="st3">
		<path d="M65.2,36.2v-5.1h20v-8.2H67.1V18h18.1v-7.6H65.4V5.3h25.9v30.9 M24.9,14H11.3v23.7h13.6V14z M11.3,68.8h13.6v-25H11.3
			V68.8z M47.4,90.6v4.1h-6.2V58.8c-2.2,2.8-4.5,5.3-6.8,7.5c-0.7-0.9-2-2.4-3.2-3.5v12.1H11.3v8.3h-6V8h25.8V61
			c6.8-6.7,13-16.3,16.4-24.7H35.4v-5.1H55v-8.2H37.4V18H55v-7.6H35.6V5.3h25.2v30.9h-8.1l3,0.9c-0.2,0.7-0.9,1.1-2,1
			c-1.1,2.5-2.5,5.1-4,7.9c0,0,0,0,0,0l-1.8,4.1c-0.4,0.9-0.6,1.8-0.6,2.8v6.2 M47.4,64.1v8 M47.4,77v8.2"/>
	</g>
	<g class="st3">
		<line x1="50.6" y1="57.6" x2="50.6" y2="78.3"/>
		<g>
			<rect x="49.8" y="57.6" width="1.5" height="16.2"/>
			<g>
				<path d="M50.6,78.3c-0.8-2.1-2.1-4.8-3.6-6.4l3.6,1.3l3.6-1.3C52.7,73.5,51.4,76.2,50.6,78.3z"/>
			</g>
		</g>
	</g>
	<g class="st3">
		<path d="M53.8,60.1L53.8,60.1l-0.7,0.4L53,60.1l0.9-0.5h0.4v3.9h-0.5V60.1z"/>
		<path d="M55.7,63.6v-0.3l0.4-0.4c1-0.9,1.4-1.5,1.5-2c0-0.4-0.2-0.8-0.8-0.8c-0.4,0-0.6,0.2-0.8,0.3L55.8,60
			c0.3-0.2,0.7-0.4,1.1-0.4c0.8,0,1.2,0.6,1.2,1.1c0,0.7-0.5,1.3-1.3,2.1l-0.3,0.3v0h1.8v0.4H55.7z"/>
	</g>
</g>
<g id="Stroke10" class="st1">
	<path class="st2" d="M56.9,88.2"/>
	<g class="st3">
		<path d="M65.2,36.2v-5.1h20v-8.2H67.1V18h18.1v-7.6H65.4V5.3h25.9v30.9 M41.2,58.8c-2.2,2.8-4.5,5.3-6.8,7.5
			c-0.7-0.9-2-2.4-3.2-3.5v12.1H11.3v8.3h-6V8h25.8V61c6.8-6.7,13-16.3,16.4-24.7H35.4v-5.1H55v-8.2H37.4V18H55v-7.6H35.6V5.3h25.2
			v30.9h-8.1l3,0.9c-0.2,0.7-0.9,1.1-2,1c-1.1,2.5-2.5,5.1-4,7.9 M24.9,14H11.3v23.7h13.6V14z M11.3,68.8h13.6v-25H11.3V68.8z"/>
	</g>
	<g class="st3">
		<line x1="58" y1="42.3" x2="39.3" y2="68.2"/>
		<g>
			<rect x="36.3" y="52.6" transform="matrix(0.5844 -0.8115 0.8115 0.5844 -22.5584 62.7505)" width="27.4" height="1.5"/>
			<g>
				<path d="M39.3,68.2c0.6-2.2,1.1-5.1,0.8-7.3l2.1,3.1l3.6,1C43.9,65.6,41.2,66.9,39.3,68.2z"/>
			</g>
		</g>
	</g>
	<g class="st3">
		<path d="M60.8,44L60.8,44l-0.7,0.4L60.1,44l0.9-0.5h0.4v3.9h-0.5V44z"/>
		<path d="M63.9,44L63.9,44l-0.7,0.4L63.1,44l0.9-0.5h0.4v3.9h-0.5V44z"/>
	</g>
</g>
<g id="Stroke9" class="st1">
	<path class="st2" d="M56.9,88.2"/>
	<g class="st3">
		<path d="M67.9,36h-2.7v-5.1h20v-8.1H67.1v-4.9h18.1v-7.5H65.4V5.3h25.9V36H70.2 M35.4,36v-5.1H55v-8.1H37.4v-4.9H55v-7.5H35.6V5.3
			h25.2V36 M31.1,62.3v12H11.3v8.2h-6V8h25.8v52.5 M41.2,58.3 M24.9,14H11.3v23.5h13.6V14z M11.3,68.2h13.6V43.4H11.3V68.2z"/>
	</g>
	<g class="st3">
		<line x1="66.6" y1="40.7" x2="87.1" y2="40.7"/>
		<g>
			<rect x="66.6" y="40" width="16" height="1.5"/>
			<g>
				<path d="M87.1,40.7c-2.1,0.8-4.8,2.1-6.4,3.6l1.3-3.6l-1.3-3.6C82.3,38.6,84.9,39.9,87.1,40.7z"/>
			</g>
		</g>
	</g>
	<g class="st3">
		<path d="M68,44L68,44l-0.7,0.4L67.2,44l0.9-0.5h0.4v3.9H68V44z"/>
		<path d="M72.5,45.4c0,1.3-0.5,2.1-1.4,2.1c-0.8,0-1.3-0.7-1.3-2c0-1.3,0.6-2,1.4-2C72,43.5,72.5,44.2,72.5,45.4z M70.4,45.5
			c0,1,0.3,1.6,0.8,1.6c0.5,0,0.8-0.6,0.8-1.6c0-1-0.2-1.6-0.8-1.6C70.7,43.9,70.4,44.4,70.4,45.5z"/>
	</g>
</g>
<g id="Stroke8" class="st1">
	<path class="st2" d="M56.9,88.2"/>
	<g class="st3">
		<path d="M85.2,36.2l0-5.1v-8.2H67.1V18h18.1v-7.6H65.4V5.3h25.9v30.9 M67.9,36.2 M35.4,36.2v-5.1H55v-8.2H37.4V18H55v-7.6H35.6
			V5.3h25.2v30.9 M31.1,62.8v12.1H11.3v8.3h-6V8h25.8V61 M24.9,14H11.3v23.7h13.6V14z M11.3,68.8h13.6v-25H11.3V68.8z"/>
	</g>
	<g class="st3">
		<line x1="68.2" y1="27.6" x2="81.6" y2="27.6"/>
		<g>
			<rect x="68.2" y="26.8" width="8.9" height="1.5"/>
			<g>
				<path d="M81.6,27.6c-2.1,0.8-4.8,2.1-6.4,3.6l1.3-3.6L75.2,24C76.9,25.5,79.5,26.8,81.6,27.6z"/>
			</g>
		</g>
	</g>
	<g class="st3">
		<path d="M68.8,33.5c0.1,0,0.2,0,0.4,0c0.3,0,0.6-0.2,0.8-0.4c0.3-0.2,0.4-0.6,0.5-1h0c-0.2,0.3-0.5,0.4-0.9,0.4
			c-0.7,0-1.2-0.5-1.2-1.2c0-0.7,0.5-1.4,1.3-1.4s1.3,0.6,1.3,1.6c0,0.9-0.3,1.5-0.7,1.8c-0.3,0.3-0.7,0.5-1.1,0.5
			c-0.2,0-0.4,0-0.5,0V33.5z M69,31.3c0,0.5,0.3,0.8,0.8,0.8c0.4,0,0.6-0.2,0.8-0.4c0,0,0-0.1,0-0.2c0-0.7-0.2-1.2-0.8-1.2
			C69.3,30.3,69,30.7,69,31.3z"/>
	</g>
</g>
<g id="Stroke7" class="st1">
	<path class="st2" d="M56.9,88.2"/>
	<g class="st3">
		<path d="M94.7,90.6 M85.6,36.2L85.2,18v-7.6H65.4V5.3h25.9v30.9 M35.4,36.2v-5.1H55v-8.2H37.4V18H55v-7.6H35.6V5.3h25.2v30.9
			 M31.1,62.8v12.1H11.3v8.3h-6V8h25.8V61 M24.9,14H11.3v23.7h13.6V14z M11.3,68.8h13.6v-25H11.3V68.8z"/>
	</g>
	<g class="st3">
		<path d="M79.7,20.5l0-5.3c0-0.5-0.4-0.9-0.9-0.9l-11.6-0.1l0-1.5l11.6,0.1c1.3,0,2.4,1.1,2.4,2.4l0,5.3L79.7,20.5z"/>
		<g>
			<path d="M80.5,25c-0.8-2.1-2.2-4.8-3.6-6.4l3.6,1.3l3.6-1.3C82.6,20.2,81.2,22.9,80.5,25z"/>
		</g>
	</g>
	<g class="st3">
		<path d="M67.4,18.7c0-0.5,0.3-0.8,0.8-1l0,0c-0.4-0.2-0.6-0.5-0.6-0.9c0-0.6,0.5-1,1.2-1c0.8,0,1.1,0.5,1.1,1
			c0,0.3-0.2,0.7-0.6,0.9v0c0.5,0.2,0.8,0.5,0.8,1c0,0.7-0.6,1.1-1.3,1.1C67.9,19.8,67.4,19.3,67.4,18.7z M69.5,18.7
			c0-0.5-0.3-0.7-0.9-0.9c-0.5,0.1-0.7,0.4-0.7,0.8c0,0.4,0.3,0.7,0.8,0.7C69.2,19.4,69.5,19.1,69.5,18.7z M68,16.8
			c0,0.4,0.3,0.6,0.7,0.7c0.3-0.1,0.6-0.4,0.6-0.7c0-0.3-0.2-0.6-0.7-0.6C68.3,16.2,68,16.4,68,16.8z"/>
	</g>
</g>
<g id="Stroke6" class="st1">
	<g class="st3">
		<path d="M35.4,36.2v-5.1H55v-8.2H37.4V18H55v-7.6H35.6V5.3h25.2v30.9 M31.1,62.8v12.1H11.3v8.3h-6V8h25.8V61 M24.9,14H11.3v23.7
			h13.6V14z M11.3,68.8h13.6v-25H11.3V68.8z"/>
	</g>
	<g class="st3">
		<line x1="36.5" y1="41.1" x2="53.5" y2="41.1"/>
		<g>
			<rect x="36.5" y="40.3" width="12.5" height="1.5"/>
			<g>
				<path d="M53.5,41.1c-2.1,0.8-4.8,2.1-6.4,3.6l1.3-3.6l-1.3-3.6C48.7,39,51.4,40.3,53.5,41.1z"/>
			</g>
		</g>
	</g>
	<g class="st3">
		<path d="M39.3,44.9v0.3l-1.7,3.5H37l1.7-3.4v0h-1.9v-0.4H39.3z"/>
	</g>
</g>
<g id="Stroke5" class="st1">
	<g class="st3">
		<path d="M94.7,85.2 M69.4,85.2 M55,36.2v-5.1v-8.2H37.4V18H55v-7.6H35.6V5.3h25.2v30.9 M31.1,62.8v12.1H11.3v8.3h-6V8h25.8V61
			 M41.2,58.8 M24.9,14H11.3v23.7h13.6V14z M11.3,68.8h13.6v-25H11.3V68.8z M47.4,51.4 M47.4,77"/>
	</g>
	<g class="st3">
		<line x1="38.1" y1="27.3" x2="49.3" y2="27.3"/>
		<g>
			<rect x="38.1" y="26.5" width="6.7" height="1.5"/>
			<g>
				<path d="M49.3,27.3c-2.1,0.8-4.8,2.1-6.4,3.6l1.3-3.6l-1.3-3.6C44.5,25.1,47.2,26.5,49.3,27.3z"/>
			</g>
		</g>
	</g>
	<g class="st3">
		<path d="M40.6,30.5c-0.1,0-0.2,0-0.4,0c-0.8,0.1-1.3,0.7-1.4,1.4h0c0.2-0.2,0.5-0.4,0.9-0.4c0.7,0,1.2,0.5,1.2,1.3
			c0,0.7-0.5,1.4-1.3,1.4c-0.8,0-1.4-0.6-1.4-1.7c0-0.8,0.3-1.4,0.7-1.8c0.3-0.3,0.8-0.5,1.2-0.6c0.2,0,0.3,0,0.4,0V30.5z
			 M40.4,32.7c0-0.6-0.3-0.9-0.8-0.9c-0.3,0-0.6,0.2-0.8,0.5c0,0.1-0.1,0.1-0.1,0.2c0,0.6,0.3,1.1,0.9,1.1
			C40.1,33.7,40.4,33.3,40.4,32.7z"/>
	</g>
</g>
<g id="Stroke4" class="st1">
	<path class="st2" d="M56.9,88.2"/>
	<g class="st3">
		<path d="M55,18v-7.6H35.6V5.3h25.2l-0.3,25.8H55v-8.2 M31.1,62.8v12.1H11.3v8.3h-6V8h25.8V61 M41.2,58.8 M24.9,14H11.3v23.7h13.6
			V14z M11.3,68.8h13.6v-25H11.3V68.8z"/>
	</g>
	<g class="st3">
		<path d="M50.9,23.7h-1.5v-6.5c0-1.3-1.1-2.4-2.4-2.4H35.6v-1.5H47c2.2,0,3.9,1.8,3.9,3.9V23.7z"/>
		<g>
			<path d="M50.2,28.2c-0.8-2.1-2.1-4.8-3.6-6.4l3.6,1.3l3.6-1.3C52.3,23.4,51,26.1,50.2,28.2z"/>
		</g>
	</g>
	<g class="st3">
		<path d="M38.2,17.4h-1.5l-0.1,1c0.1,0,0.2,0,0.3,0c0.3,0,0.6,0.1,0.8,0.2c0.3,0.2,0.6,0.5,0.6,1c0,0.8-0.6,1.3-1.5,1.3
			c-0.4,0-0.8-0.1-1-0.2l0.1-0.4c0.2,0.1,0.5,0.2,0.8,0.2c0.5,0,0.9-0.3,0.9-0.8c0-0.5-0.3-0.9-1.1-0.9c-0.2,0-0.4,0-0.5,0l0.3-1.9
			h1.9V17.4z"/>
	</g>
</g>
<g id="Stroke3" class="st1">
	<path class="st2" d="M56.9,88.2"/>
	<g class="st3">
		<path d="M35.4,31.1 M35.4,36.2 M31.1,62.8v12.1H11.3v8.3h-6V8h25.8V61 M41.2,58.8 M24.9,14H11.3v23.7h13.6V14z M11.3,68.8h13.6
			v-25H11.3V68.8z"/>
	</g>
	<g class="st3">
		<line x1="14.2" y1="79.9" x2="26.4" y2="79.9"/>
		<g>
			<rect x="14.2" y="79.2" width="7.7" height="1.5"/>
			<g>
				<path d="M26.4,79.9c-2.1,0.8-4.8,2.1-6.4,3.6l1.3-3.6L20,76.4C21.6,77.8,24.2,79.2,26.4,79.9z"/>
			</g>
		</g>
	</g>
	<g class="st3">
		<path d="M16.1,87.2v-1.1h-1.8v-0.3l1.7-2.5h0.6v2.4h0.5v0.4h-0.5v1.1H16.1z M16.1,85.7v-1.3c0-0.2,0-0.4,0-0.6h0
			c-0.1,0.2-0.2,0.4-0.3,0.6l-1,1.3v0H16.1z"/>
	</g>
</g>
<g id="Stroke2" class="st1">
	<g class="st3">
		<path d="M31.1,62.8v12.1l-6.2,0.1V43.7H11.3v39.4h-6V8h25.8V61 M24.9,14H11.3v23.7h13.6V14z"/>
	</g>
	<g class="st3">
		<line x1="13" y1="48.3" x2="23.9" y2="48.3"/>
		<g>
			<rect x="13" y="47.5" width="6.3" height="1.5"/>
			<g>
				<path d="M23.9,48.3c-2.1,0.8-4.8,2.1-6.4,3.6l1.3-3.6l-1.3-3.6C19.1,46.1,21.7,47.5,23.9,48.3z"/>
			</g>
		</g>
	</g>
	<g class="st3">
		<path d="M13.2,55.4c0.1,0.1,0.5,0.2,0.9,0.2c0.7,0,0.9-0.4,0.9-0.8c0-0.5-0.5-0.8-1-0.8h-0.3v-0.4h0.3c0.4,0,0.9-0.2,0.9-0.7
			c0-0.3-0.2-0.6-0.7-0.6c-0.3,0-0.6,0.1-0.8,0.3l-0.1-0.4c0.2-0.1,0.6-0.3,1-0.3c0.8,0,1.1,0.5,1.1,0.9c0,0.4-0.2,0.7-0.7,0.9v0
			c0.5,0.1,0.9,0.5,0.9,1c0,0.6-0.5,1.2-1.4,1.2c-0.4,0-0.8-0.1-1-0.3L13.2,55.4z"/>
	</g>
</g>
<g id="Stroke1" class="st1">
	<g class="st3">
		<path d="M31.1,62.8v12.1h-5.7L24.9,14H11.3v69.1h-6V8h25.8V61"/>
	</g>
	<g class="st3">
		<path d="M21.3,27.5L21,18c0-0.6-0.5-1.1-1.2-1.1h-6.9v-1h6.9c1.2,0,2.1,0.9,2.2,2.1l0.3,9.5L21.3,27.5z"/>
		<g>
			<path d="M21.9,30.5c-0.6-1.4-1.5-3.1-2.5-4.2l2.4,0.8l2.3-0.9C23.2,27.3,22.4,29.1,21.9,30.5z"/>
		</g>
	</g>
	<g class="st3">
		<path d="M14.1,22.3V22l0.4-0.4c1-0.9,1.4-1.5,1.5-2c0-0.4-0.2-0.8-0.8-0.8c-0.4,0-0.6,0.2-0.8,0.3l-0.2-0.4
			c0.3-0.2,0.7-0.4,1.1-0.4c0.8,0,1.2,0.6,1.2,1.1c0,0.7-0.5,1.3-1.3,2.1l-0.3,0.3v0h1.8v0.4H14.1z"/>
	</g>
</g>
<g id="Stroke0" class="st1">
	<g class="st3">
		<path d="M34.3,66.3 M11.3,8v75.1h-6V8H11.3z"/>
	</g>
	<linearGradient id="SVGID_1_" gradientUnits="userSpaceOnUse" x1="13.7666" y1="25.0941" x2="13.7666" y2="25.0941">
		<stop  offset="0" style="stop-color:#FFFFFF"/>
		<stop  offset="1" style="stop-color:#000000"/>
	</linearGradient>
	<line class="st4" x1="13.8" y1="9.4" x2="13.8" y2="40.8"/>
	<g class="st3">
		
			<linearGradient id="SVGID_00000007415160482285317790000011302959035912079247_" gradientUnits="userSpaceOnUse" x1="18.2907" y1="22.7109" x2="18.2907" y2="22.7109">
			<stop  offset="0" style="stop-color:#FFFFFF"/>
			<stop  offset="1" style="stop-color:#000000"/>
		</linearGradient>
		<line style="fill:url(#SVGID_00000007415160482285317790000011302959035912079247_);" x1="18.3" y1="9.3" x2="18.3" y2="36.1"/>
		<g>
			<rect x="17.5" y="9.3" width="1.5" height="22.2"/>
			<g>
				<path d="M18.3,36.1c-0.8-2.1-2.1-4.8-3.6-6.4l3.6,1.3l3.6-1.3C20.4,31.3,19.1,34,18.3,36.1z"/>
			</g>
		</g>
	</g>
	<g class="st3">
		<path d="M23.6,10.8L23.6,10.8l-0.7,0.4l-0.1-0.4l0.9-0.5h0.4v3.9h-0.5V10.8z"/>
	</g>
</g>
<g id="Kanji" class="st1">
	<path class="st2" d="M56.9,88.2"/>
	<g class="st3">
		<path d="M94.7,85.2v5.4H47.4v4.1h-6.2V58.8c-2.2,2.8-4.5,5.3-6.8,7.5c-0.7-0.9-2-2.4-3.2-3.5v12.1H11.3v8.3h-6V8h25.8V61
			c6.8-6.7,13-16.3,16.4-24.7H35.4v-5.1H55v-8.2H37.4V18H55v-7.6H35.6V5.3h25.2v30.9h-8.1l3,0.9c-0.2,0.7-0.9,1.1-2,1
			c-1.1,2.5-2.5,5.1-4,7.9h14c1.5-3.1,3.1-6.9,4.1-9.8h-2.7v-5.1h20v-8.2H67.1V18h18.1v-7.6H65.4V5.3h25.9v30.9H70.2l5.6,1.6
			c-0.3,0.6-1,1-2.1,1c-1,2-2.3,4.7-3.7,7.2h22.1v5.4H69.4v7.7h20v4.9h-20v8h20V77h-20v8.2H94.7z M24.9,14H11.3v23.7h13.6V14z
			 M11.3,68.8h13.6v-25H11.3V68.8z M63.4,59.2v-7.7h-16v7.7H63.4z M63.4,72.1v-8h-16v8H63.4z M47.4,77v8.2h16V77H47.4z"/>
	</g>
</g>
</svg>
