<?xml version="1.0" encoding="utf-8"?>
<!-- Generator: Adobe Illustrator 26.2.1, SVG Export Plug-In . SVG Version: 6.00 Build 0)  -->
<svg version="1.1" xmlns="http://www.w3.org/2000/svg" xmlns:xlink="http://www.w3.org/1999/xlink" x="0px" y="0px"
	 viewBox="0 0 100 100" style="enable-background:new 0 0 100 100;" xml:space="preserve" width = "100px" height = "100px">
<style type="text/css">
	.st0{display:none;}
	.st1{display:inline;}
</style> 


		<path d="M34.6,6.8c-0.2,0.5-1,0.9-2.2,0.7c-5.8,7.3-16.2,16.8-25.1,23.1c-0.8-1.5-2.7-4.1-3.9-5.4c8.4-5.5,18.3-14.4,23.4-21.7
			L34.6,6.8z M19.3,52.5c-3.8,4.2-7.6,8.1-11.4,11.4c-0.9-1.3-3-4-4.3-5.2c9.5-7.9,20.5-21,27.4-33.5l7.8,3.2
			c-0.3,0.6-1.1,1-2.3,0.8c-3,5-6.5,10.1-10.3,15"/>

		<path d="M37.9,37.7l-1.2-0.9c1.4-2,2.7-4,3.9-6.1l1.3,0.7C40.7,33.6,39.4,35.7,37.9,37.7z"/>
	
			<path d="M34.6,40.9c0.6-2.2,1.1-5.1,1-7.3l2.1,3.2l3.6,1.1C39.2,38.4,36.5,39.7,34.6,40.9z"/>
	
		<path d="M42.9,33.6v-0.3l0.4-0.4c1-0.9,1.4-1.5,1.5-2c0-0.4-0.2-0.8-0.8-0.8c-0.4,0-0.6,0.2-0.8,0.3L43,30
			c0.3-0.2,0.7-0.4,1.1-0.4c0.8,0,1.2,0.6,1.2,1.1c0,0.7-0.5,1.3-1.3,2.1l-0.3,0.3v0h1.8v0.4H42.9z"/>

</svg>