<?xml version="1.0" encoding="utf-8"?>
<!-- Generator: Adobe Illustrator 26.2.1, SVG Export Plug-In . SVG Version: 6.00 Build 0)  -->
<svg version="1.1" xmlns="http://www.w3.org/2000/svg" xmlns:xlink="http://www.w3.org/1999/xlink" x="0px" y="0px"
	 viewBox="0 0 100 100" style="enable-background:new 0 0 100 100;" xml:space="preserve" width = "100px" height = "100px">
<style type="text/css">
	.st0{display:none;}
	.st1{display:inline;}
</style> 

		<path d="M34.6,6.8c-0.2,0.5-1,0.9-2.2,0.7c-5.8,7.3-16.2,16.8-25.1,23.1c-0.8-1.5-2.7-4.1-3.9-5.4c8.4-5.5,18.3-14.4,23.4-21.7
			L34.6,6.8z"/>

		<path d="M36.3,10.5c-2.1,2.3-4.3,4.6-6.4,6.9c-0.6,0.6-1.2,1.2-1.7,1.8"/>
	
		<path d="M31.7,16.5l-1.1-1c1.7-1.8,3.4-3.6,5.1-5.5l1.1,1C35.1,12.8,33.5,14.6,31.7,16.5z"/>
			
		<path d="M28.1,19.3c0.9-2.1,1.7-4.9,1.8-7.1l1.7,3.4l3.5,1.5C32.9,17.2,30.1,18.2,28.1,19.3z"/>
	
		<path d="M38.9,9.7L38.9,9.7l-0.7,0.4l-0.1-0.4L39,9.2h0.4v3.9h-0.5V9.7z"/>

</svg>