<?xml version="1.0" encoding="utf-8"?>
<!-- Generator: Adobe Illustrator 26.2.1, SVG Export Plug-In . SVG Version: 6.00 Build 0)  -->
<svg version="1.1" xmlns="http://www.w3.org/2000/svg" xmlns:xlink="http://www.w3.org/1999/xlink" x="0px" y="0px"
	 viewBox="0 0 100 100" style="enable-background:new 0 0 100 100;" xml:space="preserve" width = "100px" height = "100px">
<style type="text/css">
	.st0{display:none;}
	.st1{display:inline;}
</style> 

		<path d="M34.6,6.8c-0.2,0.5-1,0.9-2.2,0.7c-5.8,7.3-16.2,16.8-25.1,23.1c-0.8-1.5-2.7-4.1-3.9-5.4c8.4-5.5,18.3-14.4,23.4-21.7
			L34.6,6.8z M19.3,96.5v-44c-3.8,4.2-7.6,8.1-11.4,11.4c-0.9-1.3-3-4-4.3-5.2c9.5-7.9,20.5-21,27.4-33.5l7.8,3.2
			c-0.3,0.6-1.1,1-2.3,0.8c-3,5-6.5,10.1-10.3,15l1.8,0.6c-0.2,0.6-0.8,1.1-2,1.3v50.4H19.3z M92.8,9.8v6.4H42.9V9.8H92.8z"/>

		<path d="M43.2,20.5c0.3,0,13.7,0,13.7,0"/>
	
			<rect x="43.2" y="19.8" width="9.1" height="1.5"/>
	
				<path d="M56.8,20.5c-2.1,0.8-4.8,2.1-6.4,3.6l1.3-3.6l-1.3-3.6C52.1,18.4,54.7,19.7,56.8,20.5z"/>

		<path d="M44.8,26.6v-1.1H43v-0.3l1.7-2.5h0.6v2.4h0.5v0.4h-0.5v1.1H44.8z M44.8,25.2v-1.3c0-0.2,0-0.4,0-0.6h0
			c-0.1,0.2-0.2,0.4-0.3,0.6l-1,1.3v0H44.8z"/>

</svg>