<?xml version="1.0" encoding="utf-8"?>
<!-- Generator: Adobe Illustrator 26.2.1, SVG Export Plug-In . SVG Version: 6.00 Build 0)  -->
<svg version="1.1" xmlns="http://www.w3.org/2000/svg" xmlns:xlink="http://www.w3.org/1999/xlink" x="0px" y="0px"
	 viewBox="0 0 100 100" style="enable-background:new 0 0 100 100;" xml:space="preserve">
<style type="text/css">
	.st0{display:none;}
	.st1{display:inline;}
</style>
<g id="Stroke5">
	<g>
		<path d="M34.6,6.8c-0.2,0.5-1,0.9-2.2,0.7c-5.8,7.3-16.2,16.8-25.1,23.1c-0.8-1.5-2.7-4.1-3.9-5.4c8.4-5.5,18.3-14.4,23.4-21.7
			L34.6,6.8z M19.3,96.5v-44c-3.8,4.2-7.6,8.1-11.4,11.4c-0.9-1.3-3-4-4.3-5.2c9.5-7.9,20.5-21,27.4-33.5l7.8,3.2
			c-0.3,0.6-1.1,1-2.3,0.8c-3,5-6.5,10.1-10.3,15l1.8,0.6c-0.2,0.6-0.8,1.1-2,1.3v50.4H19.3z M96.6,38.9v6.5H80.7v42.3
			c0,8.4-3.2,8.6-23.4,8.6c-0.3-1.9-1.2-4.6-2.2-6.6c4.4,0.1,8.5,0.2,11.6,0.2c6.5,0,7.2,0,7.2-2.3V45.4H39.1v-6.5H96.6z M92.8,9.8
			v6.4H42.9V9.8H92.8z"/>
	</g>
	<g>
		<line x1="69.3" y1="47.3" x2="69.3" y2="59.8"/>
		<g>
			<rect x="68.5" y="47.3" width="1.5" height="8"/>
			<g>
				<path d="M69.3,59.8c-0.8-2.1-2.1-4.8-3.6-6.4l3.6,1.3l3.6-1.3C71.4,55,70.1,57.6,69.3,59.8z"/>
			</g>
		</g>
	</g>
	<g>
		<path d="M66.2,47.4c-0.1,0-0.2,0-0.4,0c-0.8,0.1-1.3,0.7-1.4,1.4h0c0.2-0.2,0.5-0.4,0.9-0.4c0.7,0,1.2,0.5,1.2,1.3
			c0,0.7-0.5,1.4-1.3,1.4c-0.8,0-1.4-0.6-1.4-1.7c0-0.8,0.3-1.4,0.7-1.8c0.3-0.3,0.8-0.5,1.2-0.6c0.2,0,0.3,0,0.4,0V47.4z M66,49.6
			c0-0.6-0.3-0.9-0.8-0.9c-0.3,0-0.6,0.2-0.8,0.5c0,0.1-0.1,0.1-0.1,0.2c0,0.6,0.3,1.1,0.9,1.1C65.7,50.5,66,50.2,66,49.6z"/>
	</g>
</g>
<g id="Stroke4" class="st0">
	<g class="st1">
		<path d="M34.6,6.8c-0.2,0.5-1,0.9-2.2,0.7c-5.8,7.3-16.2,16.8-25.1,23.1c-0.8-1.5-2.7-4.1-3.9-5.4c8.4-5.5,18.3-14.4,23.4-21.7
			L34.6,6.8z M19.3,96.5v-44c-3.8,4.2-7.6,8.1-11.4,11.4c-0.9-1.3-3-4-4.3-5.2c9.5-7.9,20.5-21,27.4-33.5l7.8,3.2
			c-0.3,0.6-1.1,1-2.3,0.8c-3,5-6.5,10.1-10.3,15l1.8,0.6c-0.2,0.6-0.8,1.1-2,1.3v50.4H19.3z M73.9,45.4H39.1v-6.5h57.5v6.5H80.7
			 M92.8,9.8v6.4H42.9V9.8H92.8z"/>
	</g>
	<g class="st1">
		<line x1="39.1" y1="49.4" x2="51.7" y2="49.4"/>
		<g>
			<rect x="39.1" y="48.6" width="8" height="1.5"/>
			<g>
				<path d="M51.7,49.4c-2.1,0.8-4.8,2.1-6.4,3.6l1.3-3.6l-1.3-3.6C46.9,47.2,49.5,48.6,51.7,49.4z"/>
			</g>
		</g>
	</g>
	<g class="st1">
		<path d="M41.4,52h-1.5l-0.2,1c0.1,0,0.2,0,0.3,0c0.3,0,0.6,0.1,0.8,0.2c0.3,0.2,0.6,0.5,0.6,1c0,0.8-0.6,1.3-1.5,1.3
			c-0.4,0-0.8-0.1-1-0.2l0.1-0.4c0.2,0.1,0.5,0.2,0.8,0.2c0.5,0,0.9-0.3,0.9-0.8c0-0.5-0.3-0.9-1.1-0.9c-0.2,0-0.4,0-0.5,0l0.3-1.9
			h1.9V52z"/>
	</g>
</g>
<g id="Stroke3" class="st0">
	<g class="st1">
		<path d="M34.6,6.8c-0.2,0.5-1,0.9-2.2,0.7c-5.8,7.3-16.2,16.8-25.1,23.1c-0.8-1.5-2.7-4.1-3.9-5.4c8.4-5.5,18.3-14.4,23.4-21.7
			L34.6,6.8z M19.3,96.5v-44c-3.8,4.2-7.6,8.1-11.4,11.4c-0.9-1.3-3-4-4.3-5.2c9.5-7.9,20.5-21,27.4-33.5l7.8,3.2
			c-0.3,0.6-1.1,1-2.3,0.8c-3,5-6.5,10.1-10.3,15l1.8,0.6c-0.2,0.6-0.8,1.1-2,1.3v50.4H19.3z M92.8,9.8v6.4H42.9V9.8H92.8z"/>
	</g>
	<g class="st1">
		<path d="M43.2,20.5c0.3,0,13.7,0,13.7,0"/>
		<g>
			<rect x="43.2" y="19.8" width="9.1" height="1.5"/>
			<g>
				<path d="M56.8,20.5c-2.1,0.8-4.8,2.1-6.4,3.6l1.3-3.6l-1.3-3.6C52.1,18.4,54.7,19.7,56.8,20.5z"/>
			</g>
		</g>
	</g>
	<g class="st1">
		<path d="M44.8,26.6v-1.1H43v-0.3l1.7-2.5h0.6v2.4h0.5v0.4h-0.5v1.1H44.8z M44.8,25.2v-1.3c0-0.2,0-0.4,0-0.6h0
			c-0.1,0.2-0.2,0.4-0.3,0.6l-1,1.3v0H44.8z"/>
	</g>
</g>
<g id="Stroke2" class="st0">
	<g class="st1">
		<path d="M34.6,6.8c-0.2,0.5-1,0.9-2.2,0.7c-5.8,7.3-16.2,16.8-25.1,23.1c-0.8-1.5-2.7-4.1-3.9-5.4c8.4-5.5,18.3-14.4,23.4-21.7
			L34.6,6.8z M19.3,96.5v-44c-3.8,4.2-7.6,8.1-11.4,11.4c-0.9-1.3-3-4-4.3-5.2c9.5-7.9,20.5-21,27.4-33.5l7.8,3.2
			c-0.3,0.6-1.1,1-2.3,0.8c-3,5-6.5,10.1-10.3,15l1.8,0.6c-0.2,0.6-0.8,1.1-2,1.3v50.4H19.3z"/>
	</g>
	<g class="st1">
		<line x1="30" y1="45.3" x2="30" y2="56.2"/>
		<g>
			<rect x="29.3" y="45.3" width="1.5" height="6.4"/>
			<g>
				<path d="M30,56.2c-0.8-2.1-2.1-4.8-3.6-6.4l3.6,1.3l3.6-1.3C32.1,51.4,30.8,54.1,30,56.2z"/>
			</g>
		</g>
	</g>
	<g class="st1">
		<path d="M32.7,46.7c0.1,0.1,0.5,0.2,0.9,0.2c0.7,0,0.9-0.4,0.9-0.8c0-0.5-0.5-0.8-1-0.8h-0.3V45h0.3c0.4,0,0.9-0.2,0.9-0.7
			c0-0.3-0.2-0.6-0.7-0.6c-0.3,0-0.6,0.1-0.8,0.3l-0.1-0.4c0.2-0.1,0.6-0.3,1-0.3c0.8,0,1.1,0.5,1.1,0.9c0,0.4-0.2,0.7-0.7,0.9v0
			c0.5,0.1,0.9,0.5,0.9,1c0,0.6-0.5,1.2-1.4,1.2c-0.4,0-0.8-0.1-1-0.3L32.7,46.7z"/>
	</g>
</g>
<g id="Stroke1" class="st0">
	<g class="st1">
		<path d="M34.6,6.8c-0.2,0.5-1,0.9-2.2,0.7c-5.8,7.3-16.2,16.8-25.1,23.1c-0.8-1.5-2.7-4.1-3.9-5.4c8.4-5.5,18.3-14.4,23.4-21.7
			L34.6,6.8z M19.3,52.5c-3.8,4.2-7.6,8.1-11.4,11.4c-0.9-1.3-3-4-4.3-5.2c9.5-7.9,20.5-21,27.4-33.5l7.8,3.2
			c-0.3,0.6-1.1,1-2.3,0.8c-3,5-6.5,10.1-10.3,15"/>
	</g>
	<g class="st1">
		<path d="M37.9,37.7l-1.2-0.9c1.4-2,2.7-4,3.9-6.1l1.3,0.7C40.7,33.6,39.4,35.7,37.9,37.7z"/>
		<g>
			<path d="M34.6,40.9c0.6-2.2,1.1-5.1,1-7.3l2.1,3.2l3.6,1.1C39.2,38.4,36.5,39.7,34.6,40.9z"/>
		</g>
	</g>
	<g class="st1">
		<path d="M42.9,33.6v-0.3l0.4-0.4c1-0.9,1.4-1.5,1.5-2c0-0.4-0.2-0.8-0.8-0.8c-0.4,0-0.6,0.2-0.8,0.3L43,30
			c0.3-0.2,0.7-0.4,1.1-0.4c0.8,0,1.2,0.6,1.2,1.1c0,0.7-0.5,1.3-1.3,2.1l-0.3,0.3v0h1.8v0.4H42.9z"/>
	</g>
</g>
<g id="Stroke0" class="st0">
	<g class="st1">
		<path d="M34.6,6.8c-0.2,0.5-1,0.9-2.2,0.7c-5.8,7.3-16.2,16.8-25.1,23.1c-0.8-1.5-2.7-4.1-3.9-5.4c8.4-5.5,18.3-14.4,23.4-21.7
			L34.6,6.8z"/>
	</g>
	<g class="st1">
		<path d="M36.3,10.5c-2.1,2.3-4.3,4.6-6.4,6.9c-0.6,0.6-1.2,1.2-1.7,1.8"/>
		<g>
			<path d="M31.7,16.5l-1.1-1c1.7-1.8,3.4-3.6,5.1-5.5l1.1,1C35.1,12.8,33.5,14.6,31.7,16.5z"/>
			<g>
				<path d="M28.1,19.3c0.9-2.1,1.7-4.9,1.8-7.1l1.7,3.4l3.5,1.5C32.9,17.2,30.1,18.2,28.1,19.3z"/>
			</g>
		</g>
	</g>
	<g class="st1">
		<path d="M38.9,9.7L38.9,9.7l-0.7,0.4l-0.1-0.4L39,9.2h0.4v3.9h-0.5V9.7z"/>
	</g>
</g>
<g id="Kanji" class="st0">
	<g class="st1">
		<path d="M34.6,6.8c-0.2,0.5-1,0.9-2.2,0.7c-5.8,7.3-16.2,16.8-25.1,23.1c-0.8-1.5-2.7-4.1-3.9-5.4c8.4-5.5,18.3-14.4,23.4-21.7
			L34.6,6.8z M19.3,96.5v-44c-3.8,4.2-7.6,8.1-11.4,11.4c-0.9-1.3-3-4-4.3-5.2c9.5-7.9,20.5-21,27.4-33.5l7.8,3.2
			c-0.3,0.6-1.1,1-2.3,0.8c-3,5-6.5,10.1-10.3,15l1.8,0.6c-0.2,0.6-0.8,1.1-2,1.3v50.4H19.3z M96.6,38.9v6.5H80.7v42.3
			c0,8.4-3.2,8.6-23.4,8.6c-0.3-1.9-1.2-4.6-2.2-6.6c4.4,0.1,8.5,0.2,11.6,0.2c6.5,0,7.2,0,7.2-2.3V45.4H39.1v-6.5H96.6z M92.8,9.8
			v6.4H42.9V9.8H92.8z"/>
	</g>
</g>
</svg>
