<?xml version="1.0" encoding="utf-8"?>
<!-- Generator: Adobe Illustrator 26.2.1, SVG Export Plug-In . SVG Version: 6.00 Build 0)  -->
<svg version="1.1" xmlns="http://www.w3.org/2000/svg" xmlns:xlink="http://www.w3.org/1999/xlink" x="0px" y="0px"
	 viewBox="0 0 100 100" style="enable-background:new 0 0 100 100;" xml:space="preserve">
<style type="text/css">
	.st0{display:none;}
	.st1{display:inline;fill:none;}
	.st2{display:inline;}
	.st3{fill:none;}
</style>
<g id="Stroke3" class="st0">
	<rect x="17.2" y="27.6" class="st1" width="12.6" height="0"/>
	<g class="st2">
		<path d="M36.5,29.8l4.8,2.2c-0.2,0.4-0.6,0.9-1.1,1.2C35,58.4,22.7,77,7.8,87.1c-1.2-1.7-3.8-4.3-5.4-5.4
			c13.5-8.4,24.7-23.9,29.8-44.8H5.1v-6.8h30.2L36.5,29.8z M53.5,22c2.2,8.3,5.2,16.3,8.8,23.7c8.4-7.1,18.6-17.6,24.8-25.7l7.1,5.3
			c-0.5,0.6-1.4,0.7-2.2,0.6c-6.9,7.6-18.1,18.3-26.8,25.3c8,14,18.7,25.3,32.4,31.1c-1.7,1.4-4,4.1-5.2,6.1
			c-18.2-8.7-30.7-26.5-38.9-48.2v46.3c0,9.1-4.2,9.9-23,9.9c-0.4-2-1.7-5.4-2.8-7.3c3.8,0.1,7.3,0.1,10.1,0.1c8.4,0,8.7,0,8.7-2.7
			V3.6l9,0.5c-0.1,0.8-0.6,1.3-2,1.4V22z"/>
	</g>
	<g class="st2">
		<path d="M74.9,82.3C66.3,77.4,60,69.2,55.9,57.8l1.4-0.5c3.9,11,10,19,18.3,23.7L74.9,82.3z"/>
		<g>
			<path d="M79.3,83.6c-2.3-0.2-5.2-0.2-7.3,0.3l2.7-2.6l0.4-3.8C76,79.6,77.8,82,79.3,83.6z"/>
		</g>
	</g>
	<g class="st2">
		<path d="M56.7,70.6v-1.1h-1.8v-0.3l1.7-2.5h0.6v2.4h0.5v0.4h-0.5v1.1H56.7z M56.7,69.1v-1.3c0-0.2,0-0.4,0-0.6h0
			c-0.1,0.2-0.2,0.4-0.3,0.6l-1,1.3v0H56.7z"/>
	</g>
</g>
<g id="Stroke2" class="st0">
	<rect x="17.2" y="27.6" class="st1" width="12.6" height="0"/>
	<g class="st2">
		<path d="M36.5,29.8l4.8,2.2c-0.2,0.4-0.6,0.9-1.1,1.2C35,58.4,22.7,77,7.8,87.1c-1.2-1.7-3.8-4.3-5.4-5.4
			c13.5-8.4,24.7-23.9,29.8-44.8H5.1v-6.8h30.2L36.5,29.8z M62.3,45.7c8.4-7.1,18.6-17.6,24.8-25.7l7.1,5.3
			c-0.5,0.6-1.4,0.7-2.2,0.6c-6.9,7.6-18.1,18.3-26.8,25.3 M53.5,40.2v46.3c0,9.1-4.2,9.9-23,9.9c-0.4-2-1.7-5.4-2.8-7.3
			c3.8,0.1,7.3,0.1,10.1,0.1c8.4,0,8.7,0,8.7-2.7V3.6l9,0.5c-0.1,0.8-0.6,1.3-2,1.4"/>
	</g>
	<g class="st2">
		<path d="M72.2,51.5l-0.8-1.3c8.1-5.1,15.2-12.1,21-20.8l1.2,0.8C87.8,39.1,80.5,46.3,72.2,51.5z"/>
		<g>
			<path d="M67.9,53.1c1.4-1.8,3-4.3,3.7-6.3l0.7,3.7l2.9,2.4C73.1,52.5,70.2,52.7,67.9,53.1z"/>
		</g>
	</g>
	<g class="st2">
		<path d="M93.1,37.2c0.2,0.1,0.5,0.2,0.9,0.2c0.7,0,0.9-0.4,0.9-0.8c0-0.5-0.5-0.8-1-0.8h-0.3v-0.4h0.3c0.4,0,0.9-0.2,0.9-0.7
			c0-0.3-0.2-0.6-0.7-0.6c-0.3,0-0.6,0.1-0.8,0.3l-0.1-0.4c0.2-0.1,0.6-0.3,1-0.3c0.8,0,1.1,0.5,1.1,0.9c0,0.4-0.2,0.7-0.7,0.9v0
			c0.5,0.1,0.9,0.5,0.9,1c0,0.6-0.5,1.2-1.4,1.2c-0.4,0-0.8-0.1-1-0.3L93.1,37.2z"/>
	</g>
</g>
<g id="Stroke1" class="st0">
	<rect x="17.2" y="27.6" class="st1" width="12.6" height="0"/>
	<g class="st2">
		<path d="M36.5,29.8l4.8,2.2c-0.2,0.4-0.6,0.9-1.1,1.2C35,58.4,22.7,77,7.8,87.1c-1.2-1.7-3.8-4.3-5.4-5.4
			c13.5-8.4,24.7-23.9,29.8-44.8H5.1v-6.8h30.2L36.5,29.8z M53.5,40.2v46.3c0,9.1-4.2,9.9-23,9.9c-0.4-2-1.7-5.4-2.8-7.3
			c3.8,0.1,7.3,0.1,10.1,0.1c8.4,0,8.7,0,8.7-2.7V3.6l9,0.5c-0.1,0.8-0.6,1.3-2,1.4V22"/>
	</g>
	<g class="st2">
		<path d="M19.8,59.1l-1.4-0.6L25,44.7c0.3-0.7,0.3-1.5-0.1-2.1c-0.4-0.6-1.1-1-1.9-1H7.1V40H23c1.3,0,2.5,0.6,3.1,1.7
			c0.7,1.1,0.8,2.4,0.2,3.6L19.8,59.1z"/>
		<g>
			<path d="M17.2,62.8c0.2-2.3,0.1-5.2-0.5-7.3l2.7,2.7l3.8,0.4C21.2,59.5,18.8,61.3,17.2,62.8z"/>
		</g>
	</g>
	<g class="st2">
		<path d="M7.5,47.8v-0.3l0.4-0.4c1-0.9,1.4-1.5,1.5-2c0-0.4-0.2-0.8-0.8-0.8c-0.4,0-0.6,0.2-0.8,0.3l-0.2-0.4
			c0.3-0.2,0.7-0.4,1.1-0.4c0.8,0,1.2,0.6,1.2,1.1c0,0.7-0.5,1.3-1.3,2.1l-0.3,0.3v0H10v0.4H7.5z"/>
	</g>
</g>
<g id="Stroke0" class="st0">
	<g class="st2">
		<path d="M53.5,40.2v46.3c0,9.1-4.2,9.9-23,9.9c-0.4-2-1.7-5.4-2.8-7.3c3.8,0.1,7.3,0.1,10.1,0.1c8.4,0,8.7,0,8.7-2.7V3.6l9,0.5
			c-0.1,0.8-0.6,1.3-2,1.4V22"/>
	</g>
	<g class="st2">
		<line x1="58.7" y1="5.7" x2="58.7" y2="31"/>
		<g>
			<rect x="58" y="5.7" width="1.5" height="20.8"/>
			<g>
				<path d="M58.7,31c-0.8-2.1-2.1-4.8-3.6-6.4l3.6,1.3l3.6-1.3C60.9,26.2,59.5,28.8,58.7,31z"/>
			</g>
		</g>
	</g>
	<g class="st2">
		<path d="M63.7,7.2L63.7,7.2L63,7.6l-0.1-0.4l0.9-0.5h0.4v3.9h-0.5V7.2z"/>
	</g>
</g>
<g id="Kanji">
	<rect x="17.2" y="27.6" class="st3" width="12.6" height="0"/>
	<g>
		<path d="M36.5,29.8l4.8,2.2c-0.2,0.4-0.6,0.9-1.1,1.2C35,58.4,22.7,77,7.8,87.1c-1.2-1.7-3.8-4.3-5.4-5.4
			c13.5-8.4,24.7-23.9,29.8-44.8H5.1v-6.8h30.2L36.5,29.8z M53.5,22c2.2,8.3,5.2,16.3,8.8,23.7c8.4-7.1,18.6-17.6,24.8-25.7l7.1,5.3
			c-0.5,0.6-1.4,0.7-2.2,0.6c-6.9,7.6-18.1,18.3-26.8,25.3c8,14,18.7,25.3,32.4,31.1c-1.7,1.4-4,4.1-5.2,6.1
			c-18.2-8.7-30.7-26.5-38.9-48.2v46.3c0,9.1-4.2,9.9-23,9.9c-0.4-2-1.7-5.4-2.8-7.3c3.8,0.1,7.3,0.1,10.1,0.1c8.4,0,8.7,0,8.7-2.7
			V3.6l9,0.5c-0.1,0.8-0.6,1.3-2,1.4V22z"/>
	</g>
</g>
</svg>
