<?xml version="1.0" encoding="utf-8"?>
<!-- Generator: Adobe Illustrator 26.2.1, SVG Export Plug-In . SVG Version: 6.00 Build 0)  -->
<svg version="1.1" xmlns="http://www.w3.org/2000/svg" xmlns:xlink="http://www.w3.org/1999/xlink" x="0px" y="0px"
	 viewBox="0 0 100 100" style="enable-background:new 0 0 100 100;" xml:space="preserve" width = "100px" height = "100px">
<style type="text/css">
	.st0{display:none;}
	.st1{display:inline;}
</style>

		<path d="M30.6,66.5C36,72,41.8,79.7,44.2,85l-5.3,3.2c-0.7-1.5-1.6-3.3-2.8-5.2C25.7,85.9,15,88.9,7.9,90.6c0,0.8-0.5,1.3-1.1,1.6
			l-3.3-7.3l7.4-1.6V31.4c-1.1,1.1-2.2,2.2-3.4,3.3c-1.2-1.4-3.4-3.4-4.9-4.3c9.7-8.1,16.8-18.8,20.9-27l8.1,1.3
			c-0.2,0.7-0.7,1.1-1.8,1.3c6.5,4.6,14.1,11.2,17.9,15.6l-4.8,4.6C39.5,22,32.8,15.8,26.7,11c-3.7,6-8.5,12.8-14.5,19.1h11.5v-9.8
			l7.8,0.5c-0.1,0.7-0.7,1.1-1.9,1.3v8h12.8v32.6H17.2v19c4.9-1.1,10.3-2.4,15.6-3.7c-2.2-3.1-4.8-6.2-7.2-8.8L30.6,66.5z
			 M36.2,35.4h-19v8.2h19V35.4z M17.2,57.5h19v-8.6h-19V57.5z M59.4,28.1c-2.4,8.4-5.5,16-9.2,21.5c-1.3-1.1-3.9-2.7-5.5-3.6
			c6.4-9.3,10.7-25.9,13.1-42.5l8.6,1.7c-0.3,0.8-1,1.2-2.2,1.2c-0.8,5.2-1.9,10.4-3.1,15.5 M70.2,55.3L70.2,55.3 M73.4,28.1"/>

		<path d="M67.1,15.1l-1.5-0.4c0.7-2.6,1.2-5.2,1.6-7.9l1.5,0.2C68.4,9.8,67.8,12.5,67.1,15.1z"/>
	
			<path d="M65.1,19.3c-0.2-2.3-0.8-5.2-1.7-7.1l3.1,2.2l3.8-0.3C68.5,15.3,66.5,17.5,65.1,19.3z"/>

		<path d="M70.6,9.9c0.1,0,0.2,0,0.4,0c0.3,0,0.6-0.2,0.8-0.4c0.3-0.2,0.4-0.6,0.5-1h0c-0.2,0.3-0.5,0.4-0.9,0.4
			c-0.7,0-1.2-0.5-1.2-1.2c0-0.7,0.5-1.4,1.3-1.4c0.8,0,1.3,0.6,1.3,1.6c0,0.9-0.3,1.5-0.7,1.8c-0.3,0.3-0.7,0.5-1.1,0.5
			c-0.2,0-0.4,0-0.5,0V9.9z M70.8,7.7c0,0.5,0.3,0.8,0.8,0.8c0.4,0,0.6-0.2,0.8-0.4c0,0,0-0.1,0-0.2c0-0.7-0.2-1.2-0.8-1.2
			C71.1,6.7,70.8,7.1,70.8,7.7z"/>


 </svg>