<?xml version="1.0" encoding="utf-8"?>
<!-- Generator: Adobe Illustrator 26.2.1, SVG Export Plug-In . SVG Version: 6.00 Build 0)  -->
<svg version="1.1" xmlns="http://www.w3.org/2000/svg" xmlns:xlink="http://www.w3.org/1999/xlink" x="0px" y="0px"
	 viewBox="0 0 100 100" style="enable-background:new 0 0 100 100;" xml:space="preserve" width = "100px" height = "100px">
<style type="text/css">
	.st0{display:none;}
	.st1{display:inline;}
</style>

		<path d="M36.1,83C25.7,85.9,15,88.9,7.9,90.6c0,0.8-0.5,1.3-1.1,1.6l-3.3-7.3l7.4-1.6V31.4c-1.1,1.1-2.2,2.2-3.4,3.3
			c-1.2-1.4-3.4-3.4-4.9-4.3c9.7-8.1,16.8-18.8,20.9-27l8.1,1.3c-0.2,0.7-0.7,1.1-1.8,1.3c6.5,4.6,14.1,11.2,17.9,15.6l-4.8,4.6
			C39.5,22,32.8,15.8,26.7,11c-3.7,6-8.5,12.8-14.5,19.1h11.5v-9.8l7.8,0.5c-0.1,0.7-0.7,1.1-1.9,1.3v8h12.8v32.6H17.2v19
			c4.9-1.1,10.3-2.4,15.6-3.7 M36.2,35.4h-19v8.2h19V35.4z M17.2,57.5h19v-8.6h-19V57.5z"/>

		<path d="M22.1,76.8c-0.9,0-1.7-0.3-2.4-0.9c-0.6-0.6-1-1.3-1-2.1v-9.7h1.5v9.7c0,0.4,0.2,0.7,0.5,1c0.4,0.4,1,0.5,1.6,0.5l2.3-0.3
			l0.2,1.5l-2.3,0.3C22.4,76.8,22.3,76.8,22.1,76.8z"/>

			<path d="M29.2,75.3c-2,1-4.5,2.7-6,4.3l0.9-3.7l-1.7-3.4C24.3,73.7,27,74.7,29.2,75.3z"/>

		<path d="M24.5,64.4v0.3l-1.7,3.5h-0.5l1.7-3.4v0H22v-0.4H24.5z"/>

 </svg>