<?xml version="1.0" encoding="utf-8"?>
<!-- Generator: Adobe Illustrator 26.2.1, SVG Export Plug-In . SVG Version: 6.00 Build 0)  -->
<svg version="1.1" xmlns="http://www.w3.org/2000/svg" xmlns:xlink="http://www.w3.org/1999/xlink" x="0px" y="0px"
	 viewBox="0 0 100 100" style="enable-background:new 0 0 100 100;" xml:space="preserve" width = "100px" height = "100px">
<style type="text/css">
	.st0{display:none;}
	.st1{display:inline;}
</style>

		<path d="M17.1,43.7l19.2-0.1v-8.2h-19h-5l0-5.3l-4.7,4.6c-1.2-1.4-3.4-3.4-4.9-4.3c9.7-8.1,16.8-18.8,20.9-27l8.1,1.3
			c-0.2,0.7-0.7,1.1-1.8,1.3c6.5,4.6,14.1,11.2,17.9,15.6l-4.8,4.6C39.5,22,32.8,15.8,26.7,11c-3.7,6-8.5,12.8-14.5,19.1h11.5v-9.8
			l7.8,0.5c-0.1,0.7-0.7,1.1-1.9,1.3v8h12.8v32.6H17.2v-5.3h19v-8.6l-19,0.2"/>

		<path d="M17.4,66.6c2.6,0,10.9,0,10.5,0"/>
	
			<path d="M23.4,67.4l-1.9,0c-1.6,0-3.2,0-4.1,0l0-1.5c0.9,0,2.4,0,4.1,0l1.9,0L23.4,67.4z"/>
	
				<path d="M27.9,66.6c-2.1,0.8-4.8,2.1-6.4,3.6l1.3-3.6l-1.3-3.6C23.1,64.5,25.8,65.8,27.9,66.6z"/>

		<path d="M17.8,69.8c-0.1,0-0.2,0-0.4,0c-0.8,0.1-1.3,0.7-1.4,1.4h0c0.2-0.2,0.5-0.4,0.9-0.4c0.7,0,1.2,0.5,1.2,1.3
			c0,0.7-0.5,1.4-1.3,1.4c-0.8,0-1.4-0.6-1.4-1.7c0-0.8,0.3-1.4,0.7-1.8c0.3-0.3,0.8-0.5,1.2-0.6c0.2,0,0.3,0,0.4,0V69.8z
			 M17.7,72.1c0-0.6-0.3-0.9-0.8-0.9c-0.3,0-0.6,0.2-0.8,0.5c0,0.1-0.1,0.1-0.1,0.2c0,0.6,0.3,1.1,0.9,1.1
			C17.3,73,17.7,72.6,17.7,72.1z"/>
	
 </svg>