<?xml version="1.0" encoding="utf-8"?>
<!-- Generator: Adobe Illustrator 26.2.1, SVG Export Plug-In . SVG Version: 6.00 Build 0)  -->
<svg version="1.1" xmlns="http://www.w3.org/2000/svg" xmlns:xlink="http://www.w3.org/1999/xlink" x="0px" y="0px"
	 viewBox="0 0 100 100" style="enable-background:new 0 0 100 100;" xml:space="preserve" width = "100px" height = "100px">
<style type="text/css">
	.st0{display:none;}
	.st1{display:inline;}
</style>


		<path d="M30.6,66.5C36,72,41.8,79.7,44.2,85l-5.3,3.2c-0.7-1.5-1.6-3.3-2.8-5.2C25.7,85.9,15,88.9,7.9,90.6c0,0.8-0.5,1.3-1.1,1.6
			l-3.3-7.3l7.4-1.6V31.4c-1.1,1.1-2.2,2.2-3.4,3.3c-1.2-1.4-3.4-3.4-4.9-4.3c9.7-8.1,16.8-18.8,20.9-27l8.1,1.3
			c-0.2,0.7-0.7,1.1-1.8,1.3c6.5,4.6,14.1,11.2,17.9,15.6l-4.8,4.6C39.5,22,32.8,15.8,26.7,11c-3.7,6-8.5,12.8-14.5,19.1h11.5v-9.8
			l7.8,0.5c-0.1,0.7-0.7,1.1-1.9,1.3v8h12.8v32.6H17.2v19c4.9-1.1,10.3-2.4,15.6-3.7c-2.2-3.1-4.8-6.2-7.2-8.8L30.6,66.5z
			 M36.2,35.4h-19v8.2h19V35.4z M17.2,57.5h19v-8.6h-19V57.5z"/>

		<path d="M39.3,71.5c-1.5-1.8-3-3.4-4.7-4.8l1-1.1c1.7,1.5,3.3,3.1,4.8,5L39.3,71.5z"/>

			<path d="M42.6,74.6c-1.9-1.2-4.6-2.5-6.7-2.9l3.6-1.2l2-3.2C41.4,69.5,41.9,72.5,42.6,74.6z"/>
	
		<path d="M38.4,66.5c0-0.5,0.3-0.8,0.8-1l0,0c-0.4-0.2-0.6-0.5-0.6-0.9c0-0.6,0.5-1,1.2-1c0.8,0,1.1,0.5,1.1,1
			c0,0.3-0.2,0.7-0.6,0.9v0c0.5,0.2,0.8,0.5,0.8,1c0,0.7-0.6,1.1-1.3,1.1C38.9,67.5,38.4,67,38.4,66.5z M40.5,66.4
			c0-0.5-0.3-0.7-0.9-0.9C39.2,65.7,39,66,39,66.4c0,0.4,0.3,0.7,0.8,0.7C40.2,67.1,40.5,66.8,40.5,66.4z M39.1,64.5
			c0,0.4,0.3,0.6,0.7,0.7c0.3-0.1,0.6-0.4,0.6-0.7c0-0.3-0.2-0.6-0.7-0.6C39.3,63.9,39.1,64.1,39.1,64.5z"/>

 </svg>