<?xml version="1.0" encoding="utf-8"?>
<!-- Generator: Adobe Illustrator 26.2.1, SVG Export Plug-In . SVG Version: 6.00 Build 0)  -->
<svg version="1.1" xmlns="http://www.w3.org/2000/svg" xmlns:xlink="http://www.w3.org/1999/xlink" x="0px" y="0px"
	 viewBox="0 0 100 100" style="enable-background:new 0 0 100 100;" xml:space="preserve" width = "100px" height = "100px">
<style type="text/css">
	.st0{display:none;}
	.st1{display:inline;}
</style> 

		<path d="M10.9,31.4c-1.1,1.1-2.2,2.2-3.4,3.3c-1.2-1.4-3.4-3.4-4.9-4.3c9.7-8.1,16.8-18.8,20.9-27l8.1,1.3
			c-0.2,0.7-0.7,1.1-1.8,1.3"/>

		<path d="M33.3,8.2c-1.6,2.2-3.2,4.5-4.8,6.8c-0.9,1.3-1.7,2.5-2.6,3.7"/>
	
			<path d="M29.1,15.4l-1.2-0.8c1.6-2.3,3.2-4.6,4.8-6.8l1.2,0.9C32.3,10.8,30.7,13.1,29.1,15.4z"/>
		
				<path d="M25.9,18.7c0.6-2.2,1-5.1,0.7-7.3l2.2,3.1l3.7,1C30.4,16,27.8,17.4,25.9,18.7z"/>
	
		<path d="M36.2,6.4L36.2,6.4l-0.7,0.4l-0.1-0.4l0.9-0.5h0.4v3.9h-0.5V6.4z"/>



</svg>