<?xml version="1.0" encoding="utf-8"?>
<!-- Generator: Adobe Illustrator 26.2.1, SVG Export Plug-In . SVG Version: 6.00 Build 0)  -->
<svg version="1.1" xmlns="http://www.w3.org/2000/svg" xmlns:xlink="http://www.w3.org/1999/xlink" x="0px" y="0px"
	 viewBox="0 0 100 100" style="enable-background:new 0 0 100 100;" xml:space="preserve" width = "100px" height = "100px">
<style type="text/css">
	.st0{display:none;}
	.st1{display:inline;}
</style>

		<path d="M30.6,66.5C36,72,41.8,79.7,44.2,85l-5.3,3.2c-0.7-1.5-1.6-3.3-2.8-5.2C25.7,85.9,15,88.9,7.9,90.6c0,0.8-0.5,1.3-1.1,1.6
			l-3.3-7.3l7.4-1.6V31.4c-1.1,1.1-2.2,2.2-3.4,3.3c-1.2-1.4-3.4-3.4-4.9-4.3c9.7-8.1,16.8-18.8,20.9-27l8.1,1.3
			c-0.2,0.7-0.7,1.1-1.8,1.3c6.5,4.6,14.1,11.2,17.9,15.6l-4.8,4.6C39.5,22,32.8,15.8,26.7,11c-3.7,6-8.5,12.8-14.5,19.1h11.5v-9.8
			l7.8,0.5c-0.1,0.7-0.7,1.1-1.9,1.3v8h12.8v32.6H17.2v19c4.9-1.1,10.3-2.4,15.6-3.7c-2.2-3.1-4.8-6.2-7.2-8.8L30.6,66.5z
			 M36.2,35.4h-19v8.2h19V35.4z M17.2,57.5h19v-8.6h-19V57.5z M73.4,28.1v12c-0.1,7.7,3,36.8,24,50.5c-1.3,1.5-3.3,4.2-4.3,5.9
			c-16.8-11.4-22-33-22.9-41.3h-0.1c-1,8.4-6.6,29.4-24.7,41.2c-0.8-1.4-2.8-4.1-4-5.4c22.5-14.2,25.4-42.8,25.4-50.9v-12h-7.4
			c-2.4,8.4-5.5,16-9.2,21.5c-1.3-1.1-3.9-2.7-5.5-3.6c6.4-9.3,10.7-25.9,13.1-42.5l8.6,1.7c-0.3,0.8-1,1.2-2.2,1.2
			c-0.8,5.2-1.9,10.4-3.1,15.5H91l4,0.2c0,2-3,19.2-6.6,28.4l-5.1-2.7c1.6-5,3.2-12.7,4.3-19.7H73.4z"/>

		<line x1="78.3" y1="50.1" x2="81.3" y2="59.4"/>

			<rect x="78.3" y="49.9" transform="matrix(0.9495 -0.3137 0.3137 0.9495 -12.4936 27.464)" width="1.5" height="5.3"/>

				<path d="M81.3,59.4c-1.4-1.8-3.5-3.9-5.4-5l3.8,0.1l3-2.3C81.9,54.2,81.4,57.1,81.3,59.4z"/>

		<path d="M77.7,45L77.7,45l-0.7,0.4L77,44.9l0.9-0.5h0.4v3.9h-0.5V45z"/>
		<path d="M79.7,48.4v-0.3l0.4-0.4c1-0.9,1.4-1.5,1.5-2c0-0.4-0.2-0.8-0.8-0.8c-0.4,0-0.6,0.2-0.8,0.3l-0.2-0.4
			c0.3-0.2,0.7-0.4,1.1-0.4c0.8,0,1.2,0.6,1.2,1.1c0,0.7-0.5,1.3-1.3,2.1l-0.3,0.3v0h1.8v0.4H79.7z"/>

 </svg>