<?xml version="1.0" encoding="utf-8"?>
<!-- Generator: Adobe Illustrator 26.2.1, SVG Export Plug-In . SVG Version: 6.00 Build 0)  -->
<svg version="1.1" xmlns="http://www.w3.org/2000/svg" xmlns:xlink="http://www.w3.org/1999/xlink" x="0px" y="0px"
	 viewBox="0 0 100 100" style="enable-background:new 0 0 100 100;" xml:space="preserve" width = "100px" height = "100px">
<style type="text/css">
	.st0{display:none;}
	.st1{display:inline;}
</style> 

		<path d="M17.2,35.4h-6.1l-0.2-4c-1.1,1.1-2.2,2.2-3.4,3.3c-1.2-1.4-3.4-3.4-4.9-4.3c9.7-8.1,16.8-18.8,20.9-27l8.1,1.3
			c-0.2,0.7-0.7,1.1-1.8,1.3c6.5,4.6,14.1,11.2,17.9,15.6l-4.8,4.6C39.5,22,32.8,15.8,26.7,11c-3.7,6-8.5,12.8-14.5,19.1h11.5v-9.8
			l7.8,0.5c-0.1,0.7-0.7,1.1-1.9,1.3v8h12.8v32.6h-6.2V48.8h-19 M17.2,43.6h19v-8.2h-19"/>

	<path class="st2" d="M115,14.2"/>

		<path d="M17.2,52.9c2.4-0.1,11.2,0,10.8,0"/>
	
			<path d="M17.3,53.7l-0.1-1.5c1.2-0.1,4.1-0.1,6.3,0l0,1.5C21.3,53.6,18.5,53.6,17.3,53.7z"/>
	
				<path d="M28.1,52.9c-2.1,0.8-4.8,2.1-6.4,3.5l1.3-3.6l-1.3-3.6C23.3,50.7,25.9,52.1,28.1,52.9z"/>
		
		<path d="M15.2,51.5h-1.5l-0.1,1c0.1,0,0.2,0,0.3,0c0.3,0,0.6,0.1,0.8,0.2c0.3,0.2,0.6,0.5,0.6,1c0,0.8-0.6,1.3-1.5,1.3
			c-0.4,0-0.8-0.1-1-0.2l0.1-0.4c0.2,0.1,0.5,0.2,0.8,0.2c0.5,0,0.9-0.3,0.9-0.8c0-0.5-0.3-0.9-1.1-0.9c-0.2,0-0.4,0-0.5,0l0.3-1.9
			h1.9V51.5z"/>

</svg>