<?xml version="1.0" encoding="utf-8"?>
<!-- Generator: Adobe Illustrator 26.2.1, SVG Export Plug-In . SVG Version: 6.00 Build 0)  -->
<svg version="1.1" xmlns="http://www.w3.org/2000/svg" xmlns:xlink="http://www.w3.org/1999/xlink" x="0px" y="0px"
	 viewBox="0 0 100 100" style="enable-background:new 0 0 100 100;" xml:space="preserve">
<style type="text/css">
	.st0{display:none;}
	.st1{display:inline;}
	.st2{display:inline;fill:none;}
</style>
<g id="Stroke11">
	<g>
		<path d="M30.6,66.5C36,72,41.8,79.7,44.2,85l-5.3,3.2c-0.7-1.5-1.6-3.3-2.8-5.2C25.7,85.9,15,88.9,7.9,90.6c0,0.8-0.5,1.3-1.1,1.6
			l-3.3-7.3l7.4-1.6V31.4c-1.1,1.1-2.2,2.2-3.4,3.3c-1.2-1.4-3.4-3.4-4.9-4.3c9.7-8.1,16.8-18.8,20.9-27l8.1,1.3
			c-0.2,0.7-0.7,1.1-1.8,1.3c6.5,4.6,14.1,11.2,17.9,15.6l-4.8,4.6C39.5,22,32.8,15.8,26.7,11c-3.7,6-8.5,12.8-14.5,19.1h11.5v-9.8
			l7.8,0.5c-0.1,0.7-0.7,1.1-1.9,1.3v8h12.8v32.6H17.2v19c4.9-1.1,10.3-2.4,15.6-3.7c-2.2-3.1-4.8-6.2-7.2-8.8L30.6,66.5z
			 M36.2,35.4h-19v8.2h19V35.4z M17.2,57.5h19v-8.6h-19V57.5z M73.4,28.1v12c-0.1,7.7,3,36.8,24,50.5c-1.3,1.5-3.3,4.2-4.3,5.9
			c-16.8-11.4-22-33-22.9-41.3h-0.1c-1,8.4-6.6,29.4-24.7,41.2c-0.8-1.4-2.8-4.1-4-5.4c22.5-14.2,25.4-42.8,25.4-50.9v-12h-7.4
			c-2.4,8.4-5.5,16-9.2,21.5c-1.3-1.1-3.9-2.7-5.5-3.6c6.4-9.3,10.7-25.9,13.1-42.5l8.6,1.7c-0.3,0.8-1,1.2-2.2,1.2
			c-0.8,5.2-1.9,10.4-3.1,15.5H91l4,0.2c0,2-3,19.2-6.6,28.4l-5.1-2.7c1.6-5,3.2-12.7,4.3-19.7H73.4z"/>
	</g>
	<g>
		<line x1="78.3" y1="50.1" x2="81.3" y2="59.4"/>
		<g>
			<rect x="78.3" y="49.9" transform="matrix(0.9495 -0.3137 0.3137 0.9495 -12.4936 27.464)" width="1.5" height="5.3"/>
			<g>
				<path d="M81.3,59.4c-1.4-1.8-3.5-3.9-5.4-5l3.8,0.1l3-2.3C81.9,54.2,81.4,57.1,81.3,59.4z"/>
			</g>
		</g>
	</g>
	<g>
		<path d="M77.7,45L77.7,45l-0.7,0.4L77,44.9l0.9-0.5h0.4v3.9h-0.5V45z"/>
		<path d="M79.7,48.4v-0.3l0.4-0.4c1-0.9,1.4-1.5,1.5-2c0-0.4-0.2-0.8-0.8-0.8c-0.4,0-0.6,0.2-0.8,0.3l-0.2-0.4
			c0.3-0.2,0.7-0.4,1.1-0.4c0.8,0,1.2,0.6,1.2,1.1c0,0.7-0.5,1.3-1.3,2.1l-0.3,0.3v0h1.8v0.4H79.7z"/>
	</g>
</g>
<g id="Stroke10" class="st0">
	<g class="st1">
		<path d="M30.6,66.5C36,72,41.8,79.7,44.2,85l-5.3,3.2c-0.7-1.5-1.6-3.3-2.8-5.2C25.7,85.9,15,88.9,7.9,90.6c0,0.8-0.5,1.3-1.1,1.6
			l-3.3-7.3l7.4-1.6V31.4c-1.1,1.1-2.2,2.2-3.4,3.3c-1.2-1.4-3.4-3.4-4.9-4.3c9.7-8.1,16.8-18.8,20.9-27l8.1,1.3
			c-0.2,0.7-0.7,1.1-1.8,1.3c6.5,4.6,14.1,11.2,17.9,15.6l-4.8,4.6C39.5,22,32.8,15.8,26.7,11c-3.7,6-8.5,12.8-14.5,19.1h11.5v-9.8
			l7.8,0.5c-0.1,0.7-0.7,1.1-1.9,1.3v8h12.8v32.6H17.2v19c4.9-1.1,10.3-2.4,15.6-3.7c-2.2-3.1-4.8-6.2-7.2-8.8L30.6,66.5z
			 M36.2,35.4h-19v8.2h19V35.4z M17.2,57.5h19v-8.6h-19V57.5z M70.2,55.3L70.2,55.3c-1.1,8.4-6.7,29.4-24.8,41.2
			c-0.8-1.4-2.8-4.1-4-5.4c22.5-14.2,25.4-42.8,25.4-50.9v-12h-7.4c-2.4,8.4-5.5,16-9.2,21.5c-1.3-1.1-3.9-2.7-5.5-3.6
			c6.4-9.3,10.7-25.9,13.1-42.5l8.6,1.7c-0.3,0.8-1,1.2-2.2,1.2c-0.8,5.2-1.9,10.4-3.1,15.5H91l4,0.2c0,2-3,19.2-6.6,28.4l-5.1-2.7
			c1.6-5,3.2-12.7,4.3-19.7H73.4v12L70.2,55.3z"/>
	</g>
	<g class="st1">
		<line x1="77" y1="29.8" x2="77" y2="41.1"/>
		<g>
			<rect x="76.3" y="29.8" width="1.5" height="6.8"/>
			<g>
				<path d="M77,41.1c-0.8-2.1-2.1-4.8-3.6-6.4L77,36l3.6-1.3C79.2,36.3,77.8,39,77,41.1z"/>
			</g>
		</g>
	</g>
	<g class="st1">
		<path d="M79.8,29.7L79.8,29.7l-0.7,0.4L79,29.7l0.9-0.5h0.4v3.9h-0.5V29.7z"/>
		<path d="M82.8,29.7L82.8,29.7l-0.7,0.4L82,29.7l0.9-0.5h0.4v3.9h-0.5V29.7z"/>
	</g>
</g>
<g id="Stroke9" class="st0">
	<g class="st1">
		<path d="M30.6,66.5C36,72,41.8,79.7,44.2,85l-5.3,3.2c-0.7-1.5-1.6-3.3-2.8-5.2C25.7,85.9,15,88.9,7.9,90.6c0,0.8-0.5,1.3-1.1,1.6
			l-3.3-7.3l7.4-1.6V31.4c-1.1,1.1-2.2,2.2-3.4,3.3c-1.2-1.4-3.4-3.4-4.9-4.3c9.7-8.1,16.8-18.8,20.9-27l8.1,1.3
			c-0.2,0.7-0.7,1.1-1.8,1.3c6.5,4.6,14.1,11.2,17.9,15.6l-4.8,4.6C39.5,22,32.8,15.8,26.7,11c-3.7,6-8.5,12.8-14.5,19.1h11.5v-9.8
			l7.8,0.5c-0.1,0.7-0.7,1.1-1.9,1.3v8h12.8v32.6H17.2v19c4.9-1.1,10.3-2.4,15.6-3.7c-2.2-3.1-4.8-6.2-7.2-8.8L30.6,66.5z
			 M36.2,35.4h-19v8.2h19V35.4z M17.2,57.5h19v-8.6h-19V57.5z M66.8,28.1h-7.4c-2.4,8.4-5.5,16-9.2,21.5c-1.3-1.1-3.9-2.7-5.5-3.6
			c6.4-9.3,10.7-25.9,13.1-42.5l8.6,1.7c-0.3,0.8-1,1.2-2.2,1.2c-0.8,5.2-1.9,10.4-3.1,15.5H91l4,0.2c0,2-3,19.2-6.6,28.4l-5.1-2.7
			c1.6-5,3.2-12.7,4.3-19.7H73.4 M70.2,55.3L70.2,55.3"/>
	</g>
	<g class="st1">
		<line x1="60.7" y1="32.3" x2="72.6" y2="32.3"/>
		<g>
			<rect x="60.7" y="31.5" width="7.4" height="1.5"/>
			<g>
				<path d="M72.6,32.3c-2.1,0.8-4.8,2.1-6.4,3.6l1.3-3.6l-1.3-3.6C67.8,30.1,70.5,31.5,72.6,32.3z"/>
			</g>
		</g>
	</g>
	<g class="st1">
		<path d="M60.8,35.1L60.8,35.1l-0.7,0.4L60,35.1l0.9-0.5h0.4v3.9h-0.5V35.1z"/>
		<path d="M65.3,36.5c0,1.3-0.5,2.1-1.4,2.1c-0.8,0-1.3-0.7-1.3-2c0-1.3,0.6-2,1.4-2C64.8,34.6,65.3,35.3,65.3,36.5z M63.2,36.6
			c0,1,0.3,1.6,0.8,1.6c0.5,0,0.8-0.6,0.8-1.6c0-1-0.2-1.6-0.8-1.6C63.5,35,63.2,35.5,63.2,36.6z"/>
	</g>
</g>
<g id="Stroke8" class="st0">
	<g class="st1">
		<path d="M30.6,66.5C36,72,41.8,79.7,44.2,85l-5.3,3.2c-0.7-1.5-1.6-3.3-2.8-5.2C25.7,85.9,15,88.9,7.9,90.6c0,0.8-0.5,1.3-1.1,1.6
			l-3.3-7.3l7.4-1.6V31.4c-1.1,1.1-2.2,2.2-3.4,3.3c-1.2-1.4-3.4-3.4-4.9-4.3c9.7-8.1,16.8-18.8,20.9-27l8.1,1.3
			c-0.2,0.7-0.7,1.1-1.8,1.3c6.5,4.6,14.1,11.2,17.9,15.6l-4.8,4.6C39.5,22,32.8,15.8,26.7,11c-3.7,6-8.5,12.8-14.5,19.1h11.5v-9.8
			l7.8,0.5c-0.1,0.7-0.7,1.1-1.9,1.3v8h12.8v32.6H17.2v19c4.9-1.1,10.3-2.4,15.6-3.7c-2.2-3.1-4.8-6.2-7.2-8.8L30.6,66.5z
			 M36.2,35.4h-19v8.2h19V35.4z M17.2,57.5h19v-8.6h-19V57.5z M59.4,28.1c-2.4,8.4-5.5,16-9.2,21.5c-1.3-1.1-3.9-2.7-5.5-3.6
			c6.4-9.3,10.7-25.9,13.1-42.5l8.6,1.7c-0.3,0.8-1,1.2-2.2,1.2c-0.8,5.2-1.9,10.4-3.1,15.5 M70.2,55.3L70.2,55.3 M73.4,28.1"/>
	</g>
	<g class="st1">
		<path d="M67.1,15.1l-1.5-0.4c0.7-2.6,1.2-5.2,1.6-7.9l1.5,0.2C68.4,9.8,67.8,12.5,67.1,15.1z"/>
		<g>
			<path d="M65.1,19.3c-0.2-2.3-0.8-5.2-1.7-7.1l3.1,2.2l3.8-0.3C68.5,15.3,66.5,17.5,65.1,19.3z"/>
		</g>
	</g>
	<g class="st1">
		<path d="M70.6,9.9c0.1,0,0.2,0,0.4,0c0.3,0,0.6-0.2,0.8-0.4c0.3-0.2,0.4-0.6,0.5-1h0c-0.2,0.3-0.5,0.4-0.9,0.4
			c-0.7,0-1.2-0.5-1.2-1.2c0-0.7,0.5-1.4,1.3-1.4c0.8,0,1.3,0.6,1.3,1.6c0,0.9-0.3,1.5-0.7,1.8c-0.3,0.3-0.7,0.5-1.1,0.5
			c-0.2,0-0.4,0-0.5,0V9.9z M70.8,7.7c0,0.5,0.3,0.8,0.8,0.8c0.4,0,0.6-0.2,0.8-0.4c0,0,0-0.1,0-0.2c0-0.7-0.2-1.2-0.8-1.2
			C71.1,6.7,70.8,7.1,70.8,7.7z"/>
	</g>
</g>
<g id="Stroke7" class="st0">
	<g class="st1">
		<path d="M30.6,66.5C36,72,41.8,79.7,44.2,85l-5.3,3.2c-0.7-1.5-1.6-3.3-2.8-5.2C25.7,85.9,15,88.9,7.9,90.6c0,0.8-0.5,1.3-1.1,1.6
			l-3.3-7.3l7.4-1.6V31.4c-1.1,1.1-2.2,2.2-3.4,3.3c-1.2-1.4-3.4-3.4-4.9-4.3c9.7-8.1,16.8-18.8,20.9-27l8.1,1.3
			c-0.2,0.7-0.7,1.1-1.8,1.3c6.5,4.6,14.1,11.2,17.9,15.6l-4.8,4.6C39.5,22,32.8,15.8,26.7,11c-3.7,6-8.5,12.8-14.5,19.1h11.5v-9.8
			l7.8,0.5c-0.1,0.7-0.7,1.1-1.9,1.3v8h12.8v32.6H17.2v19c4.9-1.1,10.3-2.4,15.6-3.7c-2.2-3.1-4.8-6.2-7.2-8.8L30.6,66.5z
			 M36.2,35.4h-19v8.2h19V35.4z M17.2,57.5h19v-8.6h-19V57.5z"/>
	</g>
	<g class="st1">
		<path d="M39.3,71.5c-1.5-1.8-3-3.4-4.7-4.8l1-1.1c1.7,1.5,3.3,3.1,4.8,5L39.3,71.5z"/>
		<g>
			<path d="M42.6,74.6c-1.9-1.2-4.6-2.5-6.7-2.9l3.6-1.2l2-3.2C41.4,69.5,41.9,72.5,42.6,74.6z"/>
		</g>
	</g>
	<g class="st1">
		<path d="M38.4,66.5c0-0.5,0.3-0.8,0.8-1l0,0c-0.4-0.2-0.6-0.5-0.6-0.9c0-0.6,0.5-1,1.2-1c0.8,0,1.1,0.5,1.1,1
			c0,0.3-0.2,0.7-0.6,0.9v0c0.5,0.2,0.8,0.5,0.8,1c0,0.7-0.6,1.1-1.3,1.1C38.9,67.5,38.4,67,38.4,66.5z M40.5,66.4
			c0-0.5-0.3-0.7-0.9-0.9C39.2,65.7,39,66,39,66.4c0,0.4,0.3,0.7,0.8,0.7C40.2,67.1,40.5,66.8,40.5,66.4z M39.1,64.5
			c0,0.4,0.3,0.6,0.7,0.7c0.3-0.1,0.6-0.4,0.6-0.7c0-0.3-0.2-0.6-0.7-0.6C39.3,63.9,39.1,64.1,39.1,64.5z"/>
	</g>
</g>
<g id="Stroke6" class="st0">
	<g class="st1">
		<path d="M36.1,83C25.7,85.9,15,88.9,7.9,90.6c0,0.8-0.5,1.3-1.1,1.6l-3.3-7.3l7.4-1.6V31.4c-1.1,1.1-2.2,2.2-3.4,3.3
			c-1.2-1.4-3.4-3.4-4.9-4.3c9.7-8.1,16.8-18.8,20.9-27l8.1,1.3c-0.2,0.7-0.7,1.1-1.8,1.3c6.5,4.6,14.1,11.2,17.9,15.6l-4.8,4.6
			C39.5,22,32.8,15.8,26.7,11c-3.7,6-8.5,12.8-14.5,19.1h11.5v-9.8l7.8,0.5c-0.1,0.7-0.7,1.1-1.9,1.3v8h12.8v32.6H17.2v19
			c4.9-1.1,10.3-2.4,15.6-3.7 M36.2,35.4h-19v8.2h19V35.4z M17.2,57.5h19v-8.6h-19V57.5z"/>
	</g>
	<g class="st1">
		<path d="M22.1,76.8c-0.9,0-1.7-0.3-2.4-0.9c-0.6-0.6-1-1.3-1-2.1v-9.7h1.5v9.7c0,0.4,0.2,0.7,0.5,1c0.4,0.4,1,0.5,1.6,0.5l2.3-0.3
			l0.2,1.5l-2.3,0.3C22.4,76.8,22.3,76.8,22.1,76.8z"/>
		<g>
			<path d="M29.2,75.3c-2,1-4.5,2.7-6,4.3l0.9-3.7l-1.7-3.4C24.3,73.7,27,74.7,29.2,75.3z"/>
		</g>
	</g>
	<g class="st1">
		<path d="M24.5,64.4v0.3l-1.7,3.5h-0.5l1.7-3.4v0H22v-0.4H24.5z"/>
	</g>
</g>
<g id="Stroke5" class="st0">
	<g class="st1">
		<path d="M17.1,43.7l19.2-0.1v-8.2h-19h-5l0-5.3l-4.7,4.6c-1.2-1.4-3.4-3.4-4.9-4.3c9.7-8.1,16.8-18.8,20.9-27l8.1,1.3
			c-0.2,0.7-0.7,1.1-1.8,1.3c6.5,4.6,14.1,11.2,17.9,15.6l-4.8,4.6C39.5,22,32.8,15.8,26.7,11c-3.7,6-8.5,12.8-14.5,19.1h11.5v-9.8
			l7.8,0.5c-0.1,0.7-0.7,1.1-1.9,1.3v8h12.8v32.6H17.2v-5.3h19v-8.6l-19,0.2"/>
	</g>
	<g class="st1">
		<path d="M17.4,66.6c2.6,0,10.9,0,10.5,0"/>
		<g>
			<path d="M23.4,67.4l-1.9,0c-1.6,0-3.2,0-4.1,0l0-1.5c0.9,0,2.4,0,4.1,0l1.9,0L23.4,67.4z"/>
			<g>
				<path d="M27.9,66.6c-2.1,0.8-4.8,2.1-6.4,3.6l1.3-3.6l-1.3-3.6C23.1,64.5,25.8,65.8,27.9,66.6z"/>
			</g>
		</g>
	</g>
	<g class="st1">
		<path d="M17.8,69.8c-0.1,0-0.2,0-0.4,0c-0.8,0.1-1.3,0.7-1.4,1.4h0c0.2-0.2,0.5-0.4,0.9-0.4c0.7,0,1.2,0.5,1.2,1.3
			c0,0.7-0.5,1.4-1.3,1.4c-0.8,0-1.4-0.6-1.4-1.7c0-0.8,0.3-1.4,0.7-1.8c0.3-0.3,0.8-0.5,1.2-0.6c0.2,0,0.3,0,0.4,0V69.8z
			 M17.7,72.1c0-0.6-0.3-0.9-0.8-0.9c-0.3,0-0.6,0.2-0.8,0.5c0,0.1-0.1,0.1-0.1,0.2c0,0.6,0.3,1.1,0.9,1.1
			C17.3,73,17.7,72.6,17.7,72.1z"/>
	</g>
</g>
<g id="Stroke4" class="st0">
	<g class="st1">
		<path d="M17.2,35.4h-6.1l-0.2-4c-1.1,1.1-2.2,2.2-3.4,3.3c-1.2-1.4-3.4-3.4-4.9-4.3c9.7-8.1,16.8-18.8,20.9-27l8.1,1.3
			c-0.2,0.7-0.7,1.1-1.8,1.3c6.5,4.6,14.1,11.2,17.9,15.6l-4.8,4.6C39.5,22,32.8,15.8,26.7,11c-3.7,6-8.5,12.8-14.5,19.1h11.5v-9.8
			l7.8,0.5c-0.1,0.7-0.7,1.1-1.9,1.3v8h12.8v32.6h-6.2V48.8h-19 M17.2,43.6h19v-8.2h-19"/>
	</g>
	<path class="st2" d="M115,14.2"/>
	<g class="st1">
		<path d="M17.2,52.9c2.4-0.1,11.2,0,10.8,0"/>
		<g>
			<path d="M17.3,53.7l-0.1-1.5c1.2-0.1,4.1-0.1,6.3,0l0,1.5C21.3,53.6,18.5,53.6,17.3,53.7z"/>
			<g>
				<path d="M28.1,52.9c-2.1,0.8-4.8,2.1-6.4,3.5l1.3-3.6l-1.3-3.6C23.3,50.7,25.9,52.1,28.1,52.9z"/>
			</g>
		</g>
	</g>
	<g class="st1">
		<path d="M15.2,51.5h-1.5l-0.1,1c0.1,0,0.2,0,0.3,0c0.3,0,0.6,0.1,0.8,0.2c0.3,0.2,0.6,0.5,0.6,1c0,0.8-0.6,1.3-1.5,1.3
			c-0.4,0-0.8-0.1-1-0.2l0.1-0.4c0.2,0.1,0.5,0.2,0.8,0.2c0.5,0,0.9-0.3,0.9-0.8c0-0.5-0.3-0.9-1.1-0.9c-0.2,0-0.4,0-0.5,0l0.3-1.9
			h1.9V51.5z"/>
	</g>
</g>
<g id="Stroke3" class="st0">
	<g class="st1">
		<path d="M10.9,31.4c-1.1,1.1-2.2,2.2-3.4,3.3c-1.2-1.4-3.4-3.4-4.9-4.3c9.7-8.1,16.8-18.8,20.9-27l8.1,1.3
			c-0.2,0.7-0.7,1.1-1.8,1.3c6.5,4.6,14.1,11.2,17.9,15.6l-4.8,4.6C39.5,22,32.8,15.8,26.7,11c-3.7,6-8.5,12.8-14.5,19.1h11.5v-9.8
			l7.8,0.5c-0.1,0.7-0.7,1.1-1.9,1.3v8h12.8v32.6h-6.2v-5.3v-8.6v-5.2v-8.2h-24v-5.3"/>
	</g>
	<g class="st1">
		<path d="M12.1,39.3c0.4,0,13.1,0,13.1,0"/>
		<g>
			<rect x="12.1" y="38.6" width="8.6" height="1.5"/>
			<g>
				<path d="M25.2,39.3c-2.1,0.8-4.8,2.1-6.4,3.6l1.3-3.6l-1.3-3.6C20.4,37.2,23.1,38.5,25.2,39.3z"/>
			</g>
		</g>
	</g>
	<g class="st1">
		<path d="M13.4,45.3v-1.1h-1.8v-0.3l1.7-2.5h0.6v2.4h0.5v0.4h-0.5v1.1H13.4z M13.4,43.8v-1.3c0-0.2,0-0.4,0-0.6h0
			c-0.1,0.2-0.2,0.4-0.3,0.6l-1,1.3v0H13.4z"/>
	</g>
</g>
<g id="Stroke2" class="st0">
	<g class="st1">
		<path d="M23.7,30.1v-9.8l7.8,0.5c-0.1,0.7-0.7,1.1-1.9,1.3v8 M10.9,31.4c-1.1,1.1-2.2,2.2-3.4,3.3c-1.2-1.4-3.4-3.4-4.9-4.3
			c9.7-8.1,16.8-18.8,20.9-27l8.1,1.3c-0.2,0.7-0.7,1.1-1.8,1.3c6.5,4.6,14.1,11.2,17.9,15.6l-4.8,4.6C39.5,22,32.8,15.8,26.7,11
			c-3.7,6-8.5,12.8-14.5,19.1"/>
	</g>
	<g class="st1">
		<path d="M34,20.9c0,2.2,0,8.6,0,8.6"/>
		<g>
			<rect x="33.2" y="20.9" width="1.5" height="4.1"/>
			<g>
				<path d="M34,29.6c-0.8-2.1-2.1-4.8-3.6-6.4l3.6,1.3l3.6-1.3C36.1,24.8,34.8,27.4,34,29.6z"/>
			</g>
		</g>
	</g>
	<g class="st1">
		<path d="M30.7,19.7c0.1,0.1,0.5,0.2,0.9,0.2c0.7,0,0.9-0.4,0.9-0.8c0-0.5-0.5-0.8-1-0.8h-0.3v-0.4h0.3c0.4,0,0.9-0.2,0.9-0.7
			c0-0.3-0.2-0.6-0.7-0.6c-0.3,0-0.6,0.1-0.8,0.3l-0.1-0.4c0.2-0.1,0.6-0.3,1-0.3c0.8,0,1.1,0.5,1.1,0.9c0,0.4-0.2,0.7-0.7,0.9v0
			c0.5,0.1,0.9,0.5,0.9,1c0,0.6-0.5,1.2-1.4,1.2c-0.4,0-0.8-0.1-1-0.3L30.7,19.7z"/>
	</g>
</g>
<g id="Stroke1" class="st0">
	<g class="st1">
		<path d="M10.9,31.4c-1.1,1.1-2.2,2.2-3.4,3.3c-1.2-1.4-3.4-3.4-4.9-4.3c9.7-8.1,16.8-18.8,20.9-27l8.1,1.3
			c-0.2,0.7-0.7,1.1-1.8,1.3c6.5,4.6,14.1,11.2,17.9,15.6l-4.8,4.6C39.5,22,32.8,15.8,26.7,11c-3.7,6-8.5,12.8-14.5,19.1 M29.6,30.1
			"/>
	</g>
	<g class="st1">
		<line x1="27.5" y1="16.4" x2="35.6" y2="24.7"/>
		<g>
			<rect x="29.2" y="15.3" transform="matrix(0.7142 -0.6999 0.6999 0.7142 -4.6658 26.3787)" width="1.5" height="7.1"/>
			<g>
				<path d="M35.6,24.7c-2.1-1-4.9-1.9-7-2.1L32,21l1.6-3.4C33.8,19.8,34.7,22.6,35.6,24.7z"/>
			</g>
		</g>
	</g>
	<g class="st1">
		<path d="M24.1,23v-0.3l0.4-0.4c1-0.9,1.4-1.5,1.5-2c0-0.4-0.2-0.8-0.8-0.8c-0.4,0-0.6,0.2-0.8,0.3l-0.2-0.4
			c0.3-0.2,0.7-0.4,1.1-0.4c0.8,0,1.2,0.6,1.2,1.1c0,0.7-0.5,1.3-1.3,2.1l-0.3,0.3v0h1.8V23H24.1z"/>
	</g>
</g>
<g id="Stroke0" class="st0">
	<g class="st1">
		<path d="M10.9,31.4c-1.1,1.1-2.2,2.2-3.4,3.3c-1.2-1.4-3.4-3.4-4.9-4.3c9.7-8.1,16.8-18.8,20.9-27l8.1,1.3
			c-0.2,0.7-0.7,1.1-1.8,1.3"/>
	</g>
	<g class="st1">
		<path d="M33.3,8.2c-1.6,2.2-3.2,4.5-4.8,6.8c-0.9,1.3-1.7,2.5-2.6,3.7"/>
		<g>
			<path d="M29.1,15.4l-1.2-0.8c1.6-2.3,3.2-4.6,4.8-6.8l1.2,0.9C32.3,10.8,30.7,13.1,29.1,15.4z"/>
			<g>
				<path d="M25.9,18.7c0.6-2.2,1-5.1,0.7-7.3l2.2,3.1l3.7,1C30.4,16,27.8,17.4,25.9,18.7z"/>
			</g>
		</g>
	</g>
	<g class="st1">
		<path d="M36.2,6.4L36.2,6.4l-0.7,0.4l-0.1-0.4l0.9-0.5h0.4v3.9h-0.5V6.4z"/>
	</g>
</g>
<g id="Kanji" class="st0">
	<g class="st1">
		<path d="M30.6,66.5C36,72,41.8,79.7,44.2,85l-5.3,3.2c-0.7-1.5-1.6-3.3-2.8-5.2C25.7,85.9,15,88.9,7.9,90.6c0,0.8-0.5,1.3-1.1,1.6
			l-3.3-7.3l7.4-1.6V31.4c-1.1,1.1-2.2,2.2-3.4,3.3c-1.2-1.4-3.4-3.4-4.9-4.3c9.7-8.1,16.8-18.8,20.9-27l8.1,1.3
			c-0.2,0.7-0.7,1.1-1.8,1.3c6.5,4.6,14.1,11.2,17.9,15.6l-4.8,4.6C39.5,22,32.8,15.8,26.7,11c-3.7,6-8.5,12.8-14.5,19.1h11.5v-9.8
			l7.8,0.5c-0.1,0.7-0.7,1.1-1.9,1.3v8h12.8v32.6H17.2v19c4.9-1.1,10.3-2.4,15.6-3.7c-2.2-3.1-4.8-6.2-7.2-8.8L30.6,66.5z
			 M36.2,35.4h-19v8.2h19V35.4z M17.2,57.5h19v-8.6h-19V57.5z M73.4,28.1v12c-0.1,7.7,3,36.8,24,50.5c-1.3,1.5-3.3,4.2-4.3,5.9
			c-16.8-11.4-22-33-22.9-41.3h-0.1c-1,8.4-6.6,29.4-24.7,41.2c-0.8-1.4-2.8-4.1-4-5.4c22.5-14.2,25.4-42.8,25.4-50.9v-12h-7.4
			c-2.4,8.4-5.5,16-9.2,21.5c-1.3-1.1-3.9-2.7-5.5-3.6c6.4-9.3,10.7-25.9,13.1-42.5l8.6,1.7c-0.3,0.8-1,1.2-2.2,1.2
			c-0.8,5.2-1.9,10.4-3.1,15.5H91l4,0.2c0,2-3,19.2-6.6,28.4l-5.1-2.7c1.6-5,3.2-12.7,4.3-19.7H73.4z"/>
	</g>
</g>
</svg>
