<?xml version="1.0" encoding="utf-8"?>
<!-- Generator: Adobe Illustrator 26.2.1, SVG Export Plug-In . SVG Version: 6.00 Build 0)  -->
<svg version="1.1" xmlns="http://www.w3.org/2000/svg" xmlns:xlink="http://www.w3.org/1999/xlink" x="0px" y="0px"
	 viewBox="0 0 100 100" style="enable-background:new 0 0 100 100;" xml:space="preserve" width = "100px" height = "100px">
<style type="text/css">
	.st0{display:none;}
	.st1{display:inline;}
</style>

	<rect x="17.2" y="27.6" class="st1" width="12.6" height="0"/>

		<path d="M95.8,67.2v6.6H58.4v22.9h-6.8V73.8H4.2v-6.6H21V39.6h30.6V23.2H25.8c-4.8,7.9-10.3,15-16,20.2C8.6,42.2,6,40,4.4,39
			c9.3-8,18.1-21.8,23.3-35.7L36.2,6c-0.4,0.9-1.3,1.1-2.3,0.9c-1.3,3.3-2.8,6.5-4.5,9.7H91v6.6H58.4v16.4h30.4V46H58.4v21.1H95.8z
			 M27.8,67.2h23.8V46H27.8V67.2z"/>

		<path d="M64.6,25c0,0.3,0,11.3,0,11.3"/>

			<rect x="63.8" y="25" width="1.5" height="6.8"/>

				<path d="M64.6,36.3c-0.8-2.1-2.1-4.8-3.6-6.4l3.6,1.3l3.6-1.3C66.7,31.5,65.3,34.2,64.6,36.3z"/>

		<path d="M72.1,26.2c-0.1,0-0.2,0-0.4,0c-0.8,0.1-1.3,0.7-1.4,1.4h0c0.2-0.2,0.5-0.4,0.9-0.4c0.7,0,1.2,0.5,1.2,1.3
			c0,0.7-0.5,1.4-1.3,1.4c-0.8,0-1.4-0.6-1.4-1.7c0-0.8,0.3-1.4,0.7-1.8c0.3-0.3,0.8-0.5,1.2-0.6c0.2,0,0.3,0,0.4,0V26.2z
			 M71.9,28.5c0-0.6-0.3-0.9-0.8-0.9c-0.3,0-0.6,0.2-0.8,0.5c0,0.1-0.1,0.1-0.1,0.2c0,0.6,0.3,1.1,0.9,1.1
			C71.6,29.4,71.9,29,71.9,28.5z"/>

 </svg>