<?xml version="1.0" encoding="utf-8"?>
<!-- Generator: Adobe Illustrator 26.2.1, SVG Export Plug-In . SVG Version: 6.00 Build 0)  -->
<svg version="1.1" xmlns="http://www.w3.org/2000/svg" xmlns:xlink="http://www.w3.org/1999/xlink" x="0px" y="0px"
	 viewBox="0 0 100 100" style="enable-background:new 0 0 100 100;" xml:space="preserve" width = "100px" height = "100px">
<style type="text/css">
	.st0{display:none;}
	.st1{display:inline;}
</style> 


	<rect x="17.2" y="27.6" class="st1" width="12.6" height="0"/>

		<path d="M25.8,23.2c-4.8,7.9-10.3,15-16,20.2C8.6,42.2,6,40,4.4,39c9.3-8,18.1-21.8,23.3-35.7L36.2,6c-0.4,0.9-1.3,1.1-2.3,0.9
			c-1.3,3.3-2.8,6.5-4.5,9.7 M51.6,46"/>

		<path class="st3" d="M22.5,31.5"/>

		<path d="M32.7,24.1l-1.3-0.7c1.8-3.2,4.3-7.9,4.9-12.5l1.5,0.2C37.2,15.9,34.6,20.8,32.7,24.1z"/>

			<path d="M29.8,27.6c0.4-2.2,0.5-5.2,0.1-7.3l2.4,2.9l3.7,0.7C34,24.6,31.5,26.2,29.8,27.6z"/>


		<path d="M40.7,11.4L40.7,11.4L40,11.8l-0.1-0.4l0.9-0.5h0.4v3.9h-0.5V11.4z"/>

</svg>