<?xml version="1.0" encoding="utf-8"?>
<!-- Generator: Adobe Illustrator 26.2.1, SVG Export Plug-In . SVG Version: 6.00 Build 0)  -->
<svg version="1.1" xmlns="http://www.w3.org/2000/svg" xmlns:xlink="http://www.w3.org/1999/xlink" x="0px" y="0px"
	 viewBox="0 0 100 100" style="enable-background:new 0 0 100 100;" xml:space="preserve" width = "100px" height = "100px">
<style type="text/css">
	.st0{display:none;}
	.st1{display:inline;}
</style> 

	<rect x="17.2" y="27.6" class="st3" width="12.6" height="0"/>

		<path d="M25.8,23.2c-4.8,7.9-10.3,15-16,20.2C8.6,42.2,6,40,4.4,39c9.3-8,18.1-21.8,23.3-35.7L36.2,6c-0.4,0.9-1.3,1.1-2.3,0.9
			c-1.3,3.3-2.8,6.5-4.5,9.7H91v6.6 M95.8,67.2v6.6H58.4H4.2v-6.6H21V39.6h30.6h6.8h30.4V46h-61v21.1"/>

	<path d="M-4.7,69.9"/>
	<path d="M6.9,77.3"/>

		<line x1="52.6" y1="79.6" x2="6.9" y2="79.6"/>

			<rect x="6.9" y="78.8" width="41.2" height="1.5"/>

				<path d="M52.6,79.6c-2.1-0.8-4.8-2.1-6.4-3.6l1.3,3.6l-1.3,3.6C47.9,81.7,50.5,80.4,52.6,79.6z"/>

		<path d="M11.3,82.3H9.8l-0.1,1c0.1,0,0.2,0,0.3,0c0.3,0,0.6,0.1,0.8,0.2c0.3,0.2,0.6,0.5,0.6,1c0,0.8-0.6,1.3-1.5,1.3
			c-0.4,0-0.8-0.1-1-0.2L9,85.2c0.2,0.1,0.5,0.2,0.8,0.2c0.5,0,0.9-0.3,0.9-0.8c0-0.5-0.3-0.9-1.1-0.9c-0.2,0-0.4,0-0.5,0l0.3-1.9
			h1.9V82.3z"/>

</svg>