<?xml version="1.0" encoding="utf-8"?>
<!-- Generator: Adobe Illustrator 26.2.1, SVG Export Plug-In . SVG Version: 6.00 Build 0)  -->
<svg version="1.1" xmlns="http://www.w3.org/2000/svg" xmlns:xlink="http://www.w3.org/1999/xlink" x="0px" y="0px"
	 viewBox="0 0 100 100" style="enable-background:new 0 0 100 100;" xml:space="preserve" width = "100px" height = "100px">
<style type="text/css">
	.st0{display:none;}
	.st1{display:inline;}
</style> 

	<rect x="17.2" y="27.6" class="st1" width="12.6" height="0"/>

		<path d="M51.6,46H27.8v21.1H21V39.6h67.8V46H58.4 M51.6,23.2H25.8c-4.8,7.9-10.3,15-16,20.2C8.6,42.2,6,40,4.4,39
			c9.3-8,18.1-21.8,23.3-35.7L36.2,6c-0.4,0.9-1.3,1.1-2.3,0.9c-1.3,3.3-2.8,6.5-4.5,9.7H91v6.6H58.4"/>

		<line x1="33.1" y1="49.8" x2="33.1" y2="65.3"/>
		
			<rect x="32.4" y="49.8" width="1.5" height="10.9"/>
		
				<path d="M33.1,65.3c-0.8-2.1-2.1-4.8-3.6-6.4l3.6,1.3l3.6-1.3C35.2,60.5,33.9,63.1,33.1,65.3z"/>

		<path d="M38.8,54.8v-1.1H37v-0.3l1.7-2.5h0.6v2.4h0.5v0.4h-0.5v1.1H38.8z M38.8,53.3V52c0-0.2,0-0.4,0-0.6h0
			c-0.1,0.2-0.2,0.4-0.3,0.6l-1,1.3v0H38.8z"/>


</svg>