<?xml version="1.0" encoding="utf-8"?>
<!-- Generator: Adobe Illustrator 26.2.1, SVG Export Plug-In . SVG Version: 6.00 Build 0)  -->
<svg version="1.1" xmlns="http://www.w3.org/2000/svg" xmlns:xlink="http://www.w3.org/1999/xlink" x="0px" y="0px"
	 viewBox="0 0 100 100" style="enable-background:new 0 0 100 100;" xml:space="preserve">
<style type="text/css">
	.st0{display:none;}
	.st1{display:inline;fill:none;}
	.st2{display:inline;}
	.st3{fill:none;}
</style>
<g id="Stroke5" class="st0">
	<rect x="17.2" y="27.6" class="st1" width="12.6" height="0"/>
	<g class="st2">
		<path d="M95.8,67.2v6.6H58.4v22.9h-6.8V73.8H4.2v-6.6H21V39.6h30.6V23.2H25.8c-4.8,7.9-10.3,15-16,20.2C8.6,42.2,6,40,4.4,39
			c9.3-8,18.1-21.8,23.3-35.7L36.2,6c-0.4,0.9-1.3,1.1-2.3,0.9c-1.3,3.3-2.8,6.5-4.5,9.7H91v6.6H58.4v16.4h30.4V46H58.4v21.1H95.8z
			 M27.8,67.2h23.8V46H27.8V67.2z"/>
	</g>
	<g class="st2">
		<path d="M64.6,25c0,0.3,0,11.3,0,11.3"/>
		<g>
			<rect x="63.8" y="25" width="1.5" height="6.8"/>
			<g>
				<path d="M64.6,36.3c-0.8-2.1-2.1-4.8-3.6-6.4l3.6,1.3l3.6-1.3C66.7,31.5,65.3,34.2,64.6,36.3z"/>
			</g>
		</g>
	</g>
	<g class="st2">
		<path d="M72.1,26.2c-0.1,0-0.2,0-0.4,0c-0.8,0.1-1.3,0.7-1.4,1.4h0c0.2-0.2,0.5-0.4,0.9-0.4c0.7,0,1.2,0.5,1.2,1.3
			c0,0.7-0.5,1.4-1.3,1.4c-0.8,0-1.4-0.6-1.4-1.7c0-0.8,0.3-1.4,0.7-1.8c0.3-0.3,0.8-0.5,1.2-0.6c0.2,0,0.3,0,0.4,0V26.2z
			 M71.9,28.5c0-0.6-0.3-0.9-0.8-0.9c-0.3,0-0.6,0.2-0.8,0.5c0,0.1-0.1,0.1-0.1,0.2c0,0.6,0.3,1.1,0.9,1.1
			C71.6,29.4,71.9,29,71.9,28.5z"/>
	</g>
</g>
<g id="Stroke4">
	<rect x="17.2" y="27.6" class="st3" width="12.6" height="0"/>
	<g>
		<path d="M25.8,23.2c-4.8,7.9-10.3,15-16,20.2C8.6,42.2,6,40,4.4,39c9.3-8,18.1-21.8,23.3-35.7L36.2,6c-0.4,0.9-1.3,1.1-2.3,0.9
			c-1.3,3.3-2.8,6.5-4.5,9.7H91v6.6 M95.8,67.2v6.6H58.4H4.2v-6.6H21V39.6h30.6h6.8h30.4V46h-61v21.1"/>
	</g>
	<path d="M-4.7,69.9"/>
	<path d="M6.9,77.3"/>
	<g>
		<line x1="52.6" y1="79.6" x2="6.9" y2="79.6"/>
		<g>
			<rect x="6.9" y="78.8" width="41.2" height="1.5"/>
			<g>
				<path d="M52.6,79.6c-2.1-0.8-4.8-2.1-6.4-3.6l1.3,3.6l-1.3,3.6C47.9,81.7,50.5,80.4,52.6,79.6z"/>
			</g>
		</g>
	</g>
	<g>
		<path d="M11.3,82.3H9.8l-0.1,1c0.1,0,0.2,0,0.3,0c0.3,0,0.6,0.1,0.8,0.2c0.3,0.2,0.6,0.5,0.6,1c0,0.8-0.6,1.3-1.5,1.3
			c-0.4,0-0.8-0.1-1-0.2L9,85.2c0.2,0.1,0.5,0.2,0.8,0.2c0.5,0,0.9-0.3,0.9-0.8c0-0.5-0.3-0.9-1.1-0.9c-0.2,0-0.4,0-0.5,0l0.3-1.9
			h1.9V82.3z"/>
	</g>
</g>
<g id="Stroke3" class="st0">
	<rect x="17.2" y="27.6" class="st1" width="12.6" height="0"/>
	<g class="st2">
		<path d="M51.6,46H27.8v21.1H21V39.6h67.8V46H58.4 M51.6,23.2H25.8c-4.8,7.9-10.3,15-16,20.2C8.6,42.2,6,40,4.4,39
			c9.3-8,18.1-21.8,23.3-35.7L36.2,6c-0.4,0.9-1.3,1.1-2.3,0.9c-1.3,3.3-2.8,6.5-4.5,9.7H91v6.6H58.4"/>
	</g>
	<g class="st2">
		<line x1="33.1" y1="49.8" x2="33.1" y2="65.3"/>
		<g>
			<rect x="32.4" y="49.8" width="1.5" height="10.9"/>
			<g>
				<path d="M33.1,65.3c-0.8-2.1-2.1-4.8-3.6-6.4l3.6,1.3l3.6-1.3C35.2,60.5,33.9,63.1,33.1,65.3z"/>
			</g>
		</g>
	</g>
	<g class="st2">
		<path d="M38.8,54.8v-1.1H37v-0.3l1.7-2.5h0.6v2.4h0.5v0.4h-0.5v1.1H38.8z M38.8,53.3V52c0-0.2,0-0.4,0-0.6h0
			c-0.1,0.2-0.2,0.4-0.3,0.6l-1,1.3v0H38.8z"/>
	</g>
</g>
<g id="Stroke2" class="st0">
	<rect x="17.2" y="27.6" class="st1" width="12.6" height="0"/>
	<g class="st2">
		<path d="M58.4,73.8 M21,46v-6.4h2.5h65.3V46H58.4H21z M51.6,23.2H25.8c-4.8,7.9-10.3,15-16,20.2C8.6,42.2,6,40,4.4,39
			c9.3-8,18.1-21.8,23.3-35.7L36.2,6c-0.4,0.9-1.3,1.1-2.3,0.9c-1.3,3.3-2.8,6.5-4.5,9.7H91v6.6H58.4 M21,39.6"/>
	</g>
	<g class="st2">
		<path d="M24.9,51.3c2,0.1,31,0,31,0"/>
		<g>
			<path d="M33.9,52c-4.7,0-8.4,0-9.1,0l0.1-1.5c1.4,0.1,17.2,0,26.5,0l0,1.5C46.3,52,39.4,52,33.9,52z"/>
			<g>
				<path d="M55.9,51.3c-2.1,0.8-4.8,2.1-6.4,3.6l1.3-3.6l-1.3-3.6C51.1,49.1,53.8,50.5,55.9,51.3z"/>
			</g>
		</g>
	</g>
	<g class="st2">
		<path d="M25.3,57.7c0.1,0.1,0.5,0.2,0.9,0.2c0.7,0,0.9-0.4,0.9-0.8c0-0.5-0.5-0.8-1-0.8h-0.3V56H26c0.4,0,0.9-0.2,0.9-0.7
			c0-0.3-0.2-0.6-0.7-0.6c-0.3,0-0.6,0.1-0.8,0.3l-0.1-0.4c0.2-0.1,0.6-0.3,1-0.3c0.8,0,1.1,0.5,1.1,0.9c0,0.4-0.2,0.7-0.7,0.9v0
			c0.5,0.1,0.9,0.5,0.9,1c0,0.6-0.5,1.2-1.4,1.2c-0.4,0-0.8-0.1-1-0.3L25.3,57.7z"/>
	</g>
</g>
<g id="Stroke1" class="st0">
	<rect x="17.2" y="27.6" class="st1" width="12.6" height="0"/>
	<g class="st2">
		<path d="M51.6,23.2H25.8c-4.8,7.9-10.3,15-16,20.2C8.6,42.2,6,40,4.4,39c9.3-8,18.1-21.8,23.3-35.7L36.2,6
			c-0.4,0.9-1.3,1.1-2.3,0.9c-1.3,3.3-2.8,6.5-4.5,9.7H91v6.6H58.4"/>
	</g>
	<g class="st2">
		<path d="M30.3,27.6c0.9,0.2,52.7,0,52.7,0"/>
		<g>
			<path d="M45.1,28.4c-9.6,0-14.6,0-15-0.1l0.3-1.5c0.9,0.1,19.3,0.1,48,0l0,1.5C64.2,28.4,53.1,28.4,45.1,28.4z"/>
			<g>
				<path d="M82.9,27.6c-2.1,0.8-4.8,2.2-6.4,3.6l1.3-3.6l-1.3-3.6C78.2,25.5,80.8,26.8,82.9,27.6z"/>
			</g>
		</g>
	</g>
	<g class="st2">
		<path d="M31,34v-0.3l0.4-0.4c1-0.9,1.4-1.5,1.5-2c0-0.4-0.2-0.8-0.8-0.8c-0.4,0-0.6,0.2-0.8,0.3l-0.2-0.4c0.3-0.2,0.7-0.4,1.1-0.4
			c0.8,0,1.2,0.6,1.2,1.1c0,0.7-0.5,1.3-1.3,2.1l-0.3,0.3v0h1.8V34H31z"/>
	</g>
</g>
<g id="Stroke0" class="st0">
	<rect x="17.2" y="27.6" class="st1" width="12.6" height="0"/>
	<g class="st2">
		<path d="M25.8,23.2c-4.8,7.9-10.3,15-16,20.2C8.6,42.2,6,40,4.4,39c9.3-8,18.1-21.8,23.3-35.7L36.2,6c-0.4,0.9-1.3,1.1-2.3,0.9
			c-1.3,3.3-2.8,6.5-4.5,9.7 M51.6,46"/>
	</g>
	<g class="st2">
		<path class="st3" d="M22.5,31.5"/>
	</g>
	<g class="st2">
		<path d="M32.7,24.1l-1.3-0.7c1.8-3.2,4.3-7.9,4.9-12.5l1.5,0.2C37.2,15.9,34.6,20.8,32.7,24.1z"/>
		<g>
			<path d="M29.8,27.6c0.4-2.2,0.5-5.2,0.1-7.3l2.4,2.9l3.7,0.7C34,24.6,31.5,26.2,29.8,27.6z"/>
		</g>
	</g>
	<g class="st2">
		<path d="M40.7,11.4L40.7,11.4L40,11.8l-0.1-0.4l0.9-0.5h0.4v3.9h-0.5V11.4z"/>
	</g>
</g>
<g id="Kanji" class="st0">
	<rect x="17.2" y="27.6" class="st1" width="12.6" height="0"/>
	<g class="st2">
		<path d="M95.8,67.2v6.6H58.4v22.9h-6.8V73.8H4.2v-6.6H21V39.6h30.6V23.2H25.8c-4.8,7.9-10.3,15-16,20.2C8.6,42.2,6,40,4.4,39
			c9.3-8,18.1-21.8,23.3-35.7L36.2,6c-0.4,0.9-1.3,1.1-2.3,0.9c-1.3,3.3-2.8,6.5-4.5,9.7H91v6.6H58.4v16.4h30.4V46H58.4v21.1H95.8z
			 M27.8,67.2h23.8V46H27.8V67.2z"/>
	</g>
</g>
</svg>
