<?xml version="1.0" encoding="utf-8"?>
<!-- Generator: Adobe Illustrator 26.2.1, SVG Export Plug-In . SVG Version: 6.00 Build 0)  -->
<svg version="1.1" xmlns="http://www.w3.org/2000/svg" xmlns:xlink="http://www.w3.org/1999/xlink" x="0px" y="0px"
	 viewBox="0 0 100 100" style="enable-background:new 0 0 100 100;" xml:space="preserve">
<style type="text/css">
	.st0{display:none;}
	.st1{display:inline;}
	.st2{fill:url(#SVGID_1_);}
</style>
<g id="Stroke8">
	<g>
		<path d="M94.9,21H53.1v11h36.4v56.3c0,4.2-1.1,6.2-4.2,7.2c-3.2,1-9,1.1-17.2,1c-0.5-1.8-1.5-4.3-2.5-6.1c3.4,0.1,6.6,0.2,9.2,0.2
			c7.4,0,7.8,0,7.8-2.3v-50H17.8v58h-6.7V32h35.1V21H5.1v-6.4h41.1V3.4l9,0.6c-0.1,0.7-0.7,1.2-2.1,1.4v9.2h41.8V21z M76.1,76.5
			H52.9v19.1h-6.5V76.5H24.2v-5.8h22.2V59.6H25.9V54H37c-0.9-3.3-3.2-8.3-5.6-11.9l5.4-1.5c2.6,3.5,5,8.5,6,11.8L37.7,54h22.6
			c-1.3-0.5-3.1-1.2-4-1.5c2.1-3.4,4.7-8.8,6.1-12.4l7.3,2.2c-0.3,0.6-1,0.9-2,0.9c-1.6,3.1-4.1,7.6-6.3,10.8H75v5.6H52.9v11.1h23.2
			V76.5z"/>
	</g>
	<g>
		<line x1="42.2" y1="60.8" x2="42.2" y2="70.3"/>
		<g>
			<rect x="41.4" y="60.8" width="1.5" height="4.9"/>
			<g>
				<path d="M42.2,70.3c-0.8-2.1-2.1-4.8-3.6-6.4l3.6,1.3l3.6-1.3C44.3,65.5,42.9,68.1,42.2,70.3z"/>
			</g>
		</g>
	</g>
	<g>
		<path d="M35.5,64.1c0.1,0,0.2,0,0.4,0c0.3,0,0.6-0.2,0.8-0.4c0.3-0.2,0.4-0.6,0.5-1h0c-0.2,0.3-0.5,0.4-0.9,0.4
			c-0.7,0-1.2-0.5-1.2-1.2c0-0.7,0.5-1.4,1.3-1.4s1.3,0.6,1.3,1.6c0,0.9-0.3,1.5-0.7,1.8c-0.3,0.3-0.7,0.5-1.1,0.5
			c-0.2,0-0.4,0-0.5,0V64.1z M35.7,61.8c0,0.5,0.3,0.8,0.7,0.8c0.4,0,0.6-0.2,0.8-0.4c0,0,0-0.1,0-0.2c0-0.7-0.2-1.2-0.8-1.2
			C36,60.9,35.7,61.3,35.7,61.8z"/>
	</g>
</g>
<g id="Stroke7" class="st0">
	<g class="st1">
		<path d="M94.9,21H53.1v11h36.4v56.3c0,4.2-1.1,6.2-4.2,7.2c-3.2,1-9,1.1-17.2,1c-0.5-1.8-1.5-4.3-2.5-6.1c3.4,0.1,6.6,0.2,9.2,0.2
			c7.4,0,7.8,0,7.8-2.3v-50H17.8v58h-6.7V32h35.1V21H5.1v-6.4h41.1V3.4l9,0.6c-0.1,0.7-0.7,1.2-2.1,1.4v9.2h41.8V21z M46.4,59.6
			H25.9V54H37c-0.9-3.3-3.2-8.3-5.6-11.9l5.4-1.5c2.6,3.5,5,8.5,6,11.8L37.7,54h22.6c-1.3-0.5-3.1-1.2-4-1.5
			c2.1-3.4,4.7-8.8,6.1-12.4l7.3,2.2c-0.3,0.6-1,0.9-2,0.9c-1.6,3.1-4.1,7.6-6.3,10.8H75v5.6H52.9 M46.4,76.5H24.2v-5.8h51.9v5.8
			H52.9"/>
	</g>
	<g class="st1">
		<line x1="24.3" y1="80.9" x2="40.1" y2="80.9"/>
		<g>
			<rect x="24.3" y="80.1" width="11.3" height="1.5"/>
			<g>
				<path d="M40.1,80.9c-2.1,0.8-4.8,2.1-6.4,3.6l1.3-3.6l-1.3-3.6C35.4,78.7,38,80.1,40.1,80.9z"/>
			</g>
		</g>
	</g>
	<g class="st1">
		<path d="M21.9,86.2c0-0.5,0.3-0.8,0.8-1l0,0c-0.4-0.2-0.6-0.5-0.6-0.9c0-0.6,0.5-1,1.2-1c0.8,0,1.1,0.5,1.1,1
			c0,0.3-0.2,0.7-0.6,0.9v0c0.5,0.2,0.8,0.5,0.8,1c0,0.7-0.6,1.1-1.3,1.1C22.3,87.2,21.9,86.7,21.9,86.2z M24,86.1
			c0-0.5-0.3-0.7-0.9-0.9c-0.5,0.1-0.7,0.4-0.7,0.8c0,0.4,0.3,0.7,0.8,0.7C23.6,86.8,24,86.5,24,86.1z M22.5,84.2
			c0,0.4,0.3,0.6,0.7,0.7c0.3-0.1,0.6-0.4,0.6-0.7c0-0.3-0.2-0.6-0.7-0.6C22.7,83.6,22.5,83.8,22.5,84.2z"/>
	</g>
</g>
<g id="Stroke6" class="st0">
	<g class="st1">
		<path d="M94.9,21H53.1v11h36.4v56.3c0,4.2-1.1,6.2-4.2,7.2c-3.2,1-9,1.1-17.2,1c-0.5-1.8-1.5-4.3-2.5-6.1c3.4,0.1,6.6,0.2,9.2,0.2
			c7.4,0,7.8,0,7.8-2.3v-50H17.8v58h-6.7V32h35.1V21H5.1v-6.4h41.1V3.4l9,0.6c-0.1,0.7-0.7,1.2-2.1,1.4v9.2h41.8V21z M46.4,59.6
			H25.9V54H37c-0.9-3.3-3.2-8.3-5.6-11.9l5.4-1.5c2.6,3.5,5,8.5,6,11.8L37.7,54h22.6c-1.3-0.5-3.1-1.2-4-1.5
			c2.1-3.4,4.7-8.8,6.1-12.4l7.3,2.2c-0.3,0.6-1,0.9-2,0.9c-1.6,3.1-4.1,7.6-6.3,10.8H75v5.6H52.9"/>
	</g>
	<g class="st1">
		<line x1="26.1" y1="63.4" x2="46.4" y2="63.4"/>
		<g>
			<rect x="26.1" y="62.7" width="15.8" height="1.5"/>
			<g>
				<path d="M46.4,63.4c-2.1,0.8-4.8,2.1-6.4,3.6l1.3-3.6L40,59.9C41.6,61.3,44.3,62.6,46.4,63.4z"/>
			</g>
		</g>
	</g>
	<g class="st1">
		<path d="M29.3,65.5v0.3l-1.7,3.5H27l1.7-3.4v0h-1.9v-0.4H29.3z"/>
	</g>
</g>
<g id="Stroke5" class="st0">
	<g class="st1">
		<path d="M94.9,21H53.1v11h36.4v56.3c0,4.2-1.1,6.2-4.2,7.2c-3.2,1-9,1.1-17.2,1c-0.5-1.8-1.5-4.3-2.5-6.1c3.4,0.1,6.6,0.2,9.2,0.2
			c7.4,0,7.8,0,7.8-2.3v-50H17.8v58h-6.7V32h35.1V21H5.1v-6.4h41.1V3.4l9,0.6c-0.1,0.7-0.7,1.2-2.1,1.4v9.2h41.8V21z M56.3,52.5
			c2.1-3.4,4.7-8.8,6.1-12.4l7.3,2.2c-0.3,0.6-1,0.9-2,0.9c-1.6,3.1-4.1,7.6-6.3,10.8 M37,54c-0.9-3.3-3.2-8.3-5.6-11.9l5.4-1.5
			c2.6,3.5,5,8.5,6,11.8L37.7,54"/>
	</g>
	<g class="st1">
		<path d="M70.8,44.3c-0.6,1.8-4.9,11.4-4.9,11.2"/>
		<g>
			<path d="M68.5,51.6L67.1,51c1.6-3.5,2.7-6.2,3-7l1.4,0.5C71.1,45.8,69.1,50.3,68.5,51.6z"/>
			<g>
				<path d="M65.9,55.4c0.2-2.3,0.1-5.2-0.6-7.3l2.7,2.7l3.8,0.3C69.9,52,67.5,53.8,65.9,55.4z"/>
			</g>
		</g>
	</g>
	<g class="st1">
		<path d="M74.8,43.2c-0.1,0-0.2,0-0.4,0c-0.8,0.1-1.3,0.7-1.4,1.4h0c0.2-0.2,0.5-0.4,0.9-0.4c0.7,0,1.2,0.5,1.2,1.3
			c0,0.7-0.5,1.4-1.3,1.4c-0.8,0-1.4-0.6-1.4-1.7c0-0.8,0.3-1.4,0.7-1.8c0.3-0.3,0.8-0.5,1.2-0.6c0.2,0,0.3,0,0.4,0V43.2z
			 M74.6,45.5c0-0.6-0.3-0.9-0.8-0.9c-0.3,0-0.6,0.2-0.8,0.5c0,0.1-0.1,0.1-0.1,0.2c0,0.6,0.3,1.1,0.9,1.1
			C74.3,46.4,74.6,46.1,74.6,45.5z"/>
	</g>
</g>
<g id="Stroke4" class="st0">
	<g class="st1">
		<path d="M94.9,21H53.1v11h36.4v56.3c0,4.2-1.1,6.2-4.2,7.2c-3.2,1-9,1.1-17.2,1c-0.5-1.8-1.5-4.3-2.5-6.1c3.4,0.1,6.6,0.2,9.2,0.2
			c7.4,0,7.8,0,7.8-2.3v-50H17.8v58h-6.7V32h35.1V21H5.1v-6.4h41.1V3.4l9,0.6c-0.1,0.7-0.7,1.2-2.1,1.4v9.2h41.8V21z M52.9,59.6
			 M37,54c-0.9-3.3-3.2-8.3-5.6-11.9l5.4-1.5c2.6,3.5,5,8.5,6,11.8L37.7,54"/>
	</g>
	<g class="st1">
		<line x1="29" y1="44.9" x2="31.8" y2="55.1"/>
		<g>
			<rect x="29" y="44.7" transform="matrix(0.9652 -0.2616 0.2616 0.9652 -11.4717 9.453)" width="1.5" height="6.1"/>
			<g>
				<path d="M31.8,55.1c-1.3-1.8-3.3-4-5.1-5.3l3.8,0.3l3.1-2.2C32.6,50,32,52.9,31.8,55.1z"/>
			</g>
		</g>
	</g>
	<g class="st1">
		<path d="M27,41.4h-1.5l-0.1,1c0.1,0,0.2,0,0.3,0c0.3,0,0.6,0.1,0.8,0.2c0.3,0.2,0.6,0.5,0.6,1c0,0.8-0.6,1.3-1.5,1.3
			c-0.4,0-0.8-0.1-1-0.2l0.1-0.4c0.2,0.1,0.5,0.2,0.8,0.2c0.5,0,0.9-0.3,0.9-0.8c0-0.5-0.3-0.9-1.1-0.9c-0.2,0-0.4,0-0.5,0l0.3-1.9
			H27V41.4z"/>
	</g>
</g>
<g id="Stroke3" class="st0">
	<g class="st1">
		<path d="M94.9,21H53.1v11h36.4v56.3c0,4.2-1.1,6.2-4.2,7.2c-3.2,1-9,1.1-17.2,1c-0.5-1.8-1.5-4.3-2.5-6.1c3.4,0.1,6.6,0.2,9.2,0.2
			c7.4,0,7.8,0,7.8-2.3v-50H17.8v58h-6.7V32h35.1V21H5.1v-6.4h41.1V3.4l9,0.6c-0.1,0.7-0.7,1.2-2.1,1.4v9.2h41.8V21z"/>
	</g>
	<g class="st1">
		<line x1="20.8" y1="42.7" x2="35.9" y2="42.7"/>
		<g>
			<rect x="20.8" y="42" width="10.6" height="1.5"/>
			<g>
				<path d="M35.9,42.7c-2.1,0.8-4.8,2.1-6.4,3.6l1.3-3.6l-1.3-3.6C31.1,40.6,33.8,41.9,35.9,42.7z"/>
			</g>
		</g>
	</g>
	<g class="st1">
		<path d="M21.4,49.4v-1.1h-1.8V48l1.7-2.5h0.6v2.4h0.5v0.4h-0.5v1.1H21.4z M21.4,47.9v-1.3c0-0.2,0-0.4,0-0.6h0
			c-0.1,0.2-0.2,0.4-0.3,0.6l-1,1.3v0H21.4z"/>
	</g>
</g>
<g id="Stroke2" class="st0">
	<g class="st1">
		<path d="M11.1,32h6.7l0,6.3v58h-6.7V32h35.1V21H5.1v-6.4h41.1V3.4l9,0.6c-0.1,0.7-0.7,1.2-2.1,1.4v9.2h41.8V21H53.1v11"/>
	</g>
	<g class="st1">
		<path d="M21.7,33.8c0,0.4,0,14.4,0,14.4"/>
		<g>
			<rect x="20.9" y="33.8" width="1.5" height="9.9"/>
			<g>
				<path d="M21.7,48.2c-0.8-2.1-2.1-4.8-3.6-6.4l3.6,1.3l3.6-1.3C23.8,43.4,22.4,46.1,21.7,48.2z"/>
			</g>
		</g>
	</g>
	<g class="st1">
		<path d="M24,34.2c0.1,0.1,0.5,0.2,0.9,0.2c0.7,0,0.9-0.4,0.9-0.8c0-0.5-0.5-0.8-1-0.8h-0.3v-0.4h0.3c0.4,0,0.9-0.2,0.9-0.7
			c0-0.3-0.2-0.6-0.7-0.6c-0.3,0-0.6,0.1-0.8,0.3l-0.1-0.4c0.2-0.1,0.6-0.3,1-0.3c0.8,0,1.1,0.5,1.1,0.9c0,0.4-0.2,0.7-0.7,0.9v0
			c0.5,0.1,0.9,0.5,0.9,1c0,0.6-0.5,1.2-1.4,1.2c-0.4,0-0.8-0.1-1-0.3L24,34.2z"/>
	</g>
</g>
<g id="Stroke1" class="st0">
	<g class="st1">
		<path d="M46.2,32V21H5.1v-6.4h41.1V3.4l9,0.6c-0.1,0.7-0.7,1.2-2.1,1.4v9.2h41.8V21H53.1v11 M17.8,38.3"/>
	</g>
	<g class="st1">
		<line x1="57.5" y1="4.3" x2="57.5" y2="13.9"/>
		<g>
			<rect x="56.7" y="4.3" width="1.5" height="5"/>
			<g>
				<path d="M57.5,13.9c-0.8-2.1-2.1-4.8-3.6-6.4l3.6,1.3L61,7.4C59.6,9.1,58.2,11.7,57.5,13.9z"/>
			</g>
		</g>
	</g>
	<g class="st1">
		<path d="M62,7V6.6l0.4-0.4c1-0.9,1.4-1.5,1.5-2c0-0.4-0.2-0.8-0.8-0.8c-0.4,0-0.6,0.2-0.8,0.3l-0.2-0.4C62.3,3.2,62.7,3,63.2,3
			c0.8,0,1.2,0.6,1.2,1.1c0,0.7-0.5,1.3-1.3,2.1l-0.3,0.3v0h1.8V7H62z"/>
	</g>
</g>
<g id="Stroke0" class="st0">
	<g class="st1">
		<path d="M46.2,21H5.1v-6.4h41.1h6.9h41.8V21H53.1"/>
	</g>
	<g class="st1">
		<linearGradient id="SVGID_1_" gradientUnits="userSpaceOnUse" x1="5.6737" y1="25.3101" x2="20.5935" y2="25.3101">
			<stop  offset="0" style="stop-color:#FFFFFF"/>
			<stop  offset="1" style="stop-color:#000000"/>
		</linearGradient>
		<line class="st2" x1="5.7" y1="25.3" x2="20.6" y2="25.3"/>
		<g>
			<rect x="5.7" y="24.6" width="10.4" height="1.5"/>
			<g>
				<path d="M20.6,25.3c-2.1,0.8-4.8,2.1-6.4,3.6l1.3-3.6l-1.3-3.6C15.8,23.2,18.5,24.5,20.6,25.3z"/>
			</g>
		</g>
	</g>
	<g class="st1">
		<path d="M6.5,28.6L6.5,28.6L5.8,29l-0.1-0.4l0.9-0.5H7V32H6.5V28.6z"/>
	</g>
</g>
<g id="Kanji" class="st0">
	<g class="st1">
		<path d="M94.9,21H53.1v11h36.4v56.3c0,4.2-1.1,6.2-4.2,7.2c-3.2,1-9,1.1-17.2,1c-0.5-1.8-1.5-4.3-2.5-6.1c3.4,0.1,6.6,0.2,9.2,0.2
			c7.4,0,7.8,0,7.8-2.3v-50H17.8v58h-6.7V32h35.1V21H5.1v-6.4h41.1V3.4l9,0.6c-0.1,0.7-0.7,1.2-2.1,1.4v9.2h41.8V21z M76.1,76.5
			H52.9v19.1h-6.5V76.5H24.2v-5.8h22.2V59.6H25.9V54H37c-0.9-3.3-3.2-8.3-5.6-11.9l5.4-1.5c2.6,3.5,5,8.5,6,11.8L37.7,54h22.6
			c-1.3-0.5-3.1-1.2-4-1.5c2.1-3.4,4.7-8.8,6.1-12.4l7.3,2.2c-0.3,0.6-1,0.9-2,0.9c-1.6,3.1-4.1,7.6-6.3,10.8H75v5.6H52.9v11.1h23.2
			V76.5z"/>
	</g>
</g>
</svg>
