<?xml version="1.0" encoding="utf-8"?>
<!-- Generator: Adobe Illustrator 26.2.1, SVG Export Plug-In . SVG Version: 6.00 Build 0)  -->
<svg version="1.1" xmlns="http://www.w3.org/2000/svg" xmlns:xlink="http://www.w3.org/1999/xlink" x="0px" y="0px"
	 viewBox="0 0 100 100" style="enable-background:new 0 0 100 100;" xml:space="preserve" width = "100px" height = "100px">
<style type="text/css">
	.st0{display:none;}
	.st1{display:inline;}
</style>


		<path d="M94.9,21H53.1v11h36.4v56.3c0,4.2-1.1,6.2-4.2,7.2c-3.2,1-9,1.1-17.2,1c-0.5-1.8-1.5-4.3-2.5-6.1c3.4,0.1,6.6,0.2,9.2,0.2
			c7.4,0,7.8,0,7.8-2.3v-50H17.8v58h-6.7V32h35.1V21H5.1v-6.4h41.1V3.4l9,0.6c-0.1,0.7-0.7,1.2-2.1,1.4v9.2h41.8V21z M46.4,59.6
			H25.9V54H37c-0.9-3.3-3.2-8.3-5.6-11.9l5.4-1.5c2.6,3.5,5,8.5,6,11.8L37.7,54h22.6c-1.3-0.5-3.1-1.2-4-1.5
			c2.1-3.4,4.7-8.8,6.1-12.4l7.3,2.2c-0.3,0.6-1,0.9-2,0.9c-1.6,3.1-4.1,7.6-6.3,10.8H75v5.6H52.9 M46.4,76.5H24.2v-5.8h51.9v5.8
			H52.9"/>

		<line x1="24.3" y1="80.9" x2="40.1" y2="80.9"/>

			<rect x="24.3" y="80.1" width="11.3" height="1.5"/>

				<path d="M40.1,80.9c-2.1,0.8-4.8,2.1-6.4,3.6l1.3-3.6l-1.3-3.6C35.4,78.7,38,80.1,40.1,80.9z"/>

		<path d="M21.9,86.2c0-0.5,0.3-0.8,0.8-1l0,0c-0.4-0.2-0.6-0.5-0.6-0.9c0-0.6,0.5-1,1.2-1c0.8,0,1.1,0.5,1.1,1
			c0,0.3-0.2,0.7-0.6,0.9v0c0.5,0.2,0.8,0.5,0.8,1c0,0.7-0.6,1.1-1.3,1.1C22.3,87.2,21.9,86.7,21.9,86.2z M24,86.1
			c0-0.5-0.3-0.7-0.9-0.9c-0.5,0.1-0.7,0.4-0.7,0.8c0,0.4,0.3,0.7,0.8,0.7C23.6,86.8,24,86.5,24,86.1z M22.5,84.2
			c0,0.4,0.3,0.6,0.7,0.7c0.3-0.1,0.6-0.4,0.6-0.7c0-0.3-0.2-0.6-0.7-0.6C22.7,83.6,22.5,83.8,22.5,84.2z"/>

 </svg>