<?xml version="1.0" encoding="utf-8"?>
<!-- Generator: Adobe Illustrator 26.2.1, SVG Export Plug-In . SVG Version: 6.00 Build 0)  -->
<svg version="1.1" xmlns="http://www.w3.org/2000/svg" xmlns:xlink="http://www.w3.org/1999/xlink" x="0px" y="0px"
	 viewBox="0 0 100 100" style="enable-background:new 0 0 100 100;" xml:space="preserve" width = "100px" height = "100px">
<style type="text/css">
	.st0{display:none;}
	.st1{display:inline;}
</style>

		<path d="M94.9,21H53.1v11h36.4v56.3c0,4.2-1.1,6.2-4.2,7.2c-3.2,1-9,1.1-17.2,1c-0.5-1.8-1.5-4.3-2.5-6.1c3.4,0.1,6.6,0.2,9.2,0.2
			c7.4,0,7.8,0,7.8-2.3v-50H17.8v58h-6.7V32h35.1V21H5.1v-6.4h41.1V3.4l9,0.6c-0.1,0.7-0.7,1.2-2.1,1.4v9.2h41.8V21z M56.3,52.5
			c2.1-3.4,4.7-8.8,6.1-12.4l7.3,2.2c-0.3,0.6-1,0.9-2,0.9c-1.6,3.1-4.1,7.6-6.3,10.8 M37,54c-0.9-3.3-3.2-8.3-5.6-11.9l5.4-1.5
			c2.6,3.5,5,8.5,6,11.8L37.7,54"/>

		<path d="M70.8,44.3c-0.6,1.8-4.9,11.4-4.9,11.2"/>

			<path d="M68.5,51.6L67.1,51c1.6-3.5,2.7-6.2,3-7l1.4,0.5C71.1,45.8,69.1,50.3,68.5,51.6z"/>

				<path d="M65.9,55.4c0.2-2.3,0.1-5.2-0.6-7.3l2.7,2.7l3.8,0.3C69.9,52,67.5,53.8,65.9,55.4z"/>

		<path d="M74.8,43.2c-0.1,0-0.2,0-0.4,0c-0.8,0.1-1.3,0.7-1.4,1.4h0c0.2-0.2,0.5-0.4,0.9-0.4c0.7,0,1.2,0.5,1.2,1.3
			c0,0.7-0.5,1.4-1.3,1.4c-0.8,0-1.4-0.6-1.4-1.7c0-0.8,0.3-1.4,0.7-1.8c0.3-0.3,0.8-0.5,1.2-0.6c0.2,0,0.3,0,0.4,0V43.2z
			 M74.6,45.5c0-0.6-0.3-0.9-0.8-0.9c-0.3,0-0.6,0.2-0.8,0.5c0,0.1-0.1,0.1-0.1,0.2c0,0.6,0.3,1.1,0.9,1.1
			C74.3,46.4,74.6,46.1,74.6,45.5z"/>

 </svg>