<?xml version="1.0" encoding="utf-8"?>
<!-- Generator: Adobe Illustrator 26.2.1, SVG Export Plug-In . SVG Version: 6.00 Build 0)  -->
<svg version="1.1" xmlns="http://www.w3.org/2000/svg" xmlns:xlink="http://www.w3.org/1999/xlink" x="0px" y="0px"
	 viewBox="0 0 100 100" style="enable-background:new 0 0 100 100;" xml:space="preserve" width = "100px" height = "100px">
<style type="text/css">
	.st0{display:none;}
	.st1{display:inline;}
</style> 


		<path d="M94.9,21H53.1v11h36.4v56.3c0,4.2-1.1,6.2-4.2,7.2c-3.2,1-9,1.1-17.2,1c-0.5-1.8-1.5-4.3-2.5-6.1c3.4,0.1,6.6,0.2,9.2,0.2
			c7.4,0,7.8,0,7.8-2.3v-50H17.8v58h-6.7V32h35.1V21H5.1v-6.4h41.1V3.4l9,0.6c-0.1,0.7-0.7,1.2-2.1,1.4v9.2h41.8V21z"/>

		<line x1="20.8" y1="42.7" x2="35.9" y2="42.7"/>
	
			<rect x="20.8" y="42" width="10.6" height="1.5"/>
	
				<path d="M35.9,42.7c-2.1,0.8-4.8,2.1-6.4,3.6l1.3-3.6l-1.3-3.6C31.1,40.6,33.8,41.9,35.9,42.7z"/>

		<path d="M21.4,49.4v-1.1h-1.8V48l1.7-2.5h0.6v2.4h0.5v0.4h-0.5v1.1H21.4z M21.4,47.9v-1.3c0-0.2,0-0.4,0-0.6h0
			c-0.1,0.2-0.2,0.4-0.3,0.6l-1,1.3v0H21.4z"/>

</svg>