<?xml version="1.0" encoding="utf-8"?>
<!-- Generator: Adobe Illustrator 26.2.1, SVG Export Plug-In . SVG Version: 6.00 Build 0)  -->
<svg version="1.1" xmlns="http://www.w3.org/2000/svg" xmlns:xlink="http://www.w3.org/1999/xlink" x="0px" y="0px"
	 viewBox="0 0 100 100" style="enable-background:new 0 0 100 100;" xml:space="preserve" width = "100px" height = "100px">
<style type="text/css">
	.st0{display:none;}
	.st1{display:inline;}
</style> 


		<path d="M94.9,21H53.1v11h36.4v56.3c0,4.2-1.1,6.2-4.2,7.2c-3.2,1-9,1.1-17.2,1c-0.5-1.8-1.5-4.3-2.5-6.1c3.4,0.1,6.6,0.2,9.2,0.2
			c7.4,0,7.8,0,7.8-2.3v-50H17.8v58h-6.7V32h35.1V21H5.1v-6.4h41.1V3.4l9,0.6c-0.1,0.7-0.7,1.2-2.1,1.4v9.2h41.8V21z M76.1,76.5
			H52.9v19.1h-6.5V76.5H24.2v-5.8h22.2V59.6H25.9V54H37c-0.9-3.3-3.2-8.3-5.6-11.9l5.4-1.5c2.6,3.5,5,8.5,6,11.8L37.7,54h22.6
			c-1.3-0.5-3.1-1.2-4-1.5c2.1-3.4,4.7-8.8,6.1-12.4l7.3,2.2c-0.3,0.6-1,0.9-2,0.9c-1.6,3.1-4.1,7.6-6.3,10.8H75v5.6H52.9v11.1h23.2
			V76.5z"/>

		<line x1="42.2" y1="60.8" x2="42.2" y2="70.3"/>
	
			<rect x="41.4" y="60.8" width="1.5" height="4.9"/>
		
				<path d="M42.2,70.3c-0.8-2.1-2.1-4.8-3.6-6.4l3.6,1.3l3.6-1.3C44.3,65.5,42.9,68.1,42.2,70.3z"/>

		<path d="M35.5,64.1c0.1,0,0.2,0,0.4,0c0.3,0,0.6-0.2,0.8-0.4c0.3-0.2,0.4-0.6,0.5-1h0c-0.2,0.3-0.5,0.4-0.9,0.4
			c-0.7,0-1.2-0.5-1.2-1.2c0-0.7,0.5-1.4,1.3-1.4s1.3,0.6,1.3,1.6c0,0.9-0.3,1.5-0.7,1.8c-0.3,0.3-0.7,0.5-1.1,0.5
			c-0.2,0-0.4,0-0.5,0V64.1z M35.7,61.8c0,0.5,0.3,0.8,0.7,0.8c0.4,0,0.6-0.2,0.8-0.4c0,0,0-0.1,0-0.2c0-0.7-0.2-1.2-0.8-1.2
			C36,60.9,35.7,61.3,35.7,61.8z"/>

</svg>