<?xml version="1.0" encoding="utf-8"?>
<!-- Generator: Adobe Illustrator 26.2.1, SVG Export Plug-In . SVG Version: 6.00 Build 0)  -->
<svg version="1.1" xmlns="http://www.w3.org/2000/svg" xmlns:xlink="http://www.w3.org/1999/xlink" x="0px" y="0px"
	 viewBox="0 0 100 100" style="enable-background:new 0 0 100 100;" xml:space="preserve">
<style type="text/css">
	.st0{display:none;}
	.st1{display:inline;}
</style>
<g id="Stroke4">
	<g>
		<path d="M81.4,54.3l8.9,0.6c-0.1,0.7-0.6,1.2-2,1.3V96h-6.9v-6.3h-65v6.6H9.7v-42l8.8,0.5c-0.1,0.8-0.7,1.3-2.1,1.4v26.9h28.4
			V47.6H13.5V13l8.8,0.6c-0.1,0.6-0.7,1.1-2.1,1.3V41h24.6V3.7l8.9,0.6c-0.1,0.7-0.7,1.2-2,1.4V41h25.6V12.9l8.9,0.6
			c-0.1,0.7-0.6,1.2-2,1.4v32.7H51.7v35.5h29.7V54.3z"/>
	</g>
	<g>
		<path d="M77.1,55.1c0,0.3,0,14.1,0,14.1"/>
		<g>
			<rect x="76.3" y="55.1" width="1.5" height="9.5"/>
			<g>
				<path d="M77.1,69.1c-0.8-2.1-2.1-4.8-3.6-6.4l3.6,1.3l3.6-1.3C79.2,64.3,77.9,67,77.1,69.1z"/>
			</g>
		</g>
	</g>
	<g>
		<path d="M74.2,55.5h-1.5l-0.2,1c0.1,0,0.2,0,0.3,0c0.3,0,0.6,0.1,0.8,0.2c0.3,0.2,0.6,0.5,0.6,1c0,0.8-0.6,1.3-1.5,1.3
			c-0.4,0-0.8-0.1-1-0.2l0.1-0.4c0.2,0.1,0.5,0.2,0.8,0.2c0.5,0,0.9-0.3,0.9-0.8c0-0.5-0.3-0.9-1.1-0.9c-0.2,0-0.4,0-0.5,0l0.3-1.9
			h1.9V55.5z"/>
	</g>
</g>
<g id="Stroke3" class="st0">
	<g class="st1">
		<path d="M81.4,89.7h-65v6.6H9.7v-42l8.8,0.5c-0.1,0.8-0.7,1.3-2.1,1.4v26.9h28.4V47.6H13.5V13l8.8,0.6c-0.1,0.6-0.7,1.1-2.1,1.3
			V41h24.6V3.7l8.9,0.6c-0.1,0.7-0.7,1.2-2,1.4V41h25.6V12.9l8.9,0.6c-0.1,0.7-0.6,1.2-2,1.4v32.7H51.7v35.5h29.7"/>
	</g>
	<g class="st1">
		<path d="M33.2,79.9h-10c-2.2,0-4.1-1.7-4.1-3.7V56.7h1.5v19.4c0,1.2,1.2,2.2,2.6,2.2h10V79.9z"/>
		<g>
			<path d="M37.7,79.1c-2.1,0.8-4.8,2.1-6.4,3.6l1.3-3.6l-1.3-3.6C32.9,77,35.6,78.3,37.7,79.1z"/>
		</g>
	</g>
	<g class="st1">
		<path d="M23.9,59.1v-1.1H22v-0.3l1.7-2.5h0.6v2.4h0.5v0.4h-0.5v1.1H23.9z M23.9,57.7v-1.3c0-0.2,0-0.4,0-0.6h0
			c-0.1,0.2-0.2,0.4-0.3,0.6l-1,1.3v0H23.9z"/>
	</g>
</g>
<g id="Stroke2" class="st0">
	<g class="st1">
		<path d="M44.8,83.1V47.6H13.5V13l8.8,0.6c-0.1,0.6-0.7,1.1-2.1,1.3V41h24.6V3.7l8.9,0.6c-0.1,0.7-0.7,1.2-2,1.4V41h25.6V12.9
			l8.9,0.6c-0.1,0.7-0.6,1.2-2,1.4v32.7H51.7v35.5"/>
	</g>
	<g class="st1">
		<path d="M88,13.6c0,0.6,0,14.1,0,14.1"/>
		<g>
			<rect x="87.2" y="13.6" width="1.5" height="9.6"/>
			<g>
				<path d="M88,27.7c-0.8-2.1-2.1-4.8-3.6-6.4l3.6,1.3l3.6-1.3C90.1,22.9,88.7,25.6,88,27.7z"/>
			</g>
		</g>
	</g>
	<g class="st1">
		<path d="M90.4,16.5c0.2,0.1,0.5,0.2,0.9,0.2c0.7,0,0.9-0.4,0.9-0.8c0-0.5-0.5-0.8-1-0.8h-0.3v-0.4h0.3c0.4,0,0.9-0.2,0.9-0.7
			c0-0.3-0.2-0.6-0.7-0.6c-0.3,0-0.6,0.1-0.8,0.3l-0.1-0.4c0.2-0.1,0.6-0.3,1-0.3c0.8,0,1.1,0.5,1.1,0.9c0,0.4-0.2,0.7-0.7,0.9v0
			c0.5,0.1,0.9,0.5,0.9,1c0,0.6-0.5,1.2-1.4,1.2c-0.4,0-0.8-0.1-1-0.3L90.4,16.5z"/>
	</g>
</g>
<g id="Stroke1" class="st0">
	<g class="st1">
		<path d="M84.2,47.6H51.7v35.5h-6.9V47.6H13.5V13l8.8,0.6c-0.1,0.6-0.7,1.1-2.1,1.3V41h24.6V3.7l8.9,0.6c-0.1,0.7-0.7,1.2-2,1.4V41
			h25.6l6.9,0"/>
	</g>
	<g class="st1">
		<path d="M31,37.1h-5.2c-2.1,0-3.7-1.7-3.7-3.7V15.2h1.5v18.2c0,1.2,1,2.2,2.2,2.2H31V37.1z"/>
		<g>
			<path d="M35.5,36.4c-2.1,0.8-4.8,2.1-6.4,3.6l1.3-3.6l-1.3-3.6C30.7,34.2,33.4,35.6,35.5,36.4z"/>
		</g>
	</g>
	<g class="st1">
		<path d="M24.7,19.4v-0.3l0.4-0.4c1-0.9,1.4-1.5,1.5-2c0-0.4-0.2-0.8-0.8-0.8c-0.4,0-0.6,0.2-0.8,0.3l-0.2-0.4
			c0.3-0.2,0.7-0.4,1.1-0.4c0.8,0,1.2,0.6,1.2,1.1c0,0.7-0.5,1.3-1.3,2.1L25.5,19v0h1.8v0.4H24.7z"/>
	</g>
</g>
<g id="Stroke0" class="st0">
	<g class="st1">
		<path d="M44.8,41V3.7l8.9,0.6c-0.1,0.7-0.7,1.2-2,1.4V41v6.6v35.5c0,0-6-0.1-6.9,0V47.6V41 M16.4,89.7"/>
	</g>
	<g class="st1">
		<line x1="56.4" y1="4.1" x2="56.4" y2="14.9"/>
		<g>
			<rect x="55.6" y="4.1" width="1.5" height="6.3"/>
			<g>
				<path d="M56.4,14.9c-0.8-2.1-2.1-4.8-3.6-6.4l3.6,1.3L60,8.5C58.5,10.1,57.2,12.8,56.4,14.9z"/>
			</g>
		</g>
	</g>
	<g class="st1">
		<path d="M59.8,4L59.8,4l-0.7,0.4L59,3.9l0.9-0.5h0.4v3.9h-0.5V4z"/>
	</g>
</g>
<g id="Kanji" class="st0">
	<g class="st1">
		<path d="M81.4,54.3l8.9,0.6c-0.1,0.7-0.6,1.2-2,1.3V96h-6.9v-6.3h-65v6.6H9.7v-42l8.8,0.5c-0.1,0.8-0.7,1.3-2.1,1.4v26.9h28.4
			V47.6H13.5V13l8.8,0.6c-0.1,0.6-0.7,1.1-2.1,1.3V41h24.6V3.7l8.9,0.6c-0.1,0.7-0.7,1.2-2,1.4V41h25.6V12.9l8.9,0.6
			c-0.1,0.7-0.6,1.2-2,1.4v32.7H51.7v35.5h29.7V54.3z"/>
	</g>
</g>
</svg>
