<?xml version="1.0" encoding="utf-8"?>
<!-- Generator: Adobe Illustrator 26.2.1, SVG Export Plug-In . SVG Version: 6.00 Build 0)  -->
<svg version="1.1" xmlns="http://www.w3.org/2000/svg" xmlns:xlink="http://www.w3.org/1999/xlink" x="0px" y="0px"
	 viewBox="0 0 100 100" style="enable-background:new 0 0 100 100;" xml:space="preserve" width = "100px" height = "100px">
<style type="text/css">
	.st0{display:none;}
	.st1{display:inline;}
</style> 

		<path d="M44.8,41V3.7l8.9,0.6c-0.1,0.7-0.7,1.2-2,1.4V41v6.6v35.5c0,0-6-0.1-6.9,0V47.6V41 M16.4,89.7"/>


		<line x1="56.4" y1="4.1" x2="56.4" y2="14.9"/>

		<rect x="55.6" y="4.1" width="1.5" height="6.3"/>

		<path d="M56.4,14.9c-0.8-2.1-2.1-4.8-3.6-6.4l3.6,1.3L60,8.5C58.5,10.1,57.2,12.8,56.4,14.9z"/>
	
		<path d="M59.8,4L59.8,4l-0.7,0.4L59,3.9l0.9-0.5h0.4v3.9h-0.5V4z"/>

</svg>