<?xml version="1.0" encoding="utf-8"?>
<!-- Generator: Adobe Illustrator 26.2.1, SVG Export Plug-In . SVG Version: 6.00 Build 0)  -->
<svg version="1.1" xmlns="http://www.w3.org/2000/svg" xmlns:xlink="http://www.w3.org/1999/xlink" x="0px" y="0px"
	 viewBox="0 0 100 100" style="enable-background:new 0 0 100 100;" xml:space="preserve" width = "100px" height = "100px">
<style type="text/css">
	.st0{display:none;}
	.st1{display:inline;}
</style> 


		<path d="M81.4,89.7h-65v6.6H9.7v-42l8.8,0.5c-0.1,0.8-0.7,1.3-2.1,1.4v26.9h28.4V47.6H13.5V13l8.8,0.6c-0.1,0.6-0.7,1.1-2.1,1.3
			V41h24.6V3.7l8.9,0.6c-0.1,0.7-0.7,1.2-2,1.4V41h25.6V12.9l8.9,0.6c-0.1,0.7-0.6,1.2-2,1.4v32.7H51.7v35.5h29.7"/>

		<path d="M33.2,79.9h-10c-2.2,0-4.1-1.7-4.1-3.7V56.7h1.5v19.4c0,1.2,1.2,2.2,2.6,2.2h10V79.9z"/>

			<path d="M37.7,79.1c-2.1,0.8-4.8,2.1-6.4,3.6l1.3-3.6l-1.3-3.6C32.9,77,35.6,78.3,37.7,79.1z"/>

		<path d="M23.9,59.1v-1.1H22v-0.3l1.7-2.5h0.6v2.4h0.5v0.4h-0.5v1.1H23.9z M23.9,57.7v-1.3c0-0.2,0-0.4,0-0.6h0
			c-0.1,0.2-0.2,0.4-0.3,0.6l-1,1.3v0H23.9z"/>


</svg>