<?xml version="1.0" encoding="utf-8"?>
<!-- Generator: Adobe Illustrator 26.2.1, SVG Export Plug-In . SVG Version: 6.00 Build 0)  -->
<svg version="1.1" xmlns="http://www.w3.org/2000/svg" xmlns:xlink="http://www.w3.org/1999/xlink" x="0px" y="0px"
	 viewBox="0 0 100 100" style="enable-background:new 0 0 100 100;" xml:space="preserve" width = "100px" height = "100px">
<style type="text/css">
	.st0{display:none;}
	.st1{display:inline;}
</style>

		<path d="M84.2,47.6H51.7v35.5h-6.9V47.6H13.5V13l8.8,0.6c-0.1,0.6-0.7,1.1-2.1,1.3V41h24.6V3.7l8.9,0.6c-0.1,0.7-0.7,1.2-2,1.4V41
			h25.6l6.9,0"/>


		<path d="M31,37.1h-5.2c-2.1,0-3.7-1.7-3.7-3.7V15.2h1.5v18.2c0,1.2,1,2.2,2.2,2.2H31V37.1z"/>
		<path d="M35.5,36.4c-2.1,0.8-4.8,2.1-6.4,3.6l1.3-3.6l-1.3-3.6C30.7,34.2,33.4,35.6,35.5,36.4z"/>
		<path d="M24.7,19.4v-0.3l0.4-0.4c1-0.9,1.4-1.5,1.5-2c0-0.4-0.2-0.8-0.8-0.8c-0.4,0-0.6,0.2-0.8,0.3l-0.2-0.4
			c0.3-0.2,0.7-0.4,1.1-0.4c0.8,0,1.2,0.6,1.2,1.1c0,0.7-0.5,1.3-1.3,2.1L25.5,19v0h1.8v0.4H24.7z"/>


 </svg>