<?xml version="1.0" encoding="utf-8"?>
<!-- Generator: Adobe Illustrator 26.2.1, SVG Export Plug-In . SVG Version: 6.00 Build 0)  -->
<svg version="1.1" xmlns="http://www.w3.org/2000/svg" xmlns:xlink="http://www.w3.org/1999/xlink" x="0px" y="0px"
	 viewBox="0 0 100 100" style="enable-background:new 0 0 100 100;" xml:space="preserve" width = "100px" height = "100px">
<style type="text/css">
	.st0{display:none;}
	.st1{display:inline;}
</style>

		<path d="M81.4,54.3l8.9,0.6c-0.1,0.7-0.6,1.2-2,1.3V96h-6.9v-6.3h-65v6.6H9.7v-42l8.8,0.5c-0.1,0.8-0.7,1.3-2.1,1.4v26.9h28.4
			V47.6H13.5V13l8.8,0.6c-0.1,0.6-0.7,1.1-2.1,1.3V41h24.6V3.7l8.9,0.6c-0.1,0.7-0.7,1.2-2,1.4V41h25.6V12.9l8.9,0.6
			c-0.1,0.7-0.6,1.2-2,1.4v32.7H51.7v35.5h29.7V54.3z"/>


		<path d="M77.1,55.1c0,0.3,0,14.1,0,14.1"/>

		<rect x="76.3" y="55.1" width="1.5" height="9.5"/>
		
		<path d="M77.1,69.1c-0.8-2.1-2.1-4.8-3.6-6.4l3.6,1.3l3.6-1.3C79.2,64.3,77.9,67,77.1,69.1z"/>

		<path d="M74.2,55.5h-1.5l-0.2,1c0.1,0,0.2,0,0.3,0c0.3,0,0.6,0.1,0.8,0.2c0.3,0.2,0.6,0.5,0.6,1c0,0.8-0.6,1.3-1.5,1.3
			c-0.4,0-0.8-0.1-1-0.2l0.1-0.4c0.2,0.1,0.5,0.2,0.8,0.2c0.5,0,0.9-0.3,0.9-0.8c0-0.5-0.3-0.9-1.1-0.9c-0.2,0-0.4,0-0.5,0l0.3-1.9
			h1.9V55.5z"/>


 </svg>