<?xml version="1.0" encoding="utf-8"?>
<!-- Generator: Adobe Illustrator 26.2.1, SVG Export Plug-In . SVG Version: 6.00 Build 0)  -->
<svg version="1.1" xmlns="http://www.w3.org/2000/svg" xmlns:xlink="http://www.w3.org/1999/xlink" x="0px" y="0px"
	 viewBox="0 0 100 100" style="enable-background:new 0 0 100 100;" xml:space="preserve" width = "100px" height = "100px">
<style type="text/css">
	.st0{display:none;}
	.st1{display:inline;}
</style> 



	<path class="st2" d="M56.9,88.2"/>

		<path d="M31.3,46.1L3.8,50.5l-1.2-6.6l28.7-4.7l7.1-1.1l54.3-8.9l1.1,6.8l-55.4,8.9L31.3,46.1z"/>

		<path d="M7.6,59.5c0.3,0,84.1-16.7,84.1-16.7"/>

			<path d="M7.6,60.2v-0.8l-0.1-0.7c0.8-0.1,30.5-6,79.6-15.8l0.3,1.5C8,60.2,7.7,60.2,7.6,60.2z"/>
		
				<path d="M91.7,42.7c-1.9,1.2-4.3,3-5.6,4.8l0.6-3.8l-2-3.2C86.6,41.6,89.4,42.4,91.7,42.7z"/>
	
		<path d="M9,63.5L9,63.5l-0.7,0.4l-0.1-0.4L9.1,63h0.4v3.9H9V63.5z"/>

</svg>