<?xml version="1.0" encoding="utf-8"?>
<!-- Generator: Adobe Illustrator 26.2.1, SVG Export Plug-In . SVG Version: 6.00 Build 0)  -->
<svg version="1.1" xmlns="http://www.w3.org/2000/svg" xmlns:xlink="http://www.w3.org/1999/xlink" x="0px" y="0px"
	 viewBox="0 0 100 100" style="enable-background:new 0 0 100 100;" xml:space="preserve">
<style type="text/css">
	.st0{fill:none;}
	.st1{display:none;}
	.st2{display:inline;fill:none;}
	.st3{display:inline;}
	.st4{fill:none;stroke:#000000;stroke-width:1.5;stroke-miterlimit:10;}
</style>
<g id="Stroke4">
	<rect x="17.2" y="27.6" class="st0" width="12.6" height="0"/>
	<g>
		<path d="M16.1,7h67.8v86h-7v-7.1H22.8V93h-6.7V7z M76.9,13.5H22.8V31h54.1V13.5z M76.9,37.4H22.8v17.7h54.1V37.4z M22.8,79.3h54.1
			V61.6H22.8V79.3z"/>
	</g>
	<g>
		<line x1="26.6" y1="90" x2="44.7" y2="90"/>
		<g>
			<rect x="26.6" y="89.2" width="13.6" height="1.5"/>
			<g>
				<path d="M44.7,90c-2.1,0.8-4.8,2.1-6.4,3.6l1.3-3.6l-1.3-3.6C39.9,87.8,42.5,89.2,44.7,90z"/>
			</g>
		</g>
	</g>
	<g>
		<path d="M29.2,93.2h-1.5l-0.1,1c0.1,0,0.2,0,0.3,0c0.3,0,0.6,0.1,0.8,0.2c0.3,0.2,0.6,0.5,0.6,1c0,0.8-0.6,1.3-1.5,1.3
			c-0.4,0-0.8-0.1-1-0.2l0.1-0.4c0.2,0.1,0.5,0.2,0.8,0.2c0.5,0,0.9-0.3,0.9-0.8c0-0.5-0.3-0.9-1.1-0.9c-0.2,0-0.4,0-0.5,0l0.3-1.9
			h1.9V93.2z"/>
	</g>
</g>
<g id="Stroke3" class="st1">
	<rect x="17.2" y="27.6" class="st2" width="12.6" height="0"/>
	<g class="st3">
		<path d="M76.9,61.6H22.8V93h-6.7V7h67.8v86h-7 M76.9,13.5H22.8V31h54.1V13.5z M76.9,37.4H22.8v17.7h54.1V37.4z"/>
	</g>
	<g class="st3">
		<line x1="24.3" y1="65.8" x2="46.6" y2="65.8"/>
		<g>
			<rect x="24.3" y="65.1" width="17.7" height="1.5"/>
			<g>
				<path d="M46.6,65.8c-2.1,0.8-4.8,2.1-6.4,3.6l1.3-3.6l-1.3-3.6C41.8,63.7,44.5,65,46.6,65.8z"/>
			</g>
		</g>
	</g>
	<g class="st3">
		<path d="M26.6,72.5v-1.1h-1.8v-0.3l1.7-2.5h0.6v2.4h0.5v0.4h-0.5v1.1H26.6z M26.6,71.1v-1.3c0-0.2,0-0.4,0-0.6h0
			c-0.1,0.2-0.2,0.4-0.3,0.6l-1,1.3v0H26.6z"/>
	</g>
</g>
<g id="Stroke2" class="st1">
	<rect x="17.2" y="27.6" class="st2" width="12.6" height="0"/>
	<g class="st3">
		<path d="M76.9,13.5H22.8V31h54.1V13.5z M76.9,37.4H22.8V93h-6.7V7h67.8v86h-7"/>
	</g>
	<g class="st3">
		<line x1="24.7" y1="41.4" x2="42.6" y2="41.4"/>
		<g>
			<line class="st4" x1="24.7" y1="41.4" x2="38.1" y2="41.4"/>
			<g>
				<path d="M42.6,41.4c-2.1,0.8-4.8,2.1-6.4,3.6l1.3-3.6l-1.3-3.6C37.9,39.2,40.5,40.6,42.6,41.4z"/>
			</g>
		</g>
	</g>
	<g class="st3">
		<path d="M25.8,48c0.1,0.1,0.5,0.2,0.9,0.2c0.7,0,0.9-0.4,0.9-0.8c0-0.5-0.5-0.8-1-0.8h-0.3v-0.4h0.3c0.4,0,0.9-0.2,0.9-0.7
			c0-0.3-0.2-0.6-0.7-0.6c-0.3,0-0.6,0.1-0.8,0.3l-0.1-0.4c0.2-0.1,0.6-0.3,1-0.3c0.8,0,1.1,0.5,1.1,0.9c0,0.4-0.2,0.7-0.7,0.9v0
			c0.5,0.1,0.9,0.5,0.9,1c0,0.6-0.5,1.2-1.4,1.2c-0.4,0-0.8-0.1-1-0.3L25.8,48z"/>
	</g>
</g>
<g id="Stroke1" class="st1">
	<rect x="17.2" y="27.6" class="st2" width="12.6" height="0"/>
	<g class="st3">
		<path d="M76.9,13.5H22.8V93h-6.7V7h67.8v86h-7"/>
	</g>
	<g class="st3">
		<path d="M27,17.8c1,0,16.2,0,16.2,0"/>
		<g>
			<rect x="27" y="17" width="11.7" height="1.5"/>
			<g>
				<path d="M43.2,17.8c-2.1,0.8-4.8,2.1-6.4,3.6l1.3-3.6l-1.3-3.6C38.4,15.6,41.1,17,43.2,17.8z"/>
			</g>
		</g>
	</g>
	<g class="st3">
		<path d="M27.8,24.4v-0.3l0.4-0.4c1-0.9,1.4-1.5,1.5-2c0-0.4-0.2-0.8-0.8-0.8c-0.4,0-0.6,0.2-0.8,0.3l-0.2-0.4
			c0.3-0.2,0.7-0.4,1.1-0.4c0.8,0,1.2,0.6,1.2,1.1c0,0.7-0.5,1.3-1.3,2.1l-0.3,0.3v0h1.8v0.4H27.8z"/>
	</g>
</g>
<g id="Stroke0" class="st1">
	<rect x="17.2" y="27.6" class="st2" width="12.6" height="0"/>
	<g class="st3">
		<path d="M22.8,13.5V31v6.4v17.7v6.5v17.7v6.6V93h-6.7V7h6.7"/>
	</g>
	<g class="st3">
		<line x1="28.5" y1="8" x2="28.5" y2="24.8"/>
		<g>
			<rect x="27.7" y="8" width="1.5" height="12.3"/>
			<g>
				<path d="M28.5,24.8c-0.8-2.1-2.1-4.8-3.6-6.4l3.6,1.3l3.6-1.3C30.6,20,29.3,22.7,28.5,24.8z"/>
			</g>
		</g>
	</g>
	<g class="st3">
		<path d="M33.3,9.5L33.3,9.5l-0.7,0.4l-0.1-0.4L33.4,9h0.4v3.9h-0.5V9.5z"/>
	</g>
</g>
<g id="Kanji" class="st1">
	<rect x="17.2" y="27.6" class="st2" width="12.6" height="0"/>
	<g class="st3">
		<path d="M16.1,7h67.8v86h-7v-7.1H22.8V93h-6.7V7z M76.9,13.5H22.8V31h54.1V13.5z M76.9,37.4H22.8v17.7h54.1V37.4z M22.8,79.3h54.1
			V61.6H22.8V79.3z"/>
	</g>
</g>
</svg>
