<?xml version="1.0" encoding="utf-8"?>
<!-- Generator: Adobe Illustrator 26.2.1, SVG Export Plug-In . SVG Version: 6.00 Build 0)  -->
<svg version="1.1" xmlns="http://www.w3.org/2000/svg" xmlns:xlink="http://www.w3.org/1999/xlink" x="0px" y="0px"
	 viewBox="0 0 100 100" style="enable-background:new 0 0 100 100;" xml:space="preserve" width = "100px" height = "100px">
<style type="text/css">
	.st0{display:none;}
	.st1{display:inline;}
</style> 

	<rect x="17.2" y="27.6" class="st2" width="12.6" height="0"/>

		<path d="M22.8,13.5V31v6.4v17.7v6.5v17.7v6.6V93h-6.7V7h6.7"/>

		<line x1="28.5" y1="8" x2="28.5" y2="24.8"/>

			<rect x="27.7" y="8" width="1.5" height="12.3"/>
		
				<path d="M28.5,24.8c-0.8-2.1-2.1-4.8-3.6-6.4l3.6,1.3l3.6-1.3C30.6,20,29.3,22.7,28.5,24.8z"/>

		<path d="M33.3,9.5L33.3,9.5l-0.7,0.4l-0.1-0.4L33.4,9h0.4v3.9h-0.5V9.5z"/>


</svg>