<?xml version="1.0" encoding="utf-8"?>
<!-- Generator: Adobe Illustrator 26.2.1, SVG Export Plug-In . SVG Version: 6.00 Build 0)  -->
<svg version="1.1" xmlns="http://www.w3.org/2000/svg" xmlns:xlink="http://www.w3.org/1999/xlink" x="0px" y="0px"
	 viewBox="0 0 100 100" style="enable-background:new 0 0 100 100;" xml:space="preserve" width = "100px" height = "100px">
<style type="text/css">
	.st0{display:none;}
	.st1{display:inline;}
</style> 


	<rect x="17.2" y="27.6" class="st2" width="12.6" height="0"/>

		<path d="M76.9,61.6H22.8V93h-6.7V7h67.8v86h-7 M76.9,13.5H22.8V31h54.1V13.5z M76.9,37.4H22.8v17.7h54.1V37.4z"/>


		<line x1="24.3" y1="65.8" x2="46.6" y2="65.8"/>

			<rect x="24.3" y="65.1" width="17.7" height="1.5"/>
	
				<path d="M46.6,65.8c-2.1,0.8-4.8,2.1-6.4,3.6l1.3-3.6l-1.3-3.6C41.8,63.7,44.5,65,46.6,65.8z"/>


		<path d="M26.6,72.5v-1.1h-1.8v-0.3l1.7-2.5h0.6v2.4h0.5v0.4h-0.5v1.1H26.6z M26.6,71.1v-1.3c0-0.2,0-0.4,0-0.6h0
			c-0.1,0.2-0.2,0.4-0.3,0.6l-1,1.3v0H26.6z"/>

</svg>