<?xml version="1.0" encoding="utf-8"?>
<!-- Generator: Adobe Illustrator 26.2.1, SVG Export Plug-In . SVG Version: 6.00 Build 0)  -->
<svg version="1.1" xmlns="http://www.w3.org/2000/svg" xmlns:xlink="http://www.w3.org/1999/xlink" x="0px" y="0px"
	 viewBox="0 0 100 100" style="enable-background:new 0 0 100 100;" xml:space="preserve" width = "100px" height = "100px">
<style type="text/css">
	.st0{display:none;}
	.st1{display:inline;}
</style>


	<rect x="17.2" y="27.6" class="st0" width="12.6" height="0"/>

		<path d="M33.8,10v66.2h-22v8.1H5.4V10H33.8z M27.5,16.2H11.8v23.5h15.7V16.2z M11.8,70h15.7V45.8H11.8V70z M68.3,35.6h26.3v6.1
			h-59v-6.1h26.1V21.9H39.9v-6h21.8V3.5L70.3,4c-0.1,0.7-0.7,1.2-2,1.4v10.5h22.3v6H68.3V35.6z M84.2,44.5c-0.1,0.7-0.6,1.2-1.9,1.3
			v8.6h12.1v6H82.3v28c0,4.1-0.9,6-4,7c-3,1-8.1,1.1-16.4,1.1c-0.3-1.8-1.3-4.5-2.3-6.3c3.8,0.1,7.4,0.2,10,0.2c5.6,0,6.1,0,6.1-2.1
			V60.4H36v-6h39.7V44L84.2,44.5z M55.7,86c-2.3-5-7.9-12.6-13.1-18l5.4-3.2c5.3,5.2,11.1,12.6,13.5,17.6L55.7,86z"/>

		<path d="M57.9,71.3c-0.6-0.8-1.1-1.5-1.7-2.2c-1.4-1.6-2.9-3.2-4.5-4.5l1-1.1c1.7,1.4,3.3,3,4.7,4.7c0.6,0.7,1.2,1.5,1.8,2.3
			L57.9,71.3z"/>
		
			<path d="M60.9,74.7c-1.8-1.3-4.4-2.8-6.5-3.4l3.7-0.9l2.3-3.1C60.1,69.5,60.4,72.5,60.9,74.7z"/>

		<path d="M58.3,62.7L58.3,62.7L57.6,63l-0.1-0.4l0.9-0.5h0.4v3.9h-0.5V62.7z"/>
		<path d="M62.8,64.1c0,1.3-0.5,2.1-1.4,2.1c-0.8,0-1.3-0.7-1.3-2c0-1.3,0.6-2,1.4-2C62.3,62.1,62.8,62.9,62.8,64.1z M60.7,64.2
			c0,1,0.3,1.6,0.8,1.6c0.5,0,0.8-0.6,0.8-1.6c0-1-0.2-1.6-0.8-1.6C61,62.5,60.7,63.1,60.7,64.2z"/>


 </svg>