<?xml version="1.0" encoding="utf-8"?>
<!-- Generator: Adobe Illustrator 26.2.1, SVG Export Plug-In . SVG Version: 6.00 Build 0)  -->
<svg version="1.1" xmlns="http://www.w3.org/2000/svg" xmlns:xlink="http://www.w3.org/1999/xlink" x="0px" y="0px"
	 viewBox="0 0 100 100" style="enable-background:new 0 0 100 100;" xml:space="preserve" width = "100px" height = "100px">
<style type="text/css">
	.st0{display:none;}
	.st1{display:inline;}
</style> 


	<rect x="17.2" y="27.6" class="st2" width="12.6" height="0"/>

		<path d="M12.2,10l-0.4,66.2v8.1H5.4V10 M11.8,16.2v23.5 M11.8,45.8V70"/>


		<path d="M17.2,11.6c0,1.6,0,26.4,0,26.4"/>

			<rect x="16.4" y="11.6" width="1.5" height="21.9"/>

				<path d="M17.2,38c-0.8-2.1-2.1-4.8-3.6-6.4l3.6,1.3l3.6-1.3C19.3,33.2,18,35.9,17.2,38z"/>

		<path d="M21.5,12.8L21.5,12.8l-0.7,0.4l-0.1-0.4l0.9-0.5H22v3.9h-0.5V12.8z"/>


</svg>