<?xml version="1.0" encoding="utf-8"?>
<!-- Generator: Adobe Illustrator 26.2.1, SVG Export Plug-In . SVG Version: 6.00 Build 0)  -->
<svg version="1.1" xmlns="http://www.w3.org/2000/svg" xmlns:xlink="http://www.w3.org/1999/xlink" x="0px" y="0px"
	 viewBox="0 0 100 100" style="enable-background:new 0 0 100 100;" xml:space="preserve" width = "100px" height = "100px">
<style type="text/css">
	.st0{display:none;}
	.st1{display:inline;}
</style>

	<rect x="17.2" y="27.6" class="st2" width="12.6" height="0"/>

		<path d="M33.8,10v66.2h-22v8.1H5.4V10H33.8z M27.5,16.2H11.8v23.5h15.7V16.2z M11.8,70h15.7V45.8H11.8V70z M68.3,35.6h26.3v6.1
			h-59v-6.1h26.1V21.9H39.9v-6h21.8V3.5L70.3,4c-0.1,0.7-0.7,1.2-2,1.4v10.5h22.3v6H68.3V35.6z M75.7,60.4H36v-6h39.7h6.6h12.1v6
			H82.3"/>

		<path d="M36.9,64.8c1.6,0,23.3,0,23.3,0"/>

			<rect x="36.9" y="64" width="18.8" height="1.5"/>
	
				<path d="M60.1,64.8c-2.1,0.8-4.8,2.1-6.4,3.6l1.3-3.6l-1.3-3.6C55.4,62.6,58,64,60.1,64.8z"/>

		<path d="M37.1,70.5c0-0.5,0.3-0.8,0.8-1l0,0c-0.4-0.2-0.6-0.5-0.6-0.9c0-0.6,0.5-1,1.2-1c0.8,0,1.1,0.5,1.1,1
			c0,0.3-0.2,0.7-0.6,0.9v0c0.5,0.2,0.8,0.5,0.8,1c0,0.7-0.6,1.1-1.3,1.1C37.6,71.6,37.1,71.1,37.1,70.5z M39.2,70.5
			c0-0.5-0.3-0.7-0.9-0.9c-0.5,0.1-0.7,0.4-0.7,0.8c0,0.4,0.3,0.7,0.8,0.7C38.9,71.2,39.2,70.9,39.2,70.5z M37.7,68.6
			c0,0.4,0.3,0.6,0.7,0.7c0.3-0.1,0.6-0.4,0.6-0.7c0-0.3-0.2-0.6-0.7-0.6C38,67.9,37.7,68.2,37.7,68.6z"/>


 </svg>