<?xml version="1.0" encoding="utf-8"?>
<!-- Generator: Adobe Illustrator 26.2.1, SVG Export Plug-In . SVG Version: 6.00 Build 0)  -->
<svg version="1.1" xmlns="http://www.w3.org/2000/svg" xmlns:xlink="http://www.w3.org/1999/xlink" x="0px" y="0px"
	 viewBox="0 0 100 100" style="enable-background:new 0 0 100 100;" xml:space="preserve" width = "100px" height = "100px">
<style type="text/css">
	.st0{display:none;}
	.st1{display:inline;}
</style>


	<rect x="17.2" y="27.6" class="st2" width="12.6" height="0"/>
	
		<path d="M33.8,10v66.2h-22v8.1H5.4V10H33.8z M27.5,16.2H11.8v23.5h15.7V16.2z M11.8,70h15.7V45.8H11.8V70z M68.3,35.6h26.3v6.1
			h-59v-6.1h26.1V21.9H39.9v-6h21.8V3.5L70.3,4c-0.1,0.7-0.7,1.2-2,1.4v10.5h22.3v6H68.3V35.6z M84.2,44.5c-0.1,0.7-0.6,1.2-1.9,1.3
			v8.6h12.1v6H82.3v28c0,4.1-0.9,6-4,7c-3,1-8.1,1.1-16.4,1.1c-0.3-1.8-1.3-4.5-2.3-6.3c3.8,0.1,7.4,0.2,10,0.2c5.6,0,6.1,0,6.1-2.1
			V60.4H36v-6h39.7V44L84.2,44.5z"/>

		<path d="M86.5,44.5c0,1.3,0,7.9,0,7.9"/>
	
			<rect x="86" y="44.5" width="1" height="4.9"/>
		
				<path d="M86.5,52.4c-0.5-1.4-1.4-3.1-2.3-4.2l2.3,0.8l2.3-0.8C87.9,49.2,87,51,86.5,52.4z"/>
	
		<path d="M90.9,48c0.1,0,0.2,0,0.4,0c0.3,0,0.6-0.2,0.8-0.4c0.3-0.2,0.4-0.6,0.5-1h0c-0.2,0.3-0.5,0.4-0.9,0.4
			c-0.7,0-1.2-0.5-1.2-1.2c0-0.7,0.5-1.4,1.3-1.4s1.3,0.6,1.3,1.6c0,0.9-0.3,1.5-0.7,1.8c-0.3,0.3-0.7,0.5-1.1,0.5
			c-0.2,0-0.4,0-0.5,0V48z M91,45.8c0,0.5,0.3,0.8,0.8,0.8c0.4,0,0.6-0.2,0.8-0.4c0,0,0-0.1,0-0.2c0-0.7-0.2-1.2-0.8-1.2
			C91.4,44.8,91,45.2,91,45.8z"/>


 </svg>