<?xml version="1.0" encoding="utf-8"?>
<!-- Generator: Adobe Illustrator 26.2.1, SVG Export Plug-In . SVG Version: 6.00 Build 0)  -->
<svg version="1.1" xmlns="http://www.w3.org/2000/svg" xmlns:xlink="http://www.w3.org/1999/xlink" x="0px" y="0px"
	 viewBox="0 0 100 100" style="enable-background:new 0 0 100 100;" xml:space="preserve" width = "100px" height = "100px">
<style type="text/css">
	.st0{display:none;}
	.st1{display:inline;}
</style>


	<rect x="17.2" y="27.6" class="st2" width="12.6" height="0"/>

		<path d="M33.8,10v66.2h-22v8.1H5.4V10H33.8z M27.5,16.2H11.8v23.5h15.7V16.2z M11.8,70h15.7V45.8H11.8V70z M68.3,35.6h26.3v6.1
			h-59v-6.1h26.1V21.9H39.9v-6h21.8V3.5L70.3,4c-0.1,0.7-0.7,1.2-2,1.4v10.5h22.3v6H68.3V35.6z"/>


		<path d="M37.7,45.8c0.9,0,32.1,0,32.1,0"/>
	
			<path class="st4" d="M37.7,45.8c0.7,0,18.9,0,27.6,0"/>
	
				<path d="M69.9,45.8c-2.1,0.8-4.8,2.1-6.4,3.6l1.3-3.6l-1.3-3.6C65.1,43.6,67.7,45,69.9,45.8z"/>
	
	<text transform="matrix(1 0 0 1 37.7215 51.9673)" class="st3 st5 st6">7</text>


 </svg>