<?xml version="1.0" encoding="utf-8"?>
<!-- Generator: Adobe Illustrator 26.2.1, SVG Export Plug-In . SVG Version: 6.00 Build 0)  -->
<svg version="1.1" xmlns="http://www.w3.org/2000/svg" xmlns:xlink="http://www.w3.org/1999/xlink" x="0px" y="0px"
	 viewBox="0 0 100 100" style="enable-background:new 0 0 100 100;" xml:space="preserve">
<style type="text/css">
	.st0{fill:none;}
	.st1{display:none;}
	.st2{display:inline;fill:none;}
	.st3{display:inline;}
	.st4{fill:none;stroke:#000000;stroke-width:1.5;stroke-miterlimit:10;}
	.st5{font-family:'MyriadPro-Regular';}
	.st6{font-size:6px;}
</style>
<g id="Stroke9">
	<rect x="17.2" y="27.6" class="st0" width="12.6" height="0"/>
	<g>
		<path d="M33.8,10v66.2h-22v8.1H5.4V10H33.8z M27.5,16.2H11.8v23.5h15.7V16.2z M11.8,70h15.7V45.8H11.8V70z M68.3,35.6h26.3v6.1
			h-59v-6.1h26.1V21.9H39.9v-6h21.8V3.5L70.3,4c-0.1,0.7-0.7,1.2-2,1.4v10.5h22.3v6H68.3V35.6z M84.2,44.5c-0.1,0.7-0.6,1.2-1.9,1.3
			v8.6h12.1v6H82.3v28c0,4.1-0.9,6-4,7c-3,1-8.1,1.1-16.4,1.1c-0.3-1.8-1.3-4.5-2.3-6.3c3.8,0.1,7.4,0.2,10,0.2c5.6,0,6.1,0,6.1-2.1
			V60.4H36v-6h39.7V44L84.2,44.5z M55.7,86c-2.3-5-7.9-12.6-13.1-18l5.4-3.2c5.3,5.2,11.1,12.6,13.5,17.6L55.7,86z"/>
	</g>
	<g>
		<path d="M57.9,71.3c-0.6-0.8-1.1-1.5-1.7-2.2c-1.4-1.6-2.9-3.2-4.5-4.5l1-1.1c1.7,1.4,3.3,3,4.7,4.7c0.6,0.7,1.2,1.5,1.8,2.3
			L57.9,71.3z"/>
		<g>
			<path d="M60.9,74.7c-1.8-1.3-4.4-2.8-6.5-3.4l3.7-0.9l2.3-3.1C60.1,69.5,60.4,72.5,60.9,74.7z"/>
		</g>
	</g>
	<g>
		<path d="M58.3,62.7L58.3,62.7L57.6,63l-0.1-0.4l0.9-0.5h0.4v3.9h-0.5V62.7z"/>
		<path d="M62.8,64.1c0,1.3-0.5,2.1-1.4,2.1c-0.8,0-1.3-0.7-1.3-2c0-1.3,0.6-2,1.4-2C62.3,62.1,62.8,62.9,62.8,64.1z M60.7,64.2
			c0,1,0.3,1.6,0.8,1.6c0.5,0,0.8-0.6,0.8-1.6c0-1-0.2-1.6-0.8-1.6C61,62.5,60.7,63.1,60.7,64.2z"/>
	</g>
</g>
<g id="Stroke8" class="st1">
	<rect x="17.2" y="27.6" class="st2" width="12.6" height="0"/>
	<g class="st3">
		<path d="M33.8,10v66.2h-22v8.1H5.4V10H33.8z M27.5,16.2H11.8v23.5h15.7V16.2z M11.8,70h15.7V45.8H11.8V70z M68.3,35.6h26.3v6.1
			h-59v-6.1h26.1V21.9H39.9v-6h21.8V3.5L70.3,4c-0.1,0.7-0.7,1.2-2,1.4v10.5h22.3v6H68.3V35.6z M84.2,44.5c-0.1,0.7-0.6,1.2-1.9,1.3
			v8.6h12.1v6H82.3v28c0,4.1-0.9,6-4,7c-3,1-8.1,1.1-16.4,1.1c-0.3-1.8-1.3-4.5-2.3-6.3c3.8,0.1,7.4,0.2,10,0.2c5.6,0,6.1,0,6.1-2.1
			V60.4H36v-6h39.7V44L84.2,44.5z"/>
	</g>
	<g class="st3">
		<path d="M86.5,44.5c0,1.3,0,7.9,0,7.9"/>
		<g>
			<rect x="86" y="44.5" width="1" height="4.9"/>
			<g>
				<path d="M86.5,52.4c-0.5-1.4-1.4-3.1-2.3-4.2l2.3,0.8l2.3-0.8C87.9,49.2,87,51,86.5,52.4z"/>
			</g>
		</g>
	</g>
	<g class="st3">
		<path d="M90.9,48c0.1,0,0.2,0,0.4,0c0.3,0,0.6-0.2,0.8-0.4c0.3-0.2,0.4-0.6,0.5-1h0c-0.2,0.3-0.5,0.4-0.9,0.4
			c-0.7,0-1.2-0.5-1.2-1.2c0-0.7,0.5-1.4,1.3-1.4s1.3,0.6,1.3,1.6c0,0.9-0.3,1.5-0.7,1.8c-0.3,0.3-0.7,0.5-1.1,0.5
			c-0.2,0-0.4,0-0.5,0V48z M91,45.8c0,0.5,0.3,0.8,0.8,0.8c0.4,0,0.6-0.2,0.8-0.4c0,0,0-0.1,0-0.2c0-0.7-0.2-1.2-0.8-1.2
			C91.4,44.8,91,45.2,91,45.8z"/>
	</g>
</g>
<g id="Stroke7" class="st1">
	<rect x="17.2" y="27.6" class="st2" width="12.6" height="0"/>
	<g class="st3">
		<path d="M33.8,10v66.2h-22v8.1H5.4V10H33.8z M27.5,16.2H11.8v23.5h15.7V16.2z M11.8,70h15.7V45.8H11.8V70z M68.3,35.6h26.3v6.1
			h-59v-6.1h26.1V21.9H39.9v-6h21.8V3.5L70.3,4c-0.1,0.7-0.7,1.2-2,1.4v10.5h22.3v6H68.3V35.6z M75.7,60.4H36v-6h39.7h6.6h12.1v6
			H82.3"/>
	</g>
	<g class="st3">
		<path d="M36.9,64.8c1.6,0,23.3,0,23.3,0"/>
		<g>
			<rect x="36.9" y="64" width="18.8" height="1.5"/>
			<g>
				<path d="M60.1,64.8c-2.1,0.8-4.8,2.1-6.4,3.6l1.3-3.6l-1.3-3.6C55.4,62.6,58,64,60.1,64.8z"/>
			</g>
		</g>
	</g>
	<g class="st3">
		<path d="M37.1,70.5c0-0.5,0.3-0.8,0.8-1l0,0c-0.4-0.2-0.6-0.5-0.6-0.9c0-0.6,0.5-1,1.2-1c0.8,0,1.1,0.5,1.1,1
			c0,0.3-0.2,0.7-0.6,0.9v0c0.5,0.2,0.8,0.5,0.8,1c0,0.7-0.6,1.1-1.3,1.1C37.6,71.6,37.1,71.1,37.1,70.5z M39.2,70.5
			c0-0.5-0.3-0.7-0.9-0.9c-0.5,0.1-0.7,0.4-0.7,0.8c0,0.4,0.3,0.7,0.8,0.7C38.9,71.2,39.2,70.9,39.2,70.5z M37.7,68.6
			c0,0.4,0.3,0.6,0.7,0.7c0.3-0.1,0.6-0.4,0.6-0.7c0-0.3-0.2-0.6-0.7-0.6C38,67.9,37.7,68.2,37.7,68.6z"/>
	</g>
</g>
<g id="Stroke6" class="st1">
	<rect x="17.2" y="27.6" class="st2" width="12.6" height="0"/>
	<g class="st3">
		<path d="M33.8,10v66.2h-22v8.1H5.4V10H33.8z M27.5,16.2H11.8v23.5h15.7V16.2z M11.8,70h15.7V45.8H11.8V70z M68.3,35.6h26.3v6.1
			h-59v-6.1h26.1V21.9H39.9v-6h21.8V3.5L70.3,4c-0.1,0.7-0.7,1.2-2,1.4v10.5h22.3v6H68.3V35.6z"/>
	</g>
	<g class="st3">
		<path d="M37.7,45.8c0.9,0,32.1,0,32.1,0"/>
		<g>
			<path class="st4" d="M37.7,45.8c0.7,0,18.9,0,27.6,0"/>
			<g>
				<path d="M69.9,45.8c-2.1,0.8-4.8,2.1-6.4,3.6l1.3-3.6l-1.3-3.6C65.1,43.6,67.7,45,69.9,45.8z"/>
			</g>
		</g>
	</g>
	<text transform="matrix(1 0 0 1 37.7215 51.9673)" class="st3 st5 st6">7</text>
</g>
<g id="Stroke5" class="st1">
	<rect x="17.2" y="27.6" class="st2" width="12.6" height="0"/>
	<g class="st3">
		<path d="M33.8,10v66.2h-22v8.1H5.4V10H33.8z M27.5,16.2H11.8v23.5h15.7V16.2z M11.8,70h15.7V45.8H11.8V70z M61.7,35.6V21.9H39.9
			v-6h21.8V3.5L70.3,4c-0.1,0.7-0.7,1.2-2,1.4v10.5h22.3v6H68.3v13.7"/>
	</g>
	<g class="st3">
		<line x1="73.7" y1="4.1" x2="73.7" y2="13.7"/>
		<g>
			<rect x="73" y="4.1" width="1.5" height="5"/>
			<g>
				<path d="M73.7,13.7c-0.8-2.1-2.1-4.8-3.6-6.4l3.6,1.3l3.6-1.3C75.9,8.9,74.5,11.5,73.7,13.7z"/>
			</g>
		</g>
	</g>
	<g class="st3">
		<path d="M81.2,5.4c-0.1,0-0.2,0-0.4,0c-0.8,0.1-1.3,0.7-1.4,1.4h0c0.2-0.2,0.5-0.4,0.9-0.4c0.7,0,1.2,0.5,1.2,1.3
			c0,0.7-0.5,1.4-1.3,1.4c-0.8,0-1.4-0.6-1.4-1.7c0-0.8,0.3-1.4,0.7-1.8C79.8,5.2,80.3,5,80.8,5c0.2,0,0.3,0,0.4,0V5.4z M81,7.6
			c0-0.6-0.3-0.9-0.8-0.9c-0.3,0-0.6,0.2-0.8,0.5c0,0.1-0.1,0.1-0.1,0.2c0,0.6,0.3,1.1,0.9,1.1C80.7,8.6,81,8.2,81,7.6z"/>
	</g>
</g>
<g id="Stroke4" class="st1">
	<rect x="17.2" y="27.6" class="st2" width="12.6" height="0"/>
	<g class="st3">
		<path d="M33.8,10v66.2h-22v8.1H5.4V10H33.8z M27.5,16.2H11.8v23.5h15.7V16.2z M11.8,70h15.7V45.8H11.8V70z M61.7,21.9H39.9v-6
			h21.8h6.6h22.3v6H68.3"/>
	</g>
	<g class="st3">
		<path d="M40.7,26.6c0.4,0,22.6,0,22.6,0"/>
		<g>
			<rect x="40.7" y="25.8" width="18.1" height="1.5"/>
			<g>
				<path d="M63.3,26.6c-2.1,0.8-4.8,2.1-6.4,3.6l1.3-3.6L56.9,23C58.6,24.4,61.2,25.8,63.3,26.6z"/>
			</g>
		</g>
	</g>
	<g class="st3">
		<path d="M43.3,30.2h-1.5l-0.1,1c0.1,0,0.2,0,0.3,0c0.3,0,0.6,0.1,0.8,0.2c0.3,0.2,0.6,0.5,0.6,1c0,0.8-0.6,1.3-1.5,1.3
			c-0.4,0-0.8-0.1-1-0.2l0.1-0.4c0.2,0.1,0.5,0.2,0.8,0.2c0.5,0,0.9-0.3,0.9-0.8c0-0.5-0.3-0.9-1.1-0.9c-0.2,0-0.4,0-0.5,0l0.3-1.9
			h1.9V30.2z"/>
	</g>
</g>
<g id="Stroke3" class="st1">
	<rect x="17.2" y="27.6" class="st2" width="12.6" height="0"/>
	<g class="st3">
		<path d="M33.8,10v66.2h-22v8.1H5.4V10H33.8z M27.5,16.2H11.8v23.5h15.7V16.2z M11.8,70h15.7V45.8H11.8V70z"/>
	</g>
	<g class="st3">
		<line x1="13.5" y1="80.6" x2="29.8" y2="80.6"/>
		<g>
			<rect x="13.5" y="79.9" width="11.8" height="1.5"/>
			<g>
				<path d="M29.8,80.6c-2.1,0.8-4.8,2.1-6.4,3.6l1.3-3.6l-1.3-3.6C25,78.5,27.6,79.8,29.8,80.6z"/>
			</g>
		</g>
	</g>
	<g class="st3">
		<path d="M15.9,87.6v-1.1h-1.8v-0.3l1.7-2.5h0.6v2.4H17v0.4h-0.5v1.1H15.9z M15.9,86.1v-1.3c0-0.2,0-0.4,0-0.6h0
			c-0.1,0.2-0.2,0.4-0.3,0.6l-1,1.3v0H15.9z"/>
	</g>
</g>
<g id="Stroke2" class="st1">
	<rect x="17.2" y="27.6" class="st2" width="12.6" height="0"/>
	<g class="st3">
		<path d="M33.8,10v66.2h-22v8.1H5.4V10H33.8z M27.5,16.2H11.8v23.5h15.7V16.2z M33.8,76.2h-6.3V45.8H11.8v30.4"/>
	</g>
	<g class="st3">
		<line x1="13.4" y1="50" x2="24.5" y2="50"/>
		<g>
			<rect x="13.4" y="49.2" width="6.5" height="1.5"/>
			<g>
				<path d="M24.5,50c-2.1,0.8-4.8,2.1-6.4,3.6l1.3-3.6L18,46.4C19.7,47.9,22.3,49.2,24.5,50z"/>
			</g>
		</g>
	</g>
	<g class="st3">
		<path d="M13.8,57.8c0.1,0.1,0.5,0.2,0.9,0.2c0.7,0,0.9-0.4,0.9-0.8c0-0.5-0.5-0.8-1-0.8h-0.3v-0.4h0.3c0.4,0,0.9-0.2,0.9-0.7
			c0-0.3-0.2-0.6-0.7-0.6c-0.3,0-0.6,0.1-0.8,0.3l-0.1-0.4c0.2-0.1,0.6-0.3,1-0.3c0.8,0,1.1,0.5,1.1,0.9c0,0.4-0.2,0.7-0.7,0.9v0
			c0.5,0.1,0.9,0.5,0.9,1c0,0.6-0.5,1.2-1.4,1.2c-0.4,0-0.8-0.1-1-0.3L13.8,57.8z"/>
	</g>
</g>
<g id="Stroke1" class="st1">
	<rect x="17.2" y="27.6" class="st2" width="12.6" height="0"/>
	<g class="st3">
		<path d="M27.5,76V16.2H11.8v68.1H5.4V10h28.4v66.2 M27.5,70"/>
	</g>
	<g class="st3">
		<path d="M24.2,28.6h-1.5v-9c-2,0-7.5-0.1-9.4,0l-0.1-1.5c2.3-0.1,9.9,0,10.2,0l0.7,0V28.6z"/>
		<g>
			<path d="M23.5,32.3c-0.6-1.7-1.7-3.8-2.9-5.1l2.9,1l2.9-1C25.2,28.4,24.1,30.6,23.5,32.3z"/>
		</g>
	</g>
	<g class="st3">
		<path d="M14.4,25.6v-0.3l0.4-0.4c1-0.9,1.4-1.5,1.5-2c0-0.4-0.2-0.8-0.8-0.8c-0.4,0-0.6,0.2-0.8,0.3L14.5,22
			c0.3-0.2,0.7-0.4,1.1-0.4c0.8,0,1.2,0.6,1.2,1.1c0,0.7-0.5,1.3-1.3,2.1l-0.3,0.3v0h1.8v0.4H14.4z"/>
	</g>
</g>
<g id="Stroke0" class="st1">
	<rect x="17.2" y="27.6" class="st2" width="12.6" height="0"/>
	<g class="st3">
		<path d="M12.2,10l-0.4,66.2v8.1H5.4V10 M11.8,16.2v23.5 M11.8,45.8V70"/>
	</g>
	<g class="st3">
		<path d="M17.2,11.6c0,1.6,0,26.4,0,26.4"/>
		<g>
			<rect x="16.4" y="11.6" width="1.5" height="21.9"/>
			<g>
				<path d="M17.2,38c-0.8-2.1-2.1-4.8-3.6-6.4l3.6,1.3l3.6-1.3C19.3,33.2,18,35.9,17.2,38z"/>
			</g>
		</g>
	</g>
	<g class="st3">
		<path d="M21.5,12.8L21.5,12.8l-0.7,0.4l-0.1-0.4l0.9-0.5H22v3.9h-0.5V12.8z"/>
	</g>
</g>
<g id="Kanji" class="st1">
	<rect x="17.2" y="27.6" class="st2" width="12.6" height="0"/>
	<g class="st3">
		<path d="M33.8,10v66.2h-22v8.1H5.4V10H33.8z M27.5,16.2H11.8v23.5h15.7V16.2z M11.8,70h15.7V45.8H11.8V70z M68.3,35.6h26.3v6.1
			h-59v-6.1h26.1V21.9H39.9v-6h21.8V3.5L70.3,4c-0.1,0.7-0.7,1.2-2,1.4v10.5h22.3v6H68.3V35.6z M84.2,44.5c-0.1,0.7-0.6,1.2-1.9,1.3
			v8.6h12.1v6H82.3v28c0,4.1-0.9,6-4,7c-3,1-8.1,1.1-16.4,1.1c-0.3-1.8-1.3-4.5-2.3-6.3c3.8,0.1,7.4,0.2,10,0.2c5.6,0,6.1,0,6.1-2.1
			V60.4H36v-6h39.7V44L84.2,44.5z M55.7,86c-2.3-5-7.9-12.6-13.1-18l5.4-3.2c5.3,5.2,11.1,12.6,13.5,17.6L55.7,86z"/>
	</g>
</g>
</svg>
