<?xml version="1.0" encoding="utf-8"?>
<!-- Generator: Adobe Illustrator 26.2.1, SVG Export Plug-In . SVG Version: 6.00 Build 0)  -->
<svg version="1.1" xmlns="http://www.w3.org/2000/svg" xmlns:xlink="http://www.w3.org/1999/xlink" x="0px" y="0px"
	 viewBox="0 0 100 100" style="enable-background:new 0 0 100 100;" xml:space="preserve" width = "100px" height = "100px">
<style type="text/css">
	.st0{display:none;}
	.st1{display:inline;}
</style> 


	<path class="st0" d="M56.9,88.2"/>

		<path d="M95.4,13.9H45.1c-0.3,0.4-1,0.7-1.9,0.8c-0.3,6.5-0.6,13.6-1.3,20.7H80l1.6-0.1l4,0.5c0,0.7-0.1,1.6-0.2,2.3
			c-1.8,33.9-3.6,46.2-7.6,50.4c-2.6,2.9-5.2,3.6-13,3.6c-3.8,0-8.6-0.2-13.4-0.5c-0.2-2-1.1-4.8-2.4-6.7c7.9,0.7,15.5,0.7,18.7,0.7
			c1.8,0,3-0.3,4-1.2c3.1-2.9,4.9-14.3,6.4-42.4H41C38.1,61.8,30.6,81.5,9.5,92.8c-1.1-1.8-3.2-4-4.9-5.3
			C34,72.6,35.5,40.3,36.1,13.9H6.6V7.2h88.8V13.9z"/>

		<path d="M65.4,79.3h-9.2v-1.5h9.2c1.5,0,3.7-1.2,3.7-2.2L70.8,50c0-1-2.6-3.2-4.3-3.2H43.9v-1.5h22.6c2.2,0,5.8,2.6,5.8,4.7
			l-1.7,25.6C70.6,77.6,67.4,79.3,65.4,79.3z"/>

			<path d="M51.6,78.5c2.1-0.8,4.8-2.1,6.4-3.6l-1.3,3.6l1.3,3.6C56.4,80.6,53.8,79.3,51.6,78.5z"/>

		<path d="M44.9,52.2c0.1,0.1,0.5,0.2,0.9,0.2c0.7,0,0.9-0.4,0.9-0.8c0-0.5-0.5-0.8-1-0.8h-0.3v-0.4h0.3c0.4,0,0.9-0.2,0.9-0.7
			c0-0.3-0.2-0.6-0.7-0.6c-0.3,0-0.6,0.1-0.8,0.3l-0.1-0.4c0.2-0.1,0.6-0.3,1-0.3c0.8,0,1.1,0.5,1.1,0.9c0,0.4-0.2,0.7-0.7,0.9v0
			c0.5,0.1,0.9,0.5,0.9,1c0,0.6-0.5,1.2-1.4,1.2c-0.4,0-0.8-0.1-1-0.3L44.9,52.2z"/>




</svg>