<?xml version="1.0" encoding="utf-8"?>
<!-- Generator: Adobe Illustrator 26.2.1, SVG Export Plug-In . SVG Version: 6.00 Build 0)  -->
<svg version="1.1" xmlns="http://www.w3.org/2000/svg" xmlns:xlink="http://www.w3.org/1999/xlink" x="0px" y="0px"
	 viewBox="0 0 100 100" style="enable-background:new 0 0 100 100;" xml:space="preserve">
<style type="text/css">
	.st0{fill:#FFFFFF;}
	.st1{display:none;}
	.st2{display:inline;}
	.st3{display:inline;fill:#FFFFFF;}
</style>
<g id="Stroke2">
	<path class="st0" d="M56.9,88.2"/>
	<g>
		<path d="M95.4,13.9H45.1c-0.3,0.4-1,0.7-1.9,0.8c-0.3,6.5-0.6,13.6-1.3,20.7H80l1.6-0.1l4,0.5c0,0.7-0.1,1.6-0.2,2.3
			c-1.8,33.9-3.6,46.2-7.6,50.4c-2.6,2.9-5.2,3.6-13,3.6c-3.8,0-8.6-0.2-13.4-0.5c-0.2-2-1.1-4.8-2.4-6.7c7.9,0.7,15.5,0.7,18.7,0.7
			c1.8,0,3-0.3,4-1.2c3.1-2.9,4.9-14.3,6.4-42.4H41C38.1,61.8,30.6,81.5,9.5,92.8c-1.1-1.8-3.2-4-4.9-5.3
			C34,72.6,35.5,40.3,36.1,13.9H6.6V7.2h88.8V13.9z"/>
	</g>
	<g>
		<path d="M65.4,79.3h-9.2v-1.5h9.2c1.5,0,3.7-1.2,3.7-2.2L70.8,50c0-1-2.6-3.2-4.3-3.2H43.9v-1.5h22.6c2.2,0,5.8,2.6,5.8,4.7
			l-1.7,25.6C70.6,77.6,67.4,79.3,65.4,79.3z"/>
		<g>
			<path d="M51.6,78.5c2.1-0.8,4.8-2.1,6.4-3.6l-1.3,3.6l1.3,3.6C56.4,80.6,53.8,79.3,51.6,78.5z"/>
		</g>
	</g>
	<g>
		<path d="M44.9,52.2c0.1,0.1,0.5,0.2,0.9,0.2c0.7,0,0.9-0.4,0.9-0.8c0-0.5-0.5-0.8-1-0.8h-0.3v-0.4h0.3c0.4,0,0.9-0.2,0.9-0.7
			c0-0.3-0.2-0.6-0.7-0.6c-0.3,0-0.6,0.1-0.8,0.3l-0.1-0.4c0.2-0.1,0.6-0.3,1-0.3c0.8,0,1.1,0.5,1.1,0.9c0,0.4-0.2,0.7-0.7,0.9v0
			c0.5,0.1,0.9,0.5,0.9,1c0,0.6-0.5,1.2-1.4,1.2c-0.4,0-0.8-0.1-1-0.3L44.9,52.2z"/>
	</g>
</g>
<g id="Stroke1" class="st1">
	<g class="st2">
		<path d="M41,42C38.1,61.8,30.6,81.5,9.5,92.8c-1.1-1.8-3.2-4-4.9-5.3C34,72.6,35.5,40.3,36.1,13.9H6.6V7.2h88.8v6.7H45.1
			c-0.3,0.4-1,0.7-1.9,0.8c-0.3,6.5-0.6,13.6-1.3,20.7"/>
	</g>
	<path class="st2" d="M46.9,20.4"/>
	<g class="st2">
		<path d="M23.7,91.2l-1-1.1c10.4-9.1,17.2-22,20.2-31c4.2-13.1,5.1-30.7,5.2-40l1.5,0c-0.1,9.4-1,27.2-5.3,40.5
			C41.3,68.8,34.3,81.9,23.7,91.2z"/>
		<g>
			<path d="M19.6,93.4c2.2-0.7,5.1-1.4,7.2-1.3l-3.3-2l-1.2-3.6C22,88.8,20.8,91.5,19.6,93.4z"/>
		</g>
	</g>
	<g class="st2">
		<path d="M52.3,24.1v-0.3l0.4-0.4c1-0.9,1.4-1.5,1.5-2c0-0.4-0.2-0.8-0.8-0.8c-0.4,0-0.6,0.2-0.8,0.3l-0.2-0.4
			c0.3-0.2,0.7-0.4,1.1-0.4c0.8,0,1.2,0.6,1.2,1.1c0,0.7-0.5,1.3-1.3,2.1l-0.3,0.3v0h1.8v0.4H52.3z"/>
	</g>
</g>
<g id="Stroke0" class="st1">
	<path class="st3" d="M56.9,88.2"/>
	<g class="st2">
		<path d="M36.1,13.9H6.6V7.2h88.8v6.7H45.1 M9.5,92.8 M41,42"/>
	</g>
	<g class="st2">
		<line x1="7.9" y1="18.5" x2="82.3" y2="18.5"/>
		<g>
			<rect x="7.9" y="17.7" width="69.9" height="1.5"/>
			<g>
				<path d="M82.3,18.5c-2.1,0.8-4.8,2.1-6.4,3.6l1.3-3.6l-1.3-3.6C77.5,16.3,80.1,17.7,82.3,18.5z"/>
			</g>
		</g>
	</g>
	<g class="st2">
		<path d="M10.5,22.9L10.5,22.9l-0.7,0.4l-0.1-0.4l0.9-0.5H11v3.9h-0.5V22.9z"/>
	</g>
</g>
<g id="Kanji" class="st1">
	<path class="st3" d="M56.9,88.2"/>
	<g class="st2">
		<path d="M95.4,13.9H45.1c-0.3,0.4-1,0.7-1.9,0.8c-0.3,6.5-0.6,13.6-1.3,20.7H80l1.6-0.1l4,0.5c0,0.7-0.1,1.6-0.2,2.3
			c-1.8,33.9-3.6,46.2-7.6,50.4c-2.6,2.9-5.2,3.6-13,3.6c-3.8,0-8.6-0.2-13.4-0.5c-0.2-2-1.1-4.8-2.4-6.7c7.9,0.7,15.5,0.7,18.7,0.7
			c1.8,0,3-0.3,4-1.2c3.1-2.9,4.9-14.3,6.4-42.4H41C38.1,61.8,30.6,81.5,9.5,92.8c-1.1-1.8-3.2-4-4.9-5.3
			C34,72.6,35.5,40.3,36.1,13.9H6.6V7.2h88.8V13.9z"/>
	</g>
</g>
</svg>
