<?xml version="1.0" encoding="utf-8"?>
<!-- Generator: Adobe Illustrator 26.2.1, SVG Export Plug-In . SVG Version: 6.00 Build 0)  -->
<svg version="1.1" xmlns="http://www.w3.org/2000/svg" xmlns:xlink="http://www.w3.org/1999/xlink" x="0px" y="0px"
	 viewBox="0 0 100 100" style="enable-background:new 0 0 100 100;" xml:space="preserve">
<style type="text/css">
	.st0{fill:none;}
	.st1{display:none;}
	.st2{display:inline;fill:none;}
	.st3{display:inline;}
</style>
<g id="Stroke5">
	<rect x="17.2" y="27.6" class="st0" width="12.6" height="0"/>
	<g>
		<path d="M96.3,58.7H81.5C81,66,80.4,71.9,79.7,76.6h13.9v6H78.8c-2.7,13.3-6.9,14-15.2,14c-3,0-6.7-0.1-10.4-0.4
			c-0.1-1.6-0.7-3.9-1.7-5.5c5.9,0.6,11.1,0.7,13.3,0.7c3.6,0,5.4-1.4,7.1-8.8H21.8c-0.5,2.3-0.9,4.5-1.3,6.4l-6.7-0.4
			c1.7-7.8,3.7-18.7,5.5-29.9H3.7v-6.2h16.6c1.2-8,2.4-15.9,3.2-22.8h54.6l1.6-0.2l3.7,0.5c-0.1,0.6-0.1,1.4-0.3,2.1
			c-0.4,7.7-0.8,14.5-1.2,20.4h14.4V58.7z M91.2,19.9H26.9c-4,6.1-9.1,12.4-15.3,17.9c-1.3-1.4-3.7-3.2-5.5-4.1
			c10.8-8.9,18.1-20.9,22-30.3c6.7,0.9,7.7,1.1,8.6,1.2c-0.1,0.8-0.8,1.2-2,1.3c-1.1,2.5-2.5,5.1-4,7.8h60.5V19.9z M44.2,76.6
			c0.8-5.2,1.7-11.4,2.4-17.9H25.9c-1,6.2-2,12.4-3,17.9H44.2z M47.4,52.5c0.6-5.8,1.2-11.6,1.6-16.8H29.4
			c-0.8,5.3-1.7,11.1-2.5,16.8H47.4z M52.8,58.7c-0.8,6.5-1.6,12.8-2.3,17.9H73c0.7-4.6,1.4-10.4,1.9-17.9H52.8z M55.4,35.6
			c-0.5,5.3-1.2,11-1.8,16.8h21.8c0.3-5,0.7-10.6,1-16.8H55.4z"/>
	</g>
	<g>
		<path d="M3.7,63c0.2,0,12.5,0,12.5,0"/>
		<g>
			<rect x="3.7" y="62.3" width="8" height="1.5"/>
			<g>
				<path d="M16.2,63c-2.1,0.8-4.8,2.1-6.4,3.6l1.3-3.6l-1.3-3.6C11.4,60.9,14.1,62.2,16.2,63z"/>
			</g>
		</g>
	</g>
	<g>
		<path d="M5.5,66c-0.1,0-0.2,0-0.4,0c-0.8,0.1-1.3,0.7-1.4,1.4h0C4,67.2,4.3,67,4.7,67c0.7,0,1.2,0.5,1.2,1.3
			c0,0.7-0.5,1.4-1.3,1.4c-0.8,0-1.4-0.6-1.4-1.7c0-0.8,0.3-1.4,0.7-1.8c0.3-0.3,0.8-0.5,1.2-0.6c0.2,0,0.3,0,0.4,0V66z M5.4,68.3
			c0-0.6-0.3-0.9-0.8-0.9c-0.3,0-0.6,0.2-0.8,0.5c0,0.1-0.1,0.1-0.1,0.2c0,0.6,0.3,1.1,0.9,1.1C5.1,69.2,5.4,68.8,5.4,68.3z"/>
	</g>
</g>
<g id="Stroke4" class="st1">
	<rect x="17.2" y="27.6" class="st2" width="12.6" height="0"/>
	<g class="st3">
		<path d="M20.3,52.5c1.2-8,2.4-15.9,3.2-22.8h54.6l1.6-0.2l3.7,0.5c-0.1,0.6-0.1,1.4-0.3,2.1c-0.4,7.7-0.8,14.5-1.2,20.4l-0.4,6.2
			C81,66,80.4,71.9,79.7,76.6h13.9v6H78.8c-2.7,13.3-6.9,14-15.2,14c-3,0-6.7-0.1-10.4-0.4c-0.1-1.6-0.7-3.9-1.7-5.5
			c5.9,0.6,11.1,0.7,13.3,0.7c3.6,0,5.4-1.4,7.1-8.8H21.8c-0.5,2.3-0.9,4.5-1.3,6.4l-6.7-0.4c1.7-7.8,3.7-18.7,5.5-29.9 M91.2,19.9
			H26.9c-4,6.1-9.1,12.4-15.3,17.9c-1.3-1.4-3.7-3.2-5.5-4.1c10.8-8.9,18.1-20.9,22-30.3c6.7,0.9,7.7,1.1,8.6,1.2
			c-0.1,0.8-0.8,1.2-2,1.3c-1.1,2.5-2.5,5.1-4,7.8h60.5V19.9z M47.4,52.5c0.6-5.8,1.2-11.6,1.6-16.8H29.4l-2.5,16.8l-1,6.2
			c-1,6.2-2,12.4-3,17.9h21.3c0.8-5.2,1.7-11.4,2.4-17.9 M52.8,58.7c-0.8,6.5-1.6,12.8-2.3,17.9H73c0.7-4.6,1.4-10.4,1.9-17.9
			l1.5-23h-21c-0.5,5.3-1.2,11-1.8,16.8"/>
	</g>
	<path class="st3" d="M46.6,58.7"/>
	<path class="st3" d="M53.6,52.5"/>
	<line class="st3" x1="53.6" y1="52.5" x2="52.8" y2="58.7"/>
	<line class="st3" x1="47.4" y1="52.5" x2="46.6" y2="58.7"/>
	<g class="st3">
		<path d="M60.2,36.9c-0.2,2.4-1.5,15.6-1.5,15.6"/>
		<g>
			<path d="M59.9,48l-1.5-0.1c0.3-3.5,0.9-9.5,1-11l1.5,0.1C60.8,38.5,60.2,44.5,59.9,48z"/>
			<g>
				<path d="M58.7,52.5c-0.6-2.2-1.7-5-3-6.7l3.4,1.6l3.7-1C61.3,47.9,59.7,50.4,58.7,52.5z"/>
			</g>
		</g>
	</g>
	<g class="st3">
		<path d="M64.8,37.5h-1.5l-0.1,1c0.1,0,0.2,0,0.3,0c0.3,0,0.6,0.1,0.8,0.2c0.3,0.2,0.6,0.5,0.6,1c0,0.8-0.6,1.3-1.5,1.3
			c-0.4,0-0.8-0.1-1-0.2l0.1-0.4c0.2,0.1,0.5,0.2,0.8,0.2c0.5,0,0.9-0.3,0.9-0.8c0-0.5-0.3-0.9-1.1-0.9c-0.2,0-0.4,0-0.5,0l0.3-1.9
			h1.9V37.5z"/>
	</g>
</g>
<g id="Stroke3" class="st1">
	<rect x="17.2" y="27.6" class="st2" width="12.6" height="0"/>
	<g class="st3">
		<path d="M81.5,58.7C81,66,80.4,71.9,79.7,76.6h13.9v6H78.8c-2.7,13.3-6.9,14-15.2,14c-3,0-6.7-0.1-10.4-0.4
			c-0.1-1.6-0.7-3.9-1.7-5.5c5.9,0.6,11.1,0.7,13.3,0.7c3.6,0,5.4-1.4,7.1-8.8H21.8c-0.5,2.3-0.9,4.5-1.3,6.4l-6.7-0.4
			c1.7-7.8,3.7-18.7,5.5-29.9l1-6.2c1.2-8,2.4-15.9,3.2-22.8h54.6l1.6-0.2l3.7,0.5c-0.1,0.6-0.1,1.4-0.3,2.1
			c-0.4,7.7-0.8,14.5-1.2,20.4 M91.2,19.9H26.9c-4,6.1-9.1,12.4-15.3,17.9c-1.3-1.4-3.7-3.2-5.5-4.1c10.8-8.9,18.1-20.9,22-30.3
			c6.7,0.9,7.7,1.1,8.6,1.2c-0.1,0.8-0.8,1.2-2,1.3c-1.1,2.5-2.5,5.1-4,7.8h60.5V19.9z M75.4,52.5c0.3-5,0.7-10.6,1-16.8h-21H49
			H29.4c-0.8,5.3-1.7,11.1-2.5,16.8l-1,6.2c-1,6.2-2,12.4-3,17.9h21.3h6.3H73c0.7-4.6,1.4-10.4,1.9-17.9"/>
	</g>
	<g class="st3">
		<line x1="30.8" y1="39.7" x2="47.3" y2="39.7"/>
		<g>
			<rect x="30.8" y="38.9" width="11.9" height="1.5"/>
			<g>
				<path d="M47.3,39.7c-2.1,0.8-4.8,2.1-6.4,3.6l1.3-3.6l-1.3-3.6C42.5,37.6,45.2,38.9,47.3,39.7z"/>
			</g>
		</g>
	</g>
	<g class="st3">
		<path d="M31.6,46v-1.1h-1.8v-0.3l1.7-2.5h0.6v2.4h0.5v0.4h-0.5V46H31.6z M31.6,44.5v-1.3c0-0.2,0-0.4,0-0.6h0
			c-0.1,0.2-0.2,0.4-0.3,0.6l-1,1.3v0H31.6z"/>
	</g>
</g>
<g id="Stroke2" class="st1">
	<rect x="17.2" y="27.6" class="st2" width="12.6" height="0"/>
	<g class="st3">
		<path d="M78.8,82.6 M79.7,76.6 M91.2,19.9H26.9c-4,6.1-9.1,12.4-15.3,17.9c-1.3-1.4-3.7-3.2-5.5-4.1c10.8-8.9,18.1-20.9,22-30.3
			c6.7,0.9,7.7,1.1,8.6,1.2c-0.1,0.8-0.8,1.2-2,1.3c-1.1,2.5-2.5,5.1-4,7.8h60.5V19.9z M71.9,82.6H21.8c-0.5,2.3-0.9,4.5-1.3,6.4
			l-6.7-0.4c1.7-7.8,3.7-18.7,5.5-29.9l1-6.2c1.2-8,2.4-15.9,3.2-22.8h6.7l-0.8,6c-0.8,5.3-1.7,11.1-2.5,16.8l-1,6.2
			c-1,6.2-2,12.4-3,17.9h21.3h35.5l-0.9,6 M50.5,76.6H73"/>
	</g>
	<g class="st3">
		<line x1="34.2" y1="30.2" x2="32" y2="51.7"/>
		<g>
			<rect x="24.8" y="37.9" transform="matrix(0.1022 -0.9948 0.9948 0.1022 -8.5839 67.8742)" width="17.1" height="1.5"/>
			<g>
				<path d="M32,51.7c-0.6-2.2-1.6-5-2.9-6.7l3.4,1.6l3.7-0.9C34.6,47.2,33,49.7,32,51.7z"/>
			</g>
		</g>
	</g>
	<g class="st3">
		<path d="M36.6,33.8c0.1,0.1,0.5,0.2,0.9,0.2c0.7,0,0.9-0.4,0.9-0.8c0-0.5-0.5-0.8-1-0.8H37v-0.4h0.3c0.4,0,0.9-0.2,0.9-0.7
			c0-0.3-0.2-0.6-0.7-0.6c-0.3,0-0.6,0.1-0.8,0.3l-0.1-0.4c0.2-0.1,0.6-0.3,1-0.3c0.8,0,1.1,0.5,1.1,0.9c0,0.4-0.2,0.7-0.7,0.9v0
			c0.5,0.1,0.9,0.5,0.9,1c0,0.6-0.5,1.2-1.4,1.2c-0.4,0-0.8-0.1-1-0.3L36.6,33.8z"/>
	</g>
</g>
<g id="Stroke1" class="st1">
	<line class="st2" x1="17.2" y1="27.6" x2="17.2" y2="27.6"/>
	<g class="st3">
		<path d="M91.2,19.9H26.9c-4,6.1-9.1,12.4-15.3,17.9c-1.3-1.4-3.7-3.2-5.5-4.1c10.8-8.9,18.1-20.9,22-30.3c6.7,0.9,7.7,1.1,8.6,1.2
			c-0.1,0.8-0.8,1.2-2,1.3c-1.1,2.5-2.5,5.1-4,7.8h60.5V19.9z"/>
	</g>
	<g class="st3">
		<path d="M27,24.7c0.7,0,21.1,0,21.1,0"/>
		<g>
			<rect x="27" y="24" width="16.5" height="1.5"/>
			<g>
				<path d="M48.1,24.7c-2.1,0.8-4.8,2.1-6.4,3.6l1.3-3.6l-1.3-3.6C43.3,22.6,45.9,24,48.1,24.7z"/>
			</g>
		</g>
	</g>
	<g class="st3">
		<path d="M26.6,31.9v-0.3l0.4-0.4c1-0.9,1.4-1.5,1.5-2c0-0.4-0.2-0.8-0.8-0.8c-0.4,0-0.6,0.2-0.8,0.3l-0.2-0.4
			c0.3-0.2,0.7-0.4,1.1-0.4c0.8,0,1.2,0.6,1.2,1.1c0,0.7-0.5,1.3-1.3,2.1l-0.3,0.3v0H29v0.4H26.6z"/>
	</g>
</g>
<g id="Stroke0" class="st1">
	<rect x="17.2" y="27.6" class="st2" width="12.6" height="0"/>
	<g class="st3">
		<path d="M26.9,19.9c-4,6.1-9.1,12.4-15.3,17.9c-1.3-1.4-3.7-3.2-5.5-4.1c10.8-8.9,18.1-20.9,22-30.3c6.7,0.9,7.7,1.1,8.6,1.2
			c-0.1,0.8-0.8,1.2-2,1.3c-1.1,2.5-2.5,5.1-4,7.8"/>
	</g>
	<g class="st3">
		<path d="M36.5,15.8l-1.3-0.7c0.4-0.7,0.7-1.3,1.1-2.1c1.2-2.5,2.2-5.1,3-7.7l1.4,0.4c-0.8,2.7-1.8,5.4-3.1,8
			C37.2,14.4,36.9,15.1,36.5,15.8z"/>
		<g>
			<path d="M33.5,19.3c0.4-2.2,0.6-5.2,0.2-7.3l2.4,2.9l3.7,0.7C37.7,16.3,35.2,17.9,33.5,19.3z"/>
		</g>
	</g>
	<g class="st3">
		<path d="M43.5,6.7L43.5,6.7l-0.7,0.4l-0.1-0.4l0.9-0.5H44v3.9h-0.5V6.7z"/>
	</g>
</g>
<g id="Kanji" class="st1">
	<rect x="17.2" y="27.6" class="st2" width="12.6" height="0"/>
	<g class="st3">
		<path d="M96.3,58.7H81.5C81,66,80.4,71.9,79.7,76.6h13.9v6H78.8c-2.7,13.3-6.9,14-15.2,14c-3,0-6.7-0.1-10.4-0.4
			c-0.1-1.6-0.7-3.9-1.7-5.5c5.9,0.6,11.1,0.7,13.3,0.7c3.6,0,5.4-1.4,7.1-8.8H21.8c-0.5,2.3-0.9,4.5-1.3,6.4l-6.7-0.4
			c1.7-7.8,3.7-18.7,5.5-29.9H3.7v-6.2h16.6c1.2-8,2.4-15.9,3.2-22.8h54.6l1.6-0.2l3.7,0.5c-0.1,0.6-0.1,1.4-0.3,2.1
			c-0.4,7.7-0.8,14.5-1.2,20.4h14.4V58.7z M91.2,19.9H26.9c-4,6.1-9.1,12.4-15.3,17.9c-1.3-1.4-3.7-3.2-5.5-4.1
			c10.8-8.9,18.1-20.9,22-30.3c6.7,0.9,7.7,1.1,8.6,1.2c-0.1,0.8-0.8,1.2-2,1.3c-1.1,2.5-2.5,5.1-4,7.8h60.5V19.9z M44.2,76.6
			c0.8-5.2,1.7-11.4,2.4-17.9H25.9c-1,6.2-2,12.4-3,17.9H44.2z M47.4,52.5c0.6-5.8,1.2-11.6,1.6-16.8H29.4
			c-0.8,5.3-1.7,11.1-2.5,16.8H47.4z M52.8,58.7c-0.8,6.5-1.6,12.8-2.3,17.9H73c0.7-4.6,1.4-10.4,1.9-17.9H52.8z M55.4,35.6
			c-0.5,5.3-1.2,11-1.8,16.8h21.8c0.3-5,0.7-10.6,1-16.8H55.4z"/>
	</g>
</g>
</svg>
