<?xml version="1.0" encoding="utf-8"?>
<!-- Generator: Adobe Illustrator 26.2.1, SVG Export Plug-In . SVG Version: 6.00 Build 0)  -->
<svg version="1.1" xmlns="http://www.w3.org/2000/svg" xmlns:xlink="http://www.w3.org/1999/xlink" x="0px" y="0px"
	 viewBox="0 0 100 100" style="enable-background:new 0 0 100 100;" xml:space="preserve" width = "100px" height = "100px">
<style type="text/css">
	.st0{display:none;}
	.st1{display:inline;}
</style> 


	<rect x="17.2" y="27.6" class="st2" width="12.6" height="0"/>

		<path d="M78.8,82.6 M79.7,76.6 M91.2,19.9H26.9c-4,6.1-9.1,12.4-15.3,17.9c-1.3-1.4-3.7-3.2-5.5-4.1c10.8-8.9,18.1-20.9,22-30.3
			c6.7,0.9,7.7,1.1,8.6,1.2c-0.1,0.8-0.8,1.2-2,1.3c-1.1,2.5-2.5,5.1-4,7.8h60.5V19.9z M71.9,82.6H21.8c-0.5,2.3-0.9,4.5-1.3,6.4
			l-6.7-0.4c1.7-7.8,3.7-18.7,5.5-29.9l1-6.2c1.2-8,2.4-15.9,3.2-22.8h6.7l-0.8,6c-0.8,5.3-1.7,11.1-2.5,16.8l-1,6.2
			c-1,6.2-2,12.4-3,17.9h21.3h35.5l-0.9,6 M50.5,76.6H73"/>

		<line x1="34.2" y1="30.2" x2="32" y2="51.7"/>

			<rect x="24.8" y="37.9" transform="matrix(0.1022 -0.9948 0.9948 0.1022 -8.5839 67.8742)" width="17.1" height="1.5"/>

				<path d="M32,51.7c-0.6-2.2-1.6-5-2.9-6.7l3.4,1.6l3.7-0.9C34.6,47.2,33,49.7,32,51.7z"/>

		<path d="M36.6,33.8c0.1,0.1,0.5,0.2,0.9,0.2c0.7,0,0.9-0.4,0.9-0.8c0-0.5-0.5-0.8-1-0.8H37v-0.4h0.3c0.4,0,0.9-0.2,0.9-0.7
			c0-0.3-0.2-0.6-0.7-0.6c-0.3,0-0.6,0.1-0.8,0.3l-0.1-0.4c0.2-0.1,0.6-0.3,1-0.3c0.8,0,1.1,0.5,1.1,0.9c0,0.4-0.2,0.7-0.7,0.9v0
			c0.5,0.1,0.9,0.5,0.9,1c0,0.6-0.5,1.2-1.4,1.2c-0.4,0-0.8-0.1-1-0.3L36.6,33.8z"/>

</svg>