<?xml version="1.0" encoding="utf-8"?>
<!-- Generator: Adobe Illustrator 26.2.1, SVG Export Plug-In . SVG Version: 6.00 Build 0)  -->
<svg version="1.1" xmlns="http://www.w3.org/2000/svg" xmlns:xlink="http://www.w3.org/1999/xlink" x="0px" y="0px"
	 viewBox="0 0 100 100" style="enable-background:new 0 0 100 100;" xml:space="preserve" width = "100px" height = "100px">
<style type="text/css">
	.st0{display:none;}
	.st1{display:inline;}
</style> 

	<rect x="17.2" y="27.6" class="st2" width="12.6" height="0"/>

		<path d="M26.9,19.9c-4,6.1-9.1,12.4-15.3,17.9c-1.3-1.4-3.7-3.2-5.5-4.1c10.8-8.9,18.1-20.9,22-30.3c6.7,0.9,7.7,1.1,8.6,1.2
			c-0.1,0.8-0.8,1.2-2,1.3c-1.1,2.5-2.5,5.1-4,7.8"/>


		<path d="M36.5,15.8l-1.3-0.7c0.4-0.7,0.7-1.3,1.1-2.1c1.2-2.5,2.2-5.1,3-7.7l1.4,0.4c-0.8,2.7-1.8,5.4-3.1,8
			C37.2,14.4,36.9,15.1,36.5,15.8z"/>

			<path d="M33.5,19.3c0.4-2.2,0.6-5.2,0.2-7.3l2.4,2.9l3.7,0.7C37.7,16.3,35.2,17.9,33.5,19.3z"/>

		<path d="M43.5,6.7L43.5,6.7l-0.7,0.4l-0.1-0.4l0.9-0.5H44v3.9h-0.5V6.7z"/>

</svg>