<?xml version="1.0" encoding="utf-8"?>
<!-- Generator: Adobe Illustrator 26.2.1, SVG Export Plug-In . SVG Version: 6.00 Build 0)  -->
<svg version="1.1" xmlns="http://www.w3.org/2000/svg" xmlns:xlink="http://www.w3.org/1999/xlink" x="0px" y="0px"
	 viewBox="0 0 100 100" style="enable-background:new 0 0 100 100;" xml:space="preserve" width = "100px" height = "100px">
<style type="text/css">
	.st0{display:none;}
	.st1{display:inline;}
</style> 


	<line class="st2" x1="17.2" y1="27.6" x2="17.2" y2="27.6"/>

		<path d="M91.2,19.9H26.9c-4,6.1-9.1,12.4-15.3,17.9c-1.3-1.4-3.7-3.2-5.5-4.1c10.8-8.9,18.1-20.9,22-30.3c6.7,0.9,7.7,1.1,8.6,1.2
			c-0.1,0.8-0.8,1.2-2,1.3c-1.1,2.5-2.5,5.1-4,7.8h60.5V19.9z"/>

		<path d="M27,24.7c0.7,0,21.1,0,21.1,0"/>
			<rect x="27" y="24" width="16.5" height="1.5"/>
		
				<path d="M48.1,24.7c-2.1,0.8-4.8,2.1-6.4,3.6l1.3-3.6l-1.3-3.6C43.3,22.6,45.9,24,48.1,24.7z"/>

		<path d="M26.6,31.9v-0.3l0.4-0.4c1-0.9,1.4-1.5,1.5-2c0-0.4-0.2-0.8-0.8-0.8c-0.4,0-0.6,0.2-0.8,0.3l-0.2-0.4
			c0.3-0.2,0.7-0.4,1.1-0.4c0.8,0,1.2,0.6,1.2,1.1c0,0.7-0.5,1.3-1.3,2.1l-0.3,0.3v0H29v0.4H26.6z"/>

</svg>