<?xml version="1.0" encoding="utf-8"?>
<!-- Generator: Adobe Illustrator 26.2.1, SVG Export Plug-In . SVG Version: 6.00 Build 0)  -->
<svg version="1.1" xmlns="http://www.w3.org/2000/svg" xmlns:xlink="http://www.w3.org/1999/xlink" x="0px" y="0px"
	 viewBox="0 0 100 100" style="enable-background:new 0 0 100 100;" xml:space="preserve" width = "100px" height = "100px">
<style type="text/css">
	.st0{display:none;}
	.st1{display:inline;}
</style> 


	<rect x="17.2" y="27.6" class="st2" width="12.6" height="0"/>

		<path d="M20.3,52.5c1.2-8,2.4-15.9,3.2-22.8h54.6l1.6-0.2l3.7,0.5c-0.1,0.6-0.1,1.4-0.3,2.1c-0.4,7.7-0.8,14.5-1.2,20.4l-0.4,6.2
			C81,66,80.4,71.9,79.7,76.6h13.9v6H78.8c-2.7,13.3-6.9,14-15.2,14c-3,0-6.7-0.1-10.4-0.4c-0.1-1.6-0.7-3.9-1.7-5.5
			c5.9,0.6,11.1,0.7,13.3,0.7c3.6,0,5.4-1.4,7.1-8.8H21.8c-0.5,2.3-0.9,4.5-1.3,6.4l-6.7-0.4c1.7-7.8,3.7-18.7,5.5-29.9 M91.2,19.9
			H26.9c-4,6.1-9.1,12.4-15.3,17.9c-1.3-1.4-3.7-3.2-5.5-4.1c10.8-8.9,18.1-20.9,22-30.3c6.7,0.9,7.7,1.1,8.6,1.2
			c-0.1,0.8-0.8,1.2-2,1.3c-1.1,2.5-2.5,5.1-4,7.8h60.5V19.9z M47.4,52.5c0.6-5.8,1.2-11.6,1.6-16.8H29.4l-2.5,16.8l-1,6.2
			c-1,6.2-2,12.4-3,17.9h21.3c0.8-5.2,1.7-11.4,2.4-17.9 M52.8,58.7c-0.8,6.5-1.6,12.8-2.3,17.9H73c0.7-4.6,1.4-10.4,1.9-17.9
			l1.5-23h-21c-0.5,5.3-1.2,11-1.8,16.8"/>

	<path class="st3" d="M46.6,58.7"/>
	<path class="st3" d="M53.6,52.5"/>
	<line class="st3" x1="53.6" y1="52.5" x2="52.8" y2="58.7"/>
	<line class="st3" x1="47.4" y1="52.5" x2="46.6" y2="58.7"/>

		<path d="M60.2,36.9c-0.2,2.4-1.5,15.6-1.5,15.6"/>
		
			<path d="M59.9,48l-1.5-0.1c0.3-3.5,0.9-9.5,1-11l1.5,0.1C60.8,38.5,60.2,44.5,59.9,48z"/>
		
				<path d="M58.7,52.5c-0.6-2.2-1.7-5-3-6.7l3.4,1.6l3.7-1C61.3,47.9,59.7,50.4,58.7,52.5z"/>

		<path d="M64.8,37.5h-1.5l-0.1,1c0.1,0,0.2,0,0.3,0c0.3,0,0.6,0.1,0.8,0.2c0.3,0.2,0.6,0.5,0.6,1c0,0.8-0.6,1.3-1.5,1.3
			c-0.4,0-0.8-0.1-1-0.2l0.1-0.4c0.2,0.1,0.5,0.2,0.8,0.2c0.5,0,0.9-0.3,0.9-0.8c0-0.5-0.3-0.9-1.1-0.9c-0.2,0-0.4,0-0.5,0l0.3-1.9
			h1.9V37.5z"/>

</svg>