<?xml version="1.0" encoding="utf-8"?>
<!-- Generator: Adobe Illustrator 26.2.1, SVG Export Plug-In . SVG Version: 6.00 Build 0)  -->
<svg version="1.1" xmlns="http://www.w3.org/2000/svg" xmlns:xlink="http://www.w3.org/1999/xlink" x="0px" y="0px"
	 viewBox="0 0 100 100" style="enable-background:new 0 0 100 100;" xml:space="preserve">
<style type="text/css">
	.st0{display:none;}
	.st1{display:inline;}
</style>
<g id="Stroke4">
	<g>
		<path d="M53.5,88.2h42v6.6H5.1v-6.6h41.5V61.4H16.1v-6.5h30.5V31.8H22.1c-3.5,7.2-7.6,13.7-12,18.5c-1.3-1.2-3.9-3.1-5.6-4.1
			C12.7,37.5,19.8,22.3,23.9,7l8.7,2.4c-0.3,0.7-1,1.1-2.3,1.1c-1.5,4.9-3.2,9.9-5.2,14.7h21.5v-20l9,0.5c-0.1,0.7-0.7,1.2-2.1,1.4
			v18.1h37.3v6.6H53.5v23.1h33.6v6.5H53.5V88.2z"/>
	</g>
	<g>
		<line x1="5.8" y1="83.7" x2="27" y2="83.7"/>
		<g>
			<rect x="5.8" y="82.9" width="16.7" height="1.5"/>
			<g>
				<path d="M27,83.7c-2.1,0.8-4.8,2.1-6.4,3.6l1.3-3.6l-1.3-3.6C22.3,81.6,24.9,82.9,27,83.7z"/>
			</g>
		</g>
	</g>
	<g>
		<path d="M8.4,78.3H6.9l-0.1,1c0.1,0,0.2,0,0.3,0c0.3,0,0.6,0.1,0.8,0.2c0.3,0.2,0.6,0.5,0.6,1c0,0.8-0.6,1.3-1.5,1.3
			c-0.4,0-0.8-0.1-1-0.2l0.1-0.4c0.2,0.1,0.5,0.2,0.8,0.2c0.5,0,0.9-0.3,0.9-0.8c0-0.5-0.3-0.9-1.1-0.9c-0.2,0-0.4,0-0.5,0l0.3-1.9
			h1.9V78.3z"/>
	</g>
</g>
<g id="Stroke3" class="st0">
	<g class="st1">
		<path d="M46.6,88.2V61.4H16.1v-6.5h30.5V31.8H22.1c-3.5,7.2-7.6,13.7-12,18.5c-1.3-1.2-3.9-3.1-5.6-4.1
			C12.7,37.5,19.8,22.3,23.9,7l8.7,2.4c-0.3,0.7-1,1.1-2.3,1.1c-1.5,4.9-3.2,9.9-5.2,14.7h21.5v-20l9,0.5c-0.1,0.7-0.7,1.2-2.1,1.4
			v18.1h37.3v6.6H53.5v23.1h33.6v6.5H53.5v26.8"/>
	</g>
	<g class="st1">
		<path d="M16.6,65.7c1.5,0,16.8,0,16.8,0"/>
		<g>
			<path d="M16.7,66.5l0-1.5c1,0,7.2,0,12.3,0l0,1.5C21.7,66.5,17.4,66.5,16.7,66.5z"/>
			<g>
				<path d="M33.5,65.7c-2.1,0.8-4.8,2.1-6.4,3.6l1.3-3.6l-1.3-3.6C28.7,63.6,31.4,64.9,33.5,65.7z"/>
			</g>
		</g>
	</g>
	<g class="st1">
		<path d="M16.9,72.1v-1.1h-1.8v-0.3l1.7-2.5h0.6v2.4H18v0.4h-0.5v1.1H16.9z M16.9,70.6v-1.3c0-0.2,0-0.4,0-0.6h0
			c-0.1,0.2-0.2,0.4-0.3,0.6l-1,1.3v0H16.9z"/>
	</g>
</g>
<g id="Stroke2" class="st0">
	<g class="st1">
		<path d="M53.5,61.4v26.8h-6.9V61.4v-6.5V31.8H22.1c-3.5,7.2-7.6,13.7-12,18.5c-1.3-1.2-3.9-3.1-5.6-4.1
			C12.7,37.5,19.8,22.3,23.9,7l8.7,2.4c-0.3,0.7-1,1.1-2.3,1.1c-1.5,4.9-3.2,9.9-5.2,14.7h21.5v-20l9,0.5c-0.1,0.7-0.7,1.2-2.1,1.4
			v18.1h37.3v6.6H53.5v23.1"/>
	</g>
	<g class="st1">
		<path d="M57.6,6.1c0,0.4,0,12,0,12"/>
		<g>
			<rect x="56.8" y="6.1" width="1.5" height="7.5"/>
			<g>
				<path d="M57.6,18.1c-0.8-2.1-2.1-4.8-3.6-6.4l3.6,1.3l3.6-1.3C59.7,13.3,58.3,16,57.6,18.1z"/>
			</g>
		</g>
	</g>
	<g class="st1">
		<path d="M61.4,9.2c0.2,0.1,0.5,0.2,0.9,0.2c0.7,0,0.9-0.4,0.9-0.8c0-0.5-0.5-0.8-1-0.8h-0.3V7.5h0.3c0.4,0,0.9-0.2,0.9-0.7
			c0-0.3-0.2-0.6-0.7-0.6c-0.3,0-0.6,0.1-0.8,0.3l-0.1-0.4c0.2-0.1,0.6-0.3,1-0.3c0.8,0,1.1,0.5,1.1,0.9c0,0.4-0.2,0.7-0.7,0.9v0
			c0.5,0.1,0.9,0.5,0.9,1c0,0.6-0.5,1.2-1.4,1.2c-0.4,0-0.8-0.1-1-0.3L61.4,9.2z"/>
	</g>
</g>
<g id="Stroke1" class="st0">
	<g class="st1">
		<path d="M46.6,31.8H22.1c-3.5,7.2-7.6,13.7-12,18.5c-1.3-1.2-3.9-3.1-5.6-4.1C12.7,37.5,19.8,22.3,23.9,7l8.7,2.4
			c-0.3,0.7-1,1.1-2.3,1.1c-1.5,4.9-3.2,9.9-5.2,14.7h21.5h6.9h37.3v6.6H53.5"/>
	</g>
	<g class="st1">
		<path d="M23.9,36c0.3,0,15.1,0,15.1,0"/>
		<g>
			<rect x="23.9" y="35.2" width="10.6" height="1.5"/>
			<g>
				<path d="M39,36c-2.1,0.8-4.8,2.1-6.4,3.6l1.3-3.6l-1.3-3.6C34.2,33.9,36.8,35.2,39,36z"/>
			</g>
		</g>
	</g>
	<g class="st1">
		<path d="M22,42.3V42l0.4-0.4c1-0.9,1.4-1.5,1.5-2c0-0.4-0.2-0.8-0.8-0.8c-0.4,0-0.6,0.2-0.8,0.3l-0.2-0.4c0.3-0.2,0.7-0.4,1.1-0.4
			c0.8,0,1.2,0.6,1.2,1.1c0,0.7-0.5,1.3-1.3,2.1l-0.3,0.3v0h1.8v0.4H22z"/>
	</g>
</g>
<g id="Stroke0" class="st0">
	<g class="st1">
		<path d="M22.1,31.8c-3.5,7.2-7.6,13.7-12,18.5c-1.3-1.2-3.9-3.1-5.6-4.1C12.7,37.5,19.8,22.3,23.9,7l8.7,2.4
			c-0.3,0.7-1,1.1-2.3,1.1c-1.5,4.9-3.2,9.9-5.2,14.7"/>
	</g>
	<g class="st1">
		<path d="M32.1,20.4l-1.4-0.6c0.2-0.5,0.4-1,0.6-1.4c0.9-2.2,1.7-4.5,2.4-6.8l1.4,0.4c-0.7,2.3-1.5,4.7-2.5,6.9
			C32.5,19.4,32.3,19.9,32.1,20.4z"/>
		<g>
			<path d="M29.4,24.1c0.2-2.3,0.1-5.2-0.5-7.3l2.7,2.7l3.8,0.3C33.4,20.7,31.1,22.6,29.4,24.1z"/>
		</g>
	</g>
	<g class="st1">
		<path d="M38.1,12.2L38.1,12.2l-0.7,0.4l-0.1-0.4l0.9-0.5h0.4v3.9h-0.5V12.2z"/>
	</g>
</g>
<g id="Kanji" class="st0">
	<g class="st1">
		<path d="M53.5,88.2h42v6.6H5.1v-6.6h41.5V61.4H16.1v-6.5h30.5V31.8H22.1c-3.5,7.2-7.6,13.7-12,18.5c-1.3-1.2-3.9-3.1-5.6-4.1
			C12.7,37.5,19.8,22.3,23.9,7l8.7,2.4c-0.3,0.7-1,1.1-2.3,1.1c-1.5,4.9-3.2,9.9-5.2,14.7h21.5v-20l9,0.5c-0.1,0.7-0.7,1.2-2.1,1.4
			v18.1h37.3v6.6H53.5v23.1h33.6v6.5H53.5V88.2z"/>
	</g>
</g>
</svg>
