<?xml version="1.0" encoding="utf-8"?>
<!-- Generator: Adobe Illustrator 26.2.1, SVG Export Plug-In . SVG Version: 6.00 Build 0)  -->
<svg version="1.1" xmlns="http://www.w3.org/2000/svg" xmlns:xlink="http://www.w3.org/1999/xlink" x="0px" y="0px"
	 viewBox="0 0 100 100" style="enable-background:new 0 0 100 100;" xml:space="preserve" width = "100px" height = "100px">
<style type="text/css">
	.st0{display:none;}
	.st1{display:inline;}
</style>

		<path d="M46.6,31.8H22.1c-3.5,7.2-7.6,13.7-12,18.5c-1.3-1.2-3.9-3.1-5.6-4.1C12.7,37.5,19.8,22.3,23.9,7l8.7,2.4
			c-0.3,0.7-1,1.1-2.3,1.1c-1.5,4.9-3.2,9.9-5.2,14.7h21.5h6.9h37.3v6.6H53.5"/>

		<path d="M23.9,36c0.3,0,15.1,0,15.1,0"/>
	
		<rect x="23.9" y="35.2" width="10.6" height="1.5"/>
		
		<path d="M39,36c-2.1,0.8-4.8,2.1-6.4,3.6l1.3-3.6l-1.3-3.6C34.2,33.9,36.8,35.2,39,36z"/>

		<path d="M22,42.3V42l0.4-0.4c1-0.9,1.4-1.5,1.5-2c0-0.4-0.2-0.8-0.8-0.8c-0.4,0-0.6,0.2-0.8,0.3l-0.2-0.4c0.3-0.2,0.7-0.4,1.1-0.4
			c0.8,0,1.2,0.6,1.2,1.1c0,0.7-0.5,1.3-1.3,2.1l-0.3,0.3v0h1.8v0.4H22z"/>

 </svg>