<?xml version="1.0" encoding="utf-8"?>
<!-- Generator: Adobe Illustrator 26.2.1, SVG Export Plug-In . SVG Version: 6.00 Build 0)  -->
<svg version="1.1" xmlns="http://www.w3.org/2000/svg" xmlns:xlink="http://www.w3.org/1999/xlink" x="0px" y="0px"
	 viewBox="0 0 100 100" style="enable-background:new 0 0 100 100;" xml:space="preserve" width = "100px" height = "100px">
<style type="text/css">
	.st0{display:none;}
	.st1{display:inline;}
</style> 

		<path d="M53.5,88.2h42v6.6H5.1v-6.6h41.5V61.4H16.1v-6.5h30.5V31.8H22.1c-3.5,7.2-7.6,13.7-12,18.5c-1.3-1.2-3.9-3.1-5.6-4.1
			C12.7,37.5,19.8,22.3,23.9,7l8.7,2.4c-0.3,0.7-1,1.1-2.3,1.1c-1.5,4.9-3.2,9.9-5.2,14.7h21.5v-20l9,0.5c-0.1,0.7-0.7,1.2-2.1,1.4
			v18.1h37.3v6.6H53.5v23.1h33.6v6.5H53.5V88.2z"/>

		<line x1="5.8" y1="83.7" x2="27" y2="83.7"/>

			<rect x="5.8" y="82.9" width="16.7" height="1.5"/>

				<path d="M27,83.7c-2.1,0.8-4.8,2.1-6.4,3.6l1.3-3.6l-1.3-3.6C22.3,81.6,24.9,82.9,27,83.7z"/>

		<path d="M8.4,78.3H6.9l-0.1,1c0.1,0,0.2,0,0.3,0c0.3,0,0.6,0.1,0.8,0.2c0.3,0.2,0.6,0.5,0.6,1c0,0.8-0.6,1.3-1.5,1.3
			c-0.4,0-0.8-0.1-1-0.2l0.1-0.4c0.2,0.1,0.5,0.2,0.8,0.2c0.5,0,0.9-0.3,0.9-0.8c0-0.5-0.3-0.9-1.1-0.9c-0.2,0-0.4,0-0.5,0l0.3-1.9
			h1.9V78.3z"/>


</svg>