<?xml version="1.0" encoding="utf-8"?>
<!-- Generator: Adobe Illustrator 26.2.1, SVG Export Plug-In . SVG Version: 6.00 Build 0)  -->
<svg version="1.1" xmlns="http://www.w3.org/2000/svg" xmlns:xlink="http://www.w3.org/1999/xlink" x="0px" y="0px"
	 viewBox="0 0 100 100" style="enable-background:new 0 0 100 100;" xml:space="preserve" width = "100px" height = "100px">
<style type="text/css">
	.st0{display:none;}
	.st1{display:inline;}
</style> 


		<path d="M22.1,31.8c-3.5,7.2-7.6,13.7-12,18.5c-1.3-1.2-3.9-3.1-5.6-4.1C12.7,37.5,19.8,22.3,23.9,7l8.7,2.4
			c-0.3,0.7-1,1.1-2.3,1.1c-1.5,4.9-3.2,9.9-5.2,14.7"/>


		<path d="M32.1,20.4l-1.4-0.6c0.2-0.5,0.4-1,0.6-1.4c0.9-2.2,1.7-4.5,2.4-6.8l1.4,0.4c-0.7,2.3-1.5,4.7-2.5,6.9
			C32.5,19.4,32.3,19.9,32.1,20.4z"/>
	
			<path d="M29.4,24.1c0.2-2.3,0.1-5.2-0.5-7.3l2.7,2.7l3.8,0.3C33.4,20.7,31.1,22.6,29.4,24.1z"/>

		<path d="M38.1,12.2L38.1,12.2l-0.7,0.4l-0.1-0.4l0.9-0.5h0.4v3.9h-0.5V12.2z"/>

</svg>