<?xml version="1.0" encoding="utf-8"?>
<!-- Generator: Adobe Illustrator 26.2.1, SVG Export Plug-In . SVG Version: 6.00 Build 0)  -->
<svg version="1.1" xmlns="http://www.w3.org/2000/svg" xmlns:xlink="http://www.w3.org/1999/xlink" x="0px" y="0px"
	 viewBox="0 0 100 100" style="enable-background:new 0 0 100 100;" xml:space="preserve" width = "100px" height = "100px">
<style type="text/css">
	.st0{display:none;}
	.st1{display:inline;}
</style> 


		<path d="M46.6,88.2V61.4H16.1v-6.5h30.5V31.8H22.1c-3.5,7.2-7.6,13.7-12,18.5c-1.3-1.2-3.9-3.1-5.6-4.1
			C12.7,37.5,19.8,22.3,23.9,7l8.7,2.4c-0.3,0.7-1,1.1-2.3,1.1c-1.5,4.9-3.2,9.9-5.2,14.7h21.5v-20l9,0.5c-0.1,0.7-0.7,1.2-2.1,1.4
			v18.1h37.3v6.6H53.5v23.1h33.6v6.5H53.5v26.8"/>


		<path d="M16.6,65.7c1.5,0,16.8,0,16.8,0"/>
	
			<path d="M16.7,66.5l0-1.5c1,0,7.2,0,12.3,0l0,1.5C21.7,66.5,17.4,66.5,16.7,66.5z"/>
		
				<path d="M33.5,65.7c-2.1,0.8-4.8,2.1-6.4,3.6l1.3-3.6l-1.3-3.6C28.7,63.6,31.4,64.9,33.5,65.7z"/>
	

		<path d="M16.9,72.1v-1.1h-1.8v-0.3l1.7-2.5h0.6v2.4H18v0.4h-0.5v1.1H16.9z M16.9,70.6v-1.3c0-0.2,0-0.4,0-0.6h0
			c-0.1,0.2-0.2,0.4-0.3,0.6l-1,1.3v0H16.9z"/>



</svg>