<?xml version="1.0" encoding="utf-8"?>
<!-- Generator: Adobe Illustrator 26.2.1, SVG Export Plug-In . SVG Version: 6.00 Build 0)  -->
<svg version="1.1" xmlns="http://www.w3.org/2000/svg" xmlns:xlink="http://www.w3.org/1999/xlink" x="0px" y="0px"
	 viewBox="0 0 100 100" style="enable-background:new 0 0 100 100;" xml:space="preserve">
<style type="text/css">
	.st0{display:none;}
	.st1{display:inline;fill:none;}
	.st2{display:inline;}
	.st3{fill:none;stroke:#000000;stroke-width:1.5;stroke-miterlimit:10;}
	.st4{fill:none;}
</style>
<g id="Stroke3" class="st0">
	<rect x="17.2" y="27.6" class="st1" width="12.6" height="0"/>
	<g class="st2">
		<path d="M18.3,38c1.7-11.2,3.1-22.3,4.2-31.9h57.3L81.4,6c0.4,0,0.8,0.1,3.8,0.4C85.2,7,85,8,85,8.6c-0.4,11.2-0.9,21-1.3,29.4
			l-0.4,6.3c-0.7,11.2-1.4,19.8-2.2,26.4h13.1v6.3h-14C77.4,92.9,72.9,94,63.8,94c-3.1,0-6.8-0.1-10.4-0.3c-0.1-1.8-0.8-4.5-1.9-6.2
			c6.2,0.6,11.5,0.7,13.9,0.7c3.3,0,5.6-1,7.7-11.1H18.9c-0.4,2.6-0.9,5.1-1.3,7.4l-7.1-0.6c2.2-10.3,4.6-24.6,6.9-39.5 M24.2,44.4
			c-1.4,9.3-2.9,18.4-4.2,26.4h54.1c0.9-6.4,1.7-15,2.4-26.4l0.3-6.3c0.5-7.5,0.9-16,1.2-25.7H28.7c-1.1,8.1-2.3,16.9-3.6,25.7
			 M39.5,48.8c8,3.9,17.6,10.2,22.3,15.1l-4.5,4.6c-4.5-5-13.9-11.5-22.1-15.6L39.5,48.8z M59.5,34.5c-4.2-4.3-13-9.9-20.3-13.5
			l4-4.2c7.3,3.4,16.1,8.8,20.5,13L59.5,34.5z"/>
	</g>
	<g class="st2">
		<path d="M44.5,64.4c-0.6-0.4-1.2-0.8-1.8-1.2c-2.8-1.8-5.8-3.3-8.9-4.6l0.6-1.4c3.2,1.3,6.3,2.8,9.2,4.7c0.6,0.4,1.2,0.8,1.8,1.2
			L44.5,64.4z"/>
		<g>
			<path d="M48.5,66.5c-2.2-0.6-5.1-1.1-7.3-1l3.2-2.1l1.1-3.6C46,61.9,47.3,64.6,48.5,66.5z"/>
		</g>
	</g>
	<g class="st2">
		<path d="M34.2,65.2v-1.1h-1.8v-0.3l1.7-2.5h0.6v2.4h0.5v0.4h-0.5v1.1H34.2z M34.2,63.7v-1.3c0-0.2,0-0.4,0-0.6h0
			c-0.1,0.2-0.2,0.4-0.3,0.6l-1,1.3v0H34.2z"/>
	</g>
</g>
<g id="Stroke4" class="st0">
	<rect x="17.2" y="27.6" class="st1" width="12.6" height="0"/>
	<g class="st2">
		<path d="M96.8,44.4H83.3c-0.7,11.2-1.4,19.8-2.2,26.4h13.1v6.3h-14C77.4,92.9,72.9,94,63.8,94c-3.1,0-6.8-0.1-10.4-0.3
			c-0.1-1.8-0.8-4.5-1.9-6.2c6.2,0.6,11.5,0.7,13.9,0.7c3.3,0,5.6-1,7.7-11.1H18.9c-0.4,2.6-0.9,5.1-1.3,7.4l-7.1-0.6
			c2.2-10.3,4.6-24.6,6.9-39.5H3.2V38h15.1c1.7-11.2,3.1-22.3,4.2-31.9h57.3L81.4,6c0.4,0,0.8,0.1,3.8,0.4C85.2,7,85,8,85,8.6
			c-0.4,11.2-0.9,21-1.3,29.4h13.1V44.4z M24.2,44.4c-1.4,9.3-2.9,18.4-4.2,26.4h54.1c0.9-6.4,1.7-15,2.4-26.4H24.2z M76.9,38
			c0.5-7.5,0.9-16,1.2-25.7H28.7c-1.1,8.1-2.3,16.9-3.6,25.7H76.9z M39.5,48.8c8,3.9,17.6,10.2,22.3,15.1l-4.5,4.6
			c-4.5-5-13.9-11.5-22.1-15.6L39.5,48.8z M59.5,34.5c-4.2-4.3-13-9.9-20.3-13.5l4-4.2c7.3,3.4,16.1,8.8,20.5,13L59.5,34.5z"/>
	</g>
	<g class="st2">
		<line x1="25.9" y1="48.1" x2="37.6" y2="48.1"/>
		<g>
			<line class="st3" x1="25.9" y1="48.1" x2="33.1" y2="48.1"/>
			<g>
				<path d="M37.6,48.1c-2.1,0.8-4.8,2.1-6.4,3.6l1.3-3.6l-1.3-3.6C32.9,46,35.5,47.3,37.6,48.1z"/>
			</g>
		</g>
	</g>
	<g class="st2">
		<path d="M28.3,50.9h-1.5l-0.1,1c0.1,0,0.2,0,0.3,0c0.3,0,0.6,0.1,0.8,0.2c0.3,0.2,0.6,0.5,0.6,1c0,0.8-0.6,1.3-1.5,1.3
			c-0.4,0-0.8-0.1-1-0.2l0.1-0.4c0.2,0.1,0.5,0.2,0.8,0.2c0.5,0,0.9-0.3,0.9-0.8c0-0.5-0.3-0.9-1.1-0.9c-0.2,0-0.4,0-0.5,0l0.3-1.9
			h1.9V50.9z"/>
	</g>
</g>
<g id="Stroke2" class="st0">
	<rect x="17.2" y="27.6" class="st1" width="12.6" height="0"/>
	<g class="st2">
		<path d="M18.3,38c1.7-11.2,3.1-22.3,4.2-31.9h57.3L81.4,6c0.4,0,0.8,0.1,3.8,0.4C85.2,7,85,8,85,8.6c-0.4,11.2-0.9,21-1.3,29.4
			l-0.4,6.3c-0.7,11.2-1.4,19.8-2.2,26.4h13.1v6.3h-14C77.4,92.9,72.9,94,63.8,94c-3.1,0-6.8-0.1-10.4-0.3c-0.1-1.8-0.8-4.5-1.9-6.2
			c6.2,0.6,11.5,0.7,13.9,0.7c3.3,0,5.6-1,7.7-11.1H18.9c-0.4,2.6-0.9,5.1-1.3,7.4l-7.1-0.6c2.2-10.3,4.6-24.6,6.9-39.5 M24.2,44.4
			c-1.4,9.3-2.9,18.4-4.2,26.4h54.1c0.9-6.4,1.7-15,2.4-26.4l0.3-6.3c0.5-7.5,0.9-16,1.2-25.7H28.7c-1.1,8.1-2.3,16.9-3.6,25.7
			 M59.5,34.5c-4.2-4.3-13-9.9-20.3-13.5l4-4.2c7.3,3.4,16.1,8.8,20.5,13L59.5,34.5z"/>
	</g>
	<g class="st2">
		<path d="M49.2,33c-0.7-0.6-1.4-1.2-2.1-1.7c-2.6-1.9-5.4-3.5-8.3-4.5l0.5-1.4c3,1.1,5.9,2.7,8.6,4.7c0.7,0.5,1.4,1.1,2.1,1.7
			L49.2,33z"/>
		<g>
			<path d="M52.9,35.6c-2.1-0.9-4.9-1.8-7.1-1.9l3.4-1.7l1.5-3.5C50.9,30.8,51.9,33.6,52.9,35.6z"/>
		</g>
	</g>
	<g class="st2">
		<path d="M38.4,33c0.2,0.1,0.5,0.2,0.9,0.2c0.7,0,0.9-0.4,0.9-0.8c0-0.5-0.5-0.8-1-0.8h-0.3v-0.4h0.3c0.4,0,0.9-0.2,0.9-0.7
			c0-0.3-0.2-0.6-0.7-0.6c-0.3,0-0.6,0.1-0.8,0.3L38.4,30c0.2-0.1,0.6-0.3,1-0.3c0.8,0,1.1,0.5,1.1,0.9c0,0.4-0.2,0.7-0.7,0.9v0
			c0.5,0.1,0.9,0.5,0.9,1c0,0.6-0.5,1.2-1.4,1.2c-0.4,0-0.8-0.1-1-0.3L38.4,33z"/>
	</g>
</g>
<g id="Stroke1" class="st0">
	<rect x="17.2" y="27.6" class="st1" width="12.6" height="0"/>
	<g class="st2">
		<path d="M18.3,38c1.7-11.2,3.1-22.3,4.2-31.9h57.3L81.4,6c0.4,0,0.8,0.1,3.8,0.4C85.2,7,85,8,85,8.6c-0.4,11.2-0.9,21-1.3,29.4
			l-0.4,6.3c-0.7,11.2-1.4,19.8-2.2,26.4h13.1v6.3h-14C77.4,92.9,72.9,94,63.8,94c-3.1,0-6.8-0.1-10.4-0.3c-0.1-1.8-0.8-4.5-1.9-6.2
			c6.2,0.6,11.5,0.7,13.9,0.7c3.3,0,5.6-1,7.7-11.1H18.9c-0.4,2.6-0.9,5.1-1.3,7.4l-7.1-0.6c2.2-10.3,4.6-24.6,6.9-39.5 M24.2,44.4
			c-1.4,9.3-2.9,18.4-4.2,26.4h54.1c0.9-6.4,1.7-15,2.4-26.4l0.3-6.3c0.5-7.5,0.9-16,1.2-25.7H28.7c-1.1,8.1-2.3,16.9-3.6,25.7"/>
	</g>
	<path class="st2" d="M32.9,14.7"/>
	<g class="st2">
		<path d="M74,29.9l-1.5-0.1l0.7-10.7c0-0.7-0.2-1.4-0.7-2c-0.5-0.5-1.2-0.8-1.9-0.8H30.5v-1.5h40.1c1.1,0,2.2,0.5,3,1.3
			c0.8,0.8,1.2,2,1.1,3.1L74,29.9z"/>
		<g>
			<path d="M72.9,34.4c-0.6-2.2-1.8-4.9-3.1-6.6l3.5,1.5l3.6-1.1C75.4,29.7,73.9,32.3,72.9,34.4z"/>
		</g>
	</g>
	<g class="st2">
		<path d="M30.8,22v-0.3l0.4-0.4c1-0.9,1.4-1.5,1.5-2c0-0.4-0.2-0.8-0.8-0.8c-0.4,0-0.6,0.2-0.8,0.3l-0.2-0.4
			c0.3-0.2,0.7-0.4,1.1-0.4c0.8,0,1.2,0.6,1.2,1.1c0,0.7-0.5,1.3-1.3,2.1l-0.3,0.3v0h1.8V22H30.8z"/>
	</g>
</g>
<g id="Stroke0" class="st0">
	<rect x="17.2" y="27.6" class="st1" width="12.6" height="0"/>
	<g class="st2">
		<path d="M96.8,38v6.3 M68.5,70.8h12.5h13.1v6.3h-14h-7.1H18.9c-0.4,2.6-0.9,5.1-1.3,7.4l-7.1-0.6c2.2-10.3,4.6-24.6,6.9-39.5
			l0.9-6.3c1.7-11.2,3.1-22.3,4.2-31.9h7.2l-1,6.2c-1.1,8.1-2.3,16.9-3.6,25.7l-0.9,6.3c-1.4,9.3-2.9,18.4-4.2,26.4h54.1"/>
	</g>
	<g class="st2">
		<path d="M33.8,9c-0.8,5.7-1.6,11.5-2.4,17.2"/>
		<g>
			<rect x="26.5" y="14.7" transform="matrix(0.138 -0.9904 0.9904 0.138 13.1258 45.9035)" width="12.9" height="1.5"/>
			<g>
				<path d="M31.4,26.3c-0.5-2.2-1.5-5-2.6-6.8l3.4,1.8l3.7-0.8C34.2,21.8,32.5,24.3,31.4,26.3z"/>
			</g>
		</g>
	</g>
	<g class="st2">
		<path d="M37.6,10.5L37.6,10.5l-0.7,0.4l-0.1-0.4l0.9-0.5h0.4v3.9h-0.5V10.5z"/>
	</g>
</g>
<g id="Kanji">
	<rect x="17.2" y="27.6" class="st4" width="12.6" height="0"/>
	<g>
		<path d="M96.8,44.4H83.3c-0.7,11.2-1.4,19.8-2.2,26.4h13.1v6.3h-14C77.4,92.9,72.9,94,63.8,94c-3.1,0-6.8-0.1-10.4-0.3
			c-0.1-1.8-0.8-4.5-1.9-6.2c6.2,0.6,11.5,0.7,13.9,0.7c3.3,0,5.6-1,7.7-11.1H18.9c-0.4,2.6-0.9,5.1-1.3,7.4l-7.1-0.6
			c2.2-10.3,4.6-24.6,6.9-39.5H3.2V38h15.1c1.7-11.2,3.1-22.3,4.2-31.9h57.3L81.4,6c0.4,0,0.8,0.1,3.8,0.4C85.2,7,85,8,85,8.6
			c-0.4,11.2-0.9,21-1.3,29.4h13.1V44.4z M24.2,44.4c-1.4,9.3-2.9,18.4-4.2,26.4h54.1c0.9-6.4,1.7-15,2.4-26.4H24.2z M76.9,38
			c0.5-7.5,0.9-16,1.2-25.7H28.7c-1.1,8.1-2.3,16.9-3.6,25.7H76.9z M39.5,48.8c8,3.9,17.6,10.2,22.3,15.1l-4.5,4.6
			c-4.5-5-13.9-11.5-22.1-15.6L39.5,48.8z M59.5,34.5c-4.2-4.3-13-9.9-20.3-13.5l4-4.2c7.3,3.4,16.1,8.8,20.5,13L59.5,34.5z"/>
	</g>
</g>
</svg>
