<?xml version="1.0" encoding="utf-8"?>
<!-- Generator: Adobe Illustrator 26.2.1, SVG Export Plug-In . SVG Version: 6.00 Build 0)  -->
<svg version="1.1" xmlns="http://www.w3.org/2000/svg" xmlns:xlink="http://www.w3.org/1999/xlink" x="0px" y="0px"
	 viewBox="0 0 100 100" style="enable-background:new 0 0 100 100;" xml:space="preserve" width = "100px" height = "100px">
<style type="text/css">
	.st0{display:none;}
	.st1{display:inline;}
</style>


	<rect x="17.2" y="27.6" class="st1" width="12.6" height="0"/>
	
		<path d="M18.3,38c1.7-11.2,3.1-22.3,4.2-31.9h57.3L81.4,6c0.4,0,0.8,0.1,3.8,0.4C85.2,7,85,8,85,8.6c-0.4,11.2-0.9,21-1.3,29.4
			l-0.4,6.3c-0.7,11.2-1.4,19.8-2.2,26.4h13.1v6.3h-14C77.4,92.9,72.9,94,63.8,94c-3.1,0-6.8-0.1-10.4-0.3c-0.1-1.8-0.8-4.5-1.9-6.2
			c6.2,0.6,11.5,0.7,13.9,0.7c3.3,0,5.6-1,7.7-11.1H18.9c-0.4,2.6-0.9,5.1-1.3,7.4l-7.1-0.6c2.2-10.3,4.6-24.6,6.9-39.5 M24.2,44.4
			c-1.4,9.3-2.9,18.4-4.2,26.4h54.1c0.9-6.4,1.7-15,2.4-26.4l0.3-6.3c0.5-7.5,0.9-16,1.2-25.7H28.7c-1.1,8.1-2.3,16.9-3.6,25.7"/>

	<path class="st2" d="M32.9,14.7"/>

		<path d="M74,29.9l-1.5-0.1l0.7-10.7c0-0.7-0.2-1.4-0.7-2c-0.5-0.5-1.2-0.8-1.9-0.8H30.5v-1.5h40.1c1.1,0,2.2,0.5,3,1.3
			c0.8,0.8,1.2,2,1.1,3.1L74,29.9z"/>

			<path d="M72.9,34.4c-0.6-2.2-1.8-4.9-3.1-6.6l3.5,1.5l3.6-1.1C75.4,29.7,73.9,32.3,72.9,34.4z"/>


		<path d="M30.8,22v-0.3l0.4-0.4c1-0.9,1.4-1.5,1.5-2c0-0.4-0.2-0.8-0.8-0.8c-0.4,0-0.6,0.2-0.8,0.3l-0.2-0.4
			c0.3-0.2,0.7-0.4,1.1-0.4c0.8,0,1.2,0.6,1.2,1.1c0,0.7-0.5,1.3-1.3,2.1l-0.3,0.3v0h1.8V22H30.8z"/>


 </svg>