<?xml version="1.0" encoding="utf-8"?>
<!-- Generator: Adobe Illustrator 26.2.1, SVG Export Plug-In . SVG Version: 6.00 Build 0)  -->
<svg version="1.1" xmlns="http://www.w3.org/2000/svg" xmlns:xlink="http://www.w3.org/1999/xlink" x="0px" y="0px"
	 viewBox="0 0 100 100" style="enable-background:new 0 0 100 100;" xml:space="preserve" width = "100px" height = "100px">
<style type="text/css">
	.st0{display:none;}
	.st1{display:inline;}
</style> 


	<rect x="17.2" y="27.6" class="st1" width="12.6" height="0"/>
	
		<path d="M18.3,38c1.7-11.2,3.1-22.3,4.2-31.9h57.3L81.4,6c0.4,0,0.8,0.1,3.8,0.4C85.2,7,85,8,85,8.6c-0.4,11.2-0.9,21-1.3,29.4
			l-0.4,6.3c-0.7,11.2-1.4,19.8-2.2,26.4h13.1v6.3h-14C77.4,92.9,72.9,94,63.8,94c-3.1,0-6.8-0.1-10.4-0.3c-0.1-1.8-0.8-4.5-1.9-6.2
			c6.2,0.6,11.5,0.7,13.9,0.7c3.3,0,5.6-1,7.7-11.1H18.9c-0.4,2.6-0.9,5.1-1.3,7.4l-7.1-0.6c2.2-10.3,4.6-24.6,6.9-39.5 M24.2,44.4
			c-1.4,9.3-2.9,18.4-4.2,26.4h54.1c0.9-6.4,1.7-15,2.4-26.4l0.3-6.3c0.5-7.5,0.9-16,1.2-25.7H28.7c-1.1,8.1-2.3,16.9-3.6,25.7
			 M59.5,34.5c-4.2-4.3-13-9.9-20.3-13.5l4-4.2c7.3,3.4,16.1,8.8,20.5,13L59.5,34.5z"/>

		<path d="M49.2,33c-0.7-0.6-1.4-1.2-2.1-1.7c-2.6-1.9-5.4-3.5-8.3-4.5l0.5-1.4c3,1.1,5.9,2.7,8.6,4.7c0.7,0.5,1.4,1.1,2.1,1.7
			L49.2,33z"/>
	
			<path d="M52.9,35.6c-2.1-0.9-4.9-1.8-7.1-1.9l3.4-1.7l1.5-3.5C50.9,30.8,51.9,33.6,52.9,35.6z"/>

		<path d="M38.4,33c0.2,0.1,0.5,0.2,0.9,0.2c0.7,0,0.9-0.4,0.9-0.8c0-0.5-0.5-0.8-1-0.8h-0.3v-0.4h0.3c0.4,0,0.9-0.2,0.9-0.7
			c0-0.3-0.2-0.6-0.7-0.6c-0.3,0-0.6,0.1-0.8,0.3L38.4,30c0.2-0.1,0.6-0.3,1-0.3c0.8,0,1.1,0.5,1.1,0.9c0,0.4-0.2,0.7-0.7,0.9v0
			c0.5,0.1,0.9,0.5,0.9,1c0,0.6-0.5,1.2-1.4,1.2c-0.4,0-0.8-0.1-1-0.3L38.4,33z"/>

</svg>