<?xml version="1.0" encoding="utf-8"?>
<!-- Generator: Adobe Illustrator 26.2.1, SVG Export Plug-In . SVG Version: 6.00 Build 0)  -->
<svg version="1.1" xmlns="http://www.w3.org/2000/svg" xmlns:xlink="http://www.w3.org/1999/xlink" x="0px" y="0px"
	 viewBox="0 0 100 100" style="enable-background:new 0 0 100 100;" xml:space="preserve" width = "100px" height = "100px">
<style type="text/css">
	.st0{display:none;}
	.st1{display:inline;}
</style> 

	<rect x="17.2" y="27.6" class="st1" width="12.6" height="0"/>

		<path d="M96.8,44.4H83.3c-0.7,11.2-1.4,19.8-2.2,26.4h13.1v6.3h-14C77.4,92.9,72.9,94,63.8,94c-3.1,0-6.8-0.1-10.4-0.3
			c-0.1-1.8-0.8-4.5-1.9-6.2c6.2,0.6,11.5,0.7,13.9,0.7c3.3,0,5.6-1,7.7-11.1H18.9c-0.4,2.6-0.9,5.1-1.3,7.4l-7.1-0.6
			c2.2-10.3,4.6-24.6,6.9-39.5H3.2V38h15.1c1.7-11.2,3.1-22.3,4.2-31.9h57.3L81.4,6c0.4,0,0.8,0.1,3.8,0.4C85.2,7,85,8,85,8.6
			c-0.4,11.2-0.9,21-1.3,29.4h13.1V44.4z M24.2,44.4c-1.4,9.3-2.9,18.4-4.2,26.4h54.1c0.9-6.4,1.7-15,2.4-26.4H24.2z M76.9,38
			c0.5-7.5,0.9-16,1.2-25.7H28.7c-1.1,8.1-2.3,16.9-3.6,25.7H76.9z M39.5,48.8c8,3.9,17.6,10.2,22.3,15.1l-4.5,4.6
			c-4.5-5-13.9-11.5-22.1-15.6L39.5,48.8z M59.5,34.5c-4.2-4.3-13-9.9-20.3-13.5l4-4.2c7.3,3.4,16.1,8.8,20.5,13L59.5,34.5z"/>

		<line x1="25.9" y1="48.1" x2="37.6" y2="48.1"/>
	
			<line class="st3" x1="25.9" y1="48.1" x2="33.1" y2="48.1"/>
	
				<path d="M37.6,48.1c-2.1,0.8-4.8,2.1-6.4,3.6l1.3-3.6l-1.3-3.6C32.9,46,35.5,47.3,37.6,48.1z"/>

		<path d="M28.3,50.9h-1.5l-0.1,1c0.1,0,0.2,0,0.3,0c0.3,0,0.6,0.1,0.8,0.2c0.3,0.2,0.6,0.5,0.6,1c0,0.8-0.6,1.3-1.5,1.3
			c-0.4,0-0.8-0.1-1-0.2l0.1-0.4c0.2,0.1,0.5,0.2,0.8,0.2c0.5,0,0.9-0.3,0.9-0.8c0-0.5-0.3-0.9-1.1-0.9c-0.2,0-0.4,0-0.5,0l0.3-1.9
			h1.9V50.9z"/>


</svg>