<?xml version="1.0" encoding="utf-8"?>
<!-- Generator: Adobe Illustrator 26.2.1, SVG Export Plug-In . SVG Version: 6.00 Build 0)  -->
<svg version="1.1" xmlns="http://www.w3.org/2000/svg" xmlns:xlink="http://www.w3.org/1999/xlink" x="0px" y="0px"
	 viewBox="0 0 100 100" style="enable-background:new 0 0 100 100;" xml:space="preserve" width = "100px" height = "100px">
<style type="text/css">
	.st0{display:none;}
	.st1{display:inline;}
</style> 


	<path class="st2" d="M56.9,88.2"/>

		<path d="M46.1,18c-11.1,1.6-22.8,3-33.7,4c-0.3-1.7-1.2-4.5-2-6.1c24.4-2.4,53.1-6.6,68.8-11.7l5.8,6.2c-0.3,0.2-0.7,0.3-1.2,0.3
			c-0.3,0-0.6,0-1-0.1 M46.1,49.6 M53.2,49.6 M95.4,42.8 M53.2,16.4"/>

		<path d="M15.1,28.3l-0.3-1.5c1.7-0.4,6.5-1.2,13.2-2.3c15.6-2.6,39.1-6.4,48.6-9.3l0.4,1.4c-9.6,2.9-33.2,6.8-48.8,9.3
			C21.8,27.1,16.8,28,15.1,28.3z"/>

			<path d="M81,14.2c-1.7,1.6-3.6,3.8-4.5,5.8l-0.2-3.8l-2.6-2.8C75.7,14.1,78.7,14.3,81,14.2z"/>

		<path d="M18,30.3L18,30.3l-0.7,0.4l-0.1-0.4l0.9-0.5h0.4v3.9H18V30.3z"/>



</svg>