<?xml version="1.0" encoding="utf-8"?>
<!-- Generator: Adobe Illustrator 26.2.1, SVG Export Plug-In . SVG Version: 6.00 Build 0)  -->
<svg version="1.1" xmlns="http://www.w3.org/2000/svg" xmlns:xlink="http://www.w3.org/1999/xlink" x="0px" y="0px"
	 viewBox="0 0 100 100" style="enable-background:new 0 0 100 100;" xml:space="preserve" width = "100px" height = "100px">
<style type="text/css">
	.st0{display:none;}
	.st1{display:inline;}
</style> 

	<path class="st0" d="M56.9,88.2"/>

		<path d="M53.2,16.4l0.1,26.4h42.1v6.8H53.2v46.2h-7.1V49.6H4.6v-6.8h41.5V18c-11.1,1.6-22.8,3-33.7,4c-0.3-1.7-1.2-4.5-2-6.1
			c24.4-2.4,53.1-6.6,68.8-11.7l5.8,6.2c-0.3,0.2-0.7,0.3-1.2,0.3c-0.3,0-0.6,0-1-0.1"/>

		<line class="st0" x1="6.2" y1="53.8" x2="44" y2="53.8"/>

			<rect x="6.2" y="53" width="33.4" height="1.5"/>

				<path d="M44,53.8c-2.1,0.8-4.8,2.1-6.4,3.6l1.3-3.6l-1.3-3.6C39.3,51.6,41.9,53,44,53.8z"/>

		<path d="M7.4,61c0.1,0.1,0.5,0.2,0.9,0.2c0.7,0,0.9-0.4,0.9-0.8c0-0.5-0.5-0.8-1-0.8H7.8v-0.4h0.3c0.4,0,0.9-0.2,0.9-0.7
			C9,58.3,8.8,58,8.3,58c-0.3,0-0.6,0.1-0.8,0.3l-0.1-0.4c0.2-0.1,0.6-0.3,1-0.3c0.8,0,1.1,0.5,1.1,0.9c0,0.4-0.2,0.7-0.7,0.9v0
			c0.5,0.1,0.9,0.5,0.9,1c0,0.6-0.5,1.2-1.4,1.2c-0.4,0-0.8-0.1-1-0.3L7.4,61z"/>

</svg>