<?xml version="1.0" encoding="utf-8"?>
<!-- Generator: Adobe Illustrator 26.2.1, SVG Export Plug-In . SVG Version: 6.00 Build 0)  -->
<svg version="1.1" xmlns="http://www.w3.org/2000/svg" xmlns:xlink="http://www.w3.org/1999/xlink" x="0px" y="0px"
	 viewBox="0 0 100 100" style="enable-background:new 0 0 100 100;" xml:space="preserve" width = "100px" height = "100px">
<style type="text/css">
	.st0{display:none;}
	.st1{display:inline;}
</style> 

	<path class="st2" d="M56.9,88.2"/>

		<path d="M46.1,18c-11.1,1.6-22.8,3-33.7,4c-0.3-1.7-1.2-4.5-2-6.1c24.4-2.4,53.1-6.6,68.8-11.7l5.8,6.2c-0.3,0.2-0.7,0.3-1.2,0.3
			c-0.3,0-0.6,0-1-0.1 M46.1,49.6H4.6v-6.8h48.6h42.1v6.8H53.2"/>

		<path d="M6.3,54.6c0.2,0,77.2,0,77.2,0"/>

			<rect x="6.3" y="53.8" width="72.7" height="1.5"/>
	
				<path d="M83.6,54.6c-2.1,0.8-4.8,2.1-6.4,3.6l1.3-3.6L77.1,51C78.8,52.5,81.4,53.8,83.6,54.6z"/>
	
		<path d="M7.1,62v-0.3l0.4-0.4c1-0.9,1.4-1.5,1.5-2c0-0.4-0.2-0.8-0.8-0.8c-0.4,0-0.6,0.2-0.8,0.3l-0.2-0.4
			c0.3-0.2,0.7-0.4,1.1-0.4c0.8,0,1.2,0.6,1.2,1.1c0,0.7-0.5,1.3-1.3,2.1l-0.3,0.3v0h1.8V62H7.1z"/>

</svg>