<?xml version="1.0" encoding="utf-8"?>
<!-- Generator: Adobe Illustrator 26.2.1, SVG Export Plug-In . SVG Version: 6.00 Build 0)  -->
<svg version="1.1" xmlns="http://www.w3.org/2000/svg" xmlns:xlink="http://www.w3.org/1999/xlink" x="0px" y="0px"
	 viewBox="0 0 100 100" style="enable-background:new 0 0 100 100;" xml:space="preserve">
<style type="text/css">
	.st0{fill:#FFFFFF;}
	.st1{display:none;}
	.st2{display:inline;fill:#FFFFFF;}
	.st3{display:inline;}
</style>
<g id="Stroke2">
	<path class="st0" d="M56.9,88.2"/>
	<g>
		<path d="M53.2,16.4l0.1,26.4h42.1v6.8H53.2v46.2h-7.1V49.6H4.6v-6.8h41.5V18c-11.1,1.6-22.8,3-33.7,4c-0.3-1.7-1.2-4.5-2-6.1
			c24.4-2.4,53.1-6.6,68.8-11.7l5.8,6.2c-0.3,0.2-0.7,0.3-1.2,0.3c-0.3,0-0.6,0-1-0.1"/>
	</g>
	<g>
		<line class="st0" x1="6.2" y1="53.8" x2="44" y2="53.8"/>
		<g>
			<rect x="6.2" y="53" width="33.4" height="1.5"/>
			<g>
				<path d="M44,53.8c-2.1,0.8-4.8,2.1-6.4,3.6l1.3-3.6l-1.3-3.6C39.3,51.6,41.9,53,44,53.8z"/>
			</g>
		</g>
	</g>
	<g>
		<path d="M7.4,61c0.1,0.1,0.5,0.2,0.9,0.2c0.7,0,0.9-0.4,0.9-0.8c0-0.5-0.5-0.8-1-0.8H7.8v-0.4h0.3c0.4,0,0.9-0.2,0.9-0.7
			C9,58.3,8.8,58,8.3,58c-0.3,0-0.6,0.1-0.8,0.3l-0.1-0.4c0.2-0.1,0.6-0.3,1-0.3c0.8,0,1.1,0.5,1.1,0.9c0,0.4-0.2,0.7-0.7,0.9v0
			c0.5,0.1,0.9,0.5,0.9,1c0,0.6-0.5,1.2-1.4,1.2c-0.4,0-0.8-0.1-1-0.3L7.4,61z"/>
	</g>
</g>
<g id="Kanji" class="st1">
	<path class="st2" d="M56.9,88.2"/>
	<g class="st3">
		<path d="M53.2,16.4l0.1,26.4h42.1v6.8H53.2v46.2h-7.1V49.6H4.6v-6.8h41.5V18c-11.1,1.6-22.8,3-33.7,4c-0.3-1.7-1.2-4.5-2-6.1
			c24.4-2.4,53.1-6.6,68.8-11.7l5.8,6.2c-0.3,0.2-0.7,0.3-1.2,0.3c-0.3,0-0.6,0-1-0.1"/>
	</g>
</g>
<g id="Stroke1" class="st1">
	<path class="st2" d="M56.9,88.2"/>
	<g class="st3">
		<path d="M46.1,18c-11.1,1.6-22.8,3-33.7,4c-0.3-1.7-1.2-4.5-2-6.1c24.4-2.4,53.1-6.6,68.8-11.7l5.8,6.2c-0.3,0.2-0.7,0.3-1.2,0.3
			c-0.3,0-0.6,0-1-0.1 M46.1,49.6H4.6v-6.8h48.6h42.1v6.8H53.2"/>
	</g>
	<g class="st3">
		<path d="M6.3,54.6c0.2,0,77.2,0,77.2,0"/>
		<g>
			<rect x="6.3" y="53.8" width="72.7" height="1.5"/>
			<g>
				<path d="M83.6,54.6c-2.1,0.8-4.8,2.1-6.4,3.6l1.3-3.6L77.1,51C78.8,52.5,81.4,53.8,83.6,54.6z"/>
			</g>
		</g>
	</g>
	<g class="st3">
		<path d="M7.1,62v-0.3l0.4-0.4c1-0.9,1.4-1.5,1.5-2c0-0.4-0.2-0.8-0.8-0.8c-0.4,0-0.6,0.2-0.8,0.3l-0.2-0.4
			c0.3-0.2,0.7-0.4,1.1-0.4c0.8,0,1.2,0.6,1.2,1.1c0,0.7-0.5,1.3-1.3,2.1l-0.3,0.3v0h1.8V62H7.1z"/>
	</g>
</g>
<g id="Stroke0" class="st1">
	<path class="st2" d="M56.9,88.2"/>
	<g class="st3">
		<path d="M46.1,18c-11.1,1.6-22.8,3-33.7,4c-0.3-1.7-1.2-4.5-2-6.1c24.4-2.4,53.1-6.6,68.8-11.7l5.8,6.2c-0.3,0.2-0.7,0.3-1.2,0.3
			c-0.3,0-0.6,0-1-0.1 M46.1,49.6 M53.2,49.6 M95.4,42.8 M53.2,16.4"/>
	</g>
	<g class="st3">
		<path d="M15.1,28.3l-0.3-1.5c1.7-0.4,6.5-1.2,13.2-2.3c15.6-2.6,39.1-6.4,48.6-9.3l0.4,1.4c-9.6,2.9-33.2,6.8-48.8,9.3
			C21.8,27.1,16.8,28,15.1,28.3z"/>
		<g>
			<path d="M81,14.2c-1.7,1.6-3.6,3.8-4.5,5.8l-0.2-3.8l-2.6-2.8C75.7,14.1,78.7,14.3,81,14.2z"/>
		</g>
	</g>
	<g class="st3">
		<path d="M18,30.3L18,30.3l-0.7,0.4l-0.1-0.4l0.9-0.5h0.4v3.9H18V30.3z"/>
	</g>
</g>
</svg>
