<?xml version="1.0" encoding="utf-8"?>
<!-- Generator: Adobe Illustrator 26.2.1, SVG Export Plug-In . SVG Version: 6.00 Build 0)  -->
<svg version="1.1" xmlns="http://www.w3.org/2000/svg" xmlns:xlink="http://www.w3.org/1999/xlink" x="0px" y="0px"
	 viewBox="0 0 100 100" style="enable-background:new 0 0 100 100;" xml:space="preserve" width = "100px" height = "100px">
<style type="text/css">
	.st0{display:none;}
	.st1{display:inline;}
</style> 

		<path d="M54.1,5.8c-0.2,0.6-1,1-2.2,1c-1.5,4.2-3.8,9.5-6.1,14.1h41.2v75.2h-7v-6.7H19.6v7.2h-6.7V20.9h25.3
			c2.4-5.2,5.1-12.4,6.5-17.6L54.1,5.8z M80.1,27.7H19.6v24h60.4V27.7z M19.6,82.8h60.4V58.5H19.6V82.8z"/>

		<line x1="21.7" y1="78.7" x2="35.5" y2="78.7"/>
	
			<rect x="21.7" y="77.9" width="9.2" height="1.5"/>

				<path d="M35.5,78.7c-2.1,0.8-4.8,2.1-6.4,3.6l1.3-3.6l-1.3-3.6C30.7,76.5,33.4,77.9,35.5,78.7z"/>

		<path d="M23.7,72.2h-1.5l-0.1,1c0.1,0,0.2,0,0.3,0c0.3,0,0.6,0.1,0.8,0.2c0.3,0.2,0.6,0.5,0.6,1c0,0.8-0.6,1.3-1.5,1.3
			c-0.4,0-0.8-0.1-1-0.2l0.1-0.4c0.2,0.1,0.5,0.2,0.8,0.2c0.5,0,0.9-0.3,0.9-0.8c0-0.5-0.3-0.9-1.1-0.9c-0.2,0-0.4,0-0.5,0l0.3-1.9
			h1.9V72.2z"/>

</svg>