<?xml version="1.0" encoding="utf-8"?>
<!-- Generator: Adobe Illustrator 26.2.1, SVG Export Plug-In . SVG Version: 6.00 Build 0)  -->
<svg version="1.1" xmlns="http://www.w3.org/2000/svg" xmlns:xlink="http://www.w3.org/1999/xlink" x="0px" y="0px"
	 viewBox="0 0 100 100" style="enable-background:new 0 0 100 100;" xml:space="preserve" width = "100px" height = "100px">
<style type="text/css">
	.st0{display:none;}
	.st1{display:inline;}
</style> 

		<path d="M19.7,20.9l-0.1,6.8v24v6.7v24.3v6.7v7.2h-6.7V20.8 M45.8,20.9c2.3-4.6,4.6-9.9,6.1-14.1c1.2,0,2-0.4,2.2-1l-9.4-2.5
			c-1.4,5.2-4.1,12.4-6.5,17.6"/>

		<line x1="23.7" y1="22.3" x2="23.7" y2="39.9"/>

			<rect x="22.9" y="22.3" width="1.5" height="13.1"/>

				<path d="M23.7,39.9c-0.8-2.1-2.1-4.8-3.6-6.4l3.6,1.3l3.6-1.3C25.8,35.1,24.4,37.8,23.7,39.9z"/>

		<path d="M26,25.1v-0.3l0.4-0.4c1-0.9,1.4-1.5,1.5-2c0-0.4-0.2-0.8-0.8-0.8c-0.4,0-0.6,0.2-0.8,0.3l-0.2-0.4
			c0.3-0.2,0.7-0.4,1.1-0.4c0.8,0,1.2,0.6,1.2,1.1c0,0.7-0.5,1.3-1.3,2.1l-0.3,0.3v0h1.8v0.4H26z"/>

</svg>