<?xml version="1.0" encoding="utf-8"?>
<!-- Generator: Adobe Illustrator 26.2.1, SVG Export Plug-In . SVG Version: 6.00 Build 0)  -->
<svg version="1.1" xmlns="http://www.w3.org/2000/svg" xmlns:xlink="http://www.w3.org/1999/xlink" x="0px" y="0px"
	 viewBox="0 0 100 100" style="enable-background:new 0 0 100 100;" xml:space="preserve">
<style type="text/css">
	.st0{display:none;}
	.st1{display:inline;}
</style>
<g id="Stroke4">
	<g>
		<path d="M54.1,5.8c-0.2,0.6-1,1-2.2,1c-1.5,4.2-3.8,9.5-6.1,14.1h41.2v75.2h-7v-6.7H19.6v7.2h-6.7V20.9h25.3
			c2.4-5.2,5.1-12.4,6.5-17.6L54.1,5.8z M80.1,27.7H19.6v24h60.4V27.7z M19.6,82.8h60.4V58.5H19.6V82.8z"/>
	</g>
	<g>
		<line x1="21.7" y1="78.7" x2="35.5" y2="78.7"/>
		<g>
			<rect x="21.7" y="77.9" width="9.2" height="1.5"/>
			<g>
				<path d="M35.5,78.7c-2.1,0.8-4.8,2.1-6.4,3.6l1.3-3.6l-1.3-3.6C30.7,76.5,33.4,77.9,35.5,78.7z"/>
			</g>
		</g>
	</g>
	<g>
		<path d="M23.7,72.2h-1.5l-0.1,1c0.1,0,0.2,0,0.3,0c0.3,0,0.6,0.1,0.8,0.2c0.3,0.2,0.6,0.5,0.6,1c0,0.8-0.6,1.3-1.5,1.3
			c-0.4,0-0.8-0.1-1-0.2l0.1-0.4c0.2,0.1,0.5,0.2,0.8,0.2c0.5,0,0.9-0.3,0.9-0.8c0-0.5-0.3-0.9-1.1-0.9c-0.2,0-0.4,0-0.5,0l0.3-1.9
			h1.9V72.2z"/>
	</g>
</g>
<g id="Stroke3" class="st0">
	<g class="st1">
		<path d="M80.1,27.7H19.6v24h60.4V27.7z M80.1,58.5H19.6v38.2h-6.7V20.9h25.3c2.4-5.2,5.1-12.4,6.5-17.6l9.4,2.5
			c-0.2,0.6-1,1-2.2,1c-1.5,4.2-3.8,9.5-6.1,14.1h41.2v75.2h-7"/>
	</g>
	<g class="st1">
		<line x1="21.9" y1="62.8" x2="37.3" y2="62.8"/>
		<g>
			<rect x="21.9" y="62.1" width="10.9" height="1.5"/>
			<g>
				<path d="M37.3,62.8c-2.1,0.8-4.8,2.1-6.4,3.6l1.3-3.6l-1.3-3.6C32.6,60.7,35.2,62,37.3,62.8z"/>
			</g>
		</g>
	</g>
	<g class="st1">
		<path d="M22.4,69.1V68h-1.8v-0.3l1.7-2.5h0.6v2.4h0.5V68h-0.5v1.1H22.4z M22.4,67.6v-1.3c0-0.2,0-0.4,0-0.6h0
			c-0.1,0.2-0.2,0.4-0.3,0.6l-1,1.3v0H22.4z"/>
	</g>
</g>
<g id="Stroke2" class="st0">
	<g class="st1">
		<path d="M80.1,27.7H19.6v68.9h-6.7V20.9h25.3c2.4-5.2,5.1-12.4,6.5-17.6l9.4,2.5c-0.2,0.6-1,1-2.2,1c-1.5,4.2-3.8,9.5-6.1,14.1
			h41.2v75.2h-7"/>
	</g>
	<g class="st1">
		<line x1="22.2" y1="32.4" x2="37.7" y2="32.4"/>
		<g>
			<rect x="22.2" y="31.6" width="11" height="1.5"/>
			<g>
				<path d="M37.7,32.4c-2.1,0.8-4.8,2.1-6.4,3.6l1.3-3.6l-1.3-3.6C32.9,30.2,35.6,31.6,37.7,32.4z"/>
			</g>
		</g>
	</g>
	<g class="st1">
		<path d="M21.2,38.2c0.1,0.1,0.5,0.2,0.9,0.2c0.7,0,0.9-0.4,0.9-0.8c0-0.5-0.5-0.8-1-0.8h-0.3v-0.4h0.3c0.4,0,0.9-0.2,0.9-0.7
			c0-0.3-0.2-0.6-0.7-0.6c-0.3,0-0.6,0.1-0.8,0.3l-0.1-0.4c0.2-0.1,0.6-0.3,1-0.3c0.8,0,1.1,0.5,1.1,0.9c0,0.4-0.2,0.7-0.7,0.9v0
			c0.5,0.1,0.9,0.5,0.9,1c0,0.6-0.5,1.2-1.4,1.2c-0.4,0-0.8-0.1-1-0.3L21.2,38.2z"/>
	</g>
</g>
<g id="Stroke1" class="st0">
	<g class="st1">
		<path d="M19.7,20.9l-0.1,6.8v24v6.7v24.3v6.7v7.2h-6.7V20.8 M45.8,20.9c2.3-4.6,4.6-9.9,6.1-14.1c1.2,0,2-0.4,2.2-1l-9.4-2.5
			c-1.4,5.2-4.1,12.4-6.5,17.6"/>
	</g>
	<g class="st1">
		<line x1="23.7" y1="22.3" x2="23.7" y2="39.9"/>
		<g>
			<rect x="22.9" y="22.3" width="1.5" height="13.1"/>
			<g>
				<path d="M23.7,39.9c-0.8-2.1-2.1-4.8-3.6-6.4l3.6,1.3l3.6-1.3C25.8,35.1,24.4,37.8,23.7,39.9z"/>
			</g>
		</g>
	</g>
	<g class="st1">
		<path d="M26,25.1v-0.3l0.4-0.4c1-0.9,1.4-1.5,1.5-2c0-0.4-0.2-0.8-0.8-0.8c-0.4,0-0.6,0.2-0.8,0.3l-0.2-0.4
			c0.3-0.2,0.7-0.4,1.1-0.4c0.8,0,1.2,0.6,1.2,1.1c0,0.7-0.5,1.3-1.3,2.1l-0.3,0.3v0h1.8v0.4H26z"/>
	</g>
</g>
<g id="Stroke0" class="st0">
	<g class="st1">
		<path d="M38.2,20.9c2.4-5.2,5.1-12.4,6.5-17.6l9.4,2.5c-0.2,0.6-1,1-2.2,1c-1.5,4.2-3.8,9.5-6.1,14.1 M19.6,51.8"/>
	</g>
	<g class="st1">
		<line x1="56.3" y1="7.6" x2="52.8" y2="18"/>
		<g>
			<rect x="52" y="9.9" transform="matrix(0.3139 -0.9495 0.9495 0.3139 27.8091 59.7782)" width="6.5" height="1.5"/>
			<g>
				<path d="M52.8,18c-0.1-2.3-0.5-5.2-1.4-7.2l3,2.3l3.8-0.1C56.4,14.2,54.2,16.3,52.8,18z"/>
			</g>
		</g>
	</g>
	<g class="st1">
		<path d="M60.1,6.5L60.1,6.5l-0.7,0.4l-0.1-0.4L60.2,6h0.4v3.9h-0.5V6.5z"/>
	</g>
</g>
<g id="Kanji" class="st0">
	<g class="st1">
		<path d="M54.1,5.8c-0.2,0.6-1,1-2.2,1c-1.5,4.2-3.8,9.5-6.1,14.1h41.2v75.2h-7v-6.7H19.6v7.2h-6.7V20.9h25.3
			c2.4-5.2,5.1-12.4,6.5-17.6L54.1,5.8z M80.1,27.7H19.6v24h60.4V27.7z M19.6,82.8h60.4V58.5H19.6V82.8z"/>
	</g>
</g>
</svg>
