<?xml version="1.0" encoding="utf-8"?>
<!-- Generator: Adobe Illustrator 26.2.1, SVG Export Plug-In . SVG Version: 6.00 Build 0)  -->
<svg version="1.1" xmlns="http://www.w3.org/2000/svg" xmlns:xlink="http://www.w3.org/1999/xlink" x="0px" y="0px"
	 viewBox="0 0 100 100" style="enable-background:new 0 0 100 100;" xml:space="preserve" width = "100px" height = "100px">
<style type="text/css">
	.st0{display:none;}
	.st1{display:inline;}
</style> 


		<path d="M53.5,40.2v46.3c0,9.1-4.2,9.9-23,9.9c-0.4-2-1.7-5.4-2.8-7.3c3.8,0.1,7.3,0.1,10.1,0.1c8.4,0,8.7,0,8.7-2.7V3.6l9,0.5
			c-0.1,0.8-0.6,1.3-2,1.4V22"/>

		<line x1="58.7" y1="5.7" x2="58.7" y2="31"/>

			<rect x="58" y="5.7" width="1.5" height="20.8"/>

				<path d="M58.7,31c-0.8-2.1-2.1-4.8-3.6-6.4l3.6,1.3l3.6-1.3C60.9,26.2,59.5,28.8,58.7,31z"/>

		<path d="M63.7,7.2L63.7,7.2L63,7.6l-0.1-0.4l0.9-0.5h0.4v3.9h-0.5V7.2z"/>

</svg>