<?xml version="1.0" encoding="utf-8"?>
<!-- Generator: Adobe Illustrator 26.2.1, SVG Export Plug-In . SVG Version: 6.00 Build 0)  -->
<svg version="1.1" xmlns="http://www.w3.org/2000/svg" xmlns:xlink="http://www.w3.org/1999/xlink" x="0px" y="0px"
	 viewBox="0 0 100 100" style="enable-background:new 0 0 100 100;" xml:space="preserve" width = "100px" height = "100px">
<style type="text/css">
	.st0{display:none;}
	.st1{display:inline;}
</style> 

		<path d="M4.9,20.1h90.7V26H4.9V20.1z M26.1,61.8c0,0,0,4.9,0,5.9v15.5v5.9v4.5h-6.6V61.8 M79.4,34.1v5.7H20.6v-5.7H79.4z
			 M20.6,53.5v-5.7h58.8v5.7H20.6z M78.1,6.4V12h-56V6.4H78.1z"/>

		<line x1="30.2" y1="62.3" x2="30.2" y2="73.9"/>

			<rect x="29.5" y="62.3" width="1.5" height="7.1"/>
	
				<path d="M30.2,73.9c-0.8-2.1-2.1-4.8-3.6-6.4l3.6,1.3l3.6-1.3C32.4,69.2,31,71.8,30.2,73.9z"/>

		<path d="M35.1,61.9h-1.5l-0.1,1c0.1,0,0.2,0,0.3,0c0.3,0,0.6,0.1,0.8,0.2c0.3,0.2,0.6,0.5,0.6,1c0,0.8-0.6,1.3-1.5,1.3
			c-0.4,0-0.8-0.1-1-0.2l0.1-0.4c0.2,0.1,0.5,0.2,0.8,0.2c0.5,0,0.9-0.3,0.9-0.8c0-0.5-0.3-0.9-1.1-0.9c-0.2,0-0.4,0-0.5,0l0.3-1.9
			h1.9V61.9z"/>

</svg>