<?xml version="1.0" encoding="utf-8"?>
<!-- Generator: Adobe Illustrator 26.2.1, SVG Export Plug-In . SVG Version: 6.00 Build 0)  -->
<svg version="1.1" xmlns="http://www.w3.org/2000/svg" xmlns:xlink="http://www.w3.org/1999/xlink" x="0px" y="0px"
	 viewBox="0 0 100 100" style="enable-background:new 0 0 100 100;" xml:space="preserve" width = "100px" height = "100px">
<style type="text/css">
	.st0{display:none;}
	.st1{display:inline;}
</style>


	<path class="st2" d="M56.9,88.2"/>

		<path d="M65.2,36.2v-5.1h20v-8.2H67.1V18h18.1v-7.6H65.4V5.3h25.9v30.9 M24.9,14H11.3v23.7h13.6V14z M11.3,68.8h13.6v-25H11.3
			V68.8z M47.4,90.6v4.1h-6.2V58.8c-2.2,2.8-4.5,5.3-6.8,7.5c-0.7-0.9-2-2.4-3.2-3.5v12.1H11.3v8.3h-6V8h25.8V61
			c6.8-6.7,13-16.3,16.4-24.7H35.4v-5.1H55v-8.2H37.4V18H55v-7.6H35.6V5.3h25.2v30.9h-8.1l3,0.9c-0.2,0.7-0.9,1.1-2,1
			c-1.1,2.5-2.5,5.1-4,7.9c0,0,0,0,0,0l-1.8,4.1c-0.4,0.9-0.6,1.8-0.6,2.8v6.2 M47.4,64.1v8 M47.4,77v8.2"/>

		<line x1="50.6" y1="57.6" x2="50.6" y2="78.3"/>

			<rect x="49.8" y="57.6" width="1.5" height="16.2"/>

				<path d="M50.6,78.3c-0.8-2.1-2.1-4.8-3.6-6.4l3.6,1.3l3.6-1.3C52.7,73.5,51.4,76.2,50.6,78.3z"/>

		<path d="M53.8,60.1L53.8,60.1l-0.7,0.4L53,60.1l0.9-0.5h0.4v3.9h-0.5V60.1z"/>
		<path d="M55.7,63.6v-0.3l0.4-0.4c1-0.9,1.4-1.5,1.5-2c0-0.4-0.2-0.8-0.8-0.8c-0.4,0-0.6,0.2-0.8,0.3L55.8,60
			c0.3-0.2,0.7-0.4,1.1-0.4c0.8,0,1.2,0.6,1.2,1.1c0,0.7-0.5,1.3-1.3,2.1l-0.3,0.3v0h1.8v0.4H55.7z"/>


 </svg>