<?xml version="1.0" encoding="utf-8"?>
<!-- Generator: Adobe Illustrator 26.2.1, SVG Export Plug-In . SVG Version: 6.00 Build 0)  -->
<svg version="1.1" xmlns="http://www.w3.org/2000/svg" xmlns:xlink="http://www.w3.org/1999/xlink" x="0px" y="0px"
	 viewBox="0 0 100 100" style="enable-background:new 0 0 100 100;" xml:space="preserve" width = "100px" height = "100px">
<style type="text/css">
	.st0{display:none;}
	.st1{display:inline;}
</style> 

	<path class="st2" d="M56.9,88.2"/>
		<path d="M46.5,28.3V4.1l9.2,0.6c-0.1,0.7-0.6,1.2-2,1.4v22.2"/>

		<linearGradient id="SVGID_1_" gradientUnits="userSpaceOnUse" x1="59.9814" y1="14.966" x2="59.9814" y2="14.966">
			<stop  offset="0" style="stop-color:#FFFFFF"/>
			<stop  offset="1" style="stop-color:#000000"/>
		</linearGradient>
		<line class="st7" x1="60" y1="5.1" x2="60" y2="24.8"/>

			<rect x="59.2" y="5.1" width="1.5" height="15.1"/>
		
				<path d="M60,24.8c-0.8-2.1-2.1-4.8-3.6-6.4l3.6,1.3l3.6-1.3C62.1,20,60.8,22.7,60,24.8z"/>

		<path d="M65.4,6.4L65.4,6.4l-0.7,0.4l-0.1-0.4l0.9-0.5h0.4v3.9h-0.5V6.4z"/>


</svg>