<?xml version="1.0" encoding="utf-8"?>
<!-- Generator: Adobe Illustrator 26.2.1, SVG Export Plug-In . SVG Version: 6.00 Build 0)  -->
<svg version="1.1" xmlns="http://www.w3.org/2000/svg" xmlns:xlink="http://www.w3.org/1999/xlink" x="0px" y="0px"
	 viewBox="0 0 100 100" style="enable-background:new 0 0 100 100;" xml:space="preserve" width = "100px" height = "100px">
<style type="text/css">
	.st0{display:none;}
	.st1{display:inline;}
</style>

		<path d="M53,13.1h39.3v6.2H53h-6.8H7.4v-6.2h38.8 M78.2,66.7V61V33.1H53c0,0-5.9-0.2-6.8,0H21.8v11.1V61v5.7h-6.5V27.4H85v39.3
			 M21.8,61 M46.2,49.7 M53,49.7 M78.2,61"/>

	<polyline class="st1" points="21.8,44.2 78.2,44.2 78.2,49.7 53,49.7 46.2,49.7 21.8,49.7 	"/>

		<line x1="22.7" y1="53.8" x2="35.7" y2="53.8"/>
	
			<rect x="22.7" y="53" width="8.5" height="1.5"/>
	
				<path d="M35.7,53.8c-2.1,0.8-4.8,2.1-6.4,3.6l1.3-3.6l-1.3-3.6C30.9,51.6,33.6,53,35.7,53.8z"/>

		<path d="M25.2,60.4v-1.1h-1.8V59l1.7-2.5h0.6V59h0.5v0.4h-0.5v1.1H25.2z M25.2,59v-1.3c0-0.2,0-0.4,0-0.6h0
			c-0.1,0.2-0.2,0.4-0.3,0.6l-1,1.3v0H25.2z"/>


 </svg>