<?xml version="1.0" encoding="utf-8"?>
<!-- Generator: Adobe Illustrator 26.2.1, SVG Export Plug-In . SVG Version: 6.00 Build 0)  -->
<svg version="1.1" xmlns="http://www.w3.org/2000/svg" xmlns:xlink="http://www.w3.org/1999/xlink" x="0px" y="0px"
	 viewBox="0 0 100 100" style="enable-background:new 0 0 100 100;" xml:space="preserve" width = "100px" height = "100px">
<style type="text/css">
	.st0{display:none;}
	.st1{display:inline;}
</style> 


		<path d="M66.1,75.5c7.9,6.3,18,10.8,29.9,13.1c-1.4,1.4-3.2,4.1-4.2,6C68.5,89.2,52.5,76.2,44,56.3H28.9v27.9
			c8.6-1.4,18.1-3,27.3-4.6l0.3,5.6c-15.9,3-32.9,6.1-43.4,7.9c-0.1,0.8-0.7,1.3-1.3,1.5l-3-7.3c3.8-0.6,8.2-1.2,13.2-2v-29H4v-6.2
			h18V5.4h62.8v5.8H28.9v9.1h52.8v5.6H28.9V35h52.8v5.6H28.9v9.4h65.6v6.2H50.8c2.8,5.8,6.5,10.9,11,15.4"/>

			<path class="st2" d="M57.5,60.1c1.7,2.6,4.1,5.5,7.2,8.4c0.5,0.4,0.9,0.9,1.4,1.3"/>
			
				<path d="M69.6,72.7c-2.1-0.8-5-1.4-7.2-1.4l3.3-1.9l1.3-3.6C67.3,68,68.5,70.7,69.6,72.7z"/>

		<path d="M56.4,57v0.3l-1.7,3.5h-0.5l1.7-3.4v0H54V57H56.4z"/>


</svg>