<?xml version="1.0" encoding="utf-8"?>
<!-- Generator: Adobe Illustrator 26.2.1, SVG Export Plug-In . SVG Version: 6.00 Build 0)  -->
<svg version="1.1" xmlns="http://www.w3.org/2000/svg" xmlns:xlink="http://www.w3.org/1999/xlink" x="0px" y="0px"
	 viewBox="0 0 100 100" style="enable-background:new 0 0 100 100;" xml:space="preserve" width = "100px" height = "100px">
<style type="text/css">
	.st0{display:none;}
	.st1{display:inline;}
</style>

		<path d="M41.4,12.3v20.6c0,14-1.2,33.8-9.6,47.4c-1.2-1.2-3.9-2.9-5.4-3.7c8-12.8,8.8-30.6,8.8-43.7V6.6h54.5v67.4
			c0,7.5-3.8,7.7-17.4,7.7c-0.2-1.7-1.1-4.3-1.9-5.8c2.6,0,5,0.1,6.9,0.1c5.5,0,6.1,0,6.1-2V12.3H41.4z M45.4,35.7H59V27H46.4v-5.1
			H59v-8.2l7.7,0.5c-0.1,0.7-0.6,1.1-1.9,1.3v6.4h13.7V27H64.8v8.7h14.8v5.1H45.4V35.7z M53.9,69.2v5.2h-5.4V46.8h27.2v22.3H53.9z
			 M70.2,51.8H53.9v12.3h16.3V51.8z"/>

	<rect x="17.2" y="27.6" class="st2" width="12.6" height="0"/>

		<line x1="55.9" y1="73.3" x2="73.2" y2="73.3"/>

			<rect x="55.9" y="72.6" width="12.8" height="1.5"/>
	
				<path d="M73.2,73.3c-2.1,0.8-4.8,2.1-6.4,3.6l1.3-3.6l-1.3-3.6C68.5,71.2,71.1,72.5,73.2,73.3z"/>

		<path d="M56,79.2c0-0.5,0.3-0.8,0.8-1l0,0c-0.4-0.2-0.6-0.5-0.6-0.9c0-0.6,0.5-1,1.2-1c0.8,0,1.1,0.5,1.1,1c0,0.3-0.2,0.7-0.6,0.9
			v0c0.5,0.2,0.8,0.5,0.8,1c0,0.7-0.6,1.1-1.3,1.1C56.5,80.2,56,79.8,56,79.2z M58.1,79.2c0-0.5-0.3-0.7-0.9-0.9
			c-0.5,0.1-0.7,0.4-0.7,0.8c0,0.4,0.3,0.7,0.8,0.7C57.8,79.9,58.1,79.6,58.1,79.2z M56.7,77.2c0,0.4,0.3,0.6,0.7,0.7
			c0.3-0.1,0.6-0.4,0.6-0.7c0-0.3-0.2-0.6-0.7-0.6C56.9,76.6,56.7,76.9,56.7,77.2z"/>

 </svg>