<?xml version="1.0" encoding="utf-8"?>
<!-- Generator: Adobe Illustrator 26.2.1, SVG Export Plug-In . SVG Version: 6.00 Build 0)  -->
<svg version="1.1" xmlns="http://www.w3.org/2000/svg" xmlns:xlink="http://www.w3.org/1999/xlink" x="0px" y="0px"
	 viewBox="0 0 100 100" style="enable-background:new 0 0 100 100;" xml:space="preserve" width = "100px" height = "100px">
<style type="text/css">
	.st0{display:none;}
	.st1{display:inline;}
</style> 

	<rect x="17.2" y="27.6" class="st2" width="12.6" height="0"/>

		<path d="M24.4,7.6v78.2v6.6h-6.9V7.6 M24.4,79"/>

		<linearGradient id="SVGID_1_" gradientUnits="userSpaceOnUse" x1="30.423" y1="18.9577" x2="30.423" y2="18.9577">
			<stop  offset="0" style="stop-color:#FFFFFF"/>
			<stop  offset="1" style="stop-color:#000000"/>
		</linearGradient>
		<line class="st4" x1="30.4" y1="8.8" x2="30.4" y2="29.1"/>

			<rect x="29.7" y="8.8" width="1.5" height="15.7"/>
		
				<path d="M30.4,29.1c-0.8-2.1-2.1-4.8-3.6-6.4l3.6,1.3l3.6-1.3C32.6,24.3,31.2,27,30.4,29.1z"/>

		<path d="M35.6,10.5L35.6,10.5L35,10.9l-0.1-0.4l0.9-0.5h0.4v3.9h-0.5V10.5z"/>

</svg>