<?xml version="1.0" encoding="utf-8"?>
<!-- Generator: Adobe Illustrator 26.2.1, SVG Export Plug-In . SVG Version: 6.00 Build 0)  -->
<svg version="1.1" xmlns="http://www.w3.org/2000/svg" xmlns:xlink="http://www.w3.org/1999/xlink" x="0px" y="0px"
	 viewBox="0 0 100 100" style="enable-background:new 0 0 100 100;" xml:space="preserve" width = "100px" height = "100px">
<style type="text/css">
	.st0{display:none;}
	.st1{display:inline;}
</style>

		<path d="M21.6,22.6V3.5L30.3,4c-0.1,0.7-0.7,1.2-2,1.4v17.2"/>


		<path d="M32.3,3.9c0,0.5,0,11.2,0,11.2"/>

			<rect x="31.6" y="3.9" width="1.5" height="6.6"/>

				<path d="M32.3,15.1c-0.8-2.1-2.1-4.8-3.6-6.4l3.6,1.3l3.6-1.3C34.5,10.3,33.1,13,32.3,15.1z"/>

		<path d="M36.5,4.4L36.5,4.4l-0.7,0.4l-0.1-0.4l0.9-0.5H37v3.9h-0.5V4.4z"/>


 </svg>