<?xml version="1.0" encoding="utf-8"?>
<!-- Generator: Adobe Illustrator 26.2.1, SVG Export Plug-In . SVG Version: 6.00 Build 0)  -->
<svg version="1.1" xmlns="http://www.w3.org/2000/svg" xmlns:xlink="http://www.w3.org/1999/xlink" x="0px" y="0px"
	 viewBox="0 0 100 100" style="enable-background:new 0 0 100 100;" xml:space="preserve" width = "100px" height = "100px">
<style type="text/css">
	.st0{display:none;}
	.st1{display:inline;}
</style> 

	<path class="st1" d="M56.9,88.2"/>

		<path d="M17.8,93.8V28.7h24c1.2-4.7,2.5-10.8,3.3-16.1H4.8V6.2h90.4v6.4H52.5c-0.9,4.7-2.4,10.9-3.8,16.1h34.9v65.1 M24.5,93.8
			h52.1V35H24.5"/>

		<path d="M71.5,85.2l-0.7-42c-0.5-3.1-2.7-4.1-4.6-4.4H28.5v-1.5l37.9,0c3.3,0.5,5.4,2.6,5.9,5.8L73,85.1L71.5,85.2z"/>

			<path d="M72.3,89.7c-0.8-2.1-2.2-4.7-3.7-6.3l3.6,1.2l3.5-1.4C74.4,84.9,73.1,87.5,72.3,89.7z"/>

		<path d="M32.1,45.4v-1.1h-1.8V44l1.7-2.5h0.6v2.4h0.5v0.4h-0.5v1.1H32.1z M32.1,43.9v-1.3c0-0.2,0-0.4,0-0.6h0
			c-0.1,0.2-0.2,0.4-0.3,0.6l-1,1.3v0H32.1z"/>



</svg>