<?xml version="1.0" encoding="utf-8"?>
<!-- Generator: Adobe Illustrator 26.2.1, SVG Export Plug-In . SVG Version: 6.00 Build 0)  -->
<svg version="1.1" xmlns="http://www.w3.org/2000/svg" xmlns:xlink="http://www.w3.org/1999/xlink" x="0px" y="0px"
	 viewBox="0 0 100 100" style="enable-background:new 0 0 100 100;" xml:space="preserve" width = "100px" height = "100px">
<style type="text/css">
	.st0{display:none;}
	.st1{display:inline;}
</style> 

		<path d="M46.1,37.8H14.8v-4.6h31.3h6.7h22.2v-6.5H5v-5.1h41.1h6.7h22.2v-6.3H15.9v-4.7h30.2h6.7h28.9v11h13v5.1h-13v11.1H52.8
			 M46.1,48.6H11.7v-4.7c1.1-0.1,76.3,0,76.3,0v4.7H52.8"/>

		<path d="M12.1,53c2.8,0,17.7,0,17.3,0"/>

			<path d="M24.9,53.8l-6.6,0c-2.7,0-5.2,0-6.2,0l0-1.5c1,0,3.4,0,6.2,0l6.6,0V53.8z"/>
		
				<path d="M29.5,53c-2.1,0.8-4.8,2.1-6.4,3.6l1.3-3.6L23,49.4C24.7,50.9,27.3,52.2,29.5,53z"/>

		<path d="M14,59.5v-1.1h-1.8v-0.3l1.7-2.5h0.6V58h0.5v0.4h-0.5v1.1H14z M14,58v-1.3c0-0.2,0-0.4,0-0.6h0c-0.1,0.2-0.2,0.4-0.3,0.6
			l-1,1.3v0H14z"/>


</svg>