<?xml version="1.0" encoding="utf-8"?>
<!-- Generator: Adobe Illustrator 26.2.1, SVG Export Plug-In . SVG Version: 6.00 Build 0)  -->
<svg version="1.1" xmlns="http://www.w3.org/2000/svg" xmlns:xlink="http://www.w3.org/1999/xlink" x="0px" y="0px"
	 viewBox="0 0 100 100" style="enable-background:new 0 0 100 100;" xml:space="preserve" width = "100px" height = "100px">
<style type="text/css">
	.st0{display:none;}
	.st1{display:inline;}
</style> 

		<path d="M50.6,34.5c7.3-4.7,13.5-10.3,18.1-16.5H38.5c-7.3,5.4-16.1,10.7-26.6,15.2c-1-1.6-3.1-3.9-4.6-5
			C24.7,21.4,38,11.7,45.2,3.3l8.8,1.8c-0.2,0.7-0.9,1.1-2.2,1.2c-1.8,1.9-3.9,3.9-6.1,5.9h27.6l1.1-0.4l4.8,2.7
			c-0.3,0.5-0.7,0.7-1.2,0.9C65,38,35.1,52.5,8.9,58.3c-0.7-1.7-2.1-4.5-3.3-6c13-2.4,27.1-7.3,39.2-14.3"/>


		<line x1="38.4" y1="22" x2="52.6" y2="22"/>
		
			<rect x="38.4" y="21.2" width="9.6" height="1.5"/>
			
				<path d="M52.6,22c-2.1,0.8-4.8,2.1-6.4,3.6l1.3-3.6l-1.3-3.6C47.8,19.8,50.4,21.2,52.6,22z"/>

		<path d="M37.1,28.1v-0.3l0.4-0.4c1-0.9,1.4-1.5,1.5-2c0-0.4-0.2-0.8-0.8-0.8c-0.4,0-0.6,0.2-0.8,0.3l-0.2-0.4
			c0.3-0.2,0.7-0.4,1.1-0.4c0.8,0,1.2,0.6,1.2,1.1c0,0.7-0.5,1.3-1.3,2.1l-0.3,0.3v0h1.8v0.4H37.1z"/>


 </svg>