<?xml version="1.0" encoding="utf-8"?>
<!-- Generator: Adobe Illustrator 26.2.1, SVG Export Plug-In . SVG Version: 6.00 Build 0)  -->
<svg version="1.1" xmlns="http://www.w3.org/2000/svg" xmlns:xlink="http://www.w3.org/1999/xlink" x="0px" y="0px"
	 viewBox="0 0 100 100" style="enable-background:new 0 0 100 100;" xml:space="preserve" width = "100px" height = "100px">
<style type="text/css">
	.st0{display:none;}
	.st1{display:inline;}
</style> 


		<path d="M46.4,17.6c-11,1.3-22.6,2.3-33.3,2.9c-0.2-1.7-1-4.3-1.8-5.8c24.2-1.6,53.3-4.8,68.1-10.1l5.8,5.7
			c-0.3,0.2-0.6,0.3-1.2,0.3c-0.2,0-0.5,0-0.9-0.1c-7.2,2.4-17,4.3-27.8,5.9"/>

		<path d="M16.8,25.3c-0.7,0-1.4,0-2.1,0l0-1.5c10.4,0.1,20.9-0.7,31-2.6c0.9-0.2,1.7-0.3,2.6-0.5l0.3,1.5c-0.9,0.2-1.7,0.3-2.6,0.5
			C36.5,24.4,26.7,25.3,16.8,25.3z"/>

			<path d="M52.9,20.5c-1.9,1.2-4.2,3.1-5.6,4.8l0.5-3.8l-2-3.2C47.8,19.3,50.7,20.1,52.9,20.5z"/>

		<path d="M16.1,27.8L16.1,27.8l-0.7,0.4l-0.1-0.4l0.9-0.5h0.4v3.9h-0.5V27.8z"/>


</svg>