<?xml version="1.0" encoding="utf-8"?>
<!-- Generator: Adobe Illustrator 26.2.1, SVG Export Plug-In . SVG Version: 6.00 Build 0)  -->
<svg version="1.1" xmlns="http://www.w3.org/2000/svg" xmlns:xlink="http://www.w3.org/1999/xlink" x="0px" y="0px"
	 viewBox="0 0 100 100" style="enable-background:new 0 0 100 100;" xml:space="preserve" width = "100px" height = "100px">
<style type="text/css">
	.st0{display:none;}
	.st1{display:inline;}
</style>


		<path d="M52.8,55.1h42.4v5.1H4.7v-5.1h41.4v-6.5H11.7v-4.7h34.4v-6.1H14.8v-4.6h31.3v-6.5H5v-5.1h41.1v-6.3H15.9v-4.7h30.2V3.3
			l8.7,0.6c-0.1,0.7-0.6,1.1-2,1.3v5.4h28.9v11h13v5.1h-13v11.1H52.8v6.1h35.2v4.7H52.8V55.1z M17.9,96.7V65.3h64.8v31.2h-6.7v-3.3
			H24.4v3.5H17.9z M76.1,70.2H24.4v6.6h51.6V70.2z M24.4,88.3h51.6v-6.9H24.4V88.3z M52.8,15.3v6.3h22.2v-6.3H52.8z M52.8,26.7v6.5
			h22.2v-6.5H52.8z"/>

		<line x1="34.3" y1="96.7" x2="47.6" y2="96.7"/>

			<rect x="34.3" y="96" width="8.8" height="1.5"/>
		
				<path d="M47.6,96.7c-2.1,0.8-4.8,2.1-6.4,3.6l1.3-3.6l-1.3-3.6C42.8,94.6,45.4,95.9,47.6,96.7z"/>

		<path d="M27.9,94.8L27.9,94.8l-0.7,0.4l-0.1-0.4l0.9-0.5h0.4v3.9h-0.5V94.8z"/>
		<path d="M32.4,96.2c0,1.3-0.5,2.1-1.4,2.1c-0.8,0-1.3-0.7-1.3-2c0-1.3,0.6-2,1.4-2C32,94.3,32.4,95,32.4,96.2z M30.3,96.3
			c0,1,0.3,1.6,0.8,1.6c0.5,0,0.8-0.6,0.8-1.6c0-1-0.2-1.6-0.8-1.6C30.7,94.7,30.3,95.2,30.3,96.3z"/>

 </svg>