<?xml version="1.0" encoding="utf-8"?>
<!-- Generator: Adobe Illustrator 26.2.1, SVG Export Plug-In . SVG Version: 6.00 Build 0)  -->
<svg version="1.1" xmlns="http://www.w3.org/2000/svg" xmlns:xlink="http://www.w3.org/1999/xlink" x="0px" y="0px"
	 viewBox="0 0 100 100" style="enable-background:new 0 0 100 100;" xml:space="preserve" width = "100px" height = "100px">
<style type="text/css">
	.st0{display:none;}
	.st1{display:inline;}
</style> 

		<path d="M44.9,38.6h-30v55.7H8.2V5.7h36.6V38.6z M38.4,10.9H14.8v8.5h23.6V10.9z M14.8,33.4h23.6v-9H14.8V33.4z M60.8,5.7
			c0,0,0.4,4.3,0,5.2v8.5v5v9.1c-0.1,0.8,0,5.2,0,5.2h-6.5v-33"/>

			<path d="M65.2,5.7c0,0.7,0,10.4,0,10.4"/>
	
			<rect x="64.4" y="5.7" width="1.5" height="5.9"/>
		
				<path d="M65.2,16.1c-0.8-2.1-2.1-4.8-3.6-6.4l3.6,1.3l3.6-1.3C67.3,11.3,66,14,65.2,16.1z"/>

		<path d="M70.3,5.7h-1.5l-0.1,1c0.1,0,0.2,0,0.3,0c0.3,0,0.6,0.1,0.8,0.2c0.3,0.2,0.6,0.5,0.6,1c0,0.8-0.6,1.3-1.5,1.3
			c-0.4,0-0.8-0.1-1-0.2l0.1-0.4c0.2,0.1,0.5,0.2,0.8,0.2c0.5,0,0.9-0.3,0.9-0.8c0-0.5-0.3-0.9-1.1-0.9c-0.2,0-0.4,0-0.5,0l0.3-1.9
			h1.9V5.7z"/>

</svg>