<?xml version="1.0" encoding="utf-8"?>
<!-- Generator: Adobe Illustrator 26.2.1, SVG Export Plug-In . SVG Version: 6.00 Build 0)  -->
<svg version="1.1" xmlns="http://www.w3.org/2000/svg" xmlns:xlink="http://www.w3.org/1999/xlink" x="0px" y="0px"
	 viewBox="0 0 100 100" style="enable-background:new 0 0 100 100;" xml:space="preserve" width = "100px" height = "100px">
<style type="text/css">
	.st0{display:none;}
	.st1{display:inline;}
</style> 


	<rect x="17.2" y="27.6" class="st1" width="12.6" height="0"/>

		<path d="M17.9,39C14.1,45,10,50.5,5.8,55.1c-0.6-1.6-2.4-4.7-3.5-6.3c9.8-10.4,19.6-27.7,25.6-45l7.9,2.7c-0.3,0.7-1,1-2.3,0.9
			c-2.7,7.3-6,14.5-9.6,21.4l2.5,0.7c-0.1,0.7-0.6,1.1-1.9,1.3v65.4h-6.6V39z M90,86.2"/>

		<line x1="29" y1="35.8" x2="29" y2="59.9"/>

			<rect x="28.3" y="35.8" width="1.5" height="19.6"/>

				<path d="M29,59.9c-0.8-2.1-2.1-4.8-3.6-6.4l3.6,1.3l3.6-1.3C31.2,55.2,29.8,57.8,29,59.9z"/>

		<path d="M32.5,41.3V41l0.4-0.4c1-0.9,1.4-1.5,1.5-2c0-0.4-0.2-0.8-0.8-0.8c-0.4,0-0.6,0.2-0.8,0.3l-0.2-0.4
			c0.3-0.2,0.7-0.4,1.1-0.4c0.8,0,1.2,0.6,1.2,1.1c0,0.7-0.5,1.3-1.3,2.1l-0.3,0.3v0H35v0.4H32.5z"/>

</svg>