<?xml version="1.0" encoding="utf-8"?>
<!-- Generator: Adobe Illustrator 26.2.1, SVG Export Plug-In . SVG Version: 6.00 Build 0)  -->
<svg version="1.1" xmlns="http://www.w3.org/2000/svg" xmlns:xlink="http://www.w3.org/1999/xlink" x="0px" y="0px"
	 viewBox="0 0 100 100" style="enable-background:new 0 0 100 100;" xml:space="preserve" width = "100px" height = "100px">
<style type="text/css">
	.st0{display:none;}
	.st1{display:inline;}
</style>

		<path d="M34.8,6.4c-0.4,0.7-1.1,1-2.3,0.9c-2.6,7-5.7,14-9.2,20.7l2.7,0.7c-0.2,0.6-0.7,1.1-2,1.2v66.3h-6.5V38.3
			c-3.8,6.3-8,11.9-12.2,16.7c-0.7-1.6-2.4-4.7-3.5-6.3c9.6-10.4,19.2-27.7,25-45L34.8,6.4z M65.5,76.5v19.8H59V76.5v-6.2V35.6V32
			h6.5v3.2v35 M54.4,32.3H29.7v-6.4H59V4l8.5,0.6c-0.1,0.7-0.6,1.2-2,1.3v20h30.9v6.4H70.2"/>

		<path d="M70.7,6.1c0,1.2,0,14.8,0,14.8"/>
		
			<rect x="69.9" y="6.1" width="1.5" height="10.3"/>
			
				<path d="M70.7,20.9c-0.8-2.1-2.1-4.8-3.6-6.4l3.6,1.3l3.6-1.3C72.8,16.1,71.5,18.8,70.7,20.9z"/>

		<path d="M74.8,8.9V7.9H73V7.5L74.7,5h0.6v2.4h0.5v0.4h-0.5v1.1H74.8z M74.8,7.5V6.2c0-0.2,0-0.4,0-0.6h0c-0.1,0.2-0.2,0.4-0.3,0.6
			l-1,1.3v0H74.8z"/>


 </svg>