<?xml version="1.0" encoding="utf-8"?>
<!-- Generator: Adobe Illustrator 26.2.1, SVG Export Plug-In . SVG Version: 6.00 Build 0)  -->
<svg version="1.1" xmlns="http://www.w3.org/2000/svg" xmlns:xlink="http://www.w3.org/1999/xlink" x="0px" y="0px"
	 viewBox="0 0 100 100" style="enable-background:new 0 0 100 100;" xml:space="preserve" width = "100px" height = "100px">
<style type="text/css">
	.st0{display:none;}
	.st1{display:inline;}
</style> 

		<path d="M32.2,20.4c-2.4-4-7.3-9.9-11.7-14.1l5.9-2.7c4.6,4.1,9.8,10,12.2,14.1l-5.9,2.7h34.8L62.1,18c3.8-4,8.6-10.3,11.3-14.8
			l8.3,3.2c-0.4,0.6-1.1,0.9-2.3,0.8c-2.8,3.9-7.4,9.5-11.2,13.2"/>

		<path d="M83.8,9.4c-2.5,2.7-4.9,5.5-7.4,8.3c-0.7,0.8-1.4,1.5-2,2.3"/>
	
			<path d="M77.9,17l-1.1-1c2.1-2.4,4.3-4.8,6.5-7.2l1.1,1C82.1,12.2,80,14.7,77.9,17z"/>
		
				<path d="M74.3,19.9c0.8-2.1,1.6-5,1.6-7.2l1.8,3.3l3.5,1.4C79.1,17.8,76.3,18.9,74.3,19.9z"/>

		<path d="M84.7,14.7v-0.3l0.4-0.4c1-0.9,1.4-1.5,1.5-2c0-0.4-0.2-0.8-0.8-0.8c-0.4,0-0.6,0.2-0.8,0.3l-0.2-0.4
			c0.3-0.2,0.7-0.4,1.1-0.4c0.8,0,1.2,0.6,1.2,1.1c0,0.7-0.5,1.3-1.3,2.1l-0.3,0.3v0h1.8v0.4H84.7z"/>


</svg>