<?xml version="1.0" encoding="utf-8"?>
<!-- Generator: Adobe Illustrator 26.2.1, SVG Export Plug-In . SVG Version: 6.00 Build 0)  -->
<svg version="1.1" xmlns="http://www.w3.org/2000/svg" xmlns:xlink="http://www.w3.org/1999/xlink" x="0px" y="0px"
	 viewBox="0 0 100 100" style="enable-background:new 0 0 100 100;" xml:space="preserve" width = "100px" height = "100px">
<style type="text/css">
	.st0{display:none;}
	.st1{display:inline;}
</style> 

	<rect x="17.2" y="27.6" class="st2" width="12.6" height="0"/>
		<path d="M41,7.4c-0.4,0.7-1.1,1-2.4,0.9C31.6,24.1,20,38.9,7.3,47.9c-1.2-1.3-3.6-3.6-5.3-4.8c12.4-8.4,23.9-22.9,30.4-38.6
			L41,7.4z"/>

		<path d="M29.2,33.7l-1.2-1l0.5-0.6c5.4-6.6,9.8-14,13.1-22.2l1.4,0.6c-3.3,8.3-7.8,15.8-13.3,22.6L29.2,33.7z"/>

			<path d="M25.6,36.6c0.8-2.1,1.5-5,1.5-7.2l1.8,3.3l3.5,1.4C30.3,34.4,27.6,35.5,25.6,36.6z"/>

		<path d="M45.7,12.7L45.7,12.7L45,13.1l-0.1-0.4l0.9-0.5h0.4v3.9h-0.5V12.7z"/>

</svg>