<?xml version="1.0" encoding="utf-8"?>
<!-- Generator: Adobe Illustrator 26.2.1, SVG Export Plug-In . SVG Version: 6.00 Build 0)  -->
<svg version="1.1" xmlns="http://www.w3.org/2000/svg" xmlns:xlink="http://www.w3.org/1999/xlink" x="0px" y="0px"
	 viewBox="0 0 100 100" style="enable-background:new 0 0 100 100;" xml:space="preserve" width = "100px" height = "100px">
<style type="text/css">
	.st0{display:none;}
	.st1{display:inline;}
</style> 


		<path d="M95.9,29.3h-53c-2.7,7-5.9,13.9-9.8,20.3h55.3v46.4h-7v-5.3H34.8v5.8h-6.7V57.1c-5.4,7.3-11.8,14-19.4,19.4
			c-1-1.6-3.2-4.1-4.6-5.4C18.8,61,28.7,45.8,35.3,29.3H7.4v-6.6h30.3c2.2-6.4,3.9-12.9,5.3-19.3l9,2c-0.3,0.8-1,1.2-2.3,1.2
			c-1.3,5.3-2.8,10.7-4.5,16.1h50.6V29.3z M81.4,56.3H34.8v28h46.5V56.3z"/>

		<line x1="36.6" y1="80" x2="54.4" y2="80"/>
	
			<rect x="36.6" y="79.2" width="13.3" height="1.5"/>
		
				<path d="M54.4,80c-2.1,0.8-4.8,2.1-6.4,3.6l1.3-3.6L48,76.4C49.6,77.8,52.2,79.2,54.4,80z"/>

		<path d="M39.6,73.3h-1.5l-0.1,1c0.1,0,0.2,0,0.3,0c0.3,0,0.6,0.1,0.8,0.2c0.3,0.2,0.6,0.5,0.6,1c0,0.8-0.6,1.3-1.5,1.3
			c-0.4,0-0.8-0.1-1-0.2l0.1-0.4c0.2,0.1,0.5,0.2,0.8,0.2c0.5,0,0.9-0.3,0.9-0.8c0-0.5-0.3-0.9-1.1-0.9c-0.2,0-0.4,0-0.5,0l0.3-1.9
			h1.9V73.3z"/>


</svg>