<?xml version="1.0" encoding="utf-8"?>
<!-- Generator: Adobe Illustrator 26.2.1, SVG Export Plug-In . SVG Version: 6.00 Build 0)  -->
<svg version="1.1" xmlns="http://www.w3.org/2000/svg" xmlns:xlink="http://www.w3.org/1999/xlink" x="0px" y="0px"
	 viewBox="0 0 100 100" style="enable-background:new 0 0 100 100;" xml:space="preserve" width = "100px" height = "100px">
<style type="text/css">
	.st0{display:none;}
	.st1{display:inline;}
</style> 


		<path d="M63.7,88.5h32.7v6.6H23.6v-6.6h33.2V56.7H33.7v-4.9C27.9,66.9,19.9,80.9,8.5,91.7c-1.1-1.6-3.4-4-4.9-5.3
			C18.8,72.5,27.8,51.6,33.3,30H7.7v-6.6h27.2c1.4-6.2,2.5-12.4,3.5-18.5l9.2,1.6c-0.2,0.9-1,1.3-2.4,1.3
			c-0.9,5.1-1.9,10.3-3.1,15.6h52.7V30H40.5c-1.7,6.8-3.7,13.5-6.2,20.1h56.7v6.5H63.7V88.5z"/>

		<line x1="24.1" y1="84.4" x2="43.2" y2="84.4"/>

			<rect x="24.1" y="83.7" width="14.5" height="1.5"/>

				<path d="M43.2,84.4c-2.1,0.8-4.8,2.1-6.4,3.6l1.3-3.6l-1.3-3.6C38.4,82.3,41.1,83.6,43.2,84.4z"/>

		<path d="M27.2,78.4h-1.5l-0.1,1c0.1,0,0.2,0,0.3,0c0.3,0,0.6,0.1,0.8,0.2c0.3,0.2,0.6,0.5,0.6,1c0,0.8-0.6,1.3-1.5,1.3
			c-0.4,0-0.8-0.1-1-0.2l0.1-0.4c0.2,0.1,0.5,0.2,0.8,0.2c0.5,0,0.9-0.3,0.9-0.8c0-0.5-0.3-0.9-1.1-0.9c-0.2,0-0.4,0-0.5,0l0.3-1.9
			h1.9V78.4z"/>

</svg>