<?xml version="1.0" encoding="utf-8"?>
<!-- Generator: Adobe Illustrator 26.2.1, SVG Export Plug-In . SVG Version: 6.00 Build 0)  -->
<svg version="1.1" xmlns="http://www.w3.org/2000/svg" xmlns:xlink="http://www.w3.org/1999/xlink" x="0px" y="0px"
	 viewBox="0 0 100 100" style="enable-background:new 0 0 100 100;" xml:space="preserve" width = "100px" height = "100px">
<style type="text/css">
	.st0{display:none;}
	.st1{display:inline;}
</style>



		<path d="M37.6,20.5v5.6H3.2v-5.6H37.6z M34.7,61.4v29.3H13.2v4.8H7.4V61.4H34.7z M7.5,39.6v-5.5h27.2v5.5H7.5z M7.5,53.2v-5.5
			h27.2v5.5H7.5z M34.3,7.2v5.5H8V7.2H34.3z M28.9,67H13.2v18h15.7V67z M63.8,18.9H40.2v-5.8h23.5h6.7h24.4v5.8H70.5"/>

		<path d="M40.7,23.4c3.1,0,11.4,0,10.9,0"/>

			<rect x="40.7" y="22.6" width="6.3" height="1.5"/>
	
				<path d="M51.6,23.4c-2.1,0.8-4.8,2.1-6.4,3.6l1.3-3.6l-1.3-3.6C46.8,21.2,49.5,22.6,51.6,23.4z"/>

		<path d="M40.9,29.1c0-0.5,0.3-0.8,0.8-1l0,0c-0.4-0.2-0.6-0.5-0.6-0.9c0-0.6,0.5-1,1.2-1c0.8,0,1.1,0.5,1.1,1
			c0,0.3-0.2,0.7-0.6,0.9v0c0.5,0.2,0.8,0.5,0.8,1c0,0.7-0.6,1.1-1.3,1.1C41.4,30.1,40.9,29.6,40.9,29.1z M43,29
			c0-0.5-0.3-0.7-0.9-0.9c-0.5,0.1-0.7,0.4-0.7,0.8c0,0.4,0.3,0.7,0.8,0.7C42.7,29.7,43,29.4,43,29z M41.6,27.1
			c0,0.4,0.3,0.6,0.7,0.7c0.3-0.1,0.6-0.4,0.6-0.7c0-0.3-0.2-0.6-0.7-0.6C41.8,26.5,41.6,26.8,41.6,27.1z"/>


 </svg>