<?xml version="1.0" encoding="utf-8"?>
<!-- Generator: Adobe Illustrator 26.2.1, SVG Export Plug-In . SVG Version: 6.00 Build 0)  -->
<svg version="1.1" xmlns="http://www.w3.org/2000/svg" xmlns:xlink="http://www.w3.org/1999/xlink" x="0px" y="0px"
	 viewBox="0 0 100 100" style="enable-background:new 0 0 100 100;" xml:space="preserve" width = "100px" height = "100px">
<style type="text/css">
	.st0{display:none;}
	.st1{display:inline;}
</style> 

		<path d="M50.3,53.3c-4,15-14.9,29.5-42.8,39.3c-0.7-1.7-2.7-4.5-4.1-5.8C33,76.4,42,61.1,44.6,45.9H8.3V39h37
			c0.2-2.1,0.2-4.2,0.2-6.2V14.3H5.2V7.4h89v6.9H52.6v18.5c0,2,0,4.1-0.2,6.2h39.1v6.9l-39.4,0"/>


		<path d="M56.6,16.6c0,0.7,0,11.4,0,11.4"/>

			<rect x="55.9" y="16.6" width="1.5" height="6.8"/>
	
				<path d="M56.6,28c-0.8-2.1-2.1-4.8-3.6-6.4l3.6,1.3l3.6-1.3C58.8,23.2,57.4,25.9,56.6,28z"/>

		<path d="M58.9,18.9c0.2,0.1,0.5,0.2,0.9,0.2c0.7,0,0.9-0.4,0.9-0.8c0-0.5-0.5-0.8-1-0.8h-0.3v-0.4h0.3c0.4,0,0.9-0.2,0.9-0.7
			c0-0.3-0.2-0.6-0.7-0.6c-0.3,0-0.6,0.1-0.8,0.3l-0.1-0.4c0.2-0.1,0.6-0.3,1-0.3c0.8,0,1.1,0.5,1.1,0.9c0,0.4-0.2,0.7-0.7,0.9v0
			c0.5,0.1,0.9,0.5,0.9,1c0,0.6-0.5,1.2-1.4,1.2c-0.4,0-0.8-0.1-1-0.3L58.9,18.9z"/>

</svg>