<?xml version="1.0" encoding="utf-8"?>
<!-- Generator: Adobe Illustrator 26.2.1, SVG Export Plug-In . SVG Version: 6.00 Build 0)  -->
<svg version="1.1" xmlns="http://www.w3.org/2000/svg" xmlns:xlink="http://www.w3.org/1999/xlink" x="0px" y="0px"
	 viewBox="0 0 100 100" style="enable-background:new 0 0 100 100;" xml:space="preserve" width = "100px" height = "100px">
<style type="text/css">
	.st0{display:none;}
	.st1{display:inline;}
</style> 

	<rect x="17.2" y="27.6" class="st2" width="12.6" height="0"/>
	
		<path d="M44.8,40.2H15v54.1H8.4V5.7h36.4V40.2z M38.4,11H15v9.2h23.4V11z M15,34.9h23.4v-9.6H15V34.9z M62,68.8H36.9V90h-6.2V48.1
			h37.7v36.6L62,84.8 M62,53.5H36.9v10H62V53.5z M91.6,5.7v79.2c0,8.9-3.9,9.3-21.2,9.3c-0.2-1.9-1.3-5.1-2.3-7
			c3.2,0.1,6.4,0.2,8.9,0.2c7.3,0,7.9,0,7.9-2.5V40.3H54.3V5.7H91.6z M84.9,11H60.8v9.2h24.1V11z M60.8,35h24.1v-9.7H60.8V35z"/>

		<line x1="38.4" y1="72.9" x2="57.6" y2="72.9"/>

			<rect x="38.4" y="72.1" width="14.6" height="1.5"/>
	
				<path d="M57.6,72.9c-2.1,0.8-4.8,2.1-6.4,3.6l1.3-3.6l-1.3-3.6C52.8,70.7,55.4,72.1,57.6,72.9z"/>

		<path d="M39.8,76.1L39.8,76.1l-0.7,0.4L39,76.1l0.9-0.5h0.4v3.9h-0.5V76.1z"/>
		<path d="M42.9,76.1L42.9,76.1l-0.7,0.4l-0.1-0.4l0.9-0.5h0.4v3.9h-0.5V76.1z"/>


</svg>