<?xml version="1.0" encoding="utf-8"?>
<!-- Generator: Adobe Illustrator 26.2.1, SVG Export Plug-In . SVG Version: 6.00 Build 0)  -->
<svg version="1.1" xmlns="http://www.w3.org/2000/svg" xmlns:xlink="http://www.w3.org/1999/xlink" x="0px" y="0px"
	 viewBox="0 0 100 100" style="enable-background:new 0 0 100 100;" xml:space="preserve" width = "100px" height = "100px">
<style type="text/css">
	.st0{display:none;}
	.st1{display:inline;}
</style>

		<path d="M37.8,20.6 M50.1,14.6v5.8H5.8v-5.8h18.5V3.4l8.5,0.5c-0.1,0.7-0.6,1.2-1.9,1.4v9.3H50.1z"/>

		<path d="M6.1,30.4V30l0.4-0.4c1-0.9,1.4-1.5,1.5-2c0-0.4-0.2-0.8-0.8-0.8c-0.4,0-0.6,0.2-0.8,0.3l-0.2-0.4
			c0.3-0.2,0.7-0.4,1.1-0.4c0.8,0,1.2,0.6,1.2,1.1c0,0.7-0.5,1.3-1.3,2.1l-0.3,0.3v0h1.8v0.4H6.1z"/>

		<line x1="5.8" y1="24.2" x2="19.3" y2="24.2"/>
	
			<rect x="5.8" y="23.5" width="9" height="1.5"/>
	
				<path d="M19.3,24.2c-2.1,0.8-4.8,2.1-6.4,3.6l1.3-3.6l-1.3-3.6C14.6,22.1,17.2,23.5,19.3,24.2z"/>


 </svg>