<?xml version="1.0" encoding="utf-8"?>
<!-- Generator: Adobe Illustrator 26.2.1, SVG Export Plug-In . SVG Version: 6.00 Build 0)  -->
<svg version="1.1" xmlns="http://www.w3.org/2000/svg" xmlns:xlink="http://www.w3.org/1999/xlink" x="0px" y="0px"
	 viewBox="0 0 100 100" style="enable-background:new 0 0 100 100;" xml:space="preserve" width = "100px" height = "100px">
<style type="text/css">
	.st0{display:none;}
	.st1{display:inline;}
</style> 

		<path d="M28.1,50.9l0.3,45.6h-6.7V58c-5.1,5.1-10.4,9.6-15.7,13.1c-0.7-1.7-2.5-4.7-3.6-5.9c12.6-7.8,25.9-21.7,33.1-36.4H4.9
			v-6.2h16.7V3.5L30.3,4c-0.1,0.7-0.7,1.2-2,1.4v17.2h10.8l1.2-0.4l4.5,2.7c-0.1,0.4-0.7,0.8-1.2,1c-3.5,8.3-8.6,16.3-14.4,23.6"/>


		<line x1="32.2" y1="56" x2="32.2" y2="69.2"/>

			<rect x="31.5" y="56" width="1.5" height="8.7"/>

				<path d="M32.2,69.2c-0.8-2.1-2.1-4.8-3.6-6.4l3.6,1.3l3.6-1.3C34.4,64.4,33,67.1,32.2,69.2z"/>

		<path d="M34.7,59.1c0.1,0.1,0.5,0.2,0.9,0.2c0.7,0,0.9-0.4,0.9-0.8c0-0.5-0.5-0.8-1-0.8h-0.3v-0.4h0.3c0.4,0,0.9-0.2,0.9-0.7
			c0-0.3-0.2-0.6-0.7-0.6c-0.3,0-0.6,0.1-0.8,0.3L34.7,56c0.2-0.1,0.6-0.3,1-0.3c0.8,0,1.1,0.5,1.1,0.9c0,0.4-0.2,0.7-0.7,0.9v0
			c0.5,0.1,0.9,0.5,0.9,1c0,0.6-0.5,1.2-1.4,1.2c-0.4,0-0.8-0.1-1-0.3L34.7,59.1z"/>



</svg>