<?xml version="1.0" encoding="utf-8"?>
<!-- Generator: Adobe Illustrator 26.2.1, SVG Export Plug-In . SVG Version: 6.00 Build 0)  -->
<svg version="1.1" xmlns="http://www.w3.org/2000/svg" xmlns:xlink="http://www.w3.org/1999/xlink" x="0px" y="0px"
	 viewBox="0 0 100 100" style="enable-background:new 0 0 100 100;" xml:space="preserve" width = "100px" height = "100px">
<style type="text/css">
	.st0{display:none;}
	.st1{display:inline;}
</style>

		<path d="M44.4,47.1V23.3H11.5v14.6H5.4V18.3h39v-6.7H11.1V6.2h73.8v5.4H51v6.7h39.8v19.6h-6.4V23.3H51v23.8H44.4z M20.5,50.6v5.1
			v7.4v4.7v7.6v5.1v5.3H14V50.6 M15.1,44.2v-4.5h23.8v4.5H15.1z M17.1,29.3h21.7v4.5H17.1V29.3z M56.7,29.3h22.2v4.5H56.7V29.3z
			 M56.7,44.2v-4.5h24.7v4.5H56.7z"/>

		<path d="M24.6,50.6c0,0.1,0,11.5,0,11.5"/>

			<rect x="23.9" y="50.6" width="1.5" height="7"/>
	
				<path d="M24.6,62.2c-0.8-2.1-2.1-4.8-3.6-6.4l3.6,1.3l3.6-1.3C26.8,57.4,25.4,60,24.6,62.2z"/>

		<path d="M27.5,54.2c0.1,0,0.2,0,0.4,0c0.3,0,0.6-0.2,0.8-0.4c0.3-0.2,0.4-0.6,0.5-1h0c-0.2,0.3-0.5,0.4-0.9,0.4
			c-0.7,0-1.2-0.5-1.2-1.2c0-0.7,0.5-1.4,1.3-1.4s1.3,0.6,1.3,1.6c0,0.9-0.3,1.5-0.7,1.8c-0.3,0.3-0.7,0.5-1.1,0.5
			c-0.2,0-0.4,0-0.5,0V54.2z M27.7,51.9c0,0.5,0.3,0.8,0.7,0.8c0.4,0,0.6-0.2,0.8-0.4c0,0,0-0.1,0-0.2c0-0.7-0.2-1.2-0.8-1.2
			C28,51,27.7,51.4,27.7,51.9z"/>


 </svg>