<?xml version="1.0" encoding="utf-8"?>
<!-- Generator: Adobe Illustrator 26.2.1, SVG Export Plug-In . SVG Version: 6.00 Build 0)  -->
<svg version="1.1" xmlns="http://www.w3.org/2000/svg" xmlns:xlink="http://www.w3.org/1999/xlink" x="0px" y="0px"
	 viewBox="0 0 100 100" style="enable-background:new 0 0 100 100;" xml:space="preserve" width = "100px" height = "100px">
<style type="text/css">
	.st0{display:none;}
	.st1{display:inline;}
</style>

		<path d="M10.9,5.8h78.1V28H10.9V5.8z M17.2,11.2v11.3h17.3V11.2H17.2z M40.4,11.2v11.3h17.9V11.2H40.4z M64.3,11.2v11.3h18.3V11.2
			H64.3z"/>


		<path d="M12.6,32.8c-0.5,0-1.1,0-1.6,0l0-1.5c3.7,0,7.6,0,11,0l3.7,0l0,1.5l-3.7,0C19,32.8,15.7,32.8,12.6,32.8z"/>

			<path d="M30.1,32.1c-2.1,0.8-4.8,2.1-6.4,3.5l1.3-3.6l-1.3-3.6C25.4,29.9,28,31.3,30.1,32.1z"/>


		<path d="M13.5,34.9h-1.5l-0.1,1c0.1,0,0.2,0,0.3,0c0.3,0,0.6,0.1,0.8,0.2c0.3,0.2,0.6,0.5,0.6,1c0,0.8-0.6,1.3-1.5,1.3
			c-0.4,0-0.8-0.1-1-0.2l0.1-0.4c0.2,0.1,0.5,0.2,0.8,0.2c0.5,0,0.9-0.3,0.9-0.8c0-0.5-0.3-0.9-1.1-0.9c-0.2,0-0.4,0-0.5,0l0.3-1.9
			h1.9V34.9z"/>


 </svg>