<?xml version="1.0" encoding="utf-8"?>
<!-- Generator: Adobe Illustrator 26.2.1, SVG Export Plug-In . SVG Version: 6.00 Build 0)  -->
<svg version="1.1" xmlns="http://www.w3.org/2000/svg" xmlns:xlink="http://www.w3.org/1999/xlink" x="0px" y="0px"
	 viewBox="0 0 100 100" style="enable-background:new 0 0 100 100;" xml:space="preserve" width = "100px" height = "100px">
<style type="text/css">
	.st0{display:none;}
	.st1{display:inline;}
</style>


		<path d="M37.6,20.5v5.6H3.2v-5.6H37.6z M34.7,61.4v29.3H13.2v4.8H7.4V61.4H34.7z M7.5,39.6v-5.5h27.2v5.5H7.5z M7.5,53.2v-5.5
			h27.2v5.5H7.5z M34.3,7.2v5.5H8V7.2H34.3z M28.9,67H13.2v18h15.7V67z M63.8,29V18.9H40.2v-5.8h23.5V3.5L72.4,4
			c-0.1,0.7-0.6,1.2-1.9,1.4v7.7h24.4v5.8H70.5V29h21.2v5.7h-48V29H63.8z M94.4,60.5h-6.3v-12H46.8v12h-6.2V42.6h53.7V60.5z"/>

		<path d="M48.7,52.2c1.3,0,13.5,0,13.5,0"/>

			<rect x="48.7" y="51.5" width="9" height="1.5"/>

				<path d="M62.2,52.2c-2.1,0.8-4.8,2.1-6.4,3.6l1.3-3.6l-1.3-3.6C57.4,50.1,60,51.5,62.2,52.2z"/>

		<path d="M49.2,55.1L49.2,55.1l-0.7,0.4l-0.1-0.4l0.9-0.5h0.5v3.9h-0.5V55.1z"/>
		<path d="M51.2,58.5v-0.3l0.4-0.4c1-0.9,1.4-1.5,1.5-2c0-0.4-0.2-0.8-0.8-0.8c-0.4,0-0.6,0.2-0.8,0.3l-0.2-0.4
			c0.3-0.2,0.7-0.4,1.1-0.4c0.8,0,1.2,0.6,1.2,1.1c0,0.7-0.5,1.3-1.3,2.1l-0.3,0.3v0h1.8v0.4H51.2z"/>


 </svg>