<?xml version="1.0" encoding="utf-8"?>
<!-- Generator: Adobe Illustrator 26.2.1, SVG Export Plug-In . SVG Version: 6.00 Build 0)  -->
<svg version="1.1" xmlns="http://www.w3.org/2000/svg" xmlns:xlink="http://www.w3.org/1999/xlink" x="0px" y="0px"
	 viewBox="0 0 100 100" style="enable-background:new 0 0 100 100;" xml:space="preserve" width = "100px" height = "100px">
<style type="text/css">
	.st0{display:none;}
	.st1{display:inline;}
</style> 

		<path d="M3,24.5v-5.7h36.7v5.7H3z M36.2,32.8v5.5H7.7v-5.5H36.2z M35.9,5.3v5.5H8.3V5.3H35.9z"/>

	
		<line x1="7.7" y1="42.3" x2="20.9" y2="42.3"/>

			<rect x="7.7" y="41.5" width="8.7" height="1.5"/>
	
				<path d="M20.9,42.3c-2.1,0.8-4.8,2.1-6.4,3.6l1.3-3.6l-1.3-3.6C16.1,40.1,18.8,41.5,20.9,42.3z"/>

		<path d="M8.1,48.1c0.1,0.1,0.5,0.2,0.9,0.2c0.7,0,0.9-0.4,0.9-0.8c0-0.5-0.5-0.8-1-0.8H8.5v-0.4h0.3c0.4,0,0.9-0.2,0.9-0.7
			c0-0.3-0.2-0.6-0.7-0.6c-0.3,0-0.6,0.1-0.8,0.3L8.1,45c0.2-0.1,0.6-0.3,1-0.3c0.8,0,1.1,0.5,1.1,0.9c0,0.4-0.2,0.7-0.7,0.9v0
			c0.5,0.1,0.9,0.5,0.9,1c0,0.6-0.5,1.2-1.4,1.2c-0.4,0-0.8-0.1-1-0.3L8.1,48.1z"/>

</svg>