<?xml version="1.0" encoding="utf-8"?>
<!-- Generator: Adobe Illustrator 26.2.1, SVG Export Plug-In . SVG Version: 6.00 Build 0)  -->
<svg version="1.1" xmlns="http://www.w3.org/2000/svg" xmlns:xlink="http://www.w3.org/1999/xlink" x="0px" y="0px"
	 viewBox="0 0 100 100" style="enable-background:new 0 0 100 100;" xml:space="preserve" width = "100px" height = "100px">
<style type="text/css">
	.st0{display:none;}
	.st1{display:inline;}
</style>

		<path d="M37.6,20.5v5.6H3.2v-5.6H37.6z M34.7,61.4v29.3H13.2v4.8H7.4V61.4H34.7z M7.5,39.6v-5.5h27.2v5.5H7.5z M7.5,53.2v-5.5
			h27.2v5.5H7.5z M34.3,7.2v5.5H8V7.2H34.3z M28.9,67H13.2v18h15.7V67z M62.6,56c-0.1,0.7-0.8,1.2-2,1.4
			c-1.2,18.5-4.3,31.7-21.1,39.1c-0.8-1.7-2.7-4.2-4.2-5.4c15.3-6.2,18.1-17.6,18.9-35.9L62.6,56z M63.8,29V18.9H40.2v-5.8h23.5V3.5
			L72.4,4c-0.1,0.7-0.6,1.2-1.9,1.4v7.7h24.4v5.8H70.5V29h21.2v5.7h-48V29H63.8z M94.4,60.5h-6.3v-12H46.8v12h-6.2V42.6h53.7V60.5z
			 M77.9,86.3c0,2.4,0.4,2.8,2.7,2.8H88c2.4,0,2.8-1.7,3.1-13.5c1.3,1.1,3.9,2.1,5.7,2.6c-0.5,13.6-2.2,16.9-8.1,16.9h-8.9
			c-6.6,0-8.2-1.9-8.2-8.8V55.4l8.3,0.5c-0.1,0.7-0.6,1.2-2,1.4V86.3z"/>

		<path d="M67.5,58.6c0,0.4,0,10.9,0,10.9"/>

			<rect x="66.8" y="58.6" width="1.5" height="6.4"/>
	
				<path d="M67.5,69.5c-0.8-2.1-2.1-4.8-3.6-6.4l3.6,1.3l3.6-1.3C69.6,64.7,68.3,67.4,67.5,69.5z"/>

		<path d="M65.7,53.9L65.7,53.9L65,54.2l-0.1-0.4l0.9-0.5h0.4v3.9h-0.5V53.9z"/>
		<path d="M69.3,57.3v-1.1h-1.8v-0.3l1.7-2.5h0.6v2.4h0.5v0.4h-0.5v1.1H69.3z M69.3,55.8v-1.3c0-0.2,0-0.4,0-0.6h0
			c-0.1,0.2-0.2,0.4-0.3,0.6l-1,1.3v0H69.3z"/>

 </svg>