<?xml version="1.0" encoding="utf-8"?>
<!-- Generator: Adobe Illustrator 26.2.1, SVG Export Plug-In . SVG Version: 6.00 Build 0)  -->
<svg version="1.1" xmlns="http://www.w3.org/2000/svg" xmlns:xlink="http://www.w3.org/1999/xlink" x="0px" y="0px"
	 viewBox="0 0 100 100" style="enable-background:new 0 0 100 100;" xml:space="preserve" width = "100px" height = "100px">
<style type="text/css">
	.st0{display:none;}
	.st1{display:inline;}
</style> 

	<path class="st4" d="M56.9,88.2"/>

		<path d="M41.8,35.8c-2.2,23.8-9.3,47.1-32.7,60.6c-1.1-1.7-3.3-3.9-5.2-5c21.8-11.9,28.6-33,30.8-55.4l0.5-6.7
			c0.6-8.6,0.5-17.3,0.6-25.7l9.5,0.5c-0.1,0.9-0.9,1.5-2.4,1.7c-0.1,7.5-0.1,15.4-0.6,23.3"/>

		<path d="M50.8,7.8L50.8,7.8l-0.7,0.4L50,7.8l0.9-0.5h0.4v3.9h-0.5V7.8z"/>

		<path d="M38.6,73.8L37.3,73c1.8-2.9,7.5-12.8,7.9-19.8C45.3,50.6,47,7.8,47,7.3l1.5,0.1c0,0.4-1.7,43.3-1.8,45.9
			C46.3,60.7,40.4,70.9,38.6,73.8z"/>

			<path d="M35.3,77.1c0.5-2.2,0.9-5.1,0.7-7.3l2.2,3.1l3.7,0.9C39.8,74.4,37.2,75.8,35.3,77.1z"/>

</svg>