<?xml version="1.0" encoding="utf-8"?>
<!-- Generator: Adobe Illustrator 26.2.1, SVG Export Plug-In . SVG Version: 6.00 Build 0)  -->
<svg version="1.1" xmlns="http://www.w3.org/2000/svg" xmlns:xlink="http://www.w3.org/1999/xlink" x="0px" y="0px"
	 viewBox="0 0 100 100" style="enable-background:new 0 0 100 100;" xml:space="preserve" width = "100px" height = "100px">
<style type="text/css">
	.st0{display:none;}
	.st1{display:inline;}
</style> 

	<rect x="17.2" y="27.6" class="st2" width="12.6" height="0"/>

		<path d="M46.8,84.3l0-2V41.1H16.4V5.9h69v35.2H53.7v14.8v6.4v22 M23.1,12.4v22.2h55.3V12.4H23.1z"/>

		<line x1="58.6" y1="44.4" x2="58.6" y2="60"/>

			<rect x="57.9" y="44.4" width="1.5" height="11"/>

				<path d="M58.6,60c-0.8-2.1-2.1-4.8-3.6-6.4l3.6,1.3l3.6-1.3C60.8,55.2,59.4,57.9,58.6,60z"/>

		<path d="M63.2,48.3v-1.1h-1.8v-0.3l1.7-2.5h0.6v2.4h0.5v0.4h-0.5v1.1H63.2z M63.2,46.8v-1.3c0-0.2,0-0.4,0-0.6h0
			c-0.1,0.2-0.2,0.4-0.3,0.6l-1,1.3v0H63.2z"/>


</svg>