<?xml version="1.0" encoding="utf-8"?>
<!-- Generator: Adobe Illustrator 26.2.1, SVG Export Plug-In . SVG Version: 6.00 Build 0)  -->
<svg version="1.1" xmlns="http://www.w3.org/2000/svg" xmlns:xlink="http://www.w3.org/1999/xlink" x="0px" y="0px"
	 viewBox="0 0 100 100" style="enable-background:new 0 0 100 100;" xml:space="preserve" width = "100px" height = "100px">
<style type="text/css">
	.st0{display:none;}
	.st1{display:inline;}
</style> 

	<path class="st2" d="M56.9,88.2"/>

		<path d="M15.1,44.3V93H8.4V7h83.2v76.6c0,8.7-3.8,9.2-22.4,9.2c-0.4-1.9-1.6-4.9-2.6-6.8c3.6,0.1,7,0.2,9.8,0.2
			c7.9,0,8.5,0,8.5-2.6V44.3 M15.1,13.6v30.7h31V13.6H15.1z M52.8,44.3h32.1V13.6H52.8V44.3z"/>

		<line x1="58" y1="15.3" x2="58" y2="37.8"/>

			<rect x="57.2" y="15.3" width="1.5" height="17.9"/>
			
				<path d="M58,37.8c-0.8-2.1-2.1-4.8-3.6-6.4l3.6,1.3l3.6-1.3C60.1,33,58.7,35.6,58,37.8z"/>

		<path d="M61.9,19.1c0.2,0.1,0.5,0.2,0.9,0.2c0.7,0,0.9-0.4,0.9-0.8c0-0.5-0.5-0.8-1-0.8h-0.3v-0.4h0.3c0.4,0,0.9-0.2,0.9-0.7
			c0-0.3-0.2-0.6-0.7-0.6c-0.3,0-0.6,0.1-0.8,0.3L62,16.1c0.2-0.1,0.6-0.3,1-0.3c0.8,0,1.1,0.5,1.1,0.9c0,0.4-0.2,0.7-0.7,0.9v0
			c0.5,0.1,0.9,0.5,0.9,1c0,0.6-0.5,1.2-1.4,1.2c-0.4,0-0.8-0.1-1-0.3L61.9,19.1z"/>

</svg>