<?xml version="1.0" encoding="utf-8"?>
<!-- Generator: Adobe Illustrator 26.2.1, SVG Export Plug-In . SVG Version: 6.00 Build 0)  -->
<svg version="1.1" xmlns="http://www.w3.org/2000/svg" xmlns:xlink="http://www.w3.org/1999/xlink" x="0px" y="0px"
	 viewBox="0 0 100 100" style="enable-background:new 0 0 100 100;" xml:space="preserve" width = "100px" height = "100px">
<style type="text/css">
	.st0{display:none;}
	.st1{display:inline;}
</style>


	<path class="st2" d="M56.9,88.2"/>

		<path d="M84.5,16.2v73.3h7V9.6h-83v80.7h6.7V16.2 M84.5,16.2 M15.2,16.2"/>


		<path d="M78.3,81.1l-1.5,0C77,63.6,77,34.8,76.7,26.1c-0.2-5.9-3.4-5.9-42.6-5.4c-4.2,0.1-8.9,0.1-14,0.2l0-1.5
			c5.1-0.1,9.8-0.1,14-0.2c40.6-0.5,43.9-0.6,44.1,6.8C78.5,34.8,78.5,63.6,78.3,81.1z"/>

			<path d="M77.5,85.6c-0.8-2.1-2.1-4.8-3.5-6.4l3.6,1.3l3.6-1.3C79.6,80.8,78.3,83.4,77.5,85.6z"/>

		<path d="M19.8,25.2c0.4-0.4,0.8-0.7,1.5-0.7c0.9,0,1.3,0.6,1.3,1.2c0,0.9-0.7,1.6-1.8,2.5l-0.4,0.4v0h2.3v0.4h-3.1v-0.3l0.5-0.4
			c1.3-1.1,1.9-1.7,1.9-2.5c0-0.5-0.3-0.9-0.9-0.9c-0.4,0-0.8,0.2-1.1,0.6L19.8,25.2z"/>

 </svg>