<?xml version="1.0" encoding="utf-8"?>
<!-- Generator: Adobe Illustrator 26.2.1, SVG Export Plug-In . SVG Version: 6.00 Build 0)  -->
<svg version="1.1" xmlns="http://www.w3.org/2000/svg" xmlns:xlink="http://www.w3.org/1999/xlink" x="0px" y="0px"
	 viewBox="0 0 100 100" style="enable-background:new 0 0 100 100;" xml:space="preserve" width = "100px" height = "100px">
<style type="text/css">
	.st0{display:none;}
	.st1{display:inline;}
</style> 


		<path d="M23.4,20.6c-1.9-3.9-5.6-9.2-8.9-13.1l5.6-2.7c4,4.4,8.3,10.3,10.1,14.3l-2.9,1.5h21.2C47,16.1,43.7,9.9,40.6,5.3l5.8-2.2
			c3.6,5,7.2,11.7,8.5,16l-3.5,1.5h17.5C72.8,16,77.7,9,80.4,4.2c6.3,2.3,7.1,2.8,7.9,3.3c-0.3,0.6-1.1,0.9-2.1,0.8
			c-2.5,3.6-6.1,8.3-9.6,12.3"/>

		<line x1="90.1" y1="10.3" x2="83.4" y2="18.8"/>

			<rect x="85" y="12" transform="matrix(0.6174 -0.7867 0.7867 0.6174 23.6866 74.2411)" width="6.2" height="1.5"/>

				<path d="M83.4,18.8c0.7-2.2,1.3-5.1,1.1-7.2l2,3.2l3.6,1.2C88.1,16.4,85.4,17.6,83.4,18.8z"/>
	
		<path d="M92.3,12.3c0.2,0.1,0.5,0.2,0.9,0.2c0.7,0,0.9-0.4,0.9-0.8c0-0.5-0.5-0.8-1-0.8h-0.3v-0.4H93c0.4,0,0.9-0.2,0.9-0.7
			c0-0.3-0.2-0.6-0.7-0.6c-0.3,0-0.6,0.1-0.8,0.3l-0.1-0.4c0.2-0.1,0.6-0.3,1-0.3c0.8,0,1.1,0.5,1.1,0.9c0,0.4-0.2,0.7-0.7,0.9v0
			c0.5,0.1,0.9,0.5,0.9,1c0,0.6-0.5,1.2-1.4,1.2c-0.4,0-0.8-0.1-1-0.3L92.3,12.3z"/>





</svg>