<?xml version="1.0" encoding="utf-8"?>
<!-- Generator: Adobe Illustrator 26.2.1, SVG Export Plug-In . SVG Version: 6.00 Build 0)  -->
<svg version="1.1" xmlns="http://www.w3.org/2000/svg" xmlns:xlink="http://www.w3.org/1999/xlink" x="0px" y="0px"
	 viewBox="0 0 100 100" style="enable-background:new 0 0 100 100;" xml:space="preserve" width = "100px" height = "100px">
<style type="text/css">
	.st0{display:none;}
	.st1{display:inline;}
</style> 


		<path d="M74.5,11.8l4.8,2.7c-0.3,0.5-0.7,0.7-1.2,0.9C65,38,35.1,52.5,8.9,58.3c-0.7-1.7-2.1-4.5-3.3-6c13-2.4,27.1-7.3,39.2-14.3
			c-3.8-3-9.6-6.6-14.5-9l4.5-3.9c5.3,2.5,11.7,6.3,15.7,9.4c7.3-4.7,13.5-10.3,18.1-16.5H38.5c-7.3,5.4-16.1,10.7-26.6,15.2
			c-1-1.6-3.1-3.9-4.6-5C24.7,21.4,38,11.7,45.2,3.3l8.8,1.8c-0.2,0.7-0.9,1.1-2.2,1.2c-1.8,1.9-3.9,3.9-6.1,5.9h27.6L74.5,11.8z
			 M53.3,53.3c-8.7,6.1-19.6,12-32.5,16.9c-0.9-1.6-2.8-3.9-4.2-5.1C37.5,57.9,53.1,47.4,61.5,38l8.8,1.8c-0.3,0.7-1,1.1-2.3,1.2
			c-2.1,2.1-4.4,4.2-6.9,6.4"/>


		<path d="M64.4,50.9l-1-1.1c2.6-2.3,5.1-4.8,7.5-7.4l1.1,1C69.6,46,67.1,48.5,64.4,50.9z"/>
	
			<path d="M60.5,53.3c1.1-2,2.2-4.7,2.5-6.9l1.4,3.5l3.3,1.8C65.5,51.7,62.6,52.5,60.5,53.3z"/>

		<path d="M75.2,45.1V44h-1.8v-0.3l1.7-2.5h0.6v2.4h0.5V44h-0.5v1.1H75.2z M75.2,43.6v-1.3c0-0.2,0-0.4,0-0.6h0
			c-0.1,0.2-0.2,0.4-0.3,0.6l-1,1.3v0H75.2z"/>


</svg>