<?xml version="1.0" encoding="utf-8"?>
<!-- Generator: Adobe Illustrator 26.2.1, SVG Export Plug-In . SVG Version: 6.00 Build 0)  -->
<svg version="1.1" xmlns="http://www.w3.org/2000/svg" xmlns:xlink="http://www.w3.org/1999/xlink" x="0px" y="0px"
	 viewBox="0 0 100 100" style="enable-background:new 0 0 100 100;" xml:space="preserve" width = "100px" height = "100px">
<style type="text/css">
	.st0{display:none;}
	.st1{display:inline;}
</style> 

		<path d="M41.7,82.7c-0.5,0.6-1.4,0.7-2.2,0.5c-8,4.2-20.4,8.4-30.5,11c-1-1.4-3.2-3.7-4.6-4.9C14.5,87.1,27,83.2,34.5,79
			L41.7,82.7z M10.9,5.8h78.1V28H10.9V5.8z M17.2,11.2v11.3h17.3V11.2H17.2z M17.4,34.1h65.7v43.3H17.4V34.1z M23.9,38.9v8h52.5v-8
			H23.9z M23.9,51.7v8.1h52.5v-8.1H23.9z M23.9,64.5v8.1h52.5v-8.1H23.9z M40.4,11.2v11.3h17.9V11.2H40.4z M88.6,94.2
			c-6.8-3.3-18.3-7.7-29.9-11.3l5.3-3.7c11.5,3.4,23.9,7.8,31.6,11.2L88.6,94.2z M64.3,11.2v11.3h18.3V11.2H64.3z"/>


		<line x1="57.3" y1="86.7" x2="69.5" y2="90.8"/>

		<rect x="60.5" y="83.8" transform="matrix(0.3207 -0.9472 0.9472 0.3207 -41.735 117.798)" width="1.5" height="8.4"/>

		<path d="M69.5,90.8c-2.3,0.1-5.2,0.5-7.2,1.3l2.4-3l-0.1-3.8C65.7,87.2,67.7,89.4,69.5,90.8z"/>

		<path d="M51.4,85.3L51.4,85.3l-0.7,0.4l-0.1-0.4l0.9-0.5h0.4v3.9h-0.5V85.3z"/>
		<path d="M53.3,88.7v-0.3l0.4-0.4c1-0.9,1.4-1.5,1.5-2c0-0.4-0.2-0.8-0.8-0.8c-0.4,0-0.6,0.2-0.8,0.3l-0.2-0.4
			c0.3-0.2,0.7-0.4,1.1-0.4c0.8,0,1.2,0.6,1.2,1.1c0,0.7-0.5,1.3-1.3,2.1l-0.3,0.3v0h1.8v0.4H53.3z"/>


</svg>