<?xml version="1.0" encoding="utf-8"?>
<!-- Generator: Adobe Illustrator 26.2.1, SVG Export Plug-In . SVG Version: 6.00 Build 0)  -->
<svg version="1.1" xmlns="http://www.w3.org/2000/svg" xmlns:xlink="http://www.w3.org/1999/xlink" x="0px" y="0px"
	 viewBox="0 0 100 100" style="enable-background:new 0 0 100 100;" xml:space="preserve" width = "100px" height = "100px">
<style type="text/css">
	.st0{display:none;}
	.st1{display:inline;}
</style>


	<rect x="17.2" y="27.6" class="st0" width="12.6" height="0"/>

		<path d="M16.1,7h67.8v86h-7v-7.1H22.8V93h-6.7V7z M76.9,13.5H22.8V31h54.1V13.5z M76.9,37.4H22.8v17.7h54.1V37.4z M22.8,79.3h54.1
			V61.6H22.8V79.3z"/>

		<line x1="26.6" y1="90" x2="44.7" y2="90"/>
		
			<rect x="26.6" y="89.2" width="13.6" height="1.5"/>

				<path d="M44.7,90c-2.1,0.8-4.8,2.1-6.4,3.6l1.3-3.6l-1.3-3.6C39.9,87.8,42.5,89.2,44.7,90z"/>

		<path d="M29.2,93.2h-1.5l-0.1,1c0.1,0,0.2,0,0.3,0c0.3,0,0.6,0.1,0.8,0.2c0.3,0.2,0.6,0.5,0.6,1c0,0.8-0.6,1.3-1.5,1.3
			c-0.4,0-0.8-0.1-1-0.2l0.1-0.4c0.2,0.1,0.5,0.2,0.8,0.2c0.5,0,0.9-0.3,0.9-0.8c0-0.5-0.3-0.9-1.1-0.9c-0.2,0-0.4,0-0.5,0l0.3-1.9
			h1.9V93.2z"/>


 </svg>