<?xml version="1.0" encoding="utf-8"?>
<!-- Generator: Adobe Illustrator 26.2.1, SVG Export Plug-In . SVG Version: 6.00 Build 0)  -->
<svg version="1.1" xmlns="http://www.w3.org/2000/svg" xmlns:xlink="http://www.w3.org/1999/xlink" x="0px" y="0px"
	 viewBox="0 0 100 100" style="enable-background:new 0 0 100 100;" xml:space="preserve" width = "100px" height = "100px">
<style type="text/css">
	.st0{display:none;}
	.st1{display:inline;}
</style>

		<path d="M20.5,81.2c-4.4,4.5-9.1,8.9-12.8,12.4c0,0.8-0.2,1.1-0.9,1.5L3,88.3c4.2-3.3,9.4-7.7,13.9-12V48.9H4v-6.4h19.3v33
			 M10,4.9c6.1,4.8,12.9,11.8,15.8,16.9l-5.6,3.9c-2.7-5.2-9.4-12.5-15.4-17.4L10,4.9z M41.4,12.3v20.6c0,14-1.2,33.8-9.6,47.4
			c-1.2-1.2-3.9-2.9-5.4-3.7c8-12.8,8.8-30.6,8.8-43.7V6.6h54.5v67.4c0,7.5-3.8,7.7-17.4,7.7c-0.2-1.7-1.1-4.3-1.9-5.8
			c2.6,0,5,0.1,6.9,0.1c5.5,0,6.1,0,6.1-2V12.3H41.4z M45.4,35.7H59V27H46.4v-5.1H59v-8.2l7.7,0.5c-0.1,0.7-0.6,1.1-1.9,1.3v6.4
			h13.7V27H64.8v8.7h14.8v5.1H45.4V35.7z M53.9,69.2v5.2h-5.4V46.8h27.2v22.3H53.9z M70.2,51.8H53.9v12.3h16.3V51.8z"/>

	<rect x="17.2" y="27.6" class="st2" width="12.6" height="0"/>

		<path d="M7.8,79.7L6.6,79l5-8.3c0.6-1,0.9-2.1,1-3.3L13,56.5c0-0.6-0.2-1.1-0.6-1.5c-0.4-0.4-0.9-0.6-1.5-0.6H4.8v-1.5H11
			c1,0,1.9,0.4,2.5,1.1c0.7,0.7,1,1.6,1,2.6L14,67.5c-0.1,1.4-0.5,2.8-1.2,4L7.8,79.7z"/>

			<path d="M4.8,83.2C5.3,81,5.5,78,5.1,75.9l2.4,3l3.7,0.7C9.1,80.3,6.6,81.8,4.8,83.2z"/>

		<path d="M6.3,57.2L6.3,57.2l-0.7,0.4l-0.1-0.4l0.9-0.5h0.5v3.9H6.3V57.2z"/>
		<path d="M10.8,58.6c0,1.3-0.5,2.1-1.4,2.1c-0.8,0-1.3-0.7-1.3-2c0-1.3,0.6-2,1.4-2C10.3,56.6,10.8,57.4,10.8,58.6z M8.7,58.7
			c0,1,0.3,1.6,0.8,1.6c0.5,0,0.8-0.6,0.8-1.6c0-1-0.2-1.6-0.8-1.6C9,57,8.7,57.6,8.7,58.7z"/>


 </svg>