<?xml version="1.0" encoding="utf-8"?>
<!-- Generator: Adobe Illustrator 26.2.1, SVG Export Plug-In . SVG Version: 6.00 Build 0)  -->
<svg version="1.1" xmlns="http://www.w3.org/2000/svg" xmlns:xlink="http://www.w3.org/1999/xlink" x="0px" y="0px"
	 viewBox="0 0 100 100" style="enable-background:new 0 0 100 100;" xml:space="preserve" width = "100px" height = "100px">
<style type="text/css">
	.st0{display:none;}
	.st1{display:inline;}
</style>


	<rect x="17.2" y="27.6" class="st2" width="12.6" height="0"/>

		<path d="M46.4,17.6c-11,1.3-22.6,2.3-33.3,2.9c-0.2-1.7-1-4.3-1.8-5.8c24.2-1.6,53.3-4.8,68.1-10.1l5.8,5.7
			c-0.3,0.2-0.6,0.3-1.2,0.3c-0.2,0-0.5,0-0.9-0.1c-7.2,2.4-17,4.3-27.8,5.9 M46.4,40.2H11v-6.4H90v6.4H53.3"/>

		<line x1="11.3" y1="44.7" x2="30.6" y2="44.7"/>

			<rect x="11.3" y="43.9" width="14.7" height="1.5"/>
	
				<path d="M30.6,44.7c-2.1,0.8-4.8,2.1-6.4,3.6l1.3-3.6l-1.3-3.6C25.8,42.5,28.5,43.9,30.6,44.7z"/>

		<path d="M12.2,51.6v-0.3l0.4-0.4c1-0.9,1.4-1.5,1.5-2c0-0.4-0.2-0.8-0.8-0.8c-0.4,0-0.6,0.2-0.8,0.3L12.3,48
			c0.3-0.2,0.7-0.4,1.1-0.4c0.8,0,1.2,0.6,1.2,1.1c0,0.7-0.5,1.3-1.3,2.1l-0.3,0.3v0h1.8v0.4H12.2z"/>


 </svg>