<?xml version="1.0" encoding="utf-8"?>
<!-- Generator: Adobe Illustrator 26.2.1, SVG Export Plug-In . SVG Version: 6.00 Build 0)  -->
<svg version="1.1" xmlns="http://www.w3.org/2000/svg" xmlns:xlink="http://www.w3.org/1999/xlink" x="0px" y="0px"
	 viewBox="0 0 100 100" style="enable-background:new 0 0 100 100;" xml:space="preserve" width = "100px" height = "100px">
<style type="text/css">
	.st0{display:none;}
	.st1{display:inline;}
</style>


		<path d="M74.5,11.8l4.8,2.7c-0.3,0.5-0.7,0.7-1.2,0.9C65,38,35.1,52.5,8.9,58.3c-0.7-1.7-2.1-4.5-3.3-6c13-2.4,27.1-7.3,39.2-14.3
			c-3.8-3-9.6-6.6-14.5-9l4.5-3.9c5.3,2.5,11.7,6.3,15.7,9.4c7.3-4.7,13.5-10.3,18.1-16.5H38.5c-7.3,5.4-16.1,10.7-26.6,15.2
			c-1-1.6-3.1-3.9-4.6-5C24.7,21.4,38,11.7,45.2,3.3l8.8,1.8c-0.2,0.7-0.9,1.1-2.2,1.2c-1.8,1.9-3.9,3.9-6.1,5.9h27.6L74.5,11.8z
			 M88.5,47.4l1.2-0.4c3.8,1.9,4.3,2.2,4.7,2.5c-0.1,0.5-0.6,0.7-1.1,1C80.3,79,48.6,91.9,15.7,96.7c-0.5-1.9-1.8-4.7-2.9-6.2
			c15.9-2,31.9-6.2,45.2-13.2c-4.3-3.9-11-8.5-16.7-11.6l5-3.8c6,3.2,13.2,8,17.6,12c8.5-5.4,15.5-12.2,20.2-20.6H53.3
			c-8.7,6.1-19.6,12-32.5,16.9c-0.9-1.6-2.8-3.9-4.2-5.1C37.5,57.9,53.1,47.4,61.5,38l8.8,1.8c-0.3,0.7-1,1.1-2.3,1.2
			c-2.1,2.1-4.4,4.2-6.9,6.4H88.5z"/>

		<line x1="40" y1="68.9" x2="50.1" y2="76"/>

			<rect x="42.5" y="67.3" transform="matrix(0.5798 -0.8148 0.8148 0.5798 -39.8189 65.1093)" width="1.5" height="7.8"/>

				<path d="M50.1,76c-2.2-0.6-5.1-1-7.3-0.8l3.1-2.2l1-3.7C47.4,71.5,48.8,74.2,50.1,76z"/>

		<path d="M38.4,69.3c-0.1,0-0.2,0-0.4,0c-0.8,0.1-1.3,0.7-1.4,1.4h0c0.2-0.2,0.5-0.4,0.9-0.4c0.7,0,1.2,0.5,1.2,1.3
			c0,0.7-0.5,1.4-1.3,1.4c-0.8,0-1.4-0.6-1.4-1.7c0-0.8,0.3-1.4,0.7-1.8c0.3-0.3,0.8-0.5,1.2-0.6c0.2,0,0.3,0,0.4,0V69.3z
			 M38.2,71.5c0-0.6-0.3-0.9-0.8-0.9c-0.3,0-0.6,0.2-0.8,0.5c0,0.1-0.1,0.1-0.1,0.2c0,0.6,0.3,1.1,0.9,1.1
			C37.9,72.5,38.2,72.1,38.2,71.5z"/>



 </svg>