<?xml version="1.0" encoding="utf-8"?>
<!-- Generator: Adobe Illustrator 26.2.1, SVG Export Plug-In . SVG Version: 6.00 Build 0)  -->
<svg version="1.1" xmlns="http://www.w3.org/2000/svg" xmlns:xlink="http://www.w3.org/1999/xlink" x="0px" y="0px"
	 viewBox="0 0 100 100" style="enable-background:new 0 0 100 100;" xml:space="preserve" width = "100px" height = "100px">
<style type="text/css">
	.st0{display:none;}
	.st1{display:inline;}
</style>


		<path d="M37.4,30.2h-6.3l7.1,2.5c-0.2,0.7-1,1-2.2,1c-2.4,4.9-5.2,9.8-8.3,14.4l3,0.8c-0.2,0.6-0.8,1.1-2,1.2v46.3h-6.6V56.2
			C17.7,61.8,13,66.9,8.2,71c-1.2-1.2-3.5-3.4-5-4.5c10.3-8.3,20.8-22.3,27-36.5l0.5,0.2V21H6.1v-6.5h24.6v-11L39.3,4
			c-0.1,0.7-0.6,1.2-1.9,1.4v9.1h26.6v-11L72.8,4c-0.1,0.8-0.7,1.2-2,1.4v9.1h24.4V21H70.8v9.8h-6.7V21H37.4V30.2z M58.5,83.6
			c0,4.2,1,5.1,6.4,5.1h19.3c5,0,5.8-2.7,6.4-15.8c1.6,1.2,4.3,2.3,6.2,2.8c-0.9,15-2.9,19.4-12.2,19.4H64.5
			c-9.8,0-12.6-2.4-12.6-11.5v-52l8.6,0.5c-0.1,0.7-0.7,1.2-2,1.4v23.9c10.6-4.8,21.7-10.7,28.4-15.9l5.7,5.6
			c-0.2,0.3-0.6,0.4-1.1,0.4c-0.2,0-0.5,0-0.8-0.1c-7.8,5.3-20.5,11.3-32.2,16.1V83.6z"/>

		<line x1="47.2" y1="33.5" x2="47.2" y2="45.3"/>
	
			<rect x="46.5" y="33.5" width="1.5" height="7.2"/>
			
				<path d="M47.2,45.3c-0.8-2.1-2.1-4.8-3.6-6.4l3.6,1.3l3.6-1.3C49.4,40.5,48,43.2,47.2,45.3z"/>
	

		<path d="M45,31.9v0.3l-1.7,3.5h-0.5l1.7-3.4v0h-1.9v-0.4H45z"/>

 </svg>