<?xml version="1.0" encoding="utf-8"?>
<!-- Generator: Adobe Illustrator 26.2.1, SVG Export Plug-In . SVG Version: 6.00 Build 0)  -->
<svg version="1.1" xmlns="http://www.w3.org/2000/svg" xmlns:xlink="http://www.w3.org/1999/xlink" x="0px" y="0px"
	 viewBox="0 0 100 100" style="enable-background:new 0 0 100 100;" xml:space="preserve" width = "100px" height = "100px">
<style type="text/css">
	.st0{display:none;}
	.st1{display:inline;}
</style> 

		<path d="M34.6,6.8c-0.2,0.5-1,0.9-2.2,0.7c-5.8,7.3-16.2,16.8-25.1,23.1c-0.8-1.5-2.7-4.1-3.9-5.4c8.4-5.5,18.3-14.4,23.4-21.7
			L34.6,6.8z M19.3,96.5v-44c-3.8,4.2-7.6,8.1-11.4,11.4c-0.9-1.3-3-4-4.3-5.2c9.5-7.9,20.5-21,27.4-33.5l7.8,3.2
			c-0.3,0.6-1.1,1-2.3,0.8c-3,5-6.5,10.1-10.3,15l1.8,0.6c-0.2,0.6-0.8,1.1-2,1.3v50.4H19.3z"/>

		<line x1="30" y1="45.3" x2="30" y2="56.2"/>

			<rect x="29.3" y="45.3" width="1.5" height="6.4"/>

				<path d="M30,56.2c-0.8-2.1-2.1-4.8-3.6-6.4l3.6,1.3l3.6-1.3C32.1,51.4,30.8,54.1,30,56.2z"/>

		<path d="M32.7,46.7c0.1,0.1,0.5,0.2,0.9,0.2c0.7,0,0.9-0.4,0.9-0.8c0-0.5-0.5-0.8-1-0.8h-0.3V45h0.3c0.4,0,0.9-0.2,0.9-0.7
			c0-0.3-0.2-0.6-0.7-0.6c-0.3,0-0.6,0.1-0.8,0.3l-0.1-0.4c0.2-0.1,0.6-0.3,1-0.3c0.8,0,1.1,0.5,1.1,0.9c0,0.4-0.2,0.7-0.7,0.9v0
			c0.5,0.1,0.9,0.5,0.9,1c0,0.6-0.5,1.2-1.4,1.2c-0.4,0-0.8-0.1-1-0.3L32.7,46.7z"/>

</svg>