<?xml version="1.0" encoding="utf-8"?>
<!-- Generator: Adobe Illustrator 26.2.1, SVG Export Plug-In . SVG Version: 6.00 Build 0)  -->
<svg version="1.1" xmlns="http://www.w3.org/2000/svg" xmlns:xlink="http://www.w3.org/1999/xlink" x="0px" y="0px"
	 viewBox="0 0 100 100" style="enable-background:new 0 0 100 100;" xml:space="preserve" width = "100px" height = "100px">
<style type="text/css">
	.st0{display:none;}
	.st1{display:inline;}
</style>

		<path d="M54.3,31.5l-0.1,5.9v32.8c0,0,0.3,5.9,0,6.8v19.4h-7V77v-6.8V37.6v-6.1 M42.9,32H6.8v-6.8h40.4V3.6l9,0.5
			c-0.1,0.7-0.6,1.2-2,1.4v19.7H95V32H58.5"/>

		<line x1="58.3" y1="4.4" x2="58.3" y2="17.8"/>
	
		<rect x="57.6" y="4.4" width="1.5" height="8.9"/>
	
		<path d="M58.3,17.8c-0.8-2.1-2.1-4.8-3.6-6.4l3.6,1.3l3.6-1.3C60.5,13,59.1,15.7,58.3,17.8z"/>
		<path d="M61.2,8.3V8l0.4-0.4c1-0.9,1.4-1.5,1.5-2c0-0.4-0.2-0.8-0.8-0.8c-0.4,0-0.6,0.2-0.8,0.3l-0.2-0.4c0.3-0.2,0.7-0.4,1.1-0.4
			c0.8,0,1.2,0.6,1.2,1.1c0,0.7-0.5,1.3-1.3,2.1l-0.3,0.3v0h1.8v0.4H61.2z"/>

 </svg>