<?xml version="1.0" encoding="utf-8"?>
<!-- Generator: Adobe Illustrator 26.2.1, SVG Export Plug-In . SVG Version: 6.00 Build 0)  -->
<svg version="1.1" xmlns="http://www.w3.org/2000/svg" xmlns:xlink="http://www.w3.org/1999/xlink" x="0px" y="0px"
	 viewBox="0 0 100 100" style="enable-background:new 0 0 100 100;" xml:space="preserve" width = "100px" height = "100px">
<style type="text/css">
	.st0{display:none;}
	.st1{display:inline;}
</style>

	<path class="st2" d="M56.9,88.2"/>

		<path d="M94.7,90.6 M85.6,36.2L85.2,18v-7.6H65.4V5.3h25.9v30.9 M35.4,36.2v-5.1H55v-8.2H37.4V18H55v-7.6H35.6V5.3h25.2v30.9
			 M31.1,62.8v12.1H11.3v8.3h-6V8h25.8V61 M24.9,14H11.3v23.7h13.6V14z M11.3,68.8h13.6v-25H11.3V68.8z"/>

		<path d="M79.7,20.5l0-5.3c0-0.5-0.4-0.9-0.9-0.9l-11.6-0.1l0-1.5l11.6,0.1c1.3,0,2.4,1.1,2.4,2.4l0,5.3L79.7,20.5z"/>

			<path d="M80.5,25c-0.8-2.1-2.2-4.8-3.6-6.4l3.6,1.3l3.6-1.3C82.6,20.2,81.2,22.9,80.5,25z"/>
	
		<path d="M67.4,18.7c0-0.5,0.3-0.8,0.8-1l0,0c-0.4-0.2-0.6-0.5-0.6-0.9c0-0.6,0.5-1,1.2-1c0.8,0,1.1,0.5,1.1,1
			c0,0.3-0.2,0.7-0.6,0.9v0c0.5,0.2,0.8,0.5,0.8,1c0,0.7-0.6,1.1-1.3,1.1C67.9,19.8,67.4,19.3,67.4,18.7z M69.5,18.7
			c0-0.5-0.3-0.7-0.9-0.9c-0.5,0.1-0.7,0.4-0.7,0.8c0,0.4,0.3,0.7,0.8,0.7C69.2,19.4,69.5,19.1,69.5,18.7z M68,16.8
			c0,0.4,0.3,0.6,0.7,0.7c0.3-0.1,0.6-0.4,0.6-0.7c0-0.3-0.2-0.6-0.7-0.6C68.3,16.2,68,16.4,68,16.8z"/>



 </svg>