<?xml version="1.0" encoding="utf-8"?>
<!-- Generator: Adobe Illustrator 26.2.1, SVG Export Plug-In . SVG Version: 6.00 Build 0)  -->
<svg version="1.1" xmlns="http://www.w3.org/2000/svg" xmlns:xlink="http://www.w3.org/1999/xlink" x="0px" y="0px"
	 viewBox="0 0 100 100" style="enable-background:new 0 0 100 100;" xml:space="preserve" width = "100px" height = "100px">
<style type="text/css">
	.st0{display:none;}
	.st1{display:inline;}
</style> 

		<path d="M46.5,17.2V5l8.9,0.6c-0.1,0.7-0.7,1.2-2,1.4v10.2 M14.6,17.2v19.9H7.9V17.2"/>

		<line x1="18.3" y1="18" x2="18.3" y2="32.1"/>
	
			<rect x="17.6" y="18" width="1.5" height="9.6"/>

				<path d="M18.3,32.1c-0.8-2.1-2.1-4.8-3.6-6.4l3.6,1.3l3.6-1.3C20.4,27.4,19.1,30,18.3,32.1z"/>

		<path d="M21.3,21.2v-0.3l0.4-0.4c1-0.9,1.4-1.5,1.5-2c0-0.4-0.2-0.8-0.8-0.8c-0.4,0-0.6,0.2-0.8,0.3l-0.2-0.4
			c0.3-0.2,0.7-0.4,1.1-0.4c0.8,0,1.2,0.6,1.2,1.1c0,0.7-0.5,1.3-1.3,2.1L22,20.7v0h1.8v0.4H21.3z"/>

</svg>