<?xml version="1.0" encoding="utf-8"?>
<!-- Generator: Adobe Illustrator 26.2.1, SVG Export Plug-In . SVG Version: 6.00 Build 0)  -->
<svg version="1.1" xmlns="http://www.w3.org/2000/svg" xmlns:xlink="http://www.w3.org/1999/xlink" x="0px" y="0px"
	 viewBox="0 0 100 100" style="enable-background:new 0 0 100 100;" xml:space="preserve" width = "100px" height = "100px">
<style type="text/css">
	.st0{display:none;}
	.st1{display:inline;}
</style>

		<path d="M55.6,3.8c-0.3,0.8-1.1,1.3-2.1,1.5c9.8,13.6,27.9,27,43.6,33.8c-1.6,1.6-3.2,4-4.3,6c-15.9-7.8-33.9-21.5-43.5-35
			C41,22.5,24.3,36.7,6.8,45.5c-0.8-1.4-2.5-4-3.9-5.4c17.6-8.5,34.9-23.5,42.8-36.9L55.6,3.8z"/>

		<path d="M57.9,26.9l-0.2-0.2c-3.4-3-6.5-6.4-9.2-10l1.2-0.9c2.6,3.6,5.6,6.9,8.9,9.8l0.2,0.2l-0.4,0.6L57.9,26.9z"/>
	
			<path d="M61.9,29.2c-2.1-0.7-5-1.4-7.2-1.3l3.3-1.9l1.3-3.6C59.5,24.5,60.7,27.2,61.9,29.2z"/>
	
		<path d="M46.4,22.8v-0.3l0.4-0.4c1-0.9,1.4-1.5,1.5-2c0-0.4-0.2-0.8-0.8-0.8c-0.4,0-0.6,0.2-0.8,0.3l-0.2-0.4
			c0.3-0.2,0.7-0.4,1.1-0.4c0.8,0,1.2,0.6,1.2,1.1c0,0.7-0.5,1.3-1.3,2.1l-0.3,0.3v0h1.8v0.4H46.4z"/>

 </svg>