<?xml version="1.0" encoding="utf-8"?>
<!-- Generator: Adobe Illustrator 26.2.1, SVG Export Plug-In . SVG Version: 6.00 Build 0)  -->
<svg version="1.1" xmlns="http://www.w3.org/2000/svg" xmlns:xlink="http://www.w3.org/1999/xlink" x="0px" y="0px"
	 viewBox="0 0 100 100" style="enable-background:new 0 0 100 100;" xml:space="preserve" width = "100px" height = "100px">
<style type="text/css">
	.st0{display:none;}
	.st1{display:inline;}
</style>

		<path d="M44.9,38.6h-30v55.7H8.2V5.7h36.6V38.6z M38.4,10.9H14.8v8.5h23.6V10.9z M14.8,33.4h23.6v-9H14.8V33.4z M61.1,71.9H37.9
			V80h-6V49.7H24v-5.1H75v5.1c0,0-35.4-0.3-37,0v6.5h23.1 M61.1,67.4v-6.7H37.9v6.7H61.1z M91.8,5.7v79.4c0,8.6-4,9-19.2,9
			c-0.2-1.9-1.2-5-2.2-6.9c3.4,0.1,6.6,0.2,9,0.2c5.2,0,5.8,0,5.8-2.3V38.7H54.3v-33H91.8z M85.2,10.9H60.8v8.5h24.4V10.9z
			 M60.8,33.5h24.4v-9.1H60.8V33.5z"/>

	<path class="st1" d="M61.1,60.7"/>

		<line x1="39.7" y1="75.7" x2="51.4" y2="75.7"/>

			<rect x="39.7" y="74.9" width="7.2" height="1.5"/>

				<path d="M51.4,75.7c-2.1,0.8-4.8,2.1-6.4,3.6l1.3-3.6L45,72.1C46.6,73.5,49.3,74.9,51.4,75.7z"/>

		<path d="M39.9,80.2L39.9,80.2l-0.7,0.4l-0.1-0.4l0.9-0.5h0.4v3.9h-0.5V80.2z"/>
		<path d="M41.9,83.7v-0.3l0.4-0.4c1-0.9,1.4-1.5,1.5-2c0-0.4-0.2-0.8-0.8-0.8c-0.4,0-0.6,0.2-0.8,0.3L42,80.1
			c0.3-0.2,0.7-0.4,1.1-0.4c0.8,0,1.2,0.6,1.2,1.1c0,0.7-0.5,1.3-1.3,2.1l-0.3,0.3v0h1.8v0.4H41.9z"/>


 </svg>