<?xml version="1.0" encoding="utf-8"?>
<!-- Generator: Adobe Illustrator 26.2.1, SVG Export Plug-In . SVG Version: 6.00 Build 0)  -->
<svg version="1.1" xmlns="http://www.w3.org/2000/svg" xmlns:xlink="http://www.w3.org/1999/xlink" x="0px" y="0px"
	 viewBox="0 0 100 100" style="enable-background:new 0 0 100 100;" xml:space="preserve" width = "100px" height = "100px">
<style type="text/css">
	.st0{display:none;}
	.st1{display:inline;}
</style> 

		<path d="M37.6,20.5v5.6H3.2v-5.6H37.6z M34.7,61.4v29.3H13.2v4.8H7.4V61.4H34.7z M7.5,39.6v-5.5h27.2v5.5H7.5z M7.5,53.2v-5.5
			h27.2v5.5H7.5z M34.3,7.2v5.5H8V7.2H34.3z M28.9,67H13.2v18h15.7V67z M63.8,29V18.9H40.2v-5.8h23.5V3.5L72.4,4
			c-0.1,0.7-0.6,1.2-1.9,1.4v7.7h24.4v5.8H70.5V29"/>


		<path d="M76.7,4.2c0,1,0,7.7,0,7.8"/>
	
		<path d="M77.5,7.5l-1.5,0l0-0.8c0-1.2,0-2.2,0-2.5l1.5,0c0,0.3,0,1.3,0,2.5L77.5,7.5z"/>
		
		<path d="M76.7,12c-0.8-2.1-2.1-4.8-3.6-6.4l3.6,1.3l3.6-1.3C78.8,7.2,77.5,9.9,76.7,12z"/>

		<path d="M82.3,7.8c0.1,0,0.2,0,0.4,0c0.3,0,0.6-0.2,0.8-0.4c0.3-0.2,0.4-0.6,0.5-1h0c-0.2,0.3-0.5,0.4-0.9,0.4
			c-0.7,0-1.2-0.5-1.2-1.2c0-0.7,0.5-1.4,1.3-1.4s1.3,0.6,1.3,1.6c0,0.9-0.3,1.5-0.7,1.8c-0.3,0.3-0.7,0.5-1.1,0.5
			c-0.2,0-0.4,0-0.5,0V7.8z M82.5,5.5c0,0.5,0.3,0.8,0.8,0.8c0.4,0,0.6-0.2,0.8-0.4c0,0,0-0.1,0-0.2c0-0.7-0.2-1.2-0.8-1.2
			C82.8,4.6,82.5,5,82.5,5.5z"/>


</svg>