<?xml version="1.0" encoding="utf-8"?>
<!-- Generator: Adobe Illustrator 26.2.1, SVG Export Plug-In . SVG Version: 6.00 Build 0)  -->
<svg version="1.1" xmlns="http://www.w3.org/2000/svg" xmlns:xlink="http://www.w3.org/1999/xlink" x="0px" y="0px"
	 viewBox="0 0 100 100" style="enable-background:new 0 0 100 100;" xml:space="preserve" width = "100px" height = "100px">
<style type="text/css">
	.st0{display:none;}
	.st1{display:inline;}
</style> 

		<path d="M34.6,6.8c-0.2,0.5-1,0.9-2.2,0.7c-5.8,7.3-16.2,16.8-25.1,23.1c-0.8-1.5-2.7-4.1-3.9-5.4c8.4-5.5,18.3-14.4,23.4-21.7
			L34.6,6.8z M19.3,96.5v-44c-3.8,4.2-7.6,8.1-11.4,11.4c-0.9-1.3-3-4-4.3-5.2c9.5-7.9,20.5-21,27.4-33.5l7.8,3.2
			c-0.3,0.6-1.1,1-2.3,0.8c-3,5-6.5,10.1-10.3,15l1.8,0.6c-0.2,0.6-0.8,1.1-2,1.3v50.4H19.3z M73.9,45.4H39.1v-6.5h57.5v6.5H80.7
			 M92.8,9.8v6.4H42.9V9.8H92.8z"/>

		<line x1="39.1" y1="49.4" x2="51.7" y2="49.4"/>

			<rect x="39.1" y="48.6" width="8" height="1.5"/>

				<path d="M51.7,49.4c-2.1,0.8-4.8,2.1-6.4,3.6l1.3-3.6l-1.3-3.6C46.9,47.2,49.5,48.6,51.7,49.4z"/>

		<path d="M41.4,52h-1.5l-0.2,1c0.1,0,0.2,0,0.3,0c0.3,0,0.6,0.1,0.8,0.2c0.3,0.2,0.6,0.5,0.6,1c0,0.8-0.6,1.3-1.5,1.3
			c-0.4,0-0.8-0.1-1-0.2l0.1-0.4c0.2,0.1,0.5,0.2,0.8,0.2c0.5,0,0.9-0.3,0.9-0.8c0-0.5-0.3-0.9-1.1-0.9c-0.2,0-0.4,0-0.5,0l0.3-1.9
			h1.9V52z"/>

</svg>