<?xml version="1.0" encoding="utf-8"?>
<!-- Generator: Adobe Illustrator 26.2.1, SVG Export Plug-In . SVG Version: 6.00 Build 0)  -->
<svg version="1.1" xmlns="http://www.w3.org/2000/svg" xmlns:xlink="http://www.w3.org/1999/xlink" x="0px" y="0px"
	 viewBox="0 0 100 100" style="enable-background:new 0 0 100 100;" xml:space="preserve" width = "100px" height = "100px">
<style type="text/css">
	.st0{display:none;}
	.st1{display:inline;}
</style> 


		<path d="M44.4,47.1V23.3H11.5v14.6H5.4V18.3h39v-6.7H11.1V6.2h73.8v5.4H51v6.7h39.8v19.6h-6.4V23.3H51v23.8H44.4z"/>


		<line x1="55.1" y1="12.2" x2="55.1" y2="17.1"/>
		<rect x="54.4" y="12.2" width="1.5" height="4.8"/>


		<line x1="55.1" y1="24.5" x2="55.1" y2="35.7"/>

			<rect x="54.4" y="24.5" width="1.5" height="6.7"/>
	
				<path d="M55.1,35.7c-0.8-2.1-2.1-4.8-3.6-6.4l3.6,1.3l3.6-1.3C57.2,31,55.9,33.6,55.1,35.7z"/>


		<path d="M59.6,16.6v-1.1h-1.8v-0.3l1.7-2.5h0.6v2.4h0.5v0.4h-0.5v1.1H59.6z M59.6,15.1v-1.3c0-0.2,0-0.4,0-0.6h0
			c-0.1,0.2-0.2,0.4-0.3,0.6l-1,1.3v0H59.6z"/>



</svg>