<?xml version="1.0" encoding="utf-8"?>
<!-- Generator: Adobe Illustrator 26.2.1, SVG Export Plug-In . SVG Version: 6.00 Build 0)  -->
<svg version="1.1" xmlns="http://www.w3.org/2000/svg" xmlns:xlink="http://www.w3.org/1999/xlink" x="0px" y="0px"
	 viewBox="0 0 100 100" style="enable-background:new 0 0 100 100;" xml:space="preserve" width = "100px" height = "100px">
<style type="text/css">
	.st0{display:none;}
	.st1{display:inline;}
</style> 

	<rect x="17.2" y="27.6" class="st1" width="12.6" height="0"/>

		<path d="M6.5,52.1c8.3-6.2,11.9-17.4,13.5-28.7l6.6,1.5c-1.8,11.9-5.3,24.3-14.3,31.2L6.5,52.1z"/>


		<path d="M27.4,44.3l-1.3-0.7c3-5.4,3.5-8.9,4.3-17.4l1.5,0.1C31.1,34.3,30.6,38.4,27.4,44.3z"/>

			<path d="M24.4,47.8c0.4-2.2,0.6-5.2,0.2-7.3l2.4,2.9l3.7,0.7C28.6,44.8,26.1,46.4,24.4,47.8z"/>

		<path d="M36.2,28.3L36.2,28.3l-0.7,0.4l-0.1-0.4l0.9-0.5h0.4v3.9h-0.5V28.3z"/>


</svg>