<?xml version="1.0" encoding="utf-8"?>
<!-- Generator: Adobe Illustrator 26.2.1, SVG Export Plug-In . SVG Version: 6.00 Build 0)  -->
<svg version="1.1" xmlns="http://www.w3.org/2000/svg" xmlns:xlink="http://www.w3.org/1999/xlink" x="0px" y="0px"
	 viewBox="0 0 100 100" style="enable-background:new 0 0 100 100;" xml:space="preserve" width = "100px" height = "100px">
<style type="text/css">
	.st0{display:none;}
	.st1{display:inline;}
</style>

	<rect x="17.2" y="27.6" class="st2" width="12.6" height="0"/>

		<path d="M33.6,52.6c-5,15.1-13,29.3-24.9,40.2c-1.1-1.6-3.7-3.9-5.5-4.9c17.5-15.3,26.1-38.2,29.5-60.6h-27v-6.7h27.9
			c0.6-5.8,0.9-11.6,1-17.1l9.2,0.4c-0.2,0.9-0.8,1.6-2.3,1.7c-0.1,4.8-0.4,9.8-1,15h54.4v6.7H39.6c-0.7,4.6-1.5,9.3-2.7,13.9"/>


		<path d="M46.5,13L45,12.8c0.1-0.4,0.1-0.9,0.2-1.3c0.3-2.1,0.5-4.3,0.6-6.5L47.3,5c-0.1,2.2-0.3,4.4-0.6,6.6
			C46.6,12.1,46.6,12.5,46.5,13z"/>

			<path d="M44.9,17.3c-0.4-2.2-1.2-5.1-2.4-6.9l3.3,1.9l3.7-0.6C47.8,13,46,15.4,44.9,17.3z"/>

		<path d="M50.3,10V9.7l0.4-0.4c1-0.9,1.4-1.5,1.5-2c0-0.4-0.2-0.8-0.8-0.8c-0.4,0-0.6,0.2-0.8,0.3l-0.2-0.4C50.6,6.2,51,6,51.5,6
			c0.8,0,1.2,0.6,1.2,1.1c0,0.7-0.5,1.3-1.3,2.1L51,9.5v0h1.8V10H50.3z"/>


</svg>