<?xml version="1.0" encoding="utf-8"?>
<!-- Generator: Adobe Illustrator 26.2.1, SVG Export Plug-In . SVG Version: 6.00 Build 0)  -->
<svg version="1.1" xmlns="http://www.w3.org/2000/svg" xmlns:xlink="http://www.w3.org/1999/xlink" x="0px" y="0px"
	 viewBox="0 0 100 100" style="enable-background:new 0 0 100 100;" xml:space="preserve" width = "100px" height = "100px">
<style type="text/css">
	.st0{display:none;}
	.st1{display:inline;}
</style>

	<rect x="17.2" y="27.6" class="st2" width="12.6" height="0"/>

		<path d="M44.8,40.2H15v54.1H8.4V5.7h36.4V40.2z M38.4,11H15v9.2h23.4V11z M15,34.9h23.4v-9.6H15V34.9z M91.6,5.7v79.2
			c0,8.9-3.9,9.3-21.2,9.3c-0.2-1.9-1.3-5.1-2.3-7c3.2,0.1,6.4,0.2,8.9,0.2c7.3,0,7.9,0,7.9-2.5V40.3H54.3V5.7H91.6z M84.9,11H60.8
			v9.2h24.1V11z M60.8,35h24.1v-9.7H60.8V35z"/>

		<line x1="55.9" y1="44.6" x2="78.4" y2="44.6"/>
			<rect x="55.9" y="43.8" width="18" height="1.5"/>	
		<path d="M78.4,44.6c-2.1,0.8-4.8,2.1-6.4,3.6l1.3-3.6L72,41C73.7,42.4,76.3,43.8,78.4,44.6z"/>

		<path d="M56.1,50c0-0.5,0.3-0.8,0.8-1l0,0c-0.4-0.2-0.6-0.5-0.6-0.9c0-0.6,0.5-1,1.2-1c0.8,0,1.1,0.5,1.1,1c0,0.3-0.2,0.7-0.6,0.9
			v0c0.5,0.2,0.8,0.5,0.8,1c0,0.7-0.6,1.1-1.3,1.1C56.6,51,56.1,50.5,56.1,50z M58.2,49.9c0-0.5-0.3-0.7-0.9-0.9
			c-0.5,0.1-0.7,0.4-0.7,0.8c0,0.4,0.3,0.7,0.8,0.7C57.9,50.6,58.2,50.3,58.2,49.9z M56.8,48c0,0.4,0.3,0.6,0.7,0.7
			c0.3-0.1,0.6-0.4,0.6-0.7c0-0.3-0.2-0.6-0.7-0.6C57,47.4,56.8,47.6,56.8,48z"/>


 </svg>