<?xml version="1.0" encoding="utf-8"?>
<!-- Generator: Adobe Illustrator 26.2.1, SVG Export Plug-In . SVG Version: 6.00 Build 0)  -->
<svg version="1.1" xmlns="http://www.w3.org/2000/svg" xmlns:xlink="http://www.w3.org/1999/xlink" x="0px" y="0px"
	 viewBox="0 0 100 100" style="enable-background:new 0 0 100 100;" xml:space="preserve" width = "100px" height = "100px">
<style type="text/css">
	.st0{display:none;}
	.st1{display:inline;}
</style> 

		<path d="M49.4,9.7C40.8,20.6,24,33.3,6.9,41.5C6,40,4.3,37.5,3,36.1C20.4,28.3,37.7,15,45.9,3.2l9.8,0.5c-0.2,0.7-1,1.2-2,1.4"/>

		<path d="M51.1,15.1l-1.1-1l0.3-0.3c2-2.3,4-4.6,5.9-7l1.2,0.9c-1.9,2.4-3.9,4.7-5.9,7L51.1,15.1z"/>
	
			<path d="M47.5,18c0.8-2.1,1.6-5,1.7-7.1l1.8,3.4l3.5,1.4C52.3,15.9,49.5,16.9,47.5,18z"/>

		<path d="M58.9,6.3L58.9,6.3l-0.7,0.4l-0.1-0.4L59,5.8h0.4v3.9h-0.5V6.3z"/>


</svg>