<?xml version="1.0" encoding="utf-8"?>
<!-- Generator: Adobe Illustrator 26.2.1, SVG Export Plug-In . SVG Version: 6.00 Build 0)  -->
<svg version="1.1" xmlns="http://www.w3.org/2000/svg" xmlns:xlink="http://www.w3.org/1999/xlink" x="0px" y="0px"
	 viewBox="0 0 100 100" style="enable-background:new 0 0 100 100;" xml:space="preserve" width = "100px" height = "100px">
<style type="text/css">
	.st0{display:none;}
	.st1{display:inline;}
</style> 


		<path d="M26,20.1C21.4,29.2,15.6,37.3,9.3,43c-1.3-1.2-3.9-3.1-5.6-4.1C13,31.1,20.9,17.5,25.4,3.1l8.5,2.3
			c-0.2,0.7-1,1.1-2.2,1.1c-0.9,2.6-1.9,5.2-2.9,7.7"/>


		<path d="M33.9,14.6l-1.4-0.5c0.8-2.2,1.6-4.5,2.3-6.8l1.4,0.4C35.5,10,34.7,12.4,33.9,14.6z"/>

			<path d="M31.5,18.6c0-2.3-0.3-5.2-1-7.3l2.9,2.5l3.8,0.1C35.2,14.9,33,16.9,31.5,18.6z"/>


		<path d="M38.6,5.9L38.6,5.9l-0.7,0.4l-0.1-0.4l0.9-0.5h0.4v3.9h-0.5V5.9z"/>


</svg>