<?xml version="1.0" encoding="utf-8"?>
<!-- Generator: Adobe Illustrator 26.2.1, SVG Export Plug-In . SVG Version: 6.00 Build 0)  -->
<svg version="1.1" xmlns="http://www.w3.org/2000/svg" xmlns:xlink="http://www.w3.org/1999/xlink" x="0px" y="0px"
	 viewBox="0 0 100 100" style="enable-background:new 0 0 100 100;" xml:space="preserve" width = "100px" height = "100px">
<style type="text/css">
	.st0{display:none;}
	.st1{display:inline;}
</style> 


	<rect x="17.2" y="27.6" class="st2" width="12.6" height="0"/>

		<path d="M33.8,10v66.2h-22v8.1H5.4V10H33.8z M27.5,16.2H11.8v23.5h15.7V16.2z M11.8,70h15.7V45.8H11.8V70z"/>

		<line x1="13.5" y1="80.6" x2="29.8" y2="80.6"/>
	
		<rect x="13.5" y="79.9" width="11.8" height="1.5"/>

		<path d="M29.8,80.6c-2.1,0.8-4.8,2.1-6.4,3.6l1.3-3.6l-1.3-3.6C25,78.5,27.6,79.8,29.8,80.6z"/>
	
		<path d="M15.9,87.6v-1.1h-1.8v-0.3l1.7-2.5h0.6v2.4H17v0.4h-0.5v1.1H15.9z M15.9,86.1v-1.3c0-0.2,0-0.4,0-0.6h0
			c-0.1,0.2-0.2,0.4-0.3,0.6l-1,1.3v0H15.9z"/>


</svg>