<?xml version="1.0" encoding="utf-8"?>
<!-- Generator: Adobe Illustrator 26.2.1, SVG Export Plug-In . SVG Version: 6.00 Build 0)  -->
<svg version="1.1" xmlns="http://www.w3.org/2000/svg" xmlns:xlink="http://www.w3.org/1999/xlink" x="0px" y="0px"
	 viewBox="0 0 100 100" style="enable-background:new 0 0 100 100;" xml:space="preserve" width = "100px" height = "100px">
<style type="text/css">
	.st0{display:none;}
	.st1{display:inline;}
</style> 


		<path d="M75.1,4.4c-0.1,0.7-0.7,1.2-2,1.4v44.4c7.3,6.7,15.5,12.4,23.5,16c-1.6,1.3-3.7,3.9-4.8,5.7c-6.3-3.2-12.7-7.7-18.7-13
			v37.5h-6.9V52.4C60,45.9,54.4,38.8,50.1,31.4c-6.2,32.1-20,53.4-37.9,64.8c-1.1-1.5-3.7-3.9-5.4-4.9C17.4,85,26.5,75.3,33.2,62.1
			c-4.2-4.1-11.1-9.2-17-12.6l3.7-4.7c5.5,3,11.9,7.3,16.3,11.1c3.6-8.7,6.4-18.7,8.2-30H23.5c-4,11.1-9.2,21-15.4,28
			c-1-1.3-3.3-3.4-4.7-4.5c9-10,15.7-27.5,19.5-45.8l8.3,2c-0.2,0.7-0.9,1.1-2.1,1.1c-1,4.3-2.1,8.6-3.4,12.8H47l1.3-0.3l4.3,1.8
			c-0.2,0.4-0.6,0.9-1,1.2l-0.9,5.7l3.3-1.3c3.2,5.7,7.4,11.4,12.2,16.7V3.8L75.1,4.4z"/>

		<path d="M60,29.7c-0.5-0.8-1.1-1.6-1.5-2.4c-0.9-1.6-1.7-3.2-2.4-4.9l1.4-0.6c0.7,1.6,1.5,3.2,2.3,4.7c0.5,0.8,1,1.6,1.5,2.3
			L60,29.7z"/>

			<path d="M63.4,32.9c-1.9-1.2-4.6-2.5-6.7-3l3.6-1.1l2.1-3.2C62.3,27.8,62.8,30.7,63.4,32.9z"/>

		<path d="M56.1,16.8h-1.5l-0.2,1c0.1,0,0.2,0,0.3,0c0.3,0,0.6,0.1,0.8,0.2c0.3,0.2,0.6,0.5,0.6,1c0,0.8-0.6,1.3-1.5,1.3
			c-0.4,0-0.8-0.1-1-0.2l0.1-0.4c0.2,0.1,0.5,0.2,0.8,0.2c0.5,0,0.9-0.3,0.9-0.8c0-0.5-0.3-0.9-1.1-0.9c-0.2,0-0.4,0-0.5,0l0.3-1.9
			h1.9V16.8z"/>


</svg>