<?xml version="1.0" encoding="utf-8"?>
<!-- Generator: Adobe Illustrator 26.2.1, SVG Export Plug-In . SVG Version: 6.00 Build 0)  -->
<svg version="1.1" xmlns="http://www.w3.org/2000/svg" xmlns:xlink="http://www.w3.org/1999/xlink" x="0px" y="0px"
	 viewBox="0 0 100 100" style="enable-background:new 0 0 100 100;" xml:space="preserve" width = "100px" height = "100px">
<style type="text/css">
	.st0{display:none;}
	.st1{display:inline;}
</style> 


		<path d="M3,24.5v-5.7h36.7v5.7H3z M36.5,60.4v29.4h-23v4.7H7.6V60.4H36.5z M36.2,32.8v5.5H7.7v-5.5H36.2z M7.7,52.1v-5.5h28.5v5.5
			H7.7z M35.9,5.3v5.5H8.3V5.3H35.9z M30.5,66.1h-17v18h17V66.1z M53.7,43.9c0.9-4.4,1.9-9.6,2.9-15.1h-11v-6h12
			c0.6-3.8,1.2-7.7,1.8-11.2H43.6v-6h49.7v6H65.9l-1.7,11.2H87v21.1 M47.9,94.7V58.3H90v35.8h-6.5v-4H54.3v4.6H47.9z M83.5,64.4
			H54.3v19.5h29.2V64.4z M80.5,28.8H63.2c-0.9,5.4-1.9,10.7-2.8,15.1h20.1V28.8z"/>


		<line x1="46.2" y1="32.8" x2="53.8" y2="32.8"/>
		
			<rect x="46.2" y="32" width="3.1" height="1.5"/>

				<path d="M53.8,32.8c-2.1,0.8-4.8,2.1-6.4,3.6l1.3-3.6l-1.3-3.6C49,30.7,51.7,32,53.8,32.8z"/>

		<path d="M46.7,37.1L46.7,37.1L46,37.5l-0.1-0.4l0.9-0.5h0.4v3.9h-0.5V37.1z"/>
		<path d="M51.2,38.5c0,1.3-0.5,2.1-1.4,2.1c-0.8,0-1.3-0.7-1.3-2c0-1.3,0.6-2,1.4-2C50.8,36.6,51.2,37.3,51.2,38.5z M49.1,38.6
			c0,1,0.3,1.6,0.8,1.6c0.5,0,0.8-0.6,0.8-1.6c0-1-0.2-1.6-0.8-1.6C49.4,37,49.1,37.5,49.1,38.6z"/>

</svg>