<?xml version="1.0" encoding="utf-8"?>
<!-- Generator: Adobe Illustrator 26.2.1, SVG Export Plug-In . SVG Version: 6.00 Build 0)  -->
<svg version="1.1" xmlns="http://www.w3.org/2000/svg" xmlns:xlink="http://www.w3.org/1999/xlink" x="0px" y="0px"
	 viewBox="0 0 100 100" style="enable-background:new 0 0 100 100;" xml:space="preserve" width = "100px" height = "100px">
<style type="text/css">
	.st0{display:none;}
	.st1{display:inline;}
</style> 


		<path d="M18.1,6.2l8.7,0.6c-0.1,0.7-0.7,1.2-2,1.3v32.5c0,19.3-1.6,38.6-14.6,53.6c-1.3-1.5-3.9-3.6-5.5-4.6
			c12-13.9,13.4-31.4,13.4-49V6.2z M50.9,10.3l8.7,0.5c-0.1,0.8-0.7,1.2-2,1.4v72.5h-6.7V10.3z M86.4,5.8l8.9,0.6
			c-0.1,0.7-0.7,1.1-2,1.3v85.7h-6.9V5.8z"/>

		<line x1="82.3" y1="9.1" x2="82.3" y2="23.6"/>
	
		<rect x="81.6" y="9.1" width="1.5" height="9.9"/>
	
		<path d="M82.3,23.6c-0.8-2.1-2.1-4.8-3.6-6.4l3.6,1.3l3.6-1.3C84.5,18.8,83.1,21.4,82.3,23.6z"/>

		<path d="M77.2,10.1c0.2,0.1,0.5,0.2,0.9,0.2c0.7,0,0.9-0.4,0.9-0.8c0-0.5-0.5-0.8-1-0.8h-0.3V8.4h0.3c0.4,0,0.9-0.2,0.9-0.7
			c0-0.3-0.2-0.6-0.7-0.6c-0.3,0-0.6,0.1-0.8,0.3l-0.1-0.4c0.2-0.1,0.6-0.3,1-0.3c0.8,0,1.1,0.5,1.1,0.9c0,0.4-0.2,0.7-0.7,0.9v0
			c0.5,0.1,0.9,0.5,0.9,1c0,0.6-0.5,1.2-1.4,1.2c-0.4,0-0.8-0.1-1-0.3L77.2,10.1z"/>



</svg>