<?xml version="1.0" encoding="utf-8"?>
<!-- Generator: Adobe Illustrator 26.2.1, SVG Export Plug-In . SVG Version: 6.00 Build 0)  -->
<svg version="1.1" xmlns="http://www.w3.org/2000/svg" xmlns:xlink="http://www.w3.org/1999/xlink" x="0px" y="0px"
	 viewBox="0 0 100 100" style="enable-background:new 0 0 100 100;" xml:space="preserve" width = "100px" height = "100px">
<style type="text/css">
	.st0{display:none;}
	.st1{display:inline;}
</style> 

	<path d="M22.6,27.8l0,4.9v12.6v5.5v12.8v5.8h-6.5V33.9c-2.3,1.9-4.8,3.9-7.4,5.7c-1.1-1.6-3.4-3.8-5-5c13.9-9,24-21.5,29.4-31.4
			l8.8,1.5c-0.2,0.9-0.8,1.4-2.2,1.4l-2.6,4.1h24.1l1.1-0.3l5.3,3.3c-0.2,0.4-0.8,0.8-1.3,0.9c-2.1,3.8-5.4,8.7-8.8,12.8h-6.8
			l6.5-11H33c-2.7,3.6-5.9,7.3-9.4,11"/>


	<rect x="26.1" y="28.3" width="1.5" height="9.9"/>

	<path d="M26.8,42.7c-0.8-2.1-2.1-4.8-3.6-6.4l3.6,1.3l3.6-1.3C29,37.9,27.6,40.5,26.8,42.7z"/>

	<text transform="matrix(1 0 0 1 29.0802 31.6197)" class="st1 st2 st3">3</text>


</svg>