<?xml version="1.0" encoding="utf-8"?>
<!-- Generator: Adobe Illustrator 26.2.1, SVG Export Plug-In . SVG Version: 6.00 Build 0)  -->
<svg version="1.1" xmlns="http://www.w3.org/2000/svg" xmlns:xlink="http://www.w3.org/1999/xlink" x="0px" y="0px"
	 viewBox="0 0 100 100" style="enable-background:new 0 0 100 100;" xml:space="preserve" width = "100px" height = "100px">
<style type="text/css">
	.st0{display:none;}
	.st1{display:inline;}
</style> 

		<path d="M28.1,57.1c-5.4,7.3-11.8,14-19.4,19.4c-1-1.6-3.2-4.1-4.6-5.4C18.8,61,28.7,45.8,35.3,29.3H7.4v-6.6h30.3
			c2.2-6.4,3.9-12.9,5.3-19.3l9,2c-0.3,0.8-1,1.2-2.3,1.2c-1.3,5.3-2.8,10.7-4.5,16.1h50.6v6.6h-53c-2.7,7-5.9,13.9-9.8,20.3"/>

		<path d="M52.3,16.1L51,15.5c1.5-3.1,2.9-6.3,4.1-9.5l1.4,0.5C55.2,9.8,53.9,13,52.3,16.1z"/>
		
			<path d="M49.6,19.8c0.3-2.3,0.2-5.2-0.3-7.3l2.6,2.8l3.8,0.5C53.6,16.5,51.2,18.3,49.6,19.8z"/>


		<path d="M57.7,11.5v-0.3l0.4-0.4c1-0.9,1.4-1.5,1.5-2c0-0.4-0.2-0.8-0.8-0.8c-0.4,0-0.6,0.2-0.8,0.3l-0.2-0.4
			c0.3-0.2,0.7-0.4,1.1-0.4c0.8,0,1.2,0.6,1.2,1.1c0,0.7-0.5,1.3-1.3,2.1l-0.3,0.3v0h1.8v0.4H57.7z"/>


</svg>