<?xml version="1.0" encoding="utf-8"?>
<!-- Generator: Adobe Illustrator 26.2.1, SVG Export Plug-In . SVG Version: 6.00 Build 0)  -->
<svg version="1.1" xmlns="http://www.w3.org/2000/svg" xmlns:xlink="http://www.w3.org/1999/xlink" x="0px" y="0px"
	 viewBox="0 0 100 100" style="enable-background:new 0 0 100 100;" xml:space="preserve" width = "100px" height = "100px">
<style type="text/css">
	.st0{display:none;}
	.st1{display:inline;}
</style>

		<path d="M95.4,13.4h-32v15.7h27v63.4h-6.8v-5.9H16.7v6.4h-6.5V29.1h24V13.4H4.6V6.9h90.8V13.4z M83.6,80.4V35.4H63.1V55
			c0,2.2,0.4,2.6,3,2.6h8.6c2.3,0,2.7-1,3-8.2c1.3,1,3.9,1.9,5.8,2.4c-0.8,9.5-2.5,11.8-8,11.8H65.3c-7.1,0-8.7-1.8-8.7-8.5V35.4
			H40.8v4.4c0,9.6-3.2,21.9-16.6,30.3c-0.9-1.2-3.4-3.6-4.9-4.4c12.6-7.6,15.1-17.9,15.1-26.1v-4.2H16.7v44.9H83.6z M56.6,29.1V13.4
			H40.8v15.7H56.6z"/>

		<line x1="19.2" y1="91.1" x2="35.3" y2="91.1"/>

			<rect x="19.2" y="90.3" width="11.5" height="1.5"/>
	
				<path d="M35.3,91.1c-2.1,0.8-4.8,2.1-6.4,3.6l1.3-3.6l-1.3-3.6C30.5,88.9,33.2,90.3,35.3,91.1z"/>

		<path d="M20.4,93.9c-0.1,0-0.2,0-0.4,0c-0.8,0.1-1.3,0.7-1.4,1.4h0c0.2-0.2,0.5-0.4,0.9-0.4c0.7,0,1.2,0.5,1.2,1.3
			c0,0.7-0.5,1.4-1.3,1.4c-0.8,0-1.4-0.6-1.4-1.7c0-0.8,0.3-1.4,0.7-1.8c0.3-0.3,0.8-0.5,1.2-0.6c0.2,0,0.3,0,0.4,0V93.9z
			 M20.2,96.2c0-0.6-0.3-0.9-0.8-0.9c-0.3,0-0.6,0.2-0.8,0.5c0,0.1-0.1,0.1-0.1,0.2c0,0.6,0.3,1.1,0.9,1.1
			C19.9,97.1,20.2,96.7,20.2,96.2z"/>

 </svg>