<?xml version="1.0" encoding="utf-8"?>
<!-- Generator: Adobe Illustrator 26.2.1, SVG Export Plug-In . SVG Version: 6.00 Build 0)  -->
<svg version="1.1" xmlns="http://www.w3.org/2000/svg" xmlns:xlink="http://www.w3.org/1999/xlink" x="0px" y="0px"
	 viewBox="0 0 100 100" style="enable-background:new 0 0 100 100;" xml:space="preserve" width = "100px" height = "100px">
<style type="text/css">
	.st0{display:none;}
	.st1{display:inline;}
</style> 

	<rect x="17.2" y="27.6" class="st2" width="12.6" height="0"/>

		<path d="M44.8,40.2H15v54.1H8.4V5.7h36.4V40.2z M38.4,11H15v9.2h23.4V11z M15,34.9h23.4v-9.6H15V34.9z"/>

		<line x1="17.2" y1="44.6" x2="40.2" y2="44.6"/>

			<rect x="17.2" y="43.8" width="18.5" height="1.5"/>

				<path d="M40.2,44.6c-2.1,0.8-4.8,2.1-6.4,3.6l1.3-3.6L33.8,41C35.5,42.4,38.1,43.8,40.2,44.6z"/>

		<path d="M19.1,51.3v-1.1h-1.8v-0.3l1.7-2.5h0.6v2.4h0.5v0.4h-0.5v1.1H19.1z M19.1,49.8v-1.3c0-0.2,0-0.4,0-0.6h0
			c-0.1,0.2-0.2,0.4-0.3,0.6l-1,1.3v0H19.1z"/>

</svg>