<?xml version="1.0" encoding="utf-8"?>
<!-- Generator: Adobe Illustrator 26.2.1, SVG Export Plug-In . SVG Version: 6.00 Build 0)  -->
<svg version="1.1" xmlns="http://www.w3.org/2000/svg" xmlns:xlink="http://www.w3.org/1999/xlink" x="0px" y="0px"
	 viewBox="0 0 100 100" style="enable-background:new 0 0 100 100;" xml:space="preserve" width = "100px" height = "100px">
<style type="text/css">
	.st0{display:none;}
	.st1{display:inline;}
</style> 

	<rect x="17.2" y="27.6" class="st2" width="12.6" height="0"/>

		<path d="M27.5,76V16.2H11.8v68.1H5.4V10h28.4v66.2 M27.5,70"/>
	
		<path d="M24.2,28.6h-1.5v-9c-2,0-7.5-0.1-9.4,0l-0.1-1.5c2.3-0.1,9.9,0,10.2,0l0.7,0V28.6z"/>
	
			<path d="M23.5,32.3c-0.6-1.7-1.7-3.8-2.9-5.1l2.9,1l2.9-1C25.2,28.4,24.1,30.6,23.5,32.3z"/>

		<path d="M14.4,25.6v-0.3l0.4-0.4c1-0.9,1.4-1.5,1.5-2c0-0.4-0.2-0.8-0.8-0.8c-0.4,0-0.6,0.2-0.8,0.3L14.5,22
			c0.3-0.2,0.7-0.4,1.1-0.4c0.8,0,1.2,0.6,1.2,1.1c0,0.7-0.5,1.3-1.3,2.1l-0.3,0.3v0h1.8v0.4H14.4z"/>

</svg>