<?xml version="1.0" encoding="utf-8"?>
<!-- Generator: Adobe Illustrator 26.2.1, SVG Export Plug-In . SVG Version: 6.00 Build 0)  -->
<svg version="1.1" xmlns="http://www.w3.org/2000/svg" xmlns:xlink="http://www.w3.org/1999/xlink" x="0px" y="0px"
	 viewBox="0 0 100 100" style="enable-background:new 0 0 100 100;" xml:space="preserve" width = "100px" height = "100px">
<style type="text/css">
	.st0{display:none;}
	.st1{display:inline;}
</style>

		<path d="M52.8,55.1h42.4v5.1H4.7v-5.1h41.4v-6.5H11.7v-4.7h34.4v-6.1H14.8v-4.6h31.3v-6.5H5v-5.1h41.1v-6.3H15.9v-4.7h30.2V3.3
			l8.7,0.6c-0.1,0.7-0.6,1.1-2,1.3v5.4h28.9v11h13v5.1h-13v11.1H52.8v6.1h35.2v4.7H52.8V55.1z M76.1,70.2H24.4v6.6h51.6V70.2z
			 M76.1,81.4H24.4v15.3h-6.5V65.3h64.8v31.2h-6.7 M52.8,15.3v6.3h22.2v-6.3H52.8z M52.8,26.7v6.5h22.2v-6.5H52.8z"/>

		<path d="M25.2,85.7c4,0,16.8,0,16.3,0"/>
		
			<rect x="25.2" y="85" width="11.7" height="1.5"/>
		
				<path d="M41.5,85.7c-2.1,0.8-4.8,2.1-6.4,3.6l1.3-3.6l-1.3-3.6C36.7,83.6,39.4,85,41.5,85.7z"/>

		<path d="M25.8,92.5c0.1,0,0.2,0,0.4,0c0.3,0,0.6-0.2,0.8-0.4c0.3-0.2,0.4-0.6,0.5-1h0c-0.2,0.3-0.5,0.4-0.9,0.4
			c-0.7,0-1.2-0.5-1.2-1.2c0-0.7,0.5-1.4,1.3-1.4s1.3,0.6,1.3,1.6c0,0.9-0.3,1.5-0.7,1.8c-0.3,0.3-0.7,0.5-1.1,0.5
			c-0.2,0-0.4,0-0.5,0V92.5z M26,90.2c0,0.5,0.3,0.8,0.7,0.8c0.4,0,0.6-0.2,0.8-0.4c0,0,0-0.1,0-0.2c0-0.7-0.2-1.2-0.8-1.2
			C26.3,89.3,26,89.7,26,90.2z"/>



 </svg>