<?xml version="1.0" encoding="utf-8"?>
<!-- Generator: Adobe Illustrator 26.2.1, SVG Export Plug-In . SVG Version: 6.00 Build 0)  -->
<svg version="1.1" xmlns="http://www.w3.org/2000/svg" xmlns:xlink="http://www.w3.org/1999/xlink" x="0px" y="0px"
	 viewBox="0 0 100 100" style="enable-background:new 0 0 100 100;" xml:space="preserve" width = "100px" height = "100px">
<style type="text/css">
	.st0{display:none;}
	.st1{display:inline;}
</style> 

		<path d="M55.7,3.7c-0.2,0.7-1,1.2-2,1.4c9.9,11.6,28,23.7,43.3,29.8c-1.5,1.6-3.1,4-4.2,5.9c-15.5-7-33.5-19.5-43.4-31.1
			C40.8,20.6,24,33.3,6.9,41.5C6,40,4.3,37.5,3,36.1C20.4,28.3,37.7,15,45.9,3.2L55.7,3.7z"/>

		<path d="M54.1,21c-1.9-1.5-3.6-3.2-5.2-5.1l1.1-1c1.5,1.8,3.2,3.4,5.1,4.9L54.1,21z"/>

			<path d="M58.2,23.1c-2.2-0.6-5.1-1.1-7.3-0.9l3.2-2.1l1.1-3.6C55.7,18.6,57,21.2,58.2,23.1z"/>
	
		<path d="M45.2,20.4V20l0.4-0.4c1-0.9,1.4-1.5,1.5-2c0-0.4-0.2-0.8-0.8-0.8c-0.4,0-0.6,0.2-0.8,0.3l-0.2-0.4
			c0.3-0.2,0.7-0.4,1.1-0.4c0.8,0,1.2,0.6,1.2,1.1c0,0.7-0.5,1.3-1.3,2.1L46,19.9v0h1.8v0.4H45.2z"/>

</svg>