<?xml version="1.0" encoding="utf-8"?>
<!-- Generator: Adobe Illustrator 26.2.1, SVG Export Plug-In . SVG Version: 6.00 Build 0)  -->
<svg version="1.1" xmlns="http://www.w3.org/2000/svg" xmlns:xlink="http://www.w3.org/1999/xlink" x="0px" y="0px"
	 viewBox="0 0 100 100" style="enable-background:new 0 0 100 100;" xml:space="preserve" width = "100px" height = "100px">
<style type="text/css">
	.st0{display:none;}
	.st1{display:inline;}
</style>

	<path class="st2" d="M56.9,88.2"/>

		<path d="M27.8,82c2.4-9.5,5-21.7,7.5-34.1l1.3-6.6c1.5-8,2.9-16,4.1-23.2h-30v-6.7h79V18H48.1c-1.2,7.3-2.7,15.2-4.3,23.2
			l-1.2,6.6c-2.5,12.6-5.1,24.7-7.2,34.1H27.8z"/>


		<line x1="54.3" y1="21.5" x2="43.1" y2="78.5"/>

		<rect x="22.4" y="47" transform="matrix(0.1927 -0.9813 0.9813 0.1927 -7.2381 86.7595)" width="53.5" height="1.5"/>
	
		<path d="M43.1,78.5c-0.4-2.2-1.2-5.1-2.3-7l3.3,2l3.7-0.6C46.1,74.2,44.3,76.5,43.1,78.5z"/>


		<path d="M57,24.8c0.4-0.4,0.8-0.7,1.5-0.7c0.9,0,1.3,0.6,1.3,1.2c0,0.9-0.7,1.6-1.8,2.5l-0.4,0.4v0h2.3v0.4h-3.1v-0.3l0.5-0.4
			c1.3-1.1,1.9-1.7,1.9-2.5c0-0.5-0.3-0.9-0.9-0.9c-0.4,0-0.8,0.2-1.1,0.6L57,24.8z"/>



 </svg>