<?xml version="1.0" encoding="utf-8"?>
<!-- Generator: Adobe Illustrator 26.2.1, SVG Export Plug-In . SVG Version: 6.00 Build 0)  -->
<svg version="1.1" xmlns="http://www.w3.org/2000/svg" xmlns:xlink="http://www.w3.org/1999/xlink" x="0px" y="0px"
	 viewBox="0 0 100 100" style="enable-background:new 0 0 100 100;" xml:space="preserve" width = "100px" height = "100px">
<style type="text/css">
	.st0{display:none;}
	.st1{display:inline;}
</style> 

	<rect x="17.2" y="27.6" class="st2" width="12.6" height="0"/>

		<path d="M36.5,29.8l4.8,2.2c-0.2,0.4-0.6,0.9-1.1,1.2C35,58.4,22.7,77,7.8,87.1c-1.2-1.7-3.8-4.3-5.4-5.4
			c13.5-8.4,24.7-23.9,29.8-44.8H5.1v-6.8h30.2L36.5,29.8z M62.3,45.7c8.4-7.1,18.6-17.6,24.8-25.7l7.1,5.3
			c-0.5,0.6-1.4,0.7-2.2,0.6c-6.9,7.6-18.1,18.3-26.8,25.3 M53.5,40.2v46.3c0,9.1-4.2,9.9-23,9.9c-0.4-2-1.7-5.4-2.8-7.3
			c3.8,0.1,7.3,0.1,10.1,0.1c8.4,0,8.7,0,8.7-2.7V3.6l9,0.5c-0.1,0.8-0.6,1.3-2,1.4"/>

		<path d="M72.2,51.5l-0.8-1.3c8.1-5.1,15.2-12.1,21-20.8l1.2,0.8C87.8,39.1,80.5,46.3,72.2,51.5z"/>

			<path d="M67.9,53.1c1.4-1.8,3-4.3,3.7-6.3l0.7,3.7l2.9,2.4C73.1,52.5,70.2,52.7,67.9,53.1z"/>

		<path d="M93.1,37.2c0.2,0.1,0.5,0.2,0.9,0.2c0.7,0,0.9-0.4,0.9-0.8c0-0.5-0.5-0.8-1-0.8h-0.3v-0.4h0.3c0.4,0,0.9-0.2,0.9-0.7
			c0-0.3-0.2-0.6-0.7-0.6c-0.3,0-0.6,0.1-0.8,0.3l-0.1-0.4c0.2-0.1,0.6-0.3,1-0.3c0.8,0,1.1,0.5,1.1,0.9c0,0.4-0.2,0.7-0.7,0.9v0
			c0.5,0.1,0.9,0.5,0.9,1c0,0.6-0.5,1.2-1.4,1.2c-0.4,0-0.8-0.1-1-0.3L93.1,37.2z"/>

</svg>