<?xml version="1.0" encoding="utf-8"?>
<!-- Generator: Adobe Illustrator 26.2.1, SVG Export Plug-In . SVG Version: 6.00 Build 0)  -->
<svg version="1.1" xmlns="http://www.w3.org/2000/svg" xmlns:xlink="http://www.w3.org/1999/xlink" x="0px" y="0px"
	 viewBox="0 0 100 100" style="enable-background:new 0 0 100 100;" xml:space="preserve" width = "100px" height = "100px">
<style type="text/css">
	.st0{display:none;}
	.st1{display:inline;}
</style> 

	<rect x="17.2" y="27.6" class="st2" width="12.6" height="0"/>

		<path d="M20.5,6.4c5,7.2,10.3,16.8,12.4,22.9l-6.4,2.9c-2-6.1-7.1-16-12-23.3L20.5,6.4z"/>

		<path d="M32.2,18.5c-0.7-1.2-1.5-2.5-2.3-3.6c-1.7-2.4-3.6-4.6-5.8-6.6l1-1.1c2.2,2.1,4.2,4.3,6,6.8c0.9,1.2,1.7,2.5,2.4,3.8
			L32.2,18.5z"/>

			<path d="M34.9,22.2c-1.7-1.5-4.1-3.3-6.1-4.1l3.8-0.5l2.6-2.8C34.6,17,34.6,19.9,34.9,22.2z"/>

		<path d="M32.6,7.4L32.6,7.4l-0.7,0.4l-0.1-0.4l0.9-0.5h0.4v3.9h-0.5V7.4z"/>

</svg>