<?xml version="1.0" encoding="utf-8"?>
<!-- Generator: Adobe Illustrator 26.2.1, SVG Export Plug-In . SVG Version: 6.00 Build 0)  -->
<svg version="1.1" xmlns="http://www.w3.org/2000/svg" xmlns:xlink="http://www.w3.org/1999/xlink" x="0px" y="0px"
	 viewBox="0 0 100 100" style="enable-background:new 0 0 100 100;" xml:space="preserve" width = "100px" height = "100px">
<style type="text/css">
	.st0{display:none;}
	.st1{display:inline;}
</style>

	<rect x="17.2" y="27.6" class="st2" width="12.6" height="0"/>
	
		<path d="M42.9,20.3v5.6h-40v-5.6H42.9z M38.8,61.2v29.4H13.6v4.7h-6V61.2H38.8z M7.7,39.4v-5.5h31.4v5.5H7.7z M7.7,53v-5.5h31.4
			V53H7.7z M39.1,7v5.5H8.2V7H39.1z M32.7,66.9H13.6v18h19.1V66.9z M67.1,44.8H42.9v-6.6h24.2h6.8h23.2v6.6H73.9"/>

		<line x1="43.5" y1="49.1" x2="66.6" y2="49.1"/>

			<rect x="43.5" y="48.3" width="18.6" height="1.5"/>
		
				<path d="M66.6,49.1c-2.1,0.8-4.8,2.1-6.4,3.6l1.3-3.6l-1.3-3.6C61.8,46.9,64.5,48.3,66.6,49.1z"/>


		<path d="M43.7,55.1c0-0.5,0.3-0.8,0.8-1l0,0c-0.4-0.2-0.6-0.5-0.6-0.9c0-0.6,0.5-1,1.2-1c0.8,0,1.1,0.5,1.1,1
			c0,0.3-0.2,0.7-0.6,0.9v0c0.5,0.2,0.8,0.5,0.8,1c0,0.7-0.6,1.1-1.3,1.1C44.2,56.1,43.7,55.6,43.7,55.1z M45.8,55
			c0-0.5-0.3-0.7-0.9-0.9c-0.5,0.1-0.7,0.4-0.7,0.8c0,0.4,0.3,0.7,0.8,0.7C45.5,55.7,45.8,55.4,45.8,55z M44.4,53.1
			c0,0.4,0.3,0.6,0.7,0.7c0.3-0.1,0.6-0.4,0.6-0.7c0-0.3-0.2-0.6-0.7-0.6C44.6,52.5,44.4,52.7,44.4,53.1z"/>


 </svg>