<?xml version="1.0" encoding="utf-8"?>
<!-- Generator: Adobe Illustrator 26.2.1, SVG Export Plug-In . SVG Version: 6.00 Build 0)  -->
<svg version="1.1" xmlns="http://www.w3.org/2000/svg" xmlns:xlink="http://www.w3.org/1999/xlink" x="0px" y="0px"
	 viewBox="0 0 100 100" style="enable-background:new 0 0 100 100;" xml:space="preserve" width = "100px" height = "100px">
<style type="text/css">
	.st0{display:none;}
	.st1{display:inline;}
</style> 

		<path d="M32,65.1V35.7H5.5v-6.6H32V4.9l8.9,0.6c-0.1,0.7-0.7,1.2-2,1.4v88.1H32V71.8"/>


		<line x1="43" y1="7.2" x2="43" y2="22.7"/>

			<rect x="42.3" y="7.2" width="1.5" height="11"/>

				<path d="M43,22.7c-0.8-2.1-2.1-4.8-3.6-6.4l3.6,1.3l3.6-1.3C45.2,17.9,43.8,20.6,43,22.7z"/>


		<path d="M46.2,11.6v-0.3l0.4-0.4c1-0.9,1.4-1.5,1.5-2c0-0.4-0.2-0.8-0.8-0.8c-0.4,0-0.6,0.2-0.8,0.3L46.3,8
			c0.3-0.2,0.7-0.4,1.1-0.4c0.8,0,1.2,0.6,1.2,1.1c0,0.7-0.5,1.3-1.3,2.1l-0.3,0.3v0h1.8v0.4H46.2z"/>
	
</svg>