<?xml version="1.0" encoding="utf-8"?>
<!-- Generator: Adobe Illustrator 26.2.1, SVG Export Plug-In . SVG Version: 6.00 Build 0)  -->
<svg version="1.1" xmlns="http://www.w3.org/2000/svg" xmlns:xlink="http://www.w3.org/1999/xlink" x="0px" y="0px"
	 viewBox="0 0 100 100" style="enable-background:new 0 0 100 100;" xml:space="preserve" width = "100px" height = "100px">
<style type="text/css">
	.st0{display:none;}
	.st1{display:inline;}
</style> 

	<rect x="17.2" y="27.6" class="st1" width="12.6" height="0"/>

		<path d="M58.4,73.8 M21,46v-6.4h2.5h65.3V46H58.4H21z M51.6,23.2H25.8c-4.8,7.9-10.3,15-16,20.2C8.6,42.2,6,40,4.4,39
			c9.3-8,18.1-21.8,23.3-35.7L36.2,6c-0.4,0.9-1.3,1.1-2.3,0.9c-1.3,3.3-2.8,6.5-4.5,9.7H91v6.6H58.4 M21,39.6"/>

		<path d="M24.9,51.3c2,0.1,31,0,31,0"/>

			<path d="M33.9,52c-4.7,0-8.4,0-9.1,0l0.1-1.5c1.4,0.1,17.2,0,26.5,0l0,1.5C46.3,52,39.4,52,33.9,52z"/>
		
				<path d="M55.9,51.3c-2.1,0.8-4.8,2.1-6.4,3.6l1.3-3.6l-1.3-3.6C51.1,49.1,53.8,50.5,55.9,51.3z"/>

		<path d="M25.3,57.7c0.1,0.1,0.5,0.2,0.9,0.2c0.7,0,0.9-0.4,0.9-0.8c0-0.5-0.5-0.8-1-0.8h-0.3V56H26c0.4,0,0.9-0.2,0.9-0.7
			c0-0.3-0.2-0.6-0.7-0.6c-0.3,0-0.6,0.1-0.8,0.3l-0.1-0.4c0.2-0.1,0.6-0.3,1-0.3c0.8,0,1.1,0.5,1.1,0.9c0,0.4-0.2,0.7-0.7,0.9v0
			c0.5,0.1,0.9,0.5,0.9,1c0,0.6-0.5,1.2-1.4,1.2c-0.4,0-0.8-0.1-1-0.3L25.3,57.7z"/>

</svg>