<?xml version="1.0" encoding="utf-8"?>
<!-- Generator: Adobe Illustrator 26.2.1, SVG Export Plug-In . SVG Version: 6.00 Build 0)  -->
<svg version="1.1" xmlns="http://www.w3.org/2000/svg" xmlns:xlink="http://www.w3.org/1999/xlink" x="0px" y="0px"
	 viewBox="0 0 100 100" style="enable-background:new 0 0 100 100;" xml:space="preserve" width = "100px" height = "100px">
<style type="text/css">
	.st0{display:none;}
	.st1{display:inline;}
</style> 


	<rect x="17.2" y="27.6" class="st2" width="12.6" height="0"/>

		<path d="M41,7.4c-0.4,0.7-1.1,1-2.4,0.9C31.6,24.1,20,38.9,7.3,47.9c-1.2-1.3-3.6-3.6-5.3-4.8c12.4-8.4,23.9-22.9,30.4-38.6
			L41,7.4z M39.5,47.4H18v-6.6h58l1.6-0.1l3.8,0.4c0,0.7-0.1,1.6-0.1,2.4c-1.6,32.3-3.1,43.9-6.6,47.7c-2.8,3.2-5.8,3.5-11.9,3.5
			c-3.4,0-7.7-0.1-12-0.4c-0.1-2-1-4.8-2.2-6.7c6.8,0.6,13.3,0.7,15.7,0.7c2.1,0,3.3-0.2,4.3-1.3c2.6-2.6,4.2-13,5.5-39.6H46.6
			 M67.2,4.3C73.8,18.1,86.9,33.6,98,41.2c-1.8,1.4-4.3,4.1-5.6,6C81.2,38.3,68.3,21.9,60.8,6.9L67.2,4.3z"/>

		<path d="M69.1,58.4h-1.5v-4.8c0-1.6-1.3-2.9-2.9-2.9c-10,0-37.2,0-41.2,0l0-1.5c4,0,31.2,0,41.2,0c2.4,0,4.4,2,4.4,4.4V58.4z"/>
	
			<path d="M68.3,62.9c-0.8-2.1-2.1-4.8-3.6-6.4l3.6,1.3l3.6-1.3C70.5,58.2,69.1,60.8,68.3,62.9z"/>

		<path d="M23.9,55.9c0.1,0.1,0.5,0.2,0.9,0.2c0.7,0,0.9-0.4,0.9-0.8c0-0.5-0.5-0.8-1-0.8h-0.3v-0.4h0.3c0.4,0,0.9-0.2,0.9-0.7
			c0-0.3-0.2-0.6-0.7-0.6c-0.3,0-0.6,0.1-0.8,0.3l-0.1-0.4c0.2-0.1,0.6-0.3,1-0.3c0.8,0,1.1,0.5,1.1,0.9c0,0.4-0.2,0.7-0.7,0.9v0
			c0.5,0.1,0.9,0.5,0.9,1c0,0.6-0.5,1.2-1.4,1.2c-0.4,0-0.8-0.1-1-0.3L23.9,55.9z"/>


</svg>