<?xml version="1.0" encoding="utf-8"?>
<!-- Generator: Adobe Illustrator 26.2.1, SVG Export Plug-In . SVG Version: 6.00 Build 0)  -->
<svg version="1.1" xmlns="http://www.w3.org/2000/svg" xmlns:xlink="http://www.w3.org/1999/xlink" x="0px" y="0px"
	 viewBox="0 0 100 100" style="enable-background:new 0 0 100 100;" xml:space="preserve" width = "100px" height = "100px">
<style type="text/css">
	.st0{display:none;}
	.st1{display:inline;}
</style> 

		<path d="M37.6,20.5v5.6H3.2v-5.6H37.6z M13.2,61.4v29.3v4.8H7.4V61.4 M7.5,39.6v-5.5h27.2v5.5H7.5z M7.5,53.2v-5.5h27.2v5.5H7.5z
			 M34.3,7.2v5.5H8V7.2H34.3z"/>

		<path d="M17.4,61.9c0,0.5,0,11.4,0,11.4"/>

			<rect x="16.7" y="61.9" width="1.5" height="6.8"/>

				<path d="M17.4,73.2c-0.8-2.1-2.1-4.8-3.6-6.4l3.6,1.3l3.6-1.3C19.6,68.5,18.2,71.1,17.4,73.2z"/>

		<path d="M22.5,62.3H21l-0.1,1c0.1,0,0.2,0,0.3,0c0.3,0,0.6,0.1,0.8,0.2c0.3,0.2,0.6,0.5,0.6,1c0,0.8-0.6,1.3-1.5,1.3
			c-0.4,0-0.8-0.1-1-0.2l0.1-0.4c0.2,0.1,0.5,0.2,0.8,0.2c0.5,0,0.9-0.3,0.9-0.8c0-0.5-0.3-0.9-1.1-0.9c-0.2,0-0.4,0-0.5,0l0.3-1.9
			h1.9V62.3z"/>



</svg>