<?xml version="1.0" encoding="utf-8"?>
<!-- Generator: Adobe Illustrator 26.2.1, SVG Export Plug-In . SVG Version: 6.00 Build 0)  -->
<svg version="1.1" xmlns="http://www.w3.org/2000/svg" xmlns:xlink="http://www.w3.org/1999/xlink" x="0px" y="0px"
	 viewBox="0 0 100 100" style="enable-background:new 0 0 100 100;" xml:space="preserve" width = "100px" height = "100px">
<style type="text/css">
	.st0{display:none;}
	.st1{display:inline;}
</style>

		<path d="M34.8,6.4c-0.4,0.7-1.1,1-2.3,0.9c-2.6,7-5.7,14-9.2,20.7l2.7,0.7c-0.2,0.6-0.7,1.1-2,1.2v66.3h-6.5V38.3
			c-3.8,6.3-8,11.9-12.2,16.7c-0.7-1.6-2.4-4.7-3.5-6.3c9.6-10.4,19.2-27.7,25-45L34.8,6.4z M65.3,32.4l0.2,37.8v6.2v19.8H59V76.5
			v-6.2V35.6c-6.6,17.7-17.1,34.5-28.1,43.8c-1.1-1.6-3.3-3.9-4.8-5.1c11.1-8.5,22-25.3,28.4-42H29.7v-6.4H59V4l8.5,0.6
			c-0.1,0.7-0.6,1.2-2,1.3v20h30.9v6.4H70.2"/>

		<path d="M46.8,42.2l-1.2-0.8c1.3-2,2.6-4.1,3.8-6.2l1.3,0.7C49.5,38,48.2,40.1,46.8,42.2z"/>

		<path d="M43.6,45.5c0.5-2.2,0.9-5.1,0.7-7.3l2.2,3.1l3.7,0.9C48.1,42.8,45.5,44.2,43.6,45.5z"/>

		<path d="M46.8,33.9h-1.5l-0.1,1c0.1,0,0.2,0,0.3,0c0.3,0,0.6,0.1,0.8,0.2c0.3,0.2,0.6,0.5,0.6,1c0,0.8-0.6,1.3-1.5,1.3
			c-0.4,0-0.8-0.1-1-0.2l0.1-0.4c0.2,0.1,0.5,0.2,0.8,0.2c0.5,0,0.9-0.3,0.9-0.8c0-0.5-0.3-0.9-1.1-0.9c-0.2,0-0.4,0-0.5,0l0.3-1.9
			h1.9V33.9z"/>


 </svg>