<?xml version="1.0" encoding="utf-8"?>
<!-- Generator: Adobe Illustrator 26.2.1, SVG Export Plug-In . SVG Version: 6.00 Build 0)  -->
<svg version="1.1" xmlns="http://www.w3.org/2000/svg" xmlns:xlink="http://www.w3.org/1999/xlink" x="0px" y="0px"
	 viewBox="0 0 100 100" style="enable-background:new 0 0 100 100;" xml:space="preserve" width = "100px" height = "100px">
<style type="text/css">
	.st0{display:none;}
	.st1{display:inline;}
</style> 

		<path d="M53,13.1h39.3v6.2H53h-6.8H7.4v-6.2h38.8 M46.2,66.7H15.3V27.4c2.2-0.5,69.7,0,69.7,0v39.3H53 M46.2,33.1H21.8v11.1
			c1.4-0.1,56.4,0,56.4,0V33.1H53 M53,61h25.2V49.7c0,0-55-0.4-56.4,0V61h24.4"/>

		<path d="M15.3,70.4c0.7,0,11,0,11,0"/>

			<rect x="15.3" y="69.7" width="6.5" height="1.5"/>

				<path d="M26.3,70.4c-2.1,0.8-4.8,2.1-6.4,3.6l1.3-3.6l-1.3-3.6C21.5,68.3,24.1,69.6,26.3,70.4z"/>
	
		<path d="M17.9,73.7h-1.5l-0.1,1c0.1,0,0.2,0,0.3,0c0.3,0,0.6,0.1,0.8,0.2c0.3,0.2,0.6,0.5,0.6,1c0,0.8-0.6,1.3-1.5,1.3
			c-0.4,0-0.8-0.1-1-0.2l0.1-0.4c0.2,0.1,0.5,0.2,0.8,0.2c0.5,0,0.9-0.3,0.9-0.8c0-0.5-0.3-0.9-1.1-0.9c-0.2,0-0.4,0-0.5,0l0.3-1.9
			h1.9V73.7z"/>


</svg>