<?xml version="1.0" encoding="utf-8"?>
<!-- Generator: Adobe Illustrator 26.2.1, SVG Export Plug-In . SVG Version: 6.00 Build 0)  -->
<svg version="1.1" xmlns="http://www.w3.org/2000/svg" xmlns:xlink="http://www.w3.org/1999/xlink" x="0px" y="0px"
	 viewBox="0 0 100 100" style="enable-background:new 0 0 100 100;" xml:space="preserve" width = "100px" height = "100px">
<style type="text/css">
	.st0{display:none;}
	.st1{display:inline;}
</style> 

		<path d="M4.9,20.1h90.7V26H4.9V20.1z M79.4,34.1v5.7H20.6v-5.7H79.4z M20.6,53.5v-5.7h58.8v5.7H20.6z M78.1,6.4V12h-56V6.4H78.1z"
			/>

		<line x1="20.6" y1="58" x2="34.3" y2="58"/>

			<rect x="20.6" y="57.3" width="9.2" height="1.5"/>
	
				<path d="M34.3,58c-2.1,0.8-4.8,2.1-6.4,3.6l1.3-3.6l-1.3-3.6C29.5,55.9,32.2,57.3,34.3,58z"/>

		<path d="M21.7,65v-1.1h-1.8v-0.3l1.7-2.5h0.6v2.4h0.5v0.4h-0.5V65H21.7z M21.7,63.5v-1.3c0-0.2,0-0.4,0-0.6h0
			c-0.1,0.2-0.2,0.4-0.3,0.6l-1,1.3v0H21.7z"/>

</svg>