<?xml version="1.0" encoding="utf-8"?>
<!-- Generator: Adobe Illustrator 26.2.1, SVG Export Plug-In . SVG Version: 6.00 Build 0)  -->
<svg version="1.1" xmlns="http://www.w3.org/2000/svg" xmlns:xlink="http://www.w3.org/1999/xlink" x="0px" y="0px"
	 viewBox="0 0 100 100" style="enable-background:new 0 0 100 100;" xml:space="preserve" width = "100px" height = "100px">
<style type="text/css">
	.st0{display:none;}
	.st1{display:inline;}
</style> 

	<rect x="17.2" y="27.6" class="st1" width="12.6" height="0"/>

		<path d="M51.6,23.2H25.8c-4.8,7.9-10.3,15-16,20.2C8.6,42.2,6,40,4.4,39c9.3-8,18.1-21.8,23.3-35.7L36.2,6
			c-0.4,0.9-1.3,1.1-2.3,0.9c-1.3,3.3-2.8,6.5-4.5,9.7H91v6.6H58.4"/>

		<path d="M30.3,27.6c0.9,0.2,52.7,0,52.7,0"/>
	
			<path d="M45.1,28.4c-9.6,0-14.6,0-15-0.1l0.3-1.5c0.9,0.1,19.3,0.1,48,0l0,1.5C64.2,28.4,53.1,28.4,45.1,28.4z"/>
	
				<path d="M82.9,27.6c-2.1,0.8-4.8,2.2-6.4,3.6l1.3-3.6l-1.3-3.6C78.2,25.5,80.8,26.8,82.9,27.6z"/>

		<path d="M31,34v-0.3l0.4-0.4c1-0.9,1.4-1.5,1.5-2c0-0.4-0.2-0.8-0.8-0.8c-0.4,0-0.6,0.2-0.8,0.3l-0.2-0.4c0.3-0.2,0.7-0.4,1.1-0.4
			c0.8,0,1.2,0.6,1.2,1.1c0,0.7-0.5,1.3-1.3,2.1l-0.3,0.3v0h1.8V34H31z"/>

</svg>