<?xml version="1.0" encoding="utf-8"?>
<!-- Generator: Adobe Illustrator 26.2.1, SVG Export Plug-In . SVG Version: 6.00 Build 0)  -->
<svg version="1.1" xmlns="http://www.w3.org/2000/svg" xmlns:xlink="http://www.w3.org/1999/xlink" x="0px" y="0px"
	 viewBox="0 0 100 100" style="enable-background:new 0 0 100 100;" xml:space="preserve" width = "100px" height = "100px">
<style type="text/css">
	.st0{display:none;}
	.st1{display:inline;}
</style> 

	<rect x="17.2" y="27.6" class="st2" width="12.6" height="0"/>

		<path d="M36.5,29.8l4.8,2.2c-0.2,0.4-0.6,0.9-1.1,1.2C35,58.4,22.7,77,7.8,87.1c-1.2-1.7-3.8-4.3-5.4-5.4
			c13.5-8.4,24.7-23.9,29.8-44.8H5.1v-6.8h30.2L36.5,29.8z M53.5,40.2v46.3c0,9.1-4.2,9.9-23,9.9c-0.4-2-1.7-5.4-2.8-7.3
			c3.8,0.1,7.3,0.1,10.1,0.1c8.4,0,8.7,0,8.7-2.7V3.6l9,0.5c-0.1,0.8-0.6,1.3-2,1.4V22"/>

		<path d="M19.8,59.1l-1.4-0.6L25,44.7c0.3-0.7,0.3-1.5-0.1-2.1c-0.4-0.6-1.1-1-1.9-1H7.1V40H23c1.3,0,2.5,0.6,3.1,1.7
			c0.7,1.1,0.8,2.4,0.2,3.6L19.8,59.1z"/>

			<path d="M17.2,62.8c0.2-2.3,0.1-5.2-0.5-7.3l2.7,2.7l3.8,0.4C21.2,59.5,18.8,61.3,17.2,62.8z"/>

		<path d="M7.5,47.8v-0.3l0.4-0.4c1-0.9,1.4-1.5,1.5-2c0-0.4-0.2-0.8-0.8-0.8c-0.4,0-0.6,0.2-0.8,0.3l-0.2-0.4
			c0.3-0.2,0.7-0.4,1.1-0.4c0.8,0,1.2,0.6,1.2,1.1c0,0.7-0.5,1.3-1.3,2.1l-0.3,0.3v0H10v0.4H7.5z"/>

</svg>