<?xml version="1.0" encoding="utf-8"?>
<!-- Generator: Adobe Illustrator 26.2.1, SVG Export Plug-In . SVG Version: 6.00 Build 0)  -->
<svg version="1.1" xmlns="http://www.w3.org/2000/svg" xmlns:xlink="http://www.w3.org/1999/xlink" x="0px" y="0px"
	 viewBox="0 0 100 100" style="enable-background:new 0 0 100 100;" xml:space="preserve" width = "100px" height = "100px">
<style type="text/css">
	.st0{display:none;}
	.st1{display:inline;}
</style> 

	<rect x="17.2" y="27.6" class="st1" width="12.6" height="0"/>

		<path d="M49.4,50.8L49.4,50.8c-1.9,9.9-10.8,33-40.5,45.2c-0.9-1.5-3.1-4.2-4.6-5.7c34.9-13.2,41.4-41.8,41.4-52.9V4l9.5,0.7
			c-0.1,0.9-1,1.6-2.4,1.9v30.7 M6.5,52.1c8.3-6.2,11.9-17.4,13.5-28.7l6.6,1.5c-1.8,11.9-5.3,24.3-14.3,31.2L6.5,52.1z M92.4,27
			c-0.3,0.6-1.2,0.9-2.2,0.9c-4,8-10.6,19.6-15.8,26.8c0-0.1-5.5-2.9-5.5-2.9c5.1-7.4,11.6-19.7,15.2-28.6L92.4,27z"/>


		<path d="M56.9,48.3L55.4,48l1.6-8c0.4-1.9,0.6-3.8,0.6-5.8V9.8h1.5v24.5c0,2-0.2,4.1-0.6,6.1L56.9,48.3z"/>

		<path d="M55.2,52.6c-0.3-2.2-1.1-5.1-2.2-7l3.2,2L60,47C58.3,48.4,56.4,50.7,55.2,52.6z"/>
	
		<path d="M62.5,14.6c0.2,0.1,0.5,0.2,0.9,0.2c0.7,0,0.9-0.4,0.9-0.8c0-0.5-0.5-0.8-1-0.8h-0.3v-0.4h0.3c0.4,0,0.9-0.2,0.9-0.7
			c0-0.3-0.2-0.6-0.7-0.6c-0.3,0-0.6,0.1-0.8,0.3l-0.1-0.4c0.2-0.1,0.6-0.3,1-0.3c0.8,0,1.1,0.5,1.1,0.9c0,0.4-0.2,0.7-0.7,0.9v0
			c0.5,0.1,0.9,0.5,0.9,1c0,0.6-0.5,1.2-1.4,1.2c-0.4,0-0.8-0.1-1-0.3L62.5,14.6z"/>


</svg>