<?xml version="1.0" encoding="utf-8"?>
<!-- Generator: Adobe Illustrator 26.2.1, SVG Export Plug-In . SVG Version: 6.00 Build 0)  -->
<svg version="1.1" xmlns="http://www.w3.org/2000/svg" xmlns:xlink="http://www.w3.org/1999/xlink" x="0px" y="0px"
	 viewBox="0 0 100 100" style="enable-background:new 0 0 100 100;" xml:space="preserve" width = "100px" height = "100px">
<style type="text/css">
	.st0{display:none;}
	.st1{display:inline;}
</style> 


	<rect x="17.2" y="27.6" class="st1" width="12.6" height="0"/>

		<path d="M53.4,57v39.7h-7V57v-6.6V24H25c-3.8,8.4-8.4,16.1-13.2,21.7c-1.4-1.2-4-3-5.7-4C13.9,33,21.1,18,25.4,3.3L34,5.8
			c-0.3,0.7-1,1.1-2.3,1.1c-1.1,3.5-2.4,7-3.8,10.5h59.4V24H53.4v26.3"/>

		<line x1="58" y1="26.9" x2="58" y2="55.6"/>

			<rect x="57.2" y="26.9" width="1.5" height="24.1"/>
	
				<path d="M58,55.6c-0.8-2.1-2.1-4.8-3.6-6.4l3.6,1.3l3.6-1.3C60.1,50.8,58.8,53.4,58,55.6z"/>

		<path d="M61.7,31.5c0.2,0.1,0.5,0.2,0.9,0.2c0.7,0,0.9-0.4,0.9-0.8c0-0.5-0.5-0.8-1-0.8h-0.3v-0.4h0.3c0.4,0,0.9-0.2,0.9-0.7
			c0-0.3-0.2-0.6-0.7-0.6c-0.3,0-0.6,0.1-0.8,0.3l-0.1-0.4c0.2-0.1,0.6-0.3,1-0.3c0.8,0,1.1,0.5,1.1,0.9c0,0.4-0.2,0.7-0.7,0.9v0
			c0.5,0.1,0.9,0.5,0.9,1c0,0.6-0.5,1.2-1.4,1.2c-0.4,0-0.8-0.1-1-0.3L61.7,31.5z"/>


</svg>