<?xml version="1.0" encoding="utf-8"?>
<!-- Generator: Adobe Illustrator 26.2.1, SVG Export Plug-In . SVG Version: 6.00 Build 0)  -->
<svg version="1.1" xmlns="http://www.w3.org/2000/svg" xmlns:xlink="http://www.w3.org/1999/xlink" x="0px" y="0px"
	 viewBox="0 0 100 100" style="enable-background:new 0 0 100 100;" xml:space="preserve" width = "100px" height = "100px">
<style type="text/css">
	.st0{display:none;}
	.st1{display:inline;}
</style> 

	<path class="st0" d="M56.9,88.2"/>

		<path d="M94.7,85.2v5.4H47.4v4.1h-6.2V58.8c-2.2,2.8-4.5,5.3-6.8,7.5c-0.7-0.9-2-2.4-3.2-3.5v12.1H11.3v8.3h-6V8h25.8V61
			c6.8-6.7,13-16.3,16.4-24.7H35.4v-5.1H55v-8.2H37.4V18H55v-7.6H35.6V5.3h25.2v30.9h-8.1l3,0.9c-0.2,0.7-0.9,1.1-2,1
			c-1.1,2.5-2.5,5.1-4,7.9h14c1.5-3.1,3.1-6.9,4.1-9.8h-2.7v-5.1h20v-8.2H67.1V18h18.1v-7.6H65.4V5.3h25.9v30.9H70.2l5.6,1.6
			c-0.3,0.6-1,1-2.1,1c-1,2-2.3,4.7-3.7,7.2h22.1v5.4H69.4v7.7h20v4.9h-20v8h20V77h-20v8.2H94.7z M24.9,14H11.3v23.7h13.6V14z
			 M11.3,68.8h13.6v-25H11.3V68.8z M63.4,59.2v-7.7h-16v7.7H63.4z M63.4,72.1v-8h-16v8H63.4z M47.4,77v8.2h16V77H47.4z"/>

		<path d="M50,93.9c0.4,0,31.1,0,31.1,0"/>
	
			<path d="M53.5,94.5c-2.4,0-3.4,0-3.5,0l0.1-1.3c0.3,0,5.4,0,10.8,0c5.7,0,12.4,0,16.5,0l0,1.3c-4.1,0-10.7,0-16.5,0
				C57.6,94.5,55.2,94.5,53.5,94.5z"/>
	
				<path d="M81.1,93.9c-1.8,0.6-4,1.8-5.4,2.9l1.1-3l-1.1-3C77.2,92.1,79.4,93.2,81.1,93.9z"/>

		<path d="M51.1,95.9L51.1,95.9l-0.7,0.4l-0.1-0.4l0.9-0.5h0.4v3.9h-0.5V95.9z"/>
		<path d="M53,98.3c0-0.5,0.3-0.8,0.8-1l0,0c-0.4-0.2-0.6-0.5-0.6-0.9c0-0.6,0.5-1,1.2-1c0.8,0,1.1,0.5,1.1,1c0,0.3-0.2,0.7-0.6,0.9
			v0c0.5,0.2,0.8,0.5,0.8,1c0,0.7-0.6,1.1-1.3,1.1C53.5,99.3,53,98.8,53,98.3z M55.1,98.2c0-0.5-0.3-0.7-0.9-0.9
			c-0.5,0.1-0.7,0.4-0.7,0.8c0,0.4,0.3,0.7,0.8,0.7C54.8,98.9,55.1,98.6,55.1,98.2z M53.6,96.3c0,0.4,0.3,0.6,0.7,0.7
			c0.3-0.1,0.6-0.4,0.6-0.7c0-0.3-0.2-0.6-0.7-0.6C53.9,95.7,53.6,96,53.6,96.3z"/>

</svg>