<?xml version="1.0" encoding="utf-8"?>
<!-- Generator: Adobe Illustrator 26.2.1, SVG Export Plug-In . SVG Version: 6.00 Build 0)  -->
<svg version="1.1" xmlns="http://www.w3.org/2000/svg" xmlns:xlink="http://www.w3.org/1999/xlink" x="0px" y="0px"
	 viewBox="0 0 100 100" style="enable-background:new 0 0 100 100;" xml:space="preserve" width = "100px" height = "100px">
<style type="text/css">
	.st0{display:none;}
	.st1{display:inline;}
</style>


		<path d="M44.9,38.6h-30v55.7H8.2V5.7h36.6V38.6z M38.4,10.9H14.8v8.5h23.6V10.9z M14.8,33.4h23.6v-9H14.8V33.4z M91.8,5.7v79.4
			c0,8.6-4,9-19.2,9c-0.2-1.9-1.2-5-2.2-6.9c3.4,0.1,6.6,0.2,9,0.2c5.2,0,5.8,0,5.8-2.3V38.7H54.3v-33H91.8z M85.2,10.9H60.8v8.5
			h24.4V10.9z M60.8,33.5h24.4v-9.1H60.8V33.5z"/>


		<path d="M54.3,42.9c1.4-0.1,15.4-0.1,15.3,0"/>

			<path d="M54.3,43.6l-0.1-1.5c0.9,0,6.8-0.1,10.8-0.1l0,1.5C60.7,43.5,55.1,43.6,54.3,43.6z"/>

				<path d="M69.5,42.9c-2.1,0.8-4.8,2.1-6.5,3.5l1.3-3.5l-1.2-3.6C64.8,40.7,67.4,42.1,69.5,42.9z"/>


		<path d="M54.5,47.9c0-0.5,0.3-0.8,0.8-1l0,0c-0.4-0.2-0.6-0.5-0.6-0.9c0-0.6,0.5-1,1.2-1c0.8,0,1.1,0.5,1.1,1
			c0,0.3-0.2,0.7-0.6,0.9v0c0.5,0.2,0.8,0.5,0.8,1c0,0.7-0.6,1.1-1.3,1.1C55,48.9,54.5,48.4,54.5,47.9z M56.6,47.8
			c0-0.5-0.3-0.7-0.9-0.9c-0.5,0.1-0.7,0.4-0.7,0.8c0,0.4,0.3,0.7,0.8,0.7C56.3,48.5,56.6,48.2,56.6,47.8z M55.1,45.9
			c0,0.4,0.3,0.6,0.7,0.7c0.3-0.1,0.6-0.4,0.6-0.7c0-0.3-0.2-0.6-0.7-0.6C55.4,45.3,55.1,45.5,55.1,45.9z"/>


 </svg>