<?xml version="1.0" encoding="utf-8"?>
<!-- Generator: Adobe Illustrator 26.2.1, SVG Export Plug-In . SVG Version: 6.00 Build 0)  -->
<svg version="1.1" xmlns="http://www.w3.org/2000/svg" xmlns:xlink="http://www.w3.org/1999/xlink" x="0px" y="0px"
	 viewBox="0 0 100 100" style="enable-background:new 0 0 100 100;" xml:space="preserve" width = "100px" height = "100px">
<style type="text/css">
	.st0{display:none;}
	.st1{display:inline;}
</style> 


		<path d="M41,42C38.1,61.8,30.6,81.5,9.5,92.8c-1.1-1.8-3.2-4-4.9-5.3C34,72.6,35.5,40.3,36.1,13.9H6.6V7.2h88.8v6.7H45.1
			c-0.3,0.4-1,0.7-1.9,0.8c-0.3,6.5-0.6,13.6-1.3,20.7"/>

	<path class="st2" d="M46.9,20.4"/>

		<path d="M23.7,91.2l-1-1.1c10.4-9.1,17.2-22,20.2-31c4.2-13.1,5.1-30.7,5.2-40l1.5,0c-0.1,9.4-1,27.2-5.3,40.5
			C41.3,68.8,34.3,81.9,23.7,91.2z"/>

			<path d="M19.6,93.4c2.2-0.7,5.1-1.4,7.2-1.3l-3.3-2l-1.2-3.6C22,88.8,20.8,91.5,19.6,93.4z"/>

		<path d="M52.3,24.1v-0.3l0.4-0.4c1-0.9,1.4-1.5,1.5-2c0-0.4-0.2-0.8-0.8-0.8c-0.4,0-0.6,0.2-0.8,0.3l-0.2-0.4
			c0.3-0.2,0.7-0.4,1.1-0.4c0.8,0,1.2,0.6,1.2,1.1c0,0.7-0.5,1.3-1.3,2.1l-0.3,0.3v0h1.8v0.4H52.3z"/>

</svg>