<?xml version="1.0" encoding="utf-8"?>
<!-- Generator: Adobe Illustrator 26.2.1, SVG Export Plug-In . SVG Version: 6.00 Build 0)  -->
<svg version="1.1" xmlns="http://www.w3.org/2000/svg" xmlns:xlink="http://www.w3.org/1999/xlink" x="0px" y="0px"
	 viewBox="0 0 100 100" style="enable-background:new 0 0 100 100;" xml:space="preserve" width = "100px" height = "100px">
<style type="text/css">
	.st0{display:none;}
	.st1{display:inline;}
</style> 


		<path d="M55.6,3.8c-0.3,0.8-1.1,1.3-2.1,1.5c9.8,13.6,27.9,27,43.6,33.8c-1.6,1.6-3.2,4-4.3,6c-15.9-7.8-33.9-21.5-43.5-35
			C41,22.5,24.3,36.7,6.8,45.5c-0.8-1.4-2.5-4-3.9-5.4c17.6-8.5,34.9-23.5,42.8-36.9L55.6,3.8z M35.5,61H8.1v-6.4H92V61H43.9
			 M25.2,35.1h48.5v6.3H25.2V35.1z"/>

		<line x1="8" y1="65.1" x2="21.8" y2="65.1"/>

			<rect x="8" y="64.4" width="9.3" height="1.5"/>
		
				<path d="M21.8,65.1c-2.1,0.8-4.8,2.1-6.4,3.6l1.3-3.6l-1.3-3.6C17.1,63,19.7,64.3,21.8,65.1z"/>

		<path d="M9.9,71.9v-1.1H8.1v-0.3L9.8,68h0.6v2.4h0.5v0.4h-0.5v1.1H9.9z M9.9,70.4v-1.3c0-0.2,0-0.4,0-0.6h0
			c-0.1,0.2-0.2,0.4-0.3,0.6l-1,1.3v0H9.9z"/>


</svg>