<?xml version="1.0" encoding="utf-8"?>
<!-- Generator: Adobe Illustrator 26.2.1, SVG Export Plug-In . SVG Version: 6.00 Build 0)  -->
<svg version="1.1" xmlns="http://www.w3.org/2000/svg" xmlns:xlink="http://www.w3.org/1999/xlink" x="0px" y="0px"
	 viewBox="0 0 100 100" style="enable-background:new 0 0 100 100;" xml:space="preserve" width = "100px" height = "100px">
<style type="text/css">
	.st0{display:none;}
	.st1{display:inline;}
</style> 

		<path d="M81.4,56.3H34.8v40.3h-6.7V57.1c-5.4,7.3-11.8,14-19.4,19.4c-1-1.6-3.2-4.1-4.6-5.4C18.8,61,28.7,45.8,35.3,29.3H7.4v-6.6
			h30.3c2.2-6.4,3.9-12.9,5.3-19.3l9,2c-0.3,0.8-1,1.2-2.3,1.2c-1.3,5.3-2.8,10.7-4.5,16.1h50.6v6.6h-53c-2.7,7-5.9,13.9-9.8,20.3
			h55.3v46.4h-7"/>

		<line x1="36.8" y1="60.3" x2="59.4" y2="60.3"/>

			<rect x="36.8" y="59.6" width="18" height="1.5"/>
	
				<path d="M59.4,60.3c-2.1,0.8-4.8,2.1-6.4,3.6l1.3-3.6L53,56.8C54.6,58.2,57.2,59.5,59.4,60.3z"/>

		<path d="M38.7,67.1V66h-1.8v-0.3l1.7-2.5h0.6v2.4h0.5V66h-0.5v1.1H38.7z M38.7,65.6v-1.3c0-0.2,0-0.4,0-0.6h0
			c-0.1,0.2-0.2,0.4-0.3,0.6l-1,1.3v0H38.7z"/>


</svg>