<?xml version="1.0" encoding="utf-8"?>
<!-- Generator: Adobe Illustrator 26.2.1, SVG Export Plug-In . SVG Version: 6.00 Build 0)  -->
<svg version="1.1" xmlns="http://www.w3.org/2000/svg" xmlns:xlink="http://www.w3.org/1999/xlink" x="0px" y="0px"
	 viewBox="0 0 100 100" style="enable-background:new 0 0 100 100;" xml:space="preserve" width = "100px" height = "100px">
<style type="text/css">
	.st0{display:none;}
	.st1{display:inline;}
</style> 

		<path d="M44.8,24.9c-0.1,0.4-0.7,0.8-1.2,1c-3.5,8.3-8.6,16.3-14.4,23.6c4.8,3.2,14.6,10.4,17.2,12.4l-4,5.6
			c-2.8-2.8-9.2-8.1-14.1-12v41h-6.7V58c-5.1,5.1-10.4,9.6-15.7,13.1c-0.7-1.7-2.5-4.7-3.6-5.9c12.6-7.8,25.9-21.7,33.1-36.4H4.9
			v-6.2h16.7V3.5L30.3,4c-0.1,0.7-0.7,1.2-2,1.4v17.2h10.8l1.2-0.4L44.8,24.9z M73.5,86.8h24.2v6.6H40.4v-6.6h26.2V43.5H44.4V37
			h22.2V4.2l8.9,0.6c-0.1,0.7-0.7,1.2-2.1,1.4V37h22.1v6.5H73.5V86.8z"/>

		<path d="M40.9,83c0.3,0,15.3,0,15.3,0"/>
		
		<rect x="40.9" y="82.2" width="10.8" height="1.5"/>
			
		<path d="M56.2,83c-2.1,0.8-4.8,2.1-6.4,3.6l1.3-3.6l-1.3-3.6C51.4,80.8,54.1,82.2,56.2,83z"/>
	
		<path d="M43.7,77.1v0.3L42,81h-0.5l1.7-3.4v0h-1.9v-0.4H43.7z"/>
</svg>