<?xml version="1.0" encoding="utf-8"?>
<!-- Generator: Adobe Illustrator 26.2.1, SVG Export Plug-In . SVG Version: 6.00 Build 0)  -->
<svg version="1.1" xmlns="http://www.w3.org/2000/svg" xmlns:xlink="http://www.w3.org/1999/xlink" x="0px" y="0px"
	 viewBox="0 0 100 100" style="enable-background:new 0 0 100 100;" xml:space="preserve" width = "100px" height = "100px">
<style type="text/css">
	.st0{display:none;}
	.st1{display:inline;}
</style>


		<path d="M44.4,47.1V23.3H11.5v14.6H5.4V18.3h39v-6.7H11.1V6.2h73.8v5.4H51v6.7h39.8v19.6h-6.4V23.3H51v23.8H44.4z M75.8,80.6
			l0.1-5.1v-7.6v-4.7v-7.4H20.5v7.4v4.7v7.6v5.1v5.3H14V50.6h68.6v29.9 M15.1,44.2v-4.5h23.8v4.5H15.1z M17.1,29.3h21.7v4.5H17.1
			V29.3z M56.7,29.3h22.2v4.5H56.7V29.3z M56.7,44.2v-4.5h24.7v4.5H56.7z"/>

		<line x1="22" y1="60" x2="36.5" y2="60"/>
	
			<rect x="22" y="59.2" width="9.9" height="1.5"/>
		
				<path d="M36.5,60c-2.1,0.8-4.8,2.1-6.4,3.6l1.3-3.6l-1.3-3.6C31.7,57.8,34.3,59.2,36.5,60z"/>

	
		<path d="M23.5,62.9L23.5,62.9l-0.7,0.4l-0.1-0.4l0.9-0.5h0.4v3.9h-0.5V62.9z"/>
		<path d="M28.1,64.3c0,1.3-0.5,2.1-1.4,2.1c-0.8,0-1.3-0.7-1.3-2c0-1.3,0.6-2,1.4-2C27.6,62.3,28.1,63.1,28.1,64.3z M26,64.4
			c0,1,0.3,1.6,0.8,1.6c0.5,0,0.8-0.6,0.8-1.6c0-1-0.2-1.6-0.8-1.6C26.3,62.8,26,63.3,26,64.4z"/>

 </svg>