<?xml version="1.0" encoding="utf-8"?>
<!-- Generator: Adobe Illustrator 26.2.1, SVG Export Plug-In . SVG Version: 6.00 Build 0)  -->
<svg version="1.1" xmlns="http://www.w3.org/2000/svg" xmlns:xlink="http://www.w3.org/1999/xlink" x="0px" y="0px"
	 viewBox="0 0 100 100" style="enable-background:new 0 0 100 100;" xml:space="preserve" width = "100px" height = "100px">
<style type="text/css">
	.st0{display:none;}
	.st1{display:inline;}
</style> 


		<path d="M80.1,27.7H19.6v24h60.4V27.7z M80.1,58.5H19.6v38.2h-6.7V20.9h25.3c2.4-5.2,5.1-12.4,6.5-17.6l9.4,2.5
			c-0.2,0.6-1,1-2.2,1c-1.5,4.2-3.8,9.5-6.1,14.1h41.2v75.2h-7"/>

		<line x1="21.9" y1="62.8" x2="37.3" y2="62.8"/>

			<rect x="21.9" y="62.1" width="10.9" height="1.5"/>

				<path d="M37.3,62.8c-2.1,0.8-4.8,2.1-6.4,3.6l1.3-3.6l-1.3-3.6C32.6,60.7,35.2,62,37.3,62.8z"/>

		<path d="M22.4,69.1V68h-1.8v-0.3l1.7-2.5h0.6v2.4h0.5V68h-0.5v1.1H22.4z M22.4,67.6v-1.3c0-0.2,0-0.4,0-0.6h0
			c-0.1,0.2-0.2,0.4-0.3,0.6l-1,1.3v0H22.4z"/>

</svg>