<?xml version="1.0" encoding="utf-8"?>
<!-- Generator: Adobe Illustrator 26.2.1, SVG Export Plug-In . SVG Version: 6.00 Build 0)  -->
<svg version="1.1" xmlns="http://www.w3.org/2000/svg" xmlns:xlink="http://www.w3.org/1999/xlink" x="0px" y="0px"
	 viewBox="0 0 100 100" style="enable-background:new 0 0 100 100;" xml:space="preserve" width = "100px" height = "100px">
<style type="text/css">
	.st0{display:none;}
	.st1{display:inline;}
</style> 


	<rect x="17.2" y="27.6" class="st0" width="12.6" height="0"/>

		<path d="M55.5,3.7c-0.2,0.8-1,1.2-2,1.4c9.8,13.4,28.1,29.2,43.6,37.7c-1.7,1.6-3.3,3.8-4.5,5.8c-15.8-9.5-33.9-25.4-43.2-38.5
			C41.2,22.6,24.4,38.6,7.1,49.4c-0.9-1.5-2.8-3.8-4.2-5.2C20.4,33.8,37.9,16.7,45.8,3L55.5,3.7z M77.1,55.6l1.3-0.3l4.8,1.9
			c-0.2,0.6-0.5,1-0.9,1.5C78.1,67.9,70.2,84.5,63.7,97l-6.9-1.9C62.2,84.9,68.7,71.4,73,62H14.6v-6.4H77.1z M27.5,35.8h44.7v6.3
			H27.5V35.8z"/>


		<path d="M61,78.8l-1.4-0.4l2.5-8.6c0.3-0.8,0.5-1.9-0.1-2.7c-0.7-1-2.5-1.6-5-1.5H19.4V64H57c3.1-0.1,5.2,0.7,6.2,2.1
			c0.8,1.1,0.9,2.5,0.3,4.1L61,78.8z"/>
	
			<path d="M59.1,83c-0.2-2.3-0.7-5.2-1.6-7.2l3.1,2.2l3.8-0.2C62.4,79,60.4,81.1,59.1,83z"/>


		<path d="M21.3,72.1V71h-1.8v-0.3l1.7-2.5h0.6v2.4h0.5V71h-0.5v1.1H21.3z M21.3,70.6v-1.3c0-0.2,0-0.4,0-0.6h0
			c-0.1,0.2-0.2,0.4-0.3,0.6l-1,1.3v0H21.3z"/>



</svg>