<?xml version="1.0" encoding="utf-8"?>
<!-- Generator: Adobe Illustrator 26.2.1, SVG Export Plug-In . SVG Version: 6.00 Build 0)  -->
<svg version="1.1" xmlns="http://www.w3.org/2000/svg" xmlns:xlink="http://www.w3.org/1999/xlink" x="0px" y="0px"
	 viewBox="0 0 100 100" style="enable-background:new 0 0 100 100;" xml:space="preserve" width = "100px" height = "100px">
<style type="text/css">
	.st0{display:none;}
	.st1{display:inline;}
</style> 

		<path d="M46.2,32V21H5.1v-6.4h41.1V3.4l9,0.6c-0.1,0.7-0.7,1.2-2.1,1.4v9.2h41.8V21H53.1v11 M17.8,38.3"/>

		<line x1="57.5" y1="4.3" x2="57.5" y2="13.9"/>

			<rect x="56.7" y="4.3" width="1.5" height="5"/>
	
				<path d="M57.5,13.9c-0.8-2.1-2.1-4.8-3.6-6.4l3.6,1.3L61,7.4C59.6,9.1,58.2,11.7,57.5,13.9z"/>
		
		<path d="M62,7V6.6l0.4-0.4c1-0.9,1.4-1.5,1.5-2c0-0.4-0.2-0.8-0.8-0.8c-0.4,0-0.6,0.2-0.8,0.3l-0.2-0.4C62.3,3.2,62.7,3,63.2,3
			c0.8,0,1.2,0.6,1.2,1.1c0,0.7-0.5,1.3-1.3,2.1l-0.3,0.3v0h1.8V7H62z"/>

</svg>