<?xml version="1.0" encoding="utf-8"?>
<!-- Generator: Adobe Illustrator 26.2.1, SVG Export Plug-In . SVG Version: 6.00 Build 0)  -->
<svg version="1.1" xmlns="http://www.w3.org/2000/svg" xmlns:xlink="http://www.w3.org/1999/xlink" x="0px" y="0px"
	 viewBox="0 0 100 100" style="enable-background:new 0 0 100 100;" xml:space="preserve" width = "100px" height = "100px">
<style type="text/css">
	.st0{display:none;}
	.st1{display:inline;}
</style> 


		<path d="M53.5,61.4v26.8h-6.9V61.4v-6.5V31.8H22.1c-3.5,7.2-7.6,13.7-12,18.5c-1.3-1.2-3.9-3.1-5.6-4.1
			C12.7,37.5,19.8,22.3,23.9,7l8.7,2.4c-0.3,0.7-1,1.1-2.3,1.1c-1.5,4.9-3.2,9.9-5.2,14.7h21.5v-20l9,0.5c-0.1,0.7-0.7,1.2-2.1,1.4
			v18.1h37.3v6.6H53.5v23.1"/>


		<path d="M57.6,6.1c0,0.4,0,12,0,12"/>

			<rect x="56.8" y="6.1" width="1.5" height="7.5"/>

				<path d="M57.6,18.1c-0.8-2.1-2.1-4.8-3.6-6.4l3.6,1.3l3.6-1.3C59.7,13.3,58.3,16,57.6,18.1z"/>

		<path d="M61.4,9.2c0.2,0.1,0.5,0.2,0.9,0.2c0.7,0,0.9-0.4,0.9-0.8c0-0.5-0.5-0.8-1-0.8h-0.3V7.5h0.3c0.4,0,0.9-0.2,0.9-0.7
			c0-0.3-0.2-0.6-0.7-0.6c-0.3,0-0.6,0.1-0.8,0.3l-0.1-0.4c0.2-0.1,0.6-0.3,1-0.3c0.8,0,1.1,0.5,1.1,0.9c0,0.4-0.2,0.7-0.7,0.9v0
			c0.5,0.1,0.9,0.5,0.9,1c0,0.6-0.5,1.2-1.4,1.2c-0.4,0-0.8-0.1-1-0.3L61.4,9.2z"/>

</svg>