<?xml version="1.0" encoding="utf-8"?>
<!-- Generator: Adobe Illustrator 26.2.1, SVG Export Plug-In . SVG Version: 6.00 Build 0)  -->
<svg version="1.1" xmlns="http://www.w3.org/2000/svg" xmlns:xlink="http://www.w3.org/1999/xlink" x="0px" y="0px"
	 viewBox="0 0 100 100" style="enable-background:new 0 0 100 100;" xml:space="preserve" width = "100px" height = "100px">
<style type="text/css">
	.st0{display:none;}
	.st1{display:inline;}
</style>

	<rect x="17.2" y="27.6" class="st2" width="12.6" height="0"/>

		<path d="M42.9,20.3v5.6h-40v-5.6H42.9z M38.8,61.2v29.4H13.6v4.7h-6V61.2H38.8z M7.7,39.4v-5.5h31.4v5.5H7.7z M7.7,53v-5.5h31.4
			V53H7.7z M39.1,7v5.5H8.2V7H39.1z M32.7,66.9H13.6v18h19.1V66.9z"/>

		<path d="M15,94.2c1.7,0,15.9,0,15.9,0"/>

			<rect x="15" y="93.5" width="11.4" height="1.5"/>
	
				<path d="M30.8,94.2c-2.1,0.8-4.8,2.1-6.4,3.6l1.3-3.6l-1.3-3.6C26.1,92.1,28.7,93.4,30.8,94.2z"/>

		<path d="M17.1,95.5v0.3l-1.7,3.5h-0.5l1.7-3.4v0h-1.9v-0.4H17.1z"/>


 </svg>