<?xml version="1.0" encoding="utf-8"?>
<!-- Generator: Adobe Illustrator 26.2.1, SVG Export Plug-In . SVG Version: 6.00 Build 0)  -->
<svg version="1.1" xmlns="http://www.w3.org/2000/svg" xmlns:xlink="http://www.w3.org/1999/xlink" x="0px" y="0px"
	 viewBox="0 0 100 100" style="enable-background:new 0 0 100 100;" xml:space="preserve" width = "100px" height = "100px">
<style type="text/css">
	.st0{display:none;}
	.st1{display:inline;}
</style>


		<path d="M94.9,21H53.1v11h36.4v56.3c0,4.2-1.1,6.2-4.2,7.2c-3.2,1-9,1.1-17.2,1c-0.5-1.8-1.5-4.3-2.5-6.1c3.4,0.1,6.6,0.2,9.2,0.2
			c7.4,0,7.8,0,7.8-2.3v-50H17.8v58h-6.7V32h35.1V21H5.1v-6.4h41.1V3.4l9,0.6c-0.1,0.7-0.7,1.2-2.1,1.4v9.2h41.8V21z M46.4,59.6
			H25.9V54H37c-0.9-3.3-3.2-8.3-5.6-11.9l5.4-1.5c2.6,3.5,5,8.5,6,11.8L37.7,54h22.6c-1.3-0.5-3.1-1.2-4-1.5
			c2.1-3.4,4.7-8.8,6.1-12.4l7.3,2.2c-0.3,0.6-1,0.9-2,0.9c-1.6,3.1-4.1,7.6-6.3,10.8H75v5.6H52.9"/>

		<line x1="26.1" y1="63.4" x2="46.4" y2="63.4"/>
	
			<rect x="26.1" y="62.7" width="15.8" height="1.5"/>
	
				<path d="M46.4,63.4c-2.1,0.8-4.8,2.1-6.4,3.6l1.3-3.6L40,59.9C41.6,61.3,44.3,62.6,46.4,63.4z"/>

		<path d="M29.3,65.5v0.3l-1.7,3.5H27l1.7-3.4v0h-1.9v-0.4H29.3z"/>

 </svg>