<?xml version="1.0" encoding="utf-8"?>
<!-- Generator: Adobe Illustrator 26.2.1, SVG Export Plug-In . SVG Version: 6.00 Build 0)  -->
<svg version="1.1" xmlns="http://www.w3.org/2000/svg" xmlns:xlink="http://www.w3.org/1999/xlink" x="0px" y="0px"
	 viewBox="0 0 100 100" style="enable-background:new 0 0 100 100;" xml:space="preserve" width = "100px" height = "100px">
<style type="text/css">
	.st0{display:none;}
	.st1{display:inline;}
</style> 

		<path d="M44.8,83.1V47.6H13.5V13l8.8,0.6c-0.1,0.6-0.7,1.1-2.1,1.3V41h24.6V3.7l8.9,0.6c-0.1,0.7-0.7,1.2-2,1.4V41h25.6V12.9
			l8.9,0.6c-0.1,0.7-0.6,1.2-2,1.4v32.7H51.7v35.5"/>

		<path d="M88,13.6c0,0.6,0,14.1,0,14.1"/>

		<rect x="87.2" y="13.6" width="1.5" height="9.6"/>

		<path d="M88,27.7c-0.8-2.1-2.1-4.8-3.6-6.4l3.6,1.3l3.6-1.3C90.1,22.9,88.7,25.6,88,27.7z"/>

		<path d="M90.4,16.5c0.2,0.1,0.5,0.2,0.9,0.2c0.7,0,0.9-0.4,0.9-0.8c0-0.5-0.5-0.8-1-0.8h-0.3v-0.4h0.3c0.4,0,0.9-0.2,0.9-0.7
			c0-0.3-0.2-0.6-0.7-0.6c-0.3,0-0.6,0.1-0.8,0.3l-0.1-0.4c0.2-0.1,0.6-0.3,1-0.3c0.8,0,1.1,0.5,1.1,0.9c0,0.4-0.2,0.7-0.7,0.9v0
			c0.5,0.1,0.9,0.5,0.9,1c0,0.6-0.5,1.2-1.4,1.2c-0.4,0-0.8-0.1-1-0.3L90.4,16.5z"/>


</svg>