<?xml version="1.0" encoding="utf-8"?>
<!-- Generator: Adobe Illustrator 26.2.1, SVG Export Plug-In . SVG Version: 6.00 Build 0)  -->
<svg version="1.1" xmlns="http://www.w3.org/2000/svg" xmlns:xlink="http://www.w3.org/1999/xlink" x="0px" y="0px"
	 viewBox="0 0 100 100" style="enable-background:new 0 0 100 100;" xml:space="preserve" width = "100px" height = "100px">
<style type="text/css">
	.st0{display:none;}
	.st1{display:inline;}
</style> 

		<path d="M44.9,38.6h-30v55.7H8.2V5.7h36.6V38.6z M38.4,10.9H14.8v8.5h23.6V10.9z M14.8,33.4h23.6v-9H14.8V33.4z M61.1,56.2v4.5
			H37.9v6.7v4.5v7.8l-6,0.3V49.7H24v-5.1H75v5.1c0,0-12.7-0.1-13.9,0H37.9v6.5H61.1 M91.8,5.7v79.4c0,8.6-4,9-19.2,9
			c-0.2-1.9-1.2-5-2.2-6.9c3.4,0.1,6.6,0.2,9,0.2c5.2,0,5.8,0,5.8-2.3V38.7H54.3v-33H91.8z M85.2,10.9H60.8v8.5h24.4V10.9z
			 M60.8,33.5h24.4v-9.1H60.8V33.5z"/>

		<line x1="39.3" y1="64.6" x2="50.4" y2="64.6"/>
		<rect x="39.3" y="63.8" width="6.5" height="1.5"/>
		
		<path d="M50.4,64.6c-2.1,0.8-4.8,2.1-6.4,3.6l1.3-3.6L44,61C45.6,62.5,48.3,63.8,50.4,64.6z"/>

		<path d="M40.5,69.5L40.5,69.5l-0.7,0.4l-0.1-0.4l0.9-0.5H41v3.9h-0.5V69.5z"/>
		<path d="M43.6,69.5L43.6,69.5l-0.7,0.4l-0.1-0.4l0.9-0.5h0.4v3.9h-0.5V69.5z"/>

</svg>