<?xml version="1.0" encoding="utf-8"?>
<!-- Generator: Adobe Illustrator 26.2.1, SVG Export Plug-In . SVG Version: 6.00 Build 0)  -->
<svg version="1.1" xmlns="http://www.w3.org/2000/svg" xmlns:xlink="http://www.w3.org/1999/xlink" x="0px" y="0px"
	 viewBox="0 0 100 100" style="enable-background:new 0 0 100 100;" xml:space="preserve" width = "100px" height = "100px">
<style type="text/css">
	.st0{display:none;}
	.st1{display:inline;}
</style>

		<path d="M34.8,6.4c-0.4,0.7-1.1,1-2.3,0.9c-2.6,7-5.7,14-9.2,20.7l2.7,0.7c-0.2,0.6-0.7,1.1-2,1.2v66.3h-6.5V38.3
			c-3.8,6.3-8,11.9-12.2,16.7c-0.7-1.6-2.4-4.7-3.5-6.3c9.6-10.4,19.2-27.7,25-45L34.8,6.4z M65.5,76.5v19.8H59V76.5v-6.2V35.6
			c-6.6,17.7-17.1,34.5-28.1,43.8c-1.1-1.6-3.3-3.9-4.8-5.1c11.1-8.5,22-25.3,28.4-42H29.7v-6.4H59V4l8.5,0.6
			c-0.1,0.7-0.6,1.2-2,1.3v20h30.9v6.4H70.2c6.1,16.6,16.8,33.2,28,41.5c-1.6,1.2-3.9,3.6-5.1,5.3C82.2,70,71.9,52.8,65.5,35.2v35"
			/>

		<path d="M75.3,35.7c2,3.5,4,6.9,6.1,10.4c0.7,1.3,1.5,2.5,2.2,3.8"/>
		
			<path d="M80.6,46.3c-2-3.4-4-6.8-6-10.3l1.3-0.8c2,3.4,4,6.8,6,10.2L80.6,46.3z"/>

				<path d="M83.6,49.8c-1.8-1.4-4.3-3-6.3-3.7l3.7-0.7l2.4-2.9C83,44.6,83.2,47.6,83.6,49.8z"/>
	
		<path d="M80.8,33.8c-0.1,0-0.2,0-0.4,0c-0.8,0.1-1.3,0.7-1.4,1.4h0c0.2-0.2,0.5-0.4,0.9-0.4c0.7,0,1.2,0.5,1.2,1.3
			c0,0.7-0.5,1.4-1.3,1.4c-0.8,0-1.4-0.6-1.4-1.7c0-0.8,0.3-1.4,0.7-1.8c0.3-0.3,0.8-0.5,1.2-0.6c0.2,0,0.3,0,0.4,0V33.8z M80.7,36
			c0-0.6-0.3-0.9-0.8-0.9c-0.3,0-0.6,0.2-0.8,0.5c0,0.1-0.1,0.1-0.1,0.2c0,0.6,0.3,1.1,0.9,1.1C80.4,37,80.7,36.6,80.7,36z"/>

 </svg>