<?xml version="1.0" encoding="utf-8"?>
<!-- Generator: Adobe Illustrator 26.2.1, SVG Export Plug-In . SVG Version: 6.00 Build 0)  -->
<svg version="1.1" xmlns="http://www.w3.org/2000/svg" xmlns:xlink="http://www.w3.org/1999/xlink" x="0px" y="0px"
	 viewBox="0 0 100 100" style="enable-background:new 0 0 100 100;" xml:space="preserve" width = "100px" height = "100px">
<style type="text/css">
	.st0{display:none;}
	.st1{display:inline;}
</style> 

		<path d="M74.5,11.8l4.8,2.7c-0.3,0.5-0.7,0.7-1.2,0.9C65,38,35.1,52.5,8.9,58.3c-0.7-1.7-2.1-4.5-3.3-6c13-2.4,27.1-7.3,39.2-14.3
			c-3.8-3-9.6-6.6-14.5-9l4.5-3.9c5.3,2.5,11.7,6.3,15.7,9.4c7.3-4.7,13.5-10.3,18.1-16.5H38.5c-7.3,5.4-16.1,10.7-26.6,15.2
			c-1-1.6-3.1-3.9-4.6-5C24.7,21.4,38,11.7,45.2,3.3l8.8,1.8c-0.2,0.7-0.9,1.1-2.2,1.2c-1.8,1.9-3.9,3.9-6.1,5.9h27.6L74.5,11.8z
			 M64,73.9c8.5-5.4,15.5-12.2,20.2-20.6H53.3c-8.7,6.1-19.6,12-32.5,16.9c-0.9-1.6-2.8-3.9-4.2-5.1C37.5,57.9,53.1,47.4,61.5,38
			l8.8,1.8c-0.3,0.7-1,1.1-2.3,1.2c-2.1,2.1-4.4,4.2-6.9,6.4h27.4l1.2-0.4c3.8,1.9,4.3,2.2,4.7,2.5c-0.1,0.5-0.6,0.7-1.1,1
			C80.3,79,48.6,91.9,15.7,96.7c-0.5-1.9-1.8-4.7-2.9-6.2c15.9-2,31.9-6.2,45.2-13.2"/>

		<path d="M53.6,57.4c2.7,0,14.8,0,14.8,0"/>

			<rect x="53.6" y="56.6" width="10.2" height="1.5"/>
	
				<path d="M68.4,57.4c-2.1,0.8-4.8,2.1-6.4,3.6l1.3-3.6l-1.3-3.6C63.6,55.3,66.2,56.6,68.4,57.4z"/>

		<path d="M55.7,60.4h-1.5l-0.2,1c0.1,0,0.2,0,0.3,0c0.3,0,0.6,0.1,0.8,0.2c0.3,0.2,0.6,0.5,0.6,1c0,0.8-0.6,1.3-1.5,1.3
			c-0.4,0-0.8-0.1-1-0.2l0.1-0.4c0.2,0.1,0.5,0.2,0.8,0.2c0.5,0,0.9-0.3,0.9-0.8c0-0.5-0.3-0.9-1.1-0.9c-0.2,0-0.4,0-0.5,0l0.3-1.9
			h1.9V60.4z"/>

</svg>