<?xml version="1.0" encoding="utf-8"?>
<!-- Generator: Adobe Illustrator 26.2.1, SVG Export Plug-In . SVG Version: 6.00 Build 0)  -->
<svg version="1.1" xmlns="http://www.w3.org/2000/svg" xmlns:xlink="http://www.w3.org/1999/xlink" x="0px" y="0px"
	 viewBox="0 0 100 100" style="enable-background:new 0 0 100 100;" xml:space="preserve" width = "100px" height = "100px">
<style type="text/css">
	.st0{display:none;}
	.st1{display:inline;}
</style> 



		<path d="M95.3,13.4H52.4v14.1h38v57.3c0,4.2-1,6.2-4.1,7.3c-3.1,1-8.9,1.1-17.1,1.1c-0.4-1.9-1.4-4.5-2.4-6.3
			c3.4,0.1,6.6,0.2,9.2,0.2c7.5,0,7.8,0,7.8-2.4V33.9H52.4v59h-6.6v-59H16v59.2H9.5V27.5h36.3V13.4H4.7V6.7h90.6V13.4z M38.6,56
			c-4-3.4-11.7-8.5-17.9-11.9l3.8-3.8c6.2,3.2,14.1,8.1,18,11.4L38.6,56z"/>


		<line x1="20.3" y1="47.5" x2="29.8" y2="55.5"/>
	
			<rect x="22.6" y="46.1" transform="matrix(0.6456 -0.7637 0.7637 0.6456 -29.9266 35.5161)" width="1.5" height="7.8"/>
	
				<path d="M29.8,55.5c-2.1-0.8-5-1.4-7.2-1.4l3.3-1.9l1.3-3.6C27.5,50.7,28.6,53.5,29.8,55.5z"/>

		<path d="M20,51.2h-1.5l-0.1,1c0.1,0,0.2,0,0.3,0c0.3,0,0.6,0.1,0.8,0.2c0.3,0.2,0.6,0.5,0.6,1c0,0.8-0.6,1.3-1.5,1.3
			c-0.4,0-0.8-0.1-1-0.2l0.1-0.4c0.2,0.1,0.5,0.2,0.8,0.2c0.5,0,0.9-0.3,0.9-0.8c0-0.5-0.3-0.9-1.1-0.9c-0.2,0-0.4,0-0.5,0l0.3-1.9
			H20V51.2z"/>


</svg>