<?xml version="1.0" encoding="utf-8"?>
<!-- Generator: Adobe Illustrator 26.2.1, SVG Export Plug-In . SVG Version: 6.00 Build 0)  -->
<svg version="1.1" xmlns="http://www.w3.org/2000/svg" xmlns:xlink="http://www.w3.org/1999/xlink" x="0px" y="0px"
	 viewBox="0 0 100 100" style="enable-background:new 0 0 100 100;" xml:space="preserve" width = "100px" height = "100px">
<style type="text/css">
	.st0{display:none;}
	.st1{display:inline;}
</style>

		<path d="M4.9,20.1h90.7V26H4.9V20.1z M79.4,34.1v5.7H20.6v-5.7H79.4z M20.6,53.5v-5.7h58.8v5.7H20.6z M78.1,6.4V12h-56V6.4H78.1z
			 M73.9,67.7H26.1v25.9h-6.6V61.8h61.2v31.4h-6.8"/>


		<path d="M27.5,71.2c1.2,0,12.5,0,12.5,0"/>

			<rect x="27.5" y="70.5" width="8" height="1.5"/>

				<path d="M40.1,71.2c-2.1,0.8-4.8,2.1-6.4,3.6l1.3-3.6l-1.3-3.6C35.3,69.1,37.9,70.4,40.1,71.2z"/>
	
		<path d="M29.9,74.4c-0.1,0-0.2,0-0.4,0c-0.8,0.1-1.3,0.7-1.4,1.4h0c0.2-0.2,0.5-0.4,0.9-0.4c0.7,0,1.2,0.5,1.2,1.3
			c0,0.7-0.5,1.4-1.3,1.4c-0.8,0-1.4-0.6-1.4-1.7c0-0.8,0.3-1.4,0.7-1.8c0.3-0.3,0.8-0.5,1.2-0.6c0.2,0,0.3,0,0.4,0V74.4z
			 M29.8,76.6c0-0.6-0.3-0.9-0.8-0.9c-0.3,0-0.6,0.2-0.8,0.5c0,0.1-0.1,0.1-0.1,0.2c0,0.6,0.3,1.1,0.9,1.1
			C29.5,77.5,29.8,77.2,29.8,76.6z"/>



 </svg>