<?xml version="1.0" encoding="utf-8"?>
<!-- Generator: Adobe Illustrator 26.2.1, SVG Export Plug-In . SVG Version: 6.00 Build 0)  -->
<svg version="1.1" xmlns="http://www.w3.org/2000/svg" xmlns:xlink="http://www.w3.org/1999/xlink" x="0px" y="0px"
	 viewBox="0 0 100 100" style="enable-background:new 0 0 100 100;" xml:space="preserve" width = "100px" height = "100px">
<style type="text/css">
	.st0{display:none;}
	.st1{display:inline;}
</style> 

		<path d="M94.9,21H53.1v11h36.4v56.3c0,4.2-1.1,6.2-4.2,7.2c-3.2,1-9,1.1-17.2,1c-0.5-1.8-1.5-4.3-2.5-6.1c3.4,0.1,6.6,0.2,9.2,0.2
			c7.4,0,7.8,0,7.8-2.3v-50H17.8v58h-6.7V32h35.1V21H5.1v-6.4h41.1V3.4l9,0.6c-0.1,0.7-0.7,1.2-2.1,1.4v9.2h41.8V21z M52.9,59.6
			 M37,54c-0.9-3.3-3.2-8.3-5.6-11.9l5.4-1.5c2.6,3.5,5,8.5,6,11.8L37.7,54"/>

		<line x1="29" y1="44.9" x2="31.8" y2="55.1"/>

			<rect x="29" y="44.7" transform="matrix(0.9652 -0.2616 0.2616 0.9652 -11.4717 9.453)" width="1.5" height="6.1"/>

				<path d="M31.8,55.1c-1.3-1.8-3.3-4-5.1-5.3l3.8,0.3l3.1-2.2C32.6,50,32,52.9,31.8,55.1z"/>

		<path d="M27,41.4h-1.5l-0.1,1c0.1,0,0.2,0,0.3,0c0.3,0,0.6,0.1,0.8,0.2c0.3,0.2,0.6,0.5,0.6,1c0,0.8-0.6,1.3-1.5,1.3
			c-0.4,0-0.8-0.1-1-0.2l0.1-0.4c0.2,0.1,0.5,0.2,0.8,0.2c0.5,0,0.9-0.3,0.9-0.8c0-0.5-0.3-0.9-1.1-0.9c-0.2,0-0.4,0-0.5,0l0.3-1.9
			H27V41.4z"/>

</svg>