<?xml version="1.0" encoding="utf-8"?>
<!-- Generator: Adobe Illustrator 26.2.1, SVG Export Plug-In . SVG Version: 6.00 Build 0)  -->
<svg version="1.1" xmlns="http://www.w3.org/2000/svg" xmlns:xlink="http://www.w3.org/1999/xlink" x="0px" y="0px"
	 viewBox="0 0 100 100" style="enable-background:new 0 0 100 100;" xml:space="preserve" width = "100px" height = "100px">
<style type="text/css">
	.st0{display:none;}
	.st1{display:inline;}
</style> 


		<path d="M86.2,60H43.1v36.5h-6.6v-33c-8.4,5.1-17.1,9-25.8,11.8c-0.7-1.7-2.5-4.6-3.8-5.9C19.8,65.6,33.3,58.8,45,49.5
			C41,45,34.5,39.4,28.8,35.4l5-4.1c5.7,3.8,12.4,9.2,16.5,13.7c8-7.2,14.8-15.7,19.5-25.1H38c-6.7,7.6-15.2,15.3-25.7,21.7
			c-1-1.6-3.2-4-4.8-5.1c16.3-9.3,28-22.4,33.9-33.2l9,1.5c-0.2,0.8-0.9,1.3-2.2,1.3c-1.5,2.5-3.3,5.1-5.3,7.7h30.8l1.2-0.4l4.9,2.6
			c-0.3,0.4-0.8,0.7-1.3,0.9c-6,14.6-16.2,27.1-28.2,36.9h42.8v42.9h-6.9"/>

		<path d="M44.8,64c0.4,0,15.6,0,15.6,0"/>

			<rect x="44.8" y="63.2" width="11.1" height="1.5"/>
	
				<path d="M60.4,64c-2.1,0.8-4.8,2.1-6.4,3.6l1.3-3.6L54,60.4C55.7,61.9,58.3,63.2,60.4,64z"/>

		<path d="M47.4,66.6H46l-0.1,1c0.1,0,0.2,0,0.3,0c0.3,0,0.6,0.1,0.8,0.2c0.3,0.2,0.6,0.5,0.6,1c0,0.8-0.6,1.3-1.5,1.3
			c-0.4,0-0.8-0.1-1-0.2l0.1-0.4c0.2,0.1,0.5,0.2,0.8,0.2c0.5,0,0.9-0.3,0.9-0.8c0-0.5-0.3-0.9-1.1-0.9c-0.2,0-0.4,0-0.5,0l0.3-1.9
			h1.9V66.6z"/>


</svg>