<?xml version="1.0" encoding="utf-8"?>
<!-- Generator: Adobe Illustrator 26.2.1, SVG Export Plug-In . SVG Version: 6.00 Build 0)  -->
<svg version="1.1" xmlns="http://www.w3.org/2000/svg" xmlns:xlink="http://www.w3.org/1999/xlink" x="0px" y="0px"
	 viewBox="0 0 100 100" style="enable-background:new 0 0 100 100;" xml:space="preserve" width = "100px" height = "100px">
<style type="text/css">
	.st0{display:none;}
	.st1{display:inline;}
</style>




	<rect x="17.2" y="27.6" class="st2" width="12.6" height="0"/>

		<path d="M44.8,40.2H15v54.1H8.4V5.7h36.4V40.2z M38.4,11H15v9.2h23.4V11z M15,34.9h23.4v-9.6H15V34.9z M91.6,5.7v79.2
			c0,8.9-3.9,9.3-21.2,9.3c-0.2-1.9-1.3-5.1-2.3-7c3.2,0.1,6.4,0.2,8.9,0.2c7.3,0,7.9,0,7.9-2.5V40.3H54.3V5.7H91.6z M84.9,40.3V11
			H60.8v29.3"/>

		<polygon points="81.4,22.3 79.9,22.3 79.9,13.6 62.3,13.6 62.3,12.1 81.4,12.1 		"/>
	
			<path d="M80.7,26.8c-0.8-2.1-2.1-4.8-3.6-6.4l3.6,1.3l3.6-1.3C82.8,22.1,81.4,24.7,80.7,26.8z"/>

		<path d="M64.8,16.7c-0.1,0-0.2,0-0.4,0c-0.8,0.1-1.3,0.7-1.4,1.4h0c0.2-0.2,0.5-0.4,0.9-0.4c0.7,0,1.2,0.5,1.2,1.3
			c0,0.7-0.5,1.4-1.3,1.4c-0.8,0-1.4-0.6-1.4-1.7c0-0.8,0.3-1.4,0.7-1.8c0.3-0.3,0.8-0.5,1.2-0.6c0.2,0,0.3,0,0.4,0V16.7z
			 M64.6,18.9c0-0.6-0.3-0.9-0.8-0.9c-0.3,0-0.6,0.2-0.8,0.5c0,0.1-0.1,0.1-0.1,0.2c0,0.6,0.3,1.1,0.9,1.1
			C64.3,19.9,64.6,19.5,64.6,18.9z"/>


 </svg>