<?xml version="1.0" encoding="utf-8"?>
<!-- Generator: Adobe Illustrator 26.2.1, SVG Export Plug-In . SVG Version: 6.00 Build 0)  -->
<svg version="1.1" xmlns="http://www.w3.org/2000/svg" xmlns:xlink="http://www.w3.org/1999/xlink" x="0px" y="0px"
	 viewBox="0 0 100 100" style="enable-background:new 0 0 100 100;" xml:space="preserve" width = "100px" height = "100px">
<style type="text/css">
	.st0{display:none;}
	.st1{display:inline;}
</style> 


		<path d="M53.2,21.9h37.4V69h-6.9v-5.9H53.2v33.3h-7V63.1H16.1v6.4H9.4V21.9h36.8V3.6l9,0.6c-0.1,0.7-0.7,1.2-2,1.4V21.9z
			 M16.1,56.4h30.1V28.5H16.1V56.4z M53.2,56.4h30.5V28.5H53.2V56.4z"/>

		<line x1="57.7" y1="4.8" x2="57.7" y2="17.9"/>
		
			<rect x="56.9" y="4.8" width="1.5" height="8.6"/>
			
				<path d="M57.7,17.9c-0.8-2.1-2.1-4.8-3.6-6.4l3.6,1.3l3.6-1.3C59.8,13.2,58.5,15.8,57.7,17.9z"/>

		<path d="M62.3,8.8V7.8h-1.8V7.4l1.7-2.5h0.6v2.4h0.5v0.4h-0.5v1.1H62.3z M62.3,7.3V6c0-0.2,0-0.4,0-0.6h0C62.1,5.7,62,5.8,61.9,6
			l-1,1.3v0H62.3z"/>


</svg>