<?xml version="1.0" encoding="utf-8"?>
<!-- Generator: Adobe Illustrator 26.2.1, SVG Export Plug-In . SVG Version: 6.00 Build 0)  -->
<svg version="1.1" xmlns="http://www.w3.org/2000/svg" xmlns:xlink="http://www.w3.org/1999/xlink" x="0px" y="0px"
	 viewBox="0 0 100 100" style="enable-background:new 0 0 100 100;" xml:space="preserve" width = "100px" height = "100px">
<style type="text/css">
	.st0{display:none;}
	.st1{display:inline;}
</style>


	<rect x="17.2" y="27.6" class="st2" width="12.6" height="0"/>
	
		<path d="M42.9,20.3v5.6h-40v-5.6H42.9z M32.7,84.9v-18H13.6v28.4h-6V61.2h31.2v29.4h-6.2 M7.7,39.4v-5.5h31.4v5.5H7.7z M7.7,53
			v-5.5h31.4V53H7.7z M39.1,7v5.5H8.2V7H39.1z M97.1,38.2v6.6H73.9v51.5h-6.8V44.8H42.9v-6.6h24.2V3.6l8.8,0.6
			c-0.1,0.7-0.6,1.2-2,1.4v32.6H97.1z"/>

		<polygon points="29.2,76.7 27.7,76.7 27.7,69.9 15.4,69.9 15.4,68.4 29.2,68.4 		"/>

			<path d="M28.5,81.2c-0.8-2.1-2.1-4.8-3.6-6.4l3.6,1.3l3.6-1.3C30.6,76.5,29.3,79.1,28.5,81.2z"/>
	

		<path d="M18.4,72.1c-0.1,0-0.2,0-0.4,0c-0.8,0.1-1.3,0.7-1.4,1.4h0c0.2-0.2,0.5-0.4,0.9-0.4c0.7,0,1.2,0.5,1.2,1.3
			c0,0.7-0.5,1.4-1.3,1.4c-0.8,0-1.4-0.6-1.4-1.7c0-0.8,0.3-1.4,0.7-1.8c0.3-0.3,0.8-0.5,1.2-0.6c0.2,0,0.3,0,0.4,0V72.1z
			 M18.2,74.3c0-0.6-0.3-0.9-0.8-0.9c-0.3,0-0.6,0.2-0.8,0.5c0,0.1-0.1,0.1-0.1,0.2c0,0.6,0.3,1.1,0.9,1.1
			C17.9,75.3,18.2,74.9,18.2,74.3z"/>
	

 </svg>