<?xml version="1.0" encoding="utf-8"?>
<!-- Generator: Adobe Illustrator 26.2.1, SVG Export Plug-In . SVG Version: 6.00 Build 0)  -->
<svg version="1.1" xmlns="http://www.w3.org/2000/svg" xmlns:xlink="http://www.w3.org/1999/xlink" x="0px" y="0px"
	 viewBox="0 0 100 100" style="enable-background:new 0 0 100 100;" xml:space="preserve" width = "100px" height = "100px">
<style type="text/css">
	.st0{display:none;}
	.st1{display:inline;}
</style> 

	<rect x="17.2" y="27.6" class="st2" width="12.6" height="0"/>

		<path d="M42.9,20.3v5.6h-40v-5.6H42.9z M13.6,61.2c0,0,0.2,28.5,0,29.4v4.7h-6V61.2 M7.7,39.4v-5.5h31.4v5.5H7.7z M7.7,53v-5.5
			h31.4V53H7.7z M39.1,7v5.5H8.2V7H39.1z M97.1,38.2v6.6H73.9v51.5h-6.8V44.8H42.9v-6.6h24.2V3.6l8.8,0.6c-0.1,0.7-0.6,1.2-2,1.4
			v32.6H97.1z"/>

		<line x1="17.2" y1="62" x2="17.2" y2="78.8"/>

			<rect x="16.4" y="62" width="1.5" height="12.3"/>
		
				<path d="M17.2,78.8c-0.8-2.1-2.1-4.8-3.6-6.4l3.6,1.3l3.6-1.3C19.3,74.1,18,76.7,17.2,78.8z"/>

		<path d="M23.3,62.9h-1.5l-0.1,1c0.1,0,0.2,0,0.3,0c0.3,0,0.6,0.1,0.8,0.2c0.3,0.2,0.6,0.5,0.6,1c0,0.8-0.6,1.3-1.5,1.3
			c-0.4,0-0.8-0.1-1-0.2l0.1-0.4c0.2,0.1,0.5,0.2,0.8,0.2c0.5,0,0.9-0.3,0.9-0.8c0-0.5-0.3-0.9-1.1-0.9c-0.2,0-0.4,0-0.5,0l0.3-1.9
			h1.9V62.9z"/>



</svg>