<?xml version="1.0" encoding="utf-8"?>
<!-- Generator: Adobe Illustrator 26.2.1, SVG Export Plug-In . SVG Version: 6.00 Build 0)  -->
<svg version="1.1" xmlns="http://www.w3.org/2000/svg" xmlns:xlink="http://www.w3.org/1999/xlink" x="0px" y="0px"
	 viewBox="0 0 100 100" style="enable-background:new 0 0 100 100;" xml:space="preserve" width = "100px" height = "100px">
<style type="text/css">
	.st0{display:none;}
	.st1{display:inline;}
</style> 


		<path d="M3,24.5v-5.7h36.7v5.7H3z M36.5,60.4v29.4h-23v4.7H7.6V60.4H36.5z M36.2,32.8v5.5H7.7v-5.5H36.2z M7.7,52.1v-5.5h28.5v5.5
			H7.7z M35.9,5.3v5.5H8.3V5.3H35.9z M30.5,66.1h-17v18h17V66.1z M87,43.9h10V50H40v-6.1h13.7c0.9-4.4,1.9-9.6,2.9-15.1h-11v-6h12
			c0.6-3.8,1.2-7.7,1.8-11.2H43.6v-6h49.7v6H65.9l-1.7,11.2H87V43.9z M83.5,64.4H54.3v30.3h-6.4V58.3H90v35.8h-6.5 M80.5,28.8H63.2
			c-0.9,5.4-1.9,10.7-2.8,15.1h20.1V28.8z"/>


		<line x1="55.3" y1="68.1" x2="66.5" y2="68.1"/>

			<rect x="55.3" y="67.3" width="6.7" height="1.5"/>

				<path d="M66.5,68.1c-2.1,0.8-4.8,2.1-6.4,3.6l1.3-3.6L60,64.5C61.7,65.9,64.3,67.3,66.5,68.1z"/>

		<path d="M56.5,73.1L56.5,73.1l-0.7,0.4l-0.1-0.4l0.9-0.5H57v3.9h-0.5V73.1z"/>
		<path d="M58.6,75.9c0.2,0.1,0.5,0.2,0.9,0.2c0.7,0,0.9-0.4,0.9-0.8c0-0.5-0.5-0.8-1-0.8H59v-0.4h0.3c0.4,0,0.9-0.2,0.9-0.7
			c0-0.3-0.2-0.6-0.7-0.6c-0.3,0-0.6,0.1-0.8,0.3l-0.1-0.4c0.2-0.1,0.6-0.3,1-0.3c0.8,0,1.1,0.5,1.1,0.9c0,0.4-0.2,0.7-0.7,0.9v0
			c0.5,0.1,0.9,0.5,0.9,1c0,0.6-0.5,1.2-1.4,1.2c-0.4,0-0.8-0.1-1-0.3L58.6,75.9z"/>


</svg>