<?xml version="1.0" encoding="utf-8"?>
<!-- Generator: Adobe Illustrator 26.2.1, SVG Export Plug-In . SVG Version: 6.00 Build 0)  -->
<svg version="1.1" xmlns="http://www.w3.org/2000/svg" xmlns:xlink="http://www.w3.org/1999/xlink" x="0px" y="0px"
	 viewBox="0 0 100 100" style="enable-background:new 0 0 100 100;" xml:space="preserve" width = "100px" height = "100px">
<style type="text/css">
	.st0{display:none;}
	.st1{display:inline;}
</style>
		<path d="M44.8,24.9c-0.1,0.4-0.7,0.8-1.2,1c-3.5,8.3-8.6,16.3-14.4,23.6c4.8,3.2,14.6,10.4,17.2,12.4l-4,5.6
			c-2.8-2.8-9.2-8.1-14.1-12v41h-6.7V58c-5.1,5.1-10.4,9.6-15.7,13.1c-0.7-1.7-2.5-4.7-3.6-5.9c12.6-7.8,25.9-21.7,33.1-36.4H4.9
			v-6.2h16.7V3.5L30.3,4c-0.1,0.7-0.7,1.2-2,1.4v17.2h10.8l1.2-0.4L44.8,24.9z M66.7,86.8V43.5H44.4V37h22.2V4.2l8.9,0.6
			c-0.1,0.7-0.7,1.2-2.1,1.4V37h22.1v6.5H73.5v43.3"/>

		<path d="M62.3,5.1c0,0,0,13.2,0,14.7"/>

		<rect x="61.6" y="5.1" width="1.5" height="10.2"/>
		
		<path d="M62.3,19.8c-0.8-2.1-2.1-4.8-3.6-6.4l3.6,1.3l3.6-1.3C64.5,15.1,63.1,17.7,62.3,19.8z"/>

		<path d="M59.2,5c-0.1,0-0.2,0-0.4,0c-0.8,0.1-1.3,0.7-1.4,1.4h0C57.7,6.2,58,6,58.4,6c0.7,0,1.2,0.5,1.2,1.3
			c0,0.7-0.5,1.4-1.3,1.4c-0.8,0-1.4-0.6-1.4-1.7c0-0.8,0.3-1.4,0.7-1.8c0.3-0.3,0.8-0.5,1.2-0.6c0.2,0,0.3,0,0.4,0V5z M59.1,7.3
			c0-0.6-0.3-0.9-0.8-0.9c-0.3,0-0.6,0.2-0.8,0.5c0,0.1-0.1,0.1-0.1,0.2c0,0.6,0.3,1.1,0.9,1.1C58.8,8.2,59.1,7.8,59.1,7.3z"/>

 </svg>