<?xml version="1.0" encoding="utf-8"?>
<!-- Generator: Adobe Illustrator 26.2.1, SVG Export Plug-In . SVG Version: 6.00 Build 0)  -->
<svg version="1.1" xmlns="http://www.w3.org/2000/svg" xmlns:xlink="http://www.w3.org/1999/xlink" x="0px" y="0px"
	 viewBox="0 0 100 100" style="enable-background:new 0 0 100 100;" xml:space="preserve" width = "100px" height = "100px">
<style type="text/css">
	.st0{display:none;}
	.st1{display:inline;}
</style> 



		<path d="M92.6,26.2v6.6H8.1v-6.6h38.1V5.8l8.9,0.6c-0.1,0.7-0.6,1.2-2,1.4v18.4H92.6z M28,38.3c5.2,13.5,8.8,30.7,9.4,42.2
			c-0.7,0-1.4,0.1-6.9,1.5c-0.4-11.3-4-28.7-8.9-42.1L28,38.3z"/>


		<path d="M19.8,49.8l-0.1-0.4c-0.7-2.6-1.6-5.3-2.5-7.8l1.4-0.5c0.9,2.6,1.8,5.3,2.5,7.9l0.1,0.4L19.8,49.8z"/>

			<path d="M21.7,54c-1.3-1.9-3.3-4.1-5.1-5.3l3.8,0.4l3.1-2.1C22.6,48.8,21.9,51.7,21.7,54z"/>

		<path d="M13.8,44.5c0.1,0.1,0.5,0.2,0.9,0.2c0.7,0,0.9-0.4,0.9-0.8c0-0.5-0.5-0.8-1-0.8h-0.3v-0.4h0.3c0.4,0,0.9-0.2,0.9-0.7
			c0-0.3-0.2-0.6-0.7-0.6c-0.3,0-0.6,0.1-0.8,0.3l-0.1-0.4c0.2-0.1,0.6-0.3,1-0.3c0.8,0,1.1,0.5,1.1,0.9c0,0.4-0.2,0.7-0.7,0.9v0
			c0.5,0.1,0.9,0.5,0.9,1c0,0.6-0.5,1.2-1.4,1.2c-0.4,0-0.8-0.1-1-0.3L13.8,44.5z"/>


</svg>