<?xml version="1.0" encoding="utf-8"?>
<!-- Generator: Adobe Illustrator 26.2.1, SVG Export Plug-In . SVG Version: 6.00 Build 0)  -->
<svg version="1.1" xmlns="http://www.w3.org/2000/svg" xmlns:xlink="http://www.w3.org/1999/xlink" x="0px" y="0px"
	 viewBox="0 0 100 100" style="enable-background:new 0 0 100 100;" xml:space="preserve" width = "100px" height = "100px">
<style type="text/css">
	.st0{display:none;}
	.st1{display:inline;}
</style>

	<rect x="17.2" y="27.6" class="st2" width="12.6" height="0"/>

		<path d="M33.8,10v66.2h-22v8.1H5.4V10H33.8z M27.5,16.2H11.8v23.5h15.7V16.2z M11.8,70h15.7V45.8H11.8V70z M61.7,35.6V21.9H39.9
			v-6h21.8V3.5L70.3,4c-0.1,0.7-0.7,1.2-2,1.4v10.5h22.3v6H68.3v13.7"/>

		<line x1="73.7" y1="4.1" x2="73.7" y2="13.7"/>
	
			<rect x="73" y="4.1" width="1.5" height="5"/>
	
				<path d="M73.7,13.7c-0.8-2.1-2.1-4.8-3.6-6.4l3.6,1.3l3.6-1.3C75.9,8.9,74.5,11.5,73.7,13.7z"/>

		<path d="M81.2,5.4c-0.1,0-0.2,0-0.4,0c-0.8,0.1-1.3,0.7-1.4,1.4h0c0.2-0.2,0.5-0.4,0.9-0.4c0.7,0,1.2,0.5,1.2,1.3
			c0,0.7-0.5,1.4-1.3,1.4c-0.8,0-1.4-0.6-1.4-1.7c0-0.8,0.3-1.4,0.7-1.8C79.8,5.2,80.3,5,80.8,5c0.2,0,0.3,0,0.4,0V5.4z M81,7.6
			c0-0.6-0.3-0.9-0.8-0.9c-0.3,0-0.6,0.2-0.8,0.5c0,0.1-0.1,0.1-0.1,0.2c0,0.6,0.3,1.1,0.9,1.1C80.7,8.6,81,8.2,81,7.6z"/>

 </svg>