<?xml version="1.0" encoding="utf-8"?>
<!-- Generator: Adobe Illustrator 26.2.1, SVG Export Plug-In . SVG Version: 6.00 Build 0)  -->
<svg version="1.1" xmlns="http://www.w3.org/2000/svg" xmlns:xlink="http://www.w3.org/1999/xlink" x="0px" y="0px"
	 viewBox="0 0 100 100" style="enable-background:new 0 0 100 100;" xml:space="preserve" width = "100px" height = "100px">
<style type="text/css">
	.st0{display:none;}
	.st1{display:inline;}
</style> 


		<path d="M23.7,30.1v-9.8l7.8,0.5c-0.1,0.7-0.7,1.1-1.9,1.3v8 M10.9,31.4c-1.1,1.1-2.2,2.2-3.4,3.3c-1.2-1.4-3.4-3.4-4.9-4.3
			c9.7-8.1,16.8-18.8,20.9-27l8.1,1.3c-0.2,0.7-0.7,1.1-1.8,1.3c6.5,4.6,14.1,11.2,17.9,15.6l-4.8,4.6C39.5,22,32.8,15.8,26.7,11
			c-3.7,6-8.5,12.8-14.5,19.1"/>

		<path d="M34,20.9c0,2.2,0,8.6,0,8.6"/>
	
			<rect x="33.2" y="20.9" width="1.5" height="4.1"/>
		
				<path d="M34,29.6c-0.8-2.1-2.1-4.8-3.6-6.4l3.6,1.3l3.6-1.3C36.1,24.8,34.8,27.4,34,29.6z"/>

		<path d="M30.7,19.7c0.1,0.1,0.5,0.2,0.9,0.2c0.7,0,0.9-0.4,0.9-0.8c0-0.5-0.5-0.8-1-0.8h-0.3v-0.4h0.3c0.4,0,0.9-0.2,0.9-0.7
			c0-0.3-0.2-0.6-0.7-0.6c-0.3,0-0.6,0.1-0.8,0.3l-0.1-0.4c0.2-0.1,0.6-0.3,1-0.3c0.8,0,1.1,0.5,1.1,0.9c0,0.4-0.2,0.7-0.7,0.9v0
			c0.5,0.1,0.9,0.5,0.9,1c0,0.6-0.5,1.2-1.4,1.2c-0.4,0-0.8-0.1-1-0.3L30.7,19.7z"/>



</svg>