<?xml version="1.0" encoding="utf-8"?>
<!-- Generator: Adobe Illustrator 26.2.1, SVG Export Plug-In . SVG Version: 6.00 Build 0)  -->
<svg version="1.1" xmlns="http://www.w3.org/2000/svg" xmlns:xlink="http://www.w3.org/1999/xlink" x="0px" y="0px"
	 viewBox="0 0 100 100" style="enable-background:new 0 0 100 100;" xml:space="preserve" width = "100px" height = "100px">
<style type="text/css">
	.st0{display:none;}
	.st1{display:inline;}
</style>


	<rect x="17.2" y="27.6" class="st0" width="12.6" height="0"/>

		<path d="M84.6,57l4,0.8c-0.1,0.6-0.3,1.4-0.5,2c-1.9,20-3.9,28-7.2,31.2c-2.7,2.5-5.6,2.7-10.3,2.7c-3.5,0-8.3-0.1-13.3-0.4
			c-0.1-1.9-0.9-4.5-2.2-6.2c6.8,0.6,13.5,0.7,15.8,0.7s3.4-0.1,4.5-1c2.3-2,4-8.5,5.6-23.5H48C43.1,77.1,33.1,88,7.6,93.8
			C7,92.1,5.3,89.3,4,87.9c22.2-4.6,31.9-13.2,36.7-24.6H6.6v-6.2h36.1c0.9-3.3,1.5-6.8,2-10.4H15.2V6.2h69.7v40.5H53.7
			c-0.3,0.5-1,0.8-2,1c-0.5,3.2-1.1,6.4-1.9,9.4H83L84.6,57z M21.9,12.1v11.5h24.4V12.1H21.9z M21.9,29.1v11.7h24.4V29.1H21.9z
			 M77.9,23.6V12.1H53v11.5H77.9z M77.9,40.8V29.1H53v11.7H77.9z"/>

		<path d="M55,51.6L53.6,51c0.4-1,0.7-2,1-3.1l1.5,0.4C55.8,49.4,55.4,50.5,55,51.6z"/>
	
			<path d="M52.3,55.3c0.2-2.3,0.2-5.2-0.3-7.3l2.6,2.7l3.8,0.4C56.3,52,53.9,53.8,52.3,55.3z"/>

		<path d="M62.1,49.6V50l-1.7,3.5h-0.5l1.7-3.4v0h-1.9v-0.4H62.1z"/>

 </svg>