<?xml version="1.0" encoding="utf-8"?>
<!-- Generator: Adobe Illustrator 26.2.1, SVG Export Plug-In . SVG Version: 6.00 Build 0)  -->
<svg version="1.1" xmlns="http://www.w3.org/2000/svg" xmlns:xlink="http://www.w3.org/1999/xlink" x="0px" y="0px"
	 viewBox="0 0 100 100" style="enable-background:new 0 0 100 100;" xml:space="preserve" width = "100px" height = "100px">
<style type="text/css">
	.st0{display:none;}
	.st1{display:inline;}
</style>

		<path d="M32.8,18.6c-0.2,0.7-1,1.1-2.2,1C26.2,30.3,18.1,44.5,9.1,53.8c-1.4-1.3-4.1-3.1-5.9-4.1c9-8.6,16.9-22.3,20.8-33.4
			L32.8,18.6z M46.3,3.5L55.2,4c-0.2,0.7-0.7,1.2-2,1.4v50c0,4.4-1.1,6.4-4.3,7.6c-3.2,1.1-8.7,1.2-17.3,1.2c-0.3-2-1.4-4.9-2.5-6.9
			c4.1,0.1,7.9,0.2,10.7,0.2c6,0,6.5,0,6.5-2.2V3.5z"/>


		<path d="M31.7,29.5l-1.4-0.6c1.1-2.7,1.9-5.4,2.5-8.3l1.5,0.3C33.7,23.9,32.8,26.7,31.7,29.5z"/>

			<path d="M29.1,33.3c0.1-2.3-0.1-5.2-0.7-7.3l2.8,2.6l3.8,0.2C33,29.8,30.7,31.7,29.1,33.3z"/>
	

		<path d="M35.7,23v-0.3l0.4-0.4c1-0.9,1.4-1.5,1.5-2c0-0.4-0.2-0.8-0.8-0.8c-0.4,0-0.6,0.2-0.8,0.3l-0.2-0.4
			c0.3-0.2,0.7-0.4,1.1-0.4c0.8,0,1.2,0.6,1.2,1.1c0,0.7-0.5,1.3-1.3,2.1l-0.3,0.3v0h1.8V23H35.7z"/>


</svg>