<?xml version="1.0" encoding="utf-8"?>
<!-- Generator: Adobe Illustrator 26.2.1, SVG Export Plug-In . SVG Version: 6.00 Build 0)  -->
<svg version="1.1" xmlns="http://www.w3.org/2000/svg" xmlns:xlink="http://www.w3.org/1999/xlink" x="0px" y="0px"
	 viewBox="0 0 100 100" style="enable-background:new 0 0 100 100;" xml:space="preserve" width = "100px" height = "100px">
<style type="text/css">
	.st0{display:none;}
	.st1{display:inline;}
</style> 

	<path class="st2" d="M56.9,88.2"/>

		<path d="M55,18v-7.6H35.6V5.3h25.2l-0.3,25.8H55v-8.2 M31.1,62.8v12.1H11.3v8.3h-6V8h25.8V61 M41.2,58.8 M24.9,14H11.3v23.7h13.6
			V14z M11.3,68.8h13.6v-25H11.3V68.8z"/>

		<path d="M50.9,23.7h-1.5v-6.5c0-1.3-1.1-2.4-2.4-2.4H35.6v-1.5H47c2.2,0,3.9,1.8,3.9,3.9V23.7z"/>

			<path d="M50.2,28.2c-0.8-2.1-2.1-4.8-3.6-6.4l3.6,1.3l3.6-1.3C52.3,23.4,51,26.1,50.2,28.2z"/>

		<path d="M38.2,17.4h-1.5l-0.1,1c0.1,0,0.2,0,0.3,0c0.3,0,0.6,0.1,0.8,0.2c0.3,0.2,0.6,0.5,0.6,1c0,0.8-0.6,1.3-1.5,1.3
			c-0.4,0-0.8-0.1-1-0.2l0.1-0.4c0.2,0.1,0.5,0.2,0.8,0.2c0.5,0,0.9-0.3,0.9-0.8c0-0.5-0.3-0.9-1.1-0.9c-0.2,0-0.4,0-0.5,0l0.3-1.9
			h1.9V17.4z"/>

</svg>