<?xml version="1.0" encoding="utf-8"?>
<!-- Generator: Adobe Illustrator 26.2.1, SVG Export Plug-In . SVG Version: 6.00 Build 0)  -->
<svg version="1.1" xmlns="http://www.w3.org/2000/svg" xmlns:xlink="http://www.w3.org/1999/xlink" x="0px" y="0px"
	 viewBox="0 0 100 100" style="enable-background:new 0 0 100 100;" xml:space="preserve" width = "100px" height = "100px">
<style type="text/css">
	.st0{display:none;}
	.st1{display:inline;}
</style>


		<path d="M93.3,20.1H26C21.4,29.2,15.6,37.3,9.3,43c-1.3-1.2-3.9-3.1-5.6-4.1C13,31.1,20.9,17.5,25.4,3.1l8.5,2.3
			c-0.2,0.7-1,1.1-2.2,1.1c-0.9,2.6-1.9,5.2-2.9,7.7h64.4V20.1z M41.2,76.3c-8.9,8.4-19.4,15.4-30.3,20.6c-1-1.4-3.2-3.8-4.7-5
			c10.7-4.7,21-11.3,29.7-19.5l4.8-4.7c4.8-5.1,9-10.7,12.3-16.6l7.8,3c-0.3,0.8-1.4,1-2.4,0.9c-3.4,5.9-7.6,11.4-12.4,16.5
			 M13.1,43.1h65.9c0.1,26.7,1.6,46.5,9.6,46.5c2.1,0,2.6-5.8,2.8-14.6c1.4,1.5,3.4,3.1,4.8,3.9c-0.7,12.8-2.1,17.3-8,17.3
			c-13.2,0-15.4-18.9-16-47.2H13.1V43.1z M83.5,34.4H24.7v-5.8h58.7V34.4z"/>


		<path d="M59.3,63.7L58,62.9c1.2-2,2.2-4.1,3-6.3l1.4,0.5C61.6,59.5,60.6,61.7,59.3,63.7z"/>

			<path d="M55.9,67c0.6-2.2,1.1-5.1,0.9-7.3l2.1,3.1l3.6,1.1C60.5,64.4,57.8,65.7,55.9,67z"/>

		<path d="M66.5,55H65l-0.1,1c0.1,0,0.2,0,0.3,0c0.3,0,0.6,0.1,0.8,0.2c0.3,0.2,0.6,0.5,0.6,1c0,0.8-0.6,1.3-1.5,1.3
			c-0.4,0-0.8-0.1-1-0.2l0.1-0.4c0.2,0.1,0.5,0.2,0.8,0.2c0.5,0,0.9-0.3,0.9-0.8c0-0.5-0.3-0.9-1.1-0.9c-0.2,0-0.4,0-0.5,0l0.3-1.9
			h1.9V55z"/>


 </svg>