<?xml version="1.0" encoding="utf-8"?>
<!-- Generator: Adobe Illustrator 26.2.1, SVG Export Plug-In . SVG Version: 6.00 Build 0)  -->
<svg version="1.1" xmlns="http://www.w3.org/2000/svg" xmlns:xlink="http://www.w3.org/1999/xlink" x="0px" y="0px"
	 viewBox="0 0 100 100" style="enable-background:new 0 0 100 100;" xml:space="preserve" width = "100px" height = "100px">
<style type="text/css">
	.st0{display:none;}
	.st1{display:inline;}
</style>


		<path d="M23.6,26.9l-7.5,7c-2.3,1.9-4.8,3.9-7.4,5.7c-1.1-1.6-3.4-3.8-5-5c13.9-9,24-21.5,29.4-31.4l8.8,1.5
			c-0.2,0.9-0.8,1.4-2.2,1.4l-2.6,4.1h24.1l1.1-0.3l5.3,3.3c-0.2,0.4-0.8,0.8-1.3,0.9c-2.1,3.8-5.4,8.7-8.8,12.8 M49.4,26.9
			c2.8-3.1,5.7-7.2,7.9-11H33c-2.7,3.6-5.9,7.3-9.4,11H49.4z"/>


		<path d="M48.6,23.2l-1.3-0.7l1.4-2.8c0.2-0.3,0.1-0.6,0-0.9c-0.2-0.3-0.5-0.5-0.8-0.5H34.2v-1.5h13.6c0.9,0,1.6,0.4,2.1,1.2
			c0.5,0.7,0.5,1.6,0.1,2.4L48.6,23.2z"/>

		<path d="M45.9,26.9c0.2-2.3,0.2-5.2-0.3-7.3l2.6,2.7l3.8,0.4C50,23.6,47.6,25.3,45.9,26.9z"/>

		<path d="M33.9,23.4v-0.3l0.4-0.4c1-0.9,1.4-1.5,1.5-2c0-0.4-0.2-0.8-0.8-0.8c-0.4,0-0.6,0.2-0.8,0.3L34,19.9
			c0.3-0.2,0.7-0.4,1.1-0.4c0.8,0,1.2,0.6,1.2,1.1c0,0.7-0.5,1.3-1.3,2.1L34.6,23v0h1.8v0.4H33.9z"/>


 </svg>