<?xml version="1.0" encoding="utf-8"?>
<!-- Generator: Adobe Illustrator 26.2.1, SVG Export Plug-In . SVG Version: 6.00 Build 0)  -->
<svg version="1.1" xmlns="http://www.w3.org/2000/svg" xmlns:xlink="http://www.w3.org/1999/xlink" x="0px" y="0px"
	 viewBox="0 0 100 100" style="enable-background:new 0 0 100 100;" xml:space="preserve" width = "100px" height = "100px">
<style type="text/css">
	.st0{display:none;}
	.st1{display:inline;}
</style> 

		<path d="M16.7,29.1v6.3v44.9v6.3v6.4h-6.5V29.1 M40.8,35.4 M34.2,13.4H4.6V6.9h90.8v6.5h-32h-6.8H40.8"/>

		<line x1="21.2" y1="29.9" x2="21.2" y2="43"/>

			<rect x="20.4" y="29.9" width="1.5" height="8.6"/>
	
		<path d="M21.2,43c-0.8-2.1-2.1-4.8-3.6-6.4l3.6,1.3l3.6-1.3C23.3,38.2,22,40.9,21.2,43z"/>


		<path d="M24.3,33.7v-0.3l0.4-0.4c1-0.9,1.4-1.5,1.5-2c0-0.4-0.2-0.8-0.8-0.8c-0.4,0-0.6,0.2-0.8,0.3l-0.2-0.4
			c0.3-0.2,0.7-0.4,1.1-0.4c0.8,0,1.2,0.6,1.2,1.1c0,0.7-0.5,1.3-1.3,2.1l-0.3,0.3v0h1.8v0.4H24.3z"/>

</svg>