<?xml version="1.0" encoding="utf-8"?>
<!-- Generator: Adobe Illustrator 26.2.1, SVG Export Plug-In . SVG Version: 6.00 Build 0)  -->
<svg version="1.1" xmlns="http://www.w3.org/2000/svg" xmlns:xlink="http://www.w3.org/1999/xlink" x="0px" y="0px"
	 viewBox="0 0 100 100" style="enable-background:new 0 0 100 100;" xml:space="preserve" width = "100px" height = "100px">
<style type="text/css">
	.st0{display:none;}
	.st1{display:inline;}
</style> 

		<path d="M34.3,66.3 M11.3,8v75.1h-6V8H11.3z"/>

	<linearGradient id="SVGID_1_" gradientUnits="userSpaceOnUse" x1="13.7666" y1="25.0941" x2="13.7666" y2="25.0941">
		<stop  offset="0" style="stop-color:#FFFFFF"/>
		<stop  offset="1" style="stop-color:#000000"/>
	</linearGradient>
	<line class="st4" x1="13.8" y1="9.4" x2="13.8" y2="40.8"/>

		
			<linearGradient id="SVGID_00000007415160482285317790000011302959035912079247_" gradientUnits="userSpaceOnUse" x1="18.2907" y1="22.7109" x2="18.2907" y2="22.7109">
			<stop  offset="0" style="stop-color:#FFFFFF"/>
			<stop  offset="1" style="stop-color:#000000"/>
		</linearGradient>
		<line style="fill:url(#SVGID_00000007415160482285317790000011302959035912079247_);" x1="18.3" y1="9.3" x2="18.3" y2="36.1"/>
	
			<rect x="17.5" y="9.3" width="1.5" height="22.2"/>
		
				<path d="M18.3,36.1c-0.8-2.1-2.1-4.8-3.6-6.4l3.6,1.3l3.6-1.3C20.4,31.3,19.1,34,18.3,36.1z"/>

		<path d="M23.6,10.8L23.6,10.8l-0.7,0.4l-0.1-0.4l0.9-0.5h0.4v3.9h-0.5V10.8z"/>

</svg>