<?xml version="1.0" encoding="utf-8"?>
<!-- Generator: Adobe Illustrator 26.2.1, SVG Export Plug-In . SVG Version: 6.00 Build 0)  -->
<svg version="1.1" xmlns="http://www.w3.org/2000/svg" xmlns:xlink="http://www.w3.org/1999/xlink" x="0px" y="0px"
	 viewBox="0 0 100 100" style="enable-background:new 0 0 100 100;" xml:space="preserve" width = "100px" height = "100px">
<style type="text/css">
	.st0{display:none;}
	.st1{display:inline;}
</style> 

		<path d="M7.9,8.2h84.1v83.7h-6.9v-4.6H14.5v4.6H7.9V8.2z M14.5,81.2h70.6v-67H14.5V81.2z M52.6,66.3h25.9v5.6H22.1v-5.6h24.1V48.8
			H26.6v-5.4h19.6V28.5H23.7V23h52.5v5.5H52.6v14.9h21.2v5.4H52.6V66.3z M69.9,64.5c-2.1-3-6.5-7.8-10.3-11.1l4.4-2.3
			c3.9,3.2,8.4,7.7,10.6,10.7L69.9,64.5z"/>

		<line x1="15.5" y1="90.8" x2="29.6" y2="90.8"/>
	
			<rect x="15.5" y="90.1" width="9.5" height="1.5"/>
		
				<path d="M29.6,90.8c-2.1,0.8-4.8,2.1-6.4,3.6l1.3-3.6l-1.3-3.6C24.8,88.7,27.4,90.1,29.6,90.8z"/>

</svg>