<?xml version="1.0" encoding="utf-8"?>
<!-- Generator: Adobe Illustrator 26.2.1, SVG Export Plug-In . SVG Version: 6.00 Build 0)  -->
<svg version="1.1" xmlns="http://www.w3.org/2000/svg" xmlns:xlink="http://www.w3.org/1999/xlink" x="0px" y="0px"
	 viewBox="0 0 100 100" style="enable-background:new 0 0 100 100;" xml:space="preserve" width = "100px" height = "100px">
<style type="text/css">
	.st0{display:none;}
	.st1{display:inline;}
</style>

	<rect x="17.2" y="27.6" class="st2" width="12.6" height="0"/>

		<path d="M20.5,6.4c5,7.2,10.3,16.8,12.4,22.9l-6.4,2.9c-2-6.1-7.1-16-12-23.3L20.5,6.4z M87.2,9.6c-0.2,0.6-1,0.9-2.2,0.9
			c-3.4,6.6-9,16.1-13.5,22c-0.1,0-5.7-2.6-5.7-2.6c4.5-6.3,10-16.5,13-23.8L87.2,9.6z"/>

		<path d="M80.8,27.9l-1.2-0.9l0.1-0.2c3-4.4,5.3-9.2,6.6-14.3l1.4,0.4c-1.4,5.3-3.7,10.2-6.8,14.8L80.8,27.9z"/>

			<path d="M77.4,31.1c0.7-2.2,1.2-5.1,1-7.3l2.1,3.2l3.6,1.1C82,28.6,79.3,29.9,77.4,31.1z"/>

		<path d="M89.2,18v-0.3l0.4-0.4c1-0.9,1.4-1.5,1.5-2c0-0.4-0.2-0.8-0.8-0.8c-0.4,0-0.6,0.2-0.8,0.3l-0.2-0.4
			c0.3-0.2,0.7-0.4,1.1-0.4c0.8,0,1.2,0.6,1.2,1.1c0,0.7-0.5,1.3-1.3,2.1l-0.3,0.3v0h1.8V18H89.2z"/>


 </svg>