<?xml version="1.0" encoding="utf-8"?>
<!-- Generator: Adobe Illustrator 26.2.1, SVG Export Plug-In . SVG Version: 6.00 Build 0)  -->
<svg version="1.1" xmlns="http://www.w3.org/2000/svg" xmlns:xlink="http://www.w3.org/1999/xlink" x="0px" y="0px"
	 viewBox="0 0 100 100" style="enable-background:new 0 0 100 100;" xml:space="preserve" width = "100px" height = "100px">
<style type="text/css">
	.st0{display:none;}
	.st1{display:inline;}
</style> 

	<rect x="17.2" y="27.6" class="st2" width="12.6" height="0"/>

		<path d="M7.4,49.1c-1-1.5-2.8-3.9-4.2-5.3C20.7,34.5,37.9,18.5,45.8,5l9.8,0.6c-0.2,0.8-1,1.3-2,1.5C63.3,20.5,81.3,35,96.8,42.5
			c-1.6,1.7-3.3,3.9-4.5,5.9C76.7,39.8,58.8,25.2,49.4,12c-5.3,8.1-14.2,17.2-24.5,25.3"/>

		<path d="M67.1,37.4c-6.9-4-13.3-9.3-19-15.8l1.1-0.8c5.6,6.4,11.8,11.6,18.6,15.5L67.1,37.4z"/>

		<path d="M71.1,38.7c-2.1-0.3-4.8-0.5-6.8-0.1l2.7-2.1l0.6-3.2C68.2,35.1,69.7,37.3,71.1,38.7z"/>

	
		<path d="M46.8,28.6v-0.3l0.4-0.4c1-0.9,1.4-1.5,1.5-2c0-0.4-0.2-0.8-0.8-0.8c-0.4,0-0.6,0.2-0.8,0.3L46.9,25
			c0.3-0.2,0.7-0.4,1.1-0.4c0.8,0,1.2,0.6,1.2,1.1c0,0.7-0.5,1.3-1.3,2.1l-0.3,0.3v0h1.8v0.4H46.8z"/>



</svg>