<?xml version="1.0" encoding="utf-8"?>
<!-- Generator: Adobe Illustrator 26.2.1, SVG Export Plug-In . SVG Version: 6.00 Build 0)  -->
<svg version="1.1" xmlns="http://www.w3.org/2000/svg" xmlns:xlink="http://www.w3.org/1999/xlink" x="0px" y="0px"
	 viewBox="0 0 100 100" style="enable-background:new 0 0 100 100;" xml:space="preserve" width = "100px" height = "100px">
<style type="text/css">
	.st0{display:none;}
	.st1{display:inline;}
</style>

		<path d="M41.3,56.2c-0.1,0.7-0.8,1.2-2.1,1.3c-2.6,17.6-7.5,31.5-30.9,38.9c-0.8-1.7-2.6-4.3-4.1-5.7C26,84.6,30.8,72.2,32.5,55.2
			L41.3,56.2z M59.5,54H5.4v-6.6h41V26.2H24.7C22.1,32,19.1,37.6,15.6,42c-1.5-1-4.1-2.5-5.8-3.2C16.8,30.2,22,16.6,24.5,6L33,8
			c-0.3,0.7-0.9,1-2.2,1c-0.9,3.2-2,6.9-3.5,10.7h19.1V3.5L55.2,4c-0.1,0.8-0.7,1.3-2,1.4v14.3h33.9v6.5H53.2v21.2h41.1V54h-28"/>

		<path d="M41.8,70.2l-1.4-0.5c0.3-1,0.6-2,0.9-3.1c0.7-2.7,1.1-5.6,1.2-8.4l1.5,0.1c-0.1,2.9-0.6,5.9-1.3,8.7
			C42.4,68.1,42.1,69.2,41.8,70.2z"/>

			<path d="M39.4,74.2c0-2.3-0.3-5.2-1-7.3l2.9,2.5l3.8,0.1C43.1,70.5,40.9,72.5,39.4,74.2z"/>

		<path d="M48.2,58.5h-1.5l-0.1,1c0.1,0,0.2,0,0.3,0c0.3,0,0.6,0.1,0.8,0.2c0.3,0.2,0.6,0.5,0.6,1c0,0.8-0.6,1.3-1.5,1.3
			c-0.4,0-0.8-0.1-1-0.2l0.1-0.4c0.2,0.1,0.5,0.2,0.8,0.2c0.5,0,0.9-0.3,0.9-0.8c0-0.5-0.3-0.9-1.1-0.9c-0.2,0-0.4,0-0.5,0l0.3-1.9
			h1.9V58.5z"/>
 </svg>