<?xml version="1.0" encoding="utf-8"?>
<!-- Generator: Adobe Illustrator 26.2.1, SVG Export Plug-In . SVG Version: 6.00 Build 0)  -->
<svg version="1.1" xmlns="http://www.w3.org/2000/svg" xmlns:xlink="http://www.w3.org/1999/xlink" x="0px" y="0px"
	 viewBox="0 0 100 100" style="enable-background:new 0 0 100 100;" xml:space="preserve" width = "100px" height = "100px">
<style type="text/css">
	.st0{display:none;}
	.st1{display:inline;}
</style> 


		<path d="M50.1,31.4c-6.2,32.1-20,53.4-37.9,64.8c-1.1-1.5-3.7-3.9-5.4-4.9C17.4,85,26.5,75.3,33.2,62.1c-4.2-4.1-11.1-9.2-17-12.6
			l3.7-4.7c5.5,3,11.9,7.3,16.3,11.1c3.6-8.7,6.4-18.7,8.2-30H23.5c-4,11.1-9.2,21-15.4,28c-1-1.3-3.3-3.4-4.7-4.5
			c9-10,15.7-27.5,19.5-45.8l8.3,2c-0.2,0.7-0.9,1.1-2.1,1.1c-1,4.3-2.1,8.6-3.4,12.8H47l1.3-0.3l4.3,1.8c-0.2,0.4-0.6,0.9-1,1.2
			l-0.9,5.7 M66.2,43.2V3.8l8.9,0.6c-0.1,0.7-0.7,1.2-2,1.4v44.4V59v37.5h-6.9"/>

		<line x1="77.8" y1="6.9" x2="77.8" y2="21.3"/>
	
			<rect x="77" y="6.9" width="1.5" height="9.9"/>
		
				<path d="M77.8,21.3c-0.8-2.1-2.1-4.8-3.6-6.4l3.6,1.3l3.6-1.3C79.9,16.5,78.5,19.2,77.8,21.3z"/>

		<path d="M82.3,10.9V9.9h-1.8V9.5L82.2,7h0.6v2.4h0.5v0.4h-0.5v1.1H82.3z M82.3,9.4V8.1c0-0.2,0-0.4,0-0.6h0
			c-0.1,0.2-0.2,0.4-0.3,0.6l-1,1.3v0H82.3z"/>



</svg>