<?xml version="1.0" encoding="utf-8"?>
<!-- Generator: Adobe Illustrator 26.2.1, SVG Export Plug-In . SVG Version: 6.00 Build 0)  -->
<svg version="1.1" xmlns="http://www.w3.org/2000/svg" xmlns:xlink="http://www.w3.org/1999/xlink" x="0px" y="0px"
	 viewBox="0 0 100 100" style="enable-background:new 0 0 100 100;" xml:space="preserve" width = "100px" height = "100px">
<style type="text/css">
	.st0{display:none;}
	.st1{display:inline;}
</style>


		<path d="M52.8,55.1h42.4v5.1H4.7v-5.1h41.4v-6.5H11.7v-4.7h34.4v-6.1H14.8v-4.6h31.3v-6.5H5v-5.1h41.1v-6.3H15.9v-4.7h30.2V3.3
			l8.7,0.6c-0.1,0.7-0.6,1.1-2,1.3v5.4h28.9v11h13v5.1h-13v11.1H52.8v6.1h35.2v4.7H52.8V55.1z M24.4,65.3v4.9v6.6v4.6v6.9v4.9v3.5
			h-6.5V65.3 M52.8,15.3v6.3h22.2v-6.3H52.8z M52.8,26.7v6.5h22.2v-6.5H52.8z"/>

		<rect x="27.4" y="66.1" width="1.5" height="7.3"/>

			<path d="M28.1,77.9c-0.8-2.1-2.1-4.8-3.6-6.4l3.6,1.3l3.6-1.3C30.3,73.2,28.9,75.8,28.1,77.9z"/>
	
		<path d="M33.4,65.4v0.3l-1.7,3.5h-0.5l1.7-3.4v0h-1.9v-0.4H33.4z"/>


 </svg>