<?xml version="1.0" encoding="utf-8"?>
<!-- Generator: Adobe Illustrator 26.2.1, SVG Export Plug-In . SVG Version: 6.00 Build 0)  -->
<svg version="1.1" xmlns="http://www.w3.org/2000/svg" xmlns:xlink="http://www.w3.org/1999/xlink" x="0px" y="0px"
	 viewBox="0 0 100 100" style="enable-background:new 0 0 100 100;" xml:space="preserve" width = "100px" height = "100px">
<style type="text/css">
	.st0{display:none;}
	.st1{display:inline;}
</style> 

	<path class="st2" d="M56.9,88.2"/>

		<path d="M24.9,14H11.3v23.7h13.6V14z M11.3,68.8h13.6v-25H11.3V68.8z M63.4,59.2v-7.7h-16v7.7H63.4z M69.4,77v8.2l-6,0V64.1h-16
			v30.6h-6.2V58.8c-2.2,2.8-4.5,5.3-6.8,7.5c-0.7-0.9-2-2.4-3.2-3.5v12.1H11.3v8.3h-6V8h25.8V61c6.8-6.7,13-16.3,16.4-24.7H35.4
			v-5.1H55v-8.2H37.4V18H55v-7.6H35.6V5.3h25.2v30.9h-8.1l3,0.9c-0.2,0.7-0.9,1.1-2,1c-1.1,2.5-2.5,5.1-4,7.9h14
			c1.5-3.1,3.1-6.9,4.1-9.8h-2.7v-5.1h20v-8.2H67.1V18h18.1v-7.6H65.4V5.3h25.9v30.9H70.2l5.6,1.6c-0.3,0.6-1,1-2.1,1
			c-1,2-2.3,4.7-3.7,7.2h22.1v5.4H69.4v7.7h20v4.9h-20v8"/>

		<line x1="48.7" y1="68.8" x2="59.6" y2="68.8"/>

			<rect x="48.7" y="68" width="6.4" height="1.5"/>
	
				<path d="M59.6,68.8c-2.1,0.8-4.8,2.1-6.4,3.6l1.3-3.6l-1.3-3.6C54.8,66.6,57.5,68,59.6,68.8z"/>

		<path d="M50.7,74.5L50.7,74.5L50,74.8l-0.1-0.4l0.9-0.5h0.4v3.9h-0.5V74.5z"/>
		<path d="M54.9,74.3c-0.1,0-0.2,0-0.4,0c-0.8,0.1-1.3,0.7-1.4,1.4h0c0.2-0.2,0.5-0.4,0.9-0.4c0.7,0,1.2,0.5,1.2,1.3
			c0,0.7-0.5,1.4-1.3,1.4c-0.8,0-1.4-0.6-1.4-1.7c0-0.8,0.3-1.4,0.7-1.8c0.3-0.3,0.8-0.5,1.2-0.6c0.2,0,0.3,0,0.4,0V74.3z
			 M54.7,76.6c0-0.6-0.3-0.9-0.8-0.9c-0.3,0-0.6,0.2-0.8,0.5c0,0.1-0.1,0.1-0.1,0.2c0,0.6,0.3,1.1,0.9,1.1
			C54.4,77.5,54.7,77.1,54.7,76.6z"/>

</svg>