<?xml version="1.0" encoding="utf-8"?>
<!-- Generator: Adobe Illustrator 26.2.1, SVG Export Plug-In . SVG Version: 6.00 Build 0)  -->
<svg version="1.1" xmlns="http://www.w3.org/2000/svg" xmlns:xlink="http://www.w3.org/1999/xlink" x="0px" y="0px"
	 viewBox="0 0 100 100" style="enable-background:new 0 0 100 100;" xml:space="preserve" width = "100px" height = "100px">
<style type="text/css">
	.st0{display:none;}
	.st1{display:inline;}
</style> 


		<path d="M55.6,3.8c-0.3,0.8-1.1,1.3-2.1,1.5c9.8,13.6,27.9,27,43.6,33.8c-1.6,1.6-3.2,4-4.3,6c-15.9-7.8-33.9-21.5-43.5-35
			C41,22.5,24.3,36.7,6.8,45.5c-0.8-1.4-2.5-4-3.9-5.4c17.6-8.5,34.9-23.5,42.8-36.9L55.6,3.8z M79.2,89.8
			c-24.3,1.3-50.1,2.4-66.1,2.9c-0.2,0.9-0.8,1.3-1.6,1.4l-2.5-8c4.2,0,9.1-0.1,14.6-0.3c4.1-7.2,8.8-17,11.9-24.8H8.1v-6.4H92V61
			H43.9l1.2,0.4c-0.3,0.7-1.1,1-2.4,1.1c-3,6.8-7.5,15.8-11.8,23.2c13.3-0.3,28.8-0.8,44-1.3 M25.2,35.1h48.5v6.3H25.2V35.1z"/>


		<path d="M56.3,81.7H37.9l-0.2-0.3c-0.3-0.5-0.3-0.5,4.2-10.9c1.3-3,2.8-6.4,2.9-6.8l0.6,0.2l0.8-0.3c0.1,0.4,0.1,0.4-3,7.5
			c-1.4,3.2-3.2,7.3-3.9,9.1h17V81.7z"/>

			<path d="M60.8,80.9c-2.1,0.8-4.8,2.1-6.4,3.6l1.3-3.6l-1.3-3.6C56,78.8,58.7,80.2,60.8,80.9z"/>

		<path d="M49.3,63.6h-1.5l-0.1,1c0.1,0,0.2,0,0.3,0c0.3,0,0.6,0.1,0.8,0.2c0.3,0.2,0.6,0.5,0.6,1c0,0.8-0.6,1.3-1.5,1.3
			c-0.4,0-0.8-0.1-1-0.2l0.1-0.4c0.2,0.1,0.5,0.2,0.8,0.2c0.5,0,0.9-0.3,0.9-0.8c0-0.5-0.3-0.9-1.1-0.9c-0.2,0-0.4,0-0.5,0l0.3-1.9
			h1.9V63.6z"/>

</svg>