<?xml version="1.0" encoding="utf-8"?>
<!-- Generator: Adobe Illustrator 26.2.1, SVG Export Plug-In . SVG Version: 6.00 Build 0)  -->
<svg version="1.1" xmlns="http://www.w3.org/2000/svg" xmlns:xlink="http://www.w3.org/1999/xlink" x="0px" y="0px"
	 viewBox="0 0 100 100" style="enable-background:new 0 0 100 100;" xml:space="preserve" width = "100px" height = "100px">
<style type="text/css">
	.st0{display:none;}
	.st1{display:inline;}
</style> 

	<rect x="17.2" y="27.6" class="st1" width="12.6" height="0"/>

		<path d="M17.9,39C14.1,45,10,50.5,5.8,55.1c-0.6-1.6-2.4-4.7-3.5-6.3c9.8-10.4,19.6-27.7,25.6-45l7.9,2.7c-0.3,0.7-1,1-2.3,0.9
			c-2.7,7.3-6,14.5-9.6,21.4l2.5,0.7c-0.1,0.7-0.6,1.1-1.9,1.3v65.4h-6.6V39z M97.7,13.1v6.5H90v66.6c0,5.1-1.3,7.2-4.9,8.3
			c-3.6,1.2-10.2,1.3-20.3,1.3c-0.3-2-1.4-4.9-2.5-7c4.6,0.2,9,0.2,12.4,0.2c8.3,0,8.7,0,8.7-2.8V19.6H34.5v-6.5H97.7z M44,34.6
			v34.7v7.2h-6.2V34.6H44z"/>

		<line x1="48.8" y1="35.7" x2="48.8" y2="51"/>
	
			<rect x="48" y="35.7" width="1.5" height="10.7"/>
	
				<path d="M48.8,51c-0.8-2.1-2.1-4.8-3.6-6.4l3.6,1.3l3.6-1.3C50.9,46.2,49.6,48.8,48.8,51z"/>

		<path d="M55.7,36.5h-1.5l-0.2,1c0.1,0,0.2,0,0.3,0c0.3,0,0.6,0.1,0.8,0.2c0.3,0.2,0.6,0.5,0.6,1c0,0.8-0.6,1.3-1.5,1.3
			c-0.4,0-0.8-0.1-1-0.2l0.1-0.4c0.2,0.1,0.5,0.2,0.8,0.2c0.5,0,0.9-0.3,0.9-0.8c0-0.5-0.3-0.9-1.1-0.9c-0.2,0-0.4,0-0.5,0l0.3-1.9
			h1.9V36.5z"/>

</svg>