<?xml version="1.0" encoding="utf-8"?>
<!-- Generator: Adobe Illustrator 26.2.1, SVG Export Plug-In . SVG Version: 6.00 Build 0)  -->
<svg version="1.1" xmlns="http://www.w3.org/2000/svg" xmlns:xlink="http://www.w3.org/1999/xlink" x="0px" y="0px"
	 viewBox="0 0 100 100" style="enable-background:new 0 0 100 100;" xml:space="preserve" width = "100px" height = "100px">
<style type="text/css">
	.st0{display:none;}
	.st1{display:inline;}
</style> 


		<path d="M37.4,30.2h-6.3l7.1,2.5c-0.2,0.7-1,1-2.2,1c-2.4,4.9-5.2,9.8-8.3,14.4l3,0.8c-0.2,0.6-0.8,1.1-2,1.2v46.3h-6.6V56.2
			C17.7,61.8,13,66.9,8.2,71c-1.2-1.2-3.5-3.4-5-4.5c10.3-8.3,20.8-22.3,27-36.5l0.5,0.2V21H6.1v-6.5h24.6v-11L39.3,4
			c-0.1,0.7-0.6,1.2-1.9,1.4v9.1h26.6v-11L72.8,4c-0.1,0.8-0.7,1.2-2,1.4v9.1h24.4V21H70.8v9.8h-6.7V21H37.4V30.2z M58.5,57.4"/>


		<line x1="33.3" y1="51" x2="33.3" y2="61.8"/>

			<rect x="32.6" y="51" width="1.5" height="6.3"/>
	
				<path d="M33.3,61.8c-0.8-2.1-2.1-4.8-3.6-6.4l3.6,1.3l3.6-1.3C35.5,57,34.1,59.7,33.3,61.8z"/>
	

		<path d="M37.7,48.5h-1.5l-0.1,1c0.1,0,0.2,0,0.3,0c0.3,0,0.6,0.1,0.8,0.2c0.3,0.2,0.6,0.5,0.6,1c0,0.8-0.6,1.3-1.5,1.3
			c-0.4,0-0.8-0.1-1-0.2l0.1-0.4c0.2,0.1,0.5,0.2,0.8,0.2c0.5,0,0.9-0.3,0.9-0.8c0-0.5-0.3-0.9-1.1-0.9c-0.2,0-0.4,0-0.5,0l0.3-1.9
			h1.9V48.5z"/>



</svg>