<?xml version="1.0" encoding="utf-8"?>
<!-- Generator: Adobe Illustrator 26.2.1, SVG Export Plug-In . SVG Version: 6.00 Build 0)  -->
<svg version="1.1" xmlns="http://www.w3.org/2000/svg" xmlns:xlink="http://www.w3.org/1999/xlink" x="0px" y="0px"
	 viewBox="0 0 100 100" style="enable-background:new 0 0 100 100;" xml:space="preserve" width = "100px" height = "100px">
<style type="text/css">
	.st0{display:none;}
	.st1{display:inline;}
</style>

		<path d="M44.9,38.6h-30v55.7H8.2V5.7h36.6V38.6z M38.4,10.9H14.8v8.5h23.6V10.9z M14.8,33.4h23.6v-9H14.8V33.4z M61.1,83.5
			c-13.3,1-26.6,1.8-35.1,2.3c-0.1,0.8-0.8,1.2-1.4,1.3l-1.8-6.7l9.2-0.4V49.7H24v-5.1H75v5.1h-37v6.5h23.1 M61.1,67.4v-6.7H37.9
			v6.7H61.1z M37.9,71.9v7.8c7.1-0.3,15.1-0.7,23.1-1.2v-6.6H37.9z M91.8,5.7v79.4c0,8.6-4,9-19.2,9c-0.2-1.9-1.2-5-2.2-6.9
			c3.4,0.1,6.6,0.2,9,0.2c5.2,0,5.8,0,5.8-2.3V38.7H54.3v-33H91.8z M85.2,10.9H60.8v8.5h24.4V10.9z M60.8,33.5h24.4v-9.1H60.8V33.5z
			"/>


		<line x1="26.6" y1="89.5" x2="41.7" y2="88.1"/>
	
			
				<rect x="26.6" y="88.3" transform="matrix(0.9957 -9.241330e-02 9.241330e-02 0.9957 -8.0913 3.3307)" width="10.6" height="1.5"/>
		
				<path d="M41.7,88.1c-2,1-4.6,2.6-6.1,4.1l1-3.7L35,85.2C36.7,86.4,39.5,87.5,41.7,88.1z"/>

		<path d="M28,92L28,92l-0.7,0.4L27.2,92l0.9-0.5h0.4v3.9H28V92z"/>
		<path d="M30,94.8c0.1,0.1,0.5,0.2,0.9,0.2c0.7,0,0.9-0.4,0.9-0.8c0-0.5-0.5-0.8-1-0.8h-0.3v-0.4h0.3c0.4,0,0.9-0.2,0.9-0.7
			c0-0.3-0.2-0.6-0.7-0.6c-0.3,0-0.6,0.1-0.8,0.3L30,91.7c0.2-0.1,0.6-0.3,1-0.3c0.8,0,1.1,0.5,1.1,0.9c0,0.4-0.2,0.7-0.7,0.9v0
			c0.5,0.1,0.9,0.5,0.9,1c0,0.6-0.5,1.2-1.4,1.2c-0.4,0-0.8-0.1-1-0.3L30,94.8z"/>


 </svg>