<?xml version="1.0" encoding="utf-8"?>
<!-- Generator: Adobe Illustrator 26.2.1, SVG Export Plug-In . SVG Version: 6.00 Build 0)  -->
<svg version="1.1" xmlns="http://www.w3.org/2000/svg" xmlns:xlink="http://www.w3.org/1999/xlink" x="0px" y="0px"
	 viewBox="0 0 100 100" style="enable-background:new 0 0 100 100;" xml:space="preserve" width = "100px" height = "100px">
<style type="text/css">
	.st0{display:none;}
	.st1{display:inline;}
</style> 

		<path d="M46.2,68.4 M53.1,68 M53.1,13.3h41.3v6.4H5.9v-6.4h40.2 M40.3,65.7H14.8V28.8h31.3h6.9h33v36.9H59 M79.3,60.3V49.8H21.4
			v10.5 M79.3,44.6V34.3H21.4v10.3"/>

		<line x1="15.7" y1="70.1" x2="32.8" y2="70.1"/>

			<rect x="15.7" y="69.4" width="12.6" height="1.5"/>
			
				<path d="M32.8,70.1c-2.1,0.8-4.8,2.1-6.4,3.6l1.3-3.6l-1.3-3.6C28,68,30.7,69.3,32.8,70.1z"/>
		


		<path d="M15.6,72.1h-1.5l-0.1,1c0.1,0,0.2,0,0.3,0c0.3,0,0.6,0.1,0.8,0.2c0.3,0.2,0.6,0.5,0.6,1c0,0.8-0.6,1.3-1.5,1.3
			c-0.4,0-0.8-0.1-1-0.2l0.1-0.4c0.2,0.1,0.5,0.2,0.8,0.2c0.5,0,0.9-0.3,0.9-0.8c0-0.5-0.3-0.9-1.1-0.9c-0.2,0-0.4,0-0.5,0l0.3-1.9
			h1.9V72.1z"/>


</svg>