<?xml version="1.0" encoding="utf-8"?>
<!-- Generator: Adobe Illustrator 26.2.1, SVG Export Plug-In . SVG Version: 6.00 Build 0)  -->
<svg version="1.1" xmlns="http://www.w3.org/2000/svg" xmlns:xlink="http://www.w3.org/1999/xlink" x="0px" y="0px"
	 viewBox="0 0 100 100" style="enable-background:new 0 0 100 100;" xml:space="preserve" width = "100px" height = "100px">
<style type="text/css">
	.st0{display:none;}
	.st1{display:inline;}
</style> 


		<path d="M37.2,20v5.6H2.8V20H37.2z M34.3,60.8v29.3H12.8v4.8H7V60.8H34.3z M7.1,39.1v-5.5h27.2v5.5H7.1z M7.1,52.7v-5.5h27.2v5.5
			H7.1z M33.9,6.7v5.5H7.6V6.7H33.9z M28.5,66.4H12.8v18h15.7V66.4z"/>

		<line x1="18" y1="94.1" x2="32.5" y2="94.1"/>
	
			<rect x="18" y="93.4" width="10" height="1.5"/>
		
				<path d="M32.5,94.1c-2.1,0.8-4.8,2.1-6.4,3.6l1.3-3.6l-1.3-3.6C27.7,92,30.4,93.3,32.5,94.1z"/>
	
		<path d="M17.2,91.9v0.3l-1.7,3.5H15l1.7-3.4v0h-1.9v-0.4H17.2z"/>


</svg>