<?xml version="1.0" encoding="utf-8"?>
<!-- Generator: Adobe Illustrator 26.2.1, SVG Export Plug-In . SVG Version: 6.00 Build 0)  -->
<svg version="1.1" xmlns="http://www.w3.org/2000/svg" xmlns:xlink="http://www.w3.org/1999/xlink" x="0px" y="0px"
	 viewBox="0 0 100 100" style="enable-background:new 0 0 100 100;" xml:space="preserve" width = "100px" height = "100px">
<style type="text/css">
	.st0{display:none;}
	.st1{display:inline;}
</style>

		<path d="M53.1,55.2l0.1,41.2h-7V59.1C36.2,72.7,21.4,85,7.7,91.8c-1.1-1.7-3.2-4.3-4.9-5.7c13.9-6,29.1-18.3,38.5-31H4.9v-6.4
			h41.3V22.5H9.8V16h36.4V3.6l9,0.6c-0.1,0.7-0.6,1.2-2,1.4V16h37.3v6.5H53.2v26.2h41.6v6.4H58.5 M27.7,47.4
			c-1.4-5.3-5.4-13.6-9.4-19.7l5.9-2.2c4.1,6,8.4,14,9.9,19.3L27.7,47.4z M84.6,27.9c-0.4,0.6-1.1,0.9-2.3,0.9
			c-2.7,5.6-7.3,13.7-11,19c0-0.1-5.7-2.5-5.7-2.5c3.6-5.4,8.2-14.3,10.7-20.5L84.6,27.9z"/>

			<path class="st2" d="M32.4,60.1c-1.2,1.5-2.6,3.2-4.4,4.8"/>
		
				<path d="M24.6,67.9c1.1-2,2.2-4.8,2.5-6.9l1.4,3.5l3.3,1.8C29.6,66.3,26.7,67.1,24.6,67.9z"/>
	
	<text transform="matrix(0.9976 -6.971432e-02 6.971432e-02 0.9976 28.5184 59.738)" class="st1 st3 st4">6</text>

 </svg>