<?xml version="1.0" encoding="utf-8"?>
<!-- Generator: Adobe Illustrator 26.2.1, SVG Export Plug-In . SVG Version: 6.00 Build 0)  -->
<svg version="1.1" xmlns="http://www.w3.org/2000/svg" xmlns:xlink="http://www.w3.org/1999/xlink" x="0px" y="0px"
	 viewBox="0 0 100 100" style="enable-background:new 0 0 100 100;" xml:space="preserve" width = "100px" height = "100px">
<style type="text/css">
	.st0{display:none;}
	.st1{display:inline;}
</style> 

		<path d="M3,88.3 M41.4,12.3v20.6c0,14-1.2,33.8-9.6,47.4c-1.2-1.2-3.9-2.9-5.4-3.7c8-12.8,8.8-30.6,8.8-43.7V6.6h54.5v67.4
			c0,7.5-3.8,7.7-17.4,7.7c-0.2-1.7-1.1-4.3-1.9-5.8c2.6,0,5,0.1,6.9,0.1c5.5,0,6.1,0,6.1-2V12.3H41.4z M45.4,35.7H59V27H46.4v-5.1
			H59v-8.2l7.7,0.5c-0.1,0.7-0.6,1.1-1.9,1.3v6.4h13.7V27H64.8v8.7h14.8v5.1H45.4V35.7z"/>

	<rect x="17.2" y="27.6" class="st2" width="12.6" height="0"/>

		<path d="M47.1,46.2c0.4,0,30.6,0,30.6,0"/>

			<rect x="47.1" y="45.5" width="26.1" height="1.5"/>

				<path d="M77.7,46.2c-2.1,0.8-4.8,2.1-6.4,3.6l1.3-3.6l-1.3-3.6C73,44.1,75.6,45.5,77.7,46.2z"/>

		<path d="M49.7,49.7h-1.5l-0.1,1c0.1,0,0.2,0,0.3,0c0.3,0,0.6,0.1,0.8,0.2c0.3,0.2,0.6,0.5,0.6,1c0,0.8-0.6,1.3-1.5,1.3
			c-0.4,0-0.8-0.1-1-0.2l0.1-0.4c0.2,0.1,0.5,0.2,0.8,0.2c0.5,0,0.9-0.3,0.9-0.8c0-0.5-0.3-0.9-1.1-0.9c-0.2,0-0.4,0-0.5,0l0.3-1.9
			h1.9V49.7z"/>

</svg>