<?xml version="1.0" encoding="utf-8"?>
<!-- Generator: Adobe Illustrator 26.2.1, SVG Export Plug-In . SVG Version: 6.00 Build 0)  -->
<svg version="1.1" xmlns="http://www.w3.org/2000/svg" xmlns:xlink="http://www.w3.org/1999/xlink" x="0px" y="0px"
	 viewBox="0 0 100 100" style="enable-background:new 0 0 100 100;" xml:space="preserve" width = "100px" height = "100px">
<style type="text/css">
	.st0{display:none;}
	.st1{display:inline;}
</style> 

	<path class="st0" d="M56.9,88.2"/>
	
		<path d="M38.4,78.9c0,6.1,1.4,7.5,8.3,7.5h24.9c6.9,0,7.9-3.7,8.8-18.8c1.8,1.3,4.7,2.6,6.8,3.1C85.9,87.4,83.6,93,71.8,93H46.5
			c-11.7,0-15.2-2.9-15.2-14.3V46.1L3.8,50.5l-1.2-6.6l28.7-4.7V5.5l9.1,0.6c-0.1,0.7-0.6,1.2-2,1.4v30.6l54.3-8.9l1.1,6.8
			l-55.4,8.9V78.9z"/>

		<path d="M56.7,83.6c-4.3,0-8.5-0.5-11.4-1.7c-3.7-1.6-4.5-3.9-4.5-5.6c0-4.1-0.1-8.3-0.2-12c-0.1-5.7-0.3-10.7-0.1-13.5l1.5,0.1
			c-0.1,2.7,0,7.7,0.1,13.4c0.1,3.7,0.2,7.9,0.2,12c0,1.8,1.2,3.2,3.6,4.2c8,3.3,24.3,0.8,26.4-1.3c0.7-0.7,1.9-3.7,2.4-7.5l1.5,0.2
			c-0.4,3.6-1.6,7.3-2.8,8.5C71.5,82.1,64,83.6,56.7,83.6z"/>
	
			<path d="M75.5,67.2c0.8,2.1,2.1,4.8,3.5,6.5l-3.5-1.3l-3.6,1.2C73.2,72,74.6,69.3,75.5,67.2z"/>

		<path d="M44.5,55.8v-0.3l0.4-0.4c1-0.9,1.4-1.5,1.5-2c0-0.4-0.2-0.8-0.8-0.8c-0.4,0-0.6,0.2-0.8,0.3l-0.2-0.4
			c0.3-0.2,0.7-0.4,1.1-0.4c0.8,0,1.2,0.6,1.2,1.1c0,0.7-0.5,1.3-1.3,2.1l-0.3,0.3v0H47v0.4H44.5z"/>


</svg>