<?xml version="1.0" encoding="utf-8"?>
<!-- Generator: Adobe Illustrator 26.2.1, SVG Export Plug-In . SVG Version: 6.00 Build 0)  -->
<svg version="1.1" xmlns="http://www.w3.org/2000/svg" xmlns:xlink="http://www.w3.org/1999/xlink" x="0px" y="0px"
	 viewBox="0 0 100 100" style="enable-background:new 0 0 100 100;" xml:space="preserve" width = "100px" height = "100px">
<style type="text/css">
	.st0{display:none;}
	.st1{display:inline;}
</style>

		<path d="M10.9,5.8h78.1V28H10.9V5.8z M17.2,11.2v11.3h17.3V11.2H17.2z M17.4,77.5V34.1h65.7v43.3h-6.7v-13H23.9v13H17.4
			 M23.9,38.9v8h52.5v-8H23.9z M23.9,51.7v8.1h52.5v-8.1H23.9z M40.4,11.2v11.3h17.9V11.2H40.4z M64.3,11.2v11.3h18.3V11.2H64.3z"/>


		<path d="M25,68.5c1.5,0,16,0,16,0"/>

		<path d="M25.1,69.2l0-1.5c0.7,0,4.6,0,11.5,0l0,1.5C29.6,69.2,25.8,69.2,25.1,69.2z"/>
			
		<path d="M41,68.5c-2.1,0.8-4.8,2.1-6.4,3.6l1.3-3.6l-1.3-3.6C36.2,66.3,38.9,67.7,41,68.5z"/>

		<path d="M25.6,74.5c0.1,0,0.2,0,0.4,0c0.3,0,0.6-0.2,0.8-0.4c0.3-0.2,0.4-0.6,0.5-1h0c-0.2,0.3-0.5,0.4-0.9,0.4
			c-0.7,0-1.2-0.5-1.2-1.2c0-0.7,0.5-1.4,1.3-1.4s1.3,0.6,1.3,1.6c0,0.9-0.3,1.5-0.7,1.8c-0.3,0.3-0.7,0.5-1.1,0.5
			c-0.2,0-0.4,0-0.5,0V74.5z M25.8,72.3c0,0.5,0.3,0.8,0.7,0.8c0.4,0,0.6-0.2,0.8-0.4c0,0,0-0.1,0-0.2c0-0.7-0.2-1.2-0.8-1.2
			C26.1,71.4,25.8,71.7,25.8,72.3z"/>



 </svg>