<?xml version="1.0" encoding="utf-8"?>
<!-- Generator: Adobe Illustrator 26.2.1, SVG Export Plug-In . SVG Version: 6.00 Build 0)  -->
<svg version="1.1" xmlns="http://www.w3.org/2000/svg" xmlns:xlink="http://www.w3.org/1999/xlink" x="0px" y="0px"
	 viewBox="0 0 100 100" style="enable-background:new 0 0 100 100;" xml:space="preserve" width = "100px" height = "100px">
<style type="text/css">
	.st0{display:none;}
	.st1{display:inline;}
</style>

		<path d="M53.2,77v19.4h-7V77v-6.8V37.6C36.7,55.7,22.4,71.4,7.3,80.2C6.1,78.5,4,76,2.5,74.7C18.2,66.6,33.2,49.8,42,32H5.8v-6.8
			h40.4V3.6l9,0.5c-0.1,0.7-0.6,1.2-2,1.4v19.7h40.8V32H57.6c8.6,17.8,23.6,34.3,39.9,42.1c-1.7,1.4-3.9,4-5.1,5.9
			c-15.7-8.5-29.9-24.5-39.1-42.6v32.8"/>

		<path d="M67.1,42.5c-0.1-0.2-0.2-0.3-0.3-0.5c-1.5-2.2-2.9-4.6-4-7l1.4-0.6c1.1,2.4,2.4,4.7,3.9,6.8c0.1,0.2,0.2,0.3,0.3,0.4
			L67.1,42.5z"/>

			<path d="M70.4,45.7c-1.9-1.2-4.6-2.5-6.7-2.9l3.6-1.1l2.1-3.2C69.2,40.6,69.8,43.5,70.4,45.7z"/>

		<path d="M67.5,37.1v-1.1h-1.8v-0.3l1.7-2.5H68v2.4h0.5v0.4H68v1.1H67.5z M67.5,35.7v-1.3c0-0.2,0-0.4,0-0.6h0
			c-0.1,0.2-0.2,0.4-0.3,0.6l-1,1.3v0H67.5z"/>


 </svg>