<?xml version="1.0" encoding="utf-8"?>
<!-- Generator: Adobe Illustrator 26.2.1, SVG Export Plug-In . SVG Version: 6.00 Build 0)  -->
<svg version="1.1" xmlns="http://www.w3.org/2000/svg" xmlns:xlink="http://www.w3.org/1999/xlink" x="0px" y="0px"
	 viewBox="0 0 100 100" style="enable-background:new 0 0 100 100;" xml:space="preserve" width = "100px" height = "100px">
<style type="text/css">
	.st0{display:none;}
	.st1{display:inline;}
</style> 

	<rect x="17.2" y="27.6" class="st2" width="12.6" height="0"/>

		<path d="M52.9,63.4 M45.9,43.4H24.4v-5.7c-5.4,4.2-11.2,8.1-17,11.4c-1-1.5-2.8-3.9-4.2-5.3C20.7,34.5,37.9,18.5,45.8,5l9.8,0.6
			c-0.2,0.8-1,1.3-2,1.5C63.3,20.5,81.3,35,96.8,42.5c-1.6,1.7-3.3,3.9-4.5,5.9C76.7,39.8,58.8,25.2,49.4,12
			c-5.3,8.1-14.2,17.2-24.5,25.3h50.3v6.1H52.9"/>


		<line x1="26.2" y1="48" x2="47.2" y2="48"/>

			<rect x="26.2" y="47.3" width="16.5" height="1.5"/>

				<path d="M47.2,48c-2.1,0.8-4.8,2.1-6.4,3.6l1.3-3.6l-1.3-3.6C42.5,45.9,45.1,47.2,47.2,48z"/>

		<path d="M26.7,54.6c0.1,0.1,0.5,0.2,0.9,0.2c0.7,0,0.9-0.4,0.9-0.8c0-0.5-0.5-0.8-1-0.8h-0.3v-0.4h0.3c0.4,0,0.9-0.2,0.9-0.7
			c0-0.3-0.2-0.6-0.7-0.6c-0.3,0-0.6,0.1-0.8,0.3l-0.1-0.4c0.2-0.1,0.6-0.3,1-0.3c0.8,0,1.1,0.5,1.1,0.9c0,0.4-0.2,0.7-0.7,0.9v0
			c0.5,0.1,0.9,0.5,0.9,1c0,0.6-0.5,1.2-1.4,1.2c-0.4,0-0.8-0.1-1-0.3L26.7,54.6z"/>


</svg>