<?xml version="1.0" encoding="utf-8"?>
<!-- Generator: Adobe Illustrator 26.2.1, SVG Export Plug-In . SVG Version: 6.00 Build 0)  -->
<svg version="1.1" xmlns="http://www.w3.org/2000/svg" xmlns:xlink="http://www.w3.org/1999/xlink" x="0px" y="0px"
	 viewBox="0 0 100 100" style="enable-background:new 0 0 100 100;" xml:space="preserve" width = "100px" height = "100px">
<style type="text/css">
	.st0{display:none;}
	.st1{display:inline;}
</style>

		<path d="M34.6,6.8c-0.2,0.5-1,0.9-2.2,0.7c-5.8,7.3-16.2,16.8-25.1,23.1c-0.8-1.5-2.7-4.1-3.9-5.4c8.4-5.5,18.3-14.4,23.4-21.7
			L34.6,6.8z M19.3,96.5v-44c-3.8,4.2-7.6,8.1-11.4,11.4c-0.9-1.3-3-4-4.3-5.2c9.5-7.9,20.5-21,27.4-33.5l7.8,3.2
			c-0.3,0.6-1.1,1-2.3,0.8c-3,5-6.5,10.1-10.3,15l1.8,0.6c-0.2,0.6-0.8,1.1-2,1.3v50.4H19.3z M96.6,38.9v6.5H80.7v42.3
			c0,8.4-3.2,8.6-23.4,8.6c-0.3-1.9-1.2-4.6-2.2-6.6c4.4,0.1,8.5,0.2,11.6,0.2c6.5,0,7.2,0,7.2-2.3V45.4H39.1v-6.5H96.6z M92.8,9.8
			v6.4H42.9V9.8H92.8z"/>

		<line x1="69.3" y1="47.3" x2="69.3" y2="59.8"/>

			<rect x="68.5" y="47.3" width="1.5" height="8"/>
	
				<path d="M69.3,59.8c-0.8-2.1-2.1-4.8-3.6-6.4l3.6,1.3l3.6-1.3C71.4,55,70.1,57.6,69.3,59.8z"/>

		<path d="M66.2,47.4c-0.1,0-0.2,0-0.4,0c-0.8,0.1-1.3,0.7-1.4,1.4h0c0.2-0.2,0.5-0.4,0.9-0.4c0.7,0,1.2,0.5,1.2,1.3
			c0,0.7-0.5,1.4-1.3,1.4c-0.8,0-1.4-0.6-1.4-1.7c0-0.8,0.3-1.4,0.7-1.8c0.3-0.3,0.8-0.5,1.2-0.6c0.2,0,0.3,0,0.4,0V47.4z M66,49.6
			c0-0.6-0.3-0.9-0.8-0.9c-0.3,0-0.6,0.2-0.8,0.5c0,0.1-0.1,0.1-0.1,0.2c0,0.6,0.3,1.1,0.9,1.1C65.7,50.5,66,50.2,66,49.6z"/>

 </svg>