<?xml version="1.0" encoding="utf-8"?>
<!-- Generator: Adobe Illustrator 26.2.1, SVG Export Plug-In . SVG Version: 6.00 Build 0)  -->
<svg version="1.1" xmlns="http://www.w3.org/2000/svg" xmlns:xlink="http://www.w3.org/1999/xlink" x="0px" y="0px"
	 viewBox="0 0 100 100" style="enable-background:new 0 0 100 100;" xml:space="preserve" width = "100px" height = "100px">
<style type="text/css">
	.st0{display:none;}
	.st1{display:inline;}
</style> 

	<rect x="17.2" y="27.6" class="st2" width="12.6" height="0"/>

		<path d="M44.7,46.7H15.2V6.2h69.7v40.5H53.7 M77.9,46.7v-5.9V29.1v-5.5V12.1h-56v11.5v5.5v11.7v5.9"/>


		<path d="M73.1,24.9h-1.5v-5.2c0-2.4-1.9-4.3-4.3-4.3H27.5v-1.5h39.8c3.2,0,5.8,2.6,5.8,5.8V24.9z"/>

			<path d="M72.3,29.4c-0.8-2.1-2.1-4.8-3.6-6.4l3.6,1.3l3.6-1.3C74.5,24.6,73.1,27.3,72.3,29.4z"/>

		<path d="M27.7,22v-0.3l0.4-0.4c1-0.9,1.4-1.5,1.5-2c0-0.4-0.2-0.8-0.8-0.8c-0.4,0-0.6,0.2-0.8,0.3l-0.2-0.4
			c0.3-0.2,0.7-0.4,1.1-0.4c0.8,0,1.2,0.6,1.2,1.1c0,0.7-0.5,1.3-1.3,2.1l-0.3,0.3v0h1.8V22H27.7z"/>
</svg>