<?xml version="1.0" encoding="utf-8"?>
<!-- Generator: Adobe Illustrator 26.2.1, SVG Export Plug-In . SVG Version: 6.00 Build 0)  -->
<svg version="1.1" xmlns="http://www.w3.org/2000/svg" xmlns:xlink="http://www.w3.org/1999/xlink" x="0px" y="0px"
	 viewBox="0 0 100 100" style="enable-background:new 0 0 100 100;" xml:space="preserve" width = "100px" height = "100px">
<style type="text/css">
	.st0{display:none;}
	.st1{display:inline;}
</style> 

	<rect x="17.2" y="27.6" class="st0" width="12.6" height="0"/>

		<path d="M36.5,29.8l4.8,2.2c-0.2,0.4-0.6,0.9-1.1,1.2C35,58.4,22.7,77,7.8,87.1c-1.2-1.7-3.8-4.3-5.4-5.4
			c13.5-8.4,24.7-23.9,29.8-44.8H5.1v-6.8h30.2L36.5,29.8z M53.5,22c2.2,8.3,5.2,16.3,8.8,23.7c8.4-7.1,18.6-17.6,24.8-25.7l7.1,5.3
			c-0.5,0.6-1.4,0.7-2.2,0.6c-6.9,7.6-18.1,18.3-26.8,25.3c8,14,18.7,25.3,32.4,31.1c-1.7,1.4-4,4.1-5.2,6.1
			c-18.2-8.7-30.7-26.5-38.9-48.2v46.3c0,9.1-4.2,9.9-23,9.9c-0.4-2-1.7-5.4-2.8-7.3c3.8,0.1,7.3,0.1,10.1,0.1c8.4,0,8.7,0,8.7-2.7
			V3.6l9,0.5c-0.1,0.8-0.6,1.3-2,1.4V22z"/>

		<path d="M74.9,82.3C66.3,77.4,60,69.2,55.9,57.8l1.4-0.5c3.9,11,10,19,18.3,23.7L74.9,82.3z"/>

			<path d="M79.3,83.6c-2.3-0.2-5.2-0.2-7.3,0.3l2.7-2.6l0.4-3.8C76,79.6,77.8,82,79.3,83.6z"/>

		<path d="M56.7,70.6v-1.1h-1.8v-0.3l1.7-2.5h0.6v2.4h0.5v0.4h-0.5v1.1H56.7z M56.7,69.1v-1.3c0-0.2,0-0.4,0-0.6h0
			c-0.1,0.2-0.2,0.4-0.3,0.6l-1,1.3v0H56.7z"/>

</svg>