<?xml version="1.0" encoding="utf-8"?>
<!-- Generator: Adobe Illustrator 26.2.1, SVG Export Plug-In . SVG Version: 6.00 Build 0)  -->
<svg version="1.1" xmlns="http://www.w3.org/2000/svg" xmlns:xlink="http://www.w3.org/1999/xlink" x="0px" y="0px"
	 viewBox="0 0 100 100" style="enable-background:new 0 0 100 100;" xml:space="preserve" width = "100px" height = "100px">
<style type="text/css">
	.st0{display:none;}
	.st1{display:inline;}
</style> 

		<path d="M23.5,25.8c-4,11.1-9.2,21-15.4,28c-1-1.3-3.3-3.4-4.7-4.5c9-10,15.7-27.5,19.5-45.8l8.3,2c-0.2,0.7-0.9,1.1-2.1,1.1
			c-1,4.3-2.1,8.6-3.4,12.8"/>

		<path d="M30.5,20.5L29,20c0.4-1.2,0.8-2.4,1.2-3.6c0.7-2.3,1.3-4.6,1.8-6.9l1.5,0.3c-0.5,2.3-1.1,4.7-1.8,7
			C31.3,18,30.9,19.3,30.5,20.5z"/>

			<path d="M28.2,24.5c0-2.3-0.3-5.2-1.1-7.3l2.9,2.4l3.8,0C31.8,20.7,29.6,22.8,28.2,24.5z"/>

		<path d="M36.3,8.2L36.3,8.2l-0.7,0.4l-0.1-0.4l0.9-0.5h0.4v3.9h-0.5V8.2z"/>

</svg>