<?xml version="1.0" encoding="utf-8"?>
<!-- Generator: Adobe Illustrator 26.2.1, SVG Export Plug-In . SVG Version: 6.00 Build 0)  -->
<svg version="1.1" xmlns="http://www.w3.org/2000/svg" xmlns:xlink="http://www.w3.org/1999/xlink" x="0px" y="0px"
	 viewBox="0 0 100 100" style="enable-background:new 0 0 100 100;" xml:space="preserve" width = "100px" height = "100px">
<style type="text/css">
	.st0{display:none;}
	.st1{display:inline;}
</style> 


	<rect x="17.2" y="27.6" class="st2" width="12.6" height="0"/>

		<path d="M33.6,52.6c-5,15.1-13,29.3-24.9,40.2c-1.1-1.6-3.7-3.9-5.5-4.9c17.5-15.3,26.1-38.2,29.5-60.6h-27v-6.7h27.9
			c0.6-5.8,0.9-11.6,1-17.1l9.2,0.4c-0.2,0.9-0.8,1.6-2.3,1.7c-0.1,4.8-0.4,9.8-1,15h54.4v6.7H39.6c-0.7,4.6-1.5,9.3-2.7,13.9h40
			l1.3-0.3L83,43c-0.2,0.5-0.6,0.9-1,1.1c-4,13.8-10.9,24.5-19.7,32.8l-5.5,4.5c-9.1,7-19.8,11.9-31.3,15.1
			c-0.8-1.8-2.5-4.5-3.9-5.9c10.7-2.7,21-7.2,29.7-13.7l5.3-4.3c7.2-6.6,13-14.8,16.6-24.9H38.4h-3.5"/>

		<path d="M61.1,63l-1.3-0.7l3.5-7.2c0.4-0.9,0.4-1.9-0.1-2.7c-0.6-1-1.8-1.6-3.1-1.6h-24v-1.5h24c1.8,0,3.5,0.9,4.4,2.3
			c0.8,1.3,0.9,2.8,0.2,4.2L61.1,63z"/>

			<path d="M58.5,66.7c0.2-2.3,0.2-5.2-0.4-7.3l2.6,2.7l3.8,0.4C62.5,63.4,60.1,65.1,58.5,66.7z"/>

		<path d="M36.5,55.8c0.1,0.1,0.5,0.2,0.9,0.2c0.7,0,0.9-0.4,0.9-0.8c0-0.5-0.5-0.8-1-0.8h-0.3v-0.4h0.3c0.4,0,0.9-0.2,0.9-0.7
			c0-0.3-0.2-0.6-0.7-0.6c-0.3,0-0.6,0.1-0.8,0.3l-0.1-0.4c0.2-0.1,0.6-0.3,1-0.3c0.8,0,1.1,0.5,1.1,0.9c0,0.4-0.2,0.7-0.7,0.9v0
			c0.5,0.1,0.9,0.5,0.9,1c0,0.6-0.5,1.2-1.4,1.2c-0.4,0-0.8-0.1-1-0.3L36.5,55.8z"/>

</svg>