<?xml version="1.0" encoding="utf-8"?>
<!-- Generator: Adobe Illustrator 26.2.1, SVG Export Plug-In . SVG Version: 6.00 Build 0)  -->
<svg version="1.1" xmlns="http://www.w3.org/2000/svg" xmlns:xlink="http://www.w3.org/1999/xlink" x="0px" y="0px"
	 viewBox="0 0 100 100" style="enable-background:new 0 0 100 100;" xml:space="preserve" width = "100px" height = "100px">
<style type="text/css">
	.st0{display:none;}
	.st1{display:inline;}
</style> 


		<path d="M3,24.5v-5.7h36.7v5.7H3z M36.5,60.4v29.4h-23v4.7H7.6V60.4H36.5z M36.2,32.8v5.5H7.7v-5.5H36.2z M7.7,52.1v-5.5h28.5v5.5
			H7.7z M35.9,5.3v5.5H8.3V5.3H35.9z M30.5,66.1h-17v18h17V66.1z M53.7,43.9c0.9-4.4,1.9-9.6,2.9-15.1l1-6c0.6-3.8,1.2-7.7,1.8-11.2
			H43.6v-6h49.7v6H65.9l-1.7,11.2l-1,6c-0.9,5.4-1.9,10.7-2.8,15.1 M47.9,94.7V58.3H90v35.8h-6.5v-4H54.3v4.6H47.9z M83.5,64.4H54.3
			v19.5h29.2V64.4z"/>

		<path d="M69.5,12.7C69.4,14.1,68.3,23,68.3,23"/>
	
			<path d="M69.6,18.6l-1.5-0.2c0.5-4.1,0.6-5.4,0.7-5.8l1.5,0.1C70.2,13.3,70,15.3,69.6,18.6z"/>
		
				<path d="M68.3,23c-0.5-2.2-1.5-5-2.8-6.8l3.4,1.7l3.7-0.9C71,18.5,69.3,21,68.3,23z"/>

		<path d="M73.3,16.6c0.1,0,0.2,0,0.4,0c0.3,0,0.6-0.2,0.8-0.4c0.3-0.2,0.4-0.6,0.5-1h0c-0.2,0.3-0.5,0.4-0.9,0.4
			c-0.7,0-1.2-0.5-1.2-1.2c0-0.7,0.5-1.4,1.3-1.4s1.3,0.6,1.3,1.6c0,0.9-0.3,1.5-0.7,1.8c-0.3,0.3-0.7,0.5-1.1,0.5
			c-0.2,0-0.4,0-0.5,0V16.6z M73.5,14.3c0,0.5,0.3,0.8,0.8,0.8c0.4,0,0.6-0.2,0.8-0.4c0,0,0-0.1,0-0.2c0-0.7-0.2-1.2-0.8-1.2
			C73.8,13.4,73.5,13.8,73.5,14.3z"/>


</svg>