<?xml version="1.0" encoding="utf-8"?>
<!-- Generator: Adobe Illustrator 26.2.1, SVG Export Plug-In . SVG Version: 6.00 Build 0)  -->
<svg version="1.1" xmlns="http://www.w3.org/2000/svg" xmlns:xlink="http://www.w3.org/1999/xlink" x="0px" y="0px"
	 viewBox="0 0 100 100" style="enable-background:new 0 0 100 100;" xml:space="preserve">
<style type="text/css">
	.st0{display:none;}
	.st1{display:inline;}
</style>
<g id="Stroke2">
	<g>
		<path d="M82.1,27.2l8.9,0.6c-0.1,0.7-0.7,1.2-2,1.4v65.2h-6.9v-8.1H15.8v8.5H9V27.3l8.8,0.6c-0.1,0.7-0.6,1.2-2,1.4v50.2h29.1V5.2
			l9,0.6c-0.1,0.7-0.7,1.2-2,1.4v72.3h30.2V27.2z"/>
	</g>
	<g>
		<line x1="77.4" y1="28.4" x2="77.4" y2="41.7"/>
		<g>
			<rect x="76.6" y="28.4" width="1.5" height="8.8"/>
			<g>
				<path d="M77.4,41.7c-0.8-2.1-2.1-4.8-3.6-6.4l3.6,1.3l3.6-1.3C79.5,36.9,78.2,39.5,77.4,41.7z"/>
			</g>
		</g>
	</g>
	<g>
		<path d="M72.3,29.5c0.2,0.1,0.5,0.2,0.9,0.2c0.7,0,0.9-0.4,0.9-0.8c0-0.5-0.5-0.8-1-0.8h-0.3v-0.4H73c0.4,0,0.9-0.2,0.9-0.7
			c0-0.3-0.2-0.6-0.7-0.6c-0.3,0-0.6,0.1-0.8,0.3l-0.1-0.4c0.2-0.1,0.6-0.3,1-0.3c0.8,0,1.1,0.5,1.1,0.9c0,0.4-0.2,0.7-0.7,0.9v0
			c0.5,0.1,0.9,0.5,0.9,1c0,0.6-0.5,1.2-1.4,1.2c-0.4,0-0.8-0.1-1-0.3L72.3,29.5z"/>
	</g>
</g>
<g id="Stroke1" class="st0">
	<g class="st1">
		<path d="M82.1,86.3H15.8v8.5H9V27.3l8.8,0.6c-0.1,0.7-0.6,1.2-2,1.4v50.2h29.1V5.2l9,0.6c-0.1,0.7-0.7,1.2-2,1.4v72.3h30.2"/>
	</g>
	<g class="st1">
		<path d="M31.9,77.1h-7.6c-3.4,0-6.2-2.8-6.2-6.2V31.9h1.5v38.9c0,2.6,2.1,4.7,4.7,4.7h7.6V77.1z"/>
		<g>
			<path d="M36.4,76.3c-2.1,0.8-4.8,2.1-6.4,3.6l1.3-3.6L30,72.7C31.6,74.2,34.3,75.5,36.4,76.3z"/>
		</g>
	</g>
	<g class="st1">
		<path d="M22.3,33.9v-0.3l0.4-0.4c1-0.9,1.4-1.5,1.5-2c0-0.4-0.2-0.8-0.8-0.8c-0.4,0-0.6,0.2-0.8,0.3l-0.2-0.4
			c0.3-0.2,0.7-0.4,1.1-0.4c0.8,0,1.2,0.6,1.2,1.1c0,0.7-0.5,1.3-1.3,2.1L23,33.4v0h1.8v0.4H22.3z"/>
	</g>
</g>
<g id="Stroke0" class="st0">
	<g class="st1">
		<path d="M44.9,79.5V5.2l9,0.6c-0.1,0.7-0.7,1.2-2,1.4v72.3 M15.8,86.3"/>
	</g>
	<g class="st1">
		<line x1="56.9" y1="6.5" x2="56.9" y2="20.2"/>
		<g>
			<rect x="56.1" y="6.5" width="1.5" height="9.1"/>
			<g>
				<path d="M56.9,20.2c-0.8-2.1-2.1-4.8-3.6-6.4l3.6,1.3l3.6-1.3C59,15.4,57.7,18.1,56.9,20.2z"/>
			</g>
		</g>
	</g>
	<g class="st1">
		<path d="M61.3,6.2L61.3,6.2l-0.7,0.4l-0.1-0.4l0.9-0.5h0.4v3.9h-0.5V6.2z"/>
	</g>
</g>
<g id="Kanji" class="st0">
	<g class="st1">
		<path d="M82.1,27.2l8.9,0.6c-0.1,0.7-0.7,1.2-2,1.4v65.2h-6.9v-8.1H15.8v8.5H9V27.3l8.8,0.6c-0.1,0.7-0.6,1.2-2,1.4v50.2h29.1V5.2
			l9,0.6c-0.1,0.7-0.7,1.2-2,1.4v72.3h30.2V27.2z"/>
	</g>
</g>
</svg>
