<?xml version="1.0" encoding="utf-8"?>
<!-- Generator: Adobe Illustrator 26.2.1, SVG Export Plug-In . SVG Version: 6.00 Build 0)  -->
<svg version="1.1" xmlns="http://www.w3.org/2000/svg" xmlns:xlink="http://www.w3.org/1999/xlink" x="0px" y="0px"
	 viewBox="0 0 100 100" style="enable-background:new 0 0 100 100;" xml:space="preserve" width = "100px" height = "100px">
<style type="text/css">
	.st0{display:none;}
	.st1{display:inline;}
</style>


		<path d="M82.1,86.3H15.8v8.5H9V27.3l8.8,0.6c-0.1,0.7-0.6,1.2-2,1.4v50.2h29.1V5.2l9,0.6c-0.1,0.7-0.7,1.2-2,1.4v72.3h30.2"/>


		<path d="M31.9,77.1h-7.6c-3.4,0-6.2-2.8-6.2-6.2V31.9h1.5v38.9c0,2.6,2.1,4.7,4.7,4.7h7.6V77.1z"/>
	
			<path d="M36.4,76.3c-2.1,0.8-4.8,2.1-6.4,3.6l1.3-3.6L30,72.7C31.6,74.2,34.3,75.5,36.4,76.3z"/>
	
		<path d="M22.3,33.9v-0.3l0.4-0.4c1-0.9,1.4-1.5,1.5-2c0-0.4-0.2-0.8-0.8-0.8c-0.4,0-0.6,0.2-0.8,0.3l-0.2-0.4
			c0.3-0.2,0.7-0.4,1.1-0.4c0.8,0,1.2,0.6,1.2,1.1c0,0.7-0.5,1.3-1.3,2.1L23,33.4v0h1.8v0.4H22.3z"/>



 </svg>