<?xml version="1.0" encoding="utf-8"?>
<!-- Generator: Adobe Illustrator 26.2.1, SVG Export Plug-In . SVG Version: 6.00 Build 0)  -->
<svg version="1.1" xmlns="http://www.w3.org/2000/svg" xmlns:xlink="http://www.w3.org/1999/xlink" x="0px" y="0px"
	 viewBox="0 0 100 100" style="enable-background:new 0 0 100 100;" xml:space="preserve" width = "100px" height = "100px">
<style type="text/css">
	.st0{display:none;}
	.st1{display:inline;}
</style> 


		<path d="M82.1,27.2l8.9,0.6c-0.1,0.7-0.7,1.2-2,1.4v65.2h-6.9v-8.1H15.8v8.5H9V27.3l8.8,0.6c-0.1,0.7-0.6,1.2-2,1.4v50.2h29.1V5.2
			l9,0.6c-0.1,0.7-0.7,1.2-2,1.4v72.3h30.2V27.2z"/>

		<line x1="77.4" y1="28.4" x2="77.4" y2="41.7"/>

			<rect x="76.6" y="28.4" width="1.5" height="8.8"/>

				<path d="M77.4,41.7c-0.8-2.1-2.1-4.8-3.6-6.4l3.6,1.3l3.6-1.3C79.5,36.9,78.2,39.5,77.4,41.7z"/>

		<path d="M72.3,29.5c0.2,0.1,0.5,0.2,0.9,0.2c0.7,0,0.9-0.4,0.9-0.8c0-0.5-0.5-0.8-1-0.8h-0.3v-0.4H73c0.4,0,0.9-0.2,0.9-0.7
			c0-0.3-0.2-0.6-0.7-0.6c-0.3,0-0.6,0.1-0.8,0.3l-0.1-0.4c0.2-0.1,0.6-0.3,1-0.3c0.8,0,1.1,0.5,1.1,0.9c0,0.4-0.2,0.7-0.7,0.9v0
			c0.5,0.1,0.9,0.5,0.9,1c0,0.6-0.5,1.2-1.4,1.2c-0.4,0-0.8-0.1-1-0.3L72.3,29.5z"/>

</svg>