<?xml version="1.0" encoding="utf-8"?>
<!-- Generator: Adobe Illustrator 26.2.1, SVG Export Plug-In . SVG Version: 6.00 Build 0)  -->
<svg version="1.1" xmlns="http://www.w3.org/2000/svg" xmlns:xlink="http://www.w3.org/1999/xlink" x="0px" y="0px"
	 viewBox="0 0 100 100" style="enable-background:new 0 0 100 100;" xml:space="preserve">
<style type="text/css">
	.st0{display:none;}
	.st1{display:inline;}
</style>
<g id="Stroke4">
	<g>
		<path d="M94.1,32H57.6c8.6,17.8,23.6,34.3,39.9,42.1c-1.7,1.4-3.9,4-5.1,5.9c-15.7-8.5-29.9-24.5-39.1-42.6v32.8h20V77h-20v19.4
			h-7V77H25.9v-6.8h20.3V37.6C36.7,55.7,22.4,71.4,7.3,80.2C6.1,78.5,4,76,2.5,74.7C18.2,66.6,33.2,49.8,42,32H5.8v-6.8h40.4V3.6
			l9,0.5c-0.1,0.7-0.6,1.2-2,1.4v19.7h40.8V32z"/>
	</g>
	<g>
		<line x1="26.7" y1="81" x2="39.6" y2="81"/>
		<g>
			<rect x="26.7" y="80.3" width="8.4" height="1.5"/>
			<g>
				<path d="M39.6,81c-2.1,0.8-4.8,2.1-6.4,3.6l1.3-3.6l-1.3-3.6C34.8,78.9,37.4,80.2,39.6,81z"/>
			</g>
		</g>
	</g>
	<g>
		<path d="M28.5,84.2H27l-0.1,1c0.1,0,0.2,0,0.3,0c0.3,0,0.6,0.1,0.8,0.2c0.3,0.2,0.6,0.5,0.6,1c0,0.8-0.6,1.3-1.5,1.3
			c-0.4,0-0.8-0.1-1-0.2l0.1-0.4c0.2,0.1,0.5,0.2,0.8,0.2c0.5,0,0.9-0.3,0.9-0.8c0-0.5-0.3-0.9-1.1-0.9c-0.2,0-0.4,0-0.5,0l0.3-1.9
			h1.9V84.2z"/>
	</g>
</g>
<g id="Stroke3" class="st0">
	<g class="st1">
		<path d="M53.2,77v19.4h-7V77v-6.8V37.6C36.7,55.7,22.4,71.4,7.3,80.2C6.1,78.5,4,76,2.5,74.7C18.2,66.6,33.2,49.8,42,32H5.8v-6.8
			h40.4V3.6l9,0.5c-0.1,0.7-0.6,1.2-2,1.4v19.7h40.8V32H57.6c8.6,17.8,23.6,34.3,39.9,42.1c-1.7,1.4-3.9,4-5.1,5.9
			c-15.7-8.5-29.9-24.5-39.1-42.6v32.8"/>
	</g>
	<g class="st1">
		<path d="M67.1,42.5c-0.1-0.2-0.2-0.3-0.3-0.5c-1.5-2.2-2.9-4.6-4-7l1.4-0.6c1.1,2.4,2.4,4.7,3.9,6.8c0.1,0.2,0.2,0.3,0.3,0.4
			L67.1,42.5z"/>
		<g>
			<path d="M70.4,45.7c-1.9-1.2-4.6-2.5-6.7-2.9l3.6-1.1l2.1-3.2C69.2,40.6,69.8,43.5,70.4,45.7z"/>
		</g>
	</g>
	<g class="st1">
		<path d="M67.5,37.1v-1.1h-1.8v-0.3l1.7-2.5H68v2.4h0.5v0.4H68v1.1H67.5z M67.5,35.7v-1.3c0-0.2,0-0.4,0-0.6h0
			c-0.1,0.2-0.2,0.4-0.3,0.6l-1,1.3v0H67.5z"/>
	</g>
</g>
<g id="Stroke2" class="st0">
	<g class="st1">
		<path d="M53.2,32.1l0.1,5.3v32.8V77v19.4h-7V77v-6.8V37.6C36.7,55.7,22.4,71.4,7.3,80.2C6.1,78.5,4,76,2.5,74.7
			C18.2,66.6,33.2,49.8,42,32H5.8v-6.8h40.4V3.6l9,0.5c-0.1,0.7-0.6,1.2-2,1.4v19.7h40.8V32L53.2,32.1z"/>
	</g>
	<g class="st1">
		<path d="M26.4,49.1l-1-1.1c4.4-4.2,8.4-8.9,12-13.9l1.2,0.9C34.9,40.1,30.8,44.9,26.4,49.1z"/>
		<g>
			<path d="M22.5,51.7c1-2,2-4.8,2.2-7l1.5,3.5l3.4,1.7C27.5,50,24.6,50.8,22.5,51.7z"/>
		</g>
	</g>
	<g class="st1">
		<path d="M31.9,36.5c0.1,0.1,0.5,0.2,0.9,0.2c0.7,0,0.9-0.4,0.9-0.8c0-0.5-0.5-0.8-1-0.8h-0.3v-0.4h0.3c0.4,0,0.9-0.2,0.9-0.7
			c0-0.3-0.2-0.6-0.7-0.6c-0.3,0-0.6,0.1-0.8,0.3l-0.1-0.4c0.2-0.1,0.6-0.3,1-0.3c0.8,0,1.1,0.5,1.1,0.9c0,0.4-0.2,0.7-0.7,0.9v0
			c0.5,0.1,0.9,0.5,0.9,1c0,0.6-0.5,1.2-1.4,1.2c-0.4,0-0.8-0.1-1-0.3L31.9,36.5z"/>
	</g>
</g>
<g id="Stroke1" class="st0">
	<g class="st1">
		<path d="M54.3,31.5l-0.1,5.9v32.8c0,0,0.3,5.9,0,6.8v19.4h-7V77v-6.8V37.6v-6.1 M42.9,32H6.8v-6.8h40.4V3.6l9,0.5
			c-0.1,0.7-0.6,1.2-2,1.4v19.7H95V32H58.5"/>
	</g>
	<g class="st1">
		<line x1="58.3" y1="4.4" x2="58.3" y2="17.8"/>
		<g>
			<rect x="57.6" y="4.4" width="1.5" height="8.9"/>
			<g>
				<path d="M58.3,17.8c-0.8-2.1-2.1-4.8-3.6-6.4l3.6,1.3l3.6-1.3C60.5,13,59.1,15.7,58.3,17.8z"/>
			</g>
		</g>
	</g>
	<g class="st1">
		<path d="M61.2,8.3V8l0.4-0.4c1-0.9,1.4-1.5,1.5-2c0-0.4-0.2-0.8-0.8-0.8c-0.4,0-0.6,0.2-0.8,0.3l-0.2-0.4c0.3-0.2,0.7-0.4,1.1-0.4
			c0.8,0,1.2,0.6,1.2,1.1c0,0.7-0.5,1.3-1.3,2.1l-0.3,0.3v0h1.8v0.4H61.2z"/>
	</g>
</g>
<g id="Stroke0" class="st0">
	<g class="st1">
		<path d="M42,32H5.8v-6.8h40.4h7h40.8V32H57.6 M53.2,96.4h-7"/>
	</g>
	<g class="st1">
		<line x1="5.8" y1="36.4" x2="20.4" y2="36.4"/>
		<g>
			<rect x="5.8" y="35.6" width="10" height="1.5"/>
			<g>
				<path d="M20.4,36.4c-2.1,0.8-4.8,2.1-6.4,3.6l1.3-3.6L14,32.8C15.6,34.2,18.3,35.6,20.4,36.4z"/>
			</g>
		</g>
	</g>
	<g class="st1">
		<path d="M7,39.3L7,39.3l-0.7,0.4l-0.1-0.4L7,38.8h0.4v3.9H7V39.3z"/>
	</g>
</g>
<g id="Kanji" class="st0">
	<g class="st1">
		<path d="M94.1,32H57.6c8.6,17.8,23.6,34.3,39.9,42.1c-1.7,1.4-3.9,4-5.1,5.9c-15.7-8.5-29.9-24.5-39.1-42.6v32.8h20V77h-20v19.4
			h-7V77H25.9v-6.8h20.3V37.6C36.7,55.7,22.4,71.4,7.3,80.2C6.1,78.5,4,76,2.5,74.7C18.2,66.6,33.2,49.8,42,32H5.8v-6.8h40.4V3.6
			l9,0.5c-0.1,0.7-0.6,1.2-2,1.4v19.7h40.8V32z"/>
	</g>
</g>
</svg>
