<?xml version="1.0" encoding="utf-8"?>
<!-- Generator: Adobe Illustrator 26.2.1, SVG Export Plug-In . SVG Version: 6.00 Build 0)  -->
<svg version="1.1" xmlns="http://www.w3.org/2000/svg" xmlns:xlink="http://www.w3.org/1999/xlink" x="0px" y="0px"
	 viewBox="0 0 100 100" style="enable-background:new 0 0 100 100;" xml:space="preserve" width = "100px" height = "100px">
<style type="text/css">
	.st0{display:none;}
	.st1{display:inline;}
</style>


		<path d="M53.2,32.1l0.1,5.3v32.8V77v19.4h-7V77v-6.8V37.6C36.7,55.7,22.4,71.4,7.3,80.2C6.1,78.5,4,76,2.5,74.7
			C18.2,66.6,33.2,49.8,42,32H5.8v-6.8h40.4V3.6l9,0.5c-0.1,0.7-0.6,1.2-2,1.4v19.7h40.8V32L53.2,32.1z"/>


		<path d="M26.4,49.1l-1-1.1c4.4-4.2,8.4-8.9,12-13.9l1.2,0.9C34.9,40.1,30.8,44.9,26.4,49.1z"/>

			<path d="M22.5,51.7c1-2,2-4.8,2.2-7l1.5,3.5l3.4,1.7C27.5,50,24.6,50.8,22.5,51.7z"/>

		<path d="M31.9,36.5c0.1,0.1,0.5,0.2,0.9,0.2c0.7,0,0.9-0.4,0.9-0.8c0-0.5-0.5-0.8-1-0.8h-0.3v-0.4h0.3c0.4,0,0.9-0.2,0.9-0.7
			c0-0.3-0.2-0.6-0.7-0.6c-0.3,0-0.6,0.1-0.8,0.3l-0.1-0.4c0.2-0.1,0.6-0.3,1-0.3c0.8,0,1.1,0.5,1.1,0.9c0,0.4-0.2,0.7-0.7,0.9v0
			c0.5,0.1,0.9,0.5,0.9,1c0,0.6-0.5,1.2-1.4,1.2c-0.4,0-0.8-0.1-1-0.3L31.9,36.5z"/>


 </svg>