<?xml version="1.0" encoding="utf-8"?>
<!-- Generator: Adobe Illustrator 26.2.1, SVG Export Plug-In . SVG Version: 6.00 Build 0)  -->
<svg version="1.1" xmlns="http://www.w3.org/2000/svg" xmlns:xlink="http://www.w3.org/1999/xlink" x="0px" y="0px"
	 viewBox="0 0 100 100" style="enable-background:new 0 0 100 100;" xml:space="preserve" width = "100px" height = "100px">
<style type="text/css">
	.st0{display:none;}
	.st1{display:inline;}
</style>


		<path d="M94.1,32H57.6c8.6,17.8,23.6,34.3,39.9,42.1c-1.7,1.4-3.9,4-5.1,5.9c-15.7-8.5-29.9-24.5-39.1-42.6v32.8h20V77h-20v19.4
			h-7V77H25.9v-6.8h20.3V37.6C36.7,55.7,22.4,71.4,7.3,80.2C6.1,78.5,4,76,2.5,74.7C18.2,66.6,33.2,49.8,42,32H5.8v-6.8h40.4V3.6
			l9,0.5c-0.1,0.7-0.6,1.2-2,1.4v19.7h40.8V32z"/>

		<line x1="26.7" y1="81" x2="39.6" y2="81"/>
	
		<rect x="26.7" y="80.3" width="8.4" height="1.5"/>
	
		<path d="M39.6,81c-2.1,0.8-4.8,2.1-6.4,3.6l1.3-3.6l-1.3-3.6C34.8,78.9,37.4,80.2,39.6,81z"/>
	
		<path d="M28.5,84.2H27l-0.1,1c0.1,0,0.2,0,0.3,0c0.3,0,0.6,0.1,0.8,0.2c0.3,0.2,0.6,0.5,0.6,1c0,0.8-0.6,1.3-1.5,1.3
			c-0.4,0-0.8-0.1-1-0.2l0.1-0.4c0.2,0.1,0.5,0.2,0.8,0.2c0.5,0,0.9-0.3,0.9-0.8c0-0.5-0.3-0.9-1.1-0.9c-0.2,0-0.4,0-0.5,0l0.3-1.9
			h1.9V84.2z"/>

 </svg>