<?xml version="1.0" encoding="utf-8"?>
<!-- Generator: Adobe Illustrator 26.2.1, SVG Export Plug-In . SVG Version: 6.00 Build 0)  -->
<svg version="1.1" xmlns="http://www.w3.org/2000/svg" xmlns:xlink="http://www.w3.org/1999/xlink" x="0px" y="0px"
	 viewBox="0 0 100 100" style="enable-background:new 0 0 100 100;" xml:space="preserve">
<style type="text/css">
	.st0{display:none;}
	.st1{display:inline;}
</style>
<g id="Stroke9">
	<g>
		<path d="M52.9,13.4h41.3v6H5.8v-6h40.3V3.5l8.8,0.6c-0.1,0.7-0.6,1.2-2,1.4V13.4z M90,52.8v35.3c0,3.9-0.9,6-4,7.1
			c-3.1,1.1-8.6,1.1-17.3,1.1c-0.3-1.9-1.3-4.5-2.2-6.4c4.1,0.1,7.8,0.2,10.5,0.2c5.7,0,6.3,0,6.3-2.1V58.7H17.2v37.8h-6.6V52.8H90z
			 M22.9,25.4h54.4v20.7H22.9V25.4z M70.5,41V30.5H29.4V41H70.5z M69.4,86.9H36.8v5.3h-6.1V65.6h38.7V86.9z M63.3,70.7H36.8v11.1
			h26.5V70.7z"/>
	</g>
	<g>
		<path d="M37.9,91c2.6,0,12.9,0,12.9,0"/>
		<g>
			<rect x="37.9" y="90.2" width="8.4" height="1.5"/>
			<g>
				<path d="M50.8,91c-2.1,0.8-4.8,2.1-6.4,3.6l1.3-3.6l-1.3-3.6C46,88.8,48.7,90.2,50.8,91z"/>
			</g>
		</g>
	</g>
	<g>
		<path d="M38.2,93.7L38.2,93.7l-0.7,0.4l-0.1-0.4l0.9-0.5h0.4v3.9h-0.5V93.7z"/>
		<path d="M42.7,95.1c0,1.3-0.5,2.1-1.4,2.1c-0.8,0-1.3-0.7-1.3-2c0-1.3,0.6-2,1.4-2C42.3,93.2,42.7,93.9,42.7,95.1z M40.6,95.2
			c0,1,0.3,1.6,0.8,1.6c0.5,0,0.8-0.6,0.8-1.6c0-1-0.2-1.6-0.8-1.6C41,93.6,40.6,94.1,40.6,95.2z"/>
	</g>
</g>
<g id="Stroke8" class="st0">
	<g class="st1">
		<path d="M52.9,13.4h41.3v6H5.8v-6h40.3V3.5l8.8,0.6c-0.1,0.7-0.6,1.2-2,1.4V13.4z M90,52.8v35.3c0,3.9-0.9,6-4,7.1
			c-3.1,1.1-8.6,1.1-17.3,1.1c-0.3-1.9-1.3-4.5-2.2-6.4c4.1,0.1,7.8,0.2,10.5,0.2c5.7,0,6.3,0,6.3-2.1V58.7H17.2v37.8h-6.6V52.8H90z
			 M22.9,25.4h54.4v20.7H22.9V25.4z M70.5,41V30.5H29.4V41H70.5z M63.3,86.9l0-5.1V70.7H36.8v21.5h-6.1V65.6h38.7v21.3"/>
	</g>
	<g class="st1">
		<path d="M37.9,74.7c0.3,0,11.2,0,11.2,0"/>
		<g>
			<rect x="37.9" y="73.9" width="6.7" height="1.5"/>
			<g>
				<path d="M49.2,74.7c-2.1,0.8-4.8,2.1-6.4,3.6l1.3-3.6l-1.3-3.6C44.4,72.5,47,73.9,49.2,74.7z"/>
			</g>
		</g>
	</g>
	<g class="st1">
		<path d="M38.5,80.1c0.1,0,0.2,0,0.4,0c0.3,0,0.6-0.2,0.8-0.4c0.3-0.2,0.4-0.6,0.5-1h0c-0.2,0.3-0.5,0.4-0.9,0.4
			c-0.7,0-1.2-0.5-1.2-1.2c0-0.7,0.5-1.4,1.3-1.4s1.3,0.6,1.3,1.6c0,0.9-0.3,1.5-0.7,1.8c-0.3,0.3-0.7,0.5-1.1,0.5
			c-0.2,0-0.4,0-0.5,0V80.1z M38.7,77.9c0,0.5,0.3,0.8,0.7,0.8c0.4,0,0.6-0.2,0.8-0.4c0,0,0-0.1,0-0.2c0-0.7-0.2-1.2-0.8-1.2
			C39,77,38.7,77.3,38.7,77.9z"/>
	</g>
</g>
<g id="Stroke7" class="st0">
	<g class="st1">
		<path d="M52.9,13.4h41.3v6H5.8v-6h40.3V3.5l8.8,0.6c-0.1,0.7-0.6,1.2-2,1.4V13.4z M90,52.8v35.3c0,3.9-0.9,6-4,7.1
			c-3.1,1.1-8.6,1.1-17.3,1.1c-0.3-1.9-1.3-4.5-2.2-6.4c4.1,0.1,7.8,0.2,10.5,0.2c5.7,0,6.3,0,6.3-2.1V58.7H17.2v37.8h-6.6V52.8H90z
			 M22.9,25.4h54.4v20.7H22.9V25.4z M70.5,41V30.5H29.4V41H70.5z M36.8,65.6v21.3v5.3h-6.1V65.6"/>
	</g>
	<g class="st1">
		<line x1="40.5" y1="66.9" x2="40.5" y2="76.3"/>
		<g>
			<rect x="39.8" y="66.9" width="1.5" height="4.9"/>
			<g>
				<path d="M40.5,76.3c-0.8-2.1-2.1-4.8-3.6-6.4l3.6,1.3l3.6-1.3C42.6,71.6,41.3,74.2,40.5,76.3z"/>
			</g>
		</g>
	</g>
	<g class="st1">
		<path d="M42.8,67.5c0-0.5,0.3-0.8,0.8-1l0,0c-0.4-0.2-0.6-0.5-0.6-0.9c0-0.6,0.5-1,1.2-1c0.8,0,1.1,0.5,1.1,1
			c0,0.3-0.2,0.7-0.6,0.9v0c0.5,0.2,0.8,0.5,0.8,1c0,0.7-0.6,1.1-1.3,1.1C43.2,68.5,42.8,68,42.8,67.5z M44.9,67.4
			c0-0.5-0.3-0.7-0.9-0.9c-0.5,0.1-0.7,0.4-0.7,0.8c0,0.4,0.3,0.7,0.8,0.7C44.6,68.1,44.9,67.8,44.9,67.4z M43.4,65.5
			c0,0.4,0.3,0.6,0.7,0.7c0.3-0.1,0.6-0.4,0.6-0.7c0-0.3-0.2-0.6-0.7-0.6C43.6,64.9,43.4,65.2,43.4,65.5z"/>
	</g>
</g>
<g id="Stroke6" class="st0">
	<g class="st1">
		<path d="M52.9,13.4h41.3v6H5.8v-6h40.3V3.5l8.8,0.6c-0.1,0.7-0.6,1.2-2,1.4V13.4z M17.2,96.5h-6.6V52.8H90v35.3c0,3.9-0.9,6-4,7.1
			c-3.1,1.1-8.6,1.1-17.3,1.1c-0.3-1.9-1.3-4.5-2.2-6.4c4.1,0.1,7.8,0.2,10.5,0.2c5.7,0,6.3,0,6.3-2.1V58.7H17.2 M22.9,25.4h54.4
			v20.7H22.9V25.4z M70.5,41V30.5H29.4V41H70.5z"/>
	</g>
	<g class="st1">
		<path d="M22.3,65.5v0.3l-1.7,3.5H20l1.7-3.4v0h-1.9v-0.4H22.3z"/>
	</g>
	<g class="st1">
		<path d="M19.8,62.7c0.7,0,12,0,12,0"/>
		<g>
			<rect x="19.8" y="62" width="7.4" height="1.5"/>
			<g>
				<path d="M31.8,62.7c-2.1,0.8-4.8,2.1-6.4,3.6l1.3-3.6l-1.3-3.6C27,60.6,29.6,61.9,31.8,62.7z"/>
			</g>
		</g>
	</g>
</g>
<g id="Stroke5" class="st0">
	<g class="st1">
		<path d="M52.9,13.4h41.3v6H5.8v-6h40.3V3.5l8.8,0.6c-0.1,0.7-0.6,1.2-2,1.4V13.4z M17.2,52.8v5.9v37.8h-6.6V52.8 M22.9,25.4h54.4
			v20.7H22.9V25.4z M70.5,41V30.5H29.4V41H70.5z"/>
	</g>
	<g class="st1">
		<path d="M21.3,53.3c0,1.7,0,14.5,0,14.7"/>
		<g>
			<path d="M20.6,63.5l0-4.5c0-2.6,0-5,0-5.7l1.5,0c0,0.7,0,3,0,5.7l0,4.5H20.6z"/>
			<g>
				<path d="M21.3,68c-0.8-2.1-2.1-4.8-3.6-6.4l3.6,1.3l3.6-1.3C23.5,63.3,22.1,65.9,21.3,68z"/>
			</g>
		</g>
	</g>
	<g class="st1">
		<path d="M25.8,53.7c-0.1,0-0.2,0-0.4,0c-0.8,0.1-1.3,0.7-1.4,1.4h0c0.2-0.2,0.5-0.4,0.9-0.4c0.7,0,1.2,0.5,1.2,1.3
			c0,0.7-0.5,1.4-1.3,1.4c-0.8,0-1.4-0.6-1.4-1.7c0-0.8,0.3-1.4,0.7-1.8c0.3-0.3,0.8-0.5,1.2-0.6c0.2,0,0.3,0,0.4,0V53.7z
			 M25.7,55.9c0-0.6-0.3-0.9-0.8-0.9c-0.3,0-0.6,0.2-0.8,0.5c0,0.1-0.1,0.1-0.1,0.2c0,0.6,0.3,1.1,0.9,1.1
			C25.4,56.8,25.7,56.5,25.7,55.9z"/>
	</g>
</g>
<g id="Stroke4" class="st0">
	<g class="st1">
		<path d="M52.9,13.4h41.3v6H5.8v-6h40.3V3.5l8.8,0.6c-0.1,0.7-0.6,1.2-2,1.4V13.4z M22.9,25.4h54.4v20.7H22.9V25.4z M70.5,41V30.5
			H29.4V41H70.5z"/>
	</g>
	<g class="st1">
		<path d="M25.5,52.9H24l-0.2,1c0.1,0,0.2,0,0.3,0c0.3,0,0.6,0.1,0.8,0.2c0.3,0.2,0.6,0.5,0.6,1c0,0.8-0.6,1.3-1.5,1.3
			c-0.4,0-0.8-0.1-1-0.2l0.1-0.4c0.2,0.1,0.5,0.2,0.8,0.2c0.5,0,0.9-0.3,0.9-0.8c0-0.5-0.3-0.9-1.1-0.9c-0.2,0-0.4,0-0.5,0l0.3-1.9
			h1.9V52.9z"/>
	</g>
	<g class="st1">
		<path d="M23.1,50c3.4,0,13.1,0,12.6,0"/>
		<g>
			<rect x="23.1" y="49.3" width="8" height="1.5"/>
			<g>
				<path d="M35.7,50c-2.1,0.8-4.8,2.1-6.4,3.6l1.3-3.6l-1.3-3.6C30.9,47.9,33.5,49.2,35.7,50z"/>
			</g>
		</g>
	</g>
</g>
<g id="Stroke3" class="st0">
	<g class="st1">
		<path d="M52.9,13.4h41.3v6H5.8v-6h40.3V3.5l8.8,0.6c-0.1,0.7-0.6,1.2-2,1.4V13.4z M22.9,46.1V25.4h54.4v20.7h-6.8V30.5H29.4
			l-0.2,15.6"/>
	</g>
	<g class="st1">
		<line x1="30.7" y1="34.7" x2="42.4" y2="34.7"/>
		<g>
			<rect x="30.7" y="34" width="7.2" height="1.5"/>
			<g>
				<path d="M42.4,34.7c-2.1,0.8-4.8,2.1-6.4,3.6l1.3-3.6L36,31.1C37.6,32.6,40.3,33.9,42.4,34.7z"/>
			</g>
		</g>
	</g>
	<g class="st1">
		<path d="M32.6,41.2v-1.1h-1.8v-0.3l1.7-2.5h0.6v2.4h0.5v0.4h-0.5v1.1H32.6z M32.6,39.7v-1.3c0-0.2,0-0.4,0-0.6h0
			c-0.1,0.2-0.2,0.4-0.3,0.6l-1,1.3v0H32.6z"/>
	</g>
</g>
<g id="Stroke2" class="st0">
	<g class="st1">
		<path d="M52.9,13.4h41.3v6H5.8v-6h40.3V3.5l8.8,0.6c-0.1,0.7-0.6,1.2-2,1.4V13.4z M29.4,25.4v5.1V41v5.1h-6.5V25.4"/>
	</g>
	<g class="st1">
		<path d="M33.2,25.9c0,0-0.1,9.1,0,11.4"/>
		<g>
			<path d="M33.9,32.7l-1.5,0c0-3.2,0.1-6.8,0.1-6.8l1.5,0C34,25.9,33.9,29.5,33.9,32.7z"/>
			<g>
				<path d="M33.2,37.2c-0.8-2.1-2.1-4.8-3.6-6.4l3.6,1.3l3.6-1.3C35.4,32.4,34,35.1,33.2,37.2z"/>
			</g>
		</g>
	</g>
	<g class="st1">
		<path d="M36.1,28.5c0.1,0.1,0.5,0.2,0.9,0.2c0.7,0,0.9-0.4,0.9-0.8c0-0.5-0.5-0.8-1-0.8h-0.3v-0.4h0.3c0.4,0,0.9-0.2,0.9-0.7
			c0-0.3-0.2-0.6-0.7-0.6c-0.3,0-0.6,0.1-0.8,0.3l-0.1-0.4c0.2-0.1,0.6-0.3,1-0.3c0.8,0,1.1,0.5,1.1,0.9c0,0.4-0.2,0.7-0.7,0.9v0
			c0.5,0.1,0.9,0.5,0.9,1c0,0.6-0.5,1.2-1.4,1.2c-0.4,0-0.8-0.1-1-0.3L36.1,28.5z"/>
	</g>
</g>
<g id="Stroke1" class="st0">
	<g class="st1">
		<path d="M52.9,13.4h41.3v6H5.8v-6h40.3V3.5l8.8,0.6c-0.1,0.7-0.6,1.2-2,1.4V13.4z"/>
	</g>
	<g class="st1">
		<rect x="5.6" y="22.5" width="10.8" height="1.5"/>
		<g>
			<path d="M20.9,23.3c-2.1,0.8-4.8,2.1-6.4,3.6l1.3-3.6l-1.3-3.6C16.2,21.1,18.8,22.5,20.9,23.3z"/>
		</g>
	</g>
	<g class="st1">
		<path d="M5.9,29.3V29l0.4-0.4c1-0.9,1.4-1.5,1.5-2c0-0.4-0.2-0.8-0.8-0.8c-0.4,0-0.6,0.2-0.8,0.3L6,25.8c0.3-0.2,0.7-0.4,1.1-0.4
			c0.8,0,1.2,0.6,1.2,1.1c0,0.7-0.5,1.3-1.3,2.1l-0.3,0.3v0h1.8v0.4H5.9z"/>
	</g>
</g>
<g id="Stroke0" class="st0">
	<g class="st1">
		<path d="M46.4,13.9V4l8.8,0.6c-0.1,0.7-0.6,1.2-2,1.4v7.9"/>
	</g>
	<g class="st1">
		<line x1="42.9" y1="4.6" x2="42.9" y2="13.9"/>
		<g>
			<rect x="42.1" y="4.6" width="1.5" height="4.8"/>
			<g>
				<path d="M42.9,13.9c-0.8-2.1-2.1-4.8-3.6-6.4l3.6,1.3l3.6-1.3C45,9.1,43.7,11.8,42.9,13.9z"/>
			</g>
		</g>
	</g>
	<g class="st1">
		<path d="M39.3,3.1L39.3,3.1l-0.7,0.4l-0.1-0.4l0.9-0.5h0.4v3.9h-0.5V3.1z"/>
	</g>
</g>
<g id="Kanji" class="st0">
	<g class="st1">
		<path d="M52.9,13.4h41.3v6H5.8v-6h40.3V3.5l8.8,0.6c-0.1,0.7-0.6,1.2-2,1.4V13.4z M90,52.8v35.3c0,3.9-0.9,6-4,7.1
			c-3.1,1.1-8.6,1.1-17.3,1.1c-0.3-1.9-1.3-4.5-2.2-6.4c4.1,0.1,7.8,0.2,10.5,0.2c5.7,0,6.3,0,6.3-2.1V58.7H17.2v37.8h-6.6V52.8H90z
			 M22.9,25.4h54.4v20.7H22.9V25.4z M70.5,41V30.5H29.4V41H70.5z M69.4,86.9H36.8v5.3h-6.1V65.6h38.7V86.9z M63.3,70.7H36.8v11.1
			h26.5V70.7z"/>
	</g>
</g>
</svg>
