<?xml version="1.0" encoding="utf-8"?>
<!-- Generator: Adobe Illustrator 26.2.1, SVG Export Plug-In . SVG Version: 6.00 Build 0)  -->
<svg version="1.1" xmlns="http://www.w3.org/2000/svg" xmlns:xlink="http://www.w3.org/1999/xlink" x="0px" y="0px"
	 viewBox="0 0 100 100" style="enable-background:new 0 0 100 100;" xml:space="preserve" width = "100px" height = "100px">
<style type="text/css">
	.st0{display:none;}
	.st1{display:inline;}
</style>

		<path d="M46.2,89v-9.4h-34v-5.5h34v-7.6H15.4V35.1h30.8v-6.7h-41v-5.6h41v-7.9c-10.7,0.7-21.9,1.2-32.2,1.5
			c-0.1-1.5-0.9-3.9-1.5-5.3c23.7-0.7,52.7-2.6,68.2-5.7l4.9,5.4c-0.2,0.2-0.6,0.3-1,0.3c-0.3,0-0.6-0.1-1-0.2
			c-8,1.4-18.9,2.6-30.7,3.5v8.4h41.8v5.6H52.9v6.7h32.2v31.3H52.9v7.6h36v5.5h-36V89 M22,40.1v8.2h24.2v-8.2H22z M22,61.5h24.2
			v-8.4H22V61.5z M78.4,40.1H52.9v8.2h25.4V40.1z M78.4,61.5v-8.4H52.9v8.4H78.4z"/>

		<line x1="11.8" y1="83.9" x2="32.8" y2="83.9"/>

			<rect x="11.8" y="83.2" width="16.5" height="1.5"/>

				<path d="M32.8,83.9c-2.1,0.8-4.8,2.1-6.4,3.6l1.3-3.6l-1.3-3.6C28,81.8,30.7,83.2,32.8,83.9z"/>

		<path d="M11.6,89c0-0.5,0.3-0.8,0.8-1l0,0c-0.4-0.2-0.6-0.5-0.6-0.9c0-0.6,0.5-1,1.2-1c0.8,0,1.1,0.5,1.1,1c0,0.3-0.2,0.7-0.6,0.9
			v0c0.5,0.2,0.8,0.5,0.8,1c0,0.7-0.6,1.1-1.3,1.1C12,90,11.6,89.5,11.6,89z M13.7,88.9c0-0.5-0.3-0.7-0.9-0.9
			c-0.5,0.1-0.7,0.4-0.7,0.8c0,0.4,0.3,0.7,0.8,0.7C13.3,89.6,13.7,89.3,13.7,88.9z M12.2,87c0,0.4,0.3,0.6,0.7,0.7
			c0.3-0.1,0.6-0.4,0.6-0.7c0-0.3-0.2-0.6-0.7-0.6C12.4,86.4,12.2,86.7,12.2,87z"/>

 </svg>