<?xml version="1.0" encoding="utf-8"?>
<!-- Generator: Adobe Illustrator 26.2.1, SVG Export Plug-In . SVG Version: 6.00 Build 0)  -->
<svg version="1.1" xmlns="http://www.w3.org/2000/svg" xmlns:xlink="http://www.w3.org/1999/xlink" x="0px" y="0px"
	 viewBox="0 0 100 100" style="enable-background:new 0 0 100 100;" xml:space="preserve" width = "100px" height = "100px">
<style type="text/css">
	.st0{display:none;}
	.st1{display:inline;}
</style> 

		<path d="M46.2,28.4h-41v-5.6h89.5v5.6H52.9 M46.2,53.1H22v13.4h-6.6V35.1h69.7v31.3h-6.8V53.1H52.9 M46.2,14.9
			c-10.7,0.7-21.9,1.2-32.2,1.5c-0.1-1.5-0.9-3.9-1.5-5.3c23.7-0.7,52.7-2.6,68.2-5.7l4.9,5.4c-0.2,0.2-0.6,0.3-1,0.3
			c-0.3,0-0.6-0.1-1-0.2c-8,1.4-18.9,2.6-30.7,3.5 M52.9,48.3h25.4v-8.7L22,40.1v8.2h24.2"/>

		<path d="M26.5,59.4H25l-0.1,1c0.1,0,0.2,0,0.3,0c0.3,0,0.6,0.1,0.8,0.2c0.3,0.2,0.6,0.5,0.6,1c0,0.8-0.6,1.3-1.5,1.3
			c-0.4,0-0.8-0.1-1-0.2l0.1-0.4c0.2,0.1,0.5,0.2,0.8,0.2c0.5,0,0.9-0.3,0.9-0.8c0-0.5-0.3-0.9-1.1-0.9c-0.2,0-0.4,0-0.5,0l0.3-1.9
			h1.9V59.4z"/>

		<line x1="24.1" y1="57.3" x2="44" y2="57.3"/>

			<rect x="24.1" y="56.6" width="15.3" height="1.5"/>

				<path d="M44,57.3c-2.1,0.8-4.8,2.1-6.4,3.6l1.3-3.6l-1.3-3.6C39.2,55.2,41.8,56.5,44,57.3z"/>


</svg>