<?xml version="1.0" encoding="utf-8"?>
<!-- Generator: Adobe Illustrator 26.2.1, SVG Export Plug-In . SVG Version: 6.00 Build 0)  -->
<svg version="1.1" xmlns="http://www.w3.org/2000/svg" xmlns:xlink="http://www.w3.org/1999/xlink" x="0px" y="0px"
	 viewBox="0 0 100 100" style="enable-background:new 0 0 100 100;" xml:space="preserve" width = "100px" height = "100px">
<style type="text/css">
	.st0{display:none;}
	.st1{display:inline;}
</style> 

		<path d="M46.2,14.9c-10.7,0.7-21.9,1.2-32.2,1.5c-0.1-1.5-0.9-3.9-1.5-5.3c23.7-0.7,52.7-2.6,68.2-5.7l4.9,5.4
			c-0.2,0.2-0.6,0.3-1,0.3c-0.3,0-0.6-0.1-1-0.2c-8,1.4-18.9,2.6-30.7,3.5"/>


		<path d="M14.5,20v-1.5l7,0c7,0,13.7,0,20,0l0,1.5c-6.3,0-13,0-20,0L14.5,20z"/>

			<path d="M46,19.2c-2.1-0.8-4.8-2.1-6.4-3.6l1.3,3.6l-1.3,3.6C41.2,21.4,43.8,20,46,19.2z"/>

		<path d="M16,21.7L16,21.7l-0.7,0.4l-0.1-0.4l0.9-0.5h0.4v3.9H16V21.7z"/>

</svg>