<?xml version="1.0" encoding="utf-8"?>
<!-- Generator: Adobe Illustrator 26.2.1, SVG Export Plug-In . SVG Version: 6.00 Build 0)  -->
<svg version="1.1" xmlns="http://www.w3.org/2000/svg" xmlns:xlink="http://www.w3.org/1999/xlink" x="0px" y="0px"
	 viewBox="0 0 100 100" style="enable-background:new 0 0 100 100;" xml:space="preserve" width = "100px" height = "100px">
<style type="text/css">
	.st0{display:none;}
	.st1{display:inline;}
</style>

		<path d="M46.2,89v-9.4v-5.5v-7.6H15.4V35.1h30.8v-6.7h-41v-5.6h41v-7.9c-10.7,0.7-21.9,1.2-32.2,1.5c-0.1-1.5-0.9-3.9-1.5-5.3
			c23.7-0.7,52.7-2.6,68.2-5.7l4.9,5.4c-0.2,0.2-0.6,0.3-1,0.3c-0.3,0-0.6-0.1-1-0.2c-8,1.4-18.9,2.6-30.7,3.5v8.4h41.8v5.6H52.9
			v6.7h32.2v31.3H52.9v7.6v5.5V89 M22,40.1v8.2h24.2v-8.2H22z M22,61.5h24.2v-8.4H22V61.5z M78.4,40.1H52.9v8.2h25.4V40.1z
			 M78.4,61.5v-8.4H52.9v8.4H78.4z"/>


		<line x1="57.1" y1="15" x2="57.1" y2="21.8"/>

			<rect x="56.3" y="15" width="1.5" height="3.2"/>

				<path d="M57.1,21.8c-0.6-1.7-1.7-3.8-2.9-5.1l2.9,1l2.9-1C58.8,18,57.7,20.1,57.1,21.8z"/>

		<path d="M63.6,15.1v0.3L61.9,19h-0.5l1.7-3.4v0h-1.9v-0.4H63.6z"/>

 </svg>