<?xml version="1.0" encoding="utf-8"?>
<!-- Generator: Adobe Illustrator 26.2.1, SVG Export Plug-In . SVG Version: 6.00 Build 0)  -->
<svg version="1.1" xmlns="http://www.w3.org/2000/svg" xmlns:xlink="http://www.w3.org/1999/xlink" x="0px" y="0px"
	 viewBox="0 0 100 100" style="enable-background:new 0 0 100 100;" xml:space="preserve" width = "100px" height = "100px">
<style type="text/css">
	.st0{display:none;}
	.st1{display:inline;}
</style> 

		<path d="M46.2,14.9c-10.7,0.7-21.9,1.2-32.2,1.5c-0.1-1.5-0.9-3.9-1.5-5.3c23.7-0.7,52.7-2.6,68.2-5.7l4.9,5.4
			c-0.2,0.2-0.6,0.3-1,0.3c-0.3,0-0.6-0.1-1-0.2c-8,1.4-18.9,2.6-30.7,3.5 M46.2,28.4h-41v-5.6h89.5v5.6H52.9 M78.4,61.5v-8.4v-4.7
			v-8.2H22v8.2v4.7v8.4v5h-6.6V35.1h69.7v31.3h-6.8"/>

		<line x1="24.6" y1="44.6" x2="44.6" y2="44.6"/>

			<rect x="24.6" y="43.8" width="15.5" height="1.5"/>

				<path d="M44.6,44.6c-2.1,0.8-4.8,2.1-6.4,3.6l1.3-3.6L38.2,41C39.9,42.4,42.5,43.8,44.6,44.6z"/>

		<path d="M26.5,50v-1.1h-1.8v-0.3l1.7-2.5H27v2.4h0.5v0.4H27V50H26.5z M26.5,48.5v-1.3c0-0.2,0-0.4,0-0.6h0
			c-0.1,0.2-0.2,0.4-0.3,0.6l-1,1.3v0H26.5z"/>


</svg>