<?xml version="1.0" encoding="utf-8"?>
<!-- Generator: Adobe Illustrator 26.2.1, SVG Export Plug-In . SVG Version: 6.00 Build 0)  -->
<svg version="1.1" xmlns="http://www.w3.org/2000/svg" xmlns:xlink="http://www.w3.org/1999/xlink" x="0px" y="0px"
	 viewBox="0 0 100 100" style="enable-background:new 0 0 100 100;" xml:space="preserve" width = "100px" height = "100px">
<style type="text/css">
	.st0{display:none;}
	.st1{display:inline;}
</style>

		<path d="M46.2,14.9c-10.7,0.7-21.9,1.2-32.2,1.5c-0.1-1.5-0.9-3.9-1.5-5.3c23.7-0.7,52.7-2.6,68.2-5.7l4.9,5.4
			c-0.2,0.2-0.6,0.3-1,0.3c-0.3,0-0.6-0.1-1-0.2c-8,1.4-18.9,2.6-30.7,3.5 M94.8,22.8v5.6H5.2v-5.6 M46.2,66.5H15.4V35.1h30.8h6.7
			h32.2v31.3H52.9 M78.4,40.1H22v8.2h56.3V40.1H52.9 M78.4,61.5v-8.4H22v8.4"/>

		<path d="M15.3,70.9c1.3,0,25,0,25,0"/>

			<rect x="15.3" y="70.2" width="20.5" height="1.5"/>
	
				<path d="M40.3,70.9c-2.1,0.8-4.8,2.1-6.4,3.6l1.3-3.6l-1.3-3.6C35.5,68.8,38.2,70.1,40.3,70.9z"/>

		<path d="M17.9,74c-0.1,0-0.2,0-0.4,0c-0.8,0.1-1.3,0.7-1.4,1.4h0c0.2-0.2,0.5-0.4,0.9-0.4c0.7,0,1.2,0.5,1.2,1.3
			c0,0.7-0.5,1.4-1.3,1.4c-0.8,0-1.4-0.6-1.4-1.7c0-0.8,0.3-1.4,0.7-1.8c0.3-0.3,0.8-0.5,1.2-0.6c0.2,0,0.3,0,0.4,0V74z M17.8,76.3
			c0-0.6-0.3-0.9-0.8-0.9c-0.3,0-0.6,0.2-0.8,0.5c0,0.1-0.1,0.1-0.1,0.2c0,0.6,0.3,1.1,0.9,1.1C17.5,77.2,17.8,76.8,17.8,76.3z"/>

 </svg>