<?xml version="1.0" encoding="utf-8"?>
<!-- Generator: Adobe Illustrator 26.2.1, SVG Export Plug-In . SVG Version: 6.00 Build 0)  -->
<svg version="1.1" xmlns="http://www.w3.org/2000/svg" xmlns:xlink="http://www.w3.org/1999/xlink" x="0px" y="0px"
	 viewBox="0 0 100 100" style="enable-background:new 0 0 100 100;" xml:space="preserve" width = "100px" height = "100px">
<style type="text/css">
	.st0{display:none;}
	.st1{display:inline;}
</style> 

		<path d="M46.2,14.9c-10.7,0.7-21.9,1.2-32.2,1.5c-0.1-1.5-0.9-3.9-1.5-5.3c23.7-0.7,52.7-2.6,68.2-5.7l4.9,5.4
			c-0.2,0.2-0.6,0.3-1,0.3c-0.3,0-0.6-0.1-1-0.2c-8,1.4-18.9,2.6-30.7,3.5 M46.2,28.4h-41v-5.6h89.5v5.6H52.9 M22,35.1v5v8.2v4.7
			v8.4v5h-6.6V35.1 M4.6,94.6"/>

		<path d="M26.1,35.1c0,0.2,0,13,0,13"/>

			<rect x="25.4" y="35.1" width="1.5" height="8.5"/>

				<path d="M26.1,48.2c-0.8-2.1-2.1-4.8-3.6-6.4l3.6,1.3l3.6-1.3C28.3,43.4,26.9,46.1,26.1,48.2z"/>

		<path d="M29,37.7c0.1,0.1,0.5,0.2,0.9,0.2c0.7,0,0.9-0.4,0.9-0.8c0-0.5-0.5-0.8-1-0.8h-0.3v-0.4h0.3c0.4,0,0.9-0.2,0.9-0.7
			c0-0.3-0.2-0.6-0.7-0.6c-0.3,0-0.6,0.1-0.8,0.3L29,34.7c0.2-0.1,0.6-0.3,1-0.3c0.8,0,1.1,0.5,1.1,0.9c0,0.4-0.2,0.7-0.7,0.9v0
			c0.5,0.1,0.9,0.5,0.9,1c0,0.6-0.5,1.2-1.4,1.2c-0.4,0-0.8-0.1-1-0.3L29,37.7z"/>

</svg>