<?xml version="1.0" encoding="utf-8"?>
<!-- Generator: Adobe Illustrator 26.2.1, SVG Export Plug-In . SVG Version: 6.00 Build 0)  -->
<svg version="1.1" xmlns="http://www.w3.org/2000/svg" xmlns:xlink="http://www.w3.org/1999/xlink" x="0px" y="0px"
	 viewBox="0 0 100 100" style="enable-background:new 0 0 100 100;" xml:space="preserve" width = "100px" height = "100px">
<style type="text/css">
	.st0{display:none;}
	.st1{display:inline;}
</style>

		<path d="M52.9,89h42.4v5.6H4.6V89h41.6v-9.4h-34v-5.5h34v-7.6H15.4V35.1h30.8v-6.7h-41v-5.6h41v-7.9c-10.7,0.7-21.9,1.2-32.2,1.5
			c-0.1-1.5-0.9-3.9-1.5-5.3c23.7-0.7,52.7-2.6,68.2-5.7l4.9,5.4c-0.2,0.2-0.6,0.3-1,0.3c-0.3,0-0.6-0.1-1-0.2
			c-8,1.4-18.9,2.6-30.7,3.5v8.4h41.8v5.6H52.9v6.7h32.2v31.3H52.9v7.6h36v5.5h-36V89z M22,40.1v8.2h24.2v-8.2H22z M22,61.5h24.2
			v-8.4H22V61.5z M78.4,40.1H52.9v8.2h25.4V40.1z M78.4,61.5v-8.4H52.9v8.4H78.4z"/>

		<line x1="5.1" y1="85.2" x2="25.4" y2="85.2"/>
	
			<rect x="5.1" y="84.4" width="15.7" height="1.5"/>

				<path d="M25.4,85.2c-2.1,0.8-4.8,2.1-6.4,3.6l1.3-3.6L19,81.6C20.6,83,23.2,84.4,25.4,85.2z"/>

		<path d="M5.5,82.7c0.1,0,0.2,0,0.4,0c0.3,0,0.6-0.2,0.8-0.4c0.3-0.2,0.4-0.6,0.5-1h0c-0.2,0.3-0.5,0.4-0.9,0.4
			c-0.7,0-1.2-0.5-1.2-1.2c0-0.7,0.5-1.4,1.3-1.4s1.3,0.6,1.3,1.6c0,0.9-0.3,1.5-0.7,1.8c-0.3,0.3-0.7,0.5-1.1,0.5
			c-0.2,0-0.4,0-0.5,0V82.7z M5.7,80.5c0,0.5,0.3,0.8,0.7,0.8c0.4,0,0.6-0.2,0.8-0.4c0,0,0-0.1,0-0.2c0-0.7-0.2-1.2-0.8-1.2
			C6,79.5,5.7,79.9,5.7,80.5z"/>

 </svg>