<?xml version="1.0" encoding="utf-8"?>
<!-- Generator: Adobe Illustrator 26.2.1, SVG Export Plug-In . SVG Version: 6.00 Build 0)  -->
<svg version="1.1" xmlns="http://www.w3.org/2000/svg" xmlns:xlink="http://www.w3.org/1999/xlink" x="0px" y="0px"
	 viewBox="0 0 100 100" style="enable-background:new 0 0 100 100;" xml:space="preserve" width = "100px" height = "100px">
<style type="text/css">
	.st0{display:none;}
	.st1{display:inline;}
</style> 

		<path d="M46.2,14.9c-10.7,0.7-21.9,1.2-32.2,1.5c-0.1-1.5-0.9-3.9-1.5-5.3c23.7-0.7,52.7-2.6,68.2-5.7l4.9,5.4
			c-0.2,0.2-0.6,0.3-1,0.3c-0.3,0-0.6-0.1-1-0.2c-8,1.4-18.9,2.6-30.7,3.5 M46.2,28.4h-41v-5.6c1.6-0.3,89.5,0,89.5,0v5.6H52.9"/>

		<line x1="5.2" y1="32.3" x2="29.5" y2="32.3"/>

			<rect x="5.2" y="31.6" width="19.7" height="1.5"/>

				<path d="M29.5,32.3c-2.1,0.8-4.8,2.1-6.4,3.6l1.3-3.6l-1.3-3.6C24.7,30.2,27.4,31.5,29.5,32.3z"/>

		<path d="M5.5,39v-0.3l0.4-0.4c1-0.9,1.4-1.5,1.5-2c0-0.4-0.2-0.8-0.8-0.8c-0.4,0-0.6,0.2-0.8,0.3l-0.2-0.4C5.9,35.2,6.3,35,6.7,35
			c0.8,0,1.2,0.6,1.2,1.1c0,0.7-0.5,1.3-1.3,2.1l-0.3,0.3v0H8V39H5.5z"/>

</svg>