<?xml version="1.0" encoding="utf-8"?>
<!-- Generator: Adobe Illustrator 26.2.1, SVG Export Plug-In . SVG Version: 6.00 Build 0)  -->
<svg version="1.1" xmlns="http://www.w3.org/2000/svg" xmlns:xlink="http://www.w3.org/1999/xlink" x="0px" y="0px"
	 viewBox="0 0 100 100" style="enable-background:new 0 0 100 100;" xml:space="preserve">
<style type="text/css">
	.st0{display:none;}
	.st1{display:inline;}
</style>
<g id="Stroke7">
	<g>
		<path d="M7.9,8.2h84.1v83.7h-6.9v-4.6H14.5v4.6H7.9V8.2z M14.5,81.2h70.6v-67H14.5V81.2z M52.6,66.3h25.9v5.6H22.1v-5.6h24.1V48.8
			H26.6v-5.4h19.6V28.5H23.7V23h52.5v5.5H52.6v14.9h21.2v5.4H52.6V66.3z M69.9,64.5c-2.1-3-6.5-7.8-10.3-11.1l4.4-2.3
			c3.9,3.2,8.4,7.7,10.6,10.7L69.9,64.5z"/>
	</g>
	<g>
		<line x1="15.5" y1="90.8" x2="29.6" y2="90.8"/>
		<g>
			<rect x="15.5" y="90.1" width="9.5" height="1.5"/>
			<g>
				<path d="M29.6,90.8c-2.1,0.8-4.8,2.1-6.4,3.6l1.3-3.6l-1.3-3.6C24.8,88.7,27.4,90.1,29.6,90.8z"/>
			</g>
		</g>
	</g>
	<g>
		<path d="M15.1,96.2c0-0.5,0.3-0.8,0.8-1l0,0c-0.4-0.2-0.6-0.5-0.6-0.9c0-0.6,0.5-1,1.2-1c0.8,0,1.1,0.5,1.1,1
			c0,0.3-0.2,0.7-0.6,0.9v0c0.5,0.2,0.8,0.5,0.8,1c0,0.7-0.6,1.1-1.3,1.1C15.6,97.3,15.1,96.8,15.1,96.2z M17.2,96.2
			c0-0.5-0.3-0.7-0.9-0.9c-0.5,0.1-0.7,0.4-0.7,0.8c0,0.4,0.3,0.7,0.8,0.7C16.9,96.9,17.2,96.6,17.2,96.2z M15.8,94.2
			c0,0.4,0.3,0.6,0.7,0.7c0.3-0.1,0.6-0.4,0.6-0.7c0-0.3-0.2-0.6-0.7-0.6C16,93.6,15.8,93.9,15.8,94.2z"/>
	</g>
</g>
<g id="Stroke6" class="st0">
	<g class="st1">
		<path d="M85.2,14.2H14.5v77.6H7.9V8.2h84.1v83.7h-6.9 M52.6,66.3h25.9v5.6H22.1v-5.6h24.1V48.8H26.6v-5.4h19.6V28.5H23.7V23h52.5
			v5.5H52.6v14.9h21.2v5.4H52.6V66.3z M69.9,64.5c-2.1-3-6.5-7.8-10.3-11.1l4.4-2.3c3.9,3.2,8.4,7.7,10.6,10.7L69.9,64.5z"/>
	</g>
	<g class="st1">
		<path d="M57.4,57.1c0.6,0.3,7.4,6.7,7.4,6.7"/>
		<g>
			<path d="M61,61.2c-3.3-3-3.9-3.5-4-3.5l0.8-1.3c0.1,0.1,0.5,0.3,4.2,3.7L61,61.2z"/>
			<g>
				<path d="M64.8,63.8c-2.1-0.9-5-1.7-7.1-1.7l3.4-1.7l1.5-3.5C62.8,58.9,63.8,61.7,64.8,63.8z"/>
			</g>
		</g>
	</g>
	<g class="st1">
		<path d="M57,51.8v0.3l-1.7,3.5h-0.5l1.7-3.4v0h-1.9v-0.4H57z"/>
	</g>
</g>
<g id="Stroke5" class="st0">
	<g class="st1">
		<path d="M85.2,14.2H14.5v77.6H7.9V8.2h84.1v83.7h-6.9 M52.6,66.3h25.9v5.6H22.1v-5.6h24.1V48.8H26.6v-5.4h19.6V28.5H23.7V23h52.5
			v5.5H52.6v14.9h21.2v5.4H52.6V66.3z"/>
	</g>
	<g class="st1">
		<path d="M22.1,76.3c2.9,0,14.6,0,14.1,0"/>
		<g>
			<path d="M31.7,77.1l-3.3,0c-2.6,0-5.1,0-6.3,0l0-1.5c1.1,0,3.7,0,6.3,0l3.3,0L31.7,77.1z"/>
			<g>
				<path d="M36.2,76.3c-2.1,0.8-4.8,2.1-6.4,3.6l1.3-3.6l-1.3-3.6C31.4,74.2,34.1,75.5,36.2,76.3z"/>
			</g>
		</g>
	</g>
	<g class="st1">
		<path d="M24.2,78.7c-0.1,0-0.2,0-0.4,0c-0.8,0.1-1.3,0.7-1.4,1.4h0c0.2-0.2,0.5-0.4,0.9-0.4c0.7,0,1.2,0.5,1.2,1.3
			c0,0.7-0.5,1.4-1.3,1.4c-0.8,0-1.4-0.6-1.4-1.7c0-0.8,0.3-1.4,0.7-1.8c0.3-0.3,0.8-0.5,1.2-0.6c0.2,0,0.3,0,0.4,0V78.7z M24.1,81
			c0-0.6-0.3-0.9-0.8-0.9c-0.3,0-0.6,0.2-0.8,0.5c0,0.1-0.1,0.1-0.1,0.2c0,0.6,0.3,1.1,0.9,1.1C23.7,81.9,24.1,81.5,24.1,81z"/>
	</g>
</g>
<g id="Stroke4" class="st0">
	<g class="st1">
		<path d="M85.2,14.2H14.5v77.6H7.9V8.2h84.1v83.7h-6.9 M46.2,66.3V48.8H26.6v-5.4h19.6V28.5H23.7V23h52.5v5.5H52.6v14.9h21.2v5.4
			H52.6v17.4"/>
	</g>
	<g class="st1">
		<path d="M27,52.9c2.4,0,13.9,0,13.6,0"/>
		<g>
			<path d="M36,53.7l-3.7,0c-2.3,0-4.5,0-5.4,0l0-1.5c0.9,0,3,0,5.4,0l3.7,0L36,53.7z"/>
			<g>
				<path d="M40.6,52.9c-2.1,0.8-4.8,2.1-6.4,3.6l1.3-3.6l-1.3-3.6C35.8,50.8,38.4,52.1,40.6,52.9z"/>
			</g>
		</g>
	</g>
	<g class="st1">
		<path d="M29.3,55.7h-1.5l-0.1,1c0.1,0,0.2,0,0.3,0c0.3,0,0.6,0.1,0.8,0.2c0.3,0.2,0.6,0.5,0.6,1c0,0.8-0.6,1.3-1.5,1.3
			c-0.4,0-0.8-0.1-1-0.2l0.1-0.4c0.2,0.1,0.5,0.2,0.8,0.2c0.5,0,0.9-0.3,0.9-0.8c0-0.5-0.3-0.9-1.1-0.9c-0.2,0-0.4,0-0.5,0l0.3-1.9
			h1.9V55.7z"/>
	</g>
</g>
<g id="Stroke3" class="st0">
	<g class="st1">
		<path d="M85.2,14.2H14.5v77.6H7.9V8.2h84.1v83.7h-6.9 M46.2,43.4V28.5H23.7V23h52.5v5.5H52.6v14.9v5.4v17.4h-6.3 M46.2,48.8"/>
	</g>
	<g class="st1">
		<path d="M57.2,29.6c0,0.6,0,9.6,0,9.6"/>
		<g>
			<rect x="56.5" y="29.6" width="1.5" height="5.1"/>
			<g>
				<path d="M57.2,39.2c-0.8-2.1-2.1-4.8-3.6-6.4l3.6,1.3l3.6-1.3C59.4,34.5,58,37.1,57.2,39.2z"/>
			</g>
		</g>
	</g>
	<g class="st1">
		<path d="M63.6,33.4v-1.1h-1.8V32l1.7-2.5h0.6v2.4h0.5v0.4h-0.5v1.1H63.6z M63.6,31.9v-1.3c0-0.2,0-0.4,0-0.6h0
			c-0.1,0.2-0.2,0.4-0.3,0.6l-1,1.3v0H63.6z"/>
	</g>
</g>
<g id="Stroke2" class="st0">
	<g class="st1">
		<path d="M85.2,14.2H14.5v77.6H7.9V8.2h84.1v83.7h-6.9 M52.6,48.8 M46.2,28.5H23.7V23h52.5v5.5H52.6"/>
	</g>
	<g class="st1">
		<line x1="23.7" y1="32.8" x2="36.2" y2="32.8"/>
		<g>
			<rect x="23.7" y="32" width="8" height="1.5"/>
			<g>
				<path d="M36.2,32.8c-2.1,0.8-4.8,2.1-6.4,3.6l1.3-3.6l-1.3-3.6C31.5,30.6,34.1,32,36.2,32.8z"/>
			</g>
		</g>
	</g>
	<g class="st1">
		<path d="M23.7,38.9c0.1,0.1,0.5,0.2,0.9,0.2c0.7,0,0.9-0.4,0.9-0.8c0-0.5-0.5-0.8-1-0.8h-0.3v-0.4h0.3c0.4,0,0.9-0.2,0.9-0.7
			c0-0.3-0.2-0.6-0.7-0.6c-0.3,0-0.6,0.1-0.8,0.3l-0.1-0.4c0.2-0.1,0.6-0.3,1-0.3c0.8,0,1.1,0.5,1.1,0.9c0,0.4-0.2,0.7-0.7,0.9v0
			c0.5,0.1,0.9,0.5,0.9,1c0,0.6-0.5,1.2-1.4,1.2c-0.4,0-0.8-0.1-1-0.3L23.7,38.9z"/>
	</g>
</g>
<g id="Stroke1" class="st0">
	<g class="st1">
		<path d="M85.2,14.2H14.5v77.6H7.9V8.2h84.1v83.7h-6.9"/>
	</g>
	<g class="st1">
		<path d="M16.6,18.1c1.3,0,15.5,0,15.5,0"/>
		<g>
			<rect x="16.6" y="17.3" width="11" height="1.5"/>
			<g>
				<path d="M32.1,18.1c-2.1,0.8-4.8,2.1-6.4,3.6l1.3-3.6l-1.3-3.6C27.3,15.9,30,17.3,32.1,18.1z"/>
			</g>
		</g>
	</g>
	<g class="st1">
		<path d="M16.9,24.3V24l0.4-0.4c1-0.9,1.4-1.5,1.5-2c0-0.4-0.2-0.8-0.8-0.8c-0.4,0-0.6,0.2-0.8,0.3L17,20.8
			c0.3-0.2,0.7-0.4,1.1-0.4c0.8,0,1.2,0.6,1.2,1.1c0,0.7-0.5,1.3-1.3,2.1l-0.3,0.3v0h1.8v0.4H16.9z"/>
	</g>
</g>
<g id="Stroke0" class="st0">
	<g class="st1">
		<path d="M14.5,8.2v6.1v67v6v4.6H7.9V8.2"/>
	</g>
	<g class="st1">
		<line x1="18.5" y1="8.2" x2="18.5" y2="19.6"/>
		<g>
			<rect x="17.8" y="8.2" width="1.5" height="6.9"/>
			<g>
				<path d="M18.5,19.6c-0.8-2.1-2.1-4.8-3.6-6.4l3.6,1.3l3.6-1.3C20.7,14.8,19.3,17.5,18.5,19.6z"/>
			</g>
		</g>
	</g>
	<g class="st1">
		<path d="M23.6,8.6L23.6,8.6L22.9,9l-0.1-0.4l0.9-0.5h0.4V12h-0.5V8.6z"/>
	</g>
</g>
<g id="Kanji" class="st0">
	<g class="st1">
		<path d="M7.9,8.2h84.1v83.7h-6.9v-4.6H14.5v4.6H7.9V8.2z M14.5,81.2h70.6v-67H14.5V81.2z M52.6,66.3h25.9v5.6H22.1v-5.6h24.1V48.8
			H26.6v-5.4h19.6V28.5H23.7V23h52.5v5.5H52.6v14.9h21.2v5.4H52.6V66.3z M69.9,64.5c-2.1-3-6.5-7.8-10.3-11.1l4.4-2.3
			c3.9,3.2,8.4,7.7,10.6,10.7L69.9,64.5z"/>
	</g>
</g>
</svg>
