<?xml version="1.0" encoding="utf-8"?>
<!-- Generator: Adobe Illustrator 26.2.1, SVG Export Plug-In . SVG Version: 6.00 Build 0)  -->
<svg version="1.1" xmlns="http://www.w3.org/2000/svg" xmlns:xlink="http://www.w3.org/1999/xlink" x="0px" y="0px"
	 viewBox="0 0 100 100" style="enable-background:new 0 0 100 100;" xml:space="preserve" width = "100px" height = "100px">
<style type="text/css">
	.st0{display:none;}
	.st1{display:inline;}
</style>


		<path d="M85.2,14.2H14.5v77.6H7.9V8.2h84.1v83.7h-6.9 M46.2,43.4V28.5H23.7V23h52.5v5.5H52.6v14.9v5.4v17.4h-6.3 M46.2,48.8"/>

		<path d="M57.2,29.6c0,0.6,0,9.6,0,9.6"/>

			<rect x="56.5" y="29.6" width="1.5" height="5.1"/>

				<path d="M57.2,39.2c-0.8-2.1-2.1-4.8-3.6-6.4l3.6,1.3l3.6-1.3C59.4,34.5,58,37.1,57.2,39.2z"/>

		<path d="M63.6,33.4v-1.1h-1.8V32l1.7-2.5h0.6v2.4h0.5v0.4h-0.5v1.1H63.6z M63.6,31.9v-1.3c0-0.2,0-0.4,0-0.6h0
			c-0.1,0.2-0.2,0.4-0.3,0.6l-1,1.3v0H63.6z"/>

 </svg>