<?xml version="1.0" encoding="utf-8"?>
<!-- Generator: Adobe Illustrator 26.2.1, SVG Export Plug-In . SVG Version: 6.00 Build 0)  -->
<svg version="1.1" xmlns="http://www.w3.org/2000/svg" xmlns:xlink="http://www.w3.org/1999/xlink" x="0px" y="0px"
	 viewBox="0 0 100 100" style="enable-background:new 0 0 100 100;" xml:space="preserve" width = "100px" height = "100px">
<style type="text/css">
	.st0{display:none;}
	.st1{display:inline;}
</style>

		<path d="M85.2,14.2H14.5v77.6H7.9V8.2h84.1v83.7h-6.9 M52.6,66.3h25.9v5.6H22.1v-5.6h24.1V48.8H26.6v-5.4h19.6V28.5H23.7V23h52.5
			v5.5H52.6v14.9h21.2v5.4H52.6V66.3z"/>

		<path d="M22.1,76.3c2.9,0,14.6,0,14.1,0"/>
	
			<path d="M31.7,77.1l-3.3,0c-2.6,0-5.1,0-6.3,0l0-1.5c1.1,0,3.7,0,6.3,0l3.3,0L31.7,77.1z"/>
	
				<path d="M36.2,76.3c-2.1,0.8-4.8,2.1-6.4,3.6l1.3-3.6l-1.3-3.6C31.4,74.2,34.1,75.5,36.2,76.3z"/>

		<path d="M24.2,78.7c-0.1,0-0.2,0-0.4,0c-0.8,0.1-1.3,0.7-1.4,1.4h0c0.2-0.2,0.5-0.4,0.9-0.4c0.7,0,1.2,0.5,1.2,1.3
			c0,0.7-0.5,1.4-1.3,1.4c-0.8,0-1.4-0.6-1.4-1.7c0-0.8,0.3-1.4,0.7-1.8c0.3-0.3,0.8-0.5,1.2-0.6c0.2,0,0.3,0,0.4,0V78.7z M24.1,81
			c0-0.6-0.3-0.9-0.8-0.9c-0.3,0-0.6,0.2-0.8,0.5c0,0.1-0.1,0.1-0.1,0.2c0,0.6,0.3,1.1,0.9,1.1C23.7,81.9,24.1,81.5,24.1,81z"/>

 </svg>