<?xml version="1.0" encoding="utf-8"?>
<!-- Generator: Adobe Illustrator 26.2.1, SVG Export Plug-In . SVG Version: 6.00 Build 0)  -->
<svg version="1.1" xmlns="http://www.w3.org/2000/svg" xmlns:xlink="http://www.w3.org/1999/xlink" x="0px" y="0px"
	 viewBox="0 0 100 100" style="enable-background:new 0 0 100 100;" xml:space="preserve" width = "100px" height = "100px">
<style type="text/css">
	.st0{display:none;}
	.st1{display:inline;}
</style> 

		<path d="M85.2,14.2H14.5v77.6H7.9V8.2h84.1v83.7h-6.9 M52.6,66.3h25.9v5.6H22.1v-5.6h24.1V48.8H26.6v-5.4h19.6V28.5H23.7V23h52.5
			v5.5H52.6v14.9h21.2v5.4H52.6V66.3z M69.9,64.5c-2.1-3-6.5-7.8-10.3-11.1l4.4-2.3c3.9,3.2,8.4,7.7,10.6,10.7L69.9,64.5z"/>

		<path d="M57.4,57.1c0.6,0.3,7.4,6.7,7.4,6.7"/>

			<path d="M61,61.2c-3.3-3-3.9-3.5-4-3.5l0.8-1.3c0.1,0.1,0.5,0.3,4.2,3.7L61,61.2z"/>
	
				<path d="M64.8,63.8c-2.1-0.9-5-1.7-7.1-1.7l3.4-1.7l1.5-3.5C62.8,58.9,63.8,61.7,64.8,63.8z"/>

		<path d="M57,51.8v0.3l-1.7,3.5h-0.5l1.7-3.4v0h-1.9v-0.4H57z"/>

</svg>