<?xml version="1.0" encoding="utf-8"?>
<!-- Generator: Adobe Illustrator 26.2.1, SVG Export Plug-In . SVG Version: 6.00 Build 0)  -->
<svg version="1.1" xmlns="http://www.w3.org/2000/svg" xmlns:xlink="http://www.w3.org/1999/xlink" x="0px" y="0px"
	 viewBox="0 0 100 100" style="enable-background:new 0 0 100 100;" xml:space="preserve" width = "100px" height = "100px">
<style type="text/css">
	.st0{display:none;}
	.st1{display:inline;}
</style> 



		<path d="M85.2,14.2H14.5v77.6H7.9V8.2h84.1v83.7h-6.9 M46.2,66.3V48.8H26.6v-5.4h19.6V28.5H23.7V23h52.5v5.5H52.6v14.9h21.2v5.4
			H52.6v17.4"/>


		<path d="M27,52.9c2.4,0,13.9,0,13.6,0"/>

			<path d="M36,53.7l-3.7,0c-2.3,0-4.5,0-5.4,0l0-1.5c0.9,0,3,0,5.4,0l3.7,0L36,53.7z"/>
	
				<path d="M40.6,52.9c-2.1,0.8-4.8,2.1-6.4,3.6l1.3-3.6l-1.3-3.6C35.8,50.8,38.4,52.1,40.6,52.9z"/>

		<path d="M29.3,55.7h-1.5l-0.1,1c0.1,0,0.2,0,0.3,0c0.3,0,0.6,0.1,0.8,0.2c0.3,0.2,0.6,0.5,0.6,1c0,0.8-0.6,1.3-1.5,1.3
			c-0.4,0-0.8-0.1-1-0.2l0.1-0.4c0.2,0.1,0.5,0.2,0.8,0.2c0.5,0,0.9-0.3,0.9-0.8c0-0.5-0.3-0.9-1.1-0.9c-0.2,0-0.4,0-0.5,0l0.3-1.9
			h1.9V55.7z"/>

</svg>