<?xml version="1.0" encoding="utf-8"?>
<!-- Generator: Adobe Illustrator 26.2.1, SVG Export Plug-In . SVG Version: 6.00 Build 0)  -->
<svg version="1.1" xmlns="http://www.w3.org/2000/svg" xmlns:xlink="http://www.w3.org/1999/xlink" x="0px" y="0px"
	 viewBox="0 0 100 100" style="enable-background:new 0 0 100 100;" xml:space="preserve" width = "100px" height = "100px">
<style type="text/css">
	.st0{display:none;}
	.st1{display:inline;}
</style>

	<path class="st0" d="M56.9,88.2"/>
	
		<path d="M38.1,27.7c-0.2,0.9-0.9,1.3-2.2,1.4C32.5,50.8,25.5,77,9,92.6c-1.2-1.4-3.8-3.8-5.4-4.9c15.8-14.5,22.3-39.8,25.1-61.4
			L38.1,27.7z M26,7.4h41.6c3.2,35.2,10.3,65.4,28.8,79.6c-1.9,1.2-4.8,3.6-6.4,5.3C72,77.3,64.7,48.2,61.4,14.4H26V7.4z"/>

		<path d="M77.8,89.6C63.3,73.5,55.5,50.7,54.5,21.9l1.5,0c1,28.5,8.6,50.9,22.9,66.7L77.8,89.6z"/>
		
			<path d="M81.5,92.4c-2-1-4.8-2.1-7-2.3l3.5-1.5l1.7-3.4C79.8,87.4,80.6,90.3,81.5,92.4z"/>

		<path d="M49.8,27.1v-0.3l0.4-0.4c1-0.9,1.4-1.5,1.5-2c0-0.4-0.2-0.8-0.8-0.8c-0.4,0-0.6,0.2-0.8,0.3l-0.2-0.4
			c0.3-0.2,0.7-0.4,1.1-0.4c0.8,0,1.2,0.6,1.2,1.1c0,0.7-0.5,1.3-1.3,2.1l-0.3,0.3v0h1.8v0.4H49.8z"/>
 </svg>