<?xml version="1.0" encoding="utf-8"?>
<!-- Generator: Adobe Illustrator 26.2.1, SVG Export Plug-In . SVG Version: 6.00 Build 0)  -->
<svg version="1.1" xmlns="http://www.w3.org/2000/svg" xmlns:xlink="http://www.w3.org/1999/xlink" x="0px" y="0px"
	 viewBox="0 0 100 100" style="enable-background:new 0 0 100 100;" xml:space="preserve" width = "100px" height = "100px">
<style type="text/css">
	.st0{display:none;}
	.st1{display:inline;}
</style> 

	<path class="st2" d="M56.9,88.2"/>

		<path d="M38.1,27.7c-0.2,0.9-0.9,1.3-2.2,1.4C32.5,50.8,25.5,77,9,92.6c-1.2-1.4-3.8-3.8-5.4-4.9c15.8-14.5,22.3-39.8,25.1-61.4
			L38.1,27.7z"/>

		<path d="M19.8,92.3l-1.2-0.9c13-16.4,20.4-37.5,22.2-62.6l1.5,0.1C40.5,54.3,32.9,75.6,19.8,92.3z"/>

			<path d="M16.3,95.3c0.7-2.2,1.3-5.1,1.3-7.2l2,3.2l3.6,1.2C21,92.9,18.3,94.1,16.3,95.3z"/>


		<path d="M45.6,30.5L45.6,30.5l-0.7,0.4l-0.1-0.4l0.9-0.5h0.4v3.9h-0.5V30.5z"/>



</svg>