<?xml version="1.0" encoding="utf-8"?>
<!-- Generator: Adobe Illustrator 26.2.1, SVG Export Plug-In . SVG Version: 6.00 Build 0)  -->
<svg version="1.1" xmlns="http://www.w3.org/2000/svg" xmlns:xlink="http://www.w3.org/1999/xlink" x="0px" y="0px"
	 viewBox="0 0 100 100" style="enable-background:new 0 0 100 100;" xml:space="preserve">
<style type="text/css">
	.st0{fill:#FFFFFF;}
	.st1{display:none;}
	.st2{display:inline;fill:#FFFFFF;}
	.st3{display:inline;}
	.st4{fill:none;stroke:#000000;stroke-width:1.5;stroke-miterlimit:10;}
	.st5{font-family:'MyriadPro-Regular';}
	.st6{font-size:6px;}
	.st7{fill:url(#SVGID_1_);}
</style>
<g id="Stroke3">
	<path class="st0" d="M56.9,88.2"/>
	<g>
		<path d="M39,53c-0.3,0.7-1.1,1.1-2.3,1c-6.4,15.4-16.1,31.4-26,41.7c-1.4-1.2-4.2-3.4-6-4.5c9.7-9.5,19.4-25.5,25.3-41.1L39,53z
			 M53.7,28.3h41.6v6.9H5.8v-6.9h40.7V4.1l9.2,0.6c-0.1,0.7-0.6,1.2-2,1.4V28.3z M87.6,95.9c-4.3-11.2-15-29.4-24.8-42.8l6.6-2.8
			c9.8,13.2,20.8,30.9,25.4,42.2L87.6,95.9z"/>
	</g>
	<g>
		<path d="M78,91.5c-3.4-12.1-9.6-23.6-18.4-34.2l1.2-1C69.7,67.1,76,78.8,79.5,91.1L78,91.5z"/>
		<g>
			<path d="M79.9,95.7c-1.3-1.9-3.3-4.1-5.1-5.3l3.8,0.3l3.1-2.2C80.7,90.5,80.1,93.4,79.9,95.7z"/>
		</g>
	</g>
	<g>
		<path d="M58.6,66.2v-1.1h-1.8v-0.3l1.7-2.5h0.6v2.4h0.5v0.4h-0.5v1.1H58.6z M58.6,64.7v-1.3c0-0.2,0-0.4,0-0.6h0
			c-0.1,0.2-0.2,0.4-0.3,0.6l-1,1.3v0H58.6z"/>
	</g>
</g>
<g id="Stroke2" class="st1">
	<path class="st2" d="M56.9,88.2"/>
	<g class="st3">
		<path d="M39,53c-0.3,0.7-1.1,1.1-2.3,1c-6.4,15.4-16.1,31.4-26,41.7c-1.4-1.2-4.2-3.4-6-4.5c9.7-9.5,19.4-25.5,25.3-41.1L39,53z
			 M53.7,28.3h41.6v6.9H5.8v-6.9h40.7V4.1l9.2,0.6c-0.1,0.7-0.6,1.2-2,1.4V28.3z"/>
		<g>
			<g>
				<path class="st4" d="M42.2,58.7c-7.1,18.7-15,28.6-22.3,34.6"/>
				<g>
					<path d="M16.4,96.1c1.2-2,2.3-4.7,2.7-6.8l1.3,3.6l3.3,2C21.5,94.7,18.6,95.4,16.4,96.1z"/>
				</g>
			</g>
		</g>
	</g>
	<text transform="matrix(1 0 0 1 44.2173 61.0049)" class="st3 st5 st6">3</text>
</g>
<g id="Stroke1" class="st1">
	<path class="st2" d="M56.9,88.2"/>
	<g class="st3">
		<path d="M30,50.1 M53.7,28.3h41.6v6.9H5.8v-6.9h40.7V4.1l9.2,0.6c-0.1,0.7-0.6,1.2-2,1.4V28.3z"/>
	</g>
	<g class="st3">
		<line x1="6.2" y1="40.6" x2="88.4" y2="40.6"/>
		<g>
			<rect x="6.2" y="39.8" width="77.7" height="1.5"/>
			<g>
				<path d="M88.4,40.6c-2.1,0.8-4.8,2.1-6.4,3.6l1.3-3.6L82,37C83.7,38.4,86.3,39.8,88.4,40.6z"/>
			</g>
		</g>
	</g>
	<g class="st3">
		<path d="M7.8,49.4V49l0.4-0.4c1-0.9,1.4-1.5,1.5-2c0-0.4-0.2-0.8-0.8-0.8c-0.4,0-0.6,0.2-0.8,0.3l-0.2-0.4
			c0.3-0.2,0.7-0.4,1.1-0.4c0.8,0,1.2,0.6,1.2,1.1c0,0.7-0.5,1.3-1.3,2.1l-0.3,0.3v0h1.8v0.4H7.8z"/>
	</g>
</g>
<g id="Kanji" class="st1">
	<path class="st2" d="M56.9,88.2"/>
	<g class="st3">
		<path d="M39,53c-0.3,0.7-1.1,1.1-2.3,1c-6.4,15.4-16.1,31.4-26,41.7c-1.4-1.2-4.2-3.4-6-4.5c9.7-9.5,19.4-25.5,25.3-41.1L39,53z
			 M53.7,28.3h41.6v6.9H5.8v-6.9h40.7V4.1l9.2,0.6c-0.1,0.7-0.6,1.2-2,1.4V28.3z M87.6,95.9c-4.3-11.2-15-29.4-24.8-42.8l6.6-2.8
			c9.8,13.2,20.8,30.9,25.4,42.2L87.6,95.9z"/>
	</g>
</g>
<g id="Stroke0" class="st1">
	<path class="st2" d="M56.9,88.2"/>
	<g class="st3">
		<path d="M46.5,28.3V4.1l9.2,0.6c-0.1,0.7-0.6,1.2-2,1.4v22.2"/>
	</g>
	<g class="st3">
		<linearGradient id="SVGID_1_" gradientUnits="userSpaceOnUse" x1="59.9814" y1="14.966" x2="59.9814" y2="14.966">
			<stop  offset="0" style="stop-color:#FFFFFF"/>
			<stop  offset="1" style="stop-color:#000000"/>
		</linearGradient>
		<line class="st7" x1="60" y1="5.1" x2="60" y2="24.8"/>
		<g>
			<rect x="59.2" y="5.1" width="1.5" height="15.1"/>
			<g>
				<path d="M60,24.8c-0.8-2.1-2.1-4.8-3.6-6.4l3.6,1.3l3.6-1.3C62.1,20,60.8,22.7,60,24.8z"/>
			</g>
		</g>
	</g>
	<g class="st3">
		<path d="M65.4,6.4L65.4,6.4l-0.7,0.4l-0.1-0.4l0.9-0.5h0.4v3.9h-0.5V6.4z"/>
	</g>
</g>
</svg>
