<?xml version="1.0" encoding="utf-8"?>
<!-- Generator: Adobe Illustrator 26.2.1, SVG Export Plug-In . SVG Version: 6.00 Build 0)  -->
<svg version="1.1" xmlns="http://www.w3.org/2000/svg" xmlns:xlink="http://www.w3.org/1999/xlink" x="0px" y="0px"
	 viewBox="0 0 100 100" style="enable-background:new 0 0 100 100;" xml:space="preserve" width = "100px" height = "100px">
<style type="text/css">
	.st0{display:none;}
	.st1{display:inline;}
</style> 

	<path class="st2" d="M56.9,88.2"/>

		<path d="M39,53c-0.3,0.7-1.1,1.1-2.3,1c-6.4,15.4-16.1,31.4-26,41.7c-1.4-1.2-4.2-3.4-6-4.5c9.7-9.5,19.4-25.5,25.3-41.1L39,53z
			 M53.7,28.3h41.6v6.9H5.8v-6.9h40.7V4.1l9.2,0.6c-0.1,0.7-0.6,1.2-2,1.4V28.3z"/>

				<path class="st4" d="M42.2,58.7c-7.1,18.7-15,28.6-22.3,34.6"/>
		
					<path d="M16.4,96.1c1.2-2,2.3-4.7,2.7-6.8l1.3,3.6l3.3,2C21.5,94.7,18.6,95.4,16.4,96.1z"/>

	<text transform="matrix(1 0 0 1 44.2173 61.0049)" class="st3 st5 st6">3</text>

</svg>