<?xml version="1.0" encoding="utf-8"?>
<!-- Generator: Adobe Illustrator 26.2.1, SVG Export Plug-In . SVG Version: 6.00 Build 0)  -->
<svg version="1.1" xmlns="http://www.w3.org/2000/svg" xmlns:xlink="http://www.w3.org/1999/xlink" x="0px" y="0px"
	 viewBox="0 0 100 100" style="enable-background:new 0 0 100 100;" xml:space="preserve" width = "100px" height = "100px">
<style type="text/css">
	.st0{display:none;}
	.st1{display:inline;}
</style> 


	<path class="st2" d="M56.9,88.2"/>
	
		<path d="M30,50.1 M53.7,28.3h41.6v6.9H5.8v-6.9h40.7V4.1l9.2,0.6c-0.1,0.7-0.6,1.2-2,1.4V28.3z"/>


		<line x1="6.2" y1="40.6" x2="88.4" y2="40.6"/>

			<rect x="6.2" y="39.8" width="77.7" height="1.5"/>
	
				<path d="M88.4,40.6c-2.1,0.8-4.8,2.1-6.4,3.6l1.3-3.6L82,37C83.7,38.4,86.3,39.8,88.4,40.6z"/>

		<path d="M7.8,49.4V49l0.4-0.4c1-0.9,1.4-1.5,1.5-2c0-0.4-0.2-0.8-0.8-0.8c-0.4,0-0.6,0.2-0.8,0.3l-0.2-0.4
			c0.3-0.2,0.7-0.4,1.1-0.4c0.8,0,1.2,0.6,1.2,1.1c0,0.7-0.5,1.3-1.3,2.1l-0.3,0.3v0h1.8v0.4H7.8z"/>

</svg>