<?xml version="1.0" encoding="utf-8"?>
<!-- Generator: Adobe Illustrator 26.2.1, SVG Export Plug-In . SVG Version: 6.00 Build 0)  -->
<svg version="1.1" xmlns="http://www.w3.org/2000/svg" xmlns:xlink="http://www.w3.org/1999/xlink" x="0px" y="0px"
	 viewBox="0 0 100 100" style="enable-background:new 0 0 100 100;" xml:space="preserve">
<style type="text/css">
	.st0{fill:none;}
	.st1{display:none;}
	.st2{display:inline;fill:none;}
	.st3{display:inline;}
	.st4{fill:url(#SVGID_1_);}
</style>
<g id="Stroke3">
	<rect x="17.2" y="27.6" class="st0" width="12.6" height="0"/>
	<g>
		<path d="M17.5,7.6h64.9v84.2h-7v-6h-51v6.6h-6.9V7.6z M75.5,14.4h-51v28.7h51V14.4z M24.4,79h51V49.7h-51V79z"/>
	</g>
	<g>
		<line x1="27.6" y1="90" x2="68.1" y2="90"/>
		<g>
			<rect x="27.6" y="89.3" width="36" height="1.5"/>
			<g>
				<path d="M68.1,90c-2.1,0.8-4.8,2.1-6.4,3.6L63,90l-1.3-3.6C63.4,87.9,66,89.2,68.1,90z"/>
			</g>
		</g>
	</g>
	<g>
		<path d="M30.2,96.5v-1.1h-1.8v-0.3l1.7-2.5h0.6V95h0.5v0.4h-0.5v1.1H30.2z M30.2,95v-1.3c0-0.2,0-0.4,0-0.6h0
			c-0.1,0.2-0.2,0.4-0.3,0.6l-1,1.3v0H30.2z"/>
	</g>
</g>
<g id="Stroke2" class="st1">
	<rect x="17.2" y="27.6" class="st2" width="12.6" height="0"/>
	<g class="st3">
		<path d="M75.5,79h-51v13.4h-6.9V7.6h64.9v84.2h-7V79z M75.5,14.4h-51v28.7h51V14.4z M24.4,79h51V49.7h-51V79z"/>
	</g>
	<g class="st3">
		<path d="M27.1,53.5c0.5,0,39.1,0,39.1,0"/>
		<g>
			<rect x="27.1" y="52.8" width="34.6" height="1.5"/>
			<g>
				<path d="M66.2,53.5c-2.1,0.8-4.8,2.1-6.4,3.6l1.3-3.6L59.7,50C61.4,51.4,64,52.8,66.2,53.5z"/>
			</g>
		</g>
	</g>
	<g class="st3">
		<path d="M28,60.9c0.1,0.1,0.5,0.2,0.9,0.2c0.7,0,0.9-0.4,0.9-0.8c0-0.5-0.5-0.8-1-0.8h-0.3v-0.4h0.3c0.4,0,0.9-0.2,0.9-0.7
			c0-0.3-0.2-0.6-0.7-0.6c-0.3,0-0.6,0.1-0.8,0.3L28,57.8c0.2-0.1,0.6-0.3,1-0.3c0.8,0,1.1,0.5,1.1,0.9c0,0.4-0.2,0.7-0.7,0.9v0
			c0.5,0.1,0.9,0.5,0.9,1c0,0.6-0.5,1.2-1.4,1.2c-0.4,0-0.8-0.1-1-0.3L28,60.9z"/>
	</g>
</g>
<g id="Stroke1" class="st1">
	<rect x="17.2" y="27.6" class="st2" width="12.6" height="0"/>
	<g class="st3">
		<path d="M75.5,14.4h-51v78h-6.9V7.6h64.9v84.2h-7"/>
	</g>
	<g class="st3">
		<path d="M71.9,36.3h-1.5v-5.9c0-3.8-1.8-7.5-4.9-9.8c-1.3-1-2.9-1.5-4.5-1.5c-5.5,0-18,0-26,0c-4.9,0-7.3,0-7.4,0l0-1.5
			c0.2,0,3.2,0,7.4,0c8,0,20.5,0,26,0c2,0,3.8,0.6,5.4,1.8c3.4,2.6,5.5,6.7,5.5,11V36.3z"/>
		<g>
			<path d="M71.2,40.8c-0.8-2.1-2.1-4.8-3.6-6.4l3.6,1.3l3.6-1.3C73.3,36,72,38.7,71.2,40.8z"/>
		</g>
	</g>
	<g class="st3">
		<path d="M28.6,24.9v-0.3l0.4-0.4c1-0.9,1.4-1.5,1.5-2c0-0.4-0.2-0.8-0.8-0.8c-0.4,0-0.6,0.2-0.8,0.3l-0.2-0.4
			c0.3-0.2,0.7-0.4,1.1-0.4c0.8,0,1.2,0.6,1.2,1.1c0,0.7-0.5,1.3-1.3,2.1l-0.3,0.3v0h1.8v0.4H28.6z"/>
	</g>
</g>
<g id="Stroke0" class="st1">
	<rect x="17.2" y="27.6" class="st2" width="12.6" height="0"/>
	<g class="st3">
		<path d="M24.4,7.6v78.2v6.6h-6.9V7.6 M24.4,79"/>
	</g>
	<g class="st3">
		<linearGradient id="SVGID_1_" gradientUnits="userSpaceOnUse" x1="30.423" y1="18.9577" x2="30.423" y2="18.9577">
			<stop  offset="0" style="stop-color:#FFFFFF"/>
			<stop  offset="1" style="stop-color:#000000"/>
		</linearGradient>
		<line class="st4" x1="30.4" y1="8.8" x2="30.4" y2="29.1"/>
		<g>
			<rect x="29.7" y="8.8" width="1.5" height="15.7"/>
			<g>
				<path d="M30.4,29.1c-0.8-2.1-2.1-4.8-3.6-6.4l3.6,1.3l3.6-1.3C32.6,24.3,31.2,27,30.4,29.1z"/>
			</g>
		</g>
	</g>
	<g class="st3">
		<path d="M35.6,10.5L35.6,10.5L35,10.9l-0.1-0.4l0.9-0.5h0.4v3.9h-0.5V10.5z"/>
	</g>
</g>
<g id="Kanji" class="st1">
	<rect x="17.2" y="27.6" class="st2" width="12.6" height="0"/>
	<g class="st3">
		<path d="M17.5,7.6h64.9v84.2h-7v-6h-51v6.6h-6.9V7.6z M75.5,14.4h-51v28.7h51V14.4z M24.4,79h51V49.7h-51V79z"/>
	</g>
</g>
</svg>
