<?xml version="1.0" encoding="utf-8"?>
<!-- Generator: Adobe Illustrator 26.2.1, SVG Export Plug-In . SVG Version: 6.00 Build 0)  -->
<svg version="1.1" xmlns="http://www.w3.org/2000/svg" xmlns:xlink="http://www.w3.org/1999/xlink" x="0px" y="0px"
	 viewBox="0 0 100 100" style="enable-background:new 0 0 100 100;" xml:space="preserve" width = "100px" height = "100px">
<style type="text/css">
	.st0{display:none;}
	.st1{display:inline;}
</style> 


	<rect x="17.2" y="27.6" class="st2" width="12.6" height="0"/>
	
		<path d="M75.5,79h-51v13.4h-6.9V7.6h64.9v84.2h-7V79z M75.5,14.4h-51v28.7h51V14.4z M24.4,79h51V49.7h-51V79z"/>


		<path d="M27.1,53.5c0.5,0,39.1,0,39.1,0"/>
	
			<rect x="27.1" y="52.8" width="34.6" height="1.5"/>
	
		<path d="M66.2,53.5c-2.1,0.8-4.8,2.1-6.4,3.6l1.3-3.6L59.7,50C61.4,51.4,64,52.8,66.2,53.5z"/>

		<path d="M28,60.9c0.1,0.1,0.5,0.2,0.9,0.2c0.7,0,0.9-0.4,0.9-0.8c0-0.5-0.5-0.8-1-0.8h-0.3v-0.4h0.3c0.4,0,0.9-0.2,0.9-0.7
			c0-0.3-0.2-0.6-0.7-0.6c-0.3,0-0.6,0.1-0.8,0.3L28,57.8c0.2-0.1,0.6-0.3,1-0.3c0.8,0,1.1,0.5,1.1,0.9c0,0.4-0.2,0.7-0.7,0.9v0
			c0.5,0.1,0.9,0.5,0.9,1c0,0.6-0.5,1.2-1.4,1.2c-0.4,0-0.8-0.1-1-0.3L28,60.9z"/>

</svg>