<?xml version="1.0" encoding="utf-8"?>
<!-- Generator: Adobe Illustrator 26.2.1, SVG Export Plug-In . SVG Version: 6.00 Build 0)  -->
<svg version="1.1" xmlns="http://www.w3.org/2000/svg" xmlns:xlink="http://www.w3.org/1999/xlink" x="0px" y="0px"
	 viewBox="0 0 100 100" style="enable-background:new 0 0 100 100;" xml:space="preserve" width = "100px" height = "100px">
<style type="text/css">
	.st0{display:none;}
	.st1{display:inline;}
</style> 

	<rect x="17.2" y="27.6" class="st2" width="12.6" height="0"/>

		<path d="M75.5,14.4h-51v78h-6.9V7.6h64.9v84.2h-7"/>

		<path d="M71.9,36.3h-1.5v-5.9c0-3.8-1.8-7.5-4.9-9.8c-1.3-1-2.9-1.5-4.5-1.5c-5.5,0-18,0-26,0c-4.9,0-7.3,0-7.4,0l0-1.5
			c0.2,0,3.2,0,7.4,0c8,0,20.5,0,26,0c2,0,3.8,0.6,5.4,1.8c3.4,2.6,5.5,6.7,5.5,11V36.3z"/>

			<path d="M71.2,40.8c-0.8-2.1-2.1-4.8-3.6-6.4l3.6,1.3l3.6-1.3C73.3,36,72,38.7,71.2,40.8z"/>

		<path d="M28.6,24.9v-0.3l0.4-0.4c1-0.9,1.4-1.5,1.5-2c0-0.4-0.2-0.8-0.8-0.8c-0.4,0-0.6,0.2-0.8,0.3l-0.2-0.4
			c0.3-0.2,0.7-0.4,1.1-0.4c0.8,0,1.2,0.6,1.2,1.1c0,0.7-0.5,1.3-1.3,2.1l-0.3,0.3v0h1.8v0.4H28.6z"/>



</svg>