<?xml version="1.0" encoding="utf-8"?>
<!-- Generator: Adobe Illustrator 26.2.1, SVG Export Plug-In . SVG Version: 6.00 Build 0)  -->
<svg version="1.1" xmlns="http://www.w3.org/2000/svg" xmlns:xlink="http://www.w3.org/1999/xlink" x="0px" y="0px"
	 viewBox="0 0 100 100" style="enable-background:new 0 0 100 100;" xml:space="preserve" width = "100px" height = "100px">
<style type="text/css">
	.st0{display:none;}
	.st1{display:inline;}
</style> 

	<rect x="17.2" y="27.6" class="st0" width="12.6" height="0"/>

		<path d="M17.5,7.6h64.9v84.2h-7v-6h-51v6.6h-6.9V7.6z M75.5,14.4h-51v28.7h51V14.4z M24.4,79h51V49.7h-51V79z"/>

		<line x1="27.6" y1="90" x2="68.1" y2="90"/>

			<rect x="27.6" y="89.3" width="36" height="1.5"/>
		
				<path d="M68.1,90c-2.1,0.8-4.8,2.1-6.4,3.6L63,90l-1.3-3.6C63.4,87.9,66,89.2,68.1,90z"/>

		<path d="M30.2,96.5v-1.1h-1.8v-0.3l1.7-2.5h0.6V95h0.5v0.4h-0.5v1.1H30.2z M30.2,95v-1.3c0-0.2,0-0.4,0-0.6h0
			c-0.1,0.2-0.2,0.4-0.3,0.6l-1,1.3v0H30.2z"/>

</svg>