<?xml version="1.0" encoding="utf-8"?>
<!-- Generator: Adobe Illustrator 26.2.1, SVG Export Plug-In . SVG Version: 6.00 Build 0)  -->
<svg version="1.1" xmlns="http://www.w3.org/2000/svg" xmlns:xlink="http://www.w3.org/1999/xlink" x="0px" y="0px"
	 viewBox="0 0 100 100" style="enable-background:new 0 0 100 100;" xml:space="preserve" width = "100px" height = "100px">
<style type="text/css">
	.st0{display:none;}
	.st1{display:inline;}
</style> 

	<path class="st0" d="M56.9,88.2"/>

		<path d="M95.3,38.3v6.9H53.1v51.2H46V45.2H4.7v-6.9H46V3.6l9.2,0.5c-0.1,0.8-0.7,1.3-2.1,1.5v32.7H95.3z"/>

		<line x1="59.7" y1="7.6" x2="59.7" y2="28.8"/>
	
			<rect x="58.9" y="7.6" width="1.5" height="16.7"/>
	
				<path d="M59.7,28.8c-0.8-2.1-2.1-4.8-3.6-6.4l3.6,1.3l3.6-1.3C61.8,24.1,60.4,26.7,59.7,28.8z"/>
		
		<path d="M64,11.9v-0.3l0.4-0.4c1-0.9,1.4-1.5,1.5-2c0-0.4-0.2-0.8-0.8-0.8c-0.4,0-0.6,0.2-0.8,0.3l-0.2-0.4
			C64.4,8.1,64.8,8,65.2,8c0.8,0,1.2,0.6,1.2,1.1c0,0.7-0.5,1.3-1.3,2.1l-0.3,0.3v0h1.8v0.4H64z"/>


	<path class="st2" d="M56.9,88.2"/>

		<path d="M95.3,38.3v6.9H53.1v51.2H46V45.2H4.7v-6.9H46V3.6l9.2,0.5c-0.1,0.8-0.7,1.3-2.1,1.5v32.7H95.3z"/>

</svg>